<svg xmlns="http://www.w3.org/2000/svg" xmlns:xlink="http://www.w3.org/1999/xlink" viewBox="0 0 601.94 299.39"><defs><style>.cls-1{isolation:isolate;}.cls-2{fill:#ad89b6;}.cls-10,.cls-100,.cls-101,.cls-102,.cls-103,.cls-104,.cls-11,.cls-113,.cls-115,.cls-116,.cls-12,.cls-125,.cls-13,.cls-130,.cls-135,.cls-136,.cls-137,.cls-138,.cls-14,.cls-15,.cls-16,.cls-17,.cls-18,.cls-2,.cls-20,.cls-21,.cls-22,.cls-23,.cls-24,.cls-25,.cls-26,.cls-27,.cls-28,.cls-29,.cls-3,.cls-30,.cls-31,.cls-33,.cls-34,.cls-35,.cls-36,.cls-37,.cls-38,.cls-39,.cls-4,.cls-40,.cls-41,.cls-42,.cls-43,.cls-44,.cls-45,.cls-46,.cls-47,.cls-48,.cls-49,.cls-5,.cls-50,.cls-51,.cls-52,.cls-53,.cls-55,.cls-57,.cls-59,.cls-6,.cls-64,.cls-65,.cls-66,.cls-67,.cls-68,.cls-69,.cls-7,.cls-70,.cls-72,.cls-73,.cls-74,.cls-79,.cls-8,.cls-9,.cls-90,.cls-91,.cls-93,.cls-94,.cls-95,.cls-96,.cls-97,.cls-98,.cls-99{fill-rule:evenodd;}.cls-117,.cls-118,.cls-121,.cls-2,.cls-35,.cls-44,.cls-53,.cls-63,.cls-75,.cls-76,.cls-77{opacity:0.8;}.cls-105,.cls-106,.cls-107,.cls-108,.cls-109,.cls-114,.cls-117,.cls-118,.cls-12,.cls-121,.cls-124,.cls-125,.cls-126,.cls-127,.cls-2,.cls-35,.cls-44,.cls-53,.cls-54,.cls-56,.cls-58,.cls-60,.cls-61,.cls-62,.cls-63,.cls-71,.cls-75,.cls-76,.cls-77,.cls-78,.cls-82,.cls-83,.cls-84,.cls-9,.cls-98{mix-blend-mode:multiply;}.cls-3{fill:url(#Áåçûìÿííûé_ãðàäèåíò_129);}.cls-4{fill:url(#Áåçûìÿííûé_ãðàäèåíò_131);}.cls-5{fill:#83669d;}.cls-6{fill:url(#Áåçûìÿííûé_ãðàäèåíò_47);}.cls-7{fill:url(#Áåçûìÿííûé_ãðàäèåíò_130);}.cls-8{fill:#8377a0;}.cls-9{fill:#8f64a2;}.cls-12,.cls-9,.cls-98{opacity:0.6;}.cls-10{fill:url(#Áåçûìÿííûé_ãðàäèåíò_130-2);}.cls-11{fill:url(#Áåçûìÿííûé_ãðàäèåíò_17);}.cls-12,.cls-35{fill:#ad8ea9;}.cls-13{fill:url(#Áåçûìÿííûé_ãðàäèåíò_15);}.cls-14{fill:url(#Áåçûìÿííûé_ãðàäèåíò_113);}.cls-15{fill:#901d4d;}.cls-16{fill:url(#Áåçûìÿííûé_ãðàäèåíò_32);}.cls-17{fill:url(#Áåçûìÿííûé_ãðàäèåíò_32-2);}.cls-18{fill:url(#Áåçûìÿííûé_ãðàäèåíò_32-3);}.cls-19{fill:url(#Áåçûìÿííûé_ãðàäèåíò_32-4);}.cls-20{fill:url(#Áåçûìÿííûé_ãðàäèåíò_129-2);}.cls-21{fill:url(#Áåçûìÿííûé_ãðàäèåíò_131-2);}.cls-22{fill:url(#Áåçûìÿííûé_ãðàäèåíò_47-2);}.cls-23{fill:url(#Áåçûìÿííûé_ãðàäèåíò_130-3);}.cls-24{fill:url(#Áåçûìÿííûé_ãðàäèåíò_130-4);}.cls-25{fill:url(#Áåçûìÿííûé_ãðàäèåíò_17-2);}.cls-26{fill:url(#Áåçûìÿííûé_ãðàäèåíò_15-2);}.cls-27{fill:url(#Áåçûìÿííûé_ãðàäèåíò_4);}.cls-28{fill:#3d3e90;}.cls-29{fill:url(#Áåçûìÿííûé_ãðàäèåíò_32-5);}.cls-30{fill:url(#Áåçûìÿííûé_ãðàäèåíò_32-6);}.cls-31{fill:url(#Áåçûìÿííûé_ãðàäèåíò_32-7);}.cls-32{fill:url(#Áåçûìÿííûé_ãðàäèåíò_32-8);}.cls-33{fill:url(#Áåçûìÿííûé_ãðàäèåíò_155);}.cls-34{fill:url(#Áåçûìÿííûé_ãðàäèåíò_3);}.cls-36{fill:url(#Áåçûìÿííûé_ãðàäèåíò_156);}.cls-37{fill:url(#Áåçûìÿííûé_ãðàäèåíò_3-2);}.cls-38{fill:url(#Áåçûìÿííûé_ãðàäèåíò_24);}.cls-39{fill:url(#Áåçûìÿííûé_ãðàäèåíò_41);}.cls-40{fill:url(#Áåçûìÿííûé_ãðàäèåíò_24-2);}.cls-41{fill:url(#Áåçûìÿííûé_ãðàäèåíò_41-2);}.cls-42{fill:url(#Áåçûìÿííûé_ãðàäèåíò_24-3);}.cls-43{fill:url(#Áåçûìÿííûé_ãðàäèåíò_41-3);}.cls-44{fill:#ad6da9;}.cls-45{fill:url(#Áåçûìÿííûé_ãðàäèåíò_107);}.cls-46{fill:url(#Áåçûìÿííûé_ãðàäèåíò_136);}.cls-47{fill:url(#Áåçûìÿííûé_ãðàäèåíò_107-2);}.cls-48{fill:url(#Áåçûìÿííûé_ãðàäèåíò_136-2);}.cls-49{fill:url(#Áåçûìÿííûé_ãðàäèåíò_107-3);}.cls-50{fill:url(#Áåçûìÿííûé_ãðàäèåíò_136-3);}.cls-51{fill:url(#Áåçûìÿííûé_ãðàäèåíò_136-4);}.cls-52{fill:url(#Áåçûìÿííûé_ãðàäèåíò_107-4);}.cls-53{fill:#ad6db3;}.cls-105,.cls-106,.cls-107,.cls-108,.cls-109,.cls-114,.cls-124,.cls-125,.cls-54,.cls-60,.cls-61,.cls-62,.cls-71,.cls-78{opacity:0.91;}.cls-54{fill:url(#Áåçûìÿííûé_ãðàäèåíò_73);}.cls-55{fill:url(#Áåçûìÿííûé_ãðàäèåíò_94);}.cls-56{fill:url(#Áåçûìÿííûé_ãðàäèåíò_73-2);}.cls-57{fill:url(#Áåçûìÿííûé_ãðàäèåíò_94-2);}.cls-58{fill:url(#Áåçûìÿííûé_ãðàäèåíò_73-3);}.cls-59{fill:url(#Áåçûìÿííûé_ãðàäèåíò_40);}.cls-60{fill:url(#Áåçûìÿííûé_ãðàäèåíò_73-4);}.cls-61{fill:url(#Áåçûìÿííûé_ãðàäèåíò_73-5);}.cls-62{fill:url(#Áåçûìÿííûé_ãðàäèåíò_73-6);}.cls-63{fill:url(#Áåçûìÿííûé_ãðàäèåíò_153);}.cls-64{fill:url(#Áåçûìÿííûé_ãðàäèåíò_68);}.cls-65{fill:url(#Áåçûìÿííûé_ãðàäèåíò_93);}.cls-66{fill:#b53d27;}.cls-67{fill:url(#Áåçûìÿííûé_ãðàäèåíò_147);}.cls-68{fill:url(#Áåçûìÿííûé_ãðàäèåíò_147-2);}.cls-69{fill:url(#Áåçûìÿííûé_ãðàäèåíò_93-2);}.cls-70{fill:url(#Áåçûìÿííûé_ãðàäèåíò_182);}.cls-125,.cls-71{fill:#935b9d;}.cls-72{fill:url(#Áåçûìÿííûé_ãðàäèåíò_184);}.cls-73{fill:#d2726c;}.cls-74{fill:url(#Áåçûìÿííûé_ãðàäèåíò_40-2);}.cls-75{fill:url(#Áåçûìÿííûé_ãðàäèåíò_153-2);}.cls-76{fill:url(#Áåçûìÿííûé_ãðàäèåíò_285);}.cls-77{fill:url(#Áåçûìÿííûé_ãðàäèåíò_285-2);}.cls-78{fill:url(#Áåçûìÿííûé_ãðàäèåíò_73-7);}.cls-79{fill:url(#Áåçûìÿííûé_ãðàäèåíò_16);}.cls-80{fill:url(#Áåçûìÿííûé_ãðàäèåíò_145);}.cls-81{fill:url(#Áåçûìÿííûé_ãðàäèåíò_145-2);}.cls-133,.cls-82,.cls-83,.cls-84{opacity:0.5;}.cls-82{fill:url(#Áåçûìÿííûé_ãðàäèåíò_2);}.cls-83{fill:url(#Áåçûìÿííûé_ãðàäèåíò_2-2);}.cls-84{fill:url(#Áåçûìÿííûé_ãðàäèåíò_2-3);}.cls-85{fill:url(#Áåçûìÿííûé_ãðàäèåíò_145-3);}.cls-86{fill:url(#Áåçûìÿííûé_ãðàäèåíò_145-4);}.cls-87{fill:url(#Áåçûìÿííûé_ãðàäèåíò_151);}.cls-88{fill:url(#Áåçûìÿííûé_ãðàäèåíò_152);}.cls-101,.cls-103,.cls-104,.cls-111,.cls-112,.cls-122,.cls-123,.cls-128,.cls-129,.cls-131,.cls-132,.cls-134,.cls-89{opacity:0.7;}.cls-101,.cls-103,.cls-104,.cls-110,.cls-111,.cls-112,.cls-119,.cls-120,.cls-122,.cls-123,.cls-128,.cls-129,.cls-131,.cls-132,.cls-133,.cls-134,.cls-89{mix-blend-mode:screen;}.cls-89{fill:url(#Áåçûìÿííûé_ãðàäèåíò_178);}.cls-90{fill:url(#Áåçûìÿííûé_ãðàäèåíò_33);}.cls-91{fill:url(#Áåçûìÿííûé_ãðàäèåíò_77);}.cls-92{fill:url(#Áåçûìÿííûé_ãðàäèåíò_153-3);}.cls-93{fill:url(#Áåçûìÿííûé_ãðàäèåíò_68-2);}.cls-94{fill:url(#Áåçûìÿííûé_ãðàäèåíò_132);}.cls-95{fill:url(#Áåçûìÿííûé_ãðàäèåíò_124);}.cls-96{fill:#50182a;}.cls-97{fill:#4b1124;}.cls-98{fill:#9a2463;}.cls-99{fill:url(#Áåçûìÿííûé_ãðàäèåíò_133);}.cls-100{fill:#755689;}.cls-101,.cls-137,.cls-139,.cls-140{fill:#fff;}.cls-102{fill:url(#Áåçûìÿííûé_ãðàäèåíò_133-2);}.cls-103{fill:url(#Áåçûìÿííûé_ãðàäèåíò_186);}.cls-104{fill:url(#Áåçûìÿííûé_ãðàäèåíò_186-2);}.cls-105{fill:url(#Áåçûìÿííûé_ãðàäèåíò_73-8);}.cls-106{fill:url(#Áåçûìÿííûé_ãðàäèåíò_73-9);}.cls-107{fill:url(#Áåçûìÿííûé_ãðàäèåíò_73-10);}.cls-108{fill:#93789d;}.cls-109{fill:url(#Áåçûìÿííûé_ãðàäèåíò_73-11);}.cls-110{opacity:0.33;fill:url(#Áåçûìÿííûé_ãðàäèåíò_167);}.cls-111{fill:url(#Áåçûìÿííûé_ãðàäèåíò_172);}.cls-112{fill:url(#Áåçûìÿííûé_ãðàäèåíò_172-2);}.cls-113{fill:url(#Áåçûìÿííûé_ãðàäèåíò_177);}.cls-114{fill:url(#Áåçûìÿííûé_ãðàäèåíò_73-12);}.cls-115{fill:url(#Áåçûìÿííûé_ãðàäèåíò_68-3);}.cls-116{fill:url(#Áåçûìÿííûé_ãðàäèåíò_84);}.cls-117{fill:url(#Áåçûìÿííûé_ãðàäèåíò_153-4);}.cls-118{fill:url(#Áåçûìÿííûé_ãðàäèåíò_153-5);}.cls-119{opacity:0.2;fill:url(#Áåçûìÿííûé_ãðàäèåíò_176);}.cls-120{opacity:0.4;fill:url(#Áåçûìÿííûé_ãðàäèåíò_163);}.cls-121{fill:url(#Áåçûìÿííûé_ãðàäèåíò_153-6);}.cls-122{fill:url(#Áåçûìÿííûé_ãðàäèåíò_179);}.cls-123{fill:url(#Áåçûìÿííûé_ãðàäèåíò_181);}.cls-124{fill:url(#Áåçûìÿííûé_ãðàäèåíò_73-13);}.cls-126{fill:url(#Áåçûìÿííûé_ãðàäèåíò_73-14);}.cls-127{fill:url(#Áåçûìÿííûé_ãðàäèåíò_73-15);}.cls-128{fill:url(#Áåçûìÿííûé_ãðàäèåíò_185);}.cls-129{fill:url(#Áåçûìÿííûé_ãðàäèåíò_185-2);}.cls-130{fill:url(#Áåçûìÿííûé_ãðàäèåíò_201);}.cls-131{fill:url(#Áåçûìÿííûé_ãðàäèåíò_179-2);}.cls-132{fill:url(#Áåçûìÿííûé_ãðàäèåíò_208);}.cls-133{fill:url(#Áåçûìÿííûé_ãðàäèåíò_210);}.cls-134{fill:url(#Áåçûìÿííûé_ãðàäèåíò_210-2);}.cls-135{fill:url(#Áåçûìÿííûé_ãðàäèåíò_128);}.cls-136{fill:url(#Áåçûìÿííûé_ãðàäèåíò_107-5);}.cls-138{fill:#36131f;}.cls-139{font-size:14.01px;}.cls-139,.cls-140{font-family:Konnect-Black, Konnect;font-weight:800;}.cls-140{font-size:21.33px;}</style><linearGradient id="Áåçûìÿííûé_ãðàäèåíò_129" x1="546.56" y1="178.02" x2="546.56" y2="12.11" gradientUnits="userSpaceOnUse"><stop offset="0.02" stop-color="#d8cfff"/><stop offset="1" stop-color="#f5f4f9"/></linearGradient><linearGradient id="Áåçûìÿííûé_ãðàäèåíò_131" x1="651.72" y1="220.91" x2="651.72" y2="63.88" gradientTransform="translate(-35.35 -42.89) scale(0.89 1)" gradientUnits="userSpaceOnUse"><stop offset="0.02" stop-color="#b3b9ec"/><stop offset="1" stop-color="#e6e3f0"/></linearGradient><linearGradient id="Áåçûìÿííûé_ãðàäèåíò_47" x1="508.58" y1="176.6" x2="508.58" y2="24.69" gradientUnits="userSpaceOnUse"><stop offset="0.02" stop-color="#8268aa"/><stop offset="1" stop-color="#a9a1ca"/></linearGradient><linearGradient id="Áåçûìÿííûé_ãðàäèåíò_130" x1="540.19" y1="167.84" x2="547.65" y2="27.08" xlink:href="#Áåçûìÿííûé_ãðàäèåíò_129"/><linearGradient id="Áåçûìÿííûé_ãðàäèåíò_130-2" x1="543.04" y1="168.07" x2="550.53" y2="26.67" xlink:href="#Áåçûìÿííûé_ãðàäèåíò_129"/><linearGradient id="Áåçûìÿííûé_ãðàäèåíò_17" x1="514.58" y1="120.5" x2="514.58" y2="104.43" gradientUnits="userSpaceOnUse"><stop offset="0" stop-color="#a9a1ca"/><stop offset="0.98" stop-color="#8268aa"/></linearGradient><linearGradient id="Áåçûìÿííûé_ãðàäèåíò_15" x1="514.31" y1="118.52" x2="514.31" y2="113.16" gradientUnits="userSpaceOnUse"><stop offset="0.02" stop-color="#8268aa"/><stop offset="1" stop-color="#7e72af"/></linearGradient><radialGradient id="Áåçûìÿííûé_ãðàäèåíò_113" cx="648.85" cy="98.55" r="21.2" gradientTransform="translate(-99.03 -20.98) scale(1 0.77)" gradientUnits="userSpaceOnUse"><stop offset="0" stop-color="#ff5607"/><stop offset="1" stop-color="#ff3347"/></radialGradient><linearGradient id="Áåçûìÿííûé_ãðàäèåíò_32" x1="622.62" y1="91.4" x2="622.9" y2="86.17" gradientUnits="userSpaceOnUse"><stop offset="0" stop-color="#e6e3f0"/><stop offset="0.98" stop-color="#b3b9ec"/></linearGradient><linearGradient id="Áåçûìÿííûé_ãðàäèåíò_32-2" x1="621.79" y1="117.27" x2="622.07" y2="112.04" xlink:href="#Áåçûìÿííûé_ãðàäèåíò_32"/><linearGradient id="Áåçûìÿííûé_ãðàäèåíò_32-3" x1="664.3" y1="89.38" x2="664.57" y2="84.15" xlink:href="#Áåçûìÿííûé_ãðàäèåíò_32"/><linearGradient id="Áåçûìÿííûé_ãðàäèåíò_32-4" x1="563.6" y1="73.55" x2="563.87" y2="68.31" xlink:href="#Áåçûìÿííûé_ãðàäèåíò_32"/><linearGradient id="Áåçûìÿííûé_ãðàäèåíò_129-2" x1="123.37" y1="220.91" x2="123.37" y2="55" gradientTransform="matrix(-1, 0, 0, 1, 210.28, -42.89)" xlink:href="#Áåçûìÿííûé_ãðàäèåíò_129"/><linearGradient id="Áåçûìÿííûé_ãðàäèåíò_131-2" x1="64.48" y1="220.91" x2="64.48" y2="63.88" gradientTransform="matrix(-0.89, 0, 0, 1, 146.6, -42.89)" xlink:href="#Áåçûìÿííûé_ãðàäèåíò_131"/><linearGradient id="Áåçûìÿííûé_ãðàäèåíò_47-2" x1="86.58" y1="219.49" x2="86.58" y2="67.59" gradientTransform="matrix(-1, 0, 0, 1, 210.28, -42.89)" xlink:href="#Áåçûìÿííûé_ãðàäèåíò_47"/><linearGradient id="Áåçûìÿííûé_ãðàäèåíò_130-3" x1="117" y1="210.61" x2="124.45" y2="70.04" gradientTransform="matrix(-1, 0, 0, 1, 210.28, -42.89)" xlink:href="#Áåçûìÿííûé_ãðàäèåíò_129"/><linearGradient id="Áåçûìÿííûé_ãðàäèåíò_130-4" x1="120.24" y1="210.93" x2="127.72" y2="69.8" gradientTransform="matrix(-1, 0, 0, 1, 210.28, -42.89)" xlink:href="#Áåçûìÿííûé_ãðàäèåíò_129"/><linearGradient id="Áåçûìÿííûé_ãðàäèåíò_17-2" x1="92.54" y1="163.39" x2="92.54" y2="147.32" gradientTransform="matrix(-1, 0, 0, 1, 210.28, -42.89)" xlink:href="#Áåçûìÿííûé_ãðàäèåíò_17"/><linearGradient id="Áåçûìÿííûé_ãðàäèåíò_15-2" x1="92.31" y1="161.42" x2="92.31" y2="156.06" gradientTransform="matrix(-1, 0, 0, 1, 210.28, -42.89)" xlink:href="#Áåçûìÿííûé_ãðàäèåíò_15"/><radialGradient id="Áåçûìÿííûé_ãðàäèåíò_4" cx="128.56" cy="91.81" r="33.52" gradientTransform="matrix(-1, 0, 0, 0.77, 210.28, -20.98)" gradientUnits="userSpaceOnUse"><stop offset="0" stop-color="#50ff69"/><stop offset="1" stop-color="#10490c"/></radialGradient><linearGradient id="Áåçûìÿííûé_ãðàäèåíò_32-5" x1="101.59" y1="91.4" x2="101.87" y2="86.17" gradientTransform="matrix(-1, 0, 0, 1, 309.31, 0)" xlink:href="#Áåçûìÿííûé_ãðàäèåíò_32"/><linearGradient id="Áåçûìÿííûé_ãðàäèåíò_32-6" x1="100.76" y1="117.27" x2="101.04" y2="112.04" gradientTransform="matrix(-1, 0, 0, 1, 309.31, 0)" xlink:href="#Áåçûìÿííûé_ãðàäèåíò_32"/><linearGradient id="Áåçûìÿííûé_ãðàäèåíò_32-7" x1="143.27" y1="89.38" x2="143.54" y2="84.15" gradientTransform="matrix(-1, 0, 0, 1, 309.31, 0)" xlink:href="#Áåçûìÿííûé_ãðàäèåíò_32"/><linearGradient id="Áåçûìÿííûé_ãðàäèåíò_32-8" x1="141.6" y1="116.44" x2="141.88" y2="111.21" gradientTransform="matrix(-1, 0, 0, 1, 210.28, -42.89)" xlink:href="#Áåçûìÿííûé_ãðàäèåíò_32"/><linearGradient id="Áåçûìÿííûé_ãðàäèåíò_155" x1="-21.77" y1="258.42" x2="-215.68" y2="258.42" gradientTransform="matrix(-1, 0, 0, 1, 13.44, -42.89)" gradientUnits="userSpaceOnUse"><stop offset="0" stop-color="#978dbf"/><stop offset="0.98" stop-color="#8268aa"/></linearGradient><linearGradient id="Áåçûìÿííûé_ãðàäèåíò_3" x1="-279.94" y1="221.1" x2="-21.77" y2="221.1" gradientTransform="matrix(-1, 0, 0, 1, 13.44, -42.89)" gradientUnits="userSpaceOnUse"><stop offset="0" stop-color="#f5f4f9"/><stop offset="0.98" stop-color="#d8cfe4"/></linearGradient><linearGradient id="Áåçûìÿííûé_ãðàäèåíò_156" x1="394.86" y1="215.53" x2="588.76" y2="215.53" gradientUnits="userSpaceOnUse"><stop offset="0.02" stop-color="#8268aa"/><stop offset="1" stop-color="#978dbf"/></linearGradient><linearGradient id="Áåçûìÿííûé_ãðàäèåíò_3-2" x1="330.59" y1="178.02" x2="588.76" y2="178.02" gradientTransform="matrix(1, 0, 0, 1, 0, 0)" xlink:href="#Áåçûìÿííûé_ãðàäèåíò_3"/><linearGradient id="Áåçûìÿííûé_ãðàäèåíò_24" x1="125.31" y1="259.21" x2="518.22" y2="259.21" gradientUnits="userSpaceOnUse"><stop offset="0" stop-color="#948abc"/><stop offset="0.98" stop-color="#b7a9ce"/></linearGradient><linearGradient id="Áåçûìÿííûé_ãðàäèåíò_41" x1="240.69" y1="276.51" x2="633.6" y2="276.51" gradientTransform="matrix(-1, 0, 0, 1, 758.91, -42.89)" gradientUnits="userSpaceOnUse"><stop offset="0.02" stop-color="#d8cfe4"/><stop offset="1" stop-color="#f5f4f9"/></linearGradient><linearGradient id="Áåçûìÿííûé_ãðàäèåíò_24-2" x1="169.95" y1="217.81" x2="473.73" y2="217.81" xlink:href="#Áåçûìÿííûé_ãðàäèåíò_24"/><linearGradient id="Áåçûìÿííûé_ãðàäèåíò_41-2" x1="285.18" y1="246.64" x2="588.97" y2="246.64" xlink:href="#Áåçûìÿííûé_ãðàäèåíò_41"/><linearGradient id="Áåçûìÿííûé_ãðàäèåíò_24-3" x1="198.16" y1="193.22" x2="448.24" y2="193.22" xlink:href="#Áåçûìÿííûé_ãðàäèåíò_24"/><linearGradient id="Áåçûìÿííûé_ãðàäèåíò_41-3" x1="310.68" y1="228.67" x2="560.76" y2="228.67" xlink:href="#Áåçûìÿííûé_ãðàäèåíò_41"/><radialGradient id="Áåçûìÿííûé_ãðàäèåíò_107" cx="321.77" cy="258.76" r="97.69" gradientUnits="userSpaceOnUse"><stop offset="0" stop-color="#ff384d"/><stop offset="1" stop-color="#e31a3b"/></radialGradient><radialGradient id="Áåçûìÿííûé_ãðàäèåíò_136" cx="437.15" cy="276.72" r="97.17" gradientTransform="matrix(-1, 0, 0, 1, 758.91, -42.89)" gradientUnits="userSpaceOnUse"><stop offset="0" stop-color="#ffca15"/><stop offset="1" stop-color="#ffac47"/></radialGradient><radialGradient id="Áåçûìÿííûé_ãðàäèåíò_107-2" cx="321.82" cy="217.59" r="75.31" xlink:href="#Áåçûìÿííûé_ãðàäèåíò_107"/><radialGradient id="Áåçûìÿííûé_ãðàäèåíò_136-2" cx="437.1" cy="246.64" r="75.04" xlink:href="#Áåçûìÿííûé_ãðàäèåíò_136"/><radialGradient id="Áåçûìÿííûé_ãðàäèåíò_107-3" cx="322.77" cy="193.22" r="61.9" xlink:href="#Áåçûìÿííûé_ãðàäèåíò_107"/><radialGradient id="Áåçûìÿííûé_ãðàäèåíò_136-3" cx="436.15" cy="228.67" r="61.74" xlink:href="#Áåçûìÿííûé_ãðàäèåíò_136"/><radialGradient id="Áåçûìÿííûé_ãðàäèåíò_136-4" cx="316.62" cy="282.95" r="143.16" gradientTransform="matrix(1, 0, 0, 1, 0, 0)" xlink:href="#Áåçûìÿííûé_ãðàäèåíò_136"/><radialGradient id="Áåçûìÿííûé_ãðàäèåíò_107-4" cx="316.62" cy="296.4" r="142.92" xlink:href="#Áåçûìÿííûé_ãðàäèåíò_107"/><linearGradient id="Áåçûìÿííûé_ãðàäèåíò_73" x1="294.56" y1="202.87" x2="377.71" y2="202.87" gradientUnits="userSpaceOnUse"><stop offset="0.02" stop-color="#d1a1d6"/><stop offset="0.99" stop-color="#bd89c4"/></linearGradient><linearGradient id="Áåçûìÿííûé_ãðàäèåíò_94" x1="357.77" y1="215.91" x2="357.77" y2="203.39" gradientUnits="userSpaceOnUse"><stop offset="0" stop-color="#aea8c2"/><stop offset="0.98" stop-color="#8c74b1"/></linearGradient><linearGradient id="Áåçûìÿííûé_ãðàäèåíò_73-2" x1="352.65" y1="209.94" x2="362.5" y2="209.94" xlink:href="#Áåçûìÿííûé_ãðàäèåíò_73"/><linearGradient id="Áåçûìÿííûé_ãðàäèåíò_94-2" x1="298.77" y1="270.83" x2="298.77" y2="257.21" xlink:href="#Áåçûìÿííûé_ãðàäèåíò_94"/><linearGradient id="Áåçûìÿííûé_ãðàäèåíò_73-3" x1="293.96" y1="264.02" x2="303.58" y2="264.02" xlink:href="#Áåçûìÿííûé_ãðàäèåíò_73"/><linearGradient id="Áåçûìÿííûé_ãðàäèåíò_40" x1="357.24" y1="128.15" x2="357.24" y2="111.67" gradientUnits="userSpaceOnUse"><stop offset="0.02" stop-color="#ff9f7a"/><stop offset="1" stop-color="#ffb06d"/></linearGradient><linearGradient id="Áåçûìÿííûé_ãðàäèåíò_73-4" x1="347.48" y1="127.45" x2="348.79" y2="119.98" xlink:href="#Áåçûìÿííûé_ãðàäèåíò_73"/><linearGradient id="Áåçûìÿííûé_ãðàäèåíò_73-5" x1="362.89" y1="117.5" x2="363.46" y2="114.3" xlink:href="#Áåçûìÿííûé_ãðàäèåíò_73"/><linearGradient id="Áåçûìÿííûé_ãðàäèåíò_73-6" x1="364.3" y1="119.01" x2="364.72" y2="116.66" xlink:href="#Áåçûìÿííûé_ãðàäèåíò_73"/><linearGradient id="Áåçûìÿííûé_ãðàäèåíò_153" x1="354.82" y1="128.33" x2="357.61" y2="112.53" gradientUnits="userSpaceOnUse"><stop offset="0.01" stop-color="#b060f4"/><stop offset="1" stop-color="#ffeadb"/></linearGradient><linearGradient id="Áåçûìÿííûé_ãðàäèåíò_68" x1="347.67" y1="127.76" x2="347.67" y2="118.89" gradientTransform="translate(-8.97 24.51) rotate(-3.85)" gradientUnits="userSpaceOnUse"><stop offset="0.02" stop-color="#e1dbeb"/><stop offset="0.17" stop-color="#e7e2f1"/><stop offset="0.56" stop-color="#f0ecfb"/><stop offset="1" stop-color="#f3f0fe"/></linearGradient><radialGradient id="Áåçûìÿííûé_ãðàäèåíò_93" cx="341.59" cy="121.77" r="4.66" gradientTransform="translate(-8.97 24.51) rotate(-3.85)" gradientUnits="userSpaceOnUse"><stop offset="0" stop-color="#4b3272"/><stop offset="0.99" stop-color="#432160"/></radialGradient><linearGradient id="Áåçûìÿííûé_ãðàäèåíò_147" x1="364.8" y1="227.5" x2="364.8" y2="219.08" gradientUnits="userSpaceOnUse"><stop offset="0" stop-color="#b86127"/><stop offset="1" stop-color="#d85522"/></linearGradient><linearGradient id="Áåçûìÿííûé_ãðàäèåíò_147-2" x1="306.41" y1="285.17" x2="306.41" y2="273.73" xlink:href="#Áåçûìÿííûé_ãðàäèåíò_147"/><radialGradient id="Áåçûìÿííûé_ãðàäèåíò_93-2" cx="309.04" cy="182.31" r="49.41" gradientTransform="matrix(1, 0, 0, 1, 0, 0)" xlink:href="#Áåçûìÿííûé_ãðàäèåíò_93"/><linearGradient id="Áåçûìÿííûé_ãðàäèåíò_182" x1="292.75" y1="273.33" x2="319.63" y2="273.33" gradientUnits="userSpaceOnUse"><stop offset="0.01" stop-color="#570e33"/><stop offset="1" stop-color="#8d4009"/></linearGradient><linearGradient id="Áåçûìÿííûé_ãðàäèåíò_184" x1="350.72" y1="217.76" x2="378.77" y2="217.76" xlink:href="#Áåçûìÿííûé_ãðàäèåíò_182"/><linearGradient id="Áåçûìÿííûé_ãðàäèåíò_40-2" x1="335.92" y1="81.38" x2="335.92" y2="45.55" xlink:href="#Áåçûìÿííûé_ãðàäèåíò_40"/><linearGradient id="Áåçûìÿííûé_ãðàäèåíò_153-2" x1="335.47" y1="80.36" x2="335.47" y2="61.07" xlink:href="#Áåçûìÿííûé_ãðàäèåíò_153"/><linearGradient id="Áåçûìÿííûé_ãðàäèåíò_285" x1="346.65" y1="66.33" x2="348.91" y2="53.54" gradientUnits="userSpaceOnUse"><stop offset="0" stop-color="#ffeadb"/><stop offset="0.99" stop-color="#b060f4"/></linearGradient><linearGradient id="Áåçûìÿííûé_ãðàäèåíò_285-2" x1="342.37" y1="69.15" x2="343.55" y2="62.47" xlink:href="#Áåçûìÿííûé_ãðàäèåíò_285"/><linearGradient id="Áåçûìÿííûé_ãðàäèåíò_73-7" x1="333.6" y1="78.32" x2="335.69" y2="66.42" xlink:href="#Áåçûìÿííûé_ãðàäèåíò_73"/><linearGradient id="Áåçûìÿííûé_ãðàäèåíò_16" x1="335.34" y1="72.39" x2="335.34" y2="42.89" gradientUnits="userSpaceOnUse"><stop offset="0.01" stop-color="#721d3b"/><stop offset="1" stop-color="#a63624"/></linearGradient><linearGradient id="Áåçûìÿííûé_ãðàäèåíò_145" x1="342.19" y1="63.34" x2="343.67" y2="54.95" gradientUnits="userSpaceOnUse"><stop offset="0.01" stop-color="#ae3438"/><stop offset="0.99" stop-color="#e06e31"/></linearGradient><linearGradient id="Áåçûìÿííûé_ãðàäèåíò_145-2" x1="345.21" y1="58.04" x2="346" y2="53.56" xlink:href="#Áåçûìÿííûé_ãðàäèåíò_145"/><linearGradient id="Áåçûìÿííûé_ãðàäèåíò_2" x1="340.53" y1="46" x2="341.06" y2="42.99" gradientUnits="userSpaceOnUse"><stop offset="0.01" stop-color="#be6888"/><stop offset="1" stop-color="#8e81f4"/></linearGradient><linearGradient id="Áåçûìÿííûé_ãðàäèåíò_2-2" x1="332.4" y1="73.55" x2="337.2" y2="46.33" xlink:href="#Áåçûìÿííûé_ãðàäèåíò_2"/><linearGradient id="Áåçûìÿííûé_ãðàäèåíò_2-3" x1="337.46" y1="49" x2="337.91" y2="46.46" xlink:href="#Áåçûìÿííûé_ãðàäèåíò_2"/><linearGradient id="Áåçûìÿííûé_ãðàäèåíò_145-3" x1="340.06" y1="48.91" x2="350.72" y2="48.91" xlink:href="#Áåçûìÿííûé_ãðàäèåíò_145"/><linearGradient id="Áåçûìÿííûé_ãðàäèåíò_145-4" x1="332.63" y1="44.7" x2="340.56" y2="44.7" xlink:href="#Áåçûìÿííûé_ãðàäèåíò_145"/><linearGradient id="Áåçûìÿííûé_ãðàäèåíò_151" x1="340.85" y1="55.74" x2="342.17" y2="48.21" gradientUnits="userSpaceOnUse"><stop offset="0.01" stop-color="#ae3438"/><stop offset="0.99" stop-color="#b54f31"/></linearGradient><linearGradient id="Áåçûìÿííûé_ãðàäèåíò_152" x1="324.32" y1="52.8" x2="325.42" y2="46.55" gradientUnits="userSpaceOnUse"><stop offset="0.01" stop-color="#e06e31"/><stop offset="0.99" stop-color="#ae3438"/></linearGradient><linearGradient id="Áåçûìÿííûé_ãðàäèåíò_178" x1="340.06" y1="51.51" x2="350.88" y2="51.51" gradientUnits="userSpaceOnUse"><stop offset="0"/><stop offset="0.08" stop-color="#081a1c"/><stop offset="0.34" stop-color="#1f676b"/><stop offset="0.57" stop-color="#32a3ab"/><stop offset="0.77" stop-color="#3fcfd8"/><stop offset="0.91" stop-color="#47eaf5"/><stop offset="1" stop-color="#4af4ff"/></linearGradient><radialGradient id="Áåçûìÿííûé_ãðàäèåíò_33" cx="307.54" cy="150.57" r="7.21" xlink:href="#Áåçûìÿííûé_ãðàäèåíò_94"/><radialGradient id="Áåçûìÿííûé_ãðàäèåíò_77" cx="309.42" cy="102.14" r="32.51" gradientUnits="userSpaceOnUse"><stop offset="0" stop-color="#543c79"/><stop offset="0.99" stop-color="#432160"/></radialGradient><linearGradient id="Áåçûìÿííûé_ãðàäèåíò_153-3" x1="310.31" y1="150.66" x2="322.73" y2="80.21" xlink:href="#Áåçûìÿííûé_ãðàäèåíò_153"/><linearGradient id="Áåçûìÿííûé_ãðàäèåíò_68-2" x1="330.28" y1="78.69" x2="330.28" y2="75.92" gradientTransform="matrix(1, 0, 0, 1, 0, 0)" xlink:href="#Áåçûìÿííûé_ãðàäèåíò_68"/><linearGradient id="Áåçûìÿííûé_ãðàäèåíò_132" x1="291.69" y1="188.87" x2="349.05" y2="188.87" gradientTransform="matrix(1, -0.07, 0.07, 1, -14.44, 21.56)" gradientUnits="userSpaceOnUse"><stop offset="0.01" stop-color="#570e33"/><stop offset="1" stop-color="#893100"/></linearGradient><linearGradient id="Áåçûìÿííûé_ãðàäèåíò_124" x1="303.95" y1="172" x2="349.05" y2="172" gradientTransform="matrix(1, -0.07, 0.07, 1, -14.44, 21.56)" gradientUnits="userSpaceOnUse"><stop offset="0" stop-color="#8d4009"/><stop offset="0.99" stop-color="#cc5a33"/></linearGradient><linearGradient id="Áåçûìÿííûé_ãðàäèåíò_133" x1="326.84" y1="194.83" x2="326.84" y2="188.47" xlink:href="#Áåçûìÿííûé_ãðàäèåíò_94"/><linearGradient id="Áåçûìÿííûé_ãðàäèåíò_133-2" x1="323.12" y1="203.54" x2="323.12" y2="199.2" xlink:href="#Áåçûìÿííûé_ãðàäèåíò_94"/><linearGradient id="Áåçûìÿííûé_ãðàäèåíò_186" x1="336.02" y1="183.67" x2="345.66" y2="183.67" xlink:href="#Áåçûìÿííûé_ãðàäèåíò_178"/><linearGradient id="Áåçûìÿííûé_ãðàäèåíò_186-2" x1="332.31" y1="202.51" x2="340.49" y2="202.51" xlink:href="#Áåçûìÿííûé_ãðàäèåíò_178"/><linearGradient id="Áåçûìÿííûé_ãðàäèåíò_73-8" x1="341.94" y1="106.24" x2="342.13" y2="105.21" xlink:href="#Áåçûìÿííûé_ãðàäèåíò_73"/><linearGradient id="Áåçûìÿííûé_ãðàäèåíò_73-9" x1="319.68" y1="160.62" x2="332.78" y2="86.31" xlink:href="#Áåçûìÿííûé_ãðàäèåíò_73"/><linearGradient id="Áåçûìÿííûé_ãðàäèåíò_73-10" x1="324.9" y1="88.58" x2="327.12" y2="75.98" xlink:href="#Áåçûìÿííûé_ãðàäèåíò_73"/><linearGradient id="Áåçûìÿííûé_ãðàäèåíò_73-11" x1="357.38" y1="164.76" x2="373.54" y2="164.76" xlink:href="#Áåçûìÿííûé_ãðàäèåíò_73"/><linearGradient id="Áåçûìÿííûé_ãðàäèåíò_167" x1="337.64" y1="148.38" x2="378.63" y2="148.38" gradientUnits="userSpaceOnUse"><stop offset="0"/><stop offset="0.08" stop-color="#11121c"/><stop offset="0.34" stop-color="#42476b"/><stop offset="0.57" stop-color="#6971ab"/><stop offset="0.77" stop-color="#858fd8"/><stop offset="0.91" stop-color="#97a2f5"/><stop offset="1" stop-color="#9da9ff"/></linearGradient><linearGradient id="Áåçûìÿííûé_ãðàäèåíò_172" x1="310.43" y1="257.9" x2="310.43" y2="215.8" gradientUnits="userSpaceOnUse"><stop offset="0" stop-color="#4af4ff"/><stop offset="0.09" stop-color="#47eaf5"/><stop offset="0.23" stop-color="#3fcfd8"/><stop offset="0.43" stop-color="#32a3ab"/><stop offset="0.66" stop-color="#1f676b"/><stop offset="0.92" stop-color="#081a1c"/><stop offset="1"/></linearGradient><linearGradient id="Áåçûìÿííûé_ãðàäèåíò_172-2" x1="374.19" y1="197.06" x2="374.19" y2="152.96" xlink:href="#Áåçûìÿííûé_ãðàäèåíò_172"/><linearGradient id="Áåçûìÿííûé_ãðàäèåíò_177" x1="327.45" y1="167.16" x2="327.45" y2="152.97" gradientUnits="userSpaceOnUse"><stop offset="0" stop-color="#f4867c"/><stop offset="0.98" stop-color="#ff9f68"/></linearGradient><linearGradient id="Áåçûìÿííûé_ãðàäèåíò_73-12" x1="326.1" y1="167.51" x2="328.55" y2="153.63" xlink:href="#Áåçûìÿííûé_ãðàäèåíò_73"/><linearGradient id="Áåçûìÿííûé_ãðàäèåíò_68-3" x1="327.07" y1="154.84" x2="327.07" y2="152.72" gradientTransform="matrix(1, 0, 0, 1, 0, 0)" xlink:href="#Áåçûìÿííûé_ãðàäèåíò_68"/><linearGradient id="Áåçûìÿííûé_ãðàäèåíò_84" x1="337.02" y1="154.29" x2="337.02" y2="79.73" gradientUnits="userSpaceOnUse"><stop offset="0" stop-color="#644e85"/><stop offset="0.99" stop-color="#4b2b67"/></linearGradient><linearGradient id="Áåçûìÿííûé_ãðàäèåíò_153-4" x1="329.98" y1="151.57" x2="335.92" y2="117.83" xlink:href="#Áåçûìÿííûé_ãðàäèåíò_153"/><linearGradient id="Áåçûìÿííûé_ãðàäèåíò_153-5" x1="330.09" y1="151.59" x2="333.15" y2="134.22" xlink:href="#Áåçûìÿííûé_ãðàäèåíò_153"/><linearGradient id="Áåçûìÿííûé_ãðàäèåíò_176" x1="327.44" y1="96.94" x2="354.71" y2="96.94" gradientUnits="userSpaceOnUse"><stop offset="0"/><stop offset="0.08" stop-color="#071c1c"/><stop offset="0.34" stop-color="#1c6b6b"/><stop offset="0.57" stop-color="#2dabab"/><stop offset="0.77" stop-color="#39d8d8"/><stop offset="0.91" stop-color="#40f5f5"/><stop offset="1" stop-color="#43ffff"/></linearGradient><linearGradient id="Áåçûìÿííûé_ãðàäèåíò_163" x1="325.16" y1="121.72" x2="326.71" y2="112.93" gradientUnits="userSpaceOnUse"><stop offset="0" stop-color="#6a6f77"/><stop offset="0.15" stop-color="#61656d"/><stop offset="0.42" stop-color="#484b51"/><stop offset="0.76" stop-color="#1f2123"/><stop offset="1"/></linearGradient><linearGradient id="Áåçûìÿííûé_ãðàäèåíò_153-6" x1="321.45" y1="153.89" x2="324.63" y2="135.83" xlink:href="#Áåçûìÿííûé_ãðàäèåíò_153"/><linearGradient id="Áåçûìÿííûé_ãðàäèåíò_179" x1="337.62" y1="93.93" x2="354.5" y2="93.93" xlink:href="#Áåçûìÿííûé_ãðàäèåíò_178"/><linearGradient id="Áåçûìÿííûé_ãðàäèåíò_181" x1="343.7" y1="147.58" x2="378.61" y2="147.58" xlink:href="#Áåçûìÿííûé_ãðàäèåíò_178"/><linearGradient id="Áåçûìÿííûé_ãðàäèåíò_73-13" x1="309.57" y1="271.2" x2="309.58" y2="271.2" xlink:href="#Áåçûìÿííûé_ãðàäèåíò_73"/><linearGradient id="Áåçûìÿííûé_ãðàäèåíò_73-14" x1="292.75" y1="274.39" x2="319.63" y2="274.39" xlink:href="#Áåçûìÿííûé_ãðàäèåíò_73"/><linearGradient id="Áåçûìÿííûé_ãðàäèåíò_73-15" x1="350.72" y1="218.78" x2="378.77" y2="218.78" xlink:href="#Áåçûìÿííûé_ãðàäèåíò_73"/><linearGradient id="Áåçûìÿííûé_ãðàäèåíò_185" x1="367.63" y1="219.87" x2="376.63" y2="219.87" xlink:href="#Áåçûìÿííûé_ãðàäèåíò_178"/><linearGradient id="Áåçûìÿííûé_ãðàäèåíò_185-2" x1="312.54" y1="275.26" x2="317.73" y2="275.26" xlink:href="#Áåçûìÿííûé_ãðàäèåíò_178"/><linearGradient id="Áåçûìÿííûé_ãðàäèåíò_201" x1="326.61" y1="118.13" x2="348.68" y2="118.13" gradientUnits="userSpaceOnUse"><stop offset="0" stop-color="#d40e27"/><stop offset="1" stop-color="#ff4025"/></linearGradient><linearGradient id="Áåçûìÿííûé_ãðàäèåíò_179-2" x1="340.86" y1="123.03" x2="343.51" y2="107.96" xlink:href="#Áåçûìÿííûé_ãðàäèåíò_178"/><linearGradient id="Áåçûìÿííûé_ãðàäèåíò_208" x1="309.92" y1="130.14" x2="309.92" y2="95.68" gradientUnits="userSpaceOnUse"><stop offset="0"/><stop offset="0.08" stop-color="#1c090d"/><stop offset="0.34" stop-color="#6b2233"/><stop offset="0.57" stop-color="#ab3651"/><stop offset="0.77" stop-color="#d84567"/><stop offset="0.91" stop-color="#f54e74"/><stop offset="1" stop-color="#ff5179"/></linearGradient><linearGradient id="Áåçûìÿííûé_ãðàäèåíò_210" x1="296.13" y1="264.58" x2="296.13" y2="220.67" gradientUnits="userSpaceOnUse"><stop offset="0" stop-color="#ff5179"/><stop offset="0.09" stop-color="#f54e74"/><stop offset="0.23" stop-color="#d84567"/><stop offset="0.43" stop-color="#ab3651"/><stop offset="0.66" stop-color="#6b2233"/><stop offset="0.92" stop-color="#1c090d"/><stop offset="1"/></linearGradient><linearGradient id="Áåçûìÿííûé_ãðàäèåíò_210-2" x1="356.09" y1="206.29" x2="356.09" y2="172.93" xlink:href="#Áåçûìÿííûé_ãðàäèåíò_210"/><radialGradient id="Áåçûìÿííûé_ãðàäèåíò_128" cx="355.36" cy="69.66" r="46.26" gradientUnits="userSpaceOnUse"><stop offset="0" stop-color="#ffca15"/><stop offset="1" stop-color="#ff9838"/></radialGradient><radialGradient id="Áåçûìÿííûé_ãðàäèåíò_107-5" cx="407.18" cy="69.66" r="17.19" xlink:href="#Áåçûìÿííûé_ãðàäèåíò_107"/></defs><g class="cls-1"><g id="career"><polygon class="cls-2" points="72.79 210.26 0 220.85 154.01 240.03 500.07 236.44 72.79 210.26"/><polygon class="cls-3" points="501.53 178.02 501.53 16.37 591.59 12.11 581.03 172.36 501.53 178.02"/><polygon class="cls-4" points="507.4 178.02 508.49 24.75 581.03 20.98 573.23 173.43 507.4 178.02"/><polygon class="cls-5" points="591.59 12.11 601.94 13.99 588.76 171.84 581 172.8 591.59 12.11"/><polygon class="cls-6" points="508.49 24.75 509.7 24.69 508.68 176.6 507.45 176.6 508.49 24.75"/><polygon class="cls-7" points="518.47 121.86 518.47 31.2 576.11 27.94 571.62 121.2 518.47 121.86"/><polygon class="cls-8" points="508.49 24.75 509.7 26.17 580.88 22.94 581.03 20.98 508.49 24.75"/><polygon class="cls-9" points="576.11 27.94 573.28 29.76 569.8 119.65 520.33 120.35 518.47 121.86 571.62 121.2 576.11 27.94"/><polygon class="cls-10" points="518.28 131.19 517.56 171.84 569.65 169.81 571.62 129.6 518.28 131.19"/><polygon class="cls-9" points="571.62 129.6 569.55 131.61 568.29 168.81 520.14 170.26 517.56 171.84 569.65 169.81 571.62 129.6"/><polygon class="cls-11" points="511.6 120.5 511.92 104.43 517.56 104.43 516.81 120.5 511.6 120.5"/><polygon class="cls-12" points="507.45 176.6 510.58 176.5 512.5 27.94 580.74 24.69 581.03 20.98 508.49 24.75 507.45 176.6"/><polygon class="cls-13" points="513.37 113.16 515.25 113.16 514.85 118.53 513.37 118.53 513.37 113.16"/><polygon class="cls-14" points="521.39 46.05 521.39 75.68 565.7 74.37 567.04 44.02 521.39 46.05"/><polygon class="cls-15" points="567.04 44.02 567.73 44.02 566.37 74.39 565.7 74.37 567.04 44.02"/><polygon class="cls-12" points="567.73 44.02 568.49 45.72 567.04 75.67 523.02 76.74 523.02 75.63 565.7 74.37 567.73 44.02"/><path class="cls-16" d="M623.49,90.76a.83.83,0,0,1-.83.83.83.83,0,1,1,0-1.66A.83.83,0,0,1,623.49,90.76Z" transform="translate(-99.03 -42.89)"/><path class="cls-17" d="M622.66,116.63a.84.84,0,0,1-.84.83.83.83,0,0,1,0-1.66A.84.84,0,0,1,622.66,116.63Z" transform="translate(-99.03 -42.89)"/><path class="cls-18" d="M665.16,88.74a.83.83,0,1,1-.83-.83A.83.83,0,0,1,665.16,88.74Z" transform="translate(-99.03 -42.89)"/><circle class="cls-19" cx="563.63" cy="72.9" r="0.83"/><polygon class="cls-20" points="130.75 178.02 130.75 16.37 43.09 12.11 49.65 173.16 130.75 178.02"/><polygon class="cls-21" points="124.87 178.02 123.79 24.75 53.65 20.98 57.45 174.23 124.87 178.02"/><polygon class="cls-5" points="43.09 12.11 32.74 13.99 41.92 172.65 49.68 173.6 43.09 12.11"/><polygon class="cls-22" points="123.79 24.75 122.58 24.69 123.59 176.6 124.83 176.6 123.79 24.75"/><polygon class="cls-8" points="123.79 24.75 122.58 26.17 53.8 22.94 53.65 20.98 123.79 24.75"/><polygon class="cls-23" points="113.81 121.86 113.81 31.2 58.57 27.94 63.06 121.2 113.81 121.86"/><polygon class="cls-9" points="58.57 27.94 61.4 29.76 64.88 119.65 111.95 120.35 113.81 121.86 63.06 121.2 58.57 27.94"/><polygon class="cls-24" points="114 131.19 114.72 171.84 64.23 169.81 62.26 129.6 114 131.19"/><polygon class="cls-9" points="62.26 129.6 64.33 131.61 65.59 168.81 112.14 170.26 114.72 171.84 64.23 169.81 62.26 129.6"/><polygon class="cls-25" points="120.68 120.5 120.77 104.43 114.72 104.43 115.47 120.5 120.68 120.5"/><polygon class="cls-12" points="124.83 176.6 121.7 176.5 119.78 27.94 53.94 24.69 53.65 20.98 123.79 24.75 124.83 176.6"/><polygon class="cls-26" points="118.91 113.16 117.03 113.16 117.43 118.53 118.91 118.53 118.91 113.16"/><polygon class="cls-27" points="110.89 46.05 110.89 75.68 66.58 74.37 65.23 44.02 110.89 46.05"/><polygon class="cls-28" points="65.23 44.02 64.55 44.02 65.91 74.39 66.58 74.37 65.23 44.02"/><polygon class="cls-12" points="64.55 44.02 63.79 45.72 65.23 75.67 109.26 76.74 109.26 75.63 66.58 74.37 64.55 44.02"/><path class="cls-29" d="M206.85,90.76a.83.83,0,0,0,.83.83.83.83,0,1,0,0-1.66A.83.83,0,0,0,206.85,90.76Z" transform="translate(-99.03 -42.89)"/><path class="cls-30" d="M207.68,116.63a.84.84,0,0,0,.84.83.83.83,0,0,0,0-1.66A.84.84,0,0,0,207.68,116.63Z" transform="translate(-99.03 -42.89)"/><path class="cls-31" d="M165.18,88.74a.83.83,0,0,0,.83.83.83.83,0,1,0,0-1.66A.83.83,0,0,0,165.18,88.74Z" transform="translate(-99.03 -42.89)"/><circle class="cls-32" cx="68.65" cy="72.9" r="0.83"/><polygon class="cls-33" points="35.21 171.84 38.03 215.53 229.11 259.21 229.11 181.96 35.21 171.84"/><polygon class="cls-34" points="293.38 184.19 130.75 176.6 35.21 171.84 217.82 184.57 293.38 184.19"/><polygon class="cls-35" points="161.45 180.64 132.13 237.04 180.4 248.24 217.82 184.57 161.45 180.64"/><polygon class="cls-36" points="588.76 171.84 585.1 224.95 394.86 259.21 394.86 181.96 588.76 171.84"/><polygon class="cls-37" points="330.59 184.19 501.53 176.4 588.76 171.84 408.19 183.94 330.59 184.19"/><polygon class="cls-38" points="511.97 276.16 518.22 242.27 125.31 242.26 128.62 270.18 511.97 276.16"/><polygon class="cls-39" points="518.22 242.27 473.34 227.86 172.82 224.95 125.31 242.26 518.22 242.27"/><polygon class="cls-40" points="473.34 227.86 473.73 207.76 169.95 207.76 172.82 224.95 473.34 227.86"/><polygon class="cls-41" points="169.95 207.76 199.81 199.73 448.01 199.73 473.73 207.76 169.95 207.76"/><polygon class="cls-42" points="199.71 199.73 198.16 186.71 448.24 187.69 448.01 199.73 199.71 199.73"/><polygon class="cls-43" points="198.16 186.71 217.82 184.57 428.79 183.87 448.24 187.69 198.16 186.71"/><polygon class="cls-44" points="186.99 271.09 106.56 299.09 518.22 299.39 517.56 298 186.99 271.09"/><polygon class="cls-45" points="454.68 275.26 458.93 242.27 184.61 242.26 186.99 271.09 454.68 275.26"/><polygon class="cls-46" points="458.93 242.27 427.6 227.42 217.83 225.39 184.61 242.26 458.93 242.27"/><polygon class="cls-47" points="427.6 227.42 427.87 207.76 215.77 207.76 217.83 225.39 427.6 227.42"/><polygon class="cls-48" points="215.77 207.76 236.62 199.73 409.91 199.73 427.87 207.76 215.77 207.76"/><polygon class="cls-49" points="236.55 199.73 235.47 186.71 410.06 187.69 409.91 199.73 236.55 199.73"/><polygon class="cls-50" points="235.47 186.71 249.2 184.57 396.49 183.87 410.06 187.69 235.47 186.71"/><polygon class="cls-51" points="186.99 271.09 114.51 294.81 518.73 294.81 454.68 275.26 186.99 271.09"/><polygon class="cls-52" points="114.51 294.81 114.72 296.48 517.56 298 518.73 294.81 114.51 294.81"/><polygon class="cls-53" points="205.99 271.39 207.47 242.27 232.35 230.03 475.62 228.59 473.34 227.86 238.91 225.59 239.3 225.4 238.66 207.48 260.83 201.12 451.16 200.72 448.01 199.73 265.64 199.73 266.62 199.45 266.81 186.73 275.4 185.5 255.88 185.5 248.43 186.11 247.24 199.45 245.95 199.73 199.71 199.73 194.16 201.25 239.38 201.16 210.23 207.48 208.73 225.1 207.96 225.29 172.82 224.95 157.68 230.47 187.88 230.29 140.88 241.99 138.91 270.34 128.62 270.18 127.94 264.48 84.78 278.7 513.03 277.6 511.97 276.16 205.99 271.39"/><path class="cls-54" d="M370.36,197.06s-4.06,2.73-4.83,3.5a36,36,0,0,0-2.79,4.61c.23-1,8.05-34.55,7.49-36.48s-9-.89-12.85,4.24c.65-2.79,6.75-12.19,6.75-12.19-3.78.39-21.23,4.16-21.23,4.16-3.79,1-14.57,5.9-14.57,5.9-1.47,10-9.79,34.95-13.23,45a20.94,20.94,0,0,0-3.59,3.28c-1.54,2-6.87,30.51-5.74,38.82a9.9,9.9,0,0,0-2.8,1,8.09,8.09,0,0,0-1.73,1.85c1.39-8.15,5.08-30.6,5-38.8a10.17,10.17,0,0,0-11.64-1.26c.56-1.12,3.92-4.34,6.16-8.82s7.95-40.72,7.95-40.72l-1-2.38,2-11.87,30.13-11.13a23.48,23.48,0,0,1,3.25-.74l-4.21,5.1s-1.46,2.31,10.42,2.18,28.43-1.47,28.43-1.47S365.46,187.87,370.36,197.06Z" transform="translate(-99.03 -42.89)"/><path class="cls-55" d="M362.89,208.53l-.39,1.38h0l-.05.15s.16,3.34-1.25,5a2.42,2.42,0,0,1-1.66.87l-.32-.62c-.64-1.17-2-3.58-2.68-3.82a14.68,14.68,0,0,0-3.41-.28s-.56-1-.47-1.35.79-.71.79-.71l.8-2.63.37-1.24,7.58-1.87s0,.5-.09,1.2-.1,1.79-.08,2.61a4,4,0,0,0,.17,1.33Z" transform="translate(-99.03 -42.89)"/><path class="cls-56" d="M362.5,209.92l-.05.15s.16,3.34-1.25,5l-2,.25c-.64-1.17-2-3.58-2.68-3.82a14.68,14.68,0,0,0-3.41-.28s-.56-1-.47-1.35.79-.71.79-.71l.8-2.63,4.43-1.78,3.43-.13c-.05.78-.1,1.79-.08,2.61v0s-1.13,1.93-6.24,2l-1.12.44s6.36,1.27,7.83.26Z" transform="translate(-99.03 -42.89)"/><path class="cls-57" d="M303.29,270.51c-1,1.23-9.12-1.46-9.12-1.46l-.21-4.73,8.41-7.11-.14,3.64s.94,0,1,.32-.81,2-.81,2S304.27,269.28,303.29,270.51Z" transform="translate(-99.03 -42.89)"/><path class="cls-58" d="M303.29,270.51c-1,1.23-9.12-1.46-9.12-1.46l-.21-4.73,8.41-7.11-.14,3.64a15.82,15.82,0,0,1-5.66,5.84c.35-.16,6-2.83,6.71-5.52.11.28-.81,2-.81,2S304.27,269.28,303.29,270.51Z" transform="translate(-99.03 -42.89)"/><path class="cls-59" d="M369.68,117.58s.38.57.18.86a13.41,13.41,0,0,1-2.89.72h0l-.31.06a.87.87,0,0,1-.22,0l-.11,0c-1.15.26-2.49.6-3.89,1.06a25.4,25.4,0,0,0-7.25,4.06l.83.28a25.57,25.57,0,0,0,3.58-.8,14.26,14.26,0,0,0,2.15-1.29s2.77-.28,4,1.1l-.37,1a13,13,0,0,0-5.86,1.05,46.49,46.49,0,0,1-5.62,2.36.71.71,0,0,1-.27,0c-.13,0-.29-.11-.49-.19l-.29-.14c-.87-.41-2.07-1.09-2.93-1.53l-.36-.18-.1,0a1.54,1.54,0,0,0-.24-.1h0l-.19-.06-.13,0a7.72,7.72,0,0,0-1.52.4c-.75.25-1.61.57-2.23.8l-.87.33,1.48-6.53.56-.19.33-.12a1.82,1.82,0,0,0,.33-.11c.8-.27,1.81-.63,2.38-.86,1.05-.43,6.68-6.48,8.05-7.07a21.42,21.42,0,0,1,4.79-.82,1.32,1.32,0,0,1-.19.86,27.53,27.53,0,0,1-2.83,1.29h0a12.58,12.58,0,0,0-1.4.66,10.54,10.54,0,0,0-1.3,1.42,17.54,17.54,0,0,1,4.37-1.87l.44-.1c2.25-.4,7.12.39,7.12.39s.23,1-.15,1.35a7.72,7.72,0,0,1,1.87.52C370.41,116.45,370.16,117.3,369.68,117.58Z" transform="translate(-99.03 -42.89)"/><path class="cls-60" d="M350.1,126.36a5.24,5.24,0,0,0-1.23-.52,7.72,7.72,0,0,0-1.52.4c-.75.25-1.61.57-2.23.8l1.4-6.47.17-.83,1.71.17h0C349.52,121.73,350.1,126.36,350.1,126.36Z" transform="translate(-99.03 -42.89)"/><path class="cls-61" d="M368.42,115.18a45.78,45.78,0,0,0-5.73,0,17.63,17.63,0,0,0-4.76,1.45,20.6,20.6,0,0,1,10.29-1A1.17,1.17,0,0,0,368.42,115.18Z" transform="translate(-99.03 -42.89)"/><path class="cls-62" d="M369.68,117.59a20.25,20.25,0,0,0-5.8-.58,10.57,10.57,0,0,0-4.55,1.12,34.5,34.5,0,0,1,5.78-.82C367.28,117.31,369.68,117.59,369.68,117.59Z" transform="translate(-99.03 -42.89)"/><path class="cls-63" d="M366.31,119.31c-1.15.26-2.49.6-3.89,1.06a25.4,25.4,0,0,0-7.25,4.06s-1.69,2.59-1.57,3.69c-.13,0-.29-.11-.49-.19l-.29-.14c-.87-.41-2.07-1.09-2.93-1.53l-.36-.18-.1,0a1.54,1.54,0,0,0-.24-.1h0l-.19-.06-.13,0a7.72,7.72,0,0,0-1.52.4l-1.06-5.59.33-.12.33-.11c.8-.27,1.81-.63,2.38-.86,1.05-.43,6.68-6.48,8.05-7.07l-.5.74,1.5.39.76.2a12.58,12.58,0,0,0-1.4.66,10.54,10.54,0,0,0-1.3,1.42,17.54,17.54,0,0,1,4.37-1.87c0,.4.07,1.27.44,1.42,0,0,0,1.55.54,1.83,0,0,0,2.15,1.38,2.31A12,12,0,0,0,366.31,119.31Z" transform="translate(-99.03 -42.89)"/><path class="cls-64" d="M346.16,119.81l1.73-.15s1.08,5-1.18,8.29l-2.36.84S346.56,121.71,346.16,119.81Z" transform="translate(-99.03 -42.89)"/><path class="cls-65" d="M340.81,119.59l5.88.15s0,7.4-2.64,10.56l-5.19.35S340.45,122.56,340.81,119.59Z" transform="translate(-99.03 -42.89)"/><path class="cls-66" d="M364.48,226.42l-2.76-.21-1.63-.12s.18-.36.44-.82c.5-.82,1.33-2,2.08-2,.6,0,1.08.83,1.4,1.63h0A11.46,11.46,0,0,1,364.48,226.42Z" transform="translate(-99.03 -42.89)"/><path class="cls-67" d="M378.77,219.08h0a3.61,3.61,0,0,1-.21.49c-3.32,7.24-14.07,6.84-14.07,6.84s-1.09-1.48-1.59-1.4c-.3,0-.8.67-1.17,1.19s-.46.69-.46.69c-3.44,1.34-9.81,0-9.81,0l-.61-2.4,9.85-3.87,4.71-.4Z" transform="translate(-99.03 -42.89)"/><path class="cls-66" d="M308.94,282.56l-3.43-.2-1.46-.08s0-.25.08-.61c.18-1,.72-2.81,2.28-2.22a4,4,0,0,1,2.15,2A4.76,4.76,0,0,1,308.94,282.56Z" transform="translate(-99.03 -42.89)"/><path class="cls-68" d="M319.63,273.73c-1.11,7.85-10.69,8.83-10.69,8.83a4.38,4.38,0,0,0-2.74-1l-.69.78L304,284.1c-3.74,2.15-10.46.38-10.46.38l-.34-2.12V282l2-3.45,13.54-2.69Z" transform="translate(-99.03 -42.89)"/><path class="cls-69" d="M378.66,153c-.44,3.13-2,8.8-3.77,16.15-2.27,9.63-4.4,26.84-4.52,27.9v.05s-4.06,2.73-4.83,3.5a36,36,0,0,0-2.79,4.61h0c-3.37,3.64-9.42,2-9.42,2l.24-.92c2.34-5.23,3.17-30.56,3.83-33.36s6.75-12.19,6.75-12.19c-3.78.39-21.23,4.16-21.23,4.16-3.79,1-14.57,5.9-14.57,5.9-1.3,8.87-8,29.38-11.86,41h0c-.51,1.51-1,2.87-1.37,4l0,.12c-.89,2.62-1.45,4.19-1.45,4.19-3.47,9.49-7.45,35.22-7.81,37.61l0,.18a9.9,9.9,0,0,0-2.8,1,8.09,8.09,0,0,0-1.73,1.85c-.74,1-1.36,2-1.36,2-2.34,2.1-6.37,1.87-6.37,1.87l-.22-1.45c-2.38-18.08.7-41.34,1.27-42.46s3.42-3.86,5.62-7.82c.2-.32.37-.66.54-1,2.25-4.49,7.95-40.72,7.95-40.72l-1-2.38,2-11.87,30.13-11.13a23.48,23.48,0,0,1,3.25-.74l.63-.1h.05c11.69-1.61,28.67,2.67,33.54,4.85l0,0a3.09,3.09,0,0,1,1.3.84A5.26,5.26,0,0,1,378.66,153Z" transform="translate(-99.03 -42.89)"/><path class="cls-70" d="M319.63,273.73c-.93,6.07-10.08,8.21-10.08,8.21s-.42-.22-1-.47a5.21,5.21,0,0,0-2.51-.65,12.41,12.41,0,0,0-1.92.85c-.69.36-1.27.69-1.27.69a21.72,21.72,0,0,1-9.67,0,5.48,5.48,0,0,1-.42-2.24c.11-1,1.4-11.07,1.4-11.07s4.92-.08,6.46-1.34c.35-.29,1.82,2.3,2.05,1.91.79-1.32-.2-5.88-.2-5.88s4.28,5.27,7.09,7.46h0a4.88,4.88,0,0,0,1.42.85,9.77,9.77,0,0,0,5.32-.19A4.26,4.26,0,0,1,319.63,273.73Z" transform="translate(-99.03 -42.89)"/><path class="cls-71" d="M334.48,156.58c-2,3.65-2,4.87-2,4.87s6.14,3,10.44,3.45c-3.79,1-14.57,5.9-14.57,5.9-1.3,8.87-8,29.38-11.86,41h0a111.63,111.63,0,0,0-16.29,1.08c.2-.32.37-.66.54-1,2.25-4.49,7.95-40.72,7.95-40.72l-1-2.38,2-11.87,30.13-11.13a23.48,23.48,0,0,1,3.25-.74l.63-.1,0,.1-1.06.62S336.44,152.93,334.48,156.58Z" transform="translate(-99.03 -42.89)"/><path class="cls-72" d="M378.77,219.08a3.56,3.56,0,0,1-.22.5,9.48,9.48,0,0,1-4.26,4c-3.53,1.84-10,1.5-10,1.5l-.28-.18h0a5.07,5.07,0,0,0-1.12-.6c-.14,0-1.68.84-1.68.84l-.68.11a27.17,27.17,0,0,1-9.69-.77c-.75-4.39,2.29-13.31,2.29-13.31s3.75-1,5.25-.47,2.31,2.9,3.16,2.9c.66,0,.91-3.55.91-3.55a32.44,32.44,0,0,0,4.25,5,7.56,7.56,0,0,0,2.33,1.54,26.32,26.32,0,0,0,7.22.93A2.83,2.83,0,0,1,378.77,219.08Z" transform="translate(-99.03 -42.89)"/><path class="cls-73" d="M347.76,65.6a24.86,24.86,0,0,0,1,2.57c.37.69.54,1,.52,1.17A1.82,1.82,0,0,1,348,70.81C347,71.09,347.76,65.6,347.76,65.6Z" transform="translate(-99.03 -42.89)"/><path class="cls-74" d="M348.79,61.39a15.35,15.35,0,0,0-1.08,3.74c.05,1,.59,2.47.58,3,0,2.3-1.07,8.09-4.12,11.44l-.52.52a17.28,17.28,0,0,1-6-2.11v1.26s-1.9,0-4.46.16c-3.19.22-7.42.74-10.22,2a28,28,0,0,0,1.39-2.7,23.85,23.85,0,0,0,1.66-4.8,12.87,12.87,0,0,0,.25-1.49h0a10.9,10.9,0,0,0,.05-1.71,13.71,13.71,0,0,0-1-4.2,26.32,26.32,0,0,1-2.39-10s5.25-8.41,11.42-10.59,14.06,7.6,14.06,7.6A29.89,29.89,0,0,1,348.79,61.39Z" transform="translate(-99.03 -42.89)"/><path class="cls-75" d="M344.17,79.56l1.22.8-12.23-1-8.83-.71a23.85,23.85,0,0,0,1.66-4.8,12.87,12.87,0,0,0,.25-1.49h0l12.81-3.79s-.16-4.23,1-5.81a4.5,4.5,0,0,1,3.05-1.71c-2.1.78-3.07,4.53-3.07,4.53l2.14-.32a6.19,6.19,0,0,1,2.15-2.67,9,9,0,0,1-1.08,6.11c.18-.06,2.8-1,3.29.9s-2.73,9.71-2.73,9.71Z" transform="translate(-99.03 -42.89)"/><path class="cls-76" d="M348.88,57.66a21.14,21.14,0,0,0-2,3.78,1.58,1.58,0,0,0,1.91,0l-1.07,3.73-2.26,1s1.47-9.67,3-12.66A23.15,23.15,0,0,1,348.88,57.66Z" transform="translate(-99.03 -42.89)"/><path class="cls-77" d="M342.2,65.27a6.76,6.76,0,0,0-.76,3.72s.33-2.6,1.49-3.72c0,0-.46,1.19,0,1.86,0,0,2.06-2.1,1.42-4.52A7.74,7.74,0,0,0,342.2,65.27Z" transform="translate(-99.03 -42.89)"/><path class="cls-78" d="M337.62,78l.34-5.59s-3.88-.82-12,1.5a12.21,12.21,0,0,0,.3-3.21,13.71,13.71,0,0,0-1-4.2l3.08-1.34,11.32,3.64s.39,2.27,1.72,2a19.3,19.3,0,0,0,2.21,9.27A17.28,17.28,0,0,1,337.62,78Z" transform="translate(-99.03 -42.89)"/><path class="cls-79" d="M348.88,57.66a21.2,21.2,0,0,0-.47-4.2s-1.12,4.2-2,7.61a37.1,37.1,0,0,0-1.07,6.35l-.51.28s.65-5.75-.43-6.59-5.23,1.41-4.67,7.66c0,0-6.82,3.74-13.93,3.61a5.88,5.88,0,0,0-.05-2.52c-.66-3-4.42-8.51-4-17.9l-1.88-1.32c.22.07,2.42.77,7.21-1.72,5-2.61,12.47-6.16,13.49-6s4.68,3.36,4.68,3.36,4.57,2.76,5.41,3.79S348.88,57.66,348.88,57.66Z" transform="translate(-99.03 -42.89)"/><path class="cls-80" d="M347.82,55.68s-1.93,2.35-6.65,3c0,0-2.62,1.59-3.13,4,0,0,1.54-2.5,3.64-2.79s4.55-.08,5.22-.68Z" transform="translate(-99.03 -42.89)"/><path class="cls-81" d="M348.28,54a16.21,16.21,0,0,1-5.35,3.68,17.87,17.87,0,0,0,4.89-2Z" transform="translate(-99.03 -42.89)"/><path class="cls-82" d="M345.23,46.26a36.7,36.7,0,0,0-9.31-1.07s3.76-1.17,4.64-2.29A14.42,14.42,0,0,1,345.23,46.26Z" transform="translate(-99.03 -42.89)"/><path class="cls-83" d="M350.65,50.05a3.26,3.26,0,0,1-.56,2.42,18.87,18.87,0,0,0-3.64-3.64,11.38,11.38,0,0,0-4-1.57,11.84,11.84,0,0,1,4.1,2.6,15,15,0,0,1-10.25,5.08s2.32-1.37,2.94-2.73A28.64,28.64,0,0,0,330,55.4s-2.42-1.65-2.84-2.6l.63-1.72-2.24,1.69a10.3,10.3,0,0,1-3.82-.81c-.42,9.39,3.34,14.89,4,17.9a5.88,5.88,0,0,1,.05,2.52c7.11.13,13.93-3.61,13.93-3.61-.56-6.25,3.6-8.49,4.67-7.66s.43,6.59.43,6.59l.51-.28a37.1,37.1,0,0,1,1.07-6.35c.89-3.41,2-7.61,2-7.61a21.2,21.2,0,0,1,.47,4.2S351.49,51.08,350.65,50.05Zm-11.58,7a12.83,12.83,0,0,1-3.73-.61c4-.33,5.24-1.63,5.24-1.63S340.38,56.87,339.07,57Z" transform="translate(-99.03 -42.89)"/><path class="cls-84" d="M333.16,48.25a3.48,3.48,0,0,1,2.76-1.71,26.73,26.73,0,0,1,6.28.71S334.6,47.9,333.16,48.25Z" transform="translate(-99.03 -42.89)"/><path class="cls-85" d="M340.06,45.36s6.71-.41,10.59,4.69a2.82,2.82,0,0,1-.56,2.42A23.63,23.63,0,0,0,340.06,45.36Z" transform="translate(-99.03 -42.89)"/><path class="cls-86" d="M332.63,46.5s7.21-1.7,7.93-3.6C340.56,42.9,339.06,42.64,332.63,46.5Z" transform="translate(-99.03 -42.89)"/><path class="cls-87" d="M339.25,52.21s-1.54,2.2-2.94,2.73c0,0,8.59-.88,10.25-5.08a3.94,3.94,0,0,0-3.63-1.26C340.66,49,339.25,52.21,339.25,52.21Z" transform="translate(-99.03 -42.89)"/><path class="cls-88" d="M319.86,50.64a6.8,6.8,0,0,0,5.7,2.13l4.56-5.4S323.17,51.51,319.86,50.64Z" transform="translate(-99.03 -42.89)"/><path class="cls-89" d="M340.06,45.36s6.85,2.23,10,7.11l-1.21,5.19s2.4-4.2,1.94-7.58C350.82,50.08,348.28,45.72,340.06,45.36Z" transform="translate(-99.03 -42.89)"/><path class="cls-90" d="M299.32,156.58a63.46,63.46,0,0,0,13.12-1.74c6.08-1.62,2-9.56,2-9.56l-4.21-.73Z" transform="translate(-99.03 -42.89)"/><path class="cls-91" d="M351.32,99.58a91,91,0,0,1-6.08,13.2c-2.72,4.66-5.36,19.89-4.94,21.08.34.94,1.81,2.23,2.48,3.11l.08.11a1.41,1.41,0,0,1,.25.49c.14.78-1.75,3.16-1.68,3.58a10.54,10.54,0,0,0,.94,1.73l1,1.67,0,0,.62,1-4.2.19c-9.91,11.49-31.77,11.16-31.77,11.16l.57-6.58c-3.09,3.27-10,6.58-10,6.58s11-22.44,10.82-36.83v-.31a24.59,24.59,0,0,0-.2-2.65c-2-14-1.26-27.23-.84-27.65s.47-.28,3.83-1.68a20.24,20.24,0,0,0,2-1l.13-.07h0a83.42,83.42,0,0,0,7.22-4.78V79.42c7-4.38,16-1.45,16-1.45a67.48,67.48,0,0,1,16.58,1.92C355.35,86,353.59,93.34,351.32,99.58Z" transform="translate(-99.03 -42.89)"/><path class="cls-92" d="M308.7,150.38l-.17-.09c4-7.67,5.07-20.23,6.15-32.37.57-6.35,1.1-12.35,2-17.21,2.64-13.88,8.16-20.06,8.21-20.12l.15.14c-.05.06-5.53,6.19-8.16,20-.92,4.86-1.46,10.85-2,17.2C313.8,130.1,312.68,142.67,308.7,150.38Z" transform="translate(-99.03 -42.89)"/><path class="cls-93" d="M322.93,78.69l1-1.68s9.15-3,13.68,1C337.62,78,330.05,75.61,322.93,78.69Z" transform="translate(-99.03 -42.89)"/><path class="cls-94" d="M345.59,177.08s.73,9.43-1.65,15.95l-3.45.23s-3.41,12.88-8,18.5c0,0-20.56-1.55-37.34-6.16l-5.44-4.42s5.12-23.2,10-34.63C299.7,166.55,324,174.91,345.59,177.08Z" transform="translate(-99.03 -42.89)"/><path class="cls-95" d="M299.7,166.55s22,7.34,36.32,7.53c0,0,3.36,1.09,9.57,3,0,0-20.06-1.5-38-7.69Z" transform="translate(-99.03 -42.89)"/><path class="cls-96" d="M330.38,166.59s2.31,1.83.81,7.85a4,4,0,0,0,3.05.24s.11-6.61-.61-9.11Z" transform="translate(-99.03 -42.89)"/><path class="cls-97" d="M295.12,205.6s8.24-21,11-35.46l1.62,1.1s.87,9.32-.14,15.28l1.21.95s1.14-13-1.19-18.08l-7.91-2.84s-4.14,8.69-10,34.63Z" transform="translate(-99.03 -42.89)"/><path class="cls-96" d="M313,170.33s.43.75,3.75,1.3c0,0,2.78-5.07,4.85-6.23l0-4.85S315.77,165.11,313,170.33Z" transform="translate(-99.03 -42.89)"/><path class="cls-98" d="M339,196.72l-39.25,2.9-4.58,6-5.44-4.42,4.39-17.59s-1.16,11.08-.43,11.37c2,.77,7-7.72,8.82-12.71a107,107,0,0,0,3.65-12.11l1.62,1.1a64.91,64.91,0,0,1-.14,15.28l1.21.95a163.29,163.29,0,0,0,31.69,5.79Z" transform="translate(-99.03 -42.89)"/><path class="cls-99" d="M325.33,188.47l4,.91a11.07,11.07,0,0,1-1.23,5.45l-3.83-.7v-1.08l.7-4.27Z" transform="translate(-99.03 -42.89)"/><path class="cls-100" d="M325.33,188.47a8,8,0,0,1-1,5.66v-1.08l.7-4.27Z" transform="translate(-99.03 -42.89)"/><path class="cls-101" d="M325.47,188.58s.12,2.3,1,2.82a2.51,2.51,0,0,0,2.4.25c.51-.33.5-2.16.5-2.16Z" transform="translate(-99.03 -42.89)"/><polygon class="cls-98" points="222.38 156.31 219.11 160.96 223.32 161.68 225.86 157.6 222.38 156.31"/><path class="cls-102" d="M320.68,203a12.18,12.18,0,0,0,2.19-3.75l2.69.78a6.69,6.69,0,0,1-1.81,3.56Z" transform="translate(-99.03 -42.89)"/><path class="cls-100" d="M322.87,199.2h-1.46l-1.17,3.54.44.21S322.62,201,322.87,199.2Z" transform="translate(-99.03 -42.89)"/><path class="cls-103" d="M336,174.08l8.23,2.87a25.16,25.16,0,0,1-3.76,16.31c1.5-.08,3.45-.23,3.45-.23s2.16-5,1.65-15.95Z" transform="translate(-99.03 -42.89)"/><path class="cls-104" d="M332.46,211.76l-.15-2.11a104.79,104.79,0,0,0,8.18-16.39S337.85,204.57,332.46,211.76Z" transform="translate(-99.03 -42.89)"/><path class="cls-105" d="M342.75,105.31c-.44.29-.91.55-1.42.82C342.11,105.68,342.63,105.39,342.75,105.31Z" transform="translate(-99.03 -42.89)"/><path class="cls-106" d="M345.24,112.78c-2.72,4.66-5.36,19.89-4.94,21.08-1.17,3.4-7,9-7,9,7.43-1.75,9.48-5.93,9.48-5.93l.08.11a1.41,1.41,0,0,1,.25.49c.14.78-1.75,3.16-1.68,3.58a10.54,10.54,0,0,0,.94,1.73l-4.73,2.68,5.74-1,0,0,.62,1-4.2.19c-9.91,11.49-31.77,11.16-31.77,11.16l.57-6.58c-3.09,3.27-10,6.58-10,6.58s11-22.44,10.82-36.83c.07,1.9.53,12,3.16,12,2.34,0,9.25-13.24,12.69-20.44s5.39-25.73,5.39-25.73l-.43,13A29.75,29.75,0,0,1,337,88.46l14.3,11.12A91,91,0,0,1,345.24,112.78Z" transform="translate(-99.03 -42.89)"/><path class="cls-107" d="M321.6,79.42v2.52a83.42,83.42,0,0,1-7.22,4.78L325,80.66A29.5,29.5,0,0,1,337.62,78S328.61,75,321.6,79.42Z" transform="translate(-99.03 -42.89)"/><path class="cls-108" d="M305.93,227.5s-5.42,25.4-12,36.82C294,264.32,304.28,234.33,305.93,227.5Z" transform="translate(-99.03 -42.89)"/><path class="cls-109" d="M364.13,160.74l9.41-4.16s-2.17,8.63-3.31,10-9.48-1-12.85,6.38A88.53,88.53,0,0,1,364.13,160.74Z" transform="translate(-99.03 -42.89)"/><path class="cls-110" d="M343.07,145a54.62,54.62,0,0,0-5.43,6.86,324.05,324.05,0,0,0,41-1.26S365.45,143.19,343.07,145Z" transform="translate(-99.03 -42.89)"/><path class="cls-111" d="M315.1,215.8l0,.12c-.89,2.62-1.45,4.19-1.45,4.19-3.47,9.49-7.45,35.22-7.81,37.61l0,.18s1.23-29.17,5.07-37.12C310.84,220.78,312.62,216.82,315.1,215.8Z" transform="translate(-99.03 -42.89)"/><path class="cls-112" d="M378.66,153c-.44,3.13-2,8.8-3.77,16.15-2.27,9.63-4.4,26.84-4.52,27.9v.05C367.05,178,377.46,155.46,378.66,153Z" transform="translate(-99.03 -42.89)"/><path class="cls-113" d="M334.24,164.48l-1.19,2.12-.31.56-2.36-.22-.82-.37-4.37-.12-.67.54-2.88-.27-.81-.87.79-.45,0-4.85-1-2.53a33.48,33.48,0,0,1,1.62-4.14l2.54-.91,7.34,1.32S334.31,160.06,334.24,164.48Z" transform="translate(-99.03 -42.89)"/><path class="cls-114" d="M333.54,165.72l-.8,1.44-2.36-.22-.82-.37-4.37-.12-.67.54-2.88-.27-.81-.87.79-.45,0-4.85-1-2.53a33.48,33.48,0,0,1,1.62-4.14l2.54-.91,7.34,1.32s-1.77,2-7.89,2.29l-1,.33v8.66l1.75.31.32-.31h5.07l.75.52Z" transform="translate(-99.03 -42.89)"/><path class="cls-115" d="M321.68,153.76v.72a33.2,33.2,0,0,0,10.78-.19l-.13-1.57A57.42,57.42,0,0,1,321.68,153.76Z" transform="translate(-99.03 -42.89)"/><path class="cls-116" d="M352.43,96.28A77.06,77.06,0,0,0,338.35,117c-.32.71-.61,1.44-.89,2.21-2.92,8-4.11,19-3.51,31.07v0c0,.66.08,1.34.12,2,0,0-7.46,3.08-12.66,1.59,0,0-4.11-21.86-.27-32.89h0a7.21,7.21,0,0,0,.48-.67l.24-.32c2.16-3.12,8.56-13,9.83-22.35,0,0,6-15.48,17.59-17.65h0a14.94,14.94,0,0,1,4.92-.09A33,33,0,0,1,352.43,96.28Z" transform="translate(-99.03 -42.89)"/><path class="cls-117" d="M337.46,119.17c-2.92,8-4.11,19-3.51,31.07v0a17.63,17.63,0,0,0,.12,2s-4.53-11.77-4.9-18.78,8.45-15.38,8.45-15.38S337.56,118.5,337.46,119.17Z" transform="translate(-99.03 -42.89)"/><path class="cls-118" d="M334.07,152.29s-4.69-11.56-4.9-18.78c0,0,2.4,8.62,4.63,10.37Z" transform="translate(-99.03 -42.89)"/><path class="cls-119" d="M354.2,79.89s-3.49-3.12-13.71,6.83-13.05,27.74-13.05,27.74,6.73-.7,15.31-7.79,10.92-14.48,10.92-14.48S355.6,83,354.2,79.89Z" transform="translate(-99.03 -42.89)"/><path class="cls-120" d="M321.14,121s2.07.79,5.47-1.33a9.86,9.86,0,0,0,4.12-6S325.44,112.86,321.14,121Z" transform="translate(-99.03 -42.89)"/><path class="cls-121" d="M321.68,153.76s-2.22-9.75-.54-18.55c0,0,1.81,14.9,3.85,19.07A7.6,7.6,0,0,1,321.68,153.76Z" transform="translate(-99.03 -42.89)"/><path class="cls-122" d="M337.62,78s11.3.61,14.53,3.41c0,0,1,9.09-2,15.14A143,143,0,0,1,342,109.9s5.83-9,9.76-13c0,0,3.75-5.31,2.4-17A55.51,55.51,0,0,0,337.62,78Z" transform="translate(-99.03 -42.89)"/><path class="cls-123" d="M378.61,150.6c-.55-.17-18.87-5.88-34.91-5.69h.05c11.69-1.61,28.67,2.67,33.54,4.85l0,0Z" transform="translate(-99.03 -42.89)"/><path class="cls-124" d="M309.58,271.2h0Z" transform="translate(-99.03 -42.89)"/><path class="cls-125" d="M330.73,118.13l-8,10s5.83,4.79,11.73,4.19l1.43-7.19Z" transform="translate(-99.03 -42.89)"/><path class="cls-126" d="M319.63,273.73c-1.11,7.85-10.69,8.83-10.69,8.83l-3.43-.2L304,284.1c-3.74,2.15-10-.05-10-.05l-.77-1.69a5.48,5.48,0,0,1-.42-2.24c.11-1,1.4-11.07,1.4-11.07s4.92-.08,6.46-1.34c.35-.29,1.82,2.3,2.05,1.91.79-1.32-.2-5.88-.2-5.88s4.28,5.27,7.09,7.46c-.2-.09-3.54-1.69-4.22-1.48s1.1,3.73,3.4,6.18a8.9,8.9,0,0,0,2.13,1.73C314.18,279.46,318.72,277.05,319.63,273.73Z" transform="translate(-99.03 -42.89)"/><path class="cls-127" d="M378.77,219.08a3.56,3.56,0,0,1-.22.5c-3.32,7.24-14.07,6.84-14.07,6.84l-2.76-.21c-.26.38-.46.69-.46.69-3.44,1.34-9.81,0-9.81,0l-.61-2.4c-.75-4.39,2.29-13.31,2.29-13.31s3.75-1,5.25-.47,2.31,2.9,3.16,2.9c.66,0,.91-3.55.91-3.55a32.44,32.44,0,0,0,4.25,5c-.22,0-2.58-.15-3.81,1.26-.58.66.63,2.34,2.51,3.9,2.25,1.85,5.48,3.53,7.7,3.06a8.5,8.5,0,0,0,5.66-4.2Z" transform="translate(-99.03 -42.89)"/><path class="cls-128" d="M367.63,219.08a11.46,11.46,0,0,0,5.12,1.87,4.19,4.19,0,0,0,3.88-2.17S373.69,220.43,367.63,219.08Z" transform="translate(-99.03 -42.89)"/><path class="cls-129" d="M317.68,273.33a8.25,8.25,0,0,1-5.14,3.72S318.33,278.3,317.68,273.33Z" transform="translate(-99.03 -42.89)"/><path class="cls-130" d="M348.65,108.45l-.16.39c-1.09,2.7-3.68,7.47-4.1,10,0,0-4.67,9.15-14.29,10.74l-3.49-4.39,5.18-8.24s9.23-1.32,13.53-5.34c0,0,1.88-2.83,3.05-5A3.08,3.08,0,0,1,348.65,108.45Z" transform="translate(-99.03 -42.89)"/><path class="cls-131" d="M348.49,108.84c-1.09,2.7-3.68,7.47-4.1,10,0,0-8.22,4-8.47,3.25s3.68-4.49,7.73-7.64A16.12,16.12,0,0,0,348.49,108.84Z" transform="translate(-99.03 -42.89)"/><path class="cls-132" d="M308,95.68s.67,13.1,3.33,18.78-3.05,15.68-3.05,15.68a80.56,80.56,0,0,0,1.22-10.37C309.55,115.51,307.24,103.6,308,95.68Z" transform="translate(-99.03 -42.89)"/><path class="cls-133" d="M294.56,220.67s-1.36,29.56.63,32.16c0,0,1.9.21,4.76-6.22,0,0-4,13.31-6.44,18C293.51,264.58,290.21,246.92,294.56,220.67Z" transform="translate(-99.03 -42.89)"/><path class="cls-134" d="M353.55,206.29a57.4,57.4,0,0,0,4.59-15c1.43-8.74-.76-18.37-.76-18.37S356.09,194.83,353.55,206.29Z" transform="translate(-99.03 -42.89)"/><polygon class="cls-15" points="345.81 183.52 350.5 68.78 353.6 68.78 346.62 183.87 345.81 183.52"/><polygon class="cls-135" points="309.26 51.03 394.86 48.7 417.34 69.66 399.38 90.62 309.26 89.47 293.38 69.66 309.26 51.03"/><polygon class="cls-136" points="394.86 48.7 399.19 50.86 419.5 69.66 400.99 90.62 399.38 90.62 417.34 69.66 394.86 48.7"/><polygon class="cls-137" points="398.42 62.96 401.96 61.62 409.41 69.84 401.96 79.6 398.42 78.67 401.27 72.14 392.17 73.34 392.17 67.31 401.26 68.79 398.42 62.96"/><polygon class="cls-137" points="309.9 62.96 306.36 61.62 298.91 69.84 306.36 79.6 309.9 78.67 307.04 72.14 316.15 73.34 316.15 67.31 307.05 68.79 309.9 62.96"/><polygon class="cls-138" points="352.31 90.02 349.63 89.98 349.09 103.21 351.63 101.32 352.31 90.02"/><text class="cls-139" transform="translate(77.94 64.3)">Buy</text><text class="cls-139" transform="translate(534.08 64.3)">Sell</text><text class="cls-140" transform="translate(323.37 76.69)">0,000</text></g></g></svg>