<?xml version="1.0" encoding="utf-8"?>
<!-- Generator: Adobe Illustrator 24.1.1, SVG Export Plug-In . SVG Version: 6.00 Build 0)  -->
<svg version="1.0" id="Layer_1" xmlns="http://www.w3.org/2000/svg" xmlns:xlink="http://www.w3.org/1999/xlink" x="0px" y="0px"
	 viewBox="0 0 8192 8192" style="enable-background:new 0 0 8192 8192;" xml:space="preserve">
<style type="text/css">
	.st0{fill:#FFA800;}
</style>
<path class="st0" d="M4102.84,4092.88c-0.45,1.41-1.55,2.15-2.83,2.62c-3.02,1.11-6.05,1.11-9.05-0.09
	c-0.64-0.26-1.26-0.67-1.77-1.14c-1.15-1.05-1.12-2.42-0.01-3.5c0.96-0.93,2.16-1.38,3.43-1.68c2.54-0.59,5.03-0.47,7.47,0.48
	c1.23,0.48,2.26,1.21,2.76,2.51C4102.84,4092.34,4102.84,4092.61,4102.84,4092.88z M4095.62,4089.32c-0.02,0.05-0.03,0.1-0.05,0.15
	c-0.8,0.07-1.62,0.05-2.38,0.24c-1,0.26-2.01,0.59-2.9,1.09c-0.96,0.54-0.9,1.45,0,2.09c0.38,0.27,0.8,0.49,1.23,0.64
	c2.5,0.83,5.03,0.88,7.55,0.17c0.73-0.2,1.44-0.59,2.05-1.04c0.61-0.45,0.58-1.15,0-1.66c-0.38-0.32-0.83-0.65-1.3-0.77
	C4098.44,4089.86,4097.02,4089.61,4095.62,4089.32z"/>
<path class="st0" d="M4102.84,4100.36c-0.49,1.34-1.55,2.08-2.81,2.54c-3.06,1.13-6.14,1.15-9.15-0.14
	c-0.76-0.33-1.46-0.92-2.05-1.53c-0.61-0.64-0.63-1.47-0.2-2.33c1.91,2.08,4.38,2.55,6.99,2.54c2.59-0.01,5.05-0.47,6.92-2.55
	c0.1,0.23,0.2,0.44,0.31,0.67C4102.84,4099.82,4102.84,4100.09,4102.84,4100.36z"/>
<path class="st0" d="M4102.84,4096.48c-0.44,1.41-1.55,2.16-2.82,2.63c-3.07,1.13-6.16,1.12-9.18-0.14
	c-0.69-0.29-1.34-0.81-1.88-1.34c-0.71-0.7-0.77-1.58-0.34-2.42c2.93,3.65,11.71,3.16,13.9-0.06c0.11,0.19,0.22,0.37,0.32,0.55
	C4102.84,4095.95,4102.84,4096.22,4102.84,4096.48z"/>
<path class="st0" d="M4094.57,4105.72c0-0.38,0.01-0.73,0-1.08c-0.01-0.22,0.05-0.4,0.27-0.48c0.22-0.08,0.36,0.03,0.49,0.19
	c1.01,1.14,2.03,2.27,3.03,3.41c0.23,0.27,0.24,0.43,0,0.69c-1.01,1.14-2.03,2.27-3.03,3.41c-0.14,0.15-0.28,0.26-0.49,0.19
	c-0.22-0.08-0.28-0.26-0.27-0.48c0.01-0.35,0-0.71,0-1.09c-0.17,0-0.31,0-0.46,0c-0.93,0-1.87,0.01-2.8-0.01
	c-3.21-0.04-5.9-2.49-6.23-5.68c-0.02-0.19-0.03-0.38-0.04-0.57c-0.01-0.21,0.05-0.38,0.25-0.46c0.2-0.09,0.35,0.01,0.49,0.14
	c0.71,0.69,1.51,1.22,2.46,1.48c0.61,0.17,1.25,0.3,1.87,0.31C4091.59,4105.76,4093.06,4105.72,4094.57,4105.72z M4085.94,4105.19
	c0,0.01,0.01,0.06,0.02,0.11c0.57,2.57,2.8,4.38,5.44,4.39c1.17,0.01,2.33,0,3.5,0c0.32,0,0.47,0.15,0.47,0.47c0,0.14,0,0.27,0,0.47
	c0.78-0.88,1.51-1.7,2.25-2.53c-0.74-0.83-1.47-1.65-2.25-2.53c0,0.19,0,0.3,0,0.42c0,0.39-0.13,0.52-0.52,0.52
	c-1.57,0-3.15,0-4.72,0c-0.79,0-1.58-0.12-2.3-0.42C4087.18,4105.84,4086.56,4105.49,4085.94,4105.19z"/>
<path class="st0" d="M4097.99,4082.3c0.47,0,0.9-0.01,1.34,0c0.85,0.01,1.71-0.02,2.55,0.05c2.72,0.23,5.1,2.47,5.54,5.17
	c0.06,0.34,0.07,0.69,0.1,1.04c0.02,0.2-0.05,0.36-0.24,0.44c-0.2,0.09-0.35,0.01-0.49-0.13c-0.97-0.94-2.13-1.52-3.46-1.74
	c-0.28-0.05-0.57-0.07-0.86-0.07c-1.43-0.01-2.86-0.01-4.29-0.01c-0.05,0-0.1,0.01-0.18,0.01c0,0.36-0.01,0.71,0,1.06
	c0.01,0.22-0.04,0.4-0.26,0.48c-0.23,0.09-0.38-0.03-0.52-0.19c-1.01-1.13-2.01-2.26-3.02-3.39c-0.25-0.28-0.25-0.43,0-0.71
	c1.01-1.13,2.01-2.26,3.02-3.39c0.14-0.16,0.29-0.28,0.52-0.19c0.22,0.09,0.27,0.27,0.26,0.48
	C4097.99,4081.57,4097.99,4081.91,4097.99,4082.3z M4094.94,4084.68c0.75,0.84,1.47,1.66,2.25,2.53c0-0.18,0-0.28,0-0.38
	c0-0.44,0.12-0.56,0.55-0.56c1.56,0,3.11-0.01,4.67,0.01c1.4,0.01,2.69,0.41,3.86,1.17c0.11,0.07,0.22,0.14,0.35,0.23
	c-0.01-0.09-0.01-0.14-0.02-0.19c-0.55-2.54-2.79-4.36-5.39-4.39c-1.16-0.01-2.32,0-3.48,0c-0.42,0-0.54-0.13-0.54-0.55
	c0-0.11,0-0.22,0-0.39C4096.42,4083.02,4095.69,4083.84,4094.94,4084.68z"/>
</svg>
