<?xml version="1.0" encoding="utf-8"?>
<!-- Generator: Adobe Illustrator 24.2.2, SVG Export Plug-In . SVG Version: 6.00 Build 0)  -->
<svg version="1.1" id="Layer_1" xmlns="http://www.w3.org/2000/svg" xmlns:xlink="http://www.w3.org/1999/xlink" x="0px" y="0px"
	 viewBox="0 0 8192 8192" style="enable-background:new 0 0 8192 8192;" xml:space="preserve">
<style type="text/css">
	.st0{fill:#FFA800;}
	.st1{fill:none;stroke:#FFA800;stroke-width:500;stroke-miterlimit:5.6889;}
</style>
<path class="st0" d="M4312.4,6274.2c-420.4,0-838.1-2.7-1255.7,0c-145.8,0-288.7-25.2-285.9-201.9
	c2.8-182.2,148.6-193.3,294.4-193.3c829.7,2.7,1659.4,2.7,2491.8,0c142.9,0,294.2,14,297.1,190.6c2.7,193.3-151.3,207.5-305.5,207.5
	C5136.3,6274.2,4724.5,6274.2,4312.4,6274.2z"/>
<path class="st0" d="M4292.8,2739.6c-420.4,0-838.1-2.8-1255.7,2.8c-142.9,2.8-269.1-28-266.2-193.4
	c2.8-168.2,131.7-193.3,269.1-193.3c843.7,2.8,1690.2,2.8,2536.7,0c137.4,0,274.7,19.6,277.6,187.8
	c5.6,179.3-131.7,204.6-283.1,201.8C5144.9,2736.8,4718.8,2739.6,4292.8,2739.6z"/>
<path class="st0" d="M4315.2,5096.9c-420.4,0-838.1,0-1255.7,0c-142.9,0-291.5-14-288.7-199c2.8-185,148.6-193.4,291.5-193.4
	c838.1,2.7,1676.3,2.7,2514.2,0c140.2,0,271.9,19.6,277.6,185c5.6,182.2-134.5,207.5-280.3,207.5
	C5153.2,5094.1,4732.8,5096.9,4315.2,5096.9z"/>
<path class="st0" d="M4315.2,3532.9c426.1,0,852.1,2.8,1278.2,0c142.9,0,266.3,30.9,260.8,199c-5.6,154.2-120.6,184.9-255.1,184.9
	c-852.1-2.8-1704.2-2.8-2559.1,0c-137.3,0-269.1-19.6-271.9-190.6c-2.8-171,123.3-196.2,266.2-196.2
	C3460.3,3532.9,3886.4,3532.9,4315.2,3532.9z"/>
<path class="st0" d="M2322.3,2784.5c-196.2-36.4-308.4-89.7-302.8-249.5c5.6-148.6,123.3-184.9,255.1-182.2
	c140.2,0,280.3,33.7,257.8,193.3C2518.5,2633.1,2395.2,2706,2322.3,2784.5z"/>
<path class="st0" d="M2271.8,4611.9c123.3,128.9,246.6,199,260.6,285.9c25.3,159.8-114.9,199-255.1,199
	c-142.9,0-274.7-44.9-249.5-201.9C2036.4,4808.2,2154.1,4738.2,2271.8,4611.9z"/>
<path class="st0" d="M2285.9,6372.3c-123.3-137.4-246.6-210.2-257.8-302.8c-19.6-134.5,100.9-193.3,238.3-193.3
	c140.2,0,280.3,30.7,266.2,187.8C2521.3,6156.4,2403.6,6234.9,2285.9,6372.3z"/>
<path class="st0" d="M2271.8,4015c-117.7-137.3-238.3-215.8-243.9-302.8c-14-159.8,131.7-182.2,269.1-182.2
	c137.3,0,260.6,47.6,238.3,190.6C2518.5,3810.4,2395.2,3880.4,2271.8,4015z"/>
<path class="st1" d="M5811.9,7686.8H2381.2c-535.3,0-967-431.7-967-967.1V1472.6c0-535.3,431.7-967,967-967h3430.8
	c535.4,0,967.1,431.7,967.1,967v5247.1C6779,7255.2,6344.5,7686.8,5811.9,7686.8z"/>
</svg>
