<?xml version="1.0" encoding="utf-8"?>
<!-- Generator: Adobe Illustrator 24.1.1, SVG Export Plug-In . SVG Version: 6.00 Build 0)  -->
<svg version="1.0" id="Layer_1" xmlns="http://www.w3.org/2000/svg" xmlns:xlink="http://www.w3.org/1999/xlink" x="0px" y="0px"
	 viewBox="0 0 8192 8192" style="enable-background:new 0 0 8192 8192;" xml:space="preserve">
<style type="text/css">
	.st0{fill:#FFA800;}
	.st1{fill:none;stroke:#FFA800;stroke-width:1.7067;stroke-miterlimit:5.6889;}
</style>
<path class="st0" d="M4097.34,4104.02c-1.5,0-2.99-0.01-4.48,0c-0.52,0-1.03-0.09-1.02-0.72c0.01-0.65,0.53-0.69,1.05-0.69
	c2.96,0.01,5.92,0.01,8.89,0c0.51,0,1.05,0.05,1.06,0.68c0.01,0.69-0.54,0.74-1.09,0.74
	C4100.28,4104.02,4098.81,4104.02,4097.34,4104.02z"/>
<path class="st0" d="M4097.27,4091.41c-1.5,0-2.99-0.01-4.48,0.01c-0.51,0.01-0.96-0.1-0.95-0.69c0.01-0.6,0.47-0.69,0.96-0.69
	c3.01,0.01,6.03,0.01,9.05,0c0.49,0,0.98,0.07,0.99,0.67c0.02,0.64-0.47,0.73-1.01,0.72
	C4100.31,4091.4,4098.79,4091.41,4097.27,4091.41z"/>
<path class="st0" d="M4097.35,4099.82c-1.5,0-2.99,0-4.48,0c-0.51,0-1.04-0.05-1.03-0.71c0.01-0.66,0.53-0.69,1.04-0.69
	c2.99,0.01,5.98,0.01,8.97,0c0.5,0,0.97,0.07,0.99,0.66c0.02,0.65-0.48,0.74-1,0.74
	C4100.34,4099.81,4098.84,4099.82,4097.35,4099.82z"/>
<path class="st0" d="M4097.35,4094.24c1.52,0,3.04,0.01,4.56,0c0.51,0,0.95,0.11,0.93,0.71c-0.02,0.55-0.43,0.66-0.91,0.66
	c-3.04-0.01-6.08-0.01-9.13,0c-0.49,0-0.96-0.07-0.97-0.68c-0.01-0.61,0.44-0.7,0.95-0.7
	C4094.3,4094.24,4095.82,4094.24,4097.35,4094.24z"/>
<path class="st0" d="M4090.24,4091.57c-0.7-0.13-1.1-0.32-1.08-0.89c0.02-0.53,0.44-0.66,0.91-0.65c0.5,0,1,0.12,0.92,0.69
	C4090.94,4091.03,4090.5,4091.29,4090.24,4091.57z"/>
<path class="st0" d="M4090.06,4098.09c0.44,0.46,0.88,0.71,0.93,1.02c0.09,0.57-0.41,0.71-0.91,0.71c-0.51,0-0.98-0.16-0.89-0.72
	C4089.22,4098.79,4089.64,4098.54,4090.06,4098.09z"/>
<path class="st0" d="M4090.11,4104.37c-0.44-0.49-0.88-0.75-0.92-1.08c-0.07-0.48,0.36-0.69,0.85-0.69c0.5,0,1,0.11,0.95,0.67
	C4090.95,4103.6,4090.53,4103.88,4090.11,4104.37z"/>
<path class="st0" d="M4090.06,4095.96c-0.42-0.49-0.85-0.77-0.87-1.08c-0.05-0.57,0.47-0.65,0.96-0.65s0.93,0.17,0.85,0.68
	C4090.94,4095.23,4090.5,4095.48,4090.06,4095.96z"/>
<path class="st1" d="M4102.69,4109.06h-12.24c-1.91,0-3.45-1.54-3.45-3.45v-18.72c0-1.91,1.54-3.45,3.45-3.45h12.24
	c1.91,0,3.45,1.54,3.45,3.45v18.72C4106.14,4107.52,4104.59,4109.06,4102.69,4109.06z"/>
</svg>
