<?xml version="1.0" encoding="utf-8"?>
<!-- Generator: Adobe Illustrator 24.1.1, SVG Export Plug-In . SVG Version: 6.00 Build 0)  -->
<svg version="1.0" id="Layer_1" xmlns="http://www.w3.org/2000/svg" xmlns:xlink="http://www.w3.org/1999/xlink" x="0px" y="0px"
	 viewBox="0 0 8192 8192" style="enable-background:new 0 0 8192 8192;" xml:space="preserve">
<style type="text/css">
	.st0{fill:#FFA800;}
</style>
<path class="st0" d="M4081.22,4086.48c0.36-1,1.09-1.34,2.13-1.34c7.57,0.02,15.14,0.01,22.72,0.01c1.54,0,2.13,0.59,2.13,2.13
	c0,4.77,0,9.55,0,14.32c0,1.46-0.6,2.05-2.08,2.06c-0.52,0-1.03,0-1.54,0c0-0.84,0-1.63,0-2.45c0.38-0.03,0.71-0.05,1.06-0.08
	c0-4.48,0-8.93,0-13.42c-7.28,0-14.55,0-21.87,0c0,4.45,0,8.92,0,13.46c0.22,0,0.44,0,0.65,0c2.08,0,4.15,0.01,6.24-0.01
	c0.39-0.01,0.61,0.11,0.79,0.47c0.32,0.66,0.69,1.29,1.09,2.03c-0.31,0-0.52,0-0.73,0c-2.8,0-5.59-0.03-8.39,0.02
	c-1.04,0.02-1.77-0.3-2.2-1.26C4081.22,4097.11,4081.22,4091.79,4081.22,4086.48z M4106.95,4093.56c-0.43-0.01-0.85,0.38-0.88,0.81
	c-0.02,0.46,0.38,0.88,0.86,0.88c0.47,0,0.82-0.36,0.83-0.82C4107.76,4093.95,4107.41,4093.57,4106.95,4093.56z"/>
<path class="st0" d="M4094.58,4099.5c0-0.36,0-0.57,0-0.78c0-2.56-0.01-5.11,0-7.67c0-0.74,0.27-1.13,0.8-1.22
	c0.79-0.14,1.29,0.3,1.3,1.15c0.01,1.46,0.01,2.92,0.01,4.53c0.33-0.72,0.8-1.05,1.44-0.84c0.85,0.27,0.72,1.04,0.78,1.73
	c0.06-0.83-0.03-1.8,1.17-1.76c1.14,0.04,0.95,1.01,1.1,1.76c0.02-0.11,0.04-0.23,0.05-0.35c0.01-0.14,0-0.28,0.01-0.42
	c0.03-0.64,0.4-1.01,1.01-1.01c0.59,0,1.02,0.39,1.04,1.01c0.02,0.68,0.01,1.36,0.01,2.04c0,1.68,0,3.36,0,5.03
	c0,2.43-1.58,4.07-4,4.16c-1.39,0.05-2.72-0.13-3.8-1.11c-0.24-0.23-0.47-0.5-0.64-0.79c-1.04-1.82-2.06-3.65-3.08-5.48
	c-0.14-0.24-0.27-0.49-0.35-0.76c-0.15-0.45-0.13-0.89,0.32-1.17c0.44-0.27,0.91-0.23,1.27,0.14
	C4093.51,4098.22,4093.97,4098.8,4094.58,4099.5z"/>
</svg>
