<?xml version="1.0" encoding="utf-8"?>
<!-- Generator: Adobe Illustrator 24.1.1, SVG Export Plug-In . SVG Version: 6.00 Build 0)  -->
<svg version="1.0" id="Layer_1" xmlns="http://www.w3.org/2000/svg" xmlns:xlink="http://www.w3.org/1999/xlink" x="0px" y="0px"
	 viewBox="0 0 60 60" style="enable-background:new 0 0 60 60;" xml:space="preserve">
<style type="text/css">
	.st0{fill:#FFA800;}
</style>
<path class="st0" d="M22.74,17.73c0-1.16,0.04-2.25-0.01-3.34c-0.06-1.57,1.09-2.56,2.54-2.53c3.12,0.06,6.24,0.02,9.35,0.02
	c1.44,0,2.37,0.93,2.38,2.38c0.01,0.99,0,1.99,0,2.98c0,0.15,0,0.29,0,0.49c0.22,0,0.39,0,0.57,0c2.93,0,5.85-0.01,8.78,0
	c1.94,0.01,3.39,1.17,3.69,3.02c0.1,0.61,0.07,1.25,0.07,1.87c0,7.33-0.01,14.65-0.02,21.98c0,2.08-1.47,3.54-3.56,3.54
	c-10.99,0-21.98,0-32.96,0c-2.24,0-3.66-1.43-3.66-3.68c0-5.04,0-10.08,0-15.11c0-2.67-0.02-5.34-0.01-8.01
	c0.01-1.76,1.17-3.17,2.87-3.53c0.32-0.07,0.65-0.07,0.97-0.07c2.8,0,5.61,0,8.41,0C22.33,17.73,22.51,17.73,22.74,17.73z
	 M11.49,29.31c0,0.18,0,0.34,0,0.5c0,2.5,0,5.01,0,7.51c0,2.42,0,4.85,0,7.27c0,0.96,0.48,1.67,1.31,1.89
	c0.3,0.08,0.62,0.09,0.93,0.09c6.25,0,12.5,0,18.75,0c4.63,0,9.26,0,13.89,0c0.6,0,1.16-0.1,1.61-0.55
	c0.43-0.44,0.55-0.98,0.55-1.57c0-4.91,0-9.83,0-14.74c0-0.13-0.01-0.26-0.02-0.44c-0.19,0.05-0.35,0.08-0.5,0.12
	c-3.19,0.83-6.42,1.45-9.69,1.83c-0.34,0.04-0.45,0.15-0.5,0.48c-0.68,4.38-5.06,7.43-9.4,6.58c-3.44-0.68-5.95-3.25-6.51-6.68
	c-0.04-0.25-0.13-0.35-0.4-0.39c-1.64-0.24-3.28-0.48-4.91-0.79C14.9,30.1,13.24,29.7,11.49,29.31z M29.85,36.81
	c3.58,0,6.47-2.88,6.49-6.45c0.01-3.58-2.9-6.48-6.5-6.48c-3.52,0-6.43,2.89-6.45,6.41C23.37,33.88,26.27,36.8,29.85,36.81z
	 M35.41,17.68c0-1.09,0-2.15,0-3.21c0-0.87-0.16-1.03-1.02-1.03c-2.99,0-5.99,0-8.98,0c-0.12,0-0.25,0-0.37,0
	c-0.49,0.03-0.71,0.26-0.71,0.75c-0.01,0.86,0,1.71,0,2.57c0,0.3,0,0.59,0,0.91C28.03,17.68,31.68,17.68,35.41,17.68z"/>
</svg>
