<?xml version="1.0" encoding="utf-8"?>
<!-- Generator: Adobe Illustrator 24.1.1, SVG Export Plug-In . SVG Version: 6.00 Build 0)  -->
<svg version="1.0" id="Layer_1" xmlns="http://www.w3.org/2000/svg" xmlns:xlink="http://www.w3.org/1999/xlink" x="0px" y="0px"
	 viewBox="0 0 8192 8192" style="enable-background:new 0 0 8192 8192;" xml:space="preserve">
<style type="text/css">
	.st0{fill:#FFA800;}
</style>
<path class="st0" d="M4106.22,4106.18c-6.4,0-12.65,0-19,0c0.26-1.1,0.38-2.18,1.49-2.77c0.13-0.07,0.22-0.27,0.27-0.43
	c0.22-0.8,0.33-1.63,0.62-2.39c1.36-3.53,4.49-4.7,7.82-4.47c2.1,0.14,3.94,0.86,5.28,2.59c0.92,1.18,1.43,2.53,1.61,4
	c0.05,0.36,0.09,0.63,0.49,0.81c0.28,0.13,0.55,0.44,0.69,0.74C4105.77,4104.85,4105.96,4105.47,4106.22,4106.18z M4090.65,4101.83
	c0.07,0.1,0.18,0.23,0.28,0.38c0.17-0.17,0.43-0.31,0.49-0.52c0.38-1.32,1.17-2.34,2.29-3.07c0.56-0.36,1.22-0.57,1.81-0.88
	c0.17-0.09,0.27-0.32,0.4-0.48c-0.21-0.05-0.43-0.18-0.62-0.13c-1.28,0.31-2.39,0.94-3.28,1.91
	C4091.32,4099.79,4090.89,4100.7,4090.65,4101.83z M4088.79,4104.04c-0.01,0.07-0.02,0.15-0.03,0.22c0.16,0.07,0.32,0.19,0.48,0.19
	c1.09,0.02,2.18,0.03,3.27,0.01c0.14,0,0.28-0.18,0.42-0.27c-0.15-0.09-0.3-0.23-0.46-0.24c-0.98-0.02-1.96-0.01-2.94,0
	C4089.28,4103.95,4089.03,4104,4088.79,4104.04z"/>
<path class="st0" d="M4102.68,4089.88c-1.79,1.29-3.13-0.24-4.64-0.8c0.73-0.07,1.47-0.1,2.19-0.22c0.82-0.13,1.57-0.43,1.83-1.34
	c0.2-0.71,0.02-1.23-0.65-1.51c-0.53-0.22-1.12-0.39-1.69-0.41c-1.83-0.06-3.66-0.07-5.49-0.02c-1.09,0.03-1.92,0.72-2.86,1.47
	c0.97-0.17,1.79-0.39,2.61-0.43c1.85-0.07,3.7-0.08,5.55-0.05c0.55,0.01,1.42-0.02,1.42,0.7c0,0.76-0.9,0.57-1.42,0.65
	c-0.68,0.1-1.39,0.06-2.09,0.07c-1.2,0.01-2.31,0.31-3.35,0.94c-0.91,0.55-1.87,1.02-2.82,1.51c-1.02,0.54-2.11,0.73-3.23,0.4
	c-1.77-0.52-3.52-1.09-5.38-1.68c1-1.72,1.94-3.35,2.9-5.01c0.63,0.29,1.22,0.55,1.8,0.83c0.57,0.27,1.12,0.27,1.71,0.04
	c1.78-0.69,3.57-1.37,5.35-2.07c1.37-0.54,2.69-0.54,4.03,0.15c3.09,1.59,6.21,3.14,9.31,4.72c0.35,0.18,0.69,0.39,0.98,0.64
	c0.49,0.42,0.45,1.07-0.15,1.25c-0.57,0.17-1.22,0.1-1.84,0.07c-0.3-0.01-0.58-0.16-0.87-0.25
	C4105.48,4090.47,4104.56,4090.79,4102.68,4089.88z"/>
<path class="st0" d="M4084.65,4108.87c0.72-0.78,1.29-1.36,2.33-1.35c6.54,0.03,13.08,0.02,19.62,0.02c0.94,0,1.45,0.6,2.06,1.34
	C4100.62,4108.87,4092.72,4108.87,4084.65,4108.87z"/>
<path class="st0" d="M4083.23,4082.56c0.52,0.35,0.97,0.64,1.44,0.96c-0.94,1.72-1.84,3.39-2.79,5.05c-0.09,0.15-0.4,0.27-0.6,0.25
	c-0.33-0.03-0.65-0.19-1.05-0.32C4081.26,4086.48,4082.24,4084.53,4083.23,4082.56z"/>
<path class="st0" d="M4098.65,4091.05c0,0.35,0,0.6,0,0.92c-0.48,0.02-0.95,0.04-1.45,0.06c-0.05,0.31-0.08,0.59-0.13,0.89
	c-0.28,0-0.56,0-0.87,0c-0.02-0.28-0.04-0.56-0.07-0.9c-0.45,0-0.89,0-1.38,0c0-0.36,0-0.65,0-0.97
	C4096.04,4091.05,4097.31,4091.05,4098.65,4091.05z"/>
<path class="st0" d="M4096.66,4095.44c-0.18,0-0.36,0.03-0.52-0.01c-0.3-0.08-0.77-0.14-0.83-0.32c-0.1-0.3-0.02-0.75,0.15-1.04
	c0.3-0.52,0.85-0.64,1.43-0.56c0.56,0.07,0.99,0.32,1.19,0.88c0.23,0.67,0.01,1-0.69,1.04
	C4097.14,4095.44,4096.9,4095.43,4096.66,4095.44C4096.66,4095.43,4096.66,4095.43,4096.66,4095.44z"/>
</svg>
