<?xml version="1.0" encoding="utf-8"?>
<!-- Generator: Adobe Illustrator 24.1.1, SVG Export Plug-In . SVG Version: 6.00 Build 0)  -->
<svg version="1.0" id="Layer_1" xmlns="http://www.w3.org/2000/svg" xmlns:xlink="http://www.w3.org/1999/xlink" x="0px" y="0px"
	 viewBox="0 0 8192 8192" style="enable-background:new 0 0 8192 8192;" xml:space="preserve">
<style type="text/css">
	.st0{fill:#FFA800;}
</style>
<path class="st0" d="M4095.97,4047.39c14.25,0,28.49,0,42.77,0c4.91,0,8.47,2.32,10,6.64c0.44,1.26,0.62,2.67,0.62,4
	c0.05,18.67,0.02,37.36,0.02,56.03c0,6.54-4.22,10.79-10.77,10.79c-19.48,0-38.94,0-58.42,0c-8.94,0-17.9,0-26.84,0
	c-3.63,0-6.81-0.94-9.19-3.93c-1.53-1.93-2.1-4.12-2.1-6.49c0-18.99,0-37.98,0.02-56.96c0-5.51,3.78-10.12,11.14-10.1
	C4067.45,4047.42,4081.72,4047.39,4095.97,4047.39z M4095.42,4112.55c14.25,0,28.52,0,42.77,0c4.17,0,5.93-1.75,5.93-5.9
	c0-15.38,0-30.79,0-46.17c0-1.14,0.02-2.27-0.02-3.43c-0.1-2.89-1.6-4.64-4.52-4.79c-3.73-0.2-7.46-0.15-11.19-0.15
	c-25.21,0-50.45,0-75.68,0c-4.17,0-5.85,1.68-5.85,5.83c0,16.32,0,32.62,0,48.94c0,3.93,1.83,5.68,5.73,5.68
	C4066.93,4112.55,4081.18,4112.55,4095.42,4112.55z M4095.67,4116.36c-1.23,0.02-2.4,1.19-2.37,2.37c0.05,1.28,1.14,2.3,2.42,2.3
	c1.28,0,2.32-1.06,2.35-2.35C4098.07,4117.39,4096.95,4116.33,4095.67,4116.36z"/>
<path class="st0" d="M4126.34,4144.06c-20.79,0-41.53,0-62.25,0c-0.79-2.74,0.22-4.1,3.04-4.1c18.59,0,37.16,0,55.75,0
	C4126.07,4139.96,4126.71,4140.7,4126.34,4144.06z"/>
<path class="st0" d="M4085.55,4135.62c0.89-2.67,1.7-5.23,2.62-7.78c0.1-0.25,0.59-0.49,0.91-0.49c4.07-0.02,8.15-0.02,12.22,0
	c0.3,0,0.77,0.2,0.84,0.4c0.89,2.59,1.75,5.19,2.62,7.88C4098.26,4135.62,4091.99,4135.62,4085.55,4135.62z"/>
<rect x="4053.72" y="4058.08" class="st0" width="10.1" height="48.27"/>
<rect x="4070.49" y="4072.16" class="st0" width="10.1" height="34.2"/>
<rect x="4088.24" y="4086.11" class="st0" width="10.1" height="20.25"/>
<rect x="4106.36" y="4072.16" class="st0" width="10.1" height="34.2"/>
<rect x="4123.45" y="4058.08" class="st0" width="10.1" height="48.27"/>
</svg>
