<?xml version="1.0" encoding="utf-8"?>
<!-- Generator: Adobe Illustrator 24.1.1, SVG Export Plug-In . SVG Version: 6.00 Build 0)  -->
<svg version="1.1" id="Layer_1" xmlns="http://www.w3.org/2000/svg" xmlns:xlink="http://www.w3.org/1999/xlink" x="0px" y="0px"
	 viewBox="0 0 8192 8192" style="enable-background:new 0 0 8192 8192;" xml:space="preserve">
<style type="text/css">
	.st0{fill:#FFA800;}
</style>
<path class="st0" d="M4113.7,811c1041,0,2081.4,0,3124.6,0c358.7,0,618.8,169.5,730.6,485.1c32.1,92.1,45.3,195.1,45.3,292.2
	c3.6,1364,1.5,2729.4,1.5,4093.4c0,477.8-308.3,788.3-786.8,788.3c-1423.2,0-2844.8,0-4268,0c-653.1,0-1307.7,0-1960.9,0
	c-265.2,0-497.5-68.7-671.4-287.1c-111.8-141-153.4-301-153.4-474.2c0-1387.4,0-2774.7,1.5-4161.3c0-402.5,276.2-739.3,813.9-737.9
	C2030.1,813.1,3072.6,811,4113.7,811z M4073.5,5571.4c1041.1,0,2083.6,0,3124.7,0c304.6,0,433.2-127.9,433.2-431
	c0-1123.6,0-2249.4,0-3373c0-83.3,1.5-165.8-1.5-250.6c-7.3-211.1-116.9-339-330.2-349.9c-272.5-14.6-545-11-817.5-11
	c-1841.8,0-3685.7,0-5529,0c-304.6,0-427.4,122.7-427.4,425.9c0,1192.3,0,2383.1,0,3575.4c0,287.1,133.7,415,418.6,415
	C1992.1,5571.4,3033.2,5571.4,4073.5,5571.4z M4091.8,5849.7c-89.9,1.5-175.3,86.9-173.2,173.2c3.7,93.5,83.3,168,176.8,168
	c93.5,0,169.5-77.4,171.7-171.7C4267.1,5925,4185.3,5847.5,4091.8,5849.7z"/>
<path class="st0" d="M6358.7,7375.2c-1518.9,0-3034.1,0-4547.8,0c-57.7-200.2,16.1-299.5,222.1-299.5c1358.1,0,2714.8,0,4072.9,0
	C6339,7075.6,6385.7,7129.7,6358.7,7375.2z"/>
<path class="st0" d="M3352.4,7074.9c65-195.1,124.2-382.1,191.4-568.4c7.3-18.3,43.1-35.8,66.5-35.8c297.3-1.5,595.4-1.5,892.8,0
	c21.9,0,56.3,14.6,61.4,29.2c65,189.2,127.9,379.2,191.4,575.7C4281,7074.9,3822.9,7074.9,3352.4,7074.9z"/>
<rect x="1027" y="1591.9" class="st0" width="737.9" height="3526.5"/>
<rect x="2252.2" y="2620.6" class="st0" width="737.9" height="2498.6"/>
<rect x="3548.9" y="3639.7" class="st0" width="737.9" height="1479.4"/>
<rect x="4872.7" y="2620.6" class="st0" width="737.9" height="2498.6"/>
<rect x="6121.3" y="1591.9" class="st0" width="737.9" height="3526.5"/>
</svg>
