<?xml version="1.0" encoding="utf-8"?>
<!-- Generator: Adobe Illustrator 24.1.1, SVG Export Plug-In . SVG Version: 6.00 Build 0)  -->
<svg version="1.0" id="Layer_1" xmlns="http://www.w3.org/2000/svg" xmlns:xlink="http://www.w3.org/1999/xlink" x="0px" y="0px"
	 viewBox="0 0 8192 8192" style="enable-background:new 0 0 8192 8192;" xml:space="preserve">
<style type="text/css">
	.st0{fill:#FFA800;}
</style>
<path class="st0" d="M4100.93,4106.63c0.43-0.25,0.73-0.59,0.82-1.08c0.09-0.47,0-0.92-0.35-1.28c0.52-0.36,0.82-0.81,0.81-1.44
	c-0.01-0.62-0.32-1.08-0.83-1.41c0.03-0.05,0.06-0.09,0.09-0.13c0.36-0.55,0.4-1.12,0.11-1.71c-0.3-0.62-1.04-1-1.64-0.89
	c-0.54,0.1-1.08,0.2-1.63,0.23c-0.84,0.05-1.68,0.03-2.52-0.08c-0.56-0.08-1.12-0.14-1.66-0.29c-0.84-0.23-1.43-0.77-1.67-1.64
	c-0.03-0.12-0.1-0.12-0.19-0.12c-0.53,0-1.08,0.01-1.61,0c-0.42-0.01-0.8,0.09-1.17,0.27c-0.46,0.24-0.88,0.53-1.23,0.93
	c-0.24,0.26-0.5,0.51-0.73,0.77c-0.1,0.11-0.19,0.23-0.19,0.41c0.01,2.53,0,5.05,0.01,7.58c0,0.07,0.05,0.17,0.11,0.21
	c0.67,0.54,1.38,1.02,2.14,1.42c0.61,0.31,1.23,0.52,1.93,0.52c2.71-0.01,5.42-0.01,8.14,0c0.23,0,0.44-0.03,0.65-0.14
	c0.35-0.18,0.61-0.43,0.75-0.8C4101.23,4107.49,4101.18,4107.06,4100.93,4106.63z"/>
<path class="st0" d="M4100.93,4106.63c0.25,0.44,0.3,0.87,0.14,1.32c-0.14,0.37-0.4,0.62-0.75,0.8c-0.21,0.11-0.42,0.14-0.65,0.14
	c-2.71-0.01-5.42-0.01-8.14,0c-0.7,0.01-1.33-0.21-1.93-0.52c-0.77-0.39-1.47-0.88-2.14-1.42c-0.06-0.05-0.11-0.14-0.11-0.21
	c-0.01-2.53-0.01-5.05-0.01-7.58c0-0.17,0.09-0.3,0.19-0.41c0.24-0.26,0.5-0.51,0.73-0.77c0.35-0.39,0.77-0.69,1.23-0.93
	c0.36-0.19,0.75-0.28,1.17-0.27c0.53,0.01,1.08,0.01,1.61,0c0.09,0,0.15,0,0.19,0.12c0.23,0.87,0.82,1.41,1.67,1.64
	c0.54,0.15,1.1,0.21,1.66,0.29c0.84,0.12,1.68,0.13,2.52,0.08c0.55-0.03,1.09-0.13,1.63-0.23c0.6-0.11,1.33,0.27,1.64,0.89
	c0.29,0.59,0.25,1.16-0.11,1.71c-0.02,0.04-0.05,0.07-0.09,0.13c0.51,0.34,0.82,0.79,0.83,1.41c0.01,0.63-0.29,1.08-0.81,1.44
	c0.35,0.36,0.44,0.81,0.35,1.28C4101.66,4106.03,4101.36,4106.38,4100.93,4106.63z"/>
<path class="st0" d="M4086.6,4103.15c0,1.36,0,2.72,0,4.08c0,0.53-0.26,0.78-0.78,0.78c-1.22,0-2.45,0-3.67,0
	c-0.56,0-0.8-0.24-0.81-0.8c0-0.59,0-1.19,0-1.78c0-2.14,0-4.27,0-6.41c0-0.51,0.26-0.76,0.77-0.76c1.22,0,2.45,0,3.67,0
	c0.03,0,0.06,0,0.09,0c0.46,0.01,0.73,0.26,0.73,0.73c0.01,0.43,0,0.86,0,1.3C4086.6,4101.25,4086.6,4102.2,4086.6,4103.15z
	 M4083.97,4104.9c-0.53,0-0.94,0.41-0.95,0.94c-0.01,0.51,0.43,0.94,0.95,0.94c0.51,0,0.94-0.43,0.94-0.93
	C4084.92,4105.32,4084.5,4104.9,4083.97,4104.9z"/>
<path class="st0" d="M4100.16,4097.88c0.24-0.44,0.52-0.52,0.96-0.28c0.91,0.5,1.82,1,2.73,1.5c0.38,0.21,0.65,0.13,0.86-0.25
	c0.37-0.67,0.73-1.33,1.1-2c0.76-1.38,1.51-2.76,2.28-4.14c0.19-0.35,0.48-0.44,0.83-0.27c0.11,0.05,0.21,0.11,0.31,0.17
	c0.22,0.13,0.45,0.17,0.67-0.01c0.22-0.17,0.23-0.4,0.18-0.65c-0.21-1.08-0.41-2.15-0.61-3.23c-0.07-0.41-0.38-0.61-0.77-0.46
	c-1.05,0.4-2.09,0.82-3.14,1.23c-0.23,0.09-0.4,0.24-0.41,0.51c-0.01,0.26,0.13,0.43,0.35,0.55c0.28,0.14,0.56,0.3,0.85,0.44
	c-0.05,0.1-0.07,0.15-0.1,0.21c-0.81,1.47-1.62,2.94-2.42,4.41c-0.24,0.43-0.51,0.51-0.95,0.26c-0.91-0.5-1.82-1-2.73-1.5
	c-0.38-0.2-0.65-0.13-0.86,0.24l-1.55,3.2C4097.72,4097.84,4098.64,4098.45,4100.16,4097.88z"/>
<path class="st0" d="M4097.21,4088.39c0.2-0.38,0.48-0.46,0.86-0.24c0.91,0.5,1.82,1,2.73,1.5c0.44,0.24,0.71,0.17,0.95-0.26
	c0.81-1.47,1.62-2.94,2.42-4.41c0.03-0.06,0.05-0.11,0.1-0.21c-0.29-0.15-0.57-0.3-0.85-0.44c-0.23-0.11-0.36-0.29-0.35-0.55
	c0.01-0.27,0.18-0.42,0.41-0.51c1.05-0.42,2.09-0.83,3.14-1.23c0.39-0.15,0.69,0.05,0.77,0.46c0.2,1.08,0.4,2.15,0.61,3.23
	c0.05,0.26,0.03,0.48-0.18,0.65c-0.22,0.18-0.44,0.14-0.67,0.01c-0.1-0.06-0.21-0.12-0.31-0.17c-0.34-0.17-0.63-0.08-0.83,0.27
	c-0.76,1.38-1.52,2.76-2.28,4.14c-0.36,0.67-0.73,1.33-1.1,2c-0.21,0.38-0.48,0.45-0.86,0.25c-0.91-0.5-1.82-1-2.73-1.5
	c-0.44-0.24-0.72-0.17-0.96,0.28l-3.19,6.24c0,0-1.91-0.55-1.7-1.77C4093.42,4094.89,4097.21,4088.39,4097.21,4088.39z"/>
</svg>
