<?xml version="1.0" encoding="utf-8"?>
<!-- Generator: Adobe Illustrator 24.1.1, SVG Export Plug-In . SVG Version: 6.00 Build 0)  -->
<svg version="1.0" id="Layer_1" xmlns="http://www.w3.org/2000/svg" xmlns:xlink="http://www.w3.org/1999/xlink" x="0px" y="0px"
	 viewBox="0 0 450 420" style="enable-background:new 0 0 450 420;" xml:space="preserve">
<style type="text/css">
	.st0{fill:#544238;}
	.st1{fill:#634E42;}
	.st2{opacity:0.2;fill:#FFFFFF;}
	.st3{fill:#FFCF9F;}
	.st4{fill:#F5C08C;}
	.st5{fill:#FFFFFF;}
	.st6{fill:#F2C799;}
	.st7{fill:#FFD2A1;}
	.st8{fill:#008A84;}
	.st9{fill:#EDEDED;}
	.st10{fill:#00A19A;}
	.st11{opacity:0.05;fill:#1D1D1B;}
	.st12{opacity:0.2;fill:#1D1D1B;}
	.st13{fill:#373735;}
	.st14{fill:#8F8F8B;}
	.st15{fill:#0FFFFF;}
	.st16{fill:#FF5B2C;}
	.st17{fill:#9D9D9C;}
	.st18{fill:#878787;}
	.st19{fill:#575756;}
	.st20{fill:#4A4A49;}
	.st21{fill:#3C3C3B;}
	.st22{opacity:0.1;fill:#1D1D1B;}
	.st23{fill:#020303;}
	.st24{fill:#FFDE82;}
	.st25{fill:#0593A1;}
	.st26{fill:#DADADA;}
	.st27{fill:#38B2AC;}
	.st28{fill:#474747;}
	.st29{fill:#00807A;}
	.st30{fill:#FFBB00;}
	.st31{opacity:0.2;}
	.st32{fill:#CF4518;}
	.st33{fill:#E94E1B;}
	.st34{opacity:0.3;fill:#FFFFFF;}
	.st35{fill:#F9B233;}
	.st36{fill:#DEF6FF;}
	.st37{fill:#432918;}
	.st38{fill:#DF4937;}
</style>
<g>
	<g>
		<polygon class="st0" points="343.75,337.9 343.71,346.37 319.86,326.99 310.31,319.22 307.15,316.65 307.15,308.38 315.06,314.76 
			333.21,329.4 		"/>
		<polygon class="st1" points="449.75,308.38 449.75,346.37 343.71,346.37 343.75,337.9 307.15,308.38 		"/>
		<rect x="343.75" y="337.9" class="st2" width="106" height="8.47"/>
	</g>
	<g>
		<g>
			<g>
				<path class="st3" d="M311.81,192.41l0.02,0.05l2.01,7.38c0.15,0.44,0.48,0.76,0.87,0.95c0.39,0.18,0.84,0.21,1.28,0.05
					l0.03-0.01c0.88-0.32,1.54-0.12,1.22-1c-1.01-2.3-1.9-5.95-2.24-8.6c-0.02-0.06-0.05-0.11-0.07-0.17
					c-0.37-0.76-1.27-1.13-2.08-0.83l-0.03,0.01C311.94,190.56,311.49,191.53,311.81,192.41z"/>
				<path class="st3" d="M315.31,188.1l-0.04,0.04l-3.04,2.5c-0.34,0.32-0.51,0.74-0.52,1.18c-0.01,0.43,0.14,0.86,0.46,1.2
					l0.02,0.03c0.64,0.68,1.7,0.71,2.38,0.07l3.08-2.53c0.05-0.04,0.09-0.09,0.13-0.14c0.55-0.64,0.54-1.61-0.06-2.24l-0.02-0.03
					C317.05,187.49,315.99,187.46,315.31,188.1z"/>
				<path class="st3" d="M315.52,190.48l0.04,0.04l2.47,2.74c0.31,0.31,0.72,0.45,1.13,0.44c0.4-0.01,0.8-0.17,1.1-0.48l0.02-0.02
					c0.61-0.63,0.59-1.63-0.04-2.23l-2.51-2.77c-0.04-0.04-0.09-0.08-0.13-0.11c-0.62-0.49-1.53-0.43-2.1,0.16l-0.02,0.02
					C314.87,188.87,314.89,189.87,315.52,190.48z"/>
				<path class="st3" d="M305.78,183.18c-0.85,0.37-1.25,1.36-0.88,2.21l5.39,12.56c0.37,0.85,1.35,1.25,2.21,0.88l0.03-0.01
					c0.85-0.37,1.25-1.35,0.88-2.21l-5.39-12.56c-0.37-0.85-1.35-1.25-2.21-0.88L305.78,183.18z"/>
				<path class="st3" d="M309.51,200.12l0.03-0.01c0.84-0.4,1.2-1.4,0.8-2.24l-5.29-11.19c-0.4-0.84-1.4-1.2-2.24-0.8l-0.03,0.01
					c-0.84,0.4-1.2,1.4-0.8,2.24l5.29,11.19C307.67,200.16,308.67,200.51,309.51,200.12z"/>
				<path class="st3" d="M306.76,201.28l0.03-0.02c0.71-0.41,0.95-1.33,0.54-2.04l-4.51-7.75c-0.41-0.71-1.33-0.95-2.04-0.54
					l-0.03,0.02c-0.71,0.41-0.95,1.33-0.54,2.04l4.51,7.75C305.14,201.45,306.05,201.69,306.76,201.28z"/>
				<path class="st4" d="M309.04,209.38l2,6.89l8.07-2l-2.04-5.92c1.55-0.86,0.5-9.16,0.5-9.16c-1.22-1.34-1.74-3.13-2.02-4.89
					c-4.76,0.56-8.89,2.63-11.8,4.8c0,0,0.84,3.27,1.17,4.34C306.13,207.35,307.72,208.66,309.04,209.38z"/>
				<path class="st3" d="M321.37,192.36c-0.01,0-0.02,0-0.04,0c-0.98-0.05-1.51,0.71-1.66,1.68c-0.2,1.24-0.31,2.69-0.3,4.19
					c-0.05-0.03-7.32,2.32-7.07,6.9c0,0.01,0,0.01,0.01,0.02l1.69,10.67l5.57-1.67l-1.87-6.29c1.71-0.58,2.96-2.49,3.8-4.39
					c0.51-0.87,0.91-1.77,0.97-2.49c0.11-1.42,0.11-3.31,0.5-6.21C323.25,192.72,322.35,192.41,321.37,192.36z"/>
			</g>
			<g>
				<path class="st3" d="M419.89,192.41l-0.02,0.05l-2.01,7.38c-0.15,0.44-0.48,0.76-0.87,0.95c-0.39,0.18-0.84,0.21-1.28,0.05
					l-0.03-0.01c-0.88-0.32-1.54-0.12-1.22-1c1.02-2.3,1.9-5.95,2.24-8.6c0.02-0.06,0.05-0.11,0.07-0.17
					c0.37-0.76,1.27-1.13,2.08-0.83l0.03,0.01C419.76,190.56,420.21,191.53,419.89,192.41z"/>
				<path class="st3" d="M416.39,188.1l0.04,0.04l3.04,2.5c0.34,0.32,0.51,0.74,0.52,1.18c0.01,0.43-0.14,0.86-0.46,1.2l-0.02,0.03
					c-0.64,0.68-1.7,0.71-2.38,0.07l-3.08-2.53c-0.05-0.04-0.09-0.09-0.13-0.14c-0.55-0.64-0.54-1.61,0.06-2.24l0.02-0.03
					C414.65,187.49,415.71,187.46,416.39,188.1z"/>
				<path class="st3" d="M416.18,190.48l-0.04,0.04l-2.47,2.74c-0.31,0.31-0.72,0.45-1.13,0.44c-0.4-0.01-0.8-0.17-1.1-0.48
					l-0.02-0.02c-0.61-0.63-0.59-1.63,0.04-2.23l2.51-2.77c0.04-0.04,0.09-0.08,0.13-0.11c0.62-0.49,1.53-0.43,2.1,0.16l0.02,0.02
					C416.82,188.87,416.8,189.87,416.18,190.48z"/>
				<path class="st3" d="M425.91,183.18c0.85,0.37,1.25,1.36,0.88,2.21l-5.39,12.56c-0.37,0.85-1.35,1.25-2.21,0.88l-0.03-0.01
					c-0.85-0.37-1.25-1.35-0.88-2.21l5.39-12.56c0.37-0.85,1.35-1.25,2.21-0.88L425.91,183.18z"/>
				<path class="st3" d="M422.18,200.12l-0.03-0.01c-0.84-0.4-1.2-1.4-0.8-2.24l5.29-11.19c0.4-0.84,1.4-1.2,2.24-0.8l0.03,0.01
					c0.84,0.4,1.2,1.4,0.8,2.24l-5.29,11.19C424.02,200.16,423.02,200.51,422.18,200.12z"/>
				<path class="st3" d="M424.93,201.28l-0.03-0.02c-0.71-0.41-0.95-1.33-0.54-2.04l4.51-7.75c0.41-0.71,1.33-0.95,2.04-0.54
					l0.03,0.02c0.71,0.41,0.95,1.33,0.54,2.04l-4.51,7.75C426.56,201.45,425.64,201.69,424.93,201.28z"/>
				<path class="st4" d="M422.65,209.38l-2,6.89l-8.07-2l2.04-5.92c-1.55-0.86-0.5-9.16-0.5-9.16c1.22-1.34,1.74-3.13,2.01-4.89
					c4.76,0.56,8.89,2.63,11.8,4.8c0,0-0.84,3.27-1.17,4.34C425.57,207.35,423.98,208.66,422.65,209.38z"/>
				<path class="st3" d="M410.32,192.36c0.01,0,0.02,0,0.04,0c0.98-0.05,1.51,0.71,1.66,1.68c0.2,1.24,0.31,2.69,0.3,4.19
					c0.05-0.03,7.32,2.32,7.07,6.9c0,0.01,0,0.01-0.01,0.02l-1.69,10.67l-5.57-1.67l1.87-6.29c-1.71-0.58-2.96-2.49-3.8-4.39
					c-0.51-0.87-0.91-1.77-0.97-2.49c-0.11-1.42-0.11-3.31-0.5-6.21C408.44,192.72,409.35,192.41,410.32,192.36z"/>
			</g>
			<path class="st5" d="M397.44,262.89c-0.07,0.06-0.15,0.11-0.22,0.15c-0.01,0.01-0.03,0.04-0.06,0.04
				c-4.23,3.14-5.75,7.48-5.72,12.78c0.07,11.34,2.51,17.85-0.47,32.52h-50.55c-1.08-9.91,1.44-21.01-0.71-30.56
				c-1.15-5.16-0.9-11.6-5.14-14.74c-0.03,0-0.04-0.03-0.07-0.04c-0.07-0.06-0.14-0.1-0.21-0.15c0.47-0.94,0.94-1.92,1.42-2.9
				c0.07-0.14,0.14-0.28,0.21-0.42c2.28-4.72,4.55-9.63,6.84-14.24c2.9,1.57,5.94,2.1,9.2,1.86c1.65-0.1,3.36-0.4,5.12-0.85
				c0.1-0.03,0.21-0.06,0.31-0.08c0.07-0.01,0.14-0.04,0.21-0.06c2.71,1.05,5.47,1.61,8.26,1.92c2.8-0.31,5.55-0.86,8.27-1.92
				c0.14,0.04,0.26,0.07,0.4,0.11c0.01,0,0.04,0,0.06,0.01c1.8,0.46,3.54,0.76,5.22,0.87c3.25,0.21,6.27-0.31,9.16-1.87
				c2.28,4.61,4.57,9.52,6.84,14.24c0.42,0.85,0.82,1.69,1.22,2.53C397.17,262.37,397.31,262.63,397.44,262.89z"/>
			<path class="st6" d="M356.96,239.44l0.06,2.71c-0.01,0.01,0,0.01,0,0.01l0.04,2.89v0.01l0.03,1.29l0.17,9.27l5.5-0.11l2.97-0.06
				h0.01l0.24-0.01l2.72-0.06l5.65-0.11l0.25-8.94l0.03-1.14l0.08-2.87v-0.01l0.07-2.37L356.96,239.44z"/>
			<g>
				<path class="st7" d="M365.73,208.15c7.97-0.03,14.33,5.21,13.74,14.66c-0.07,1.09-0.19,2.15-0.41,3.25
					c1.77-1,3.33,0.75,2.71,3.44c-0.44,1.89-1.36,4.44-2.41,4.82c-1.26,0.46-1.64-0.33-1.71-0.35c-0.56,2.73-0.79,5.17-1.76,6.62
					c-1.15,1.71-2.04,3-2.87,3.97c-1.87,2.2-3.43,2.75-7.01,2.77c-0.01,0-0.01,0-0.02,0c-0.01,0-0.01,0-0.02,0
					c-3.58,0.02-5.14-0.5-7.05-2.68c-0.84-0.96-1.74-2.24-2.92-3.94c-0.99-1.44-1.25-3.87-1.85-6.6c-0.07,0.03-0.45,0.81-1.71,0.37
					c-1.05-0.37-2.01-2.9-2.47-4.79c-0.66-2.68,0.87-4.45,2.66-3.47c-0.23-1.1-0.37-2.15-0.45-3.24
					C351.47,213.54,357.76,208.22,365.73,208.15z"/>
				<path class="st1" d="M377.22,210.89c3.06,3.57,4.03,7.54,2.83,14.88c-1.2,0.67-1.83,1.57-2.29,5.22
					c-0.87,0.25-1.25,0.3-2.04,0.57c4.76-19.46-2.77-19.8-4.84-20.2c-1.68-0.33-8.57-0.28-10.25,0.07
					c-2.06,0.43-9.59,0.87-4.59,20.26c-0.8-0.26-1.17-0.31-2.05-0.55c-0.5-3.64-1.15-4.53-2.36-5.19
					c-1.29-7.33,0.01-11.02,2.64-14.92C357.93,205.62,371.74,204.51,377.22,210.89z"/>
				<path class="st1" d="M360.98,208.18c-1.01,0.01-1.91,0.39-2.8,0.88c-1.23,0.67-4.37,5.22-3.71,6.29
					c2.66,4.34,10.89,5.58,16.7,5.74c-0.64-0.49-1.73-1.47-1.95-2.4c3.14,1.39,6.74,1.68,10.06,0.81c-1.04-2.84-2.15-5.79-4.36-7.86
					c-1.79-1.68-4.18-2.62-6.6-3.06C365.91,208.14,363.44,208.16,360.98,208.18z"/>
			</g>
			<polygon class="st8" points="368.06,261.57 364.03,261.57 362.74,255.43 368.71,255.27 			"/>
			<path class="st5" d="M342.76,245.34c-1.54,4.76-3.83,9.79-6.34,14.45c-0.07,0.13-0.12,0.25-0.19,0.36c-0.54,1-1.1,1.98-1.65,2.94
				c-0.03,0-0.04-0.03-0.07-0.04c-4.04-2.6-7.49-5.64-11.06-8.87c-0.42-0.37-0.85-0.76-1.25-1.17c-0.01,0-0.03-0.01-0.04-0.03
				c-1.92-1.82-3.68-3.8-4.98-6.08c-0.83-1.49-1.46-3.08-1.98-4.71c-0.29-0.85-0.54-1.71-0.79-2.55
				c-1.76-6.19-2.55-12.24-3.64-18.58c-0.22-1.22-0.57-2.91-0.53-4.51l1.5-0.43l0.25-0.07l1.97-0.56l5.08-1.44v-0.01l0.47-0.13
				l0.78-0.22c1.92,3.15,3,7.27,4.55,10.98c1.47,3.48,2.73,6.43,4.62,9.7C332.71,240.05,336.96,242.27,342.76,245.34z"/>
			<path class="st5" d="M421.49,216.55c0.04,1.6-0.31,3.29-0.51,4.51c-1.08,6.34-1.87,12.39-3.65,18.58
				c-0.24,0.85-0.5,1.71-0.78,2.55c-0.53,1.62-1.15,3.22-2,4.71c-1.58,2.79-3.87,5.12-6.26,7.27c-2.29,2.07-4.52,4.07-6.91,5.91
				c-1.26,0.99-2.57,1.93-3.94,2.8c-0.07,0.06-0.15,0.11-0.22,0.15c-0.01,0.01-0.03,0.04-0.06,0.04c-0.15-0.26-0.31-0.54-0.46-0.8
				c-0.47-0.82-0.94-1.65-1.4-2.5c-2.51-4.66-4.79-9.69-6.33-14.45c5.8-3.07,10.05-5.29,13.31-10.96c1.89-3.28,3.15-6.22,4.61-9.7
				c1.57-3.71,2.65-7.83,4.57-10.98l0.74,0.21l0.47,0.14l5.09,1.44l2,0.57v0.01l0.17,0.04l0.08,0.01l0.67,0.19L421.49,216.55z"/>
			
				<rect x="309.27" y="209.68" transform="matrix(0.9617 -0.2741 0.2741 0.9617 -46.1827 94.3243)" class="st9" width="10.44" height="5.54"/>
			
				<rect x="414.47" y="207.23" transform="matrix(0.2741 -0.9617 0.9617 0.2741 98.5762 555.4871)" class="st9" width="5.54" height="10.44"/>
			<path class="st5" d="M310.32,213.38c0.14,0.49,0.65,0.78,1.14,0.64c0.49-0.14,0.78-0.65,0.64-1.14
				c-0.14-0.49-0.65-0.77-1.14-0.64C310.46,212.38,310.18,212.89,310.32,213.38z"/>
			<path class="st5" d="M421.41,213.38c-0.14,0.49-0.65,0.78-1.14,0.64c-0.49-0.14-0.78-0.65-0.64-1.14
				c0.14-0.49,0.65-0.77,1.14-0.64C421.27,212.38,421.55,212.89,421.41,213.38z"/>
			<path class="st9" d="M357.28,260.73c-3.1-4.37-4.96-8.94-5.35-13.75l5.13-1.94c0.94,4.42,4.09,7.76,8.8,10.33L357.28,260.73z"/>
			<path class="st9" d="M374.44,260.73c3.33-4.54,5.5-9.11,5.35-13.75l-5.17-1.78c-0.01,4.54-3.14,7.84-8.76,10.17L374.44,260.73z"
				/>
			<polygon class="st10" points="368.06,261.57 364.03,261.57 360.99,293.48 367.1,298.89 372.23,293.56 			"/>
		</g>
		<path class="st11" d="M369.44,308.39h-29.02c-1.08-9.91,1.44-21.01-0.71-30.56c-1.15-5.16-0.9-11.6-5.14-14.74
			c-0.03,0-0.04-0.03-0.07-0.04c-4.04-2.6-7.49-5.64-11.06-8.87c-0.42-0.37-0.85-0.76-1.25-1.17c4.09,3.04,8.67,5.41,13.52,6.98
			c0.17,0.06,0.35,0.11,0.51,0.15c1.71,0.56,3.46,0.99,5.23,1.32c0.11,2.4,0.22,4.8,0.33,7.2c0.32,6.84,0.68,13.85,3.35,20.15
			c2.57,6.05,7.74,11.44,14.17,12.52c-4.75-0.67-9.49-1.33-14.24-1.98C351.49,305.25,361.14,305.59,369.44,308.39z"/>
		<path class="st11" d="M401.38,260.09c-1.26,0.99-2.57,1.93-3.94,2.8c-0.07,0.06-0.15,0.11-0.22,0.15
			c-0.01,0.01-0.03,0.04-0.06,0.04c-4.23,3.14-5.75,7.48-5.72,12.78c0.07,11.34,2.51,17.85-0.47,32.52h-9.37
			c3.35-2.54,6.47-5.44,7.88-9.34c1.26-3.48,0.99-7.29,0.71-10.98c-0.46-5.79-0.9-11.59-1.36-17.39c-1.64,0.39-3.28,0.78-4.93,1.17
			c3.73-3.83,8.06-7.06,12.8-9.56c0.11-0.07,0.22-0.12,0.33-0.18C398.45,261.35,399.89,260.69,401.38,260.09z"/>
	</g>
	<path class="st12" d="M357.34,328.47c-6.22,2.78-14.25,2.46-24.13,0.93c-4.13-0.64-8.58-1.49-13.35-2.41l-9.55-7.77
		c2.03-1.46,3.66-2.96,4.75-4.46c1.53-2.09,2.01-4.2,1.06-6.19c15.83,4.09,33.22,10.49,44.79,5.37
		C358.17,319.14,363.27,322.74,357.34,328.47z"/>
	<path class="st12" d="M367.07,316.79h47.34l19.11,12.9l-0.11,0.13c-1.08,1.23-2.64,1.93-4.27,1.93h-45.73
		c-0.2,0-0.39-0.07-0.55-0.19l-16.34-13.22C365.88,317.82,366.25,316.79,367.07,316.79z"/>
	<g>
		<path class="st13" d="M367.27,315.96c0.02-0.14,0.27-0.24,0.7-0.24l48.11-0.01c0.64,0,1.44,0.22,1.78,0.49l16.5,11.43l-0.15,1.56
			c-0.08,0.43-0.08,0.43-0.55,0.49l-48.11,0.01c-0.64,0-1.44-0.22-1.78-0.49l-16.34-12.99C367.3,316.12,367.26,316.03,367.27,315.96
			z"/>
		<g>
			<g>
				<polygon class="st13" points="367.59,313.9 367.27,315.96 370.89,317.75 369.29,314.42 				"/>
				<path class="st14" d="M416.4,313.65l-48.11,0.01c-0.43,0-0.68,0.1-0.7,0.24c-0.01,0.07,0.04,0.16,0.15,0.25l16.34,12.99
					c0.34,0.27,1.14,0.49,1.78,0.49l48.11-0.01c0.64,0,0.89-0.22,0.55-0.49l-16.34-12.99C417.84,313.87,417.04,313.65,416.4,313.65z
					"/>
				<polygon class="st15" points="419.67,327.19 420.71,327.19 420.2,326.79 419.16,326.79 				"/>
				<polygon class="st15" points="386.62,327.2 387.66,327.2 387.15,326.79 386.1,326.79 				"/>
				<polygon class="st16" points="423.45,327.19 424.49,327.19 423.98,326.79 422.94,326.79 				"/>
				<polygon class="st15" points="427.23,327.19 428.27,327.19 427.76,326.78 426.72,326.79 				"/>
				<polygon class="st16" points="431,327.19 432.05,327.19 431.54,326.78 430.49,326.78 				"/>
				<polygon class="st5" points="385.69,326.52 389.26,326.52 387.6,325.2 384.03,325.2 				"/>
				<polygon class="st5" points="394.08,326.51 397.65,326.51 395.99,325.19 392.42,325.19 				"/>
				<polygon class="st5" points="398.28,326.51 401.85,326.51 400.19,325.19 396.61,325.19 				"/>
				<polygon class="st5" points="402.47,326.51 406.04,326.51 404.38,325.19 400.81,325.19 				"/>
				<polygon class="st5" points="406.66,326.51 410.24,326.51 408.58,325.19 405,325.19 				"/>
				<polygon class="st5" points="410.86,326.51 414.43,326.51 412.77,325.19 409.2,325.19 				"/>
				<polygon class="st5" points="419.25,326.51 422.82,326.51 421.16,325.19 417.59,325.19 				"/>
				<polygon class="st5" points="423.44,326.51 427.01,326.51 425.35,325.19 421.78,325.19 				"/>
				<polygon class="st5" points="427.64,326.51 431.21,326.51 429.55,325.19 425.98,325.19 				"/>
				<polygon class="st5" points="383.7,324.94 387.27,324.93 385.61,323.62 382.04,323.62 				"/>
				<polygon class="st5" points="387.9,324.93 391.47,324.93 389.81,323.61 386.24,323.62 				"/>
				<polygon class="st5" points="392.09,324.93 395.66,324.93 394,323.61 390.43,323.61 				"/>
				<polygon class="st5" points="396.29,324.93 399.86,324.93 398.2,323.61 394.63,323.61 				"/>
				<polygon class="st5" points="400.48,324.93 404.05,324.93 402.39,323.61 398.82,323.61 				"/>
				<polygon class="st5" points="404.67,324.93 408.25,324.93 406.59,323.61 403.01,323.61 				"/>
				<polygon class="st5" points="417.26,324.93 420.83,324.93 419.17,323.61 415.6,323.61 				"/>
				<polygon class="st5" points="421.45,324.93 425.02,324.93 423.36,323.61 419.79,323.61 				"/>
				<polygon class="st5" points="381.71,323.35 385.28,323.35 383.62,322.04 380.05,322.04 				"/>
				<polygon class="st5" points="385.91,323.35 389.48,323.35 387.82,322.03 384.25,322.03 				"/>
				<polygon class="st5" points="390.1,323.35 393.67,323.35 392.01,322.03 388.44,322.03 				"/>
				<polygon class="st5" points="394.3,323.35 397.87,323.35 396.21,322.03 392.64,322.03 				"/>
				<polygon class="st5" points="398.49,323.35 402.06,323.35 400.4,322.03 396.83,322.03 				"/>
				<polygon class="st5" points="408.87,324.93 406.88,323.35 402.68,323.35 401.02,322.03 405.22,322.03 405.96,322.03 
					408.79,322.03 410.12,323.09 410.45,323.35 412.44,324.93 				"/>
				<polygon class="st5" points="415.27,323.35 418.84,323.35 417.18,322.03 413.61,322.03 				"/>
				<polygon class="st5" points="419.46,323.35 423.03,323.35 421.37,322.03 417.8,322.03 				"/>
				<polygon class="st5" points="425.65,324.93 424.37,323.91 423.99,323.61 422,322.03 425.57,322.03 427.56,323.61 427.94,323.91 
					429.22,324.93 				"/>
				<polygon class="st5" points="386.1,321.77 383.92,321.77 379.72,321.77 378.06,320.46 382.26,320.45 384.44,320.45 
					385.83,320.45 387.49,321.77 				"/>
				<polygon class="st5" points="388.11,321.77 391.68,321.77 390.02,320.45 386.45,320.45 				"/>
				<polygon class="st5" points="392.31,321.77 395.88,321.77 394.22,320.45 390.65,320.45 				"/>
				<polygon class="st5" points="396.5,321.77 400.07,321.77 398.41,320.45 394.84,320.45 				"/>
				<polygon class="st5" points="400.7,321.77 404.27,321.77 402.61,320.45 399.03,320.45 				"/>
				<polygon class="st5" points="404.89,321.77 408.46,321.77 406.8,320.45 403.23,320.45 				"/>
				<polygon class="st5" points="413.28,321.77 416.85,321.77 415.19,320.45 411.62,320.45 				"/>
				<polygon class="st5" points="417.47,321.77 421.05,321.77 419.38,320.45 415.81,320.45 				"/>
				<polygon class="st5" points="377.73,320.19 381.31,320.19 379.64,318.87 376.07,318.87 				"/>
				<polygon class="st5" points="381.93,320.19 385.5,320.19 383.84,318.87 380.27,318.87 				"/>
				<polygon class="st5" points="401.14,320.19 398.71,320.19 398.4,320.19 396.65,320.19 394.38,320.19 392.75,320.19 
					386.12,320.19 384.46,318.87 391.09,318.87 392.72,318.87 394.99,318.87 396.73,318.87 397.05,318.87 399.48,318.87 
					400.62,318.87 402.28,320.19 				"/>
				<polygon class="st5" points="402.9,320.19 406.47,320.19 404.81,318.87 401.24,318.87 				"/>
				<polygon class="st5" points="411.29,320.19 414.86,320.19 413.2,318.87 409.63,318.87 				"/>
				<polygon class="st5" points="415.48,320.19 419.06,320.18 417.39,318.87 413.82,318.87 				"/>
				<polygon class="st5" points="421.67,321.77 419.68,320.18 419.22,319.82 418.02,318.87 421.59,318.86 422.79,319.82 
					423.25,320.18 425.24,321.76 				"/>
			</g>
			<path class="st5" d="M398.56,314.42h-10.51c-0.5,0-0.69,0.17-0.42,0.38l3.44,2.74c0.26,0.21,0.88,0.38,1.37,0.38h10.51
				c0.5,0,0.69-0.17,0.42-0.38l-3.44-2.74C399.68,314.58,399.06,314.42,398.56,314.42z"/>
		</g>
		<g>
			<path class="st13" d="M384.46,324.58l7.61-34.73c0.37-1.68,2.03-3.05,3.71-3.05h46.27c1.68,0,2.75,1.36,2.38,3.05l-7.61,34.73
				c-0.37,1.68-2.03,3.05-3.71,3.05h-46.27C385.15,327.63,384.09,326.26,384.46,324.58z"/>
			<g>
				<path class="st14" d="M388.47,327.63h46.27c1.68,0,3.35-1.36,3.71-3.05l7.61-34.73c0.37-1.68-0.7-3.05-2.38-3.05h-46.27
					c-1.68,0-3.35,1.36-3.71,3.05l-7.61,34.73C385.72,326.26,386.79,327.63,388.47,327.63z"/>
				<path class="st5" d="M414.08,307.22c-0.38,1.72,0.71,3.12,2.44,3.12c1.72,0,3.43-1.4,3.8-3.12c0.38-1.72-0.71-3.12-2.44-3.12
					C416.16,304.09,414.46,305.49,414.08,307.22z"/>
			</g>
		</g>
	</g>
	<path class="st9" d="M359.18,324.94c-11.75,5.26-29.99-0.55-54.91-4.72c9.45-4.5,16.08-10.19,13.68-15.18
		c15.83,4.09,33.22,10.49,44.8,5.37C360,315.62,365.1,319.22,359.18,324.94z"/>
	<g>
		<path class="st17" d="M323.88,328.46c0.2-0.04,0.37-0.18,0.45-0.38l2.56-6.34l21.78-6.25c0.33-0.1,0.53-0.44,0.43-0.78
			c-0.1-0.33-0.45-0.53-0.78-0.43l-22.37,6.42l-2.79,6.9c-0.13,0.32,0.03,0.69,0.35,0.82C323.64,328.48,323.76,328.49,323.88,328.46
			z"/>
		<path class="st18" d="M350.21,322.63c-0.2,0.04-0.41-0.01-0.56-0.15l-4.99-4.67l-22.38,3.52c-0.34,0.05-0.66-0.18-0.72-0.52
			c-0.05-0.34,0.18-0.67,0.52-0.72l22.99-3.62l5.44,5.08c0.25,0.24,0.27,0.63,0.03,0.89C350.44,322.55,350.33,322.61,350.21,322.63z
			"/>
		<g>
			
				<rect x="347.95" y="313.78" transform="matrix(0.9764 -0.2162 0.2162 0.9764 -59.8027 82.8384)" class="st19" width="1.73" height="2.08"/>
			<path class="st20" d="M346.18,312.63l-8.98,1.99c-0.66,0.15-1.08,0.8-0.93,1.47l0.08,0.36c-0.89-0.1-1.78,0.1-2.55,0.56
				l-0.08-0.36c-0.15-0.66-0.8-1.08-1.47-0.93l-8.98,1.99c-0.66,0.15-1.08,0.8-0.93,1.47l0.1,0.43l-1.69,0.37l0.45,2.03l1.69-0.37
				l0.13,0.59c0.57,2.59,3.14,4.23,5.73,3.65l2-0.44c2.59-0.57,4.23-3.14,3.65-5.73l-0.34-1.54c0.73-0.55,1.65-0.76,2.55-0.56
				l0.34,1.54c0.57,2.59,3.14,4.23,5.73,3.65l2-0.44c2.59-0.57,4.23-3.14,3.65-5.73l-0.67-3.05
				C347.5,312.9,346.84,312.48,346.18,312.63z M333.04,319.99c0.41,1.85-0.76,3.67-2.6,4.08l-2,0.44c-1.85,0.41-3.67-0.76-4.08-2.6
				l-0.47-2.11c-0.1-0.44,0.18-0.87,0.61-0.96l7.11-1.57c0.44-0.1,0.87,0.18,0.96,0.61L333.04,319.99z M346.97,316.91
				c0.41,1.85-0.76,3.67-2.6,4.08l-2,0.44c-1.85,0.41-3.67-0.76-4.08-2.6l-0.47-2.11c-0.1-0.44,0.18-0.87,0.61-0.96l7.11-1.57
				c0.44-0.1,0.87,0.18,0.96,0.61L346.97,316.91z"/>
		</g>
	</g>
</g>
<g>
	<g>
		<polygon class="st0" points="121.39,316.43 84.84,346.15 84.79,337.68 121.39,308.16 		"/>
		<polygon class="st1" points="84.79,337.68 84.83,346.15 -0.25,346.15 -0.25,308.16 121.39,308.16 		"/>
		<rect x="-0.25" y="337.68" class="st2" width="85.04" height="8.47"/>
	</g>
	<path class="st12" d="M117.14,308.16c-10.65,3.19-16.03,3.35-24.06,6.26c-4.59-3-9.71-3.7-12.69-6.26H117.14z"/>
	<path class="st12" d="M44.25,321.23c0.52-3.32-0.73-6-3.22-8.22c-7.35-0.82-16.27-2.97-26.8-4.73c0.08-0.04,0.17-0.08,0.25-0.12
		h50.47c0.39,0.07,0.77,0.16,1.15,0.25c6.15,1.93,10.37,4.46,13.53,7.33C68.42,315.6,56.52,317.79,44.25,321.23z"/>
	<g>
		<path class="st6" d="M60.26,213.11c-0.01,0.04-0.02,0.08-0.04,0.12c-0.28,0.96-0.91,1.81-1.67,2.47c-0.79,0.69-1.72,1.2-2.66,1.67
			c-1.37,0.69-2.82,1.29-4.35,1.39c-0.57,0.04-1.15,0-1.72-0.13c0.12-0.2,0.24-0.4,0.36-0.6c0.7-1.16,1.43-2.38,2.47-3.23
			c0.51-0.28,1.02-0.58,1.52-0.89c1.1-0.66,2.17-1.38,3.2-2.15c0.35-0.25,0.7-0.52,1.1-0.68c0.41-0.15,0.89-0.18,1.26,0.04
			C60.36,211.49,60.45,212.4,60.26,213.11z"/>
		<path class="st1" d="M59.1,209.53c0.08,1.05,0.17,2.13,0.53,3.12c0.36,0.99,1.05,1.92,2.03,2.33c0.98,0.41,5.72-0.41,6.31-1.29
			C65.27,213.48,60.97,212.73,59.1,209.53z"/>
		<path class="st5" d="M124.68,254.59c-0.62,1.62-1.83,3.14-3.03,4.45c-0.04,0.04-0.08,0.09-0.12,0.13
			c-6.51,7.05-15.22,12.92-21.17,22.96h-0.01c-1.19-0.55-2.36-1.32-3.5-2.26c-5.2-4.26-9.72-11.92-12.07-17.4
			c-0.05-0.11-0.1-0.22-0.14-0.34c-0.39-0.96-0.69-2-0.48-3.01c0.19-0.9,0.68-1.79,1.36-2.46c0.49-0.49,1.09-0.86,1.75-1.04
			c5.97-1.56,11.19-5.52,16.68-7.56c5.49-2.04,10.27-3.75,15.77-1.76c2.32,0.84,4.66,2.38,5.28,4.77
			C125.29,252.27,125.13,253.45,124.68,254.59z"/>
		<path class="st5" d="M56.52,260.01c-0.04,0.84-0.35,1.68-0.68,2.47c-0.13,0.3-0.27,0.61-0.42,0.91c-2,4.26-5.04,8.01-8.76,10.9
			c-1.77,1.37-3.69,2.55-5.73,3.48c-0.57-0.38-1.13-0.76-1.69-1.14c-7.35-5.05-14.12-10.91-20.17-17.46
			c-1.24-1.35-2.5-2.91-3.15-4.58c-0.01-0.01-0.01-0.02-0.01-0.03c-0.43-1.12-0.59-2.29-0.28-3.47c0.61-2.39,2.95-3.93,5.27-4.77
			c5.51-1.99,10.28-0.28,15.77,1.76c5.36,1.99,10.48,5.83,16.29,7.46c0.13,0.04,0.26,0.07,0.39,0.1c1.55,0.41,2.77,1.93,3.1,3.5
			C56.52,259.42,56.53,259.71,56.52,260.01z"/>
		<path class="st5" d="M100.35,282.13c0,0.85-0.05,1.7-0.16,2.55c-0.05,0.43-0.11,0.88-0.16,1.33c-0.12,0.99-0.24,2.04-0.35,3.14
			c-0.56,5.83-0.99,12.91-1.17,19.03H42.94c-0.42-8.96-1.64-21.1-1.87-26.94c-0.12-3.04,0.55-2.36-1.32-3.98
			c-0.15-0.12-0.3-0.26-0.49-0.42c-0.01-0.07-0.01-0.15-0.02-0.22c-0.11-1.42,0.12-2.86,0.6-4.21c0.44-1.22,1.07-2.38,1.84-3.41
			c1.69-2.25,3.98-3.96,6.42-5.36c2.06-1.18,4.21-2.15,6.43-2.95c0.53-0.2,1.06-0.38,1.6-0.56c0.13-0.04,0.25-0.08,0.38-0.12
			c1.52-0.49,3.06-0.9,4.61-1.27c0.09-0.02,0.18-0.05,0.27-0.07c0.45-0.11,0.9-0.21,1.35-0.3c2.54-0.55,5.11-0.99,7.66-1.39
			c2.96-0.46,5.94-0.87,8.93-0.89c0.21-0.01,0.42-0.01,0.64,0c0.03-0.01,0.07-0.01,0.1,0c0.5,0.01,0.99,0.02,1.49,0.05
			c1.34,0.09,2.66,0.27,3.96,0.53c0.41,0.08,0.81,0.17,1.22,0.27c0.39,0.08,0.78,0.18,1.16,0.28c1.38,0.36,2.73,0.78,4.09,1.24
			c2.06,0.71,4.1,1.52,6.13,2.31c-0.07,0.61-0.11,1.22-0.13,1.83c-0.12,4.98,1.36,9.97,2.04,14.95
			C100.24,279.07,100.37,280.6,100.35,282.13z"/>
		<path class="st6" d="M59.45,252.85c2.09,7.12,2.79,11.97,7.65,13.57c1.05,1.58,2.13,5.22,2.69,6.36c0.6-1.38,1.11-4.95,2.3-6.75
			c6.97-1.67,6.32-6.47,9.2-13.25l-0.84-8.54l-19.91,0.56L59.45,252.85z"/>
		<path class="st9" d="M87.26,255.63l-7.05,17.46l-3.37-2.93l-1.43-1.24l-3.31-2.88c5.48-2.15,6.77-7.46,9.2-13.25L87.26,255.63z"/>
		<path class="st9" d="M67.1,266.43l-2.7,2.01l-1.49,1.11l-4.38,3.24l-5.67-17.22l6.6-2.71C61.39,258.04,62.1,263.59,67.1,266.43z"
			/>
		<g>
			<g>
				<path class="st7" d="M70.09,216.17c-9.07,0.02-16.26,6.03-15.52,16.78c0.09,1.24,0.23,2.44,0.49,3.69
					c-2.03-1.13-3.78,0.88-3.05,3.93c0.51,2.15,1.58,5.04,2.78,5.47c1.43,0.51,1.86-0.38,1.95-0.41c0.66,3.1,0.93,5.87,2.05,7.51
					c1.32,1.94,2.34,3.4,3.29,4.5c2.15,2.49,3.92,3.1,7.99,3.1c0.01,0,0.02,0,0.02,0c0.01,0,0.02,0,0.02,0
					c4.07,0,5.85-0.61,7.99-3.1c0.95-1.1,1.97-2.56,3.29-4.5c1.12-1.64,1.39-4.41,2.05-7.51c0.08,0.03,0.51,0.92,1.95,0.41
					c1.2-0.43,2.26-3.31,2.78-5.47c0.73-3.05-1.03-5.06-3.05-3.93c0.25-1.25,0.4-2.44,0.49-3.69
					C86.35,222.2,79.16,216.19,70.09,216.17z"/>
				<path class="st1" d="M57.05,219.37c-3.46,4.08-4.52,8.6-3.11,16.95c1.37,0.76,2.09,1.77,2.64,5.92
					c0.99,0.27,1.42,0.33,2.32,0.64c-5.56-22.09,3.01-22.53,5.36-23.01c1.91-0.38,9.74-0.38,11.65,0
					c2.35,0.47,10.92,0.92,5.36,23.01c0.9-0.3,1.33-0.36,2.32-0.64c0.55-4.15,1.27-5.16,2.64-5.92c1.41-8.34-0.1-12.53-3.11-16.95
					C78.95,213.24,63.23,212.08,57.05,219.37z"/>
			</g>
			<path class="st1" d="M73.09,211.89c-0.26,1.02-0.63,1.49-0.82,1.73c1.5-0.38,4.52-2.6,5.65-2.66
				c-2.81,7.77-10.41,16.07-17.42,17.46c0.74-0.88,1.48-1.77,2.22-2.65c-3.67,1.08-7.34,2.17-11.01,3.25
				c1.25-2.52,2.49-5.05,3.74-7.57c-1.32,0.48-2.64,0.96-3.96,1.44c3.51-6.27,10.11-9.96,16.48-9.2c-0.34-0.31-0.96-1.08-1.41-1.49
				c1.55,0.15,2.05,0.03,3.68,1.08C71.05,212.55,72.12,212.26,73.09,211.89z"/>
			<path class="st1" d="M71.7,222.85c2.14,1.71,4.62,2.83,7.18,3.25c-0.51-0.7-1.02-1.4-1.53-2.1c3.19,0.53,6.37,1.06,9.56,1.59
				c-0.54-2.75-1.75-5.32-3.45-7.33c0.72,0.02,1.44,0.05,2.16,0.07c-3.64-3.96-9.83-5.06-14.14-2.17c-1.01,0.68-1.71,2.03-1.74,3.39
				C69.72,220.96,70.72,222.07,71.7,222.85z"/>
		</g>
		<path class="st7" d="M69.12,216.46c-0.23,0.72-1.16,0.87-1.92,0.92c-2.23,0.15-4.45,0.56-6.59,1.24c-1.28,0.4-2.61,0.95-3.35,2.07
			c-0.35,0.52-0.54,1.12-0.71,1.72c-0.5,1.77-0.85,3.6-1.56,5.29c-0.7,1.7-1.83,3.31-3.46,4.16c-1.63,0.85-3.84,0.75-5.12-0.57
			c-1.07-1.1-1.31-2.81-0.99-4.31c0.32-1.5,1.12-2.86,1.9-4.17c0.83-1.39,1.67-2.8,2.49-4.19c0.12-0.2,0.24-0.4,0.36-0.6
			c0.7-1.16,1.43-2.38,2.47-3.23c0.16-0.14,0.34-0.27,0.52-0.38c0.32-0.2,0.65-0.37,0.99-0.5c1.21-0.47,2.57-0.56,3.88-0.56
			c0.73,0,1.45-0.06,2.18-0.12c2.42-0.2,4.83-0.42,7.11,1.37c0.38,0.3,0.95,0.27,1.32,0.58C69.02,215.49,69.27,216,69.12,216.46z"/>
		<path class="st5" d="M45.92,237.39c-3.77,4.52-6.71,8.02-9.24,10.68c-7.05,7.4-10.94,8.35-20.61,6.63
			c-0.02-0.01-0.04-0.01-0.06-0.01c-0.03-0.04-0.05-0.07-0.08-0.1c-0.02-0.03-0.05-0.05-0.07-0.08c-1.87-2.45-2.12-5.9-1.08-8.8
			c1.07-2.98,3.33-5.41,5.92-7.23c2.6-1.81,5.52-3.07,8.43-4.32c3.89-1.66,7.76-3.32,11.64-4.98c0.45-0.19,0.9-0.39,1.35-0.58
			C43.11,230.48,44.92,235.48,45.92,237.39z"/>
		<polygon class="st9" points="50.46,233.44 45.92,237.39 40.61,229.27 45.11,226.1 		"/>
		<path class="st6" d="M80.35,213.11c0.01,0.04,0.02,0.08,0.04,0.12c0.28,0.96,0.91,1.81,1.67,2.47c0.79,0.69,1.72,1.2,2.66,1.67
			c1.37,0.69,2.82,1.29,4.35,1.39c0.57,0.04,1.15,0,1.72-0.13c-0.12-0.2-0.24-0.4-0.36-0.6c-0.7-1.16-1.43-2.38-2.47-3.23
			c-0.51-0.28-1.02-0.58-1.52-0.89c-1.1-0.66-2.17-1.38-3.2-2.15c-0.35-0.25-0.7-0.52-1.1-0.68c-0.41-0.15-0.89-0.18-1.26,0.04
			C80.25,211.49,80.16,212.4,80.35,213.11z"/>
		<path class="st7" d="M71.49,216.46c0.23,0.72,1.16,0.87,1.92,0.92c2.23,0.15,4.45,0.56,6.59,1.24c1.28,0.4,2.61,0.95,3.35,2.07
			c0.35,0.52,0.54,1.12,0.71,1.72c0.5,1.77,0.85,3.6,1.56,5.29c0.7,1.7,1.83,3.31,3.46,4.16c1.63,0.85,3.84,0.75,5.12-0.57
			c1.07-1.1,1.31-2.81,0.99-4.31c-0.32-1.5-1.12-2.86-1.9-4.17c-0.83-1.39-1.67-2.8-2.49-4.19c-0.12-0.2-0.24-0.4-0.36-0.6
			c-0.7-1.16-1.43-2.38-2.47-3.23c-0.16-0.14-0.34-0.27-0.52-0.38c-0.32-0.2-0.65-0.37-0.99-0.5c-1.21-0.47-2.57-0.56-3.88-0.56
			c-0.73,0-1.45-0.06-2.18-0.12c-2.42-0.2-4.83-0.42-7.11,1.37c-0.38,0.3-0.95,0.27-1.32,0.58C71.59,215.49,71.34,216,71.49,216.46z
			"/>
		<path class="st5" d="M124.61,254.68c2-2.45,2.29-6.02,1.22-8.99c-1.07-2.98-3.33-5.41-5.92-7.22s-5.52-3.07-8.43-4.32
			c-4.33-1.86-8.66-3.71-12.99-5.57c-1,1.91-2.8,6.9-3.8,8.81C108.94,254.47,111.4,257.04,124.61,254.68z"/>
		<polygon class="st9" points="90.14,233.44 94.69,237.39 100,229.27 95.5,226.1 		"/>
		<path class="st21" d="M68.59,273.05c-0.13,0.01-0.26,0.01-0.39,0.01c-1.76,0-3.53-0.87-4.58-2.29c-0.29-0.39-0.52-0.81-0.72-1.23
			l1.49-1.11c0.19,0.45,0.41,0.89,0.69,1.26c0.76,1.04,2.09,1.65,3.38,1.55L68.59,273.05z"/>
		<path class="st21" d="M76.83,270.16c-0.32,0.69-0.7,1.44-1.29,2.07c-0.75,0.8-1.71,1.26-2.65,1.26c-0.13,0-0.27-0.01-0.41-0.03
			l0.26-1.8c0.56,0.08,1.12-0.29,1.46-0.66c0.49-0.52,0.81-1.24,1.13-1.94l0.06-0.14L76.83,270.16z"/>
		<g>
			<polygon class="st19" points="67.59,278.05 71.9,278.18 73.53,271.61 67.1,270.99 			"/>
		</g>
		<path class="st1" d="M61.72,219.46c2.22,1.25,5.25,0.86,7.07-0.92c-3.5-0.85-7-1.7-10.51-2.56
			C59.26,217.29,60.29,218.65,61.72,219.46z"/>
		<path class="st1" d="M73.2,218.07c1.92-0.73,3.96-1.17,6.02-1.3c-1,0.36-1.44,1.56-2.37,2.06c-0.58,0.31-1.28,0.31-1.91,0.13
			C74.31,218.78,73.75,218.43,73.2,218.07z"/>
		<path class="st11" d="M70.32,308.18H42.94c-0.42-8.96-1.64-21.1-1.87-26.94c-0.12-3.04,0.55-2.36-1.32-3.98
			c-0.15-0.12-0.3-0.26-0.49-0.42c-0.01-0.07-0.01-0.15-0.02-0.22c-7.35-5.05-14.12-10.91-20.17-17.46
			c-1.24-1.35-2.5-2.91-3.15-4.58c-0.02-0.03-0.05-0.05-0.07-0.08c0.02,0.02,0.04,0.04,0.05,0.05c0.05,0.05,0.1,0.1,0.15,0.15
			c6.37,6.23,13.47,11.7,21.13,16.25c0.86,0.51,1.74,1.01,2.65,1.46c2.18,1.09,4.49,1.9,6.82,1.87c0.6-0.01,1.2-0.07,1.8-0.19
			c-1.93,3.61-3.46,7.51-3.78,11.59c-0.33,4.08,0.64,8.37,3.23,11.54c2.59,3.17,6.88,2.43,10.91,4.09
			c-3.33-0.01-5.69,1.47-7.88,3.38c5.67-0.1,9.22,1.83,14.67,2.89C67.03,307.86,68.58,308.08,70.32,308.18z"/>
		<path class="st11" d="M121.65,259.04c-0.04,0.04-0.08,0.09-0.12,0.13c-6.51,7.05-15.22,12.92-21.17,22.96h-0.01
			c0,0.85-0.05,1.7-0.16,2.55c-0.05,0.43-0.11,0.88-0.16,1.33c-0.12,0.99-0.24,2.04-0.35,3.14c-0.56,5.83-0.99,12.91-1.17,19.03
			H83.31c1.44-0.53,2.87-1.07,4.31-1.61c3.09-1.15,6.42-2.49,8.12-5.32c1.45-2.4,1.41-5.37,1.33-8.17
			c-0.07-2.38-0.15-4.85-1.23-6.97c-1.07-2.12-3.44-3.78-5.76-3.26c2.44-0.59,4.68-1.64,6.77-2.98c1.1-0.7,2.16-1.49,3.18-2.33
			c2.7-2.19,5.18-4.77,7.57-7.28C111.74,265.89,116.21,261.37,121.65,259.04z"/>
		<path class="st22" d="M73.52,305.85l-7.21,0.87l2.28-28.54h3.31C73.78,288.21,75.59,298.21,73.52,305.85z"/>
		<path class="st23" d="M71.51,304.88l-5.77,2.03l-2.84-5.02c3.46-7.59,4.38-14.35,4.69-23.86l4.31,0.14
			C72.83,288.16,73.07,296.3,71.51,304.88z"/>
		<path class="st24" d="M54.53,287.97c-8.75,3.91-22.32-0.41-40.86-3.51c7.04-3.35,11.96-7.59,10.18-11.3
			c11.78,3.05,24.73,7.81,33.34,4C55.14,281.03,58.94,283.71,54.53,287.97z"/>
		<path class="st24" d="M92.18,300.22c10.15-3.66,16.05-2.96,33.69-9.49c-5.9-2.7-7.33-7.94-15.35-7.94
			c-9.94,6.72-14.82,8.27-32,10.18C81.26,296.39,87.05,296.87,92.18,300.22z"/>
		<path class="st24" d="M76.52,309.5c-11.21-0.14-23.11,2.06-35.38,5.5c0.75-4.84-2.24-8.3-7.33-10.99
			c11-2.04,21.64-3.68,29.17-1.83C69.14,304.11,73.36,306.64,76.52,309.5z"/>
	</g>
	<path class="st12" d="M53.98,323.19c-0.01-0.44-0.38-0.8-0.83-0.78l-1.92,0.05l-5.22-1.57l-32.37,0.83l0.13,5.04l32.37-0.83
		l5.14-1.84l1.92-0.05c0.44-0.01,0.8-0.38,0.78-0.83L53.98,323.19z"/>
	<path class="st12" d="M87.01,328.09l-5.43-12.97c-0.19-0.45-1.24-0.77-2.35-0.7l-15.2,0.91c-1.05,0.06-1.82,0.44-1.81,0.86
		l0.01,1.98c-0.01,0.06-0.02,0.12,0,0.18l3.71,13.19c0.16,0.55,1.29,0.94,2.53,0.85l16.75-1.11c1.08-0.07,1.83-0.48,1.83-0.95v-2.06
		C87.05,328.21,87.03,328.15,87.01,328.09z"/>
	<g>
		<path class="st5" d="M86.65,328.84c0-0.06-0.01-0.12-0.04-0.18l-5.43-12.97c-0.19-0.45-1.24-0.77-2.35-0.7l-15.2,0.91
			c-1.12,0.07-1.93,0.49-1.8,0.95l3.71,13.19c0.16,0.55,1.29,0.94,2.53,0.85l16.75-1.11C85.9,329.72,86.65,329.31,86.65,328.84z"/>
		<polygon class="st5" points="61.82,314.7 61.83,316.86 62.98,316.86 62.68,314.98 61.82,314.7 		"/>
		<g>
			<g>
				<polygon class="st5" points="86.65,328.84 86.65,326.78 84.75,326.78 84.98,328.84 				"/>
				<path class="st9" d="M86.65,326.78c0,0.47-0.75,0.88-1.83,0.95l-16.75,1.11c-1.24,0.08-2.37-0.3-2.53-0.85l-3.71-13.19
					c-0.01-0.03-0.01-0.06-0.01-0.1c0-0.42,0.77-0.8,1.81-0.86l15.2-0.91c1.11-0.07,2.16,0.25,2.35,0.7l5.43,12.97
					C86.64,326.66,86.65,326.72,86.65,326.78z"/>
				<path class="st10" d="M67.65,327.41c-0.33,0.02-0.64-0.08-0.68-0.23l-3.64-12.48c-0.04-0.13,0.18-0.24,0.49-0.26l15.27-0.92
					c0.3-0.02,0.59,0.07,0.64,0.19l5.02,12.3c0.06,0.15-0.16,0.28-0.49,0.3L67.65,327.41z"/>
				<path class="st19" d="M78.49,327.44c0.07,0.18-0.21,0.35-0.62,0.38l-3.06,0.2c-0.41,0.03-0.79-0.1-0.85-0.28l0,0
					c-0.06-0.18,0.22-0.35,0.63-0.38l3.04-0.2C78.04,327.13,78.43,327.25,78.49,327.44L78.49,327.44z"/>
			</g>
			<g>
				<g>
					<polygon class="st25" points="67.78,322.36 66.69,318.78 79.33,318 80.72,321.54 					"/>
					<path class="st25" d="M73.52,319.8l-5.16,1.84c-0.45,0.16-0.67,0.41-0.6,0.65l0.02,0.06l12.93-0.82l-0.02-0.06
						c-0.1-0.24-0.48-0.45-1.01-0.55L73.52,319.8z"/>
					<path class="st25" d="M73.72,320.36c-0.4,0.02-0.81,0.01-1.2-0.04l-4.49-0.63c-0.68-0.09-1.16-0.34-1.25-0.64l-0.08-0.27
						L79.33,318l0.1,0.26c0.12,0.3-0.17,0.59-0.75,0.76l-3.85,1.15C74.5,320.27,74.11,320.34,73.72,320.36z"/>
				</g>
				<g>
					<polygon class="st26" points="67.78,322.36 66.69,318.78 79.33,318 80.72,321.54 					"/>
					<path class="st9" d="M73.52,319.8l-5.16,1.84c-0.45,0.16-0.67,0.41-0.6,0.65l0.02,0.06l12.93-0.82l-0.02-0.06
						c-0.1-0.24-0.48-0.45-1.01-0.55L73.52,319.8z"/>
					<path class="st5" d="M73.72,320.36c-0.4,0.02-0.81,0.01-1.2-0.04l-4.49-0.63c-0.68-0.09-1.16-0.34-1.25-0.64l-0.08-0.27
						L79.33,318l0.1,0.26c0.12,0.3-0.17,0.59-0.75,0.76l-3.85,1.15C74.5,320.27,74.11,320.34,73.72,320.36z"/>
				</g>
			</g>
		</g>
	</g>
	<g>
		
			<rect x="12.48" y="319.97" transform="matrix(0.9997 -0.0255 0.0255 0.9997 -8.226 0.8374)" class="st25" width="32.38" height="5.04"/>
		<polygon class="st5" points="50.02,321.13 50.06,322.75 44.92,324.59 44.79,319.55 		"/>
		<path class="st21" d="M52.76,321.86l0,0.02c0.01,0.44-0.34,0.81-0.78,0.83l-1.92,0.05l-0.04-1.63l1.92-0.05
			C52.38,321.07,52.75,321.42,52.76,321.86z"/>
		
			<rect x="24.21" y="321.66" transform="matrix(0.9997 -0.0255 0.0255 0.9997 -8.2216 0.8549)" class="st5" width="10.32" height="1.63"/>
	</g>
</g>
<g>
	<path class="st27" d="M191.76,217.03c0-5.01-3.76-7.7-7.39-10.3c-0.24-0.17-0.47-0.34-0.71-0.51v-11.89
		c2.41,0.52,2.98,2.45,2.98,4.12v0.65h5.06v-0.3c0-5.87-4.07-7.62-8.04-7.95v-3.51h-3.2v3.52c-3.92,0.36-7.91,2.15-7.91,7.95
		c0,5.01,3.76,7.7,7.39,10.3c0.17,0.13,0.34,0.25,0.52,0.37v11.97c-2.46-0.52-3.04-2.42-3.04-4.06v-1.71h-5.06v1.36
		c0,5.84,4.1,7.61,8.1,7.95v2.71h3.2v-2.71C187.66,224.64,191.76,222.88,191.76,217.03z M177.99,198.44c0-1.54,0.5-3.29,2.47-3.96
		v9.13C179,202.17,177.99,200.55,177.99,198.44z M183.65,221.33v-9.31c1.56,1.49,2.66,3.15,2.66,5.36
		C186.31,218.93,185.78,220.7,183.65,221.33z"/>
	<path class="st27" d="M423.31,72.36c0-5.01-3.76-7.7-7.39-10.3c-0.24-0.17-0.47-0.34-0.71-0.51V49.66
		c2.41,0.52,2.98,2.45,2.98,4.12v0.65h5.06v-0.3c0-5.86-4.07-7.62-8.04-7.95v-3.51h-3.2v3.52c-3.92,0.36-7.91,2.15-7.91,7.95
		c0,5.01,3.76,7.7,7.39,10.3c0.17,0.13,0.34,0.25,0.52,0.37v11.97c-2.46-0.52-3.04-2.42-3.04-4.06V71h-5.06v1.36
		c0,5.84,4.1,7.61,8.1,7.95v2.71h3.2v-2.71C419.21,79.97,423.31,78.2,423.31,72.36z M409.54,53.77c0-1.54,0.5-3.29,2.47-3.96v9.13
		C410.55,57.5,409.54,55.88,409.54,53.77z M415.21,76.66v-9.31c1.56,1.49,2.66,3.16,2.66,5.36
		C417.87,74.26,417.33,76.03,415.21,76.66z"/>
	<path class="st27" d="M326.07,73.07c0-2.99-2.25-4.6-4.42-6.16c-0.14-0.1-0.28-0.2-0.42-0.31v-7.1c1.44,0.31,1.78,1.46,1.78,2.46
		v0.39h3.02v-0.18c0-3.5-2.43-4.55-4.8-4.75v-2.1h-1.91v2.1c-2.34,0.21-4.73,1.28-4.73,4.75c0,2.99,2.25,4.6,4.42,6.16
		c0.1,0.07,0.21,0.15,0.31,0.22v7.15c-1.47-0.31-1.82-1.44-1.82-2.42v-1.02h-3.02v0.81c0,3.49,2.45,4.55,4.84,4.75v1.62h1.91v-1.62
		C323.62,77.62,326.07,76.56,326.07,73.07z M317.84,61.97c0-0.92,0.3-1.97,1.47-2.37v5.45C318.45,64.19,317.84,63.23,317.84,61.97z
		 M321.23,75.64v-5.56c0.93,0.89,1.59,1.88,1.59,3.2C322.82,74.21,322.5,75.26,321.23,75.64z"/>
	<path class="st27" d="M344.27,222.38c0-3.75-2.82-5.77-5.54-7.72c-0.18-0.13-0.35-0.26-0.53-0.38v-8.91
		c1.81,0.39,2.23,1.83,2.23,3.08v0.49h3.79v-0.23c0-4.39-3.05-5.71-6.02-5.96v-2.63h-2.4v2.63c-2.94,0.27-5.93,1.61-5.93,5.95
		c0,3.75,2.82,5.77,5.54,7.72c0.13,0.09,0.26,0.19,0.39,0.28v8.97c-1.84-0.39-2.28-1.81-2.28-3.04v-1.28h-3.79v1.02
		c0,4.38,3.07,5.7,6.07,5.95v2.03h2.4v-2.03C341.2,228.09,344.27,226.76,344.27,222.38z M333.96,208.46c0-1.15,0.37-2.47,1.85-2.97
		v6.84C334.72,211.25,333.96,210.04,333.96,208.46z M338.2,225.61v-6.97c1.17,1.11,1.99,2.36,1.99,4.01
		C340.2,223.81,339.8,225.13,338.2,225.61z"/>
	<path class="st27" d="M98.33,72.94c0-3.21-2.41-4.93-4.73-6.6c-0.15-0.11-0.3-0.22-0.45-0.33V58.4c1.55,0.33,1.91,1.57,1.91,2.64
		v0.42h3.24v-0.19c0-3.76-2.61-4.88-5.15-5.09v-2.25h-2.05v2.25c-2.51,0.23-5.07,1.37-5.07,5.09c0,3.21,2.41,4.93,4.73,6.6
		c0.11,0.08,0.22,0.16,0.33,0.24v7.66c-1.58-0.33-1.95-1.55-1.95-2.6v-1.09h-3.24v0.87c0,3.74,2.62,4.87,5.19,5.09v1.74h2.05v-1.74
		C95.7,77.81,98.33,76.68,98.33,72.94z M89.51,61.04c0-0.98,0.32-2.11,1.58-2.54v5.85C90.16,63.42,89.51,62.39,89.51,61.04z
		 M93.14,75.69v-5.96c1,0.95,1.7,2.02,1.7,3.43C94.84,74.15,94.5,75.29,93.14,75.69z"/>
	<path class="st27" d="M155.3,258.77c1.45,0,2.84,0.59,4.01,1.7l0.21,0.2l0.24-0.17c0.71-0.48,1.4-0.94,2.09-1.39l0.5-0.33
		l-0.26-0.31c-1.83-2.19-4.25-3.39-6.79-3.39c-4.38,0-8.1,3.56-9.35,8.46h-2.96v2.67h2.54c-0.02,0.32-0.04,0.63-0.04,0.96
		c0,0.32,0.02,0.64,0.04,0.96h-2.54v2.67h2.96c1.25,4.9,4.97,8.46,9.35,8.46c2.14,0,4.17-0.84,5.89-2.44l0.29-0.27l-0.29-0.27
		c-0.77-0.71-1.46-1.31-2.12-1.84l-0.22-0.17l-0.23,0.16c-1.02,0.74-2.17,1.13-3.33,1.13c-2.65,0-4.94-1.95-6.02-4.77h8.25v-2.67
		h-8.87c-0.03-0.32-0.05-0.63-0.05-0.96c0-0.32,0.02-0.64,0.05-0.96h8.87v-2.67h-8.25C150.36,260.72,152.65,258.77,155.3,258.77z"/>
	<path class="st27" d="M139.72,71.06c1.66,0,3.24,0.67,4.58,1.93l0.25,0.23l0.28-0.19c0.81-0.55,1.6-1.08,2.38-1.59l0.57-0.37
		l-0.3-0.36c-2.09-2.49-4.85-3.87-7.75-3.87c-5,0-9.24,4.06-10.67,9.65h-3.37v3.05h2.9c-0.02,0.36-0.04,0.72-0.04,1.09
		c0,0.37,0.02,0.73,0.04,1.09h-2.9v3.05h3.37c1.43,5.59,5.67,9.65,10.67,9.65c2.44,0,4.76-0.96,6.72-2.79l0.33-0.31l-0.33-0.31
		c-0.87-0.81-1.66-1.5-2.42-2.1l-0.25-0.2l-0.26,0.19c-1.16,0.84-2.48,1.29-3.8,1.29c-3.02,0-5.64-2.23-6.87-5.44h9.41v-3.05h-10.12
		c-0.03-0.36-0.05-0.72-0.05-1.09c0-0.37,0.02-0.73,0.05-1.09h10.12V76.5h-9.41C134.08,73.28,136.69,71.06,139.72,71.06z"/>
	<path class="st27" d="M268.43,39.34c1.21,0,2.36,0.49,3.33,1.41l0.18,0.17l0.2-0.14c0.59-0.4,1.16-0.78,1.73-1.15l0.41-0.27
		l-0.22-0.26c-1.52-1.81-3.52-2.81-5.63-2.81c-3.63,0-6.71,2.95-7.75,7.02h-2.45v2.22h2.11c-0.02,0.26-0.03,0.53-0.03,0.79
		s0.02,0.53,0.03,0.79h-2.11v2.22h2.45c1.04,4.06,4.12,7.02,7.75,7.02c1.77,0,3.46-0.7,4.89-2.03l0.24-0.22l-0.24-0.22
		c-0.63-0.59-1.21-1.09-1.76-1.52l-0.18-0.14l-0.19,0.14c-0.85,0.61-1.8,0.94-2.76,0.94c-2.2,0-4.1-1.62-4.99-3.95h6.84V47.1h-7.36
		c-0.02-0.26-0.04-0.53-0.04-0.79s0.02-0.53,0.04-0.79h7.36V43.3h-6.84C264.34,40.96,266.24,39.34,268.43,39.34z"/>
	<path class="st27" d="M395.71,191.63c1.7,0,3.33,0.69,4.7,1.99l0.25,0.24l0.29-0.2c0.83-0.57,1.65-1.11,2.45-1.63l0.59-0.39
		l-0.31-0.37c-2.15-2.56-4.98-3.97-7.96-3.97c-5.13,0-9.49,4.18-10.96,9.92h-3.47v3.13h2.98c-0.02,0.37-0.05,0.74-0.05,1.12
		c0,0.38,0.02,0.75,0.05,1.12h-2.98v3.13h3.47c1.47,5.74,5.83,9.92,10.96,9.92c2.51,0,4.89-0.99,6.91-2.86l0.34-0.32l-0.34-0.31
		c-0.9-0.83-1.71-1.54-2.48-2.15l-0.26-0.2l-0.26,0.19c-1.19,0.87-2.54,1.33-3.9,1.33c-3.11,0-5.79-2.29-7.06-5.59h9.67v-3.13h-10.4
		c-0.03-0.37-0.05-0.74-0.05-1.12c0-0.38,0.02-0.75,0.05-1.12h10.4v-3.13h-9.67C389.92,193.92,392.6,191.63,395.71,191.63z"/>
	<g>
		<path class="st27" d="M216.74,173.21c-0.67-0.53-1.48-0.79-2.44-0.79s-1.77,0.26-2.45,0.78c-0.68,0.52-1.02,1.15-1.02,1.89v6.1
			c0,0.73,0.34,1.35,1.02,1.87c0.68,0.52,1.49,0.78,2.45,0.78c0.94,0,1.75-0.26,2.43-0.77c0.68-0.51,1.02-1.14,1.02-1.87v-6.1
			C217.75,174.37,217.41,173.74,216.74,173.21z M215.49,181.16c0,0.27-0.12,0.5-0.36,0.69c-0.24,0.19-0.54,0.28-0.89,0.28
			c-0.35,0-0.65-0.09-0.89-0.28c-0.24-0.19-0.36-0.42-0.36-0.69v-6.1c0-0.27,0.12-0.5,0.36-0.69c0.24-0.19,0.54-0.28,0.89-0.28
			c0.35,0,0.65,0.09,0.89,0.28c0.24,0.19,0.36,0.42,0.36,0.69V181.16z"/>
		<path class="st27" d="M204.44,172.1c0.68-0.52,1.03-1.15,1.03-1.87v-6.1c0-0.73-0.34-1.35-1.02-1.88
			c-0.68-0.53-1.49-0.79-2.45-0.79c-0.96,0-1.77,0.26-2.45,0.78c-0.68,0.52-1.02,1.15-1.02,1.89v6.1c0,0.73,0.34,1.35,1.02,1.87
			c0.68,0.52,1.49,0.78,2.45,0.78C202.94,172.88,203.75,172.62,204.44,172.1z M201.04,170.88c-0.24-0.19-0.36-0.42-0.36-0.69v-6.1
			c0-0.27,0.12-0.5,0.36-0.69c0.24-0.19,0.54-0.28,0.89-0.28c0.35,0,0.65,0.09,0.89,0.28c0.24,0.19,0.36,0.42,0.36,0.69v6.1
			c0,0.27-0.12,0.5-0.36,0.69c-0.24,0.19-0.54,0.28-0.89,0.28C201.58,171.16,201.28,171.06,201.04,170.88z"/>
		<polygon class="st27" points="213.99,161.5 199.85,184.09 202.31,184.09 216.42,161.5 		"/>
	</g>
	<g>
		<path class="st27" d="M196.43,51.89c-0.6-0.47-1.32-0.7-2.17-0.7c-0.85,0-1.58,0.23-2.18,0.7c-0.6,0.46-0.9,1.02-0.9,1.68v5.42
			c0,0.65,0.3,1.2,0.9,1.66c0.6,0.46,1.33,0.69,2.18,0.69c0.84,0,1.56-0.23,2.16-0.68c0.6-0.45,0.9-1.01,0.9-1.66v-5.42
			C197.33,52.92,197.03,52.36,196.43,51.89z M195.33,58.95c0,0.24-0.11,0.45-0.32,0.61c-0.22,0.17-0.48,0.25-0.79,0.25
			c-0.31,0-0.58-0.08-0.79-0.25c-0.22-0.17-0.32-0.37-0.32-0.61v-5.42c0-0.24,0.11-0.45,0.32-0.61c0.22-0.17,0.48-0.25,0.79-0.25
			c0.31,0,0.58,0.08,0.79,0.25c0.22,0.17,0.32,0.37,0.32,0.61V58.95z"/>
		<path class="st27" d="M185.51,50.9c0.61-0.46,0.91-1.02,0.91-1.66v-5.42c0-0.65-0.3-1.2-0.9-1.67c-0.6-0.47-1.33-0.7-2.18-0.7
			c-0.85,0-1.58,0.23-2.18,0.7c-0.6,0.46-0.9,1.02-0.9,1.68v5.42c0,0.65,0.3,1.2,0.9,1.66c0.6,0.46,1.33,0.7,2.18,0.7
			C184.18,51.6,184.9,51.37,185.51,50.9z M182.49,49.82c-0.22-0.17-0.32-0.37-0.32-0.61v-5.42c0-0.24,0.11-0.45,0.32-0.61
			c0.22-0.17,0.48-0.25,0.79-0.25c0.31,0,0.58,0.08,0.79,0.25c0.22,0.17,0.32,0.37,0.32,0.61v5.42c0,0.24-0.11,0.45-0.32,0.61
			c-0.22,0.17-0.48,0.25-0.79,0.25C182.97,50.07,182.71,49.99,182.49,49.82z"/>
		<polygon class="st27" points="193.99,41.49 181.44,61.56 183.62,61.56 196.15,41.49 		"/>
	</g>
	<g>
		<path class="st27" d="M440.94,234.55c-0.51-0.4-1.14-0.61-1.87-0.61s-1.36,0.2-1.88,0.6c-0.52,0.4-0.78,0.88-0.78,1.45v4.67
			c0,0.56,0.26,1.03,0.78,1.43c0.52,0.4,1.14,0.59,1.88,0.59c0.72,0,1.34-0.2,1.86-0.59c0.52-0.39,0.78-0.87,0.78-1.44v-4.67
			C441.71,235.44,441.45,234.95,440.94,234.55z M439.98,240.64c0,0.21-0.09,0.39-0.28,0.53c-0.19,0.14-0.41,0.22-0.68,0.22
			c-0.27,0-0.5-0.07-0.69-0.22c-0.19-0.14-0.28-0.32-0.28-0.53v-4.67c0-0.21,0.09-0.39,0.28-0.53c0.19-0.14,0.41-0.22,0.69-0.22
			c0.27,0,0.5,0.07,0.68,0.22c0.19,0.14,0.28,0.32,0.28,0.53V240.64z"/>
		<path class="st27" d="M431.52,233.7c0.52-0.4,0.79-0.88,0.79-1.44v-4.67c0-0.56-0.26-1.04-0.78-1.44
			c-0.52-0.4-1.14-0.61-1.88-0.61c-0.73,0-1.36,0.2-1.88,0.6c-0.52,0.4-0.78,0.88-0.78,1.45v4.67c0,0.56,0.26,1.04,0.78,1.44
			c0.52,0.4,1.14,0.6,1.88,0.6C430.37,234.3,430.99,234.1,431.52,233.7z M428.91,232.76c-0.19-0.14-0.28-0.32-0.28-0.53v-4.67
			c0-0.21,0.09-0.39,0.28-0.53c0.19-0.14,0.41-0.22,0.69-0.22c0.27,0,0.5,0.07,0.68,0.22c0.19,0.14,0.28,0.32,0.28,0.53v4.67
			c0,0.21-0.09,0.38-0.28,0.53c-0.19,0.14-0.41,0.22-0.68,0.22C429.33,232.98,429.1,232.91,428.91,232.76z"/>
		<polygon class="st27" points="438.84,225.58 428.01,242.88 429.89,242.88 440.7,225.58 		"/>
	</g>
	<g>
		<path class="st27" d="M372.45,181.34c-0.51-0.4-1.14-0.61-1.87-0.61c-0.73,0-1.36,0.2-1.88,0.6c-0.52,0.4-0.78,0.88-0.78,1.45
			v4.67c0,0.56,0.26,1.03,0.78,1.43c0.52,0.4,1.14,0.59,1.88,0.59c0.72,0,1.34-0.2,1.86-0.59c0.52-0.39,0.78-0.87,0.78-1.44v-4.67
			C373.22,182.23,372.97,181.75,372.45,181.34z M371.5,187.43c0,0.21-0.09,0.39-0.28,0.53c-0.19,0.14-0.41,0.22-0.68,0.22
			c-0.27,0-0.5-0.07-0.69-0.22c-0.19-0.14-0.28-0.32-0.28-0.53v-4.67c0-0.21,0.09-0.39,0.28-0.53c0.19-0.14,0.41-0.22,0.69-0.22
			c0.27,0,0.5,0.07,0.68,0.22c0.19,0.14,0.28,0.32,0.28,0.53V187.43z"/>
		<path class="st27" d="M363.03,180.49c0.52-0.4,0.79-0.88,0.79-1.44v-4.67c0-0.56-0.26-1.04-0.78-1.44
			c-0.52-0.4-1.14-0.61-1.88-0.61c-0.73,0-1.36,0.2-1.88,0.6c-0.52,0.4-0.78,0.88-0.78,1.45v4.67c0,0.56,0.26,1.04,0.78,1.44
			c0.52,0.4,1.14,0.6,1.88,0.6C361.88,181.09,362.51,180.89,363.03,180.49z M360.43,179.55c-0.19-0.14-0.28-0.32-0.28-0.53v-4.67
			c0-0.21,0.09-0.39,0.28-0.53c0.19-0.14,0.41-0.22,0.69-0.22c0.27,0,0.5,0.07,0.68,0.22c0.19,0.14,0.28,0.32,0.28,0.53v4.67
			c0,0.21-0.09,0.38-0.28,0.53c-0.19,0.14-0.41,0.22-0.68,0.22C360.84,179.77,360.61,179.7,360.43,179.55z"/>
		<polygon class="st27" points="370.35,172.37 359.52,189.67 361.4,189.67 372.21,172.37 		"/>
	</g>
	<g>
		<path class="st27" d="M325.91,287.14c-0.51-0.4-1.13-0.61-1.87-0.61s-1.36,0.2-1.88,0.6c-0.52,0.4-0.78,0.88-0.78,1.45v4.67
			c0,0.56,0.26,1.03,0.78,1.43c0.52,0.4,1.14,0.59,1.88,0.59c0.72,0,1.34-0.2,1.86-0.59c0.52-0.39,0.78-0.87,0.78-1.43v-4.67
			C326.68,288.03,326.42,287.55,325.91,287.14z M324.95,293.22c0,0.21-0.09,0.38-0.28,0.53c-0.19,0.14-0.41,0.22-0.68,0.22
			c-0.27,0-0.5-0.07-0.68-0.22c-0.19-0.14-0.28-0.32-0.28-0.53v-4.67c0-0.21,0.09-0.38,0.28-0.53c0.19-0.14,0.41-0.22,0.68-0.22
			c0.27,0,0.5,0.07,0.68,0.22c0.19,0.14,0.28,0.32,0.28,0.53V293.22z"/>
		<path class="st27" d="M316.5,286.29c0.52-0.4,0.79-0.88,0.79-1.43v-4.67c0-0.56-0.26-1.04-0.78-1.44
			c-0.52-0.4-1.14-0.61-1.88-0.61c-0.73,0-1.36,0.2-1.88,0.6c-0.52,0.4-0.78,0.88-0.78,1.45v4.67c0,0.56,0.26,1.03,0.78,1.43
			c0.52,0.4,1.14,0.6,1.88,0.6C315.35,286.89,315.97,286.69,316.5,286.29z M313.89,285.36c-0.19-0.14-0.28-0.32-0.28-0.53v-4.67
			c0-0.21,0.09-0.38,0.28-0.53c0.19-0.14,0.41-0.21,0.68-0.21c0.27,0,0.5,0.07,0.68,0.21c0.19,0.14,0.28,0.32,0.28,0.53v4.67
			c0,0.21-0.09,0.38-0.28,0.53c-0.19,0.14-0.41,0.21-0.68,0.21C314.31,285.57,314.08,285.5,313.89,285.36z"/>
		<polygon class="st27" points="323.81,278.18 312.99,295.47 314.87,295.47 325.66,278.18 		"/>
	</g>
	<g>
		<path class="st27" d="M292.73,182.72c-0.86-0.68-1.91-1.02-3.14-1.02c-1.23,0-2.28,0.34-3.15,1.01c-0.87,0.67-1.31,1.48-1.31,2.43
			v7.84c0,0.94,0.44,1.73,1.31,2.4c0.87,0.67,1.92,1,3.15,1c1.21,0,2.25-0.33,3.12-0.99c0.87-0.66,1.31-1.46,1.31-2.41v-7.84
			C294.02,184.2,293.59,183.4,292.73,182.72z M291.13,192.94c0,0.35-0.16,0.65-0.47,0.89c-0.31,0.24-0.7,0.36-1.15,0.36
			c-0.45,0-0.84-0.12-1.15-0.36c-0.31-0.24-0.47-0.54-0.47-0.89v-7.84c0-0.35,0.16-0.65,0.47-0.89c0.31-0.24,0.7-0.36,1.15-0.36
			c0.45,0,0.84,0.12,1.15,0.36c0.31,0.24,0.47,0.54,0.47,0.89V192.94z"/>
		<path class="st27" d="M276.91,181.28c0.88-0.67,1.32-1.48,1.32-2.41v-7.85c0-0.94-0.44-1.74-1.31-2.42
			c-0.87-0.68-1.92-1.02-3.15-1.02c-1.23,0-2.28,0.34-3.15,1.01c-0.87,0.67-1.31,1.48-1.31,2.43v7.85c0,0.93,0.44,1.74,1.31,2.41
			c0.87,0.67,1.92,1.01,3.15,1.01C274.98,182.29,276.03,181.95,276.91,181.28z M272.54,179.72c-0.31-0.24-0.47-0.54-0.47-0.89v-7.84
			c0-0.35,0.16-0.65,0.47-0.89c0.31-0.24,0.7-0.36,1.15-0.36c0.45,0,0.84,0.12,1.15,0.36c0.31,0.24,0.47,0.54,0.47,0.89v7.84
			c0,0.35-0.16,0.65-0.47,0.89c-0.31,0.24-0.7,0.36-1.15,0.36C273.23,180.08,272.85,179.96,272.54,179.72z"/>
		<polygon class="st27" points="289.2,167.65 271.02,196.71 274.17,196.71 292.32,167.65 		"/>
	</g>
	<path class="st27" d="M446.4,152.44L448,151l-0.79-1.91l-2.16,0.11l-1.15-1.15l0.11-2.16l-1.91-0.79l-1.45,1.6h-1.63l-1.45-1.6
		l-1.91,0.79l0.11,2.16l-1.15,1.15l-2.16-0.11l-0.79,1.91l1.6,1.45v1.63l-1.6,1.45l0.79,1.91l2.16-0.11l1.15,1.15l-0.11,2.16
		l1.91,0.79l1.45-1.6h1.63l1.45,1.6l1.91-0.79l-0.11-2.16l1.15-1.15l2.16,0.11l0.79-1.91l-1.6-1.45V152.44z M439.85,157.72
		c-2.47,0-4.46-2-4.46-4.46s2-4.46,4.46-4.46c2.47,0,4.46,2,4.46,4.46S442.31,157.72,439.85,157.72z"/>
	<path class="st27" d="M300.84,219.68l1.6-1.45l-0.79-1.91l-2.16,0.11l-1.15-1.15l0.11-2.16l-1.91-0.79l-1.45,1.6h-1.63l-1.45-1.6
		l-1.91,0.79l0.11,2.16l-1.15,1.15l-2.16-0.11l-0.79,1.91l1.6,1.45v1.63l-1.6,1.45l0.79,1.91l2.16-0.11l1.15,1.15l-0.11,2.16
		l1.91,0.79l1.45-1.6h1.63l1.45,1.6l1.91-0.79l-0.11-2.16l1.15-1.15l2.16,0.11l0.79-1.91l-1.6-1.45V219.68z M294.28,224.95
		c-2.47,0-4.46-2-4.46-4.46s2-4.46,4.46-4.46c2.47,0,4.46,2,4.46,4.46S296.75,224.95,294.28,224.95z"/>
	<path class="st27" d="M73.98,192.52l1.01-2.72l-2.13-1.78l-2.5,1.47l-2.09-0.65l-1.21-2.64l-2.76,0.25l-0.73,2.81l-1.94,1.01
		l-2.72-1.01l-1.78,2.13l1.47,2.5l-0.65,2.09l-2.64,1.21l0.25,2.76l2.81,0.73l1.01,1.94l-1.01,2.72l2.13,1.78l2.5-1.47l2.09,0.65
		l1.21,2.64l2.76-0.25l0.73-2.81l1.94-1.01l2.72,1.01l1.78-2.13l-1.47-2.5l0.65-2.09l2.64-1.21l-0.25-2.76L75,194.46L73.98,192.52z
		 M69.46,202.88c-2.93,1.53-6.56,0.4-8.09-2.54c-1.53-2.93-0.4-6.56,2.54-8.09c2.93-1.53,6.56-0.4,8.09,2.54
		C73.53,197.72,72.4,201.35,69.46,202.88z"/>
	<path class="st27" d="M339.3,177.8l1.01-2.72l-2.13-1.78l-2.5,1.47l-2.09-0.65l-1.21-2.64l-2.76,0.25l-0.73,2.81l-1.94,1.01
		l-2.72-1.01l-1.78,2.13l1.47,2.5l-0.65,2.09l-2.64,1.21l0.25,2.76l2.81,0.73l1.01,1.94l-1.01,2.72l2.13,1.78l2.5-1.47l2.09,0.65
		l1.21,2.64l2.76-0.25l0.73-2.81l1.94-1.01l2.72,1.01l1.78-2.13l-1.47-2.5l0.65-2.09l2.64-1.21l-0.25-2.76l-2.81-0.73L339.3,177.8z
		 M334.77,188.16c-2.93,1.53-6.56,0.4-8.09-2.54c-1.53-2.93-0.4-6.56,2.54-8.09c2.93-1.53,6.56-0.4,8.09,2.54
		C338.85,183.01,337.71,186.63,334.77,188.16z"/>
	<path class="st27" d="M39.96,202.62l-2.11-4.05l-4.73,0.66l-2.76-2.31l-0.18-4.77l-4.36-1.37l-2.87,3.81l-3.58,0.32l-3.5-3.25
		l-4.05,2.11l0.66,4.73l-2.31,2.76l-4.77,0.18l-1.37,4.36l3.81,2.87l0.32,3.58l-3.25,3.5l2.11,4.05l4.73-0.66l2.76,2.31l0.18,4.77
		l4.36,1.37l2.87-3.81l3.58-0.32l3.5,3.25l4.05-2.11l-0.66-4.73l2.31-2.76l4.77-0.18l1.37-4.36l-3.81-2.87l-0.32-3.58L39.96,202.62z
		 M27.28,218.46c-5.12,2.68-11.44,0.69-14.12-4.43c-2.68-5.12-0.69-11.44,4.43-14.12c5.12-2.68,11.44-0.69,14.12,4.43
		C34.39,209.47,32.41,215.79,27.28,218.46z"/>
	<path class="st27" d="M80.21,81.69l-5.43-1.45v0.83h-49.4l10.1-10.3c0.2,0.09,0.42,0.15,0.65,0.15c0.8,0,1.44-0.62,1.5-1.4
		l9.17-2.21c0.28,0.35,0.7,0.58,1.18,0.58c0.83,0,1.51-0.68,1.51-1.51c0-0.18-0.04-0.34-0.09-0.5l9.08-8.75
		c0.17,0.07,0.36,0.11,0.55,0.11c0.61,0,1.13-0.36,1.37-0.89H70.7c0.24,0.52,0.76,0.89,1.37,0.89c0.83,0,1.51-0.68,1.51-1.51
		c0-0.84-0.68-1.51-1.51-1.51c-0.61,0-1.13,0.36-1.37,0.89H60.41c-0.24-0.52-0.76-0.89-1.37-0.89c-0.84,0-1.51,0.68-1.51,1.51
		c0,0.18,0.04,0.34,0.09,0.5l-9.08,8.75c-0.17-0.07-0.36-0.11-0.55-0.11c-0.74,0-1.35,0.53-1.48,1.23l-9.3,2.24
		c-0.27-0.27-0.65-0.44-1.07-0.44c-0.83,0-1.51,0.68-1.51,1.51c0,0.14,0.02,0.27,0.06,0.39l-8.41,8.58l5.71-11.32
		c0.02,0,0.04,0.01,0.06,0.01c0.84,0,1.51-0.68,1.51-1.51c0-0.01,0-0.03,0-0.04l10.35-5.04c0.26,0.22,0.59,0.35,0.96,0.35
		c0.83,0,1.51-0.68,1.51-1.51c0-0.21-0.04-0.41-0.12-0.59l8.07-8.8c0.15,0.05,0.3,0.08,0.46,0.08c0.72,0,1.32-0.5,1.47-1.18
		l14.62-3.11c0.28,0.37,0.71,0.61,1.21,0.61c0.83,0,1.51-0.68,1.51-1.51c0-0.84-0.68-1.51-1.51-1.51c-0.72,0-1.33,0.51-1.48,1.19
		l-14.61,3.11c-0.28-0.38-0.72-0.62-1.22-0.62c-0.83,0-1.51,0.68-1.51,1.51c0,0.21,0.04,0.41,0.12,0.59l-8.07,8.8
		c-0.15-0.05-0.3-0.08-0.46-0.08c-0.84,0-1.51,0.68-1.51,1.51c0,0.01,0,0.03,0,0.04l-10.35,5.04c-0.26-0.22-0.59-0.35-0.96-0.35
		c-0.84,0-1.51,0.68-1.51,1.51c0,0.36,0.13,0.68,0.34,0.94l-6.33,12.56V47.97h0.83l-1.45-5.43l-1.45,5.43h0.83v34.35h51.51v0.83
		L80.21,81.69z"/>
	<path class="st27" d="M450.25,281.72l-3.58-0.96v0.55h-32.56l6.66-6.79c0.13,0.06,0.27,0.1,0.43,0.1c0.52,0,0.95-0.41,0.99-0.92
		l6.04-1.46c0.18,0.23,0.46,0.38,0.78,0.38c0.55,0,1-0.45,1-1c0-0.12-0.02-0.23-0.06-0.33l5.98-5.77c0.11,0.04,0.24,0.07,0.37,0.07
		c0.4,0,0.75-0.24,0.9-0.58h6.78c0.16,0.34,0.5,0.58,0.91,0.58c0.55,0,1-0.45,1-1c0-0.55-0.45-1-1-1c-0.4,0-0.75,0.24-0.91,0.58
		h-6.78c-0.16-0.34-0.5-0.58-0.91-0.58c-0.55,0-1,0.45-1,1c0,0.12,0.02,0.23,0.06,0.33l-5.98,5.77c-0.11-0.04-0.24-0.07-0.37-0.07
		c-0.49,0-0.89,0.35-0.98,0.81l-6.13,1.48c-0.18-0.18-0.43-0.29-0.7-0.29c-0.55,0-1,0.45-1,1c0,0.09,0.02,0.18,0.04,0.26l-5.55,5.66
		l3.76-7.46c0.01,0,0.03,0,0.04,0c0.55,0,1-0.45,1-1c0-0.01,0-0.02,0-0.03l6.82-3.32c0.17,0.14,0.39,0.23,0.63,0.23
		c0.55,0,1-0.45,1-1c0-0.14-0.03-0.27-0.08-0.39l5.32-5.8c0.1,0.03,0.2,0.05,0.3,0.05c0.47,0,0.87-0.33,0.97-0.78l9.64-2.05
		c0.18,0.24,0.47,0.41,0.8,0.41c0.55,0,1-0.45,1-1s-0.45-1-1-1c-0.48,0-0.87,0.33-0.97,0.78l-9.63,2.05
		c-0.18-0.25-0.47-0.41-0.8-0.41c-0.55,0-1,0.45-1,1c0,0.14,0.03,0.27,0.08,0.39l-5.32,5.8c-0.1-0.03-0.2-0.05-0.31-0.05
		c-0.55,0-1,0.45-1,1c0,0.01,0,0.02,0,0.03l-6.82,3.32c-0.17-0.14-0.39-0.23-0.63-0.23c-0.55,0-1,0.45-1,1
		c0,0.24,0.09,0.45,0.22,0.62l-4.17,8.28v-20.49h0.55l-0.96-3.58l-0.96,3.58h0.55v22.64h33.95v0.55L450.25,281.72z"/>
	<path class="st27" d="M393.56,67.42l-4.67-1.25v0.71h-42.52l8.69-8.87c0.17,0.08,0.36,0.13,0.56,0.13c0.69,0,1.24-0.53,1.29-1.2
		l7.89-1.9c0.24,0.3,0.6,0.5,1.02,0.5c0.72,0,1.3-0.58,1.3-1.3c0-0.15-0.03-0.29-0.08-0.43l7.81-7.53c0.15,0.06,0.31,0.09,0.48,0.09
		c0.53,0,0.98-0.31,1.18-0.76h8.86c0.21,0.45,0.66,0.76,1.18,0.76c0.72,0,1.3-0.58,1.3-1.3c0-0.72-0.58-1.3-1.3-1.3
		c-0.53,0-0.98,0.31-1.18,0.76h-8.86c-0.21-0.45-0.66-0.76-1.18-0.76c-0.72,0-1.3,0.58-1.3,1.3c0,0.15,0.03,0.3,0.08,0.43
		l-7.81,7.53c-0.15-0.06-0.31-0.09-0.48-0.09c-0.63,0-1.16,0.45-1.28,1.06l-8.01,1.93c-0.24-0.24-0.56-0.38-0.92-0.38
		c-0.72,0-1.3,0.58-1.3,1.3c0,0.12,0.02,0.23,0.05,0.34l-7.24,7.39l4.91-9.74c0.02,0,0.03,0.01,0.05,0.01c0.72,0,1.3-0.58,1.3-1.3
		c0-0.01,0-0.02,0-0.03l8.91-4.34c0.22,0.19,0.51,0.3,0.82,0.3c0.72,0,1.3-0.58,1.3-1.3c0-0.18-0.04-0.35-0.1-0.51l6.95-7.58
		c0.13,0.04,0.26,0.07,0.4,0.07c0.62,0,1.14-0.43,1.27-1.01l12.59-2.68c0.24,0.32,0.61,0.53,1.04,0.53c0.72,0,1.3-0.58,1.3-1.3
		c0-0.72-0.58-1.3-1.3-1.3c-0.62,0-1.14,0.44-1.27,1.02l-12.58,2.68c-0.24-0.32-0.62-0.54-1.05-0.54c-0.72,0-1.3,0.58-1.3,1.3
		c0,0.18,0.04,0.35,0.1,0.51l-6.95,7.58c-0.13-0.04-0.26-0.07-0.4-0.07c-0.72,0-1.3,0.58-1.3,1.3c0,0.01,0,0.02,0,0.03l-8.91,4.34
		c-0.22-0.19-0.51-0.3-0.82-0.3c-0.72,0-1.3,0.58-1.3,1.3c0,0.31,0.11,0.59,0.29,0.81l-5.45,10.82V38.39h0.71l-1.25-4.67l-1.25,4.67
		h0.71v29.57h44.34v0.71L393.56,67.42z"/>
	<g>
		<g>
			<path class="st27" d="M130.39,215.6l-3.56-0.96v0.54H94.37l6.63-6.77c0.13,0.06,0.27,0.1,0.43,0.1c0.52,0,0.95-0.41,0.99-0.92
				l6.02-1.45c0.18,0.23,0.46,0.38,0.78,0.38c0.55,0,0.99-0.44,0.99-0.99c0-0.12-0.02-0.23-0.06-0.33l5.96-5.75
				c0.11,0.04,0.24,0.07,0.36,0.07c0.4,0,0.75-0.24,0.9-0.58h6.76c0.16,0.34,0.5,0.58,0.9,0.58c0.55,0,0.99-0.44,0.99-0.99
				c0-0.55-0.44-0.99-0.99-0.99c-0.4,0-0.75,0.24-0.9,0.58h-6.76c-0.16-0.34-0.5-0.58-0.9-0.58c-0.55,0-0.99,0.44-0.99,0.99
				c0,0.12,0.02,0.23,0.06,0.33l-5.96,5.75c-0.11-0.04-0.24-0.07-0.36-0.07c-0.48,0-0.89,0.35-0.97,0.81l-6.11,1.47
				c-0.18-0.18-0.43-0.29-0.7-0.29c-0.55,0-0.99,0.44-0.99,0.99c0,0.09,0.02,0.18,0.04,0.26l-5.53,5.64l3.75-7.44
				c0.01,0,0.03,0,0.04,0c0.55,0,0.99-0.44,0.99-0.99c0-0.01,0-0.02,0-0.03l6.8-3.31c0.17,0.14,0.39,0.23,0.63,0.23
				c0.55,0,0.99-0.44,0.99-0.99c0-0.14-0.03-0.27-0.08-0.39l5.3-5.78c0.1,0.03,0.2,0.05,0.3,0.05c0.47,0,0.87-0.33,0.97-0.77
				l9.6-2.04c0.18,0.24,0.47,0.4,0.8,0.4c0.55,0,0.99-0.44,0.99-0.99c0-0.55-0.44-0.99-0.99-0.99c-0.48,0-0.87,0.33-0.97,0.78
				l-9.6,2.04c-0.18-0.25-0.47-0.41-0.8-0.41c-0.55,0-0.99,0.44-0.99,0.99c0,0.14,0.03,0.27,0.08,0.39l-5.3,5.78
				c-0.1-0.03-0.2-0.05-0.3-0.05c-0.55,0-0.99,0.44-0.99,0.99c0,0.01,0,0.02,0,0.03l-6.8,3.31c-0.17-0.14-0.39-0.23-0.63-0.23
				c-0.55,0-0.99,0.44-0.99,0.99c0,0.24,0.08,0.45,0.22,0.62l-4.16,8.25v-20.43h0.54l-0.96-3.56l-0.96,3.56h0.54v22.57h33.84v0.54
				L130.39,215.6z"/>
		</g>
		<g>
			<path class="st27" d="M130.39,215.6l-3.56-0.96v0.54H94.37l6.63-6.77c0.13,0.06,0.27,0.1,0.43,0.1c0.52,0,0.95-0.41,0.99-0.92
				l6.02-1.45c0.18,0.23,0.46,0.38,0.78,0.38c0.55,0,0.99-0.44,0.99-0.99c0-0.12-0.02-0.23-0.06-0.33l5.96-5.75
				c0.11,0.04,0.24,0.07,0.36,0.07c0.4,0,0.75-0.24,0.9-0.58h6.76c0.16,0.34,0.5,0.58,0.9,0.58c0.55,0,0.99-0.44,0.99-0.99
				c0-0.55-0.44-0.99-0.99-0.99c-0.4,0-0.75,0.24-0.9,0.58h-6.76c-0.16-0.34-0.5-0.58-0.9-0.58c-0.55,0-0.99,0.44-0.99,0.99
				c0,0.12,0.02,0.23,0.06,0.33l-5.96,5.75c-0.11-0.04-0.24-0.07-0.36-0.07c-0.48,0-0.89,0.35-0.97,0.81l-6.11,1.47
				c-0.18-0.18-0.43-0.29-0.7-0.29c-0.55,0-0.99,0.44-0.99,0.99c0,0.09,0.02,0.18,0.04,0.26l-5.53,5.64l3.75-7.44
				c0.01,0,0.03,0,0.04,0c0.55,0,0.99-0.44,0.99-0.99c0-0.01,0-0.02,0-0.03l6.8-3.31c0.17,0.14,0.39,0.23,0.63,0.23
				c0.55,0,0.99-0.44,0.99-0.99c0-0.14-0.03-0.27-0.08-0.39l5.3-5.78c0.1,0.03,0.2,0.05,0.3,0.05c0.47,0,0.87-0.33,0.97-0.77
				l9.6-2.04c0.18,0.24,0.47,0.4,0.8,0.4c0.55,0,0.99-0.44,0.99-0.99c0-0.55-0.44-0.99-0.99-0.99c-0.48,0-0.87,0.33-0.97,0.78
				l-9.6,2.04c-0.18-0.25-0.47-0.41-0.8-0.41c-0.55,0-0.99,0.44-0.99,0.99c0,0.14,0.03,0.27,0.08,0.39l-5.3,5.78
				c-0.1-0.03-0.2-0.05-0.3-0.05c-0.55,0-0.99,0.44-0.99,0.99c0,0.01,0,0.02,0,0.03l-6.8,3.31c-0.17-0.14-0.39-0.23-0.63-0.23
				c-0.55,0-0.99,0.44-0.99,0.99c0,0.24,0.08,0.45,0.22,0.62l-4.16,8.25v-20.43h0.54l-0.96-3.56l-0.96,3.56h0.54v22.57h33.84v0.54
				L130.39,215.6z"/>
		</g>
	</g>
</g>
<g>
	<g>
		<g>
			<path class="st23" d="M210.66,76.24h28.2c3.68,0,6.67-2.98,6.67-6.67V54.42c0-3.68-2.98-6.67-6.67-6.67h-28.2
				c-3.68,0-6.67,2.98-6.67,6.67v15.16C203.99,73.26,206.97,76.24,210.66,76.24z"/>
			<path class="st28" d="M224.75,137.31c2.71,0,4.91-2.2,4.91-4.91V63.46c0-2.71-2.2-4.91-4.91-4.91c-2.71,0-4.91,2.2-4.91,4.91
				v68.93C219.84,135.11,222.04,137.31,224.75,137.31z"/>
			<path class="st19" d="M208.13,55.57c0,1.32,1.07,2.4,2.4,2.4c1.32,0,2.4-1.07,2.4-2.4c0-1.33-1.07-2.4-2.4-2.4
				C209.2,53.17,208.13,54.25,208.13,55.57z"/>
			<path class="st19" d="M236.11,55.57c0,1.32,1.07,2.4,2.4,2.4c1.32,0,2.4-1.07,2.4-2.4c0-1.33-1.07-2.4-2.4-2.4
				C237.18,53.17,236.11,54.25,236.11,55.57z"/>
		</g>
		<rect x="160.78" y="67.39" class="st19" width="127.95" height="88.78"/>
		<rect x="166.32" y="72.92" class="st29" width="116.87" height="76.13"/>
		<rect x="168.51" y="72.92" class="st10" width="112.38" height="76.13"/>
		<rect x="273.18" y="151.58" class="st30" width="5.71" height="2.6"/>
		<g class="st31">
			<rect x="269.92" y="140.24" class="st5" width="7.82" height="6.23"/>
			<rect x="259.78" y="134.47" class="st5" width="7.82" height="12"/>
			<rect x="249.64" y="138.51" class="st5" width="7.82" height="7.96"/>
			<rect x="239.5" y="132.4" class="st5" width="7.82" height="14.08"/>
			<rect x="229.36" y="130.55" class="st5" width="7.82" height="15.93"/>
			<rect x="219.22" y="141.86" class="st5" width="7.82" height="4.62"/>
			<rect x="209.08" y="136.32" class="st5" width="7.82" height="10.16"/>
			<rect x="198.93" y="132.4" class="st5" width="7.82" height="14.08"/>
			<rect x="188.79" y="136.32" class="st5" width="7.82" height="10.16"/>
			<rect x="178.65" y="136.32" class="st5" width="7.82" height="10.16"/>
			<rect x="168.51" y="140.47" class="st5" width="7.82" height="6"/>
		</g>
		<g>
			<g>
				<rect x="252.75" y="94.71" class="st5" width="20.28" height="3.64"/>
				<rect x="226.24" y="94.71" class="st5" width="20.28" height="3.64"/>
				<rect x="199.73" y="94.71" class="st5" width="20.28" height="3.64"/>
				<rect x="173.21" y="94.71" class="st5" width="20.28" height="3.64"/>
			</g>
			<g>
				<rect x="252.75" y="101.92" class="st32" width="20.28" height="3.64"/>
				<rect x="226.24" y="101.92" class="st5" width="20.28" height="3.64"/>
				<rect x="199.73" y="101.92" class="st5" width="20.28" height="3.64"/>
				<rect x="173.21" y="101.92" class="st32" width="20.28" height="3.64"/>
			</g>
			<g>
				<rect x="252.75" y="109.13" class="st5" width="20.28" height="3.64"/>
				<rect x="226.24" y="109.13" class="st5" width="20.28" height="3.64"/>
				<rect x="199.73" y="109.13" class="st5" width="20.28" height="3.64"/>
				<rect x="173.21" y="109.13" class="st5" width="20.28" height="3.64"/>
			</g>
			<rect x="252.75" y="116.34" class="st5" width="20.28" height="3.64"/>
			<rect x="226.24" y="116.34" class="st32" width="20.28" height="3.64"/>
			<rect x="199.73" y="116.34" class="st5" width="20.28" height="3.64"/>
			<rect x="173.21" y="116.34" class="st5" width="20.28" height="3.64"/>
			<g>
				<rect x="252.75" y="123.55" class="st5" width="20.28" height="3.64"/>
				<rect x="226.24" y="123.55" class="st5" width="20.28" height="3.64"/>
				<rect x="199.73" y="123.55" class="st5" width="20.28" height="3.64"/>
				<rect x="173.21" y="123.55" class="st32" width="20.28" height="3.64"/>
			</g>
			<rect x="256.51" y="86.44" class="st32" width="12.76" height="4.64"/>
			<rect x="230" y="86.44" class="st32" width="12.76" height="4.64"/>
			<rect x="219.31" y="78.05" class="st5" width="38.98" height="4.64"/>
			<rect x="188.89" y="78.05" class="st5" width="24.56" height="4.64"/>
			<rect x="203.49" y="86.44" class="st32" width="12.76" height="4.64"/>
			<rect x="176.97" y="86.44" class="st32" width="12.76" height="4.64"/>
		</g>
	</g>
	<g>
		<g>
			<g>
				<path class="st23" d="M68.01,114.49H92.9c3.25,0,5.88-2.63,5.88-5.88V95.23c0-3.25-2.63-5.88-5.88-5.88H68.01
					c-3.25,0-5.88,2.63-5.88,5.88v13.38C62.12,111.86,64.76,114.49,68.01,114.49z"/>
				<path class="st28" d="M80.45,168.4c2.4,0,4.34-1.94,4.34-4.34v-60.85c0-2.4-1.94-4.34-4.34-4.34c-2.4,0-4.34,1.94-4.34,4.34
					v60.85C76.12,166.46,78.06,168.4,80.45,168.4z"/>
				<path class="st19" d="M65.78,96.25c0,1.17,0.95,2.12,2.12,2.12c1.17,0,2.12-0.95,2.12-2.12s-0.95-2.12-2.12-2.12
					C66.72,94.13,65.78,95.08,65.78,96.25z"/>
				<path class="st19" d="M90.47,96.25c0,1.17,0.95,2.12,2.12,2.12c1.17,0,2.12-0.95,2.12-2.12s-0.95-2.12-2.12-2.12
					C91.42,94.13,90.47,95.08,90.47,96.25z"/>
			</g>
			<rect x="26.57" y="106.67" class="st23" width="114.8" height="78.37"/>
			<rect x="31.48" y="106.67" class="st19" width="112.95" height="78.37"/>
			<rect x="36.38" y="111.56" class="st29" width="103.17" height="67.2"/>
			<rect x="36.38" y="111.56" class="st10" width="101.14" height="67.2"/>
			<rect x="130.71" y="181" class="st30" width="5.04" height="2.29"/>
		</g>
		<rect x="43.16" y="118.21" class="st2" width="87.55" height="25.4"/>
		<rect x="43.16" y="147.37" class="st2" width="87.55" height="25.4"/>
		<path class="st5" d="M43.17,173.27c-0.15,0-0.3-0.07-0.39-0.19c-0.17-0.22-0.13-0.53,0.09-0.7l14.28-11.14l3.82,3.08l3.9-4.15
			l2.45,2.32l11.99-8.24l6.63,5.88l8.74-5.81l4.09,1.76l11.32-6.68l7.48,6.6l12.89-9.02c0.23-0.16,0.54-0.1,0.7,0.12
			c0.16,0.23,0.1,0.54-0.12,0.7l-13.53,9.48l-7.52-6.64l-11.13,6.57l-4.06-1.74l-8.93,5.94l-6.62-5.87l-12.01,8.26l-2.3-2.18
			l-3.85,4.1l-3.93-3.17l-13.65,10.65C43.38,173.23,43.27,173.27,43.17,173.27z"/>
		<path class="st33" d="M43.17,173.27c-0.18,0-0.36-0.1-0.45-0.27c-0.13-0.25-0.03-0.55,0.22-0.67l13.17-6.75l5.47,2.27l3.48-2.26
			l2.01,0.63l11.21-6.73l5.79,4.1l24.35-6.86l6.69,2.85h15.61c0.28,0,0.5,0.22,0.5,0.5c0,0.28-0.22,0.5-0.5,0.5l-15.91-0.04
			l-6.46-2.75l-24.47,6.89l-5.65-4l-11.04,6.62l-1.99-0.62l-3.52,2.29l-5.53-2.29l-12.76,6.54
			C43.32,173.25,43.24,173.27,43.17,173.27z"/>
		<rect x="43.16" y="123.37" class="st34" width="5.96" height="20.23"/>
		<rect x="51.32" y="129.71" class="st34" width="5.96" height="13.9"/>
		<rect x="59.48" y="135.87" class="st34" width="5.96" height="7.73"/>
		<rect x="67.64" y="127.21" class="st33" width="5.96" height="16.4"/>
		<rect x="75.8" y="130.9" class="st35" width="5.96" height="12.7"/>
		<rect x="83.96" y="120.37" class="st33" width="5.96" height="23.23"/>
		<rect x="92.12" y="136.65" class="st34" width="5.96" height="6.95"/>
		<rect x="100.28" y="131.99" class="st34" width="5.96" height="11.61"/>
		<rect x="108.43" y="127.21" class="st35" width="5.96" height="16.4"/>
		<rect x="116.59" y="138.54" class="st33" width="5.96" height="5.06"/>
		<rect x="124.75" y="123.37" class="st34" width="5.96" height="20.23"/>
	</g>
	<g>
		<g>
			<g>
				<path class="st23" d="M381.5,96.26h-24.89c-3.25,0-5.88-2.63-5.88-5.88V76.99c0-3.25,2.63-5.88,5.88-5.88h24.89
					c3.25,0,5.88,2.63,5.88,5.88v13.38C387.38,93.62,384.75,96.26,381.5,96.26z"/>
				<path class="st28" d="M369.05,150.17c-2.4,0-4.34-1.94-4.34-4.34V84.98c0-2.4,1.94-4.34,4.34-4.34c2.4,0,4.34,1.94,4.34,4.34
					v60.85C373.39,148.23,371.45,150.17,369.05,150.17z"/>
				<path class="st19" d="M383.73,78.01c0,1.17-0.95,2.12-2.12,2.12c-1.17,0-2.12-0.95-2.12-2.12c0-1.17,0.95-2.12,2.12-2.12
					C382.78,75.9,383.73,76.84,383.73,78.01z"/>
				<path class="st19" d="M359.03,78.01c0,1.17-0.95,2.12-2.12,2.12c-1.17,0-2.12-0.95-2.12-2.12c0-1.17,0.95-2.12,2.12-2.12
					C358.08,75.9,359.03,76.84,359.03,78.01z"/>
			</g>
			<rect x="308.13" y="88.44" class="st23" width="114.8" height="78.37"/>
			<rect x="305.07" y="88.44" class="st19" width="112.95" height="78.37"/>
			<rect x="309.96" y="93.33" class="st29" width="103.17" height="67.2"/>
			<rect x="311.99" y="93.33" class="st10" width="101.14" height="67.2"/>
			<rect x="403.73" y="162.77" class="st30" width="5.04" height="2.29"/>
		</g>
		<g>
			<path class="st33" d="M380.44,151.21l12.15-12.02l0.09-17.09c-4.42,0.12-8.56,1.89-11.71,5.01c-3.29,3.26-5.12,7.6-5.14,12.23
				C375.8,143.78,377.43,147.97,380.44,151.21z"/>
			<path class="st30" d="M393.83,122.11l-0.09,16.76l4.05,0.02l12.7,0.07c-0.12-4.42-1.88-8.56-5.01-11.71
				C402.36,124.08,398.24,122.27,393.83,122.11z"/>
			<path class="st1" d="M394.54,140.01l1.89,1.91l9.33,9.43c2.91-3.07,4.57-7.03,4.73-11.25L394.54,140.01z"/>
			<path class="st5" d="M393.16,156.77c4.4,0,8.56-1.64,11.78-4.62l-11.79-11.91l-11.91,11.79c3.21,3.04,7.38,4.72,11.82,4.74
				L393.16,156.77z"/>
		</g>
		<rect x="318.34" y="98.82" class="st34" width="6.86" height="13.02"/>
		<rect x="327.72" y="102.9" class="st34" width="6.86" height="8.95"/>
		<rect x="337.11" y="106.87" class="st5" width="6.86" height="4.98"/>
		<rect x="346.5" y="101.29" class="st34" width="6.86" height="10.56"/>
		<rect x="355.88" y="103.67" class="st34" width="6.86" height="8.17"/>
		<rect x="365.27" y="96.89" class="st34" width="6.86" height="14.95"/>
		<g>
			<path class="st33" d="M319.55,156.25l-0.96-0.72l8.92-11.97l15.04-3.73c2.67-3.85,6.82-9.89,7.28-10.74
				c0.11-0.53,1.41-0.96,17.28-4.64l0.27,1.17c-5.84,1.36-15.24,3.6-16.54,4.08c-0.44,0.8-1.99,3.16-7.44,11l-0.13,0.19l-15.06,3.73
				L319.55,156.25z M351.01,129.3c-0.01,0.05-0.03,0.14-0.13,0.32C350.95,129.53,351,129.43,351.01,129.3z"/>
			<g>
				<polygon class="st19" points="365.42,156.49 318.46,156.49 318.46,126.06 319.67,126.06 319.67,155.29 365.42,155.29 				"/>
				<g>
					<polygon class="st19" points="364.23,154.14 370.74,155.89 364.23,157.63 					"/>
				</g>
				<g>
					<polygon class="st19" points="320.81,127.25 319.06,120.73 317.32,127.25 					"/>
				</g>
			</g>
			<rect x="323.57" y="151.4" class="st34" width="5.37" height="3.98"/>
			<rect x="330.29" y="144.82" class="st34" width="5.37" height="10.57"/>
			<rect x="337.01" y="143.27" class="st30" width="5.37" height="12.12"/>
			<rect x="343.72" y="141.67" class="st1" width="5.37" height="13.72"/>
			<rect x="350.44" y="131.85" class="st34" width="5.37" height="23.54"/>
			<rect x="357.16" y="128.85" class="st33" width="5.37" height="26.54"/>
		</g>
		<rect x="365.27" y="112.77" class="st34" width="6.86" height="5.39"/>
		<rect x="355.88" y="112.77" class="st34" width="6.86" height="8.95"/>
		<rect x="346.5" y="112.77" class="st34" width="6.86" height="4.98"/>
		<rect x="337.11" y="112.77" class="st5" width="6.86" height="10.56"/>
		<rect x="327.72" y="112.77" class="st34" width="6.86" height="8.17"/>
		<rect x="318.34" y="112.77" class="st34" width="6.86" height="4.98"/>
		<rect x="378.25" y="96.89" class="st5" width="30.51" height="1.93"/>
		<rect x="378.25" y="100.96" class="st5" width="20.17" height="1.93"/>
		<rect x="378.25" y="105.03" class="st5" width="27.33" height="1.93"/>
		<rect x="378.25" y="109.1" class="st5" width="14.84" height="1.93"/>
		<rect x="378.25" y="113.17" class="st5" width="25.47" height="1.93"/>
		<rect x="378.25" y="117.24" class="st5" width="21.5" height="1.93"/>
	</g>
</g>
<g>
	<g>
		<polygon class="st1" points="312.48,357.06 337.63,357.06 303.94,327.65 303.9,327.54 303.81,327.54 127.81,327.54 127.72,327.54 
			127.69,327.65 93.99,357.06 119.14,357.06 		"/>
		<polygon class="st1" points="337.63,357.06 312.48,357.06 119.14,357.06 93.99,357.06 93.98,365.53 119.14,365.53 312.48,365.53 
			337.64,365.53 		"/>
		<polygon class="st2" points="337.63,357.06 312.48,357.06 119.14,357.06 93.99,357.06 93.98,365.53 119.14,365.53 312.48,365.53 
			337.64,365.53 		"/>
	</g>
	<g>
		<g>
			<path class="st6" d="M151.17,230.46l4.4,4.49c2.9-2.75,5.71-5.57,8.63-8.29l-4.26-4.35l0.42-1.06c0.59-1.89,0.44-3.93-0.53-5.59
				c-0.25-0.44-3.97-5.64-4.13-5.88l-0.01-0.01l-2.14,2.2l-4.84-4.94c-4.84,4.37-7.9,7.67-12,12.02l5.03,6.07
				C145.61,229.63,148.02,230.67,151.17,230.46z"/>
			<path class="st6" d="M150.98,214.51c0.92,0.97,2.63,1.07,3.6,0.15l0.32-0.31c0.47-0.44,0.74-1.05,0.76-1.69
				c0.02-0.64-0.22-1.26-0.66-1.73l-16.31-15.37c-0.86-0.91-2.29-0.95-3.2-0.09l-0.24,0.21c-0.85,0.8-0.88,2.14-0.08,2.98
				L150.98,214.51z"/>
			<path class="st7" d="M145.19,215.25c0.44,0.48,1.04,0.77,1.66,0.83c0.62,0.05,1.21-0.14,1.64-0.55l0.29-0.28
				c0.87-0.82,0.86-2.26-0.04-3.23l-4.2-4.53c-0.41-0.44-0.97-0.72-1.55-0.77c-0.58-0.05-1.13,0.14-1.53,0.51l-0.6,0.57
				c-0.76,0.72-0.75,1.97,0.04,2.82L145.19,215.25z"/>
			<path class="st7" d="M142.16,218.85c0.92,0.97,2.39,1.08,3.27,0.25l0.3-0.28c0.43-0.4,0.66-0.97,0.65-1.58
				c-0.01-0.61-0.27-1.22-0.71-1.68l-3.38-3.55c-0.86-0.9-2.23-1.01-3.06-0.23l-0.61,0.57c-0.37,0.35-0.57,0.84-0.56,1.38
				c0.01,0.53,0.23,1.06,0.62,1.47L142.16,218.85z"/>
			<path class="st7" d="M139.15,221.61c0.71,0.75,1.9,0.76,2.67,0.04l0.26-0.24c0.77-0.72,0.81-1.91,0.11-2.66l-2.59-2.73
				c-0.66-0.7-1.78-0.71-2.49-0.04l-0.53,0.49c-0.67,0.63-0.71,1.67-0.09,2.32L139.15,221.61z"/>
			<path class="st7" d="M149.14,214.18l2.5,0.21c0.41,0.03,0.78,0.25,1.02,0.59l0.48,0.7c0,0-4.04,5.79,1.83,10.62l-3.8,4.17
				l3.75,5.1c3.17-2.97,6.22-6.06,9.41-9.02l-2.59-2.45l-1.8-1.78l0.42-1.06c0.59-1.89,0.44-3.93-0.53-5.59
				c-0.25-0.44-3.97-5.64-4.13-5.88l-0.01-0.01c-0.29-0.3-0.68-0.5-1.11-0.53l-4.01-0.32l-2.7-0.21c-0.85-0.07-1.6,0.56-1.67,1.4
				l-0.05,0.51c-0.08,0.87,0.19,1.73,0.75,2.39C147.47,213.69,148.27,214.11,149.14,214.18z"/>
		</g>
		<path class="st5" d="M242.66,229.97c-0.51,15.05-10.6,22.75-23.39,29.36c-0.6,0.32-1.2,0.62-1.81,0.92
			c-0.07,0.03-0.13,0.07-0.2,0.1c-0.39,0.2-0.79,0.39-1.19,0.59c-5.26,2.6-10.88,5.09-16.39,7.89c-4.2,2.13-6.89,1.43-11.15-0.57
			c-2.06-0.96-7.65-4.56-13.73-9.29c-0.64-0.51-1.3-1.02-1.95-1.55c-5.2-4.2-10.53-9.09-14.11-13.73c-0.91-1.16-1.48-2.45-2.05-3.62
			c3.02-3.81,6.66-8.29,10.31-11.63c5.45,4.79,22.77,15.06,26.06,15.43c3.07,0.35,18.13-13.36,23.71-16.09
			c4.13-2.02,8.19-3.12,12.79-3.31c2.06-0.09,4.11,0.23,6.06,0.91c0.02,0,0.05,0.01,0.07,0.02c1.03,0.35,2.03,0.81,2.97,1.36
			C240.15,227.61,241.51,228.7,242.66,229.97z"/>
		<g>
			
				<rect x="150.73" y="226.79" transform="matrix(0.6633 -0.7483 0.7483 0.6633 -119.7076 196.4754)" class="st9" width="15.54" height="8.96"/>
		</g>
		<polygon class="st23" points="277.65,327.56 277.87,321.08 221.68,321.08 221.46,327.56 		"/>
		<path class="st5" d="M277.87,321.08h-56.19c-3.92-0.65-5.84-6.4-6.62-15.03c-0.57-6.23-0.54-13.96-0.23-22.36
			c0.01-0.01,0.01-0.01,0-0.02c0.25-6.75,0.69-13.94,1.14-21.13c0.03-0.54,0.06-1.07,0.1-1.6c0.01-0.27,0.03-0.54,0.05-0.81
			c0.17-2.82,0.35-5.63,0.51-8.42c0.4-6.63,0.74-13.08,0.88-18.99l1.27-0.77l8.61-5.26l8.16-1.3l0.07-0.01l24.75-3.98l20.61,9.53
			c0.6,6.66,1.25,13.79,1.85,21.02C285.43,283.73,286.89,317.42,277.87,321.08z"/>
		<path class="st6" d="M255.22,217.72l-2.04-20.63c-8.8,1.04-20.6,2.23-22.69,2.07c0,0,1.36,15.01,1.38,21.5
			C230.49,237.55,250.02,236.92,255.22,217.72z"/>
		<path class="st7" d="M257.47,205.83c2.69-3.46,3.15-5.17,4.49-9.4c4.91-19.61-7-20.06-14.2-22.11c-8.52-2.02-18.1,1.4-22.23,14.2
			c0.06,1.39,0.28,2.58,0.28,2.58l-4.83,6.44c-0.8,1.06-0.46,2.58,0.7,3.21l1.71,1.04c-0.33,1.31-2.08,6.85-2.08,6.85
			c-0.82,3.32-0.85,8.86,3.65,9.7c12.96,2.43,19.44-2.11,21.71-13.48C249.85,205.38,255.49,208.37,257.47,205.83z"/>
		<path class="st1" d="M252.83,213.99c-10.76-0.14-2.29-13.79-2.29-13.79s-3.59,2.21-5.02,3.23c-2.13-0.63-2.42-0.42-4.3-1.12
			c2.96-12.95,8.83-21.77-10.47-23.11c-3.41-1.64-2.22-13.55,19.6-6.66c9.64,3.04,15.71,10.54,14.72,20.6
			C264.11,202.94,261.15,213.67,252.83,213.99z"/>
		<path class="st7" d="M252.71,201.04c-0.88,3.04-4.45,5.81-6.44,5.24c-1.99-0.57-1.42-3.18-0.57-6.23c0.56-2.02,1.23-4.82,3.6-4.83
			C251.36,195.21,254,196.57,252.71,201.04z"/>
		<polygon class="st33" points="240.35,240.65 235.03,240.1 233.26,229.51 242.21,229.85 		"/>
		<path class="st9" d="M237.04,229.6l-7.35,8.43c-1.12-5.12-2.59-9.33-2.01-12.45l4.24-4.6
			C231.49,224.54,233.29,228.42,237.04,229.6z"/>
		<path class="st9" d="M237.04,229.6l9.08,10.5c6.2-6.09,12.63-12.84,14.25-18.7l-5.38-5.9
			C255.01,220.78,244.06,229.88,237.04,229.6z"/>
		<polygon class="st17" points="236.47,327.56 236.69,321.08 228.86,321.08 228.63,327.56 		"/>
		<polygon class="st32" points="240.35,240.65 235.03,240.1 232.3,289.01 237.73,297.55 243.55,290.66 		"/>
		<path class="st11" d="M258.52,321.08h-36.84c-3.92-0.65-5.84-6.4-6.62-15.03c-0.57-6.23-0.54-13.96-0.23-22.36
			c0.01-0.01,0.01-0.01,0-0.02c0.25-6.75,0.69-13.94,1.14-21.13c0.03-0.54,0.06-1.07,0.1-1.6c-5.26,2.6-10.88,5.09-16.39,7.89
			c-4.2,2.13-6.89,1.43-11.15-0.57c-2.06-0.96-7.65-4.56-13.73-9.29c2.45,1.23,4.95,2.34,7.54,3.24c5.45,1.89,11.5,3.4,17.13,1.72
			c11.85-3.54,15.81-8.65,17.16-12.22c0.76-1.98,0.71-3.47,0.77-3.98c-0.01,0.57-0.16,5.72-0.14,12.62c0.03,12.56,0.59,30.9,3.44,38
			c0.62,1.52,1.28,3.03,2.01,4.45c1.51,2.98,3.41,5.55,6.53,6.95c4.63,2.08,13.77,4.67,18.8,5.56c-5.42,0.12-22.12-1.17-22.17,0
			C229,317.56,245.46,318.66,258.52,321.08z"/>
		<path class="st11" d="M277.87,321.08h-37.56c0.02-0.75,0.28-1.5,0.53-2.22c1.43-4.07-3.55-2.98-2.12-7.05
			c1.04-2.97-1.38-6.73,0.51-9.25c3.31-4.43,17.88-12.33,22.58-15.25c3.5-2.17,5.66-4.43,6.67-8.42c0.56-2.24,0.69-4.28,0.41-6.58
			c-0.86-7.24-1.84-17.34-2.71-24.58c5.26,0.2,11.23,1.74,16.65,4.22C285.43,283.73,286.89,317.42,277.87,321.08z"/>
		<path class="st5" d="M275.89,282.48c0,0-9.58,5.72-25.31,15.64l4.83,14.77c22-2.67,45.34-14.14,43.71-23.46
			c-2.34-13.44-5.78-32.23-8.81-45.99c-0.87-3.96-3.51-8.2-6.55-10.69c-4.01-3.27-8.71-2.03-12.22,1.82
			c-3.51,3.86-5.7,9.04-5.29,14.38C266.64,254.29,275.89,282.48,275.89,282.48z"/>
		<path class="st6" d="M241.4,304.04c0-0.02,0-0.03,0-0.05c-0.05-1.42-1.33-2.4-2.8-2.27c-5.67,0.45-11.2,0.27-16.47-0.45
			c-1.38-0.17-2.64,0.76-2.89,2.13c0,0.02-0.01,0.03-0.01,0.05c-0.25,1.37,0.67,2.68,2.13,2.87c5.53,0.78,11.33,1,17.27,0.58
			C240.18,306.76,241.45,305.45,241.4,304.04z"/>
		
			<rect x="239.76" y="301.13" transform="matrix(0.936 -0.3519 0.3519 0.936 -92.6305 106.2522)" class="st7" width="12.47" height="13.65"/>
		<g>
			<polygon class="st9" points="233.12,321.81 232.53,321.93 219.62,324.44 209.94,328.69 197.94,302.43 185.35,290.93 
				185.32,290.91 180.25,286.27 206.19,274.17 223.25,296.99 230.23,314.55 232.56,320.4 			"/>
			<polygon class="st11" points="232.66,315.68 232.56,320.4 232.53,321.93 219.62,324.44 209.94,328.69 197.94,302.43 
				185.35,290.93 199.67,299.38 207.56,309.46 223.57,311.44 230.23,314.55 			"/>
		</g>
		<path class="st6" d="M234.47,305.35l-0.02-0.04c-0.45-1.2-1.8-1.81-3-1.36l-17.65,6.63c-1.2,0.45-1.81,1.8-1.36,3l0.02,0.04
			c0.45,1.2,1.8,1.81,3,1.36l17.64-6.63C234.31,307.89,234.92,306.55,234.47,305.35z"/>
		<path class="st6" d="M229.83,312.1l-0.02-0.04c-0.45-1.2-1.8-1.81-3-1.36l-8.13,3.05c-1.2,0.45-1.81,1.8-1.36,3l0.02,0.04
			c0.45,1.2,1.8,1.81,3,1.36l8.13-3.05C229.67,314.65,230.28,313.31,229.83,312.1z"/>
		<path class="st6" d="M233.74,315.52l-0.02-0.04c-0.45-1.2-1.8-1.81-3-1.36l-6.81,2.56c-1.2,0.45-1.81,1.8-1.36,3l0.02,0.04
			c0.45,1.2,1.8,1.81,3,1.36l6.81-2.56C233.58,318.07,234.19,316.73,233.74,315.52z"/>
		<path class="st6" d="M235.3,319.68l-0.01-0.04c-0.4-1.07-1.6-1.61-2.67-1.21l-6.05,2.27c-1.07,0.4-1.61,1.6-1.21,2.67l0.01,0.04
			c0.4,1.07,1.6,1.61,2.67,1.21l6.05-2.27C235.16,321.94,235.7,320.75,235.3,319.68z"/>
		<path class="st7" d="M246.35,310.41l-1.62-4.3c-1.33-3.55-5.29-5.34-8.83-4.01l-5.25,1.97l6.44,17.13l5.25-1.97
			C245.89,317.91,247.69,313.96,246.35,310.41z"/>
		<path class="st7" d="M237.89,320.92l-3.9,1.47c-1.07,0.4-2.26-0.14-2.67-1.21l-0.01-0.04c-0.4-1.07,0.14-2.26,1.21-2.67
			l-0.71,0.27c-1.2,0.45-2.55-0.16-3-1.36l-0.02-0.04c-0.45-1.2,0.16-2.55,1.36-3l-0.66,0.25c-1.2,0.45-2.55-0.16-3-1.36l-0.02-0.04
			c-0.45-1.2,0.16-2.55,1.36-3c-1.2,0.45-2.55-0.16-3-1.36l-0.02-0.04c-0.45-1.2,0.16-2.55,1.36-3l5.27-1.98L237.89,320.92z"/>
		<g>
			<g>
				
					<rect x="244.24" y="299.13" transform="matrix(0.9505 -0.3107 0.3107 0.9505 -83.0336 92.4516)" class="st36" width="8.96" height="15.54"/>
			</g>
			<g>
				
					<rect x="244.24" y="299.13" transform="matrix(0.9505 -0.3107 0.3107 0.9505 -83.0336 92.4516)" class="st9" width="8.96" height="15.54"/>
			</g>
		</g>
	</g>
	<path class="st12" d="M306.05,343.72c0,1.66-4.72,3.01-10.55,3.01c-5.83,0-10.55-1.35-10.55-3.01s4.72-3.01,10.55-3.01
		C301.32,340.71,306.05,342.06,306.05,343.72z"/>
	<g>
		<g>
			<rect x="284.95" y="318.78" class="st32" width="18.67" height="23.63"/>
			<path class="st32" d="M276.26,330.6c0-4.25,2.37-7.58,5.4-7.58s5.4,3.33,5.4,7.58c0,4.25-2.37,7.58-5.4,7.58
				S276.26,334.85,276.26,330.6z M278.47,330.6c0,2.92,1.47,5.38,3.2,5.38c1.74,0,3.2-2.46,3.2-5.38c0-2.92-1.47-5.38-3.2-5.38
				C279.93,325.22,278.47,327.68,278.47,330.6z"/>
		</g>
		<ellipse class="st32" cx="294.28" cy="342.42" rx="9.33" ry="3.06"/>
		<path class="st32" d="M303.61,318.77c0,0.6-0.51,1.15-1.4,1.62c-0.96-0.67-3.64-1.62-7.93-1.62c-4.3,0-6.99,0.95-7.94,1.62
			c-0.88-0.47-1.4-1.02-1.4-1.62c0-1.69,4.18-3.06,9.34-3.06C299.43,315.71,303.61,317.08,303.61,318.77z"/>
		<path class="st37" d="M302.21,320.39c-1.65,0.87-4.58,1.45-7.93,1.45s-6.29-0.58-7.94-1.45c0.95-0.67,3.64-1.62,7.94-1.62
			C298.57,318.77,301.25,319.72,302.21,320.39z"/>
	</g>
	<path class="st12" d="M221.44,327.78h-69.99l-28.25,19.08l0.17,0.19c1.6,1.81,3.9,2.85,6.32,2.85h67.6c0.29,0,0.58-0.1,0.81-0.29
		l24.16-19.55C223.18,329.3,222.65,327.78,221.44,327.78z"/>
	<g>
		<path class="st13" d="M220.48,327.37c-0.03-0.21-0.4-0.35-1.02-0.35L149.5,327c-0.94,0-2.1,0.32-2.59,0.71l-23.99,16.62l0.22,2.26
			c0.11,0.62,0.11,0.62,0.8,0.71l69.96,0.02c0.94,0,2.1-0.32,2.59-0.71l23.77-18.89C220.42,327.6,220.49,327.47,220.48,327.37z"/>
		<g>
			<g>
				<polygon class="st13" points="220,324.38 220.48,327.37 215.21,329.98 217.54,325.13 				"/>
				<path class="st14" d="M149.02,324.01l69.96,0.02c0.62,0,0.99,0.14,1.02,0.35c0.02,0.11-0.05,0.23-0.22,0.36l-23.77,18.89
					c-0.49,0.39-1.65,0.71-2.59,0.71l-69.96-0.02c-0.94,0-1.29-0.32-0.8-0.71l23.77-18.89
					C146.93,324.33,148.09,324.01,149.02,324.01z"/>
				<polygon class="st15" points="144.27,343.71 142.75,343.71 143.49,343.12 145.01,343.12 				"/>
				<polygon class="st15" points="192.34,343.72 190.82,343.72 191.56,343.13 193.08,343.13 				"/>
				<polygon class="st16" points="138.77,343.71 137.26,343.71 138,343.12 139.52,343.12 				"/>
				<polygon class="st15" points="133.28,343.71 131.76,343.71 132.51,343.11 134.02,343.11 				"/>
				<polygon class="st16" points="127.79,343.7 126.27,343.7 127.01,343.11 128.53,343.11 				"/>
				<polygon class="st5" points="193.68,342.72 188.49,342.72 190.9,340.8 196.1,340.81 				"/>
				<polygon class="st5" points="181.48,342.72 176.29,342.72 178.7,340.8 183.9,340.8 				"/>
				<polygon class="st5" points="175.38,342.72 170.19,342.72 172.6,340.8 177.8,340.8 				"/>
				<polygon class="st5" points="169.28,342.72 164.09,342.72 166.5,340.8 171.7,340.8 				"/>
				<polygon class="st5" points="163.18,342.72 157.99,342.72 160.4,340.8 165.6,340.8 				"/>
				<polygon class="st5" points="157.08,342.72 151.89,342.71 154.3,340.8 159.5,340.8 				"/>
				<polygon class="st5" points="144.88,342.71 139.69,342.71 142.1,340.79 147.3,340.79 				"/>
				<polygon class="st5" points="138.78,342.71 133.59,342.71 136,340.79 141.2,340.79 				"/>
				<polygon class="st5" points="132.68,342.71 127.49,342.71 129.9,340.79 135.1,340.79 				"/>
				<polygon class="st5" points="196.58,340.42 191.38,340.42 193.8,338.51 198.99,338.51 				"/>
				<polygon class="st5" points="190.48,340.42 185.28,340.42 187.7,338.5 192.89,338.51 				"/>
				<polygon class="st5" points="184.38,340.42 179.18,340.42 181.6,338.5 186.79,338.5 				"/>
				<polygon class="st5" points="178.28,340.42 173.08,340.42 175.5,338.5 180.69,338.5 				"/>
				<polygon class="st5" points="172.18,340.42 166.98,340.42 169.4,338.5 174.59,338.5 				"/>
				<polygon class="st5" points="166.08,340.42 160.88,340.42 163.3,338.5 168.49,338.5 				"/>
				<polygon class="st5" points="147.78,340.41 142.58,340.41 145,338.49 150.19,338.5 				"/>
				<polygon class="st5" points="141.68,340.41 136.48,340.41 138.9,338.49 144.09,338.49 				"/>
				<polygon class="st5" points="199.47,338.13 194.28,338.13 196.69,336.21 201.89,336.21 				"/>
				<polygon class="st5" points="193.37,338.13 188.18,338.12 190.59,336.21 195.79,336.21 				"/>
				<polygon class="st5" points="187.27,338.12 182.08,338.12 184.49,336.2 189.69,336.21 				"/>
				<polygon class="st5" points="181.17,338.12 175.98,338.12 178.39,336.2 183.59,336.2 				"/>
				<polygon class="st5" points="175.07,338.12 169.88,338.12 172.29,336.2 177.49,336.2 				"/>
				<polygon class="st5" points="159.98,340.42 162.87,338.12 168.97,338.12 171.39,336.2 165.29,336.2 164.21,336.2 160.09,336.2 
					158.15,337.74 157.68,338.12 154.78,340.42 				"/>
				<polygon class="st5" points="150.67,338.12 145.48,338.11 147.89,336.2 153.09,336.2 				"/>
				<polygon class="st5" points="144.57,338.11 139.38,338.11 141.79,336.19 146.99,336.2 				"/>
				<polygon class="st5" points="135.58,340.41 137.43,338.94 137.99,338.49 140.89,336.19 135.69,336.19 132.8,338.49 
					132.24,338.94 130.38,340.41 				"/>
				<polygon class="st5" points="193.09,335.83 196.26,335.83 202.36,335.83 204.78,333.91 198.68,333.91 195.51,333.91 
					193.48,333.91 191.07,335.83 				"/>
				<polygon class="st5" points="190.16,335.83 184.97,335.82 187.38,333.91 192.58,333.91 				"/>
				<polygon class="st5" points="184.06,335.82 178.87,335.82 181.28,333.9 186.48,333.91 				"/>
				<polygon class="st5" points="177.96,335.82 172.77,335.82 175.18,333.9 180.38,333.9 				"/>
				<polygon class="st5" points="171.86,335.82 166.67,335.82 169.08,333.9 174.28,333.9 				"/>
				<polygon class="st5" points="165.76,335.82 160.57,335.82 162.98,333.9 168.18,333.9 				"/>
				<polygon class="st5" points="153.56,335.82 148.37,335.82 150.78,333.9 155.98,333.9 				"/>
				<polygon class="st5" points="147.46,335.82 142.27,335.81 144.68,333.9 149.88,333.9 				"/>
				<polygon class="st5" points="205.26,333.53 200.06,333.53 202.48,331.61 207.67,331.61 				"/>
				<polygon class="st5" points="199.16,333.53 193.96,333.53 196.38,331.61 201.57,331.61 				"/>
				<polygon class="st5" points="171.22,333.52 174.76,333.52 175.21,333.52 177.74,333.52 181.05,333.52 183.42,333.52 
					193.06,333.53 195.47,331.61 185.83,331.61 183.47,331.61 180.16,331.61 177.62,331.6 177.17,331.6 173.64,331.6 171.98,331.6 
					169.56,333.52 				"/>
				<polygon class="st5" points="168.66,333.52 163.46,333.52 165.88,331.6 171.07,331.6 				"/>
				<polygon class="st5" points="156.46,333.52 151.26,333.52 153.68,331.6 158.87,331.6 				"/>
				<polygon class="st5" points="150.36,333.52 145.16,333.52 147.58,331.6 152.77,331.6 				"/>
				<polygon class="st5" points="141.36,335.81 144.26,333.52 144.93,332.98 146.67,331.6 141.48,331.6 139.74,332.98 
					139.06,333.51 136.17,335.81 				"/>
			</g>
			<path class="st5" d="M174.96,325.13h15.28c0.72,0,1,0.25,0.62,0.55l-5.01,3.98c-0.38,0.3-1.28,0.55-2,0.55h-15.28
				c-0.72,0-1-0.25-0.62-0.55l5.01-3.98C173.35,325.37,174.24,325.13,174.96,325.13z"/>
		</g>
		<g>
			<path class="st13" d="M195.48,339.91l-11.06-50.51c-0.54-2.45-2.95-4.43-5.4-4.43h-67.29c-2.45,0-4,1.98-3.46,4.43l11.06,50.51
				c0.54,2.45,2.95,4.43,5.4,4.43h67.29C194.47,344.34,196.02,342.36,195.48,339.91z"/>
			<g>
				<path class="st14" d="M189.64,344.34h-67.29c-2.45,0-4.87-1.98-5.4-4.43l-11.06-50.51c-0.54-2.45,1.01-4.43,3.46-4.43h67.29
					c2.45,0,4.87,1.98,5.4,4.43l11.06,50.51C193.64,342.36,192.09,344.34,189.64,344.34z"/>
				<path class="st5" d="M152.39,314.65c0.55,2.51-1.04,4.54-3.54,4.54c-2.51,0-4.98-2.03-5.53-4.54c-0.55-2.51,1.04-4.54,3.54-4.54
					C149.37,310.12,151.84,312.15,152.39,314.65z"/>
			</g>
		</g>
	</g>
	<g>
		<path class="st12" d="M263.32,346.92v0.01c-0.07,0.47-0.51,0.78-0.97,0.71l-1.97-0.31c-1.44,0.83-4.78,1.06-5.93,0.88l-15.88-2.52
			l-1.53-0.24l-14.32-2.27l0.19-1.19l0.64-4.06l0.12-0.72h-0.01l0.08-0.46l12.42,1.97l1.53,0.24l1.16,0.18l-0.07,0.47l-1.16-0.18
			l-1.53-0.25l-11.66-1.85l-0.12,0.72l11.66,1.85l1.53,0.24l0.37,0.06l1.53,0.24l11.8,1.87l2.18,0.35l1.9,0.3
			c0.74,0.12,2.29,0.68,3.6,1.39c0.12,0.07,0.23,0.14,0.35,0.2v0.01c0.58,0.34,1.08,0.7,1.41,1.07l0.85,0.14l1.13,0.18
			C263.08,346.02,263.39,346.45,263.32,346.92z"/>
		<g>
			<path class="st5" d="M253.57,341.48c1.45,0.23,6,2.15,5.77,3.6c-0.23,1.45-5.15,1.87-6.6,1.64c-1.45-0.23-2.44-1.59-2.21-3.04
				C250.76,342.24,252.12,341.25,253.57,341.48z"/>
			<path class="st21" d="M261.61,345.43l0,0.02c-0.07,0.46-0.51,0.78-0.97,0.7l-2-0.32l0.27-1.69l2,0.32
				C261.37,344.54,261.69,344.97,261.61,345.43z"/>
			<polygon class="st32" points="236.16,338.72 236.09,339.18 235.97,339.9 235.33,343.96 222.91,341.99 221.77,341.81 
				221.01,341.69 221.22,340.35 221.63,337.8 221.84,336.45 222.6,336.57 223.74,336.75 			"/>
			<polygon class="st32" points="253.57,341.48 253.38,342.66 252.74,346.72 236.86,344.21 237.5,340.14 237.62,339.43 
				237.69,338.96 238.85,339.14 			"/>
			<polygon class="st5" points="237.69,338.96 237.62,339.43 237.5,340.14 236.86,344.21 235.33,343.96 235.97,339.9 236.09,339.18 
				236.16,338.72 			"/>
			
				<rect x="218.38" y="337.84" transform="matrix(0.1566 -0.9877 0.9877 0.1566 -146.8528 504.4802)" class="st5" width="7.15" height="0.77"/>
			
				<rect x="219.27" y="338.06" transform="matrix(0.1566 -0.9877 0.9877 0.1566 -148.721 503.7174)" class="st38" width="2.58" height="1.75"/>
			
				<rect x="229.05" y="328.73" transform="matrix(0.1566 -0.9877 0.9877 0.1566 -138.5882 510.4564)" class="st5" width="1.1" height="15.31"/>
		</g>
	</g>
</g>
</svg>
