<?xml version="1.0" encoding="utf-8"?>
<!-- Generator: Adobe Illustrator 24.2.2, SVG Export Plug-In . SVG Version: 6.00 Build 0)  -->
<svg version="1.1" id="Layer_1" xmlns="http://www.w3.org/2000/svg" xmlns:xlink="http://www.w3.org/1999/xlink" x="0px" y="0px"
	 viewBox="0 0 60 60" style="enable-background:new 0 0 60 60;" xml:space="preserve">
<style type="text/css">
	.st0{fill:#FFA800;}
</style>
<path class="st0" d="M19.5,11.6c0-1.7,0.1-3.3,0-4.9c-0.1-2.3,1.6-3.8,3.7-3.7c4.5,0.1,9,0,13.5,0c2.1,0,3.4,1.4,3.4,3.5
	c0,1.5,0,2.9,0,4.4c0,0.2,0,0.4,0,0.7c0.3,0,0.6,0,0.8,0c4.2,0,8.4,0,12.7,0c2.8,0,4.9,1.7,5.3,4.4c0.1,0.9,0.1,1.8,0.1,2.8
	c0,10.8,0,21.6,0,32.3c0,3.1-2.1,5.2-5.1,5.2c-15.9,0-31.7,0-47.6,0C3,56.3,1,54.2,1,50.9c0-7.4,0-14.8,0-22.2c0-3.9,0-7.9,0-11.8
	c0-2.6,1.7-4.7,4.1-5.2c0.5-0.1,0.9-0.1,1.4-0.1c4,0,8.1,0,12.1,0C18.9,11.6,19.2,11.6,19.5,11.6z M3.3,31.1c0,3.7,0,5.6,0,9.3
	c0,3.6,0,7.1,0,10.7c0,1.4,0.7,2.5,1.9,2.8C5.6,54,6.1,54,6.5,54c9,0,18.1,0,27.1,0c6.7,0,13.4,0,20.1,0c0.9,0,1.7-0.1,2.3-0.8
	c0.6-0.6,0.8-1.4,0.8-2.3c0-7.2,0-12.5,0-19.8L30.4,37L3.3,31.1z M37.8,11.5c0-1.6,0-3.2,0-4.7c0-1.3-0.2-1.5-1.5-1.5
	c-4.3,0-8.6,0-13,0c-0.2,0-0.4,0-0.5,0c-0.7,0-1,0.4-1,1.1c0,1.3,0,2.5,0,3.8c0,0.4,0,0.9,0,1.3C27.2,11.5,32.4,11.5,37.8,11.5z"/>
<path class="st0" d="M32.1,42.6h-5.2c-0.9,0-1.6-0.7-1.6-1.6v-6c0-0.9,0.7-1.6,1.6-1.6h5.2c0.9,0,1.6,0.7,1.6,1.6v6
	C33.7,41.8,33,42.6,32.1,42.6z"/>
</svg>
