<?xml version="1.0" encoding="utf-8"?>
<!-- Generator: Adobe Illustrator 24.1.1, SVG Export Plug-In . SVG Version: 6.00 Build 0)  -->
<svg version="1.1" id="Layer_1" xmlns="http://www.w3.org/2000/svg" xmlns:xlink="http://www.w3.org/1999/xlink" x="0px" y="0px"
	 viewBox="0 0 8192 8192" style="enable-background:new 0 0 8192 8192;" xml:space="preserve">
<style type="text/css">
	.st0{fill:#FFA800;}
</style>
<path class="st0" d="M7259,6957.4c-1750.9,0-3460.7,0-5197.9,0c71.1-301,103.9-596.4,407.6-757.8c35.5-19.1,60.2-73.9,73.9-117.7
	c60.2-218.8,90.3-445.9,169.6-653.9c372.1-965.7,1228.4-1285.8,2139.4-1222.9c574.5,38.3,1077.9,235.2,1444.4,708.5
	c251.7,322.9,391.3,692.1,440.4,1094.3c13.6,98.5,24.6,172.3,134.1,221.6c76.5,35.5,150.4,120.4,188.8,202.5
	C7135.9,6593.5,7187.8,6763.2,7259,6957.4z M2999.4,5767.3c19.2,27.4,49.2,62.9,76.6,103.9c46.5-46.5,117.6-84.8,134-142.3
	c103.9-361.1,320.1-640.1,626.5-839.8c153.2-98.5,333.8-155.9,495.2-240.7c46.5-24.6,73.9-87.5,109.4-131.3
	c-57.4-13.6-117.6-49.3-169.6-35.5c-350.2,84.8-653.8,257.1-897.3,522.6C3182.7,5209.2,3065,5458.2,2999.4,5767.3z M2490.5,6371.9
	c-2.7,19.1-5.5,41-8.2,60.2c43.7,19.1,87.6,52,131.3,52c298.2,5.5,596.4,8.1,894.6,2.7c38.3,0,76.6-49.3,114.9-73.9
	c-41-24.6-82.1-62.9-125.8-65.7c-268.1-5.5-536.2-2.7-804.3,0C2624.6,6347.3,2556.2,6360.9,2490.5,6371.9z"/>
<path class="st0" d="M6290.6,2498c-489.7,352.9-856.3-65.7-1269.4-218.9c199.7-19.2,402.2-27.4,599.1-60.2
	c224.3-35.5,429.5-117.6,500.7-366.6c54.8-194.2,5.5-336.5-177.8-413.1c-144.9-60.2-306.4-106.7-462.3-112.1
	c-500.7-16.4-1001.3-19.2-1501.9-5.5c-298.2,8.2-525.2,197-782.5,402.1c265.4-46.5,489.7-106.7,714.1-117.6
	c506.1-19.2,1012.2-21.9,1518.4-13.7c150.4,2.7,388.5-5.5,388.5,191.5c0,207.9-246.2,156-388.5,177.8
	c-186.1,27.4-380.3,16.4-571.7,19.2c-328.3,2.7-632,84.8-916.5,257.1c-248.9,150.5-511.6,279.1-771.5,413.1
	c-279.1,147.7-577.3,199.7-883.6,109.4c-484.2-142.3-963-298.2-1471.8-459.6c273.6-470.5,530.7-916.5,793.3-1370.6
	c172.3,79.3,333.8,150.5,492.5,227.1c156,73.9,306.4,73.9,467.8,11c487-188.8,976.7-374.8,1463.7-566.3
	c374.8-147.7,735.9-147.7,1102.5,41c845.3,435,1698.9,859,2547,1291.3c95.8,49.2,188.8,106.7,268.1,175.1
	c134.1,114.9,123.2,292.7-41,342c-155.9,46.5-333.8,27.4-503.3,19.2c-82-2.7-158.7-43.7-238-68.4
	C7056.5,2659.4,6804.9,2747,6290.6,2498z"/>
<path class="st0" d="M1357.9,7693.3c197-213.3,352.9-372,637.5-369.4c1789.2,8.1,3578.4,5.5,5367.6,5.5
	c257.1,0,396.7,164.2,563.6,366.5C5727,7693.3,3565.7,7693.3,1357.9,7693.3z"/>
<path class="st0" d="M969.4,495.5c142.3,95.8,265.4,175.1,393.9,262.6c-257.1,470.5-503.4,927.4-763.3,1381.6
	c-24.6,41-109.4,73.9-164.2,68.4c-90.3-8.2-177.8-52-287.3-87.6C430.5,1567.9,698.6,1034.4,969.4,495.5z"/>
<path class="st0" d="M5188,2818.1c0,95.8,0,164.2,0,251.7c-131.3,5.5-260,11-396.7,16.4c-13.6,84.8-21.9,161.4-35.5,243.5
	c-76.5,0-153.2,0-238,0c-5.5-76.6-11-153.2-19.1-246.2c-123.1,0-243.5,0-377.5,0c0-98.5,0-177.8,0-265.4
	C4474,2818.1,4821.4,2818.1,5188,2818.1z"/>
<path class="st0" d="M4643.6,4019.1c-49.3,0-98.5,8.2-142.3-2.7c-82.1-21.9-210.7-38.3-227.1-87.6c-27.4-82.1-5.5-205.2,41-284.5
	c82.1-142.3,232.6-175.1,391.3-153.2c153.2,19.2,270.9,87.6,325.5,240.7c62.9,183.3,2.7,273.6-188.8,284.5
	C4774.9,4019.1,4709.2,4016.4,4643.6,4019.1C4643.6,4016.4,4643.6,4016.4,4643.6,4019.1z"/>
</svg>
