<?xml version="1.0" encoding="utf-8"?>
<!-- Generator: Adobe Illustrator 24.1.1, SVG Export Plug-In . SVG Version: 6.00 Build 0)  -->
<svg version="1.0" id="Layer_1" xmlns="http://www.w3.org/2000/svg" xmlns:xlink="http://www.w3.org/1999/xlink" x="0px" y="0px"
	 viewBox="0 0 60 60" style="enable-background:new 0 0 60 60;" xml:space="preserve">
<style type="text/css">
	.st0{fill:#FFA800;}
</style>
<path class="st0" d="M48.92,51.98h-8.33c-0.01-0.08-0.02-0.14-0.02-0.2c0-1.48,0-2.97,0.01-4.45c0-0.12,0.04-0.26,0.11-0.37
	c0.66-1.04,1.33-2.08,1.98-3.13c0.09-0.14,0.12-0.33,0.12-0.49c0.01-1.24,0.01-2.49,0-3.73c0-0.16,0.03-0.27,0.17-0.38
	c0.4-0.3,0.53-0.8,0.36-1.25s-0.6-0.74-1.08-0.72c-0.46,0.02-0.88,0.34-1.01,0.79c-0.14,0.47,0.02,0.95,0.43,1.22
	c0.14,0.09,0.18,0.18,0.18,0.34c-0.01,1.18,0,2.35-0.01,3.53c0,0.14-0.05,0.29-0.12,0.41c-0.64,1.02-1.3,2.04-1.94,3.06
	c-0.09,0.15-0.15,0.35-0.15,0.53c-0.01,1.55-0.01,3.1-0.01,4.65c0,0.1,0,0.2,0,0.33c-0.51,0.09-1.01,0.17-1.54,0.26
	c0.56-0.95,0.48-1.97,0.41-2.97c-0.05-0.78-0.19-1.54-0.28-2.32c-0.03-0.23-0.13-0.29-0.35-0.29c-0.7,0-1.39-0.01-2.09-0.03
	c-1.12-0.03-1.8-0.62-2.09-1.68c-0.1-0.36-0.17-0.72-0.26-1.1c0.11-0.01,0.19-0.01,0.26-0.02c0.9,0,1.79,0,2.69,0
	c0.14,0,0.23,0.04,0.32,0.16c0.27,0.38,0.66,0.53,1.11,0.44s0.74-0.37,0.85-0.81c0.11-0.43,0-0.82-0.35-1.09
	c-0.18-0.14-0.27-0.29-0.25-0.52c0.02-0.21-0.09-0.34-0.31-0.34c-0.2,0-0.33,0.1-0.31,0.38c0.09-0.04,0.16-0.07,0.23-0.1
	c0.04-0.02,0.09-0.02,0.14-0.03c-0.01,0.05,0.01,0.13-0.02,0.15c-0.09,0.07-0.19,0.14-0.3,0.16c-0.35,0.07-0.63,0.23-0.84,0.53
	c-0.04,0.05-0.12,0.1-0.17,0.1c-1.01,0-2.02,0-3.03,0c-0.02,0-0.03-0.01-0.08-0.03c-0.01-0.35-0.04-0.71-0.03-1.07
	c0-0.2-0.05-0.29-0.26-0.34c-0.52-0.12-1.04-0.28-1.56-0.42c-0.06-0.02-0.11-0.03-0.17-0.05c-0.72-0.27-0.84-0.64-0.39-1.25
	c0.55-0.75,1.1-1.5,1.64-2.25c0.07-0.09,0.12-0.22,0.12-0.34c0.05-0.86,0.15-1.72,0.39-2.55c0.02-0.08,0.05-0.16,0.08-0.25
	c0.63,0.15,1.25,0.33,1.87,0.42c0.68,0.09,1.13,0.41,1.43,1.01c0.1,0.2,0.18,0.33,0.08,0.57c-0.25,0.59,0.12,1.25,0.74,1.42
	c0.62,0.17,1.26-0.23,1.37-0.85c0.12-0.65-0.32-1.26-0.97-1.31c-0.18-0.01-0.27-0.08-0.36-0.23c-0.2-0.33-0.43-0.65-0.64-0.98
	c-0.12-0.19-0.28-0.29-0.49-0.34c-0.86-0.19-1.71-0.4-2.56-0.6c-0.04-0.01-0.08-0.02-0.11-0.03c0.14-0.62,1.12-2.13,1.74-2.69
	c0.59,0.62,1.22,1.22,1.76,1.88c0.58,0.7,1.27,1.16,2.14,1.38c0.14,0.03,0.26,0.1,0.4,0.14c0.3,0.09,0.53,0.2,0.67,0.56
	c0.23,0.58,0.96,0.76,1.5,0.45c0.54-0.31,0.73-1.01,0.41-1.53c-0.34-0.55-1.03-0.72-1.55-0.35c-0.17,0.12-0.29,0.13-0.47,0.06
	c-0.37-0.15-0.74-0.29-1.12-0.4c-0.39-0.11-0.69-0.32-0.96-0.62c-0.63-0.69-1.28-1.37-1.92-2.05c-0.05-0.05-0.1-0.11-0.16-0.18
	c0.55-0.46,1.11-0.86,1.8-1.07c0.09,0.12,0.09,0.13-0.08,0.24c-0.18,0.11-0.28,0.26-0.25,0.47c0.03,0.16,0.12,0.23,0.29,0.18
	c0.02-0.01,0.05-0.04,0.06-0.04c0.43,0.16,0.26-0.18,0.28-0.34c0.02-0.23,0-0.46,0-0.7c2.41-1.09,5.72-0.75,7.89,1.24
	c-0.22,0.2-0.41,0.44-0.66,0.59c-0.14,0.09-0.36,0.05-0.55,0.06c-0.19,0.02-0.32-0.03-0.45-0.21c-0.38-0.51-1.14-0.55-1.61-0.12
	c-0.47,0.44-0.47,1.18,0,1.62c0.46,0.43,1.22,0.39,1.61-0.12c0.13-0.18,0.27-0.22,0.47-0.22c1.01,0,0.7,0.13,1.48-0.58
	c0.13-0.12,0.26-0.23,0.42-0.38c2.32,2.79,2.73,5.98,2.08,9.45L48.92,51.98z M45.15,35.32c-0.27,0.16-0.28,0.19-0.22,0.43
	c0.06-0.03,0.12-0.07,0.18-0.09c0.04-0.02,0.09-0.02,0.14-0.03c-0.01,0.05,0.01,0.12-0.02,0.15c-0.07,0.07-0.19,0.11-0.23,0.19
	c-0.06,0.12-0.1,0.27-0.1,0.41c0,0.05,0.1,0.14,0.16,0.15c0.14,0.01,0.29-0.01,0.45-0.03c0-0.21,0-0.43,0-0.66
	c0.2,0.01,0.2,0.13,0.2,0.26c0,1.29,0,2.59,0,3.88c0,0.44,0.58,0.82,0.98,0.63c0.48-0.22,0.98-0.31,1.5-0.3
	c0.06,0,0.12-0.01,0.18-0.02c-0.49-0.19-0.97-0.36-1.46-0.5c-0.19-0.05-0.24-0.13-0.24-0.33c0.01-1.1,0.01-2.2,0-3.31
	c0-0.16,0.03-0.26,0.18-0.37c0.5-0.36,0.6-1.03,0.25-1.52c-0.34-0.48-0.99-0.61-1.5-0.29C45.16,34.23,45.02,34.67,45.15,35.32z"/>
<path class="st0" d="M23.47,4.19c4.76,0,9.52,0,14.28,0c2.35,0,3.76,1.41,3.77,3.75c0,5.3,0,10.6,0,15.9c0,1.65-0.9,2.94-2.38,3.4
	c-0.39,0.12-0.81,0.18-1.22,0.18c-9.67,0.01-19.33,0.01-29,0.01c-2.1,0-3.57-1.47-3.57-3.56c-0.01-5.37-0.01-10.74,0-16.12
	c0-2.09,1.48-3.56,3.57-3.56C13.76,4.19,18.62,4.19,23.47,4.19z M39.84,22.28c0-0.22,0-0.38,0-0.54c0-4.64,0-9.27,0-13.91
	c0-1.28-0.69-1.96-1.97-1.96c-9.61,0-19.22,0-28.84,0c-1.35,0-2.02,0.67-2.02,2.01c0,4.6,0,9.2,0,13.8c0,0.19,0,0.38,0,0.6
	C17.98,22.28,28.87,22.28,39.84,22.28z"/>
<path class="st0" d="M24.25,44.73c0,0.59,0,1.09,0,1.68c-0.19,0-0.38,0-0.57,0c-3.16,0-6.32,0-9.48,0c-2.7,0-4.54-1.84-4.55-4.52
	c0-2.42,0-4.85,0-7.27c0-0.21,0-0.42,0-0.71c-0.64,0.7-1.22,1.34-1.82,2c-0.51-0.55-0.87-0.94-1.21-1.32
	c1.26-1.24,2.58-2.55,3.88-3.84c1.25,1.26,2.57,2.59,3.9,3.93c-0.33,0.31-0.71,0.67-1.21,1.13c-0.57-0.62-1.15-1.26-1.83-2
	c-0.02,0.31-0.04,0.48-0.04,0.65c0,2.5,0,4.99,0,7.49c0,1.7,1.09,2.77,2.81,2.77c3.14,0,6.29,0,9.43,0
	C23.78,44.73,23.99,44.73,24.25,44.73z"/>
<path class="st0" d="M43.31,15.36c0-0.58,0-1.09,0-1.63c0.09-0.02,0.18-0.04,0.26-0.04c1.63,0,3.27-0.03,4.9,0
	c2.42,0.05,4.24,1.93,4.25,4.38c0.01,3.63,0,7.26,0,10.88c0,0.21,0,0.42,0,0.62c0.04,0.02,0.08,0.04,0.13,0.07
	c0.58-0.65,1.15-1.3,1.76-1.98c0.48,0.53,0.83,0.92,1.18,1.31c-1.28,1.27-2.6,2.58-3.91,3.87c-1.27-1.28-2.58-2.6-3.9-3.93
	c0.33-0.31,0.71-0.67,1.15-1.08c0.54,0.58,1.13,1.22,1.72,1.87c0.06-0.03,0.13-0.06,0.19-0.09c0-0.16,0-0.33,0-0.49
	c0-3.66,0-7.33,0-10.99c0-1.67-1.09-2.75-2.77-2.75C46.64,15.35,45.01,15.36,43.31,15.36z"/>
<path class="st0" d="M16.58,34.3c0-0.54,0-1.05,0-1.65c0.77,0,1.53-0.02,2.3,0.01c0.4,0.02,0.57-0.11,0.67-0.5
	c0.22-0.87,0.49-1.72,0.72-2.59c0.07-0.26,0.17-0.38,0.47-0.38c1.8,0.01,3.59,0.01,5.39,0c0.29,0,0.4,0.1,0.47,0.37
	c0.22,0.85,0.49,1.68,0.71,2.53c0.1,0.41,0.27,0.59,0.73,0.56c0.73-0.05,1.47-0.01,2.24-0.01c0,0.56,0,1.09,0,1.65
	C25.72,34.3,21.18,34.3,16.58,34.3z"/>
<path class="st0" d="M35.47,10.23c-0.02,1.03-0.93,1.78-1.97,1.65c-0.17-0.02-0.39,0.04-0.52,0.14c-1.39,1.19-2.77,2.4-4.14,3.61
	c-0.15,0.13-0.25,0.38-0.26,0.59c-0.07,0.97-0.75,1.69-1.67,1.72c-0.87,0.03-1.6-0.65-1.75-1.58c-0.03-0.21-0.18-0.46-0.35-0.6
	c-1.25-0.97-2.51-1.92-3.79-2.84c-0.2-0.14-0.51-0.13-0.77-0.18c-0.03-0.01-0.07,0.03-0.1,0.02c-0.83-0.26-1.26,0.38-1.77,0.81
	c-1.09,0.94-2.16,1.89-3.25,2.83c-0.25,0.21-0.37,0.42-0.38,0.77c-0.03,0.98-0.91,1.74-1.83,1.63c-0.95-0.11-1.66-0.97-1.54-1.88
	c0.13-0.98,0.97-1.61,1.96-1.48c0.17,0.02,0.39-0.03,0.52-0.14c1.4-1.21,2.8-2.42,4.18-3.65c0.13-0.12,0.21-0.36,0.23-0.55
	c0.07-0.98,0.74-1.69,1.67-1.72c0.88-0.03,1.59,0.64,1.75,1.58c0.04,0.21,0.17,0.47,0.34,0.6c1.26,0.98,2.54,1.94,3.84,2.87
	c0.17,0.13,0.45,0.12,0.68,0.17c0.05,0.01,0.11-0.04,0.16-0.03c0.84,0.26,1.26-0.37,1.77-0.81c1.09-0.94,2.16-1.9,3.25-2.83
	c0.24-0.21,0.37-0.42,0.38-0.77c0.02-0.94,0.81-1.67,1.72-1.64C34.73,8.53,35.49,9.33,35.47,10.23z"/>
</svg>
