<svg xmlns="http://www.w3.org/2000/svg" viewBox="0 0 143.84 41.21"><g id="Layer_2" data-name="Layer 2"><g id="Layer_1-2" data-name="Layer 1"><path d="M5.85,36.89v-5l-1.37-.1H3a4.1,4.1,0,0,0-1.76.31,1.77,1.77,0,0,0-.92,1A5.05,5.05,0,0,0,0,35a4.62,4.62,0,0,0,.3,1.87,1.89,1.89,0,0,0,1,1,4.51,4.51,0,0,0,1.78.3H7.22V36.89Zm-1.15,0H3.19A2.84,2.84,0,0,1,2,36.69,1.23,1.23,0,0,1,1.38,36a3.55,3.55,0,0,1-.19-1.25,3.1,3.1,0,0,1,.19-1.21A1.2,1.2,0,0,1,2,32.92a2.69,2.69,0,0,1,1.15-.2,12.19,12.19,0,0,1,1.56.08Z"/><rect x="3.57" y="29.49" width="1.03" height="1.19"/><rect x="1.93" y="29.49" width="1.05" height="1.19"/><rect x="8.27" y="38.96" width="1.05" height="1.18"/><rect x="9.92" y="38.96" width="1.03" height="1.18"/><polygon points="10.21 36.93 10.21 31.83 9.05 31.83 9.05 36.93 7.21 36.93 7.21 37.98 12.05 37.98 12.05 36.93 10.21 36.93"/><polygon points="13.56 36.93 12.05 36.93 12.05 37.98 14.73 37.98 14.73 29.22 13.56 29.22 13.56 36.93"/><polygon points="18.03 36.93 18.03 29.22 16.87 29.22 16.87 37.98 19.2 37.98 19.2 36.93 18.03 36.93"/><path d="M27.43,36.89a1.07,1.07,0,0,1-.52-.14,1.13,1.13,0,0,1-.36-.36v-1.5a3.52,3.52,0,0,0-.7-2.45,3,3,0,0,0-2.29-.75,5.38,5.38,0,0,0-1.26.12,5,5,0,0,0-.92.24,9.59,9.59,0,0,0-.24,1.32A10.27,10.27,0,0,0,21,34.94a11.18,11.18,0,0,0,.17,2h-2V38h7.34v-.51a1.22,1.22,0,0,0,.42.36,1,1,0,0,0,.46.15h.48v-1.1Zm-2.05,0h-3c0-.22-.07-.51-.11-.88a10.14,10.14,0,0,1-.06-1.1,12.21,12.21,0,0,1,.19-2.09,4.79,4.79,0,0,1,1-.11,2,2,0,0,1,1.51.5,2.31,2.31,0,0,1,.47,1.63Z"/><polygon points="29.42 36.93 27.91 36.93 27.91 37.98 30.59 37.98 30.59 29.22 29.42 29.22 29.42 36.93"/><rect x="32.73" y="29.22" width="1.17" height="8.76"/><rect x="45.8" y="29.49" width="1.03" height="1.19"/><path d="M46.28,31.89h-1a3.89,3.89,0,0,0-1.75.32,1.77,1.77,0,0,0-.9,1,6,6,0,0,0-.26,1.93,5.44,5.44,0,0,0,.23,1.79,1.38,1.38,0,0,0,.72.85,3.32,3.32,0,0,0,1.39.24H46.4v.25A2,2,0,0,1,46,39.63a1.8,1.8,0,0,1-1.4.5h-3.4a1.8,1.8,0,0,1-1.39-.5,2.08,2.08,0,0,1-.45-1.37,8.32,8.32,0,0,1,.1-1.12c.07-.5.15-1,.23-1.56l.09-.54-1.1-.17a24,24,0,0,0-.47,3.59,3,3,0,0,0,.34,1.4,2.47,2.47,0,0,0,1,1,3.61,3.61,0,0,0,1.62.35h3.53a3.68,3.68,0,0,0,1.63-.35,2.53,2.53,0,0,0,1-1,2.83,2.83,0,0,0,.34-1.39V32h-.44c-.23,0-.53,0-.89-.07M46.45,37H45.1a2.3,2.3,0,0,1-.9-.15.91.91,0,0,1-.46-.54,3.39,3.39,0,0,1-.15-1.18,4.07,4.07,0,0,1,.16-1.3,1.2,1.2,0,0,1,.57-.68,2.2,2.2,0,0,1,1.1-.22,6.49,6.49,0,0,1,1,.06Z"/><rect x="44.15" y="29.49" width="1.05" height="1.19"/><rect x="49.5" y="29.22" width="1.17" height="8.76"/><path d="M54.05,38.3a2.24,2.24,0,0,1-.28,1.24,1,1,0,0,1-.83.44c-.22,0-.45,0-.67,0v1h.3c.2,0,.41,0,.61,0a1.73,1.73,0,0,0,1.53-.77,4.1,4.1,0,0,0,.5-2.22v-6.1H54.05Z"/><path d="M59.23,31.59a3.13,3.13,0,0,0-1.59.34A1.91,1.91,0,0,0,56.8,33a6.35,6.35,0,0,0-.26,1.94A4.77,4.77,0,0,0,57,37.1a1.89,1.89,0,0,0,1.87.88h1.69a4.54,4.54,0,0,1-.14,1.27,1,1,0,0,1-.39.58,1.33,1.33,0,0,1-.68.15,12.76,12.76,0,0,1-1.85-.2v1a18,18,0,0,0,1.94.2,1.84,1.84,0,0,0,1.81-1,6.79,6.79,0,0,0,.49-2.88V31.89q-.46-.09-1.2-.18c-.49-.05-.92-.08-1.3-.08M60.56,37H59.24A1.29,1.29,0,0,1,58,36.4a3.21,3.21,0,0,1-.29-1.46,2.93,2.93,0,0,1,.4-1.74,1.6,1.6,0,0,1,1.38-.52,6.35,6.35,0,0,1,1.07.09Z"/><polygon points="67.79 36.93 65.65 36.93 65.65 30.88 64.48 30.88 64.48 36.93 62.92 36.93 62.92 37.98 68.94 37.98 68.94 29.22 67.79 29.22 67.79 36.93"/><rect x="70.96" y="29.22" width="1.17" height="8.76"/><path d="M81.82,38.23a1.56,1.56,0,0,1-.6,1.28,2.32,2.32,0,0,1-1.48.47,2.78,2.78,0,0,1-1.1-.23,2,2,0,0,1-.78-.62,1.55,1.55,0,0,1-.28-.9,12.46,12.46,0,0,1,.13-1.37c.08-.68.19-1.41.31-2.19l-1.11-.06a29.11,29.11,0,0,0-.48,3.72,2.36,2.36,0,0,0,.44,1.38,3,3,0,0,0,1.2,1,4.2,4.2,0,0,0,1.71.36,4.3,4.3,0,0,0,1.63-.32,2.75,2.75,0,0,0,1.15-.93A2.37,2.37,0,0,0,83,38.41V29.26H81.82Z"/><path d="M87.24,31.59a3.13,3.13,0,0,0-1.59.34A1.91,1.91,0,0,0,84.81,33a6.68,6.68,0,0,0-.26,1.94A4.77,4.77,0,0,0,85,37.1a1.89,1.89,0,0,0,1.87.88h1.69a4.54,4.54,0,0,1-.14,1.27,1,1,0,0,1-.39.58,1.33,1.33,0,0,1-.68.15,12.76,12.76,0,0,1-1.85-.2v1a18,18,0,0,0,1.94.2,1.84,1.84,0,0,0,1.81-1,6.79,6.79,0,0,0,.49-2.88V31.89q-.46-.09-1.2-.18c-.49-.05-.92-.08-1.3-.08M88.57,37H87.25A1.29,1.29,0,0,1,86,36.4a3.21,3.21,0,0,1-.29-1.46,2.93,2.93,0,0,1,.4-1.74,1.6,1.6,0,0,1,1.38-.52,6.35,6.35,0,0,1,1.07.09Z"/><rect x="91.5" y="29.22" width="1.17" height="8.76"/><path d="M99.42,36.89V35.7A5.66,5.66,0,0,0,99,33.3a2.92,2.92,0,0,0-1.14-1.36,3.15,3.15,0,0,0-1.61-.42,5.25,5.25,0,0,0-.79.06,3.19,3.19,0,0,0-.6.12l.09.87H96a2.08,2.08,0,0,1,1.58.72,3.57,3.57,0,0,1,.68,2.47v1.13h-4v1h6.39v-1Z"/><rect x="103.33" y="29.49" width="1.03" height="1.19"/><rect x="101.69" y="29.49" width="1.05" height="1.19"/><polygon points="103.62 36.93 103.62 31.83 102.45 31.83 102.45 36.93 100.62 36.93 100.62 37.98 105.45 37.98 105.45 36.93 103.62 36.93"/><polygon points="105.45 37.98 105.45 37.98 105.45 36.93 105.45 37.98"/><polygon points="106.96 36.93 105.45 36.93 105.45 37.98 108.13 37.98 108.13 29.22 106.96 29.22 106.96 36.93"/><rect x="120.36" y="29.48" width="1.12" height="1.2"/><path d="M121,31.89a4.62,4.62,0,0,0-1.8.28,1.78,1.78,0,0,0-.94,1,5,5,0,0,0-.28,1.88,5.22,5.22,0,0,0,.28,2h-2.63a3.33,3.33,0,0,1-1.7-.31,1.13,1.13,0,0,1-.47-1,12.84,12.84,0,0,1,.17-1.64l.1-.73-.93,0c-.1.42-.2.89-.27,1.4a9.09,9.09,0,0,0-.12,1.28,2.07,2.07,0,0,0,.36,1.3,2,2,0,0,0,1.07.64,7.7,7.7,0,0,0,1.85.19h7.52v-6h-.45a12.46,12.46,0,0,0-1.73-.09m1,5.09h-2.47a2.17,2.17,0,0,1-.3-.68,5.42,5.42,0,0,1-.11-1.2,4.5,4.5,0,0,1,.15-1.32,1.08,1.08,0,0,1,.53-.67,2.27,2.27,0,0,1,1.12-.21q.3,0,1.08.06Z"/><rect x="124.96" y="29.22" width="1.17" height="8.76"/><path d="M136.27,36.89v-5l-1.38-.1H133.4a4.1,4.1,0,0,0-1.76.31,1.84,1.84,0,0,0-.92,1,6.21,6.21,0,0,0,0,3.72,1.89,1.89,0,0,0,.95,1,4.51,4.51,0,0,0,1.78.3h4.2V36.89Zm-1.16,0h-1.46a2.8,2.8,0,0,1-1.18-.2,1.13,1.13,0,0,1-.62-.65,4.18,4.18,0,0,1,0-2.46,1.2,1.2,0,0,1,.61-.66,2.66,2.66,0,0,1,1.15-.2,12,12,0,0,1,1.56.08Z"/><rect x="138.7" y="38.96" width="1.05" height="1.18"/><polygon points="140.63 31.83 139.46 31.83 139.46 36.93 137.63 36.93 137.63 37.98 140.63 37.98 140.63 31.83"/><rect x="140.35" y="38.96" width="1.03" height="1.18"/><rect x="142.65" y="29.22" width="1.17" height="8.76"/><rect x="99.87" y="0.05" width="2.43" height="2.67"/><rect x="115" y="0.05" width="2.43" height="2.67"/><path d="M3.65,14.28H11l1.14,4.26h2.51L9.94.34H4.7L0,18.54H2.51Zm3-11.8H8L10.48,12H4.18Z"/><polygon points="28.54 2.56 28.54 0.34 17.43 0.34 17.43 18.54 19.97 18.54 19.97 11.35 27.14 11.35 27.14 9.12 19.97 9.12 19.97 2.56 28.54 2.56"/><path d="M46.19,9.2a12.32,12.32,0,0,0-3-1.06,21.29,21.29,0,0,1-2.73-.78,3.08,3.08,0,0,1-1.31-.91,2.56,2.56,0,0,1-.41-1.54q0-2.64,3.63-2.64a51.14,51.14,0,0,1,5.24.42L47.82.63C46.44.4,45.34.24,44.5.15A20.39,20.39,0,0,0,42.16,0a6.69,6.69,0,0,0-4.45,1.27A4.68,4.68,0,0,0,36.2,5.07a5.22,5.22,0,0,0,.56,2.57,4.16,4.16,0,0,0,1.75,1.6,15,15,0,0,0,3.33,1.12A14.61,14.61,0,0,1,44.1,11a2.2,2.2,0,0,1,1.55,2.32q0,3.26-3.57,3.25a47.52,47.52,0,0,1-5.45-.47l-.27,2,1,.16a32.43,32.43,0,0,0,4.92.5,6.24,6.24,0,0,0,4.43-1.43,5.57,5.57,0,0,0,1.52-4.23,5.07,5.07,0,0,0-.49-2.43,3.59,3.59,0,0,0-1.55-1.51"/><path d="M56.32,5A5,5,0,0,0,52,6.81c-.93,1.18-1.4,3-1.39,5.46a7.9,7.9,0,0,0,1.29,5c.86,1.06,2.31,1.57,4.34,1.57a32.25,32.25,0,0,0,5-.53l-.05-1.9-.74.08c-.55.05-1.17.09-1.85.11s-1.31,0-1.86,0a5.47,5.47,0,0,1-2.16-.34,2.15,2.15,0,0,1-1.12-1.12,6,6,0,0,1-.37-2.21h8.44l.16-1.8C61.72,7,59.92,5,56.32,5M53.1,11a4.82,4.82,0,0,1,.79-3,3,3,0,0,1,2.43-.94,2.65,2.65,0,0,1,2.27.9A5.23,5.23,0,0,1,59.26,11Z"/><path d="M70.21,16.61A4.58,4.58,0,0,1,68,16.16a2.42,2.42,0,0,1-1.08-1.43,10,10,0,0,1-.3-2.78,10.58,10.58,0,0,1,.3-2.86A2.25,2.25,0,0,1,68,7.67a4.4,4.4,0,0,1,2.17-.43c.61,0,1.67.07,3.17.21l.08-2c-1-.2-1.77-.33-2.36-.39A14.88,14.88,0,0,0,69.39,5c-2,0-3.4.6-4.16,1.81a9.49,9.49,0,0,0-1.15,5.09,12.6,12.6,0,0,0,.51,4,4,4,0,0,0,1.7,2.23,6.08,6.08,0,0,0,3.13.71,26.91,26.91,0,0,0,4-.45l-.08-2Z"/><path d="M76.14,5.31v6.91a16,16,0,0,0,.37,3.9,3.47,3.47,0,0,0,1.3,2.06,4.6,4.6,0,0,0,2.64.65,7.11,7.11,0,0,0,2-.26,10.28,10.28,0,0,0,2-.9v.87h2.46V5.31H84.4V15.79a12.48,12.48,0,0,1-1.68.61,6.63,6.63,0,0,1-1.66.21,2.79,2.79,0,0,1-1.57-.37,2,2,0,0,1-.7-1.29,14.69,14.69,0,0,1-.19-2.73V5.31Z"/><path d="M97.65,7.51V5A13.23,13.23,0,0,0,93,7V5.35H90.56V18.58H93V9.13l.63-.29a17.21,17.21,0,0,1,1.85-.71,17.47,17.47,0,0,1,2.15-.58"/><rect x="99.87" y="5.31" width="2.46" height="13.23"/><path d="M112.65,16.5l-2.25.13a1.34,1.34,0,0,1-1.53-1.12.88.88,0,0,1,0-.16,14.48,14.48,0,0,1-.09-1.86V7.43h3.89V5.31h-3.89V1.37H106.3V5.31h-1.77V7.43h1.77v6.51a10,10,0,0,0,.34,2.93,2.53,2.53,0,0,0,1.13,1.51,4.46,4.46,0,0,0,2.18.45,19.56,19.56,0,0,0,2.86-.32Z"/><rect x="115" y="5.31" width="2.46" height="13.23"/><path d="M130.91,16.4l-.74.08c-.55.05-1.17.09-1.86.11s-1.3,0-1.85,0a5.52,5.52,0,0,1-2.17-.34,2.13,2.13,0,0,1-1.11-1.12,6,6,0,0,1-.37-2.21h8.44l.16-1.8C131.41,7,129.61,5,126,5a5.1,5.1,0,0,0-4.3,1.78,8.93,8.93,0,0,0-1.39,5.47,7.91,7.91,0,0,0,1.3,5c.86,1.05,2.31,1.57,4.34,1.57a32.25,32.25,0,0,0,5-.53ZM123.58,8A3,3,0,0,1,126,7.08a2.62,2.62,0,0,1,2.26.9,5.24,5.24,0,0,1,.68,3h-6.17a4.83,4.83,0,0,1,.8-3"/><path d="M143.38,12.59a2.7,2.7,0,0,0-1.32-1.13,11.55,11.55,0,0,0-2.45-.67l-.74-.14c-.52-.09-1-.2-1.55-.34a2.13,2.13,0,0,1-.88-.49,1.26,1.26,0,0,1-.35-.94c0-1.09.9-1.64,2.7-1.64a33,33,0,0,1,4.55.43l0-2.07-.76-.16a24.41,24.41,0,0,0-4-.39c-3.35,0-5,1.36-5,4.1a3.43,3.43,0,0,0,.48,1.95,3,3,0,0,0,1.36,1.09,10.89,10.89,0,0,0,2.39.61l.64.1a14,14,0,0,1,1.59.33,2.21,2.21,0,0,1,.91.53,1.38,1.38,0,0,1,.36,1.05,1.48,1.48,0,0,1-.72,1.37,4.15,4.15,0,0,1-2.11.43,39.23,39.23,0,0,1-4.58-.45l-.11,2.11.8.14a24.45,24.45,0,0,0,4,.42,6.25,6.25,0,0,0,3.92-1,3.9,3.9,0,0,0,1.27-3.21,3.94,3.94,0,0,0-.44-2"/></g></g></svg>