<svg xmlns="http://www.w3.org/2000/svg" viewBox="0 0 643.18 475.22"><defs><style>.cls-1{fill:none;}.cls-2{fill:#fff;}</style></defs><g id="Layer_1" data-name="Layer 1"><polygon class="cls-1" points="41.1 473.71 35.06 473.71 24.27 515.63 51.9 515.63 41.1 473.71"/><path class="cls-2" d="M107.91,253c-.84-.43-1.64-.87-2.44-1.27-7.33-3.82-13-8.07-17.07-13V384.17a11.16,11.16,0,0,0,22.32,0V254.3c-.76-.35-1.52-.68-2.28-1A2.63,2.63,0,0,0,107.91,253Z"/><path class="cls-2" d="M147.89,269.88c-5-1.91-9.93-3.89-14.84-5.9V384.17a11.16,11.16,0,0,0,11.16,11.16h0a11.16,11.16,0,0,0,11.16-11.16V272.66l-2.78-1.05C151,271.05,149.42,270.48,147.89,269.88Z"/><path class="cls-2" d="M188.86,395.33h0A11.16,11.16,0,0,0,200,384.17v-93.3l-2.78-1.34c-2.3-1.07-4.6-2.17-6.94-3.2-4.13-1.81-8.34-3.52-12.6-5.19v103A11.16,11.16,0,0,0,188.86,395.33Z"/><path class="cls-2" d="M232.68,308.59c-3.37-2-6.83-4.07-10.33-6v81.63a11.17,11.17,0,0,0,22.33,0V316.46c-.93-.63-1.85-1.28-2.79-1.9C238.85,312.52,235.82,310.52,232.68,308.59Z"/><path class="cls-2" d="M275.32,338.08s-7.86-6.34-8.32-6.6v52.69a11.17,11.17,0,0,0,22.33,0V349c-2.9-2.31-5.56-4.43-7.94-6.22C280.9,342.42,275.79,338.41,275.32,338.08Z"/><path class="cls-2" d="M323.64,378.79c-3-2.87-5.84-5.54-8.64-8.11l-3.35-3v16.53a11.16,11.16,0,0,0,11.16,11.16h0a11.1,11.1,0,0,0,10.33-7.06C329.91,385,326.72,381.78,323.64,378.79Z"/><path class="cls-2" d="M366.06,369.91c-2.24,3-4.34,6-6.41,9-1.14,1.68-2.25,3.37-3.35,5.06v.19a11.17,11.17,0,0,0,11.17,11.16h0a11.16,11.16,0,0,0,11.16-11.16V354.56l-1.23,1.37C373.4,360.5,369.63,365.18,366.06,369.91Z"/><path class="cls-2" d="M404.3,328.9c-1.12,1-2.24,2-3.35,3v52.29a11.17,11.17,0,0,0,22.33,0V313.41c-5,3.79-10,7.69-14.84,11.82C407.07,326.47,405.67,327.67,404.3,328.9Z"/><path class="cls-2" d="M449,295.9c-1.12.68-2.23,1.38-3.34,2.08v86.19a11.16,11.16,0,0,0,22.32,0V285.05q-8.67,4.6-17.08,9.61C450.18,295.07,449.58,295.5,449,295.9Z"/><path class="cls-2" d="M493.26,272.84l-3,1.34v110a11.16,11.16,0,0,0,22.32,0V265c-6.42,2.4-12.79,5-19,7.68Z"/><path class="cls-2" d="M538.25,254.72c-1.08.61-2.2,1.2-3.34,1.78V384.17a11.16,11.16,0,1,0,22.32,0L558,233.39A47.35,47.35,0,0,1,538.25,254.72Z"/><path class="cls-2" d="M562.44,174.66a19.44,19.44,0,0,0-1.87-4.77c-3.57-6.31-10.81-8.94-22.32-9.54-.54,0-1.07-.07-1.64-.07-6.77-.23-13.78-.7-20.69-1.6a126.53,126.53,0,0,1-22.32-4.81c-2.34-.77-4.64-1.57-6.84-2.5-5.21-2.17-10.35-4.07-15.49-5.64A104.34,104.34,0,0,0,449,141.29a80.43,80.43,0,0,0-22.33,1.27c-.5.1-1,.2-1.5.27-7.87,1.73-15.68,2.47-20.82-1.57a14.35,14.35,0,0,1-4.77-7.48c-3-10.11-3.51-22.35-.6-32.23a25.08,25.08,0,0,1,5.37-9c3.3-3.87,7.44-7.44,10.88-11.15.43-.47.9-1,1.33-1.5-1.73.5-3.43,1-5.07,1.5-2.5.8-4.87,1.6-7.14,2.4C395.12,87.1,387.75,90.8,382,95c-16.29,12-19.63,28.33-12.72,52.62l-9.61,2.84c-7.24,2.17-14.62,4.34-22.36,6.61-4.87,1.43-9.88,2.93-15.11,4.47a54.9,54.9,0,0,0,15.11,15.11,48,48,0,0,0,22.36,7.18v13c-5.47,4.34-13.12,7.53-18.06,11.16l-3.83,45.2-.47-.33-7.51-5.44L315,294.79l-1.13,3.61-27-21.8-10.58,32.54-1,3.11c.47.33,5.58,4.34,6.07,4.72,2.38,1.79,5,3.91,7.94,6.22l3.31,2.64c1.5,1.13,3,2.37,4.61,3.64s3.4,2.8,5.2,4.27c2.93,2.48,6,5.18,9.2,8.06,1.1,1,2.22,2,3.35,3.05,2.8,2.57,5.67,5.24,8.64,8.11s6.27,6.16,9.5,9.48c1.32,1.36,2.65,2.73,4,4.13,2.93,3,5.84,6.14,8.84,9.48a198.9,198.9,0,0,1,10.33-17.9c1.1-1.69,2.21-3.38,3.35-5.06,2.07-3,4.17-6,6.41-9q5.35-7.11,11.34-14l1.23-1.37c1.11-1.25,2.22-2.51,3.35-3.74,1.73-1.9,3.5-3.77,5.27-5.6,3.1-3.2,6.3-6.38,9.47-9.41,1.39-1.33,2.81-2.64,4.23-3.93q1.67-1.51,3.35-3c1.37-1.23,2.77-2.44,4.14-3.67,4.84-4.13,9.79-8,14.84-11.82l3.34-2.5c1-.76,2-1.56,3-2.3q7.81-5.56,15.95-10.64c1.11-.69,2.22-1.39,3.34-2.07.63-.4,1.23-.84,1.9-1.24,5.6-3.36,11.3-6.54,17.08-9.61,1.11-.59,2.22-1.19,3.34-1.77.24-.13.54-.26.8-.43,6-3.07,12-5.94,18.19-8.68l3-1.33.34-.14c6.19-2.73,12.56-5.27,19-7.67.64-.24,1.27-.5,1.91-.73.47-.2,1-.34,1.43-.54,3.37-1.23,6.74-2.47,10.18-3.6a78.76,78.76,0,0,0,7.58-3l1.23-.62c1.14-.58,2.26-1.17,3.34-1.78A47.33,47.33,0,0,0,558,207.55c.29-.61.6-1.22.86-1.85.64-1.54,1.17-3.17,1.67-4.78a59.32,59.32,0,0,0,1.87-8c.27-1.6.44-3.27.6-4.94A41.41,41.41,0,0,0,562.44,174.66Zm-91.17-13.81c-7.77.06-15.75,2-22.32,4.13a104.09,104.09,0,0,0-15.75,6.65c-3.61-13.12,9-16.82,9-16.82a17.18,17.18,0,0,1,6.71-1.07c7.87.07,17.42,3.67,22.32,5.74l3.27,1.43C473.44,160.88,472.38,160.85,471.27,160.85Z"/><path class="cls-2" d="M305,228.33l3.87-4.07,24.34-21.64c-8.85-12.14-16-24.15-24.07-33,0,.53,0,1-.1,1.56-.07.37-.13.67-.17,1-1.83,11.42-10.57,17.09-22.35,18.69a55.59,55.59,0,0,1-9.61.43l8.84-6.07a8.61,8.61,0,0,0,.77-.6c14.41-10.35,14.88-22.49.53-33.74a3.69,3.69,0,0,0-.53-.43c-7.38-5.87-14.05-12.85-22.3-13.82A18.07,18.07,0,0,0,255,138c-3.84,1.6-8.47,1.9-13.08,1.57a58.47,58.47,0,0,1-7.37-1c-5-1-10-1.84-15-2.41a119.92,119.92,0,0,0-22.29-.6,84.49,84.49,0,0,0-22.36,4.57A77.08,77.08,0,0,0,160.23,147a3.34,3.34,0,0,0,1.27,6.11c4.44.7,9,1.3,13.38,2.27,9.88,2.3,18.62,6.77,22.36,19.69a49,49,0,0,1,1.2,5.74c-.4-.3-.8-.57-1.2-.87a75.09,75.09,0,0,0-22.36-10.71,93.63,93.63,0,0,0-22.29-3.5,208.72,208.72,0,0,0-22.36.26c-7.44.4-14.88,1-22.32,1.24a160.42,160.42,0,0,1-22.29-.64l-2.57-.3a105.06,105.06,0,0,0-2.37,11.45,57.17,57.17,0,0,0,0,19,35.63,35.63,0,0,0,3.57,10.21c.43.77.87,1.5,1.37,2.23a33.94,33.94,0,0,0,2.78,3.75c4.09,4.9,9.74,9.15,17.07,13,.8.4,1.6.84,2.44,1.27a2.63,2.63,0,0,1,.53.27l2.28,1q7.91,3.66,15.94,7c1.2.54,2.37,1,3.57,1.5l2.82,1.15c4.91,2,9.85,4,14.84,5.9,1.53.6,3.13,1.16,4.7,1.73l2.78,1.05c4.19,1.58,8.39,3.16,12.57,4.69.4.13.74.27,1.14.43,2,.7,3.9,1.47,5.8,2.24,1,.36,1.88.75,2.82,1.11,4.26,1.67,8.47,3.39,12.6,5.2,2.34,1,4.64,2.13,6.94,3.2L200,265c3.87,1.85,7.73,3.71,11.47,5.68,2.74,1.4,5.41,2.9,8,4.4l2.82,1.6c3.5,2,7,4,10.33,6,3.14,1.94,6.17,3.94,9.21,6,.94.62,1.86,1.27,2.79,1.9,3.11,2.12,6.19,4.29,9.22,6.47.34.27,5.44,3.57,7.45,5,0,0,4.2,2.8,4.4,3l11.78-47.39,9,5.57,17.12,10.55L308.86,252l4.24-17.69-4.24-3.14Z"/><path class="cls-2" d="M507.89,146.17a3,3,0,0,0,2.61,4.11c1.7.15,3.55.29,5.41.38,5.53.26,11,.14,11.92-1.29,3.36-5.13,3.76-16.44.17-21a108.84,108.84,0,0,0-12.09-12.72c-6-5.52-12.55-10.79-18.83-16.55,3.53,11.12,6.75,21.21,10.16,32C507.24,131,510.2,140.81,507.89,146.17Z"/></g></svg>