<?xml version="1.0" encoding="utf-8"?>
<!-- Generator: Adobe Illustrator 24.1.1, SVG Export Plug-In . SVG Version: 6.00 Build 0)  -->
<svg version="1.1" id="Layer_1" xmlns="http://www.w3.org/2000/svg" xmlns:xlink="http://www.w3.org/1999/xlink" x="0px" y="0px"
	 viewBox="0 0 8192 8192" style="enable-background:new 0 0 8192 8192;" xml:space="preserve">
<style type="text/css">
	.st0{fill:#FFA800;}
</style>
<path class="st0" d="M6639.8,352.8H1837.2C1224.1,352.8,727,849.8,727,1463v4865.8c0,613.1,497.1,1110.2,1110.2,1110.2h4802.5
	c613.1,0,1110.2-497.1,1110.2-1110.2V1463C7750.5,849.9,7253.4,352.8,6639.8,352.8z M6323.6,3955.2L5458,4298.6l-2345.4,901.7
	c-28.7,28.7-42.9,59.6-42.9,92.5c19.9,143.2,54.9,214.8,105.6,214.8l72.7,6.8l1641.8-99.3c136.4,8.9,221.1,60.6,254.6,155.3
	c37.6,90.4,63.8,420.8,79.5,991c-4.2,156.3-92.5,237.8-264.5,244.6l-2424.8-3.1c-169.9-8.9-279.6-133.3-330.3-373.2
	c-147.4-702.5-227.9-1102.4-241-1199.1v-23c0-235.7,191.8-444.8,575-627.7c76.8-46,284.3-163.1,621-350.2l218-132.2l-872.4-812.8
	c-30.8-39.7-54.9-78.4-72.7-115.5c-19.9-43.9-29.8-87.8-29.8-132.2c0-79.5,31.9-159.4,95.7-241l1476.5-1645
	c50.7-61.7,101.4-103.5,152.1-125.4c28.7-13.1,57.5-19.9,85.7-19.9c46,0,91.5,18.8,135.4,55.9l815.9,706.7c6.8,11,12,23,16.7,36.6
	c11,24,16.7,47.6,16.7,69.5c0,46-25.6,88.3-75.8,125.4L3670.9,2776c-26.6,26.6-39.7,52.8-39.7,79.5c0,13.1,2.1,26.6,6.8,39.7
	c6.8,13.1,16.7,26.6,29.8,39.7l601.1,541.5l1410.8-888.6l214.8-135.4c39.7-15.2,74.8-23,105.6-23c72.7,0,126.5,39.7,162,118.7
	l3.1,6.8l72.7,247.8l237.8,838.9c6.8,28.7,9.9,54.9,9.9,79.5C6485.6,3826.6,6431.8,3904.5,6323.6,3955.2z"/>
</svg>
