<?xml version="1.0" encoding="utf-8"?>
<!-- Generator: Adobe Illustrator 24.1.1, SVG Export Plug-In . SVG Version: 6.00 Build 0)  -->
<svg version="1.1" id="Layer_1" xmlns="http://www.w3.org/2000/svg" xmlns:xlink="http://www.w3.org/1999/xlink" x="0px" y="0px"
	 viewBox="0 0 8192 8192" style="enable-background:new 0 0 8192 8192;" xml:space="preserve">
<style type="text/css">
	.st0{fill:#FFA800;}
</style>
<path class="st0" d="M6243.1,927.9H1948.9c-548.2,0-992.7,444.5-992.7,992.7v4350.7c0,548.2,444.5,992.7,992.7,992.7h4294.2
	c548.2,0,992.7-444.5,992.7-992.7V1920.6C7236.2,1372.4,6791.8,927.9,6243.1,927.9z M3715.6,3416.2H2480.3v358.9h1045.5v633.3
	H2480.3v362.2h1235.3v631.9H1721.8V2782.9h1993.8V3416.2z M6516.5,5402.5H5387.8l-580-1668v1668h-758.5V2782.9h1207.2L5758,4413.1
	V2782.9h758.5V5402.5z"/>
</svg>
