<svg id="Layer_1" data-name="Layer 1" xmlns="http://www.w3.org/2000/svg" xmlns:xlink="http://www.w3.org/1999/xlink" viewBox="0 0 195.78 157.12"><defs><style>.cls-1{fill:none;}.cls-2{fill:#010101;}.cls-3{fill:#ef4545;}.cls-4{clip-path:url(#clip-path);}.cls-5{clip-path:url(#clip-path-2);}.cls-6{clip-path:url(#clip-path-3);}.cls-7{clip-path:url(#clip-path-4);}.cls-8{clip-path:url(#clip-path-5);}.cls-9{clip-path:url(#clip-path-6);}.cls-10{fill:#4eb968;}.cls-11{clip-path:url(#clip-path-7);}.cls-12{clip-path:url(#clip-path-8);}.cls-13{clip-path:url(#clip-path-9);}.cls-14{clip-path:url(#clip-path-10);}.cls-15{clip-path:url(#clip-path-11);}.cls-16{clip-path:url(#clip-path-12);}.cls-17{clip-path:url(#clip-path-13);}</style><clipPath id="clip-path" transform="translate(22.04 21.49)"><path class="cls-1" d="M3.37,99.91a3.1,3.1,0,0,0,6.19,0v-36l-.63-.27a.29.29,0,0,0-.15-.12l-.67-.35a15.24,15.24,0,0,1-4.74-3.61Z"/></clipPath><clipPath id="clip-path-2" transform="translate(22.04 21.49)"><path class="cls-1" d="M15.76,99.91a3.1,3.1,0,0,0,6.19,0V69l-.77-.29c-.44-.16-.88-.31-1.3-.48-1.39-.53-2.76-1.08-4.12-1.64Z"/></clipPath><clipPath id="clip-path-3" transform="translate(22.04 21.49)"><path class="cls-1" d="M28.15,99.91a3.1,3.1,0,0,0,6.16.7c0-.11,0-.23,0-.34a2.16,2.16,0,0,0,0-.36V74l-.76-.38c-.65-.29-1.28-.6-1.93-.88-1.15-.51-2.32-1-3.49-1.44Z"/></clipPath><clipPath id="clip-path-4" transform="translate(22.04 21.49)"><path class="cls-1" d="M40.52,99.91a3.1,3.1,0,0,0,6.2,0V81.13l-.78-.52C45.1,80,44.26,79.53,43.39,79s-1.89-1.13-2.87-1.68Z"/></clipPath><clipPath id="clip-path-5" transform="translate(22.04 21.49)"><path class="cls-1" d="M52.91,99.91a3.1,3.1,0,0,0,6.19,0v-9.8L57,88.38l-1.67-1.26S53.13,85.37,53,85.29Z"/></clipPath><clipPath id="clip-path-6" transform="translate(22.04 21.49)"><path class="cls-1" d="M65.3,99.91A3.09,3.09,0,0,0,68.39,103h0a3.07,3.07,0,0,0,2.87-2q-1.35-1.4-2.64-2.64l-2.4-2.25-.92-.83Z"/></clipPath><clipPath id="clip-path-7" transform="translate(22.04 21.49)"><path class="cls-1" d="M92.14,83.52l-1.14,1-.94.82V99.91a3.1,3.1,0,0,0,6.2,0V80.28c-1.4,1.08-2.78,2.15-4.12,3.28"/></clipPath><clipPath id="clip-path-8" transform="translate(22.04 21.49)"><path class="cls-1" d="M103.9,75.08c-.17.12-.35.23-.53.34l-.92.58V99.91a3.1,3.1,0,0,0,6.19,0V72.42c-1.6.85-3.18,1.73-4.74,2.66"/></clipPath><clipPath id="clip-path-9" transform="translate(22.04 21.49)"><path class="cls-1" d="M115.76,69h-.1l-.82.37v30.5a3.1,3.1,0,0,0,6.19,0v-33c-1.79.67-3.55,1.38-5.27,2.15"/></clipPath><clipPath id="clip-path-10" transform="translate(22.04 21.49)"><path class="cls-1" d="M128.15,64c-.3.17-.61.34-.94.5V99.9a3.1,3.1,0,1,0,6.2,0l.22-41.82A13.12,13.12,0,0,1,128.15,64"/></clipPath><clipPath id="clip-path-11" transform="translate(22.04 21.49)"><path class="cls-1" d="M101.51,36.29a4.88,4.88,0,0,1,1.86-.3,18.55,18.55,0,0,1,6.2,1.6l.9.39h-.9a20.42,20.42,0,0,0-6.2,1.15A28.76,28.76,0,0,0,99,41a3.68,3.68,0,0,1,2.38-4.63h.12M93,15.94l-2,.66a24.85,24.85,0,0,0-6.2,3.11c-4.51,3.34-5.44,7.86-3.52,14.61l-2.67.78-6.2,1.83-4.2,1.25a15.37,15.37,0,0,0,4.2,4.19,13.28,13.28,0,0,0,6.2,2V48c-1.52,1.21-3.64,2.09-5,3.1L72.52,63.6l-.12-.1L70.31,62l-4.1,13.14-.31,1-7.53-6-2.93,9-.28.86,1.68,1.32c.65.49,1.39,1.07,2.15,1.72l.91.73c.42.32.85.65,1.28,1l1.45,1.18c.81.69,1.66,1.44,2.55,2.24l.92.85c.78.71,1.57,1.45,2.4,2.24s1.74,1.71,2.64,2.64l1.07,1.14c.82.85,1.62,1.71,2.45,2.63a52.67,52.67,0,0,1,2.88-5c.3-.48.6-.94.92-1.4.57-.85,1.15-1.68,1.77-2.51,1-1.31,2-2.61,3.15-3.87l.34-.39c.31-.34.62-.69.93-1.07.48-.53,1-1.08,1.47-1.56.86-.88,1.74-1.76,2.62-2.61.39-.37.77-.74,1.17-1.08l.94-.83,1.14-1c1.34-1.15,2.72-2.22,4.12-3.28l.92-.7c.28-.2.56-.43.85-.63,1.43-1,2.91-2,4.42-3l.92-.58c.19-.11.35-.23.53-.34q2.34-1.39,4.74-2.67l.93-.48.22-.13q2.49-1.27,5-2.4l.82-.38h.1c1.72-.76,3.49-1.46,5.27-2.15l.53-.2.39-.15c.94-.35,1.88-.69,2.82-1a20.8,20.8,0,0,0,2.15-.84l.34-.17c.32-.16.63-.32.93-.5a13.25,13.25,0,0,0,5.49-5.91c.08-.17.16-.34.23-.52a12.17,12.17,0,0,0,.47-1.32,17.31,17.31,0,0,0,.52-2.24c.08-.44.12-.9.16-1.36a11.43,11.43,0,0,0-.16-3.69,5.19,5.19,0,0,0-.52-1.32c-1-1.76-3-2.49-6.19-2.65h-.45c-1.88-.06-3.83-.19-5.74-.44A36.3,36.3,0,0,1,115.66,36c-.65-.22-1.29-.44-1.9-.7-1.4-.59-2.84-1.11-4.3-1.56a28.48,28.48,0,0,0-6.19-1.2,22.15,22.15,0,0,0-6.19.36l-.41.07c-2.15.49-4.36.69-5.78-.44a3.92,3.92,0,0,1-1.33-2,16.77,16.77,0,0,1-.16-9A6.73,6.73,0,0,1,90.89,19c.92-1.08,2.06-2.07,3-3.1l.39-.41-1.41.42"/></clipPath><clipPath id="clip-path-12" transform="translate(22.04 21.49)"><path class="cls-1" d="M33.57,31a23.49,23.49,0,0,0-6.21,1.27,21.46,21.46,0,0,0-4.06,1.9A.92.92,0,0,0,23,35.42a1,1,0,0,0,.61.4c1.23.19,2.5.36,3.71.63,2.74.64,5.16,1.89,6.21,5.47a14.18,14.18,0,0,1,.33,1.6l-.33-.25a21.49,21.49,0,0,0-6.21-3,25.9,25.9,0,0,0-6.18-1,53.62,53.62,0,0,0-6.21.07c-2.06.11-4.12.26-6.19.33a45.52,45.52,0,0,1-6.18-.15H1.89a31.17,31.17,0,0,0-.66,3.17,16.07,16.07,0,0,0,0,5.27,10.22,10.22,0,0,0,1,2.84c.12.2.24.4.38.61a10,10,0,0,0,.77,1.07,15.35,15.35,0,0,0,4.73,3.57l.67.34.15.07.64.29,4.42,2,1,.42.78.32c1.37.56,2.73,1.08,4.12,1.64l1.3.48.77.29,3.49,1.3a1.66,1.66,0,0,1,.31.12l1.61.61.79.32c1.17.46,2.34.94,3.49,1.44l1.93.89.76.36c1.08.52,2.15,1.08,3.23,1.59.76.38,1.5.79,2.23,1.21l.78.44c1,.55,1.93,1.11,2.87,1.68A30.36,30.36,0,0,1,46,73.52l.77.52c.86.59,1.72,1.2,2.56,1.8.1.07,1.51,1,2.07,1.39l1.22.81L55.86,64.9l2.48,1.55,4.75,2.93,1.46-6,1.17-4.91-1.19-.9-1.08-.8,1.08-1.13,6.74-6c-2.45-3.36-4.42-6.7-6.67-9.16v.71c-.5,3.16-2.93,4.74-6.2,5.18a14.93,14.93,0,0,1-2.67.12l2.45-1.69.22-.16c4-2.87,4.13-6.23.15-9.35a.79.79,0,0,0-.15-.12c-2-1.64-3.9-3.57-6.19-3.84a5.09,5.09,0,0,0-2.56.4,8.14,8.14,0,0,1-3.63.44,19.24,19.24,0,0,1-2-.28c-1.4-.28-2.78-.52-4.15-.67a33.42,33.42,0,0,0-4-.24c-.72,0-1.43,0-2.15.07"/></clipPath><clipPath id="clip-path-13" transform="translate(22.04 21.49)"><path class="cls-1" d="M119.55,29.7s.81,2.71.18,4.19a.84.84,0,0,0,.45,1.08.63.63,0,0,0,.27.06c.47,0,1,.09,1.49.11,1.54.08,3.06,0,3.32-.35.93-1.43,1.07-4.56,0-5.84a32,32,0,0,0-3.36-3.53c-1.67-1.53-3.47-3-5.21-4.59l2.81,8.87"/></clipPath></defs><g id="Layer_2" data-name="Layer 2"><g id="Layer_1-2" data-name="Layer 1-2"><path class="cls-2" d="M3.37,99.91a3.1,3.1,0,0,0,6.19,0v-36l-.63-.27a.29.29,0,0,0-.15-.12l-.67-.35a15.24,15.24,0,0,1-4.74-3.61Z" transform="translate(22.04 21.49)"/><path class="cls-3" d="M3.37,99.91a3.1,3.1,0,0,0,6.19,0v-36l-.63-.27a.29.29,0,0,0-.15-.12l-.67-.35a15.24,15.24,0,0,1-4.74-3.61Z" transform="translate(22.04 21.49)"/><g class="cls-4"><rect class="cls-3" x="-2.55" y="59.62" width="17.97" height="43.44" transform="translate(-0.23 26.45) rotate(-16.07)"/></g><path class="cls-2" d="M15.76,99.91a3.1,3.1,0,0,0,6.19,0V69l-.77-.29c-.44-.16-.88-.31-1.3-.48-1.39-.53-2.76-1.08-4.12-1.64Z" transform="translate(22.04 21.49)"/><path class="cls-3" d="M15.76,99.91a3.1,3.1,0,0,0,6.19,0V69l-.77-.29c-.44-.16-.88-.31-1.3-.48-1.39-.53-2.76-1.08-4.12-1.64Z" transform="translate(22.04 21.49)"/><g class="cls-5"><rect class="cls-3" x="10.8" y="66.46" width="16.03" height="36.72" transform="translate(-0.71 30.01) rotate(-16.07)"/></g><path class="cls-2" d="M28.15,99.91a3.1,3.1,0,0,0,6.16.7c0-.11,0-.23,0-.34a2.16,2.16,0,0,0,0-.36V74l-.76-.38c-.65-.29-1.28-.6-1.93-.88-1.15-.51-2.32-1-3.49-1.44Z" transform="translate(22.04 21.49)"/><path class="cls-3" d="M28.15,99.91a3.1,3.1,0,0,0,6.16.7c0-.11,0-.23,0-.34a2.16,2.16,0,0,0,0-.36V74l-.76-.38c-.65-.29-1.28-.6-1.93-.88-1.15-.51-2.32-1-3.49-1.44Z" transform="translate(22.04 21.49)"/><g class="cls-6"><rect class="cls-3" x="23.84" y="71.14" width="14.72" height="32.15" transform="translate(-0.88 33.54) rotate(-16.07)"/></g><path class="cls-2" d="M40.52,99.91a3.1,3.1,0,0,0,6.2,0V81.13l-.78-.52C45.1,80,44.26,79.53,43.39,79s-1.89-1.13-2.87-1.68Z" transform="translate(22.04 21.49)"/><path class="cls-3" d="M40.52,99.91a3.1,3.1,0,0,0,6.2,0V81.13l-.78-.52C45.1,80,44.26,79.53,43.39,79s-1.89-1.13-2.87-1.68Z" transform="translate(22.04 21.49)"/><g class="cls-7"><rect class="cls-3" x="37.03" y="76.97" width="13.08" height="26.44" transform="translate(-1.22 37.08) rotate(-16.07)"/></g><path class="cls-2" d="M52.91,99.91a3.1,3.1,0,0,0,6.19,0v-9.8L57,88.38l-1.67-1.26S53.13,85.37,53,85.29Z" transform="translate(22.04 21.49)"/><path class="cls-3" d="M52.91,99.91a3.1,3.1,0,0,0,6.19,0v-9.8L57,88.38l-1.67-1.26S53.13,85.37,53,85.29Z" transform="translate(22.04 21.49)"/><g class="cls-8"><rect class="cls-3" x="50.54" y="84.81" width="10.85" height="18.73" transform="translate(-1.84 40.66) rotate(-16.07)"/></g><path class="cls-2" d="M65.3,99.91A3.09,3.09,0,0,0,68.39,103h0a3.07,3.07,0,0,0,2.87-2q-1.35-1.4-2.64-2.64l-2.4-2.25-.92-.83Z" transform="translate(22.04 21.49)"/><path class="cls-3" d="M65.3,99.91A3.09,3.09,0,0,0,68.39,103h0a3.07,3.07,0,0,0,2.87-2q-1.35-1.4-2.64-2.64l-2.4-2.25-.92-.83Z" transform="translate(22.04 21.49)"/><g class="cls-9"><rect class="cls-3" x="64.32" y="94.67" width="7.85" height="9.03" transform="matrix(0.96, -0.28, 0.28, 0.96, -2.75, 44.26)"/></g><path class="cls-2" d="M83.53,92.08c-1.07,1.27-2.15,2.56-3.15,3.87-.62.83-1.2,1.67-1.77,2.51-.32.46-.62.93-.92,1.39h0a3.1,3.1,0,1,0,6.16.7c0-.11,0-.22,0-.33a2.29,2.29,0,0,0,0-.37v-8.2l-.34.38" transform="translate(22.04 21.49)"/><path class="cls-10" d="M83.53,92.08c-1.07,1.27-2.15,2.56-3.15,3.87-.62.83-1.2,1.67-1.77,2.51-.32.46-.62.93-.92,1.39h0a3.1,3.1,0,1,0,6.16.7c0-.11,0-.22,0-.33a2.29,2.29,0,0,0,0-.37v-8.2l-.34.38" transform="translate(22.04 21.49)"/><path class="cls-2" d="M92.14,83.52l-1.14,1-.94.82V99.91a3.1,3.1,0,0,0,6.2,0V80.28c-1.4,1.08-2.78,2.15-4.12,3.28" transform="translate(22.04 21.49)"/><path class="cls-10" d="M92.14,83.52l-1.14,1-.94.82V99.91a3.1,3.1,0,0,0,6.2,0V80.28c-1.4,1.08-2.78,2.15-4.12,3.28" transform="translate(22.04 21.49)"/><g class="cls-11"><rect class="cls-10" x="81.72" y="87.37" width="23.36" height="9.25" transform="translate(11.5 193.37) rotate(-82.11)"/></g><path class="cls-2" d="M103.9,75.08c-.17.12-.35.23-.53.34l-.92.58V99.91a3.1,3.1,0,0,0,6.19,0V72.42c-1.6.85-3.18,1.73-4.74,2.66" transform="translate(22.04 21.49)"/><path class="cls-10" d="M103.9,75.08c-.17.12-.35.23-.53.34l-.92.58V99.91a3.1,3.1,0,0,0,6.19,0V72.42c-1.6.85-3.18,1.73-4.74,2.66" transform="translate(22.04 21.49)"/><g class="cls-12"><rect class="cls-10" x="90.22" y="82.9" width="31.15" height="10.33" transform="translate(26.08 202.25) rotate(-82.11)"/></g><path class="cls-2" d="M115.76,69h-.1l-.82.37v30.5a3.1,3.1,0,0,0,6.19,0v-33c-1.79.67-3.55,1.38-5.27,2.15" transform="translate(22.04 21.49)"/><path class="cls-10" d="M115.76,69h-.1l-.82.37v30.5a3.1,3.1,0,0,0,6.19,0v-33c-1.79.67-3.55,1.38-5.27,2.15" transform="translate(22.04 21.49)"/><g class="cls-13"><rect class="cls-10" x="100.14" y="79.98" width="36.64" height="11.1" transform="translate(39.22 212.35) rotate(-81.95)"/></g><path class="cls-2" d="M128.15,64c-.3.17-.61.34-.94.5V99.9a3.1,3.1,0,1,0,6.2,0l.22-41.82A13.12,13.12,0,0,1,128.15,64" transform="translate(22.04 21.49)"/><path class="cls-10" d="M128.15,64c-.3.17-.61.34-.94.5V99.9a3.1,3.1,0,1,0,6.2,0l.22-41.82A13.12,13.12,0,0,1,128.15,64" transform="translate(22.04 21.49)"/><g class="cls-14"><rect class="cls-10" x="107.98" y="74.63" width="45.38" height="12.52" transform="translate(54.64 220.71) rotate(-82.11)"/></g><path class="cls-2" d="M101.51,36.29a4.88,4.88,0,0,1,1.86-.3,18.55,18.55,0,0,1,6.2,1.6l.9.39h-.9a20.42,20.42,0,0,0-6.2,1.15A28.76,28.76,0,0,0,99,41a3.68,3.68,0,0,1,2.38-4.63h.12M93,15.94l-2,.66a24.85,24.85,0,0,0-6.2,3.11c-4.51,3.34-5.44,7.86-3.52,14.61l-2.67.78-6.2,1.83-4.2,1.25a15.37,15.37,0,0,0,4.2,4.19,13.28,13.28,0,0,0,6.2,2V48c-1.52,1.21-3.64,2.09-5,3.1L72.52,63.6l-.12-.1L70.31,62l-4.1,13.14-.31,1-7.53-6-2.93,9-.28.86,1.68,1.32c.65.49,1.39,1.07,2.15,1.72l.91.73c.42.32.85.65,1.28,1l1.45,1.18c.81.69,1.66,1.44,2.55,2.24l.92.85c.78.71,1.57,1.45,2.4,2.24s1.74,1.71,2.64,2.64l1.07,1.14c.82.85,1.62,1.71,2.45,2.63a52.67,52.67,0,0,1,2.88-5c.3-.48.6-.94.92-1.4.57-.85,1.15-1.68,1.77-2.51,1-1.31,2-2.61,3.15-3.87l.34-.39c.31-.34.62-.69.93-1.07.48-.53,1-1.08,1.47-1.56.86-.88,1.74-1.76,2.62-2.61.39-.37.77-.74,1.17-1.08l.94-.83,1.14-1c1.34-1.15,2.72-2.22,4.12-3.28l.92-.7c.28-.2.56-.43.85-.63,1.43-1,2.91-2,4.42-3l.92-.58c.19-.11.35-.23.53-.34q2.34-1.39,4.74-2.67l.93-.48.22-.13q2.49-1.27,5-2.4l.82-.38h.1c1.72-.76,3.49-1.46,5.27-2.15l.53-.2.39-.15c.94-.35,1.88-.69,2.82-1a20.8,20.8,0,0,0,2.15-.84l.34-.17c.32-.16.63-.32.93-.5a13.25,13.25,0,0,0,5.49-5.91c.08-.17.16-.34.23-.52a12.17,12.17,0,0,0,.47-1.32,17.31,17.31,0,0,0,.52-2.24c.08-.44.12-.9.16-1.36a11.43,11.43,0,0,0-.16-3.69,5.19,5.19,0,0,0-.52-1.32c-1-1.76-3-2.49-6.19-2.65h-.45c-1.88-.06-3.83-.19-5.74-.44A36.3,36.3,0,0,1,115.66,36c-.65-.22-1.29-.44-1.9-.7-1.4-.59-2.84-1.11-4.3-1.56a28.48,28.48,0,0,0-6.19-1.2,22.15,22.15,0,0,0-6.19.36l-.41.07c-2.15.49-4.36.69-5.78-.44a3.92,3.92,0,0,1-1.33-2,16.77,16.77,0,0,1-.16-9A6.73,6.73,0,0,1,90.89,19c.92-1.08,2.06-2.07,3-3.1l.39-.41-1.41.42" transform="translate(22.04 21.49)"/><path class="cls-10" d="M101.51,36.29a4.88,4.88,0,0,1,1.86-.3,18.55,18.55,0,0,1,6.2,1.6l.9.39h-.9a20.42,20.42,0,0,0-6.2,1.15A28.76,28.76,0,0,0,99,41a3.68,3.68,0,0,1,2.38-4.63h.12M93,15.94l-2,.66a24.85,24.85,0,0,0-6.2,3.11c-4.51,3.34-5.44,7.86-3.52,14.61l-2.67.78-6.2,1.83-4.2,1.25a15.37,15.37,0,0,0,4.2,4.19,13.28,13.28,0,0,0,6.2,2V48c-1.52,1.21-3.64,2.09-5,3.1L72.52,63.6l-.12-.1L70.31,62l-4.1,13.14-.31,1-7.53-6-2.93,9-.28.86,1.68,1.32c.65.49,1.39,1.07,2.15,1.72l.91.73c.42.32.85.65,1.28,1l1.45,1.18c.81.69,1.66,1.44,2.55,2.24l.92.85c.78.71,1.57,1.45,2.4,2.24s1.74,1.71,2.64,2.64l1.07,1.14c.82.85,1.62,1.71,2.45,2.63a52.67,52.67,0,0,1,2.88-5c.3-.48.6-.94.92-1.4.57-.85,1.15-1.68,1.77-2.51,1-1.31,2-2.61,3.15-3.87l.34-.39c.31-.34.62-.69.93-1.07.48-.53,1-1.08,1.47-1.56.86-.88,1.74-1.76,2.62-2.61.39-.37.77-.74,1.17-1.08l.94-.83,1.14-1c1.34-1.15,2.72-2.22,4.12-3.28l.92-.7c.28-.2.56-.43.85-.63,1.43-1,2.91-2,4.42-3l.92-.58c.19-.11.35-.23.53-.34q2.34-1.39,4.74-2.67l.93-.48.22-.13q2.49-1.27,5-2.4l.82-.38h.1c1.72-.76,3.49-1.46,5.27-2.15l.53-.2.39-.15c.94-.35,1.88-.69,2.82-1a20.8,20.8,0,0,0,2.15-.84l.34-.17c.32-.16.63-.32.93-.5a13.25,13.25,0,0,0,5.49-5.91c.08-.17.16-.34.23-.52a12.17,12.17,0,0,0,.47-1.32,17.31,17.31,0,0,0,.52-2.24c.08-.44.12-.9.16-1.36a11.43,11.43,0,0,0-.16-3.69,5.19,5.19,0,0,0-.52-1.32c-1-1.76-3-2.49-6.19-2.65h-.45c-1.88-.06-3.83-.19-5.74-.44A36.3,36.3,0,0,1,115.66,36c-.65-.22-1.29-.44-1.9-.7-1.4-.59-2.84-1.11-4.3-1.56a28.48,28.48,0,0,0-6.19-1.2,22.15,22.15,0,0,0-6.19.36l-.41.07c-2.15.49-4.36.69-5.78-.44a3.92,3.92,0,0,1-1.33-2,16.77,16.77,0,0,1-.16-9A6.73,6.73,0,0,1,90.89,19c.92-1.08,2.06-2.07,3-3.1l.39-.41-1.41.42" transform="translate(22.04 21.49)"/><g class="cls-15"><rect class="cls-10" x="38.71" y="0.8" width="113.09" height="112.54" transform="translate(16.03 124.12) rotate(-55.15)"/></g><path class="cls-2" d="M33.57,31a23.49,23.49,0,0,0-6.21,1.27,21.46,21.46,0,0,0-4.06,1.9A.92.92,0,0,0,23,35.42a1,1,0,0,0,.61.4c1.23.19,2.5.36,3.71.63,2.74.64,5.16,1.89,6.21,5.47a14.18,14.18,0,0,1,.33,1.6l-.33-.25a21.49,21.49,0,0,0-6.21-3,25.9,25.9,0,0,0-6.18-1,53.62,53.62,0,0,0-6.21.07c-2.06.11-4.12.26-6.19.33a45.52,45.52,0,0,1-6.18-.15H1.89a31.17,31.17,0,0,0-.66,3.17,16.07,16.07,0,0,0,0,5.27,10.22,10.22,0,0,0,1,2.84c.12.2.24.4.38.61a10,10,0,0,0,.77,1.07,15.35,15.35,0,0,0,4.73,3.57l.67.34.15.07.64.29,4.42,2,1,.42.78.32c1.37.56,2.73,1.08,4.12,1.64l1.3.48.77.29,3.49,1.3a1.66,1.66,0,0,1,.31.12l1.61.61.79.32c1.17.46,2.34.94,3.49,1.44l1.93.89.76.36c1.08.52,2.15,1.08,3.23,1.59.76.38,1.5.79,2.23,1.21l.78.44c1,.55,1.93,1.11,2.87,1.68A30.36,30.36,0,0,1,46,73.52l.77.52c.86.59,1.72,1.2,2.56,1.8.1.07,1.51,1,2.07,1.39l1.22.81L55.86,64.9l2.48,1.55,4.75,2.93,1.46-6,1.17-4.91-1.19-.9-1.08-.8,1.08-1.13,6.74-6c-2.45-3.36-4.42-6.7-6.67-9.16v.71c-.5,3.16-2.93,4.74-6.2,5.18a14.93,14.93,0,0,1-2.67.12l2.45-1.69.22-.16c4-2.87,4.13-6.23.15-9.35a.79.79,0,0,0-.15-.12c-2-1.64-3.9-3.57-6.19-3.84a5.09,5.09,0,0,0-2.56.4,8.14,8.14,0,0,1-3.63.44,19.24,19.24,0,0,1-2-.28c-1.4-.28-2.78-.52-4.15-.67a33.42,33.42,0,0,0-4-.24c-.72,0-1.43,0-2.15.07" transform="translate(22.04 21.49)"/><path class="cls-3" d="M33.57,31a23.49,23.49,0,0,0-6.21,1.27,21.46,21.46,0,0,0-4.06,1.9A.92.92,0,0,0,23,35.42a1,1,0,0,0,.61.4c1.23.19,2.5.36,3.71.63,2.74.64,5.16,1.89,6.21,5.47a14.18,14.18,0,0,1,.33,1.6l-.33-.25a21.49,21.49,0,0,0-6.21-3,25.9,25.9,0,0,0-6.18-1,53.62,53.62,0,0,0-6.21.07c-2.06.11-4.12.26-6.19.33a45.52,45.52,0,0,1-6.18-.15H1.89a31.17,31.17,0,0,0-.66,3.17,16.07,16.07,0,0,0,0,5.27,10.22,10.22,0,0,0,1,2.84c.12.2.24.4.38.61a10,10,0,0,0,.77,1.07,15.35,15.35,0,0,0,4.73,3.57l.67.34.15.07.64.29,4.42,2,1,.42.78.32c1.37.56,2.73,1.08,4.12,1.64l1.3.48.77.29,3.49,1.3a1.66,1.66,0,0,1,.31.12l1.61.61.79.32c1.17.46,2.34.94,3.49,1.44l1.93.89.76.36c1.08.52,2.15,1.08,3.23,1.59.76.38,1.5.79,2.23,1.21l.78.44c1,.55,1.93,1.11,2.87,1.68A30.36,30.36,0,0,1,46,73.52l.77.52c.86.59,1.72,1.2,2.56,1.8.1.07,1.51,1,2.07,1.39l1.22.81L55.86,64.9l2.48,1.55,4.75,2.93,1.46-6,1.17-4.91-1.19-.9-1.08-.8,1.08-1.13,6.74-6c-2.45-3.36-4.42-6.7-6.67-9.16v.71c-.5,3.16-2.93,4.74-6.2,5.18a14.93,14.93,0,0,1-2.67.12l2.45-1.69.22-.16c4-2.87,4.13-6.23.15-9.35a.79.79,0,0,0-.15-.12c-2-1.64-3.9-3.57-6.19-3.84a5.09,5.09,0,0,0-2.56.4,8.14,8.14,0,0,1-3.63.44,19.24,19.24,0,0,1-2-.28c-1.4-.28-2.78-.52-4.15-.67a33.42,33.42,0,0,0-4-.24c-.72,0-1.43,0-2.15.07" transform="translate(22.04 21.49)"/><g class="cls-16"><rect class="cls-3" x="-4.24" y="11.79" width="80.58" height="84.37" transform="translate(-6.6 70.2) rotate(-51.61)"/></g><path class="cls-2" d="M119.55,29.7s.81,2.71.18,4.19a.84.84,0,0,0,.45,1.08.63.63,0,0,0,.27.06c.47,0,1,.09,1.49.11,1.54.08,3.06,0,3.32-.35.93-1.43,1.07-4.56,0-5.84a32,32,0,0,0-3.36-3.53c-1.67-1.53-3.47-3-5.21-4.59l2.81,8.87" transform="translate(22.04 21.49)"/><path class="cls-10" d="M119.55,29.7s.81,2.71.18,4.19a.84.84,0,0,0,.45,1.08.63.63,0,0,0,.27.06c.47,0,1,.09,1.49.11,1.54.08,3.06,0,3.32-.35.93-1.43,1.07-4.56,0-5.84a32,32,0,0,0-3.36-3.53c-1.67-1.53-3.47-3-5.21-4.59l2.81,8.87" transform="translate(22.04 21.49)"/><g class="cls-17"><rect class="cls-10" x="113.38" y="19.1" width="16.34" height="17.24" transform="translate(30.22 101.1) rotate(-37.44)"/></g></g></g></svg>