<?xml version="1.0" encoding="utf-8"?>
<!-- Generator: Adobe Illustrator 24.1.1, SVG Export Plug-In . SVG Version: 6.00 Build 0)  -->
<svg version="1.1" id="Layer_1" xmlns="http://www.w3.org/2000/svg" xmlns:xlink="http://www.w3.org/1999/xlink" x="0px" y="0px"
	 viewBox="0 0 8192 8192" style="enable-background:new 0 0 8192 8192;" xml:space="preserve">
<style type="text/css">
	.st0{fill:#FFFFFF;}
</style>
<path class="st0" d="M5823.1,3793.7c-97.5,309.9-336.4,469.4-619.8,571.2c-659.8,243.4-1323.9,243.4-1979.2-17.7
	c-141.7-57.5-274.6-146.2-385.3-248c-252.4-230.3-243.5-526.9,0-766c208.1-203.7,473.8-301.1,748.3-367.5
	c553.5-128.4,1098.2-101.8,1633.9,106.3c270,106.3,496,265.7,602.1,549C5823.1,3674.2,5823.1,3736.1,5823.1,3793.7z M4233.6,3045.4
	C4229.2,3058.6,4238,3036.6,4233.6,3045.4c-177.1,17.7-354.2,13.3-522.4,53.2c-217,57.5-438.3,128.4-633.1,239.1
	c-208.1,119.6-194.8,318.8,0,456.1c84.1,57.5,172.6,106.3,270.1,141.7c544.6,181.5,1098.2,190.4,1651.6,35.5
	c159.3-44.3,314.4-128.4,447.1-225.8c132.7-97.4,128.4-252.4,0-363.1c-84.1-70.8-181.6-141.7-283.4-168.2
	C4862.3,3134,4539.1,3111.8,4233.6,3045.4z"/>
<path class="st0" d="M5823.1,4581.8c-97.5,310-336.4,473.7-615.5,575.5c-668.5,248-1346.1,243.4-2005.8-30.9
	c-150.6-62-292.2-177.1-411.8-292.3c-155-155-168.2-345.3-75.2-526.9c642,796.9,2559.1,690.8,3037.4-13.3
	c22.1,39.9,48.6,79.7,70.9,119.6C5823.1,4462.2,5823.1,4524.3,5823.1,4581.8z"/>
<path class="st0" d="M2843.2,1017.5c159.4,0,305.5-4.4,456.1,0c287.8,4.4,584.5-8.9,867.8,17.7
	c929.8,79.7,1740.1,841.2,1890.5,1762.2c22.1,115.1,22.1,234.7,35.5,354.2c8.9,66.4-17.7,124-84.1,150.6
	c-66.4,31-119.6,4.4-168.2-44.3c-332.1-318.8-726.2-518-1182.2-593.4c-97.5-17.7-194.8-22.2-292.2-22.2
	c-487.1-4.4-974.1-4.4-1461.2-4.4c-17.7,0-35.5,4.4-61.9,4.4c0,124-4.4,243.5,0,363.1c4.4,75.2-13.3,137.3-88.5,163.9
	c-79.7,31-128.4-8.9-177.1-66.4c-345.4-385.3-686.3-770.4-1031.7-1155.7c-84.1-97.4-84.1-146.2,0-243.5
	c345.4-385.3,686.3-770.4,1031.7-1155.7c48.8-53.2,97.4-97.4,177.1-66.4c75.2,31,93,93,88.5,163.9
	C2843.2,769.5,2843.2,884.7,2843.2,1017.5z M1802.8,1832.2c256.8,287.8,500.3,566.8,766,863.4c0-61.9,0-97.4,0-128.4
	c0-150.6,39.9-190.4,185.9-190.4c531.3,0,1062.6-4.4,1594,4.4c478.1,4.4,916.6,141.7,1315,398.5c35.5,22.2,75.2,48.8,119.6,79.7
	c-4.3-31-4.3-48.8-8.9-66.4c-185.9-867.8-951.9-1487.8-1837.5-1496.5c-394-4.4-792.6,0-1186.6,0c-141.7,0-185.9-44.3-185.9-185.9
	c0-35.5,0-75.2,0-132.9C2307.5,1265.5,2059.5,1544.4,1802.8,1832.2z"/>
<path class="st0" d="M5429,5671c0-123.9,4.3-234.6,0-345.3c-4.3-70.9,17.7-128.4,88.6-155c70.9-26.6,115,8.9,159.3,62
	c323.2,367.5,651,730.5,974.2,1098.1c75.2,88.6,75.2,137.3,0,221.4c-323.2,367.5-651,730.5-974.2,1098.1
	c-44.3,48.6-88.6,84.1-159.3,62c-70.9-26.6-88.6-84.1-88.6-155c4.3-110.7,0-230.3,0-349.8c-53.2,0-101.8,0-146.2,0
	c-296.6,0-602.1,4.3-898.8-4.3c-1031.7-13.2-1895.1-801.4-2001.4-1824.3c-4.4-62-8.9-123.9-13.3-181.6
	c-4.4-66.4,17.7-123.9,79.7-146.2c66.4-30.9,110.7,4.3,159.4,44.3c230.3,221.4,487.1,394.1,792.6,473.7
	c194.8,53.2,402.9,97.5,602.2,101.8C4468.2,5684.4,4942.1,5671,5429,5671z M2652.9,5498.4c0,4.3,4.4,17.7,4.4,35.5
	c181.5,828,898.8,1408.1,1748.9,1412.4c376.3,4.3,748.4,0,1124.6,0c101.8,0,150.5,48.6,150.5,150.5c0,44.3,0,88.6,0,150.5
	c252.3-283.4,487.1-544.6,721.7-814.6c-239.1-265.7-473.7-531.4-721.7-814.6c0,62,0,97.5,0,132.7c0,123.9-39.8,168.2-168.2,168.2
	c-504.8,0-1014,0-1518.7,0c-252.4,0-509.1-39.8-739.4-132.7C3051.3,5711,2852.1,5595.7,2652.9,5498.4z"/>
</svg>
