<svg id="Layer_1" data-name="Layer 1" xmlns="http://www.w3.org/2000/svg" xmlns:xlink="http://www.w3.org/1999/xlink" viewBox="0 0 308.88 146.11"><defs><style>.cls-1{clip-path:url(#clip-path);}.cls-2{clip-path:url(#clip-path-2);}.cls-3{clip-path:url(#clip-path-3);}.cls-4{clip-path:url(#clip-path-4);}.cls-5{clip-path:url(#clip-path-5);}.cls-6{clip-path:url(#clip-path-6);}.cls-7{clip-path:url(#clip-path-7);}.cls-8{clip-path:url(#clip-path-8);}.cls-9{clip-path:url(#clip-path-9);}.cls-10{clip-path:url(#clip-path-10);}.cls-11{clip-path:url(#clip-path-11);}.cls-12{clip-path:url(#clip-path-12);}.cls-13{clip-path:url(#clip-path-13);}.cls-14{clip-path:url(#clip-path-14);}</style><clipPath id="clip-path" transform="translate(-7035.28 -7222.06)"><path d="M7058.86,7335.4a2.88,2.88,0,0,0,5.76,0v-33.5l-.59-.26a.31.31,0,0,0-.14-.07l-.62-.33a14.06,14.06,0,0,1-4.41-3.35Z"/></clipPath><clipPath id="clip-path-2" transform="translate(-7035.28 -7222.06)"><path d="M7070.38,7335.4a2.88,2.88,0,0,0,5.76,0v-28.76l-.72-.27c-.41-.15-.82-.29-1.21-.45-1.29-.49-2.56-1-3.83-1.52Z"/></clipPath><clipPath id="clip-path-3" transform="translate(-7035.28 -7222.06)"><path d="M7081.9,7335.4a2.88,2.88,0,1,0,5.75,0v-24.06l-.71-.35c-.6-.27-1.19-.56-1.79-.82-1.07-.47-2.16-.91-3.25-1.34Z"/></clipPath><clipPath id="clip-path-4" transform="translate(-7035.28 -7222.06)"><path d="M7093.41,7335.4a2.88,2.88,0,1,0,5.76,0v-17.46l-.72-.49c-.78-.53-1.56-1-2.37-1.54s-1.76-1.05-2.67-1.56Z"/></clipPath><clipPath id="clip-path-5" transform="translate(-7035.28 -7222.06)"><path d="M7104.93,7335.4a2.88,2.88,0,1,0,5.76,0v-9.06c-.75-.6-1.44-1.15-2-1.61l-1.56-1.22s-2-1.63-2.15-1.7Z"/></clipPath><clipPath id="clip-path-6" transform="translate(-7035.28 -7222.06)"><path d="M7116.45,7335.4a2.88,2.88,0,0,0,2.88,2.88h0a2.85,2.85,0,0,0,2.66-1.82c-.83-.86-1.65-1.68-2.45-2.45l-2.23-2.09-.86-.78Z"/></clipPath><clipPath id="clip-path-7" transform="translate(-7035.28 -7222.06)"><path d="M7133.41,7328.12c-1,1.18-2,2.38-2.93,3.6-.58.77-1.12,1.55-1.65,2.33-.3.43-.58.87-.86,1.3v0a2.88,2.88,0,1,0,5.75,0v-7.63l-.31.35"/></clipPath><clipPath id="clip-path-8" transform="translate(-7035.28 -7222.06)"><path d="M7141.41,7320.2l-1.06.95-.87.76v13.49a2.88,2.88,0,1,0,5.76,0v-18.25c-1.3,1-2.58,2-3.83,3.05"/></clipPath><clipPath id="clip-path-9" transform="translate(-7035.28 -7222.06)"><path d="M7152.35,7312.31c-.17.11-.32.22-.49.32l-.86.54v22.23a2.88,2.88,0,1,0,5.76,0v-25.56q-2.23,1.18-4.41,2.47"/></clipPath><clipPath id="clip-path-10" transform="translate(-7035.28 -7222.06)"><path d="M7163.38,7306.65l-.09,0-.77.34v28.37a2.88,2.88,0,0,0,5.76,0v-30.73c-1.66.62-3.3,1.28-4.9,2"/></clipPath><clipPath id="clip-path-11" transform="translate(-7035.28 -7222.06)"><path d="M7174.9,7302c-.28.16-.57.31-.87.46v32.93a2.88,2.88,0,0,0,5.76,0l.21-38.89a12.19,12.19,0,0,1-5.1,5.5"/></clipPath><clipPath id="clip-path-12" transform="translate(-7035.28 -7222.06)"><path d="M7150.13,7276.24a4.52,4.52,0,0,1,1.73-.28,17,17,0,0,1,5.76,1.49l.84.36h-.84a19,19,0,0,0-5.76,1.07,27,27,0,0,0-4.06,1.71,3.43,3.43,0,0,1,2.33-4.34m-7.94-18.94-1.84.62a23,23,0,0,0-5.76,2.89c-4.2,3.1-5.06,7.31-3.28,13.58l-2.48.73-5.77,1.7-3.9,1.16a14.27,14.27,0,0,0,3.9,3.9,12.38,12.38,0,0,0,5.77,1.85v3.35c-1.41,1.12-3.39,1.94-4.66,2.88l-1,11.66-.12-.09-1.94-1.4-3.81,12.22-.29.93-7-5.62-2.73,8.39-.26.8,1.56,1.22c.61.46,1.3,1,2,1.6l.85.68c.39.3.79.61,1.19.94l1.35,1.1c.75.64,1.54,1.34,2.37,2.08l.86.79c.72.66,1.46,1.35,2.23,2.09s1.62,1.59,2.45,2.45l1,1.06c.76.79,1.5,1.59,2.28,2.45a48.83,48.83,0,0,1,2.67-4.62c.28-.44.56-.87.86-1.3.53-.79,1.07-1.56,1.65-2.33.92-1.22,1.89-2.43,2.93-3.6l.31-.36c.29-.32.58-.65.87-1,.44-.49.9-1,1.36-1.45.8-.82,1.62-1.64,2.44-2.43.36-.34.72-.68,1.09-1l.87-.77,1.06-.94c1.25-1.07,2.53-2.07,3.83-3.05l.86-.65c.26-.19.52-.4.79-.59q2-1.44,4.11-2.74l.86-.54c.17-.1.32-.22.49-.32q2.17-1.29,4.41-2.48l.86-.45.21-.12q2.31-1.18,4.69-2.23l.77-.35.09,0c1.6-.71,3.24-1.36,4.9-2l.49-.19.37-.14c.87-.32,1.74-.64,2.62-.93a20.51,20.51,0,0,0,2-.78l.31-.16c.3-.15.59-.3.87-.46a12.24,12.24,0,0,0,5.1-5.5,5.11,5.11,0,0,0,.22-.48,11.22,11.22,0,0,0,.43-1.23,15.38,15.38,0,0,0,.49-2.08c.07-.41.11-.84.15-1.27a10.89,10.89,0,0,0-.15-3.43,5,5,0,0,0-.49-1.23c-.92-1.63-2.78-2.31-5.75-2.46l-.42,0c-1.75-.06-3.56-.18-5.34-.41a33.13,33.13,0,0,1-5.76-1.24c-.6-.2-1.2-.41-1.76-.65a42,42,0,0,0-4-1.45,27,27,0,0,0-5.76-1.15,20.83,20.83,0,0,0-5.76.33l-.38.07c-2,.45-4.05.64-5.37-.41a3.68,3.68,0,0,1-1.24-1.92,15.58,15.58,0,0,1-.15-8.32,6.5,6.5,0,0,1,1.39-2.32c.85-1,1.91-1.92,2.8-2.88l.35-.39-1.31.39"/></clipPath><clipPath id="clip-path-13" transform="translate(-7035.28 -7222.06)"><path d="M7086.94,7271.28a21.78,21.78,0,0,0-5.77,1.18,19.84,19.84,0,0,0-3.78,1.77.86.86,0,0,0,.33,1.57c1.14.18,2.32.34,3.45.59,2.55.59,4.8,1.75,5.77,5.08a12.76,12.76,0,0,1,.31,1.48l-.31-.23a19.66,19.66,0,0,0-5.77-2.76,24,24,0,0,0-5.75-.9,50.55,50.55,0,0,0-5.77.07c-1.92.1-3.84.24-5.76.31a40.79,40.79,0,0,1-5.75-.16l-.66-.08a29.35,29.35,0,0,0-.61,2.95,14.6,14.6,0,0,0,0,4.9,9.18,9.18,0,0,0,.92,2.64c.11.19.22.38.35.57a9.74,9.74,0,0,0,.72,1,14.21,14.21,0,0,0,4.41,3.35l.62.32.14.07.59.27c1.36.63,2.73,1.23,4.11,1.81l.92.39.73.3c1.27.52,2.54,1,3.83,1.52l1.21.45.72.27,3.24,1.21a1.72,1.72,0,0,1,.29.11c.51.18,1,.38,1.5.57l.73.29c1.09.43,2.18.88,3.25,1.34l1.79.83.71.34c1,.48,2,1,3,1.47.71.36,1.4.74,2.08,1.13l.72.41q1.36.76,2.67,1.56c.81.5,1.59,1,2.37,1.54l.72.49c.8.55,1.6,1.11,2.38,1.67.09.07,1.4.93,1.92,1.29l1.14.76,3-12.22,2.31,1.44,4.42,2.72,1.35-5.62,1.09-4.57-1.09-.8-1-.74,1-1.05,6.27-5.58c-2.28-3.13-4.11-6.23-6.2-8.52,0,.14,0,.27,0,.41s0,.17,0,.25c-.47,2.94-2.73,4.41-5.77,4.82a14.25,14.25,0,0,1-2.48.11l2.28-1.57a1.73,1.73,0,0,0,.2-.15c3.72-2.67,3.84-5.8.14-8.7a.49.49,0,0,0-.14-.11c-1.9-1.52-3.62-3.32-5.75-3.57a4.71,4.71,0,0,0-2.38.37,7.66,7.66,0,0,1-3.38.41,16.11,16.11,0,0,1-1.9-.26c-1.3-.26-2.58-.48-3.86-.62a31.88,31.88,0,0,0-3.76-.23c-.67,0-1.33,0-2,.07"/></clipPath><clipPath id="clip-path-14" transform="translate(-7035.28 -7222.06)"><path d="M7166.9,7270.11s.76,2.52.17,3.9a.77.77,0,0,0,.67,1.06c.44,0,.92.08,1.39.1,1.43.07,2.84,0,3.08-.33.87-1.33,1-4.24,0-5.43a28.3,28.3,0,0,0-3.12-3.28c-1.55-1.42-3.23-2.78-4.85-4.27l2.62,8.25"/></clipPath></defs><path d="M7058.86,7335.4a2.88,2.88,0,0,0,5.76,0v-33.5l-.59-.26a.31.31,0,0,0-.14-.07l-.62-.33a14.06,14.06,0,0,1-4.41-3.35Z" transform="translate(-7035.28 -7222.06)"/><g class="cls-1"><rect x="7053.38" y="7297.89" width="16.71" height="40.4" transform="translate(-8785.1 -4981.28) rotate(-16.07)"/></g><path d="M7070.38,7335.4a2.88,2.88,0,0,0,5.76,0v-28.76l-.72-.27c-.41-.15-.82-.29-1.21-.45-1.29-.49-2.56-1-3.83-1.52Z" transform="translate(-7035.28 -7222.06)"/><g class="cls-2"><rect x="7065.8" y="7304.26" width="14.91" height="34.15" transform="translate(-8785.55 -4977.97) rotate(-16.07)"/></g><path d="M7081.9,7335.4a2.88,2.88,0,1,0,5.75,0v-24.06l-.71-.35c-.6-.27-1.19-.56-1.79-.82-1.07-.47-2.16-.91-3.25-1.34Z" transform="translate(-7035.28 -7222.06)"/><g class="cls-3"><rect x="7077.93" y="7308.6" width="13.69" height="29.9" transform="translate(-8785.71 -4974.69) rotate(-16.07)"/></g><path d="M7093.41,7335.4a2.88,2.88,0,1,0,5.76,0v-17.46l-.72-.49c-.78-.53-1.56-1-2.37-1.54s-1.76-1.05-2.67-1.56Z" transform="translate(-7035.28 -7222.06)"/><g class="cls-4"><rect x="7090.21" y="7314.02" width="12.16" height="24.59" transform="translate(-8786.03 -4971.39) rotate(-16.07)"/></g><path d="M7104.93,7335.4a2.88,2.88,0,1,0,5.76,0v-9.06c-.75-.6-1.44-1.15-2-1.61l-1.56-1.22s-2-1.63-2.15-1.7Z" transform="translate(-7035.28 -7222.06)"/><g class="cls-5"><rect x="7102.76" y="7321.33" width="10.09" height="17.42" transform="translate(-8786.6 -4968.08) rotate(-16.07)"/></g><path d="M7116.45,7335.4a2.88,2.88,0,0,0,2.88,2.88h0a2.85,2.85,0,0,0,2.66-1.82c-.83-.86-1.65-1.68-2.45-2.45l-2.23-2.09-.86-.78Z" transform="translate(-7035.28 -7222.06)"/><g class="cls-6"><rect x="7115.57" y="7330.51" width="7.3" height="8.4" transform="translate(-8787.44 -4964.74) rotate(-16.07)"/></g><path d="M7133.41,7328.12c-1,1.18-2,2.38-2.93,3.6-.58.77-1.12,1.55-1.65,2.33-.3.43-.58.87-.86,1.3v0a2.88,2.88,0,1,0,5.75,0v-7.63l-.31.35" transform="translate(-7035.28 -7222.06)"/><g class="cls-7"><rect x="7125.24" y="7329.45" width="11.21" height="7.15" transform="matrix(0.14, -0.99, 0.99, 0.14, -8146.67, 6168.01)"/></g><path d="M7141.41,7320.2l-1.06.95-.87.76v13.49a2.88,2.88,0,1,0,5.76,0v-18.25c-1.3,1-2.58,2-3.83,3.05" transform="translate(-7035.28 -7222.06)"/><g class="cls-8"><rect x="7131.5" y="7323.41" width="21.72" height="8.6" transform="translate(-8131.48 6174.84) rotate(-82.11)"/></g><path d="M7152.35,7312.31c-.17.11-.32.22-.49.32l-.86.54v22.23a2.88,2.88,0,1,0,5.76,0v-25.56q-2.23,1.18-4.41,2.47" transform="translate(-7035.28 -7222.06)"/><g class="cls-9"><rect x="7139.4" y="7319.25" width="28.97" height="9.61" transform="translate(-8117.91 6183.1) rotate(-82.11)"/></g><path d="M7163.38,7306.65l-.09,0-.77.34v28.37a2.88,2.88,0,0,0,5.76,0v-30.73c-1.66.62-3.3,1.28-4.9,2" transform="translate(-7035.28 -7222.06)"/><g class="cls-10"><rect x="7148.36" y="7316.32" width="34.08" height="10.32" transform="translate(-8105.42 6192.28) rotate(-82.11)"/></g><path d="M7174.9,7302c-.28.16-.57.31-.87.46v32.93a2.88,2.88,0,0,0,5.76,0l.21-38.89a12.19,12.19,0,0,1-5.1,5.5" transform="translate(-7035.28 -7222.06)"/><g class="cls-11"><rect x="7155.92" y="7311.57" width="42.2" height="11.64" transform="translate(-8091.35 6200.27) rotate(-82.11)"/></g><path d="M7150.13,7276.24a4.52,4.52,0,0,1,1.73-.28,17,17,0,0,1,5.76,1.49l.84.36h-.84a19,19,0,0,0-5.76,1.07,27,27,0,0,0-4.06,1.71,3.43,3.43,0,0,1,2.33-4.34m-7.94-18.94-1.84.62a23,23,0,0,0-5.76,2.89c-4.2,3.1-5.06,7.31-3.28,13.58l-2.48.73-5.77,1.7-3.9,1.16a14.27,14.27,0,0,0,3.9,3.9,12.38,12.38,0,0,0,5.77,1.85v3.35c-1.41,1.12-3.39,1.94-4.66,2.88l-1,11.66-.12-.09-1.94-1.4-3.81,12.22-.29.93-7-5.62-2.73,8.39-.26.8,1.56,1.22c.61.46,1.3,1,2,1.6l.85.68c.39.3.79.61,1.19.94l1.35,1.1c.75.64,1.54,1.34,2.37,2.08l.86.79c.72.66,1.46,1.35,2.23,2.09s1.62,1.59,2.45,2.45l1,1.06c.76.79,1.5,1.59,2.28,2.45a48.83,48.83,0,0,1,2.67-4.62c.28-.44.56-.87.86-1.3.53-.79,1.07-1.56,1.65-2.33.92-1.22,1.89-2.43,2.93-3.6l.31-.36c.29-.32.58-.65.87-1,.44-.49.9-1,1.36-1.45.8-.82,1.62-1.64,2.44-2.43.36-.34.72-.68,1.09-1l.87-.77,1.06-.94c1.25-1.07,2.53-2.07,3.83-3.05l.86-.65c.26-.19.52-.4.79-.59q2-1.44,4.11-2.74l.86-.54c.17-.1.32-.22.49-.32q2.17-1.29,4.41-2.48l.86-.45.21-.12q2.31-1.18,4.69-2.23l.77-.35.09,0c1.6-.71,3.24-1.36,4.9-2l.49-.19.37-.14c.87-.32,1.74-.64,2.62-.93a20.51,20.51,0,0,0,2-.78l.31-.16c.3-.15.59-.3.87-.46a12.24,12.24,0,0,0,5.1-5.5,5.11,5.11,0,0,0,.22-.48,11.22,11.22,0,0,0,.43-1.23,15.38,15.38,0,0,0,.49-2.08c.07-.41.11-.84.15-1.27a10.89,10.89,0,0,0-.15-3.43,5,5,0,0,0-.49-1.23c-.92-1.63-2.78-2.31-5.75-2.46l-.42,0c-1.75-.06-3.56-.18-5.34-.41a33.13,33.13,0,0,1-5.76-1.24c-.6-.2-1.2-.41-1.76-.65a42,42,0,0,0-4-1.45,27,27,0,0,0-5.76-1.15,20.83,20.83,0,0,0-5.76.33l-.38.07c-2,.45-4.05.64-5.37-.41a3.68,3.68,0,0,1-1.24-1.92,15.58,15.58,0,0,1-.15-8.32,6.5,6.5,0,0,1,1.39-2.32c.85-1,1.91-1.92,2.8-2.88l.35-.39-1.31.39" transform="translate(-7035.28 -7222.06)"/><g class="cls-12"><rect x="7091.66" y="7242.78" width="105.17" height="104.66" transform="translate(-9960.14 1767.8) rotate(-55.15)"/></g><path d="M7086.94,7271.28a21.78,21.78,0,0,0-5.77,1.18,19.84,19.84,0,0,0-3.78,1.77.86.86,0,0,0,.33,1.57c1.14.18,2.32.34,3.45.59,2.55.59,4.8,1.75,5.77,5.08a12.76,12.76,0,0,1,.31,1.48l-.31-.23a19.66,19.66,0,0,0-5.77-2.76,24,24,0,0,0-5.75-.9,50.55,50.55,0,0,0-5.77.07c-1.92.1-3.84.24-5.76.31a40.79,40.79,0,0,1-5.75-.16l-.66-.08a29.35,29.35,0,0,0-.61,2.95,14.6,14.6,0,0,0,0,4.9,9.18,9.18,0,0,0,.92,2.64c.11.19.22.38.35.57a9.74,9.74,0,0,0,.72,1,14.21,14.21,0,0,0,4.41,3.35l.62.32.14.07.59.27c1.36.63,2.73,1.23,4.11,1.81l.92.39.73.3c1.27.52,2.54,1,3.83,1.52l1.21.45.72.27,3.24,1.21a1.72,1.72,0,0,1,.29.11c.51.18,1,.38,1.5.57l.73.29c1.09.43,2.18.88,3.25,1.34l1.79.83.71.34c1,.48,2,1,3,1.47.71.36,1.4.74,2.08,1.13l.72.41q1.36.76,2.67,1.56c.81.5,1.59,1,2.37,1.54l.72.49c.8.55,1.6,1.11,2.38,1.67.09.07,1.4.93,1.92,1.29l1.14.76,3-12.22,2.31,1.44,4.42,2.72,1.35-5.62,1.09-4.57-1.09-.8-1-.74,1-1.05,6.27-5.58c-2.28-3.13-4.11-6.23-6.2-8.52,0,.14,0,.27,0,.41s0,.17,0,.25c-.47,2.94-2.73,4.41-5.77,4.82a14.25,14.25,0,0,1-2.48.11l2.28-1.57a1.73,1.73,0,0,0,.2-.15c3.72-2.67,3.84-5.8.14-8.7a.49.49,0,0,0-.14-.11c-1.9-1.52-3.62-3.32-5.75-3.57a4.71,4.71,0,0,0-2.38.37,7.66,7.66,0,0,1-3.38.41,16.11,16.11,0,0,1-1.9-.26c-1.3-.26-2.58-.48-3.86-.62a31.88,31.88,0,0,0-3.76-.23c-.67,0-1.33,0-2,.07" transform="translate(-7035.28 -7222.06)"/><g class="cls-13"><rect x="7051.83" y="7253.87" width="74.94" height="78.46" transform="translate(-10064.91 1098.14) rotate(-51.61)"/></g><path d="M7166.9,7270.11s.76,2.52.17,3.9a.77.77,0,0,0,.67,1.06c.44,0,.92.08,1.39.1,1.43.07,2.84,0,3.08-.33.87-1.33,1-4.24,0-5.43a28.3,28.3,0,0,0-3.12-3.28c-1.55-1.42-3.23-2.78-4.85-4.27l2.62,8.25" transform="translate(-7035.28 -7222.06)"/><g class="cls-14"><rect x="7161.13" y="7260.54" width="15.2" height="16.03" transform="translate(-9977.19 -1366.86) rotate(-37.44)"/></g><path d="M7206.2,7335V7330l-1.37-.1c-.63,0-1.13,0-1.49,0a4.21,4.21,0,0,0-1.76.31,1.77,1.77,0,0,0-.92,1,4.91,4.91,0,0,0-.29,1.85,4.7,4.7,0,0,0,.3,1.87,1.84,1.84,0,0,0,.95,1,4.33,4.33,0,0,0,1.78.3h4.17V7335Zm-1.15,0h-1.51a2.77,2.77,0,0,1-1.19-.2,1.2,1.2,0,0,1-.62-.65,3.45,3.45,0,0,1-.19-1.25,3.1,3.1,0,0,1,.19-1.21,1.2,1.2,0,0,1,.61-.66,2.76,2.76,0,0,1,1.15-.2c.38,0,.9,0,1.56.08Z" transform="translate(-7035.28 -7222.06)"/><rect x="168.64" y="105.54" width="1.03" height="1.19"/><rect x="167" y="105.54" width="1.05" height="1.19"/><rect x="173.34" y="115.01" width="1.05" height="1.18"/><rect x="174.99" y="115.01" width="1.03" height="1.18"/><polygon points="175.28 112.98 175.28 107.88 174.12 107.88 174.12 112.98 172.28 112.98 172.28 114.03 177.12 114.03 177.12 112.98 175.28 112.98"/><polygon points="178.63 112.98 177.12 112.98 177.12 114.03 179.8 114.03 179.8 105.27 178.63 105.27 178.63 112.98"/><path d="M7212.4,7335v0Z" transform="translate(-7035.28 -7222.06)"/><polygon points="183.1 112.98 183.1 105.27 181.94 105.27 181.94 114.03 184.27 114.03 184.27 112.98 183.1 112.98"/><path d="M7227.78,7335a1,1,0,0,1-.52-.14,1.13,1.13,0,0,1-.36-.36V7333a3.53,3.53,0,0,0-.7-2.45,3,3,0,0,0-2.29-.75,6.27,6.27,0,0,0-1.26.12,4.78,4.78,0,0,0-.92.24,11.47,11.47,0,0,0-.24,1.32,10.45,10.45,0,0,0-.11,1.57,11.19,11.19,0,0,0,.17,2h-2v1.05h7.34v-.51a1.22,1.22,0,0,0,.42.36.89.89,0,0,0,.46.15h.48V7335Zm-2.05,0h-3c0-.22-.07-.51-.11-.88a10,10,0,0,1-.06-1.1,12.28,12.28,0,0,1,.19-2.09,5,5,0,0,1,1-.11,2,2,0,0,1,1.51.5,2.33,2.33,0,0,1,.47,1.63Z" transform="translate(-7035.28 -7222.06)"/><polygon points="194.49 112.98 192.98 112.98 192.98 114.03 195.66 114.03 195.66 105.27 194.49 105.27 194.49 112.98"/><rect x="197.8" y="105.27" width="1.17" height="8.76"/><rect x="210.87" y="105.54" width="1.03" height="1.19"/><path d="M7246.63,7330l-1,0a3.85,3.85,0,0,0-1.75.32,1.82,1.82,0,0,0-.9,1,5.82,5.82,0,0,0-.26,1.93,5.42,5.42,0,0,0,.23,1.79,1.41,1.41,0,0,0,.72.85,3.31,3.31,0,0,0,1.39.24h1.69v.25a2,2,0,0,1-.45,1.36,1.81,1.81,0,0,1-1.4.5h-3.4a1.79,1.79,0,0,1-1.39-.5,2,2,0,0,1-.45-1.37,8.49,8.49,0,0,1,.1-1.12c.07-.5.15-1,.23-1.56l.09-.54-1.1-.17a24,24,0,0,0-.47,3.59,2.93,2.93,0,0,0,.34,1.4,2.43,2.43,0,0,0,1,1,3.52,3.52,0,0,0,1.62.35H7245a3.57,3.57,0,0,0,1.63-.35,2.45,2.45,0,0,0,1-1,2.78,2.78,0,0,0,.34-1.39v-6.46l-.44,0c-.23,0-.53-.05-.89-.07m.16,5.07h-1.35a2.22,2.22,0,0,1-.9-.15.89.89,0,0,1-.46-.54,3.55,3.55,0,0,1-.15-1.18,4.13,4.13,0,0,1,.16-1.3,1.21,1.21,0,0,1,.57-.68,2.26,2.26,0,0,1,1.1-.22c.25,0,.6,0,1,.06Z" transform="translate(-7035.28 -7222.06)"/><rect x="209.22" y="105.54" width="1.05" height="1.19"/><rect x="214.57" y="105.27" width="1.17" height="8.76"/><path d="M7254.4,7336.41a2.3,2.3,0,0,1-.28,1.24.94.94,0,0,1-.83.44,6,6,0,0,1-.67,0v1l.3,0a4.45,4.45,0,0,0,.61,0,1.72,1.72,0,0,0,1.53-.77,4.1,4.1,0,0,0,.5-2.22V7330h-1.16Z" transform="translate(-7035.28 -7222.06)"/><path d="M7259.58,7329.7a3.24,3.24,0,0,0-1.59.34,1.91,1.91,0,0,0-.84,1.07,6.26,6.26,0,0,0-.26,1.94,4.67,4.67,0,0,0,.45,2.16,1.89,1.89,0,0,0,1.87.88h1.69a4.54,4.54,0,0,1-.14,1.27,1,1,0,0,1-.39.58,1.34,1.34,0,0,1-.68.15,12.61,12.61,0,0,1-1.85-.2v1a17.69,17.69,0,0,0,1.94.2,1.82,1.82,0,0,0,1.81-1,6.82,6.82,0,0,0,.49-2.88V7330q-.46-.09-1.2-.18c-.49-.05-.92-.08-1.3-.08m1.33,5.34h-1.32a1.27,1.27,0,0,1-1.24-.57,3.27,3.27,0,0,1-.29-1.46,3,3,0,0,1,.4-1.74,1.6,1.6,0,0,1,1.38-.52,7.33,7.33,0,0,1,1.07.09Z" transform="translate(-7035.28 -7222.06)"/><polygon points="232.86 112.98 230.72 112.98 230.72 106.93 229.55 106.93 229.55 112.98 227.99 112.98 227.99 114.03 234.01 114.03 234.01 105.27 232.86 105.27 232.86 112.98"/><rect x="236.03" y="105.27" width="1.17" height="8.76"/><path d="M7282.17,7336.34a1.55,1.55,0,0,1-.6,1.28,2.32,2.32,0,0,1-1.48.47,2.64,2.64,0,0,1-1.1-.23,1.94,1.94,0,0,1-.78-.62,1.52,1.52,0,0,1-.28-.9,12.81,12.81,0,0,1,.13-1.37c.08-.68.19-1.41.31-2.19l-1.11-.06a30.22,30.22,0,0,0-.48,3.72,2.34,2.34,0,0,0,.44,1.38,2.88,2.88,0,0,0,1.2,1,4,4,0,0,0,1.71.36,4.09,4.09,0,0,0,1.63-.32,2.66,2.66,0,0,0,1.15-.93,2.33,2.33,0,0,0,.43-1.41v-9.15h-1.17Z" transform="translate(-7035.28 -7222.06)"/><path d="M7287.59,7329.7a3.24,3.24,0,0,0-1.59.34,1.91,1.91,0,0,0-.84,1.07,6.58,6.58,0,0,0-.26,1.94,4.67,4.67,0,0,0,.45,2.16,1.89,1.89,0,0,0,1.87.88h1.69a4.54,4.54,0,0,1-.14,1.27,1,1,0,0,1-.39.58,1.34,1.34,0,0,1-.68.15,12.61,12.61,0,0,1-1.85-.2v1a17.69,17.69,0,0,0,1.94.2,1.82,1.82,0,0,0,1.81-1,6.82,6.82,0,0,0,.49-2.88V7330q-.47-.09-1.2-.18c-.49-.05-.92-.08-1.3-.08m1.33,5.34h-1.32a1.27,1.27,0,0,1-1.24-.57,3.27,3.27,0,0,1-.29-1.46,3,3,0,0,1,.4-1.74,1.61,1.61,0,0,1,1.38-.52,7.33,7.33,0,0,1,1.07.09Z" transform="translate(-7035.28 -7222.06)"/><rect x="256.57" y="105.27" width="1.17" height="8.76"/><path d="M7299.77,7335v-1.19a5.69,5.69,0,0,0-.44-2.4,2.89,2.89,0,0,0-1.14-1.36,3.14,3.14,0,0,0-1.61-.42,5.56,5.56,0,0,0-.79.06,4.11,4.11,0,0,0-.6.12l.09.87h1.07a2.11,2.11,0,0,1,1.58.72,3.59,3.59,0,0,1,.68,2.47V7335h-4v1.05H7301V7335Z" transform="translate(-7035.28 -7222.06)"/><rect x="268.4" y="105.54" width="1.03" height="1.19"/><rect x="266.76" y="105.54" width="1.05" height="1.19"/><polygon points="268.69 112.98 268.69 107.88 267.52 107.88 267.52 112.98 265.69 112.98 265.69 114.03 270.52 114.03 270.52 112.98 268.69 112.98"/><polygon points="270.52 114.03 270.52 114.03 270.52 112.98 270.52 114.03"/><polygon points="272.03 112.98 270.52 112.98 270.52 114.03 273.2 114.03 273.2 105.27 272.03 105.27 272.03 112.98"/><rect x="285.43" y="105.53" width="1.12" height="1.2"/><path d="M7321.37,7330a4.65,4.65,0,0,0-1.8.28,1.8,1.8,0,0,0-.94,1,4.93,4.93,0,0,0-.28,1.88,5.17,5.17,0,0,0,.28,2H7316a3.26,3.26,0,0,1-1.7-.31,1.13,1.13,0,0,1-.47-1,12.5,12.5,0,0,1,.17-1.64l.1-.73-.93-.05c-.1.42-.2.89-.27,1.4a8.44,8.44,0,0,0-.12,1.28,2.07,2.07,0,0,0,.36,1.3,2,2,0,0,0,1.07.64,7.67,7.67,0,0,0,1.85.19h7.52v-6l-.45,0a14.73,14.73,0,0,0-1.73-.09m1,5.09h-2.47a2.14,2.14,0,0,1-.3-.68,5.07,5.07,0,0,1-.11-1.2,4.55,4.55,0,0,1,.15-1.32,1.1,1.1,0,0,1,.53-.67,2.34,2.34,0,0,1,1.12-.21q.3,0,1.08.06Z" transform="translate(-7035.28 -7222.06)"/><rect x="290.03" y="105.27" width="1.17" height="8.76"/><path d="M7336.62,7335V7330l-1.38-.1c-.63,0-1.13,0-1.49,0a4.24,4.24,0,0,0-1.76.31,1.81,1.81,0,0,0-.92,1,6.21,6.21,0,0,0,0,3.72,1.87,1.87,0,0,0,.95,1,4.36,4.36,0,0,0,1.78.3H7338V7335Zm-1.16,0H7334a2.75,2.75,0,0,1-1.18-.2,1.13,1.13,0,0,1-.62-.65,3.25,3.25,0,0,1-.19-1.25,3.32,3.32,0,0,1,.18-1.21,1.23,1.23,0,0,1,.61-.66,2.79,2.79,0,0,1,1.15-.2c.39,0,.91,0,1.56.08Z" transform="translate(-7035.28 -7222.06)"/><rect x="303.77" y="115.01" width="1.05" height="1.18"/><polygon points="305.7 107.88 304.53 107.88 304.53 112.98 302.7 112.98 302.7 114.03 305.7 114.03 305.7 107.88"/><rect x="305.42" y="115.01" width="1.03" height="1.18"/><rect x="307.72" y="105.27" width="1.17" height="8.76"/><rect x="264.94" y="76.1" width="2.43" height="2.67"/><rect x="280.07" y="76.1" width="2.43" height="2.67"/><path d="M7204,7312.39h7.35l1.14,4.26H7215l-4.71-18.2h-5.24l-4.7,18.2h2.51Zm3-11.8h1.37l2.46,9.55h-6.3Z" transform="translate(-7035.28 -7222.06)"/><polygon points="193.61 78.61 193.61 76.39 182.5 76.39 182.5 94.59 185.04 94.59 185.04 87.4 192.21 87.4 192.21 85.17 185.04 85.17 185.04 78.61 193.61 78.61"/><path d="M7246.54,7307.31a12.63,12.63,0,0,0-3-1.06,19.88,19.88,0,0,1-2.73-.78,3,3,0,0,1-1.31-.91,2.56,2.56,0,0,1-.41-1.54q0-2.64,3.63-2.64a51.78,51.78,0,0,1,5.24.42l.21-2.06c-1.38-.23-2.48-.39-3.32-.48a22,22,0,0,0-2.34-.13,6.75,6.75,0,0,0-4.45,1.27,4.69,4.69,0,0,0-1.51,3.78,5.18,5.18,0,0,0,.56,2.57,4.15,4.15,0,0,0,1.75,1.6,14.53,14.53,0,0,0,3.33,1.12,15.26,15.26,0,0,1,2.26.65,2.2,2.2,0,0,1,1.55,2.32q0,3.26-3.57,3.25a45.8,45.8,0,0,1-5.45-.47l-.27,2,1,.16a31.67,31.67,0,0,0,4.92.5,6.21,6.21,0,0,0,4.43-1.43,5.54,5.54,0,0,0,1.52-4.23,5.17,5.17,0,0,0-.49-2.43,3.71,3.71,0,0,0-1.55-1.51" transform="translate(-7035.28 -7222.06)"/><path d="M7256.67,7303.13a5.06,5.06,0,0,0-4.29,1.79q-1.4,1.78-1.39,5.46c0,2.27.43,3.94,1.29,5s2.31,1.57,4.34,1.57a31.4,31.4,0,0,0,5-.53l-.05-1.9-.74.08c-.55.05-1.17.09-1.85.11s-1.31,0-1.86,0a5.41,5.41,0,0,1-2.16-.34,2.12,2.12,0,0,1-1.12-1.12,6,6,0,0,1-.37-2.21h8.44l.16-1.8q0-6.14-5.4-6.14m-3.22,6a4.82,4.82,0,0,1,.79-3,3,3,0,0,1,2.43-.94,2.66,2.66,0,0,1,2.27.9,5.23,5.23,0,0,1,.67,3.05Z" transform="translate(-7035.28 -7222.06)"/><path d="M7270.56,7314.72a4.5,4.5,0,0,1-2.24-.45,2.42,2.42,0,0,1-1.08-1.43,10,10,0,0,1-.3-2.78,10.55,10.55,0,0,1,.3-2.86,2.28,2.28,0,0,1,1.08-1.42,4.44,4.44,0,0,1,2.17-.43c.61,0,1.67.07,3.17.21l.08-2c-1-.2-1.77-.33-2.36-.39a15.88,15.88,0,0,0-1.64-.09c-2,0-3.4.6-4.16,1.81a9.48,9.48,0,0,0-1.15,5.09,12.63,12.63,0,0,0,.51,4,4,4,0,0,0,1.7,2.23,6,6,0,0,0,3.13.71,26.18,26.18,0,0,0,4-.45l-.08-2Z" transform="translate(-7035.28 -7222.06)"/><path d="M7276.49,7303.42v6.91a16,16,0,0,0,.37,3.9,3.47,3.47,0,0,0,1.3,2.06,4.57,4.57,0,0,0,2.64.65,7,7,0,0,0,1.95-.26,10.42,10.42,0,0,0,2-.9v.87h2.46v-13.23h-2.46v10.48a12.44,12.44,0,0,1-1.68.61,6.45,6.45,0,0,1-1.66.21,2.75,2.75,0,0,1-1.57-.37,2,2,0,0,1-.7-1.29,14.15,14.15,0,0,1-.19-2.73v-6.91Z" transform="translate(-7035.28 -7222.06)"/><path d="M7298,7305.62v-2.49a13.35,13.35,0,0,0-4.66,2v-1.67h-2.43v13.23h2.46v-9.45l.63-.29a19.31,19.31,0,0,1,1.85-.71,18.25,18.25,0,0,1,2.15-.58" transform="translate(-7035.28 -7222.06)"/><rect x="264.94" y="81.36" width="2.46" height="13.23"/><path d="M7313,7314.61l-2.25.13a1.34,1.34,0,0,1-1.55-1.28,14,14,0,0,1-.09-1.86v-6.06H7313v-2.12h-3.89v-3.94h-2.46v3.94h-1.77v2.12h1.77v6.51a9.82,9.82,0,0,0,.34,2.93,2.56,2.56,0,0,0,1.13,1.51,4.37,4.37,0,0,0,2.18.45,18.58,18.58,0,0,0,2.86-.32Z" transform="translate(-7035.28 -7222.06)"/><rect x="280.07" y="81.36" width="2.46" height="13.23"/><path d="M7331.26,7314.51l-.74.08c-.55.05-1.17.09-1.86.11s-1.3,0-1.85,0a5.47,5.47,0,0,1-2.17-.34,2.13,2.13,0,0,1-1.11-1.12,6,6,0,0,1-.37-2.21h8.44l.16-1.8q0-6.14-5.4-6.14a5.11,5.11,0,0,0-4.3,1.78,8.93,8.93,0,0,0-1.39,5.47,7.85,7.85,0,0,0,1.3,5c.86,1.05,2.31,1.57,4.34,1.57a31.4,31.4,0,0,0,5-.53Zm-7.33-8.38a3,3,0,0,1,2.43-.94,2.64,2.64,0,0,1,2.26.9,5.22,5.22,0,0,1,.68,3.05h-6.17a4.88,4.88,0,0,1,.8-3" transform="translate(-7035.28 -7222.06)"/><path d="M7343.73,7310.7a2.73,2.73,0,0,0-1.32-1.13,12,12,0,0,0-2.45-.67l-.74-.14a14.52,14.52,0,0,1-1.55-.34,2,2,0,0,1-.88-.49,1.24,1.24,0,0,1-.35-.94c0-1.09.9-1.64,2.7-1.64a33.52,33.52,0,0,1,4.55.43l.05-2.07-.76-.16a25.4,25.4,0,0,0-4-.39c-3.35,0-5,1.36-5,4.1a3.43,3.43,0,0,0,.48,1.95,3,3,0,0,0,1.36,1.09,10.65,10.65,0,0,0,2.39.61l.64.1a13.25,13.25,0,0,1,1.59.33,2.33,2.33,0,0,1,.91.53,1.42,1.42,0,0,1,.36,1.05,1.47,1.47,0,0,1-.72,1.37,4.11,4.11,0,0,1-2.11.43,37.62,37.62,0,0,1-4.58-.45l-.11,2.11.8.14a24.8,24.8,0,0,0,4,.42,6.21,6.21,0,0,0,3.92-1,3.89,3.89,0,0,0,1.27-3.21,3.94,3.94,0,0,0-.44-2" transform="translate(-7035.28 -7222.06)"/></svg>