<svg xmlns="http://www.w3.org/2000/svg" xmlns:xlink="http://www.w3.org/1999/xlink" viewBox="0 0 307.96 146.11"><defs><style>.cls-1{fill:#ff3f3f;}.cls-2{fill:#18d26b;}.cls-3{clip-path:url(#clip-path);}.cls-4{clip-path:url(#clip-path-2);}.cls-5{clip-path:url(#clip-path-3);}.cls-6{clip-path:url(#clip-path-4);}.cls-7{clip-path:url(#clip-path-5);}.cls-8{clip-path:url(#clip-path-6);}.cls-9{clip-path:url(#clip-path-7);}.cls-10{clip-path:url(#clip-path-8);}.cls-11{clip-path:url(#clip-path-9);}.cls-12{clip-path:url(#clip-path-10);}.cls-13{clip-path:url(#clip-path-11);}.cls-14{clip-path:url(#clip-path-12);}.cls-15{clip-path:url(#clip-path-13);}.cls-16{clip-path:url(#clip-path-14);}.cls-17{fill:#fff;}</style><clipPath id="clip-path" transform="translate(21.43 34.41)"><path class="cls-1" d="M2.2,78.48a2.88,2.88,0,0,0,5.76,0V45l-.59-.26a.27.27,0,0,0-.14-.07l-.62-.33A14.07,14.07,0,0,1,2.2,41Z"/></clipPath><clipPath id="clip-path-2" transform="translate(21.43 34.41)"><path class="cls-1" d="M13.72,78.48a2.88,2.88,0,0,0,5.76,0V49.72l-.72-.27c-.41-.15-.82-.29-1.21-.45-1.29-.49-2.56-1-3.83-1.52Z"/></clipPath><clipPath id="clip-path-3" transform="translate(21.43 34.41)"><path class="cls-1" d="M25.24,78.48a2.88,2.88,0,0,0,5.75.34V54.42l-.71-.35c-.6-.27-1.19-.56-1.79-.82-1.07-.47-2.16-.91-3.25-1.34Z"/></clipPath><clipPath id="clip-path-4" transform="translate(21.43 34.41)"><path class="cls-1" d="M36.75,78.48a2.88,2.88,0,0,0,5.76,0V61l-.72-.49c-.78-.53-1.56-1-2.37-1.54s-1.76-1.05-2.67-1.56Z"/></clipPath><clipPath id="clip-path-5" transform="translate(21.43 34.41)"><path class="cls-1" d="M48.27,78.48a2.88,2.88,0,0,0,5.76,0V69.42l-2-1.61-1.56-1.22s-2-1.63-2.15-1.7Z"/></clipPath><clipPath id="clip-path-6" transform="translate(21.43 34.41)"><path class="cls-1" d="M59.79,78.48a2.88,2.88,0,0,0,2.88,2.88h0a2.86,2.86,0,0,0,2.66-1.82c-.83-.86-1.65-1.68-2.45-2.45L60.65,75l-.86-.78Z"/></clipPath><clipPath id="clip-path-7" transform="translate(21.43 34.41)"><path class="cls-2" d="M76.75,71.2c-1,1.18-2,2.38-2.93,3.6-.58.77-1.12,1.55-1.65,2.33-.3.43-.58.87-.86,1.3h0a2.88,2.88,0,0,0,5.75.34v-8l-.31.35"/></clipPath><clipPath id="clip-path-8" transform="translate(21.43 34.41)"><path class="cls-2" d="M84.75,63.28l-1.06,1-.87.76V78.48a2.88,2.88,0,0,0,5.76,0V60.23c-1.3,1-2.58,2-3.83,3.05"/></clipPath><clipPath id="clip-path-9" transform="translate(21.43 34.41)"><path class="cls-2" d="M95.69,55.39c-.17.11-.32.22-.49.32l-.86.54V78.48a2.88,2.88,0,0,0,5.76,0V52.92c-1.49.78-3,1.61-4.41,2.47"/></clipPath><clipPath id="clip-path-10" transform="translate(21.43 34.41)"><path class="cls-2" d="M106.72,49.73h-.09l-.77.34V78.44a2.88,2.88,0,0,0,5.76,0V47.71c-1.66.62-3.3,1.28-4.9,2"/></clipPath><clipPath id="clip-path-11" transform="translate(21.43 34.41)"><path class="cls-2" d="M118.24,45.08c-.28.16-.57.31-.87.46V78.47a2.88,2.88,0,0,0,5.76,0l.21-38.89a12.23,12.23,0,0,1-5.1,5.5"/></clipPath><clipPath id="clip-path-12" transform="translate(21.43 34.41)"><path class="cls-2" d="M93.47,19.32A4.43,4.43,0,0,1,95.2,19,17,17,0,0,1,101,20.53l.84.36H101A19.12,19.12,0,0,0,95.2,22a26.83,26.83,0,0,0-4.06,1.71,3.42,3.42,0,0,1,2.22-4.31l.11,0M85.53.39,83.69,1A22.87,22.87,0,0,0,77.93,3.9c-4.2,3.1-5.06,7.31-3.28,13.58l-2.48.73-5.77,1.7-3.9,1.16A14.19,14.19,0,0,0,66.4,25a12.43,12.43,0,0,0,5.77,1.85v3.35c-1.41,1.12-3.39,1.94-4.66,2.88l-1,11.66-.12-.09-1.94-1.4L60.64,55.44l-.29.93-7-5.62-2.73,8.39-.26.8,1.56,1.22c.61.46,1.3,1,2,1.6l.85.68c.39.3.79.61,1.19.94l1.35,1.1c.75.64,1.54,1.34,2.37,2.08l.86.79c.72.66,1.46,1.35,2.23,2.09s1.62,1.59,2.45,2.45l1,1.06c.76.79,1.5,1.59,2.28,2.45a46.14,46.14,0,0,1,2.67-4.62c.28-.44.56-.87.86-1.3.53-.79,1.07-1.56,1.65-2.33.92-1.22,1.89-2.43,2.93-3.6l.31-.36c.29-.32.58-.65.87-1s.9-1,1.36-1.45c.8-.82,1.62-1.64,2.44-2.43.36-.34.72-.68,1.09-1l.87-.77,1.06-.94c1.25-1.07,2.53-2.07,3.83-3.05l.86-.65c.26-.19.52-.4.79-.59q2-1.44,4.11-2.74l.86-.54c.17-.1.32-.22.49-.32q2.16-1.29,4.41-2.48l.86-.45.21-.12q2.31-1.19,4.69-2.23l.77-.35h.09c1.6-.71,3.24-1.36,4.9-2l.49-.19.37-.14c.87-.32,1.74-.64,2.62-.93a21.21,21.21,0,0,0,2-.78l.31-.16c.3-.15.59-.3.87-.46a12.29,12.29,0,0,0,5.1-5.5c.08-.16.15-.32.22-.48a12.77,12.77,0,0,0,.43-1.23,16.53,16.53,0,0,0,.49-2.08c.07-.41.11-.84.15-1.27a11,11,0,0,0-.15-3.43,5.45,5.45,0,0,0-.49-1.23c-.92-1.63-2.78-2.31-5.75-2.46h-.42c-1.75-.06-3.56-.18-5.34-.41a33.2,33.2,0,0,1-5.76-1.24c-.6-.2-1.2-.41-1.76-.65-1.31-.55-2.64-1-4-1.45a27,27,0,0,0-5.76-1.15,20.6,20.6,0,0,0-5.76.33l-.38.07c-2,.45-4,.64-5.37-.41a3.64,3.64,0,0,1-1.24-1.92,15.57,15.57,0,0,1-.15-8.32,6.48,6.48,0,0,1,1.39-2.32c.85-1,1.91-1.92,2.8-2.88L86.74,0,85.43.39"/></clipPath><clipPath id="clip-path-13" transform="translate(21.43 34.41)"><path class="cls-1" d="M30.28,14.36a21.85,21.85,0,0,0-5.77,1.18,19.44,19.44,0,0,0-3.78,1.77.87.87,0,0,0-.26,1.19.91.91,0,0,0,.59.38c1.14.18,2.32.34,3.45.59,2.55.59,4.8,1.75,5.77,5.08A14.38,14.38,0,0,1,30.59,26l-.31-.23A19.67,19.67,0,0,0,24.51,23a23.93,23.93,0,0,0-5.75-.9,48.28,48.28,0,0,0-5.77.07c-1.92.1-3.84.24-5.76.31a40.87,40.87,0,0,1-5.75-.16l-.66-.08a26.6,26.6,0,0,0-.61,2.95,14.4,14.4,0,0,0,0,4.9,9.21,9.21,0,0,0,.92,2.64c.11.19.22.38.35.57a10.13,10.13,0,0,0,.72,1,14.22,14.22,0,0,0,4.41,3.35l.62.32.14.07.59.27c1.36.63,2.73,1.23,4.11,1.81l.92.39.73.3c1.27.52,2.54,1,3.83,1.52l1.21.45.72.27,3.24,1.21a1.72,1.72,0,0,1,.29.11c.51.18,1,.38,1.5.57l.73.29c1.09.43,2.18.88,3.25,1.34l1.79.83.71.34c1,.48,2,1,3,1.47.71.36,1.4.74,2.08,1.13l.72.41q1.35.75,2.67,1.56c.81.5,1.59,1,2.37,1.54l.72.49c.8.55,1.6,1.11,2.38,1.67.09.07,1.4.93,1.92,1.29L48,58.1l3-12.22,2.31,1.44L57.72,50l1.35-5.62,1.09-4.57-1.09-.8-1-.74,1-1.05,6.27-5.58c-2.28-3.13-4.11-6.23-6.2-8.52v.66c-.47,2.94-2.73,4.41-5.77,4.82a14.67,14.67,0,0,1-2.48.11l2.28-1.57.2-.15c3.72-2.67,3.84-5.8.14-8.7a.49.49,0,0,0-.14-.11c-1.9-1.52-3.62-3.32-5.75-3.57a4.64,4.64,0,0,0-2.38.37,7.62,7.62,0,0,1-3.38.41,17.35,17.35,0,0,1-1.9-.26c-1.3-.26-2.58-.48-3.86-.62a31.49,31.49,0,0,0-3.76-.23,19.1,19.1,0,0,0-2,.07"/></clipPath><clipPath id="clip-path-14" transform="translate(21.43 34.41)"><path class="cls-2" d="M110.24,13.19s.76,2.52.17,3.9a.76.76,0,0,0,.42,1,1,1,0,0,0,.25.06c.44,0,.92.08,1.39.1,1.43.07,2.84,0,3.08-.33.87-1.33,1-4.24,0-5.43a28.47,28.47,0,0,0-3.12-3.28c-1.55-1.42-3.23-2.78-4.85-4.27l2.62,8.25"/></clipPath></defs><g id="Layer_2" data-name="Layer 2"><g id="Layer_1-2" data-name="Layer 1"><path d="M2.2,78.48a2.88,2.88,0,0,0,5.76,0V45l-.59-.26a.27.27,0,0,0-.14-.07l-.62-.33A14.07,14.07,0,0,1,2.2,41Z" transform="translate(21.43 34.41)"/><path class="cls-1" d="M2.2,78.48a2.88,2.88,0,0,0,5.76,0V45l-.59-.26a.27.27,0,0,0-.14-.07l-.62-.33A14.07,14.07,0,0,1,2.2,41Z" transform="translate(21.43 34.41)"/><g class="cls-3"><rect class="cls-1" x="-3.31" y="41.02" width="16.71" height="40.4" transform="translate(4.68 38.19) rotate(-16.07)"/></g><path d="M13.72,78.48a2.88,2.88,0,0,0,5.76,0V49.72l-.72-.27c-.41-.15-.82-.29-1.21-.45-1.29-.49-2.56-1-3.83-1.52Z" transform="translate(21.43 34.41)"/><path class="cls-1" d="M13.72,78.48a2.88,2.88,0,0,0,5.76,0V49.72l-.72-.27c-.41-.15-.82-.29-1.21-.45-1.29-.49-2.56-1-3.83-1.52Z" transform="translate(21.43 34.41)"/><g class="cls-4"><rect class="cls-1" x="9.1" y="47.38" width="14.91" height="34.15" transform="translate(4.24 41.51) rotate(-16.07)"/></g><path d="M25.24,78.48a2.88,2.88,0,0,0,5.75.34V54.42l-.71-.35c-.6-.27-1.19-.56-1.79-.82-1.07-.47-2.16-.91-3.25-1.34Z" transform="translate(21.43 34.41)"/><path class="cls-1" d="M25.24,78.48a2.88,2.88,0,0,0,5.75.34V54.42l-.71-.35c-.6-.27-1.19-.56-1.79-.82-1.07-.47-2.16-.91-3.25-1.34Z" transform="translate(21.43 34.41)"/><g class="cls-5"><rect class="cls-1" x="21.24" y="51.73" width="13.69" height="29.9" transform="translate(4.07 44.78) rotate(-16.07)"/></g><path d="M36.75,78.48a2.88,2.88,0,0,0,5.76,0V61l-.72-.49c-.78-.53-1.56-1-2.37-1.54s-1.76-1.05-2.67-1.56Z" transform="translate(21.43 34.41)"/><path class="cls-1" d="M36.75,78.48a2.88,2.88,0,0,0,5.76,0V61l-.72-.49c-.78-.53-1.56-1-2.37-1.54s-1.76-1.05-2.67-1.56Z" transform="translate(21.43 34.41)"/><g class="cls-6"><rect class="cls-1" x="33.51" y="57.15" width="12.16" height="24.59" transform="translate(3.76 48.08) rotate(-16.07)"/></g><path d="M48.27,78.48a2.88,2.88,0,0,0,5.76,0V69.42l-2-1.61-1.56-1.22s-2-1.63-2.15-1.7Z" transform="translate(21.43 34.41)"/><path class="cls-1" d="M48.27,78.48a2.88,2.88,0,0,0,5.76,0V69.42l-2-1.61-1.56-1.22s-2-1.63-2.15-1.7Z" transform="translate(21.43 34.41)"/><g class="cls-7"><rect class="cls-1" x="46.07" y="64.44" width="10.09" height="17.42" transform="translate(3.18 51.41) rotate(-16.07)"/></g><path d="M59.79,78.48a2.88,2.88,0,0,0,2.88,2.88h0a2.86,2.86,0,0,0,2.66-1.82c-.83-.86-1.65-1.68-2.45-2.45L60.65,75l-.86-.78Z" transform="translate(21.43 34.41)"/><path class="cls-1" d="M59.79,78.48a2.88,2.88,0,0,0,2.88,2.88h0a2.86,2.86,0,0,0,2.66-1.82c-.83-.86-1.65-1.68-2.45-2.45L60.65,75l-.86-.78Z" transform="translate(21.43 34.41)"/><g class="cls-8"><rect class="cls-1" x="58.89" y="73.62" width="7.3" height="8.4" transform="translate(2.34 54.76) rotate(-16.07)"/></g><path d="M76.75,71.2c-1,1.18-2,2.38-2.93,3.6-.58.77-1.12,1.55-1.65,2.33-.3.43-.58.87-.86,1.3h0a2.88,2.88,0,0,0,5.75.34v-8l-.31.35" transform="translate(21.43 34.41)"/><path class="cls-2" d="M76.75,71.2c-1,1.18-2,2.38-2.93,3.6-.58.77-1.12,1.55-1.65,2.33-.3.43-.58.87-.86,1.3h0a2.88,2.88,0,0,0,5.75.34v-8l-.31.35" transform="translate(21.43 34.41)"/><g class="cls-9"><rect class="cls-2" x="84.36" y="96.66" width="11.21" height="7.15" transform="translate(-0.45 209.68) rotate(-81.95)"/></g><path d="M84.75,63.28l-1.06,1-.87.76V78.48a2.88,2.88,0,0,0,5.76,0V60.23c-1.3,1-2.58,2-3.83,3.05" transform="translate(21.43 34.41)"/><path class="cls-2" d="M84.75,63.28l-1.06,1-.87.76V78.48a2.88,2.88,0,0,0,5.76,0V60.23c-1.3,1-2.58,2-3.83,3.05" transform="translate(21.43 34.41)"/><g class="cls-10"><rect class="cls-2" x="75.06" y="66.82" width="21.72" height="8.6" transform="translate(25.12 180.87) rotate(-82.11)"/></g><path d="M95.69,55.39c-.17.11-.32.22-.49.32l-.86.54V78.48a2.88,2.88,0,0,0,5.76,0V52.92c-1.49.78-3,1.61-4.41,2.47" transform="translate(21.43 34.41)"/><path class="cls-2" d="M95.69,55.39c-.17.11-.32.22-.49.32l-.86.54V78.48a2.88,2.88,0,0,0,5.76,0V52.92c-1.49.78-3,1.61-4.41,2.47" transform="translate(21.43 34.41)"/><g class="cls-11"><rect class="cls-2" x="82.97" y="62.66" width="28.97" height="9.61" transform="translate(38.69 189.14) rotate(-82.11)"/></g><path d="M106.72,49.73h-.09l-.77.34V78.44a2.88,2.88,0,0,0,5.76,0V47.71c-1.66.62-3.3,1.28-4.9,2" transform="translate(21.43 34.41)"/><path class="cls-2" d="M106.72,49.73h-.09l-.77.34V78.44a2.88,2.88,0,0,0,5.76,0V47.71c-1.66.62-3.3,1.28-4.9,2" transform="translate(21.43 34.41)"/><g class="cls-12"><rect class="cls-2" x="91.93" y="59.72" width="34.08" height="10.32" transform="translate(51.18 198.32) rotate(-82.11)"/></g><path d="M118.24,45.08c-.28.16-.57.31-.87.46V78.47a2.88,2.88,0,0,0,5.76,0l.21-38.89a12.23,12.23,0,0,1-5.1,5.5" transform="translate(21.43 34.41)"/><path class="cls-2" d="M118.24,45.08c-.28.16-.57.31-.87.46V78.47a2.88,2.88,0,0,0,5.76,0l.21-38.89a12.23,12.23,0,0,1-5.1,5.5" transform="translate(21.43 34.41)"/><g class="cls-13"><rect class="cls-2" x="99.49" y="54.98" width="42.2" height="11.64" transform="translate(65.24 206.3) rotate(-82.11)"/></g><path d="M93.47,19.32A4.43,4.43,0,0,1,95.2,19,17,17,0,0,1,101,20.53l.84.36H101A19.12,19.12,0,0,0,95.2,22a26.83,26.83,0,0,0-4.06,1.71,3.42,3.42,0,0,1,2.22-4.31l.11,0M85.53.39,83.69,1A22.87,22.87,0,0,0,77.93,3.9c-4.2,3.1-5.06,7.31-3.28,13.58l-2.48.73-5.77,1.7-3.9,1.16A14.19,14.19,0,0,0,66.4,25a12.43,12.43,0,0,0,5.77,1.85v3.35c-1.41,1.12-3.39,1.94-4.66,2.88l-1,11.66-.12-.09-1.94-1.4L60.64,55.44l-.29.93-7-5.62-2.73,8.39-.26.8,1.56,1.22c.61.46,1.3,1,2,1.6l.85.68c.39.3.79.61,1.19.94l1.35,1.1c.75.64,1.54,1.34,2.37,2.08l.86.79c.72.66,1.46,1.35,2.23,2.09s1.62,1.59,2.45,2.45l1,1.06c.76.79,1.5,1.59,2.28,2.45a46.14,46.14,0,0,1,2.67-4.62c.28-.44.56-.87.86-1.3.53-.79,1.07-1.56,1.65-2.33.92-1.22,1.89-2.43,2.93-3.6l.31-.36c.29-.32.58-.65.87-1s.9-1,1.36-1.45c.8-.82,1.62-1.64,2.44-2.43.36-.34.72-.68,1.09-1l.87-.77,1.06-.94c1.25-1.07,2.53-2.07,3.83-3.05l.86-.65c.26-.19.52-.4.79-.59q2-1.44,4.11-2.74l.86-.54c.17-.1.32-.22.49-.32q2.16-1.29,4.41-2.48l.86-.45.21-.12q2.31-1.19,4.69-2.23l.77-.35h.09c1.6-.71,3.24-1.36,4.9-2l.49-.19.37-.14c.87-.32,1.74-.64,2.62-.93a21.21,21.21,0,0,0,2-.78l.31-.16c.3-.15.59-.3.87-.46a12.29,12.29,0,0,0,5.1-5.5c.08-.16.15-.32.22-.48a12.77,12.77,0,0,0,.43-1.23,16.53,16.53,0,0,0,.49-2.08c.07-.41.11-.84.15-1.27a11,11,0,0,0-.15-3.43,5.45,5.45,0,0,0-.49-1.23c-.92-1.63-2.78-2.31-5.75-2.46h-.42c-1.75-.06-3.56-.18-5.34-.41a33.2,33.2,0,0,1-5.76-1.24c-.6-.2-1.2-.41-1.76-.65-1.31-.55-2.64-1-4-1.45a27,27,0,0,0-5.76-1.15,20.6,20.6,0,0,0-5.76.33l-.38.07c-2,.45-4,.64-5.37-.41a3.64,3.64,0,0,1-1.24-1.92,15.57,15.57,0,0,1-.15-8.32,6.48,6.48,0,0,1,1.39-2.32c.85-1,1.91-1.92,2.8-2.88L86.74,0,85.43.39" transform="translate(21.43 34.41)"/><path class="cls-2" d="M93.47,19.32A4.43,4.43,0,0,1,95.2,19,17,17,0,0,1,101,20.53l.84.36H101A19.12,19.12,0,0,0,95.2,22a26.83,26.83,0,0,0-4.06,1.71,3.42,3.42,0,0,1,2.22-4.31l.11,0M85.53.39,83.69,1A22.87,22.87,0,0,0,77.93,3.9c-4.2,3.1-5.06,7.31-3.28,13.58l-2.48.73-5.77,1.7-3.9,1.16A14.19,14.19,0,0,0,66.4,25a12.43,12.43,0,0,0,5.77,1.85v3.35c-1.41,1.12-3.39,1.94-4.66,2.88l-1,11.66-.12-.09-1.94-1.4L60.64,55.44l-.29.93-7-5.62-2.73,8.39-.26.8,1.56,1.22c.61.46,1.3,1,2,1.6l.85.68c.39.3.79.61,1.19.94l1.35,1.1c.75.64,1.54,1.34,2.37,2.08l.86.79c.72.66,1.46,1.35,2.23,2.09s1.62,1.59,2.45,2.45l1,1.06c.76.79,1.5,1.59,2.28,2.45a46.14,46.14,0,0,1,2.67-4.62c.28-.44.56-.87.86-1.3.53-.79,1.07-1.56,1.65-2.33.92-1.22,1.89-2.43,2.93-3.6l.31-.36c.29-.32.58-.65.87-1s.9-1,1.36-1.45c.8-.82,1.62-1.64,2.44-2.43.36-.34.72-.68,1.09-1l.87-.77,1.06-.94c1.25-1.07,2.53-2.07,3.83-3.05l.86-.65c.26-.19.52-.4.79-.59q2-1.44,4.11-2.74l.86-.54c.17-.1.32-.22.49-.32q2.16-1.29,4.41-2.48l.86-.45.21-.12q2.31-1.19,4.69-2.23l.77-.35h.09c1.6-.71,3.24-1.36,4.9-2l.49-.19.37-.14c.87-.32,1.74-.64,2.62-.93a21.21,21.21,0,0,0,2-.78l.31-.16c.3-.15.59-.3.87-.46a12.29,12.29,0,0,0,5.1-5.5c.08-.16.15-.32.22-.48a12.77,12.77,0,0,0,.43-1.23,16.53,16.53,0,0,0,.49-2.08c.07-.41.11-.84.15-1.27a11,11,0,0,0-.15-3.43,5.45,5.45,0,0,0-.49-1.23c-.92-1.63-2.78-2.31-5.75-2.46h-.42c-1.75-.06-3.56-.18-5.34-.41a33.2,33.2,0,0,1-5.76-1.24c-.6-.2-1.2-.41-1.76-.65-1.31-.55-2.64-1-4-1.45a27,27,0,0,0-5.76-1.15,20.6,20.6,0,0,0-5.76.33l-.38.07c-2,.45-4,.64-5.37-.41a3.64,3.64,0,0,1-1.24-1.92,15.57,15.57,0,0,1-.15-8.32,6.48,6.48,0,0,1,1.39-2.32c.85-1,1.91-1.92,2.8-2.88L86.74,0,85.43.39" transform="translate(21.43 34.41)"/><g class="cls-14"><rect class="cls-2" x="35.07" y="-13.68" width="105.17" height="104.66" transform="translate(27.28 122.9) rotate(-55.15)"/></g><path d="M30.28,14.36a21.85,21.85,0,0,0-5.77,1.18,19.44,19.44,0,0,0-3.78,1.77.87.87,0,0,0-.26,1.19.91.91,0,0,0,.59.38c1.14.18,2.32.34,3.45.59,2.55.59,4.8,1.75,5.77,5.08A14.38,14.38,0,0,1,30.59,26l-.31-.23A19.67,19.67,0,0,0,24.51,23a23.93,23.93,0,0,0-5.75-.9,48.28,48.28,0,0,0-5.77.07c-1.92.1-3.84.24-5.76.31a40.87,40.87,0,0,1-5.75-.16l-.66-.08a26.6,26.6,0,0,0-.61,2.95,14.4,14.4,0,0,0,0,4.9,9.21,9.21,0,0,0,.92,2.64c.11.19.22.38.35.57a10.13,10.13,0,0,0,.72,1,14.22,14.22,0,0,0,4.41,3.35l.62.32.14.07.59.27c1.36.63,2.73,1.23,4.11,1.81l.92.39.73.3c1.27.52,2.54,1,3.83,1.52l1.21.45.72.27,3.24,1.21a1.72,1.72,0,0,1,.29.11c.51.18,1,.38,1.5.57l.73.29c1.09.43,2.18.88,3.25,1.34l1.79.83.71.34c1,.48,2,1,3,1.47.71.36,1.4.74,2.08,1.13l.72.41q1.35.75,2.67,1.56c.81.5,1.59,1,2.37,1.54l.72.49c.8.55,1.6,1.11,2.38,1.67.09.07,1.4.93,1.92,1.29L48,58.1l3-12.22,2.31,1.44L57.72,50l1.35-5.62,1.09-4.57-1.09-.8-1-.74,1-1.05,6.27-5.58c-2.28-3.13-4.11-6.23-6.2-8.52v.66c-.47,2.94-2.73,4.41-5.77,4.82a14.67,14.67,0,0,1-2.48.11l2.28-1.57.2-.15c3.72-2.67,3.84-5.8.14-8.7a.49.49,0,0,0-.14-.11c-1.9-1.52-3.62-3.32-5.75-3.57a4.64,4.64,0,0,0-2.38.37,7.62,7.62,0,0,1-3.38.41,17.35,17.35,0,0,1-1.9-.26c-1.3-.26-2.58-.48-3.86-.62a31.49,31.49,0,0,0-3.76-.23,19.1,19.1,0,0,0-2,.07" transform="translate(21.43 34.41)"/><path class="cls-1" d="M30.28,14.36a21.85,21.85,0,0,0-5.77,1.18,19.44,19.44,0,0,0-3.78,1.77.87.87,0,0,0-.26,1.19.91.91,0,0,0,.59.38c1.14.18,2.32.34,3.45.59,2.55.59,4.8,1.75,5.77,5.08A14.38,14.38,0,0,1,30.59,26l-.31-.23A19.67,19.67,0,0,0,24.51,23a23.93,23.93,0,0,0-5.75-.9,48.28,48.28,0,0,0-5.77.07c-1.92.1-3.84.24-5.76.31a40.87,40.87,0,0,1-5.75-.16l-.66-.08a26.6,26.6,0,0,0-.61,2.95,14.4,14.4,0,0,0,0,4.9,9.21,9.21,0,0,0,.92,2.64c.11.19.22.38.35.57a10.13,10.13,0,0,0,.72,1,14.22,14.22,0,0,0,4.41,3.35l.62.32.14.07.59.27c1.36.63,2.73,1.23,4.11,1.81l.92.39.73.3c1.27.52,2.54,1,3.83,1.52l1.21.45.72.27,3.24,1.21a1.72,1.72,0,0,1,.29.11c.51.18,1,.38,1.5.57l.73.29c1.09.43,2.18.88,3.25,1.34l1.79.83.71.34c1,.48,2,1,3,1.47.71.36,1.4.74,2.08,1.13l.72.41q1.35.75,2.67,1.56c.81.5,1.59,1,2.37,1.54l.72.49c.8.55,1.6,1.11,2.38,1.67.09.07,1.4.93,1.92,1.29L48,58.1l3-12.22,2.31,1.44L57.72,50l1.35-5.62,1.09-4.57-1.09-.8-1-.74,1-1.05,6.27-5.58c-2.28-3.13-4.11-6.23-6.2-8.52v.66c-.47,2.94-2.73,4.41-5.77,4.82a14.67,14.67,0,0,1-2.48.11l2.28-1.57.2-.15c3.72-2.67,3.84-5.8.14-8.7a.49.49,0,0,0-.14-.11c-1.9-1.52-3.62-3.32-5.75-3.57a4.64,4.64,0,0,0-2.38.37,7.62,7.62,0,0,1-3.38.41,17.35,17.35,0,0,1-1.9-.26c-1.3-.26-2.58-.48-3.86-.62a31.49,31.49,0,0,0-3.76-.23,19.1,19.1,0,0,0-2,.07" transform="translate(21.43 34.41)"/><g class="cls-15"><rect class="cls-1" x="-4.89" y="-3.46" width="74.94" height="78.46" transform="translate(5.75 73.5) rotate(-51.61)"/></g><path d="M110.24,13.19s.76,2.52.17,3.9a.76.76,0,0,0,.42,1,1,1,0,0,0,.25.06c.44,0,.92.08,1.39.1,1.43.07,2.84,0,3.08-.33.87-1.33,1-4.24,0-5.43a28.47,28.47,0,0,0-3.12-3.28c-1.55-1.42-3.23-2.78-4.85-4.27l2.62,8.25" transform="translate(21.43 34.41)"/><path class="cls-2" d="M110.24,13.19s.76,2.52.17,3.9a.76.76,0,0,0,.42,1,1,1,0,0,0,.25.06c.44,0,.92.08,1.39.1,1.43.07,2.84,0,3.08-.33.87-1.33,1-4.24,0-5.43a28.47,28.47,0,0,0-3.12-3.28c-1.55-1.42-3.23-2.78-4.85-4.27l2.62,8.25" transform="translate(21.43 34.41)"/><g class="cls-16"><rect class="cls-2" x="104.5" y="3.34" width="15.2" height="16.03" transform="translate(37.63 104.9) rotate(-37.44)"/></g><path class="cls-17" d="M148.54,63.08v-5l-1.37-.1h-1.49a4,4,0,0,0-1.76.31,1.77,1.77,0,0,0-.92,1,4.66,4.66,0,0,0-.29,1.85A4.59,4.59,0,0,0,143,63a1.82,1.82,0,0,0,1,1,4.48,4.48,0,0,0,1.78.3h4.17V63.08Zm-1.15,0h-1.51a2.82,2.82,0,0,1-1.19-.2,1.16,1.16,0,0,1-.62-.65,3.34,3.34,0,0,1-.19-1.25,2.93,2.93,0,0,1,.19-1.21,1.2,1.2,0,0,1,.61-.66,2.64,2.64,0,0,1,1.15-.2,12.19,12.19,0,0,1,1.56.08Z" transform="translate(21.43 34.41)"/><rect class="cls-17" x="167.69" y="90.08" width="1.03" height="1.19"/><rect class="cls-17" x="166.05" y="90.08" width="1.05" height="1.19"/><rect class="cls-17" x="172.39" y="99.55" width="1.05" height="1.18"/><rect class="cls-17" x="174.04" y="99.55" width="1.03" height="1.18"/><polygon class="cls-17" points="174.33 97.52 174.33 92.42 173.17 92.42 173.17 97.52 171.33 97.52 171.33 98.57 176.17 98.57 176.17 97.52 174.33 97.52"/><polygon class="cls-17" points="177.68 97.52 176.17 97.52 176.17 98.57 178.85 98.57 178.85 89.81 177.68 89.81 177.68 97.52"/><polygon class="cls-17" points="182.15 97.52 182.15 89.81 180.99 89.81 180.99 98.57 183.32 98.57 183.32 97.52 182.15 97.52"/><path class="cls-17" d="M170.12,63.08a1,1,0,0,1-.52-.14,1.13,1.13,0,0,1-.36-.36v-1.5a3.52,3.52,0,0,0-.7-2.45,3,3,0,0,0-2.29-.75A6.56,6.56,0,0,0,165,58a4.6,4.6,0,0,0-.92.24,9.59,9.59,0,0,0-.24,1.32,9.14,9.14,0,0,0-.11,1.57,10.32,10.32,0,0,0,.17,2h-2v1.05h7.34v-.51a1.22,1.22,0,0,0,.42.36.9.9,0,0,0,.46.15h.48v-1.1Zm-2.05,0h-3c0-.22-.07-.51-.11-.88a10.14,10.14,0,0,1-.06-1.1,11.29,11.29,0,0,1,.19-2.09,4.71,4.71,0,0,1,1-.11,2,2,0,0,1,1.51.5,2.38,2.38,0,0,1,.47,1.63Z" transform="translate(21.43 34.41)"/><polygon class="cls-17" points="193.54 97.52 192.03 97.52 192.03 98.57 194.71 98.57 194.71 89.81 193.54 89.81 193.54 97.52"/><rect class="cls-17" x="196.85" y="89.81" width="1.17" height="8.76"/><rect class="cls-17" x="209.92" y="90.08" width="1.03" height="1.19"/><path class="cls-17" d="M189,58.08h-1a3.89,3.89,0,0,0-1.75.32,1.77,1.77,0,0,0-.9,1,5.46,5.46,0,0,0-.26,1.93,5.19,5.19,0,0,0,.23,1.79A1.38,1.38,0,0,0,186,64a3.29,3.29,0,0,0,1.39.24h1.69v.25a2,2,0,0,1-.45,1.36,1.83,1.83,0,0,1-1.4.5h-3.4a1.78,1.78,0,0,1-1.39-.5,2,2,0,0,1-.45-1.37,8.32,8.32,0,0,1,.1-1.12c.07-.5.15-1,.23-1.56l.09-.54-1.1-.17a22.76,22.76,0,0,0-.47,3.59,2.84,2.84,0,0,0,.34,1.4,2.41,2.41,0,0,0,1,1,3.61,3.61,0,0,0,1.62.35h3.53a3.68,3.68,0,0,0,1.63-.35,2.53,2.53,0,0,0,1-1,2.83,2.83,0,0,0,.34-1.39V58.2h-.44c-.23,0-.53-.05-.89-.07m.16,5.07h-1.35a2.27,2.27,0,0,1-.9-.15.88.88,0,0,1-.46-.54,3.36,3.36,0,0,1-.15-1.18,3.81,3.81,0,0,1,.16-1.3,1.16,1.16,0,0,1,.57-.68,2.2,2.2,0,0,1,1.1-.22,6.49,6.49,0,0,1,1,.06Z" transform="translate(21.43 34.41)"/><rect class="cls-17" x="208.27" y="90.08" width="1.05" height="1.19"/><rect class="cls-17" x="213.62" y="89.81" width="1.17" height="8.76"/><path class="cls-17" d="M196.74,64.49a2.43,2.43,0,0,1-.28,1.24,1,1,0,0,1-.83.44c-.23,0-.45,0-.67,0v1h.3c.2,0,.4,0,.61,0a1.73,1.73,0,0,0,1.53-.77,4.19,4.19,0,0,0,.5-2.22v-6.1h-1.16Z" transform="translate(21.43 34.41)"/><path class="cls-17" d="M201.92,57.78a3.13,3.13,0,0,0-1.59.34,1.87,1.87,0,0,0-.84,1.07,6.06,6.06,0,0,0-.26,1.94,4.64,4.64,0,0,0,.45,2.16,1.88,1.88,0,0,0,1.87.88h1.69a5,5,0,0,1-.14,1.27,1.06,1.06,0,0,1-.39.58,1.35,1.35,0,0,1-.68.15,12.76,12.76,0,0,1-1.85-.2v1a18,18,0,0,0,1.94.2,1.83,1.83,0,0,0,1.81-1,6.94,6.94,0,0,0,.49-2.88V58.08q-.46-.09-1.2-.18c-.49,0-.92-.08-1.3-.08m1.33,5.34h-1.32a1.27,1.27,0,0,1-1.24-.57,3.21,3.21,0,0,1-.29-1.46,2.93,2.93,0,0,1,.4-1.74,1.59,1.59,0,0,1,1.38-.52,6.44,6.44,0,0,1,1.07.09Z" transform="translate(21.43 34.41)"/><polygon class="cls-17" points="231.91 97.52 229.77 97.52 229.77 91.47 228.6 91.47 228.6 97.52 227.04 97.52 227.04 98.57 233.06 98.57 233.06 89.81 231.91 89.81 231.91 97.52"/><rect class="cls-17" x="235.08" y="89.81" width="1.17" height="8.76"/><path class="cls-17" d="M224.51,64.42a1.59,1.59,0,0,1-.6,1.28,2.33,2.33,0,0,1-1.48.47,2.74,2.74,0,0,1-1.1-.23,2,2,0,0,1-.78-.62,1.46,1.46,0,0,1-.28-.9,12.46,12.46,0,0,1,.13-1.37c.08-.68.19-1.41.31-2.19l-1.11-.06a29.11,29.11,0,0,0-.48,3.72,2.29,2.29,0,0,0,.44,1.38,2.85,2.85,0,0,0,1.2,1,4,4,0,0,0,1.71.36,4.34,4.34,0,0,0,1.63-.32,2.75,2.75,0,0,0,1.15-.93,2.37,2.37,0,0,0,.43-1.41V55.45h-1.17Z" transform="translate(21.43 34.41)"/><path class="cls-17" d="M229.93,57.78a3.13,3.13,0,0,0-1.59.34,1.87,1.87,0,0,0-.84,1.07,6.35,6.35,0,0,0-.26,1.94,4.64,4.64,0,0,0,.45,2.16,1.88,1.88,0,0,0,1.87.88h1.69a5,5,0,0,1-.14,1.27,1.06,1.06,0,0,1-.39.58,1.35,1.35,0,0,1-.68.15,12.76,12.76,0,0,1-1.85-.2v1a18,18,0,0,0,1.94.2,1.83,1.83,0,0,0,1.81-1,6.94,6.94,0,0,0,.49-2.88V58.08q-.48-.09-1.2-.18c-.49,0-.92-.08-1.3-.08m1.33,5.34h-1.32a1.27,1.27,0,0,1-1.24-.57,3.21,3.21,0,0,1-.29-1.46,2.93,2.93,0,0,1,.4-1.74,1.6,1.6,0,0,1,1.38-.52,6.53,6.53,0,0,1,1.07.09Z" transform="translate(21.43 34.41)"/><rect class="cls-17" x="255.62" y="89.81" width="1.17" height="8.76"/><path class="cls-17" d="M242.11,63.08V61.89a5.81,5.81,0,0,0-.44-2.4,2.92,2.92,0,0,0-1.14-1.36,3.15,3.15,0,0,0-1.61-.42,5.16,5.16,0,0,0-.79.06,2.9,2.9,0,0,0-.6.12l.09.87h1.07a2.1,2.1,0,0,1,1.58.72A3.63,3.63,0,0,1,241,62v1.13h-4v1h6.39v-1Z" transform="translate(21.43 34.41)"/><rect class="cls-17" x="267.45" y="90.08" width="1.03" height="1.19"/><rect class="cls-17" x="265.81" y="90.08" width="1.05" height="1.19"/><polygon class="cls-17" points="267.74 97.52 267.74 92.42 266.57 92.42 266.57 97.52 264.74 97.52 264.74 98.57 269.57 98.57 269.57 97.52 267.74 97.52"/><polygon class="cls-17" points="269.57 98.57 269.57 98.57 269.57 97.52 269.57 98.57"/><polygon class="cls-17" points="271.08 97.52 269.57 97.52 269.57 98.57 272.25 98.57 272.25 89.81 271.08 89.81 271.08 97.52"/><rect class="cls-17" x="284.48" y="90.07" width="1.12" height="1.2"/><path class="cls-17" d="M263.71,58.08a4.56,4.56,0,0,0-1.8.28,1.75,1.75,0,0,0-.94,1,4.8,4.8,0,0,0-.28,1.88,5,5,0,0,0,.28,2h-2.63a3.29,3.29,0,0,1-1.7-.31,1.13,1.13,0,0,1-.47-1,11.26,11.26,0,0,1,.17-1.64l.1-.73-.93-.05c-.1.42-.2.89-.27,1.4a6.85,6.85,0,0,0-.12,1.28,1.75,1.75,0,0,0,1.43,1.94,7.6,7.6,0,0,0,1.85.19h7.52v-6h-.45a12.62,12.62,0,0,0-1.73-.09m1,5.09h-2.47a2,2,0,0,1-.3-.68,4.44,4.44,0,0,1-.11-1.2,4.19,4.19,0,0,1,.15-1.32,1.05,1.05,0,0,1,.53-.67,2.27,2.27,0,0,1,1.12-.21q.3,0,1.08.06Z" transform="translate(21.43 34.41)"/><rect class="cls-17" x="289.08" y="89.81" width="1.17" height="8.76"/><path class="cls-17" d="M279,63.08v-5l-1.38-.1h-1.49a4.2,4.2,0,0,0-1.76.31,1.77,1.77,0,0,0-.92,1,6.21,6.21,0,0,0,0,3.72,1.82,1.82,0,0,0,.95,1,4.48,4.48,0,0,0,1.78.3h4.2V63.08Zm-1.16,0h-1.46a2.77,2.77,0,0,1-1.18-.2,1.1,1.1,0,0,1-.62-.65,4.18,4.18,0,0,1,0-2.46,1.2,1.2,0,0,1,.61-.66,2.64,2.64,0,0,1,1.15-.2,12,12,0,0,1,1.56.08Z" transform="translate(21.43 34.41)"/><rect class="cls-17" x="302.82" y="99.55" width="1.05" height="1.18"/><polygon class="cls-17" points="304.75 92.42 303.58 92.42 303.58 97.52 301.75 97.52 301.75 98.57 304.75 98.57 304.75 92.42"/><rect class="cls-17" x="304.47" y="99.55" width="1.03" height="1.18"/><rect class="cls-17" x="306.77" y="89.81" width="1.17" height="8.76"/><rect class="cls-17" x="263.99" y="60.64" width="2.43" height="2.67"/><rect class="cls-17" x="279.12" y="60.64" width="2.43" height="2.67"/><path class="cls-17" d="M146.34,40.47h7.35l1.14,4.26h2.51l-4.71-18.2h-5.24l-4.7,18.2h2.51Zm3-11.8h1.37l2.46,9.55h-6.3Z" transform="translate(21.43 34.41)"/><polygon class="cls-17" points="192.66 63.15 192.66 60.93 181.55 60.93 181.55 79.13 184.09 79.13 184.09 71.94 191.26 71.94 191.26 69.71 184.09 69.71 184.09 63.15 192.66 63.15"/><path class="cls-17" d="M188.88,35.39a12.32,12.32,0,0,0-3-1.06,21.29,21.29,0,0,1-2.73-.78,3,3,0,0,1-1.31-.91,2.56,2.56,0,0,1-.41-1.54q0-2.64,3.63-2.64a51.14,51.14,0,0,1,5.24.42l.21-2.06c-1.38-.23-2.48-.39-3.32-.48a20.39,20.39,0,0,0-2.34-.13,6.67,6.67,0,0,0-4.45,1.27,4.65,4.65,0,0,0-1.51,3.78,5.11,5.11,0,0,0,.56,2.57,4.1,4.1,0,0,0,1.75,1.6,15,15,0,0,0,3.33,1.12,14.94,14.94,0,0,1,2.26.65,2.2,2.2,0,0,1,1.55,2.32q0,3.25-3.57,3.25a47.13,47.13,0,0,1-5.45-.47l-.27,2,1,.16A32.43,32.43,0,0,0,185,45a6.27,6.27,0,0,0,4.43-1.43,5.56,5.56,0,0,0,1.52-4.23,5.35,5.35,0,0,0-.49-2.43,3.76,3.76,0,0,0-1.55-1.51" transform="translate(21.43 34.41)"/><path class="cls-17" d="M199,31.21A5,5,0,0,0,194.72,33c-.94,1.19-1.4,3-1.39,5.46a7.9,7.9,0,0,0,1.29,5c.86,1.06,2.31,1.57,4.34,1.57a31.19,31.19,0,0,0,5-.53l-.05-1.9-.74.08c-.55,0-1.17.09-1.85.11s-1.31,0-1.86,0a5.47,5.47,0,0,1-2.16-.34,2.12,2.12,0,0,1-1.12-1.12,5.77,5.77,0,0,1-.37-2.21h8.44l.16-1.8q0-6.14-5.4-6.14m-3.22,6a4.75,4.75,0,0,1,.79-3,3,3,0,0,1,2.43-.94,2.66,2.66,0,0,1,2.27.9,5.31,5.31,0,0,1,.67,3Z" transform="translate(21.43 34.41)"/><path class="cls-17" d="M212.9,42.8a4.53,4.53,0,0,1-2.24-.45,2.39,2.39,0,0,1-1.08-1.43,10,10,0,0,1-.3-2.78,10.2,10.2,0,0,1,.3-2.86,2.27,2.27,0,0,1,1.08-1.42,4.38,4.38,0,0,1,2.17-.43c.61,0,1.67.07,3.17.21l.08-2c-1-.2-1.77-.33-2.36-.39a15.16,15.16,0,0,0-1.64-.09c-2,0-3.4.6-4.16,1.81a9.4,9.4,0,0,0-1.15,5.09,12.32,12.32,0,0,0,.51,4,4,4,0,0,0,1.7,2.23,6.08,6.08,0,0,0,3.13.71,26.91,26.91,0,0,0,4-.45l-.08-2Z" transform="translate(21.43 34.41)"/><path class="cls-17" d="M218.83,31.5v6.91a15.5,15.5,0,0,0,.37,3.9,3.47,3.47,0,0,0,1.3,2.06,4.6,4.6,0,0,0,2.64.65,7.16,7.16,0,0,0,2-.26,10.85,10.85,0,0,0,2-.9v.87h2.46V31.5h-2.46V42a13,13,0,0,1-1.68.61,6.69,6.69,0,0,1-1.66.21,2.77,2.77,0,0,1-1.57-.37,2,2,0,0,1-.7-1.29,13.88,13.88,0,0,1-.19-2.73V31.5Z" transform="translate(21.43 34.41)"/><path class="cls-17" d="M240.34,33.7V31.21a13.23,13.23,0,0,0-4.66,2V31.54h-2.43V44.77h2.46V35.32l.63-.29a17.21,17.21,0,0,1,1.85-.71,17.47,17.47,0,0,1,2.15-.58" transform="translate(21.43 34.41)"/><rect class="cls-17" x="263.99" y="65.9" width="2.46" height="13.23"/><path class="cls-17" d="M255.34,42.69l-2.25.13a1.35,1.35,0,0,1-1.54-1.11,1,1,0,0,1,0-.17,14.48,14.48,0,0,1-.09-1.86V33.62h3.89V31.5h-3.89V27.56H249V31.5h-1.77v2.12H249v6.51a9.68,9.68,0,0,0,.34,2.93,2.53,2.53,0,0,0,1.13,1.51,4.41,4.41,0,0,0,2.18.45,18.41,18.41,0,0,0,2.86-.32Z" transform="translate(21.43 34.41)"/><rect class="cls-17" x="279.12" y="65.9" width="2.46" height="13.23"/><path class="cls-17" d="M273.6,42.59l-.74.08c-.55,0-1.17.09-1.86.11s-1.3,0-1.85,0a5.52,5.52,0,0,1-2.17-.34,2.13,2.13,0,0,1-1.11-1.12,5.77,5.77,0,0,1-.37-2.21h8.44l.16-1.8c0-4.1-1.8-6.14-5.4-6.14A5.1,5.1,0,0,0,264.4,33,8.86,8.86,0,0,0,263,38.42a7.78,7.78,0,0,0,1.3,5c.86,1,2.31,1.57,4.34,1.57a31.19,31.19,0,0,0,5-.53Zm-7.33-8.38a3,3,0,0,1,2.43-.94,2.64,2.64,0,0,1,2.26.9,5.24,5.24,0,0,1,.68,3h-6.17a4.83,4.83,0,0,1,.8-3" transform="translate(21.43 34.41)"/><path class="cls-17" d="M286.07,38.78a2.74,2.74,0,0,0-1.32-1.13A11.71,11.71,0,0,0,282.3,37l-.74-.14A15.81,15.81,0,0,1,280,36.5a2.07,2.07,0,0,1-.88-.49,1.22,1.22,0,0,1-.35-.94c0-1.09.9-1.64,2.7-1.64a33.19,33.19,0,0,1,4.55.43l.05-2.07-.76-.16a24.41,24.41,0,0,0-4-.39c-3.35,0-5,1.36-5,4.1a3.43,3.43,0,0,0,.48,1.95,2.92,2.92,0,0,0,1.36,1.09,10.89,10.89,0,0,0,2.39.61l.64.1a15,15,0,0,1,1.59.33,2.21,2.21,0,0,1,.91.53,1.47,1.47,0,0,1,.36,1,1.48,1.48,0,0,1-.72,1.37,4.07,4.07,0,0,1-2.11.43,38.81,38.81,0,0,1-4.58-.45l-.11,2.11.8.14a24.34,24.34,0,0,0,4,.42,6.25,6.25,0,0,0,3.92-1,3.9,3.9,0,0,0,1.27-3.21,3.94,3.94,0,0,0-.44-2" transform="translate(21.43 34.41)"/></g></g></svg>