<?xml version="1.0" encoding="utf-8"?>
<!-- Generator: Adobe Illustrator 24.2.2, SVG Export Plug-In . SVG Version: 6.00 Build 0)  -->
<svg version="1.1" id="Layer_1" xmlns="http://www.w3.org/2000/svg" xmlns:xlink="http://www.w3.org/1999/xlink" x="0px" y="0px"
	 viewBox="0 0 300 70" style="enable-background:new 0 0 300 70;" xml:space="preserve">
<style type="text/css">
	.st0{fill:#010101;}
	.st1{clip-path:url(#SVGID_2_);}
	.st2{fill:#EF4545;}
	.st3{clip-path:url(#SVGID_4_);}
	.st4{clip-path:url(#SVGID_6_);}
	.st5{clip-path:url(#SVGID_8_);}
	.st6{clip-path:url(#SVGID_10_);}
	.st7{clip-path:url(#SVGID_12_);}
	.st8{clip-path:url(#SVGID_14_);}
	.st9{fill:#4EB968;}
	.st10{clip-path:url(#SVGID_16_);}
	.st11{clip-path:url(#SVGID_18_);}
	.st12{clip-path:url(#SVGID_20_);}
	.st13{clip-path:url(#SVGID_22_);}
	.st14{clip-path:url(#SVGID_24_);}
	.st15{clip-path:url(#SVGID_26_);}
	.st16{clip-path:url(#SVGID_28_);}
	.st17{fill:#FFFFFF;}
</style>
<path class="st0" d="M8.4,67.1c0,1.3,1.1,2.4,2.4,2.4c1.3,0,2.4-1.1,2.4-2.4v-28l-0.5-0.2c0,0-0.1,0-0.1-0.1l-0.5-0.3
	c-1.4-0.7-2.7-1.6-3.7-2.8L8.4,67.1z"/>
<g>
	<defs>
		<path id="SVGID_1_" d="M8.4,67.1c0,1.3,1.1,2.4,2.4,2.4c1.3,0,2.4-1.1,2.4-2.4v-28l-0.5-0.2c0,0-0.1,0-0.1-0.1l-0.5-0.3
			c-1.4-0.7-2.7-1.6-3.7-2.8L8.4,67.1z"/>
	</defs>
	<use xlink:href="#SVGID_1_"  style="overflow:visible;fill:#EF4545;"/>
	<clipPath id="SVGID_2_">
		<use xlink:href="#SVGID_1_"  style="overflow:visible;"/>
	</clipPath>
	<g class="st1">
		
			<rect x="3.8" y="35.8" transform="matrix(0.9609 -0.2768 0.2768 0.9609 -14.1594 5.0347)" class="st2" width="13.9" height="33.7"/>
	</g>
</g>
<path class="st0" d="M18,67.1c0,1.3,1.1,2.4,2.4,2.4c1.3,0,2.4-1.1,2.4-2.4v-24l-0.6-0.2c-0.3-0.1-0.7-0.2-1-0.4
	c-1.1-0.4-2.1-0.8-3.2-1.3L18,67.1z"/>
<g>
	<defs>
		<path id="SVGID_3_" d="M18,67.1c0,1.3,1.1,2.4,2.4,2.4c1.3,0,2.4-1.1,2.4-2.4v-24l-0.6-0.2c-0.3-0.1-0.7-0.2-1-0.4
			c-1.1-0.4-2.1-0.8-3.2-1.3L18,67.1z"/>
	</defs>
	<use xlink:href="#SVGID_3_"  style="overflow:visible;fill:#EF4545;"/>
	<clipPath id="SVGID_4_">
		<use xlink:href="#SVGID_3_"  style="overflow:visible;"/>
	</clipPath>
	<g class="st3">
		
			<rect x="14.1" y="41.1" transform="matrix(0.9609 -0.2768 0.2768 0.9609 -14.532 7.8016)" class="st2" width="12.4" height="28.5"/>
	</g>
</g>
<path class="st0" d="M27.6,67.1c-0.1,1.3,0.9,2.5,2.3,2.5c1.3,0.1,2.5-0.9,2.5-2.3c0-0.1,0-0.2,0-0.3V47l-0.6-0.3
	c-0.5-0.2-1-0.5-1.5-0.7c-0.9-0.4-1.8-0.8-2.7-1.1V67.1z"/>
<g>
	<defs>
		<path id="SVGID_5_" d="M27.6,67.1c-0.1,1.3,0.9,2.5,2.3,2.5c1.3,0.1,2.5-0.9,2.5-2.3c0-0.1,0-0.2,0-0.3V47l-0.6-0.3
			c-0.5-0.2-1-0.5-1.5-0.7c-0.9-0.4-1.8-0.8-2.7-1.1V67.1z"/>
	</defs>
	<use xlink:href="#SVGID_5_"  style="overflow:visible;fill:#EF4545;"/>
	<clipPath id="SVGID_6_">
		<use xlink:href="#SVGID_5_"  style="overflow:visible;"/>
	</clipPath>
	<g class="st4">
		
			<rect x="24.3" y="44.7" transform="matrix(0.9609 -0.2768 0.2768 0.9609 -14.6691 10.5366)" class="st2" width="11.4" height="25"/>
	</g>
</g>
<path class="st0" d="M37.2,67.1c0,1.3,1.1,2.4,2.4,2.4c1.3,0,2.4-1.1,2.4-2.4c0,0,0,0,0,0V52.5l-0.6-0.4c-0.7-0.4-1.3-0.8-2-1.3
	c-0.7-0.5-1.5-0.9-2.2-1.3L37.2,67.1z"/>
<g>
	<defs>
		<path id="SVGID_7_" d="M37.2,67.1c0,1.3,1.1,2.4,2.4,2.4c1.3,0,2.4-1.1,2.4-2.4c0,0,0,0,0,0V52.5l-0.6-0.4c-0.7-0.4-1.3-0.8-2-1.3
			c-0.7-0.5-1.5-0.9-2.2-1.3L37.2,67.1z"/>
	</defs>
	<use xlink:href="#SVGID_7_"  style="overflow:visible;fill:#EF4545;"/>
	<clipPath id="SVGID_8_">
		<use xlink:href="#SVGID_7_"  style="overflow:visible;"/>
	</clipPath>
	<g class="st5">
		
			<rect x="34.5" y="49.3" transform="matrix(0.9609 -0.2768 0.2768 0.9609 -14.9335 13.2864)" class="st2" width="10.2" height="20.5"/>
	</g>
</g>
<path class="st0" d="M46.8,67.1c0,1.3,1.1,2.4,2.4,2.4c1.3,0,2.4-1.1,2.4-2.4c0,0,0,0,0,0v-7.6c-0.6-0.5-1.2-1-1.7-1.3l-1.3-1
	c0,0-1.7-1.4-1.8-1.4L46.8,67.1z"/>
<g>
	<defs>
		<path id="SVGID_9_" d="M46.8,67.1c0,1.3,1.1,2.4,2.4,2.4c1.3,0,2.4-1.1,2.4-2.4c0,0,0,0,0,0v-7.6c-0.6-0.5-1.2-1-1.7-1.3l-1.3-1
			c0,0-1.7-1.4-1.8-1.4L46.8,67.1z"/>
	</defs>
	<use xlink:href="#SVGID_9_"  style="overflow:visible;fill:#EF4545;"/>
	<clipPath id="SVGID_10_">
		<use xlink:href="#SVGID_9_"  style="overflow:visible;"/>
	</clipPath>
	<g class="st6">
		<rect x="45" y="55.4" transform="matrix(0.9609 -0.2768 0.2768 0.9609 -15.413 16.0704)" class="st2" width="8.4" height="14.5"/>
	</g>
</g>
<path class="st0" d="M56.5,67.1c0,1.3,1.1,2.4,2.4,2.4l0,0c1,0,1.9-0.6,2.2-1.5c-0.7-0.7-1.4-1.4-2-2l-1.9-1.7l-0.7-0.7V67.1z"/>
<g>
	<defs>
		<path id="SVGID_11_" d="M56.5,67.1c0,1.3,1.1,2.4,2.4,2.4l0,0c1,0,1.9-0.6,2.2-1.5c-0.7-0.7-1.4-1.4-2-2l-1.9-1.7l-0.7-0.7V67.1z"
			/>
	</defs>
	<use xlink:href="#SVGID_11_"  style="overflow:visible;fill:#EF4545;"/>
	<clipPath id="SVGID_12_">
		<use xlink:href="#SVGID_11_"  style="overflow:visible;"/>
	</clipPath>
	<g class="st7">
		<rect x="55.7" y="63" transform="matrix(0.9609 -0.2768 0.2768 0.9609 -16.1189 18.8615)" class="st2" width="6.1" height="7"/>
	</g>
</g>
<path class="st0" d="M70.6,61c-0.8,1-1.7,2-2.4,3c-0.5,0.6-0.9,1.3-1.4,1.9c-0.3,0.4-0.5,0.7-0.7,1.1l0,0c-0.1,1.3,0.9,2.5,2.3,2.5
	c1.3,0.1,2.5-0.9,2.5-2.3c0-0.1,0-0.2,0-0.3v-6.4L70.6,61"/>
<g>
	<defs>
		<path id="SVGID_13_" d="M70.6,61c-0.8,1-1.7,2-2.4,3c-0.5,0.6-0.9,1.3-1.4,1.9c-0.3,0.4-0.5,0.7-0.7,1.1l0,0
			c-0.1,1.3,0.9,2.5,2.3,2.5c1.3,0.1,2.5-0.9,2.5-2.3c0-0.1,0-0.2,0-0.3v-6.4L70.6,61"/>
	</defs>
	<use xlink:href="#SVGID_13_"  style="overflow:visible;fill:#4EB968;"/>
	<clipPath id="SVGID_14_">
		<use xlink:href="#SVGID_13_"  style="overflow:visible;"/>
	</clipPath>
	<g class="st8">
		<rect x="77" y="82.3" transform="matrix(0.14 -0.9901 0.9901 0.14 -14.1915 154.1339)" class="st9" width="9.4" height="6"/>
	</g>
</g>
<path class="st0" d="M77.3,54.4l-0.9,0.8l-0.7,0.6v11.3c0,1.3,1.1,2.4,2.4,2.4c1.3,0,2.4-1.1,2.4-2.4c0,0,0,0,0,0V51.8
	C79.4,52.7,78.3,53.5,77.3,54.4"/>
<g>
	<defs>
		<path id="SVGID_15_" d="M77.3,54.4l-0.9,0.8l-0.7,0.6v11.3c0,1.3,1.1,2.4,2.4,2.4c1.3,0,2.4-1.1,2.4-2.4c0,0,0,0,0,0V51.8
			C79.4,52.7,78.3,53.5,77.3,54.4"/>
	</defs>
	<use xlink:href="#SVGID_15_"  style="overflow:visible;fill:#4EB968;"/>
	<clipPath id="SVGID_16_">
		<use xlink:href="#SVGID_15_"  style="overflow:visible;"/>
	</clipPath>
	<g class="st10">
		
			<rect x="69.2" y="57.3" transform="matrix(0.1373 -0.9905 0.9905 0.1373 7.1657 130.0937)" class="st9" width="18.1" height="7.2"/>
	</g>
</g>
<path class="st0" d="M86.4,47.8c-0.1,0.1-0.3,0.2-0.4,0.3l-0.7,0.5v18.6c0,1.3,1.1,2.4,2.4,2.4c1.3,0,2.4-1.1,2.4-2.4c0,0,0,0,0,0
	V45.7C88.9,46.4,87.6,47.1,86.4,47.8"/>
<g>
	<defs>
		<path id="SVGID_17_" d="M86.4,47.8c-0.1,0.1-0.3,0.2-0.4,0.3l-0.7,0.5v18.6c0,1.3,1.1,2.4,2.4,2.4c1.3,0,2.4-1.1,2.4-2.4
			c0,0,0,0,0,0V45.7C88.9,46.4,87.6,47.1,86.4,47.8"/>
	</defs>
	<use xlink:href="#SVGID_17_"  style="overflow:visible;fill:#4EB968;"/>
	<clipPath id="SVGID_18_">
		<use xlink:href="#SVGID_17_"  style="overflow:visible;"/>
	</clipPath>
	<g class="st11">
		
			<rect x="75.8" y="53.9" transform="matrix(0.1373 -0.9905 0.9905 0.1373 18.4936 136.9941)" class="st9" width="24.2" height="8"/>
	</g>
</g>
<path class="st0" d="M95.6,43.1L95.6,43.1l-0.7,0.3V67c0,1.3,1.1,2.4,2.4,2.4c1.3,0,2.4-1.1,2.4-2.4V41.4
	C98.3,41.9,97,42.5,95.6,43.1"/>
<g>
	<defs>
		<path id="SVGID_19_" d="M95.6,43.1L95.6,43.1l-0.7,0.3V67c0,1.3,1.1,2.4,2.4,2.4c1.3,0,2.4-1.1,2.4-2.4V41.4
			C98.3,41.9,97,42.5,95.6,43.1"/>
	</defs>
	<use xlink:href="#SVGID_19_"  style="overflow:visible;fill:#4EB968;"/>
	<clipPath id="SVGID_20_">
		<use xlink:href="#SVGID_19_"  style="overflow:visible;"/>
	</clipPath>
	<g class="st12">
		
			<rect x="83.3" y="51.4" transform="matrix(0.1373 -0.9905 0.9905 0.1373 28.9225 144.6613)" class="st9" width="28.4" height="8.6"/>
	</g>
</g>
<path class="st0" d="M105.2,39.2c-0.2,0.1-0.5,0.3-0.7,0.4v27.5c0,1.3,1.1,2.4,2.4,2.4c1.3,0,2.4-1.1,2.4-2.4l0.2-32.5
	C108.6,36.5,107.1,38.2,105.2,39.2"/>
<g>
	<defs>
		<path id="SVGID_21_" d="M105.2,39.2c-0.2,0.1-0.5,0.3-0.7,0.4v27.5c0,1.3,1.1,2.4,2.4,2.4c1.3,0,2.4-1.1,2.4-2.4l0.2-32.5
			C108.6,36.5,107.1,38.2,105.2,39.2"/>
	</defs>
	<use xlink:href="#SVGID_21_"  style="overflow:visible;fill:#4EB968;"/>
	<clipPath id="SVGID_22_">
		<use xlink:href="#SVGID_21_"  style="overflow:visible;"/>
	</clipPath>
	<g class="st13">
		
			<rect x="89.6" y="47.5" transform="matrix(0.1373 -0.9905 0.9905 0.1373 40.6604 151.3247)" class="st9" width="35.2" height="9.7"/>
	</g>
</g>
<path class="st0" d="M84.6,17.7c0.5-0.2,1-0.3,1.4-0.2c1.7,0.1,3.3,0.5,4.8,1.2l0.7,0.3h-0.7c-1.6,0-3.3,0.3-4.8,0.9
	c-1.2,0.4-2.3,0.9-3.4,1.4C82.1,19.8,83,18.2,84.6,17.7C84.5,17.7,84.5,17.7,84.6,17.7 M77.9,1.9l-1.5,0.5c-1.7,0.6-3.3,1.4-4.8,2.4
	c-3.5,2.6-4.2,6.1-2.7,11.3l-2.1,0.6L62,18.2l-3.3,1c0.9,1.3,2,2.4,3.3,3.3c1.5,0.9,3.1,1.4,4.8,1.5v2.8c-1.2,0.9-2.8,1.6-3.9,2.4
	l-0.8,9.7L62,38.8l-1.6-1.2l-3.2,10.2l-0.2,0.8l-5.8-4.7l-2.3,7l-0.2,0.7l1.3,1c0.5,0.4,1.1,0.8,1.7,1.3l0.7,0.6
	c0.3,0.3,0.7,0.5,1,0.8l1.1,0.9c0.6,0.5,1.3,1.1,2,1.7l0.7,0.7c0.6,0.6,1.2,1.1,1.9,1.7c0.6,0.6,1.4,1.3,2,2l0.8,0.9
	c0.6,0.7,1.3,1.3,1.9,2c0.7-1.3,1.4-2.6,2.2-3.9c0.2-0.4,0.5-0.7,0.7-1.1c0.4-0.7,0.9-1.3,1.4-1.9c0.8-1,1.6-2,2.4-3l0.3-0.3
	c0.2-0.3,0.5-0.5,0.7-0.8c0.4-0.4,0.8-0.8,1.1-1.2c0.7-0.7,1.4-1.4,2-2c0.3-0.3,0.6-0.6,0.9-0.8l0.7-0.6l0.9-0.8
	c1-0.9,2.1-1.7,3.2-2.5l0.7-0.5c0.2-0.2,0.4-0.3,0.7-0.5c1.1-0.8,2.3-1.6,3.4-2.3l0.7-0.5c0.1-0.1,0.3-0.2,0.4-0.3
	c1.2-0.7,2.4-1.4,3.7-2.1l0.7-0.4l0.2-0.1c1.3-0.7,2.6-1.3,3.9-1.9l0.6-0.3h0.1c1.3-0.6,2.7-1.1,4.1-1.7l0.4-0.2l0.3-0.1
	c0.7-0.3,1.5-0.5,2.2-0.8c0.6-0.2,1.1-0.4,1.7-0.7l0.3-0.1c0.3-0.1,0.5-0.3,0.7-0.4c1.9-1,3.4-2.7,4.3-4.6c0.1-0.1,0.1-0.3,0.2-0.4
	c0.1-0.3,0.3-0.7,0.4-1c0.2-0.6,0.3-1.1,0.4-1.7c0.1-0.3,0.1-0.7,0.1-1.1c0.1-1,0.1-1.9-0.1-2.9c-0.1-0.4-0.2-0.7-0.4-1
	c-0.8-1.4-2.3-1.9-4.8-2.1h-0.4c-1.5-0.1-3-0.2-4.5-0.3c-1.6-0.2-3.2-0.5-4.8-1c-0.5-0.2-1-0.3-1.5-0.5c-1.1-0.5-2.2-0.9-3.3-1.2
	c-1.6-0.5-3.2-0.8-4.8-1c-1.6-0.1-3.2,0-4.8,0.3l-0.3,0.1c-1.7,0.4-3.4,0.5-4.5-0.3c-0.5-0.4-0.9-1-1-1.6c-0.7-2.3-0.7-4.7-0.1-6.9
	c0.2-0.7,0.6-1.4,1.2-1.9c0.7-0.8,1.6-1.6,2.3-2.4l0.3-0.3L77.9,1.9"/>
<g>
	<defs>
		<path id="SVGID_23_" d="M84.6,17.7c0.5-0.2,1-0.3,1.4-0.2c1.7,0.1,3.3,0.5,4.8,1.2l0.7,0.3h-0.7c-1.6,0-3.3,0.3-4.8,0.9
			c-1.2,0.4-2.3,0.9-3.4,1.4C82.1,19.8,83,18.2,84.6,17.7C84.5,17.7,84.5,17.7,84.6,17.7 M77.9,1.9l-1.5,0.5
			c-1.7,0.6-3.3,1.4-4.8,2.4c-3.5,2.6-4.2,6.1-2.7,11.3l-2.1,0.6L62,18.2l-3.3,1c0.9,1.3,2,2.4,3.3,3.3c1.5,0.9,3.1,1.4,4.8,1.5v2.8
			c-1.2,0.9-2.8,1.6-3.9,2.4l-0.8,9.7L62,38.8l-1.6-1.2l-3.2,10.2l-0.2,0.8l-5.8-4.7l-2.3,7l-0.2,0.7l1.3,1c0.5,0.4,1.1,0.8,1.7,1.3
			l0.7,0.6c0.3,0.3,0.7,0.5,1,0.8l1.1,0.9c0.6,0.5,1.3,1.1,2,1.7l0.7,0.7c0.6,0.6,1.2,1.1,1.9,1.7c0.6,0.6,1.4,1.3,2,2l0.8,0.9
			c0.6,0.7,1.3,1.3,1.9,2c0.7-1.3,1.4-2.6,2.2-3.9c0.2-0.4,0.5-0.7,0.7-1.1c0.4-0.7,0.9-1.3,1.4-1.9c0.8-1,1.6-2,2.4-3l0.3-0.3
			c0.2-0.3,0.5-0.5,0.7-0.8c0.4-0.4,0.8-0.8,1.1-1.2c0.7-0.7,1.4-1.4,2-2c0.3-0.3,0.6-0.6,0.9-0.8l0.7-0.6l0.9-0.8
			c1-0.9,2.1-1.7,3.2-2.5l0.7-0.5c0.2-0.2,0.4-0.3,0.7-0.5c1.1-0.8,2.3-1.6,3.4-2.3l0.7-0.5c0.1-0.1,0.3-0.2,0.4-0.3
			c1.2-0.7,2.4-1.4,3.7-2.1l0.7-0.4l0.2-0.1c1.3-0.7,2.6-1.3,3.9-1.9l0.6-0.3h0.1c1.3-0.6,2.7-1.1,4.1-1.7l0.4-0.2l0.3-0.1
			c0.7-0.3,1.5-0.5,2.2-0.8c0.6-0.2,1.1-0.4,1.7-0.7l0.3-0.1c0.3-0.1,0.5-0.3,0.7-0.4c1.9-1,3.4-2.7,4.3-4.6
			c0.1-0.1,0.1-0.3,0.2-0.4c0.1-0.3,0.3-0.7,0.4-1c0.2-0.6,0.3-1.1,0.4-1.7c0.1-0.3,0.1-0.7,0.1-1.1c0.1-1,0.1-1.9-0.1-2.9
			c-0.1-0.4-0.2-0.7-0.4-1c-0.8-1.4-2.3-1.9-4.8-2.1h-0.4c-1.5-0.1-3-0.2-4.5-0.3c-1.6-0.2-3.2-0.5-4.8-1c-0.5-0.2-1-0.3-1.5-0.5
			c-1.1-0.5-2.2-0.9-3.3-1.2c-1.6-0.5-3.2-0.8-4.8-1c-1.6-0.1-3.2,0-4.8,0.3l-0.3,0.1c-1.7,0.4-3.4,0.5-4.5-0.3
			c-0.5-0.4-0.9-1-1-1.6c-0.7-2.3-0.7-4.7-0.1-6.9c0.2-0.7,0.6-1.4,1.2-1.9c0.7-0.8,1.6-1.6,2.3-2.4l0.3-0.3L77.9,1.9"/>
	</defs>
	<use xlink:href="#SVGID_23_"  style="overflow:visible;fill:#4EB968;"/>
	<clipPath id="SVGID_24_">
		<use xlink:href="#SVGID_23_"  style="overflow:visible;"/>
	</clipPath>
	<g class="st14">
		
			<rect x="35.8" y="-9.8" transform="matrix(0.5714 -0.8207 0.8207 0.5714 6.3963 79.9125)" class="st9" width="87.8" height="87.4"/>
	</g>
</g>
<path class="st0" d="M31.8,13.6c-1.6,0.1-3.3,0.4-4.8,1c-1.1,0.4-2.2,0.9-3.2,1.5c-0.3,0.2-0.4,0.7-0.2,1c0.1,0.2,0.3,0.3,0.5,0.3
	c1,0.2,1.9,0.3,2.9,0.5c2.1,0.5,4,1.5,4.8,4.2c0.1,0.4,0.2,0.8,0.3,1.2l-0.3-0.2c-1.5-1-3.1-1.8-4.8-2.3c-1.6-0.4-3.2-0.7-4.8-0.8
	C20.6,20,19,20,17.4,20.1c-1.6,0.1-3.2,0.2-4.8,0.3c-1.6,0.1-3.2,0-4.8-0.1l-0.6-0.1C7,21,6.8,21.8,6.7,22.6c-0.2,1.4-0.2,2.7,0,4.1
	c0.1,0.8,0.4,1.5,0.8,2.2c0.1,0.2,0.2,0.3,0.3,0.5C8,29.7,8.2,30,8.4,30.2c1,1.2,2.3,2.1,3.7,2.8l0.5,0.3l0.1,0.1l0.5,0.2
	c1.1,0.5,2.3,1,3.4,1.5l0.8,0.3l0.6,0.3c1.1,0.4,2.1,0.8,3.2,1.3l1,0.4l0.6,0.2l2.7,1c0.1,0,0.2,0.1,0.2,0.1
	c0.4,0.2,0.8,0.3,1.3,0.5l0.6,0.2c0.9,0.4,1.8,0.7,2.7,1.1l1.5,0.7l0.6,0.3c0.8,0.4,1.7,0.8,2.5,1.2c0.6,0.3,1.2,0.6,1.7,0.9
	l0.6,0.3c0.8,0.4,1.5,0.9,2.2,1.3c0.7,0.4,1.3,0.8,2,1.3l0.6,0.4c0.7,0.5,1.3,0.9,2,1.4c0.1,0.1,1.2,0.8,1.6,1.1l1,0.6l2.5-10.2
	l1.9,1.2l3.7,2.3l1.1-4.7l0.9-3.8l-0.9-0.7L55,33.5l0.8-0.9l5.2-4.7c-1.9-2.6-3.4-5.2-5.2-7.1c0,0.1,0,0.2,0,0.3s0,0.1,0,0.2
	c-0.4,2.5-2.3,3.7-4.8,4c-0.7,0.1-1.4,0.1-2.1,0.1l1.9-1.3c0.1,0,0.1-0.1,0.2-0.1c3.1-2.2,3.2-4.8,0.1-7.3c0,0-0.1-0.1-0.1-0.1
	c-1.6-1.3-3-2.8-4.8-3c-0.7-0.1-1.4,0-2,0.3c-0.9,0.3-1.9,0.4-2.8,0.3c-0.5,0-1.1-0.1-1.6-0.2c-1.1-0.2-2.2-0.4-3.2-0.5
	c-1-0.1-2.1-0.2-3.1-0.2C33,13.5,32.4,13.5,31.8,13.6"/>
<g>
	<defs>
		<path id="SVGID_25_" d="M31.8,13.6c-1.6,0.1-3.3,0.4-4.8,1c-1.1,0.4-2.2,0.9-3.2,1.5c-0.3,0.2-0.4,0.7-0.2,1
			c0.1,0.2,0.3,0.3,0.5,0.3c1,0.2,1.9,0.3,2.9,0.5c2.1,0.5,4,1.5,4.8,4.2c0.1,0.4,0.2,0.8,0.3,1.2l-0.3-0.2c-1.5-1-3.1-1.8-4.8-2.3
			c-1.6-0.4-3.2-0.7-4.8-0.8C20.6,20,19,20,17.4,20.1c-1.6,0.1-3.2,0.2-4.8,0.3c-1.6,0.1-3.2,0-4.8-0.1l-0.6-0.1
			C7,21,6.8,21.8,6.7,22.6c-0.2,1.4-0.2,2.7,0,4.1c0.1,0.8,0.4,1.5,0.8,2.2c0.1,0.2,0.2,0.3,0.3,0.5C8,29.7,8.2,30,8.4,30.2
			c1,1.2,2.3,2.1,3.7,2.8l0.5,0.3l0.1,0.1l0.5,0.2c1.1,0.5,2.3,1,3.4,1.5l0.8,0.3l0.6,0.3c1.1,0.4,2.1,0.8,3.2,1.3l1,0.4l0.6,0.2
			l2.7,1c0.1,0,0.2,0.1,0.2,0.1c0.4,0.2,0.8,0.3,1.3,0.5l0.6,0.2c0.9,0.4,1.8,0.7,2.7,1.1l1.5,0.7l0.6,0.3c0.8,0.4,1.7,0.8,2.5,1.2
			c0.6,0.3,1.2,0.6,1.7,0.9l0.6,0.3c0.8,0.4,1.5,0.9,2.2,1.3c0.7,0.4,1.3,0.8,2,1.3l0.6,0.4c0.7,0.5,1.3,0.9,2,1.4
			c0.1,0.1,1.2,0.8,1.6,1.1l1,0.6l2.5-10.2l1.9,1.2l3.7,2.3l1.1-4.7l0.9-3.8l-0.9-0.7L55,33.5l0.8-0.9l5.2-4.7
			c-1.9-2.6-3.4-5.2-5.2-7.1c0,0.1,0,0.2,0,0.3s0,0.1,0,0.2c-0.4,2.5-2.3,3.7-4.8,4c-0.7,0.1-1.4,0.1-2.1,0.1l1.9-1.3
			c0.1,0,0.1-0.1,0.2-0.1c3.1-2.2,3.2-4.8,0.1-7.3c0,0-0.1-0.1-0.1-0.1c-1.6-1.3-3-2.8-4.8-3c-0.7-0.1-1.4,0-2,0.3
			c-0.9,0.3-1.9,0.4-2.8,0.3c-0.5,0-1.1-0.1-1.6-0.2c-1.1-0.2-2.2-0.4-3.2-0.5c-1-0.1-2.1-0.2-3.1-0.2C33,13.5,32.4,13.5,31.8,13.6"
			/>
	</defs>
	<use xlink:href="#SVGID_25_"  style="overflow:visible;fill:#EF4545;"/>
	<clipPath id="SVGID_26_">
		<use xlink:href="#SVGID_25_"  style="overflow:visible;"/>
	</clipPath>
	<g class="st15">
		
			<rect x="2.5" y="-1.3" transform="matrix(0.621 -0.7838 0.7838 0.621 -11.8418 38.3586)" class="st2" width="62.6" height="65.5"/>
	</g>
</g>
<path class="st0" d="M98.6,12.6c0,0,0.6,2.1,0.1,3.3c-0.1,0.3,0,0.7,0.4,0.8c0.1,0,0.1,0,0.2,0c0.4,0,0.8,0.1,1.2,0.1
	c1.2,0.1,2.4,0,2.6-0.3c0.7-1.1,0.8-3.5,0-4.5c-0.8-1-1.7-1.9-2.6-2.7c-1.3-1.2-2.7-2.3-4-3.6L98.6,12.6"/>
<g>
	<defs>
		<path id="SVGID_27_" d="M98.6,12.6c0,0,0.6,2.1,0.1,3.3c-0.1,0.3,0,0.7,0.4,0.8c0.1,0,0.1,0,0.2,0c0.4,0,0.8,0.1,1.2,0.1
			c1.2,0.1,2.4,0,2.6-0.3c0.7-1.1,0.8-3.5,0-4.5c-0.8-1-1.7-1.9-2.6-2.7c-1.3-1.2-2.7-2.3-4-3.6L98.6,12.6"/>
	</defs>
	<use xlink:href="#SVGID_27_"  style="overflow:visible;fill:#4EB968;"/>
	<clipPath id="SVGID_28_">
		<use xlink:href="#SVGID_27_"  style="overflow:visible;"/>
	</clipPath>
	<g class="st16">
		<rect x="93.8" y="4.4" transform="matrix(0.794 -0.6079 0.6079 0.794 13.9105 63.1417)" class="st9" width="12.7" height="13.4"/>
	</g>
</g>
<path class="st17" d="M131.8,60.7v-5.6l-1.5-0.1c-0.7,0-1.3,0-1.7,0c-0.7,0-1.3,0.1-2,0.3c-0.5,0.2-0.8,0.6-1,1.1
	c-0.2,0.7-0.3,1.4-0.3,2.1c0,0.7,0.1,1.4,0.3,2.1c0.2,0.5,0.6,0.9,1.1,1.1c0.6,0.2,1.3,0.4,2,0.3h4.7v-1.4H131.8z M130.5,60.7h-1.7
	c-0.5,0-0.9-0.1-1.3-0.2c-0.3-0.1-0.6-0.4-0.7-0.7c-0.2-0.4-0.2-0.9-0.2-1.4c0-0.5,0.1-0.9,0.2-1.3c0.1-0.3,0.4-0.6,0.7-0.7
	c0.4-0.2,0.8-0.2,1.3-0.2c0.4,0,1,0,1.7,0.1V60.7z"/>
<rect x="129.2" y="52.4" class="st17" width="1.1" height="1.3"/>
<rect x="127.4" y="52.4" class="st17" width="1.2" height="1.3"/>
<rect x="134.5" y="63" class="st17" width="1.2" height="1.3"/>
<rect x="136.3" y="63" class="st17" width="1.1" height="1.3"/>
<polygon class="st17" points="136.6,60.7 136.6,55 135.3,55 135.3,60.7 133.3,60.7 133.3,61.9 138.7,61.9 138.7,60.7 "/>
<polygon class="st17" points="140.4,60.7 138.7,60.7 138.7,61.9 141.7,61.9 141.7,52.1 140.4,52.1 "/>
<path class="st17" d="M138.7,60.7L138.7,60.7z"/>
<polygon class="st17" points="145.3,60.7 145.3,52.1 144,52.1 144,61.9 146.6,61.9 146.6,60.7 "/>
<path class="st17" d="M155.8,60.7c-0.2,0-0.4-0.1-0.6-0.2c-0.2-0.1-0.3-0.2-0.4-0.4v-1.7c0.1-1-0.2-2-0.8-2.7
	c-0.7-0.6-1.6-0.9-2.6-0.8c-0.5,0-0.9,0-1.4,0.1c-0.4,0.1-0.7,0.1-1,0.3c-0.1,0.5-0.2,1-0.3,1.5c-0.1,0.6-0.1,1.2-0.1,1.8
	c0,0.7,0.1,1.5,0.2,2.2h-2.2v1.2h8.2v-0.6c0.1,0.2,0.3,0.3,0.5,0.4c0.2,0.1,0.3,0.2,0.5,0.2h0.5v-1.2H155.8z M153.5,60.7h-3.3
	c0-0.2-0.1-0.6-0.1-1c0-0.4-0.1-0.8-0.1-1.2c0-0.8,0.1-1.6,0.2-2.3c0.4-0.1,0.7-0.1,1.1-0.1c0.6-0.1,1.2,0.1,1.7,0.6
	c0.4,0.5,0.6,1.2,0.5,1.8V60.7z"/>
<polygon class="st17" points="158,60.7 156.4,60.7 156.4,61.9 159.4,61.9 159.4,52.1 158,52.1 "/>
<rect x="161.7" y="52.1" class="st17" width="1.3" height="9.8"/>
<rect x="176.3" y="52.4" class="st17" width="1.1" height="1.3"/>
<path class="st17" d="M176.9,55.1h-1.1c-0.7,0-1.3,0.1-2,0.4c-0.5,0.2-0.8,0.6-1,1.1c-0.2,0.7-0.3,1.4-0.3,2.2c0,0.7,0.1,1.4,0.3,2
	c0.1,0.4,0.4,0.8,0.8,0.9c0.5,0.2,1,0.3,1.6,0.3h1.9v0.3c0,0.6-0.2,1.1-0.5,1.5c-0.4,0.4-1,0.6-1.6,0.6h-3.8c-0.6,0-1.1-0.2-1.6-0.6
	c-0.4-0.4-0.5-1-0.5-1.5c0-0.4,0-0.8,0.1-1.2c0.1-0.6,0.2-1.1,0.3-1.7l0.1-0.6l-1.2-0.2c-0.3,1.3-0.5,2.7-0.5,4
	c0,0.5,0.1,1.1,0.4,1.6c0.3,0.5,0.6,0.9,1.1,1.1c0.6,0.3,1.2,0.4,1.8,0.4h3.9c0.6,0,1.3-0.1,1.8-0.4c0.5-0.3,0.9-0.6,1.1-1.1
	c0.3-0.5,0.4-1,0.4-1.6v-7.2h-0.5C177.6,55.2,177.3,55.2,176.9,55.1 M177,60.8h-1.5c-0.3,0-0.7,0-1-0.2c-0.2-0.1-0.4-0.3-0.5-0.6
	c-0.1-0.4-0.2-0.9-0.2-1.3c0-0.5,0-1,0.2-1.4c0.1-0.3,0.3-0.6,0.6-0.8c0.4-0.2,0.8-0.3,1.2-0.2c0.3,0,0.7,0,1.1,0.1L177,60.8z"/>
<rect x="174.5" y="52.4" class="st17" width="1.2" height="1.3"/>
<rect x="180.4" y="52.1" class="st17" width="1.3" height="9.8"/>
<path class="st17" d="M185.5,62.2c0,0.5-0.1,1-0.3,1.4c-0.2,0.3-0.6,0.5-0.9,0.5c-0.2,0-0.5,0-0.7,0v1.1h0.3c0.2,0,0.5,0,0.7,0
	c0.7,0,1.3-0.3,1.7-0.9c0.4-0.8,0.6-1.6,0.6-2.5v-6.8h-1.3L185.5,62.2z"/>
<path class="st17" d="M191.3,54.8c-0.6,0-1.2,0.1-1.8,0.4c-0.4,0.3-0.8,0.7-0.9,1.2c-0.2,0.7-0.3,1.4-0.3,2.2c0,0.8,0.1,1.7,0.5,2.4
	c0.4,0.7,1.3,1.1,2.1,1h1.9c0,0.5,0,1-0.2,1.4c-0.1,0.3-0.2,0.5-0.4,0.6c-0.2,0.1-0.5,0.2-0.8,0.2c-0.7,0-1.4-0.1-2.1-0.2V65
	c0.7,0.1,1.4,0.2,2.2,0.2c0.8,0.1,1.6-0.4,2-1.1c0.4-1,0.6-2.1,0.5-3.2v-5.8c-0.3-0.1-0.8-0.1-1.3-0.2
	C192.2,54.8,191.7,54.8,191.3,54.8 M192.8,60.8h-1.5c-0.5,0.1-1.1-0.2-1.4-0.6c-0.2-0.5-0.3-1.1-0.3-1.6c-0.1-0.7,0.1-1.4,0.4-1.9
	c0.4-0.4,1-0.6,1.5-0.6c0.4,0,0.8,0,1.2,0.1L192.8,60.8z"/>
<polygon class="st17" points="200.8,60.7 198.5,60.7 198.5,54 197.2,54 197.2,60.7 195.4,60.7 195.4,61.9 202.1,61.9 202.1,52.1 
	200.8,52.1 "/>
<rect x="204.4" y="52.1" class="st17" width="1.3" height="9.8"/>
<path class="st17" d="M216.5,62.2c0,0.6-0.2,1.1-0.7,1.4c-0.5,0.4-1.1,0.5-1.7,0.5c-0.4,0-0.8-0.1-1.2-0.3c-0.3-0.2-0.6-0.4-0.9-0.7
	c-0.2-0.3-0.3-0.6-0.3-1c0-0.5,0.1-1,0.1-1.5c0.1-0.8,0.2-1.6,0.3-2.4l-1.2-0.1c-0.3,1.4-0.4,2.8-0.5,4.1c0,0.6,0.2,1.1,0.5,1.5
	c0.3,0.5,0.8,0.9,1.3,1.1c0.6,0.3,1.2,0.4,1.9,0.4c0.6,0,1.2-0.1,1.8-0.4c0.5-0.2,1-0.6,1.3-1c0.3-0.5,0.5-1,0.5-1.6V52.2h-1.3
	L216.5,62.2z"/>
<path class="st17" d="M222.5,54.8c-0.6,0-1.2,0.1-1.8,0.4c-0.4,0.3-0.8,0.7-0.9,1.2c-0.2,0.7-0.3,1.4-0.3,2.2c0,0.8,0.1,1.7,0.5,2.4
	c0.4,0.7,1.3,1.1,2.1,1h1.9c0,0.5,0,1-0.2,1.4c-0.1,0.3-0.2,0.5-0.4,0.6c-0.2,0.1-0.5,0.2-0.8,0.2c-0.7,0-1.4-0.1-2.1-0.2V65
	c0.7,0.1,1.4,0.2,2.2,0.2c0.8,0.1,1.6-0.4,2-1.1c0.4-1,0.6-2.1,0.5-3.2v-5.8c-0.3-0.1-0.8-0.1-1.3-0.2
	C223.4,54.8,223,54.8,222.5,54.8 M224,60.8h-1.5c-0.5,0.1-1.1-0.2-1.4-0.6c-0.2-0.5-0.3-1.1-0.3-1.6c-0.1-0.7,0.1-1.4,0.4-1.9
	c0.4-0.4,1-0.6,1.5-0.6c0.4,0,0.8,0,1.2,0.1L224,60.8z"/>
<rect x="227.3" y="52.1" class="st17" width="1.3" height="9.8"/>
<path class="st17" d="M236.1,60.7v-1.3c0-0.9-0.1-1.8-0.5-2.7c-0.3-0.6-0.7-1.2-1.3-1.5c-0.5-0.3-1.2-0.5-1.8-0.5
	c-0.3,0-0.6,0-0.9,0.1c-0.2,0-0.4,0.1-0.7,0.1l0.1,1h1.2c0.7,0,1.3,0.3,1.8,0.8c0.6,0.8,0.9,1.8,0.8,2.8v1.3h-4.5v1.2h7.1v-1.2
	H236.1z"/>
<rect x="240.5" y="52.4" class="st17" width="1.1" height="1.3"/>
<rect x="238.7" y="52.4" class="st17" width="1.2" height="1.3"/>
<polygon class="st17" points="240.8,60.7 240.8,55 239.5,55 239.5,60.7 237.5,60.7 237.5,61.9 242.8,61.9 242.8,60.7 "/>
<polygon class="st17" points="242.8,61.9 242.8,61.9 242.8,60.7 "/>
<polygon class="st17" points="244.5,60.7 242.8,60.7 242.8,61.9 245.8,61.9 245.8,52.1 244.5,52.1 "/>
<rect x="259.5" y="52.4" class="st17" width="1.2" height="1.3"/>
<path class="st17" d="M260.2,55.1c-0.7,0-1.4,0.1-2,0.3c-0.5,0.2-0.9,0.6-1,1.1c-0.2,0.7-0.3,1.4-0.3,2.1c0,0.8,0.1,1.5,0.3,2.2
	h-2.9c-0.7,0.1-1.3-0.1-1.9-0.3c-0.4-0.3-0.6-0.7-0.5-1.1c0-0.6,0.1-1.2,0.2-1.8l0.1-0.8l-1-0.1c-0.1,0.5-0.2,1-0.3,1.6
	c-0.1,0.5-0.1,0.9-0.1,1.4c0,0.5,0.1,1,0.4,1.4c0.3,0.4,0.7,0.6,1.2,0.7c0.7,0.2,1.4,0.2,2.1,0.2h8.4v-6.7h-0.5
	c-0.6-0.1-1.3-0.1-1.9-0.1 M261.4,60.9h-2.8c-0.2-0.2-0.3-0.5-0.3-0.8c-0.1-0.4-0.1-0.9-0.1-1.3c0-0.5,0-1,0.2-1.5
	c0.1-0.3,0.3-0.6,0.6-0.7c0.4-0.2,0.8-0.3,1.2-0.2c0.2,0,0.6,0,1.2,0.1V60.9z"/>
<rect x="264.6" y="52.1" class="st17" width="1.3" height="9.8"/>
<path class="st17" d="M277.2,60.7v-5.6l-1.5-0.1c-0.7,0-1.3,0-1.7,0c-0.7,0-1.3,0.1-2,0.3c-0.5,0.2-0.8,0.6-1,1.1
	c-0.4,1.4-0.4,2.8,0,4.1c0.2,0.5,0.6,0.9,1.1,1.1c0.6,0.2,1.3,0.4,2,0.3h4.7v-1.4H277.2z M275.9,60.7h-1.6c-0.4,0-0.9-0.1-1.3-0.2
	c-0.3-0.1-0.6-0.4-0.7-0.7c-0.2-0.4-0.2-0.9-0.2-1.4c0-0.5,0.1-0.9,0.2-1.3c0.1-0.3,0.4-0.6,0.7-0.7c0.4-0.2,0.8-0.2,1.3-0.2
	c0.4,0,1,0,1.7,0.1L275.9,60.7z"/>
<rect x="279.9" y="63" class="st17" width="1.2" height="1.3"/>
<polygon class="st17" points="282.1,55 280.8,55 280.8,60.7 278.7,60.7 278.7,61.9 282.1,61.9 "/>
<rect x="281.8" y="63" class="st17" width="1.1" height="1.3"/>
<rect x="284.3" y="52.1" class="st17" width="1.3" height="9.8"/>
<rect x="236.6" y="19.6" class="st17" width="2.7" height="3"/>
<rect x="253.5" y="19.6" class="st17" width="2.7" height="3"/>
<path class="st17" d="M129.3,35.5h8.2l1.3,4.8h2.8l-5.3-20.3h-5.8l-5.2,20.3h2.8L129.3,35.5z M132.6,22.3h1.5l2.7,10.7h-7
	L132.6,22.3z"/>
<polygon class="st17" points="157.1,22.4 157.1,19.9 144.7,19.9 144.7,40.2 147.5,40.2 147.5,32.2 155.5,32.2 155.5,29.7 
	147.5,29.7 147.5,22.4 "/>
<path class="st17" d="M176.8,29.8c-1.1-0.5-2.2-0.9-3.3-1.2c-1-0.2-2.1-0.5-3-0.9c-0.6-0.2-1.1-0.6-1.5-1c-0.3-0.5-0.5-1.1-0.5-1.7
	c0-2,1.3-2.9,4-2.9c2,0.1,3.9,0.2,5.8,0.5l0.2-2.3c-1.5-0.3-2.8-0.4-3.7-0.5c-0.9-0.1-1.7-0.1-2.6-0.1c-1.8-0.1-3.5,0.4-5,1.4
	c-1.2,1.1-1.8,2.6-1.7,4.2c0,1,0.2,2,0.6,2.9c0.5,0.8,1.1,1.4,2,1.8c1.2,0.6,2.4,1,3.7,1.2c0.9,0.2,1.7,0.4,2.5,0.7
	c1.1,0.3,1.8,1.4,1.7,2.6c0,2.4-1.3,3.6-4,3.6c-2-0.1-4.1-0.2-6.1-0.5l-0.3,2.2l1.1,0.2c1.8,0.3,3.6,0.5,5.5,0.6
	c1.8,0.1,3.6-0.4,4.9-1.6c1.2-1.3,1.8-3,1.7-4.7c0-0.9-0.1-1.9-0.5-2.7C178.1,30.7,177.5,30.1,176.8,29.8"/>
<path class="st17" d="M188,25.1c-1.8-0.1-3.6,0.6-4.8,2c-1,1.3-1.6,3.4-1.6,6.1c0,2.5,0.5,4.4,1.4,5.6c1,1.2,2.6,1.8,4.8,1.8
	c1.9,0,3.7-0.2,5.6-0.6l-0.1-2.1l-0.8,0.1c-0.6,0.1-1.3,0.1-2.1,0.1c-0.8,0-1.5,0-2.1,0c-0.8,0-1.6-0.1-2.4-0.4
	c-0.6-0.2-1-0.7-1.2-1.2c-0.3-0.8-0.4-1.6-0.4-2.5h9.4l0.2-2C194.1,27.4,192.1,25.1,188,25.1 M184.5,31.8c-0.1-1.2,0.2-2.4,0.9-3.3
	c0.7-0.7,1.7-1.1,2.7-1c1-0.1,1.9,0.3,2.5,1c0.6,1,0.9,2.2,0.7,3.4L184.5,31.8z"/>
<path class="st17" d="M203.5,38.1c-0.9,0.1-1.7-0.1-2.5-0.5c-0.6-0.4-1-0.9-1.2-1.6c-0.3-1-0.4-2.1-0.3-3.1c0-1.1,0.1-2.1,0.3-3.2
	c0.2-0.7,0.6-1.2,1.2-1.6c0.8-0.4,1.6-0.5,2.4-0.5c0.7,0,1.9,0.1,3.5,0.2l0.1-2.2c-1.1-0.2-2-0.4-2.6-0.4c-0.6-0.1-1.2-0.1-1.8-0.1
	c-2.2,0-3.8,0.7-4.6,2c-1,1.7-1.4,3.7-1.3,5.7c-0.1,1.5,0.1,3,0.6,4.5c0.3,1,1,1.9,1.9,2.5c1.1,0.6,2.3,0.8,3.5,0.8
	c1.5-0.1,3-0.2,4.5-0.5l-0.1-2.2L203.5,38.1z"/>
<path class="st17" d="M210.2,25.5v7.7c0,1.5,0.1,2.9,0.4,4.3c0.2,0.9,0.7,1.7,1.4,2.3c0.9,0.5,1.9,0.8,2.9,0.7
	c0.7,0,1.5-0.1,2.2-0.3c0.8-0.3,1.5-0.6,2.2-1v1h2.7V25.5h-2.7v11.7c-0.6,0.3-1.2,0.5-1.9,0.7c-0.6,0.2-1.2,0.2-1.9,0.2
	c-0.6,0-1.2-0.1-1.8-0.4c-0.4-0.4-0.7-0.9-0.8-1.4c-0.2-1-0.2-2-0.2-3v-7.7H210.2z"/>
<path class="st17" d="M234.1,27.9v-2.8c-1.9,0.4-3.6,1.2-5.2,2.2v-1.9h-2.7v14.8h2.7V29.7l0.7-0.3c0.7-0.3,1.4-0.6,2.1-0.8
	C232.5,28.3,233.3,28.1,234.1,27.9"/>
<rect x="236.6" y="25.5" class="st17" width="2.7" height="14.8"/>
<path class="st17" d="M250.9,37.9l-2.5,0.1c-0.8,0.1-1.6-0.4-1.7-1.2c0-0.1,0-0.1,0-0.2c-0.1-0.7-0.1-1.4-0.1-2.1v-6.8h4.3v-2.4
	h-4.3v-4.4h-2.7v4.4h-2v2.4h2v7.3c0,1.1,0.1,2.2,0.4,3.3c0.2,0.7,0.6,1.3,1.3,1.7c0.8,0.4,1.6,0.5,2.4,0.5c1.1,0,2.1-0.2,3.2-0.4
	L250.9,37.9z"/>
<rect x="253.5" y="25.5" class="st17" width="2.7" height="14.8"/>
<path class="st17" d="M271.2,37.8l-0.8,0.1c-0.6,0.1-1.3,0.1-2.1,0.1c-0.8,0-1.4,0-2.1,0c-0.8,0-1.6-0.1-2.4-0.4
	c-0.6-0.2-1-0.7-1.2-1.2c-0.3-0.8-0.4-1.6-0.4-2.5h9.4l0.2-2c0-4.6-2-6.8-6-6.8c-1.8-0.1-3.6,0.6-4.8,2c-1.2,1.8-1.7,4-1.6,6.1
	c-0.2,2,0.4,3.9,1.4,5.6c1,1.2,2.6,1.8,4.8,1.8c1.9,0,3.7-0.2,5.6-0.6L271.2,37.8z M263.1,28.5c0.7-0.7,1.7-1.1,2.7-1
	c1-0.1,1.9,0.3,2.5,1c0.6,1,0.9,2.2,0.8,3.4h-6.9C262.1,30.6,262.4,29.5,263.1,28.5"/>
<path class="st17" d="M285.2,33.6c-0.3-0.6-0.9-1-1.5-1.3c-0.9-0.3-1.8-0.6-2.7-0.7l-0.8-0.2c-0.6-0.1-1.2-0.2-1.7-0.4
	c-0.4-0.1-0.7-0.3-1-0.5c-0.3-0.3-0.4-0.7-0.4-1c0-1.2,1-1.8,3-1.8c1.7,0,3.4,0.2,5.1,0.5l0.1-2.3l-0.8-0.2c-1.5-0.3-3-0.4-4.5-0.4
	c-3.7,0-5.6,1.5-5.6,4.6c0,0.8,0.1,1.5,0.5,2.2c0.4,0.5,0.9,1,1.5,1.2c0.9,0.3,1.8,0.6,2.7,0.7l0.7,0.1c0.6,0.1,1.2,0.2,1.8,0.4
	c0.4,0.1,0.7,0.3,1,0.6c0.3,0.3,0.4,0.7,0.4,1.2c0,0.6-0.3,1.2-0.8,1.5c-0.7,0.4-1.5,0.5-2.4,0.5c-1.7-0.1-3.4-0.2-5.1-0.5l-0.1,2.4
	l0.9,0.2c1.5,0.3,3,0.4,4.5,0.5c1.5,0.1,3.1-0.3,4.4-1.1c1-0.9,1.5-2.2,1.4-3.6C285.7,35.1,285.5,34.3,285.2,33.6"/>
</svg>
