<?xml version="1.0" encoding="utf-8"?>
<!-- Generator: Adobe Illustrator 24.2.2, SVG Export Plug-In . SVG Version: 6.00 Build 0)  -->
<svg version="1.1" id="Layer_1" xmlns="http://www.w3.org/2000/svg" xmlns:xlink="http://www.w3.org/1999/xlink" x="0px" y="0px"
	 viewBox="0 0 612 192.6" style="enable-background:new 0 0 612 192.6;" xml:space="preserve">
<style type="text/css">
	.st0{fill:#030403;}
	.st1{fill:none;}
	.st2{fill:url(#SVGID_1_);}
	.st3{fill:url(#SVGID_2_);}
	.st4{fill:url(#SVGID_3_);}
	.st5{fill:url(#SVGID_4_);}
	.st6{fill:url(#SVGID_5_);}
	.st7{fill:url(#SVGID_6_);}
	.st8{fill:url(#SVGID_7_);}
	.st9{fill:url(#SVGID_8_);}
	.st10{fill:url(#SVGID_9_);}
	.st11{fill:url(#SVGID_10_);}
	.st12{fill:url(#SVGID_11_);}
	.st13{fill:url(#SVGID_12_);}
	.st14{fill:url(#SVGID_13_);}
	.st15{fill:url(#SVGID_14_);}
</style>
<g>
	<g id="Layer_2_2_">
	</g>
	<g id="Layer_3_1_">
	</g>
	<g id="Layer_1_2_">
		<g>
			<g>
				<path class="st0" d="M294.9,158.7v-11.3c-0.7-0.1-1.7-0.2-3-0.2c-1.4-0.1-2.5-0.1-3.3-0.1c-1.7,0-3,0.2-3.9,0.7
					c-1,0.5-1.6,1.2-2.1,2.2s-0.6,2.4-0.6,4.1c0,1.8,0.2,3.1,0.7,4.2c0.5,1,1.2,1.7,2.1,2.2c1,0.5,2.3,0.7,4,0.7h9.3v-2.3
					L294.9,158.7L294.9,158.7z M292.3,158.7H289c-1.1,0-2-0.2-2.6-0.5c-0.7-0.3-1.1-0.8-1.4-1.5c-0.3-0.7-0.4-1.6-0.4-2.8
					c0-1.1,0.2-2,0.4-2.7c0.3-0.7,0.7-1.2,1.4-1.5c0.6-0.3,1.5-0.5,2.6-0.5c0.9,0,2,0.1,3.5,0.2L292.3,158.7L292.3,158.7z"/>
				<rect x="289.8" y="142.2" class="st0" width="2.3" height="2.6"/>
				<rect x="286.1" y="142.2" class="st0" width="2.3" height="2.6"/>
				<rect x="300.3" y="163.3" class="st0" width="2.3" height="2.6"/>
				<rect x="303.9" y="163.3" class="st0" width="2.3" height="2.6"/>
				<polygon class="st0" points="304.6,158.7 304.6,147.4 302,147.4 302,158.7 297.9,158.7 297.9,161 308.7,161 308.7,158.7 				"/>
				<polygon class="st0" points="312.1,158.7 308.7,158.7 308.7,161 314.6,161 314.6,141.5 312.1,141.5 				"/>
				<rect x="308.7" y="158.7" class="st0" width="0" height="2.3"/>
				<polygon class="st0" points="322,158.7 322,141.5 319.4,141.5 319.4,161 324.6,161 324.6,158.7 				"/>
				<path class="st0" d="M342.9,158.7c-0.5,0-0.8-0.1-1.2-0.3c-0.4-0.2-0.6-0.5-0.8-0.8v-3.4c0-2.5-0.5-4.3-1.6-5.4
					c-1-1.1-2.7-1.7-5.1-1.7c-1,0-1.9,0.1-2.8,0.3c-0.9,0.2-1.6,0.4-2,0.6c-0.2,0.8-0.4,1.8-0.6,2.9c-0.2,1.2-0.3,2.3-0.3,3.5
					c0,1.4,0.2,2.9,0.4,4.4h-4.4v2.3h16.3V160c0.3,0.3,0.6,0.6,0.9,0.8c0.4,0.2,0.7,0.3,1.1,0.3h1.1v-2.3L342.9,158.7L342.9,158.7z
					 M338.3,158.7h-6.7c-0.1-0.5-0.2-1.2-0.3-2c-0.1-0.8-0.1-1.6-0.1-2.4c0-1.4,0.2-3,0.4-4.7c0.8-0.2,1.5-0.3,2.3-0.3
					c1.5,0,2.6,0.4,3.3,1.1c0.7,0.8,1.1,1.9,1.1,3.7L338.3,158.7L338.3,158.7z"/>
				<polygon class="st0" points="347.4,158.7 344,158.7 344,161 349.9,161 349.9,141.5 347.4,141.5 				"/>
				<rect x="354.7" y="141.5" class="st0" width="2.6" height="19.5"/>
				<rect x="383.8" y="142.2" class="st0" width="2.3" height="2.6"/>
				<path class="st0" d="M384.9,147.4c-0.8-0.1-1.5-0.1-2.1-0.1c-1.7,0-2.9,0.3-3.9,0.7c-1,0.5-1.6,1.2-2,2.3
					c-0.4,1-0.6,2.5-0.6,4.3c0,1.8,0.2,3.1,0.5,4c0.4,0.9,0.9,1.5,1.6,1.9s1.8,0.5,3.1,0.5h3.8v0.6c0,1.3-0.4,2.3-1,3
					s-1.7,1.1-3.1,1.1h-7.6c-1.4,0-2.4-0.4-3.1-1.1s-1-1.8-1-3c0-0.6,0.1-1.4,0.3-2.5c0.2-1.1,0.3-2.3,0.5-3.4l0.2-1.2L368,154
					c-0.7,3.8-1.1,6.5-1.1,8c0,1.2,0.3,2.2,0.8,3.1c0.5,0.9,1.3,1.6,2.2,2.1c1,0.5,2.2,0.8,3.6,0.8h7.7c1.4,0,2.6-0.3,3.6-0.8
					c1-0.5,1.8-1.2,2.3-2.1c0.5-0.9,0.8-1.9,0.8-3.1v-14.4l-1-0.1C386.3,147.5,385.7,147.5,384.9,147.4z M385.3,158.7h-3
					c-0.9,0-1.5-0.1-2-0.3c-0.5-0.2-0.8-0.6-1.1-1.2c-0.2-0.6-0.3-1.5-0.3-2.6c0-1.2,0.1-2.2,0.4-2.9c0.3-0.7,0.7-1.2,1.3-1.5
					s1.4-0.5,2.4-0.5c0.6,0,1.3,0.1,2.3,0.2V158.7L385.3,158.7z"/>
				<rect x="380.1" y="142.2" class="st0" width="2.3" height="2.6"/>
				<rect x="392.1" y="141.5" class="st0" width="2.6" height="19.5"/>
				<path class="st0" d="M402.2,161.7c0,1.2-0.2,2.1-0.6,2.8c-0.4,0.7-1.1,1-1.9,1c-0.4,0-0.9,0-1.5-0.1v2.3l0.7,0.1
					c0.5,0.1,1,0.1,1.4,0.1c1.5,0,2.6-0.6,3.4-1.7c0.8-1.2,1.1-2.8,1.1-4.9v-13.8h-2.6V161.7L402.2,161.7z"/>
				<path class="st0" d="M413.7,146.8c-1.5,0-2.7,0.3-3.6,0.8c-0.9,0.5-1.5,1.3-1.9,2.4c-0.4,1.1-0.6,2.5-0.6,4.3
					c0,1.9,0.4,3.5,1,4.8c0.7,1.3,2.1,1.9,4.2,1.9h3.8c0,1.3-0.1,2.2-0.3,2.8c-0.2,0.7-0.5,1.1-0.9,1.3c-0.4,0.3-0.9,0.3-1.5,0.3
					c-1,0-2.3-0.2-4.1-0.5v2.3c2.1,0.3,3.6,0.5,4.3,0.5c2,0,3.3-0.8,4.1-2.3c0.8-1.5,1.1-3.7,1.1-6.4v-11.7
					c-0.7-0.2-1.6-0.3-2.7-0.4C415.4,146.9,414.6,146.8,413.7,146.8z M416.7,158.7h-2.9c-1.4,0-2.3-0.4-2.7-1.3
					c-0.5-0.9-0.7-1.9-0.7-3.2c0-1.8,0.3-3.1,0.9-3.9c0.6-0.8,1.6-1.2,3.1-1.2c0.7,0,1.5,0.1,2.4,0.2L416.7,158.7L416.7,158.7z"/>
				<polygon class="st0" points="432.8,158.7 428,158.7 428,145.3 425.4,145.3 425.4,158.7 421.9,158.7 421.9,161 435.3,161 
					435.3,141.5 432.8,141.5 				"/>
				<rect x="439.8" y="141.5" class="st0" width="2.6" height="19.5"/>
				<path class="st0" d="M464,161.6c0,1.2-0.5,2.1-1.3,2.8c-0.9,0.7-2,1.1-3.3,1.1c-0.9,0-1.7-0.2-2.4-0.5c-0.8-0.4-1.3-0.8-1.7-1.4
					c-0.4-0.6-0.6-1.3-0.6-2c0-0.5,0.1-1.5,0.3-3c0.2-1.5,0.4-3.1,0.7-4.9l-2.5-0.2c-0.7,4.3-1.1,7.1-1.1,8.3c0,1.1,0.3,2.2,1,3
					c0.7,0.9,1.5,1.6,2.7,2.1c1.2,0.5,2.4,0.8,3.8,0.8c1.3,0,2.5-0.3,3.6-0.7c1.1-0.5,1.9-1.2,2.6-2c0.6-0.9,1-1.9,1-3.1v-20.3h-2.6
					L464,161.6L464,161.6z"/>
				<path class="st0" d="M476.1,146.8c-1.5,0-2.7,0.3-3.6,0.8c-0.9,0.5-1.5,1.3-1.9,2.4c-0.4,1.1-0.6,2.5-0.6,4.3
					c0,1.9,0.4,3.5,1,4.8c0.7,1.3,2.1,1.9,4.2,1.9h3.8c0,1.3-0.1,2.2-0.3,2.8c-0.2,0.7-0.5,1.1-0.9,1.3c-0.4,0.3-0.9,0.3-1.5,0.3
					c-1,0-2.3-0.2-4.1-0.5v2.3c2.1,0.3,3.6,0.5,4.3,0.5c2,0,3.3-0.8,4.1-2.3c0.8-1.5,1.1-3.7,1.1-6.4v-11.7
					c-0.7-0.2-1.6-0.3-2.7-0.4C477.9,146.9,476.9,146.8,476.1,146.8z M479.1,158.7h-2.9c-1.4,0-2.3-0.4-2.7-1.3
					c-0.5-0.9-0.7-1.9-0.7-3.2c0-1.8,0.3-3.1,0.9-3.9c0.6-0.8,1.6-1.2,3.1-1.2c0.7,0,1.5,0.1,2.4,0.2L479.1,158.7L479.1,158.7z"/>
				<rect x="485.6" y="141.5" class="st0" width="2.6" height="19.5"/>
				<path class="st0" d="M503.2,158.7v-2.6c0-2.2-0.3-4-1-5.3s-1.5-2.4-2.6-3c-1.1-0.6-2.2-1-3.6-1c-0.6,0-1.1,0.1-1.7,0.2
					s-1.1,0.2-1.3,0.3l0.2,1.9h2.4c1.4,0,2.5,0.5,3.6,1.6c1,1.1,1.5,2.9,1.5,5.5v2.5h-8.9v2.3H506v-2.3L503.2,158.7L503.2,158.7z"/>
				<rect x="511.9" y="142.2" class="st0" width="2.3" height="2.6"/>
				<rect x="508.3" y="142.2" class="st0" width="2.3" height="2.6"/>
				<polygon class="st0" points="512.5,158.7 512.5,147.4 510,147.4 510,158.7 505.9,158.7 505.9,161 516.6,161 516.6,158.7 				"/>
				<rect x="516.6" y="158.7" class="st0" width="0" height="2.3"/>
				<polygon class="st0" points="520,158.7 516.6,158.7 516.6,161 522.6,161 522.6,141.5 520,141.5 				"/>
				<rect x="549.8" y="142.2" class="st0" width="2.5" height="2.7"/>
				<path class="st0" d="M551.3,147.4c-1.7,0-3,0.2-4,0.6s-1.7,1.1-2.1,2.1c-0.5,1-0.7,2.4-0.7,4.2c0,1.9,0.2,3.4,0.6,4.4h-5.9
					c-1.8,0-3.1-0.3-3.8-0.7c-0.7-0.5-1.1-1.2-1.1-2.3c0-0.7,0.2-1.9,0.4-3.7l0.2-1.6l-2.1-0.1c-0.3,1-0.5,2-0.6,3.1
					c-0.2,1.1-0.3,2.1-0.3,2.8c0,1.2,0.3,2.2,0.8,2.9c0.6,0.7,1.3,1.2,2.4,1.4c1.1,0.3,2.4,0.4,4.1,0.4h16.7v-13.3l-1-0.1
					C554,147.5,552.7,147.4,551.3,147.4z M553.5,158.7H548c-0.3-0.4-0.5-0.9-0.7-1.5s-0.3-1.5-0.3-2.7c0-1.3,0.1-2.2,0.3-2.9
					c0.2-0.7,0.6-1.2,1.2-1.5c0.6-0.3,1.4-0.5,2.5-0.5c0.5,0,1.3,0.1,2.4,0.2L553.5,158.7L553.5,158.7z"/>
				<rect x="560.1" y="141.5" class="st0" width="2.6" height="19.5"/>
				<path class="st0" d="M585.2,158.7v-11.3c-0.7-0.1-1.7-0.2-3-0.2c-1.4-0.1-2.5-0.1-3.3-0.1c-1.7,0-3,0.2-3.9,0.7
					c-1,0.5-1.6,1.2-2.1,2.2s-0.6,2.4-0.6,4.1c0,1.8,0.2,3.1,0.7,4.2c0.5,1,1.2,1.7,2.1,2.2c1,0.5,2.3,0.7,4,0.7h9.3v-2.3
					L585.2,158.7L585.2,158.7z M582.6,158.7h-3.3c-1.1,0-2-0.2-2.6-0.5c-0.7-0.3-1.1-0.8-1.4-1.5c-0.3-0.7-0.4-1.6-0.4-2.8
					c0-1.1,0.2-2,0.4-2.7c0.3-0.7,0.7-1.2,1.4-1.5c0.6-0.3,1.5-0.5,2.6-0.5c0.9,0,2,0.1,3.5,0.2L582.6,158.7L582.6,158.7z"/>
				<rect x="590.7" y="163.3" class="st0" width="2.3" height="2.6"/>
				<polygon class="st0" points="595,147.4 592.3,147.4 592.3,158.7 588.3,158.7 588.3,161 595,161 				"/>
				<rect x="594.3" y="163.3" class="st0" width="2.3" height="2.6"/>
				<rect x="599.4" y="141.5" class="st0" width="2.6" height="19.5"/>
			</g>
			<g>
				<rect x="504.2" y="76.6" class="st0" width="5.4" height="5.9"/>
				<rect x="537.9" y="76.6" class="st0" width="5.4" height="5.9"/>
				<path class="st0" d="M290,108.3h16.4l2.5,9.5h5.6L304,77.2h-11.7l-10.5,40.5h5.6L290,108.3z M296.7,82h3l5.5,21.3h-14L296.7,82z
					"/>
				<polygon class="st0" points="345.4,82.2 345.4,77.2 320.6,77.2 320.6,117.8 326.3,117.8 326.3,101.8 342.3,101.8 342.3,96.8 
					326.3,96.8 326.3,82.2 				"/>
				<path class="st0" d="M384.7,97c-1.6-0.9-3.8-1.7-6.6-2.3c-2.7-0.6-4.7-1.2-6.1-1.7s-2.3-1.2-2.9-2c-0.6-0.8-0.9-2-0.9-3.4
					c0-3.9,2.7-5.9,8.1-5.9c2.4,0,6.3,0.3,11.7,1l0.5-4.6c-3-0.5-5.5-0.9-7.4-1.1c-1.9-0.2-3.6-0.3-5.2-0.3c-4.4,0-7.7,1-9.9,2.8
					c-2.2,1.9-3.3,4.7-3.3,8.4c0,2.3,0.4,4.3,1.2,5.7c0.8,1.5,2.1,2.6,3.9,3.6c1.8,0.9,4.3,1.8,7.4,2.5c2.2,0.5,3.9,1,5,1.4
					c1.2,0.5,2.1,1.2,2.6,1.9c0.6,0.8,0.8,1.9,0.8,3.2c0,4.8-2.6,7.3-8,7.3c-2.8,0-6.8-0.4-12.1-1.1l-0.6,4.5l2.1,0.4
					c4.6,0.8,8.3,1.1,11,1.1c4.3,0,7.6-1.1,9.8-3.2c2.2-2.1,3.4-5.3,3.4-9.4c0-2.2-0.4-4.1-1.1-5.4C387.4,99,386.3,97.9,384.7,97z"
					/>
				<path class="st0" d="M407.2,87.7c-4.3,0-7.5,1.3-9.6,4c-2.1,2.6-3.1,6.7-3.1,12.2c0,5.1,1,8.8,2.9,11.1s5.1,3.5,9.6,3.5
					c2.8,0,6.5-0.4,11.1-1.2l-0.1-4.3l-1.7,0.2c-1.2,0.1-2.6,0.2-4.1,0.3c-1.5,0.1-2.9,0.1-4.1,0.1c-2.1,0-3.7-0.3-4.8-0.8
					c-1.2-0.5-2-1.4-2.5-2.5c-0.5-1.2-0.8-2.8-0.8-4.9h18.8l0.4-4C419.2,92.2,415.2,87.7,407.2,87.7z M400.1,101.1
					c0.1-3,0.6-5.3,1.8-6.7c1.2-1.4,2.9-2.1,5.4-2.1c2.3,0,4,0.7,5,2c1,1.3,1.5,3.6,1.5,6.7H400.1z"/>
				<path class="st0" d="M438.2,113.5c-2.2,0-3.9-0.4-5-1c-1.2-0.7-1.9-1.7-2.4-3.2c-0.5-1.5-0.7-3.5-0.7-6.2c0-2.7,0.2-4.9,0.7-6.3
					c0.5-1.5,1.3-2.5,2.4-3.2c1.1-0.7,2.7-1,4.8-1c1.4,0,3.8,0.2,7.1,0.5l0.2-4.4c-2.2-0.4-4-0.7-5.2-0.9c-1.3-0.2-2.5-0.2-3.7-0.2
					c-4.5,0-7.6,1.4-9.3,4.1c-1.7,2.7-2.6,6.5-2.6,11.3c0,3.7,0.4,6.6,1.2,8.8s2,3.9,3.8,5c1.7,1.1,4.1,1.6,7,1.6c2,0,5-0.4,8.9-1
					l-0.2-4.5L438.2,113.5z"/>
				<path class="st0" d="M451.4,88.3v15.4c0,3.7,0.3,6.6,0.8,8.7c0.6,2.1,1.5,3.7,2.9,4.6c1.4,1,3.3,1.4,5.9,1.4
					c1.6,0,3-0.2,4.3-0.6c1.3-0.4,2.8-1.1,4.5-2v1.9h5.5V88.2h-5.5v23.3c-1.3,0.6-2.6,1-3.8,1.4c-1.2,0.4-2.4,0.5-3.7,0.5
					c-1.6,0-2.7-0.3-3.5-0.8c-0.8-0.6-1.3-1.5-1.6-2.8c-0.3-1.3-0.4-3.4-0.4-6.1V88.3L451.4,88.3L451.4,88.3z"/>
				<path class="st0" d="M499.1,93.2v-5.5c-3.4,0.7-6.9,2.1-10.3,4.4v-3.7h-5.4v29.5h5.5V96.8l1.4-0.7c1.1-0.5,2.5-1,4.1-1.6
					C496,94,497.6,93.5,499.1,93.2z"/>
				<rect x="504.2" y="88.3" class="st0" width="5.5" height="29.5"/>
				<path class="st0" d="M532.5,113.2l-5,0.3c-1.2,0-2-0.3-2.5-0.8c-0.5-0.5-0.8-1.2-1-2.1c-0.2-0.9-0.2-2.3-0.2-4.2V93h8.7v-4.7
					h-8.7v-8.8h-5.5v8.8h-4V93h4v14.5c0,2.8,0.3,5,0.8,6.5c0.5,1.6,1.3,2.7,2.5,3.3c1.2,0.7,2.8,1,4.9,1c1.5,0,3.6-0.3,6.3-0.7
					L532.5,113.2z"/>
				<rect x="537.9" y="88.3" class="st0" width="5.5" height="29.5"/>
				<path class="st0" d="M573.3,113l-1.7,0.2c-1.2,0.1-2.6,0.2-4.1,0.3c-1.5,0.1-2.9,0.1-4.1,0.1c-2.1,0-3.7-0.3-4.8-0.8
					c-1.2-0.5-2-1.4-2.5-2.5c-0.5-1.2-0.8-2.8-0.8-4.9h18.8l0.4-4c0-9.1-4-13.6-12-13.6c-4.3,0-7.5,1.3-9.6,4
					c-2.1,2.6-3.1,6.7-3.1,12.2c0,5.1,1,8.8,2.9,11.1c1.9,2.3,5.1,3.5,9.6,3.5c2.8,0,6.5-0.4,11.1-1.2L573.3,113z M557,94.4
					c1.1-1.4,2.9-2.1,5.4-2.1c2.3,0,4,0.7,5,2c1,1.3,1.5,3.6,1.5,6.7h-13.7C555.3,98,555.9,95.7,557,94.4z"/>
				<path class="st0" d="M601.1,104.5c-0.7-1.1-1.6-1.9-2.9-2.5c-1.3-0.6-3.1-1.1-5.4-1.5c-0.8-0.2-1.4-0.3-1.7-0.3
					c-1.5-0.3-2.6-0.5-3.4-0.8c-0.8-0.3-1.5-0.6-2-1.1c-0.5-0.5-0.8-1.2-0.8-2.1c0-2.4,2-3.7,6-3.7c2.3,0,5.7,0.3,10.1,1l0.1-4.6
					l-1.7-0.4c-3.6-0.6-6.5-0.9-8.8-0.9c-7.5,0-11.2,3-11.2,9.1c0,1.8,0.4,3.3,1.1,4.4c0.7,1.1,1.7,1.9,3,2.4s3.1,1,5.3,1.4l1.4,0.3
					c1.5,0.3,2.7,0.5,3.6,0.8c0.9,0.3,1.5,0.7,2,1.2c0.5,0.5,0.8,1.3,0.8,2.3c0,1.4-0.6,2.4-1.6,3c-1.1,0.6-2.6,1-4.7,1
					c-2,0-5.4-0.4-10.2-1l-0.3,4.7l1.8,0.3c3.7,0.6,6.6,1,8.9,1c3.9,0,6.8-0.8,8.7-2.3c1.9-1.5,2.8-3.9,2.8-7.2
					C602,107.1,601.7,105.6,601.1,104.5z"/>
			</g>
		</g>
		<g>
			<path class="st1" d="M197.8,62c3.3-1.1,7.4-2.1,11.3-2.1c0.6,0,1.1,0,1.7,0.1c0,0-0.7-0.3-1.7-0.7c-2.5-1.1-7.4-2.9-11.3-2.9
				c-1.3,0-2.4,0.2-3.4,0.6c0,0-6.4,1.9-4.6,8.5C189.8,65.3,193.1,63.5,197.8,62z"/>
			<g>
				
					<linearGradient id="SVGID_1_" gradientUnits="userSpaceOnUse" x1="36.6906" y1="-495.3329" x2="-20.8902" y2="-695.215" gradientTransform="matrix(1 0 0 1 0 692)">
					<stop  offset="1.385225e-07" style="stop-color:#0C0E10"/>
					<stop  offset="2.845545e-03" style="stop-color:#0E0E10"/>
					<stop  offset="4.360000e-02" style="stop-color:#351313"/>
					<stop  offset="8.730000e-02" style="stop-color:#610D0E"/>
					<stop  offset="0.1364" style="stop-color:#88171A"/>
					<stop  offset="0.1898" style="stop-color:#A71E22"/>
					<stop  offset="0.2489" style="stop-color:#C32026"/>
					<stop  offset="0.3157" style="stop-color:#D91F26"/>
					<stop  offset="0.3936" style="stop-color:#E91E25"/>
					<stop  offset="0.4899" style="stop-color:#ED1C24"/>
					<stop  offset="0.625" style="stop-color:#ED1C24"/>
					<stop  offset="1" style="stop-color:#ED2224"/>
				</linearGradient>
				<path class="st2" d="M24.7,106.6c-0.4-0.2-0.8-0.5-1.2-0.7c-3.7-1.9-6.6-4.1-8.7-6.6v73.8c0,3.1,2.5,5.7,5.7,5.7
					s5.7-2.5,5.7-5.7v-65.8c-0.4-0.2-0.8-0.4-1.2-0.5C25,106.7,24.9,106.7,24.7,106.6z"/>
				
					<linearGradient id="SVGID_2_" gradientUnits="userSpaceOnUse" x1="56.3811" y1="-501.0052" x2="-1.1997" y2="-700.8873" gradientTransform="matrix(1 0 0 1 0 692)">
					<stop  offset="1.385225e-07" style="stop-color:#0C0E10"/>
					<stop  offset="2.845545e-03" style="stop-color:#0E0E10"/>
					<stop  offset="4.360000e-02" style="stop-color:#351313"/>
					<stop  offset="8.730000e-02" style="stop-color:#610D0E"/>
					<stop  offset="0.1364" style="stop-color:#88171A"/>
					<stop  offset="0.1898" style="stop-color:#A71E22"/>
					<stop  offset="0.2489" style="stop-color:#C32026"/>
					<stop  offset="0.3157" style="stop-color:#D91F26"/>
					<stop  offset="0.3936" style="stop-color:#E91E25"/>
					<stop  offset="0.4899" style="stop-color:#ED1C24"/>
					<stop  offset="0.625" style="stop-color:#ED1C24"/>
					<stop  offset="1" style="stop-color:#ED2224"/>
				</linearGradient>
				<path class="st3" d="M45,115.2c-2.5-1-5-2-7.5-3v61c0,3.1,2.5,5.7,5.7,5.7l0,0c3.1,0,5.7-2.5,5.7-5.7v-56.6
					c-0.5-0.2-1-0.4-1.4-0.5C46.6,115.7,45.8,115.5,45,115.2z"/>
				
					<linearGradient id="SVGID_3_" gradientUnits="userSpaceOnUse" x1="76.0716" y1="-506.6775" x2="18.4908" y2="-706.5596" gradientTransform="matrix(1 0 0 1 0 692)">
					<stop  offset="1.385225e-07" style="stop-color:#0C0E10"/>
					<stop  offset="2.845545e-03" style="stop-color:#0E0E10"/>
					<stop  offset="4.360000e-02" style="stop-color:#351313"/>
					<stop  offset="8.730000e-02" style="stop-color:#610D0E"/>
					<stop  offset="0.1364" style="stop-color:#88171A"/>
					<stop  offset="0.1898" style="stop-color:#A71E22"/>
					<stop  offset="0.2489" style="stop-color:#C32026"/>
					<stop  offset="0.3157" style="stop-color:#D91F26"/>
					<stop  offset="0.3936" style="stop-color:#E91E25"/>
					<stop  offset="0.4899" style="stop-color:#ED1C24"/>
					<stop  offset="0.625" style="stop-color:#ED1C24"/>
					<stop  offset="1" style="stop-color:#ED2224"/>
				</linearGradient>
				<path class="st4" d="M65.8,178.8L65.8,178.8c3.1,0,5.7-2.5,5.7-5.7v-47.3c-0.5-0.2-1-0.5-1.4-0.7c-1.2-0.6-2.3-1.1-3.5-1.6
					c-2.1-0.9-4.2-1.8-6.4-2.6v52.3C60.2,176.3,62.7,178.8,65.8,178.8z"/>
				
					<linearGradient id="SVGID_4_" gradientUnits="userSpaceOnUse" x1="97.9754" y1="-502.7662" x2="40.3946" y2="-702.6483" gradientTransform="matrix(1 0 0 1 0 692)">
					<stop  offset="1.385225e-07" style="stop-color:#0C0E10"/>
					<stop  offset="2.845545e-03" style="stop-color:#0E0E10"/>
					<stop  offset="4.360000e-02" style="stop-color:#351313"/>
					<stop  offset="8.730000e-02" style="stop-color:#610D0E"/>
					<stop  offset="0.1364" style="stop-color:#88171A"/>
					<stop  offset="0.1898" style="stop-color:#A71E22"/>
					<stop  offset="0.2489" style="stop-color:#C32026"/>
					<stop  offset="0.3157" style="stop-color:#D91F26"/>
					<stop  offset="0.3936" style="stop-color:#E91E25"/>
					<stop  offset="0.4899" style="stop-color:#ED1C24"/>
					<stop  offset="0.625" style="stop-color:#ED1C24"/>
					<stop  offset="1" style="stop-color:#ED2224"/>
				</linearGradient>
				<path class="st5" d="M88.1,134.8c-1.7-1-3.4-2.1-5.2-3v41.4c0,3.1,2.5,5.7,5.7,5.7c3.1,0,5.7-2.5,5.7-5.7v-34.3
					c-0.5-0.3-1-0.7-1.4-1C91.2,136.8,89.6,135.8,88.1,134.8z"/>
				
					<linearGradient id="SVGID_5_" gradientUnits="userSpaceOnUse" x1="117.7395" y1="-504.4557" x2="60.1589" y2="-704.3378" gradientTransform="matrix(1 0 0 1 0 692)">
					<stop  offset="1.385225e-07" style="stop-color:#0C0E10"/>
					<stop  offset="2.845545e-03" style="stop-color:#0E0E10"/>
					<stop  offset="4.360000e-02" style="stop-color:#351313"/>
					<stop  offset="8.730000e-02" style="stop-color:#610D0E"/>
					<stop  offset="0.1364" style="stop-color:#88171A"/>
					<stop  offset="0.1898" style="stop-color:#A71E22"/>
					<stop  offset="0.2489" style="stop-color:#C32026"/>
					<stop  offset="0.3157" style="stop-color:#D91F26"/>
					<stop  offset="0.3936" style="stop-color:#E91E25"/>
					<stop  offset="0.4899" style="stop-color:#ED1C24"/>
					<stop  offset="0.625" style="stop-color:#ED1C24"/>
					<stop  offset="1" style="stop-color:#ED2224"/>
				</linearGradient>
				<path class="st6" d="M109.7,149.8c0,0-4-3.2-4.2-3.3v26.7c0,3.1,2.5,5.7,5.7,5.7c3.1,0,5.7-2.5,5.7-5.7v-17.9
					c-1.5-1.2-2.8-2.2-4-3.1C112.5,152,109.9,149.9,109.7,149.8z"/>
				
					<linearGradient id="SVGID_6_" gradientUnits="userSpaceOnUse" x1="137.5071" y1="-503.5908" x2="79.9263" y2="-703.4729" gradientTransform="matrix(1 0 0 1 0 692)">
					<stop  offset="1.385225e-07" style="stop-color:#0C0E10"/>
					<stop  offset="2.845545e-03" style="stop-color:#0E0E10"/>
					<stop  offset="4.360000e-02" style="stop-color:#351313"/>
					<stop  offset="8.730000e-02" style="stop-color:#610D0E"/>
					<stop  offset="0.1364" style="stop-color:#88171A"/>
					<stop  offset="0.1898" style="stop-color:#A71E22"/>
					<stop  offset="0.2489" style="stop-color:#C32026"/>
					<stop  offset="0.3157" style="stop-color:#D91F26"/>
					<stop  offset="0.3936" style="stop-color:#E91E25"/>
					<stop  offset="0.4899" style="stop-color:#ED1C24"/>
					<stop  offset="0.625" style="stop-color:#ED1C24"/>
					<stop  offset="1" style="stop-color:#ED2224"/>
				</linearGradient>
				<path class="st7" d="M134.2,170.4c-1.5-1.5-2.9-2.8-4.4-4.1c-0.6-0.5-1.2-1-1.7-1.5v8.4c0,3.1,2.5,5.7,5.7,5.7l0,0
					c2.4,0,4.4-1.5,5.2-3.6C137.4,173.6,135.7,172,134.2,170.4z"/>
			</g>
			<g>
				
					<linearGradient id="SVGID_7_" gradientUnits="userSpaceOnUse" x1="153.5611" y1="-499.6881" x2="182.1151" y2="-705.7907" gradientTransform="matrix(1 0 0 1 0 692)">
					<stop  offset="1.385225e-07" style="stop-color:#0C0E10"/>
					<stop  offset="4.430000e-02" style="stop-color:#0E1D13"/>
					<stop  offset="0.1283" style="stop-color:#163019"/>
					<stop  offset="0.2274" style="stop-color:#1A411E"/>
					<stop  offset="0.3501" style="stop-color:#1E4D25"/>
					<stop  offset="0.5222" style="stop-color:#1D5429"/>
					<stop  offset="1" style="stop-color:#1C562B"/>
				</linearGradient>
				<path class="st8" d="M155.5,165.9c-1.1,1.5-2.1,3-3.1,4.6c-0.6,0.9-1.1,1.7-1.6,2.6v0.1c0,3.1,2.4,5.7,5.4,5.7l0,0
					c3,0,5.4-2.5,5.4-5.7v-15c-0.2,0.3-0.4,0.5-0.6,0.7C159,161.1,157.2,163.5,155.5,165.9z"/>
				
					<linearGradient id="SVGID_8_" gradientUnits="userSpaceOnUse" x1="174.2126" y1="-496.8317" x2="202.8194" y2="-703.3154" gradientTransform="matrix(1 0 0 1 0 692)">
					<stop  offset="1.385225e-07" style="stop-color:#0C0E10"/>
					<stop  offset="4.430000e-02" style="stop-color:#0E1D13"/>
					<stop  offset="0.1283" style="stop-color:#163019"/>
					<stop  offset="0.2274" style="stop-color:#1A411E"/>
					<stop  offset="0.3501" style="stop-color:#1E4D25"/>
					<stop  offset="0.5222" style="stop-color:#1D5429"/>
					<stop  offset="1" style="stop-color:#1C562B"/>
				</linearGradient>
				<path class="st9" d="M175.1,145.1c-0.6,0.5-1.1,1-1.7,1.5v26.5c0,3.1,2.5,5.7,5.7,5.7c3.1,0,5.7-2.5,5.7-5.7v-35.9
					c-2.5,1.9-5.1,3.9-7.5,6C176.5,143.9,175.8,144.5,175.1,145.1z"/>
				
					<linearGradient id="SVGID_9_" gradientUnits="userSpaceOnUse" x1="195.3429" y1="-493.9042" x2="223.9496" y2="-700.3879" gradientTransform="matrix(1 0 0 1 0 692)">
					<stop  offset="1.385225e-07" style="stop-color:#0C0E10"/>
					<stop  offset="4.430000e-02" style="stop-color:#0E1D13"/>
					<stop  offset="0.1283" style="stop-color:#163019"/>
					<stop  offset="0.2274" style="stop-color:#1A411E"/>
					<stop  offset="0.3501" style="stop-color:#1E4D25"/>
					<stop  offset="0.5222" style="stop-color:#1D5429"/>
					<stop  offset="1" style="stop-color:#1C562B"/>
				</linearGradient>
				<path class="st10" d="M197.8,128.4c-0.6,0.4-1.1,0.7-1.7,1.1v43.7c0,3.1,2.5,5.7,5.7,5.7c3.1,0,5.7-2.5,5.7-5.7v-50.3
					c-2.9,1.6-5.8,3.2-8.7,4.9C198.4,128,198.1,128.2,197.8,128.4z"/>
				
					<linearGradient id="SVGID_10_" gradientUnits="userSpaceOnUse" x1="216.7149" y1="-490.9432" x2="245.3217" y2="-697.427" gradientTransform="matrix(1 0 0 1 0 692)">
					<stop  offset="1.385225e-07" style="stop-color:#0C0E10"/>
					<stop  offset="4.430000e-02" style="stop-color:#0E1D13"/>
					<stop  offset="0.1283" style="stop-color:#163019"/>
					<stop  offset="0.2274" style="stop-color:#1A411E"/>
					<stop  offset="0.3501" style="stop-color:#1E4D25"/>
					<stop  offset="0.5222" style="stop-color:#1D5429"/>
					<stop  offset="1" style="stop-color:#1C562B"/>
				</linearGradient>
				<path class="st11" d="M220.3,116.7c-0.5,0.2-1,0.5-1.5,0.7v55.8c0,3.1,2.5,5.7,5.7,5.7c3.1,0,5.7-2.5,5.7-5.7v-60.4
					c-3.2,1.2-6.5,2.5-9.6,3.9C220.4,116.6,220.3,116.7,220.3,116.7z"/>
				
					<linearGradient id="SVGID_11_" gradientUnits="userSpaceOnUse" x1="238.3608" y1="-487.9443" x2="266.9677" y2="-694.4281" gradientTransform="matrix(1 0 0 1 0 692)">
					<stop  offset="1.385225e-07" style="stop-color:#0C0E10"/>
					<stop  offset="4.430000e-02" style="stop-color:#0E1D13"/>
					<stop  offset="0.1283" style="stop-color:#163019"/>
					<stop  offset="0.2274" style="stop-color:#1A411E"/>
					<stop  offset="0.3501" style="stop-color:#1E4D25"/>
					<stop  offset="0.5222" style="stop-color:#1D5429"/>
					<stop  offset="1" style="stop-color:#1C562B"/>
				</linearGradient>
				<path class="st12" d="M243.1,107.5c-0.6,0.3-1.1,0.6-1.7,0.9v64.8c0,3.1,2.5,5.7,5.7,5.7s5.7-2.5,5.7-5.7l0.4-76.5
					C251,101.2,247.7,104.8,243.1,107.5z"/>
			</g>
			<g>
				
					<linearGradient id="SVGID_12_" gradientUnits="userSpaceOnUse" x1="110.1925" y1="-500.4866" x2="222.9413" y2="-662.4248" gradientTransform="matrix(1 0 0 1 0 692)">
					<stop  offset="0" style="stop-color:#0C0E10"/>
					<stop  offset="3.680000e-02" style="stop-color:#0D1812"/>
					<stop  offset="0.141" style="stop-color:#152E19"/>
					<stop  offset="0.2606" style="stop-color:#1A3F1D"/>
					<stop  offset="0.403" style="stop-color:#1D4C24"/>
					<stop  offset="0.5906" style="stop-color:#1D5429"/>
					<stop  offset="1" style="stop-color:#1C562B"/>
				</linearGradient>
				<path class="st13" d="M255.3,66.9c-0.2-0.9-0.6-1.7-1-2.4c-1.8-3.2-5.5-4.5-11.3-4.8c-0.3,0-0.6-0.1-0.8-0.1
					c-3.4-0.1-7-0.4-10.5-0.8c-3.9-0.5-7.7-1.3-11.3-2.4c-1.2-0.4-2.3-0.8-3.4-1.3c-2.6-1.1-5.2-2.1-7.9-2.8
					c-3.8-1.2-7.5-1.9-11.3-2.2c-3.7-0.3-7.5-0.1-11.3,0.7c-0.3,0.1-0.5,0.1-0.8,0.2c-4,0.9-8,1.3-10.6-0.8c-1.1-0.8-1.9-2-2.4-3.8
					c-1.5-5.1-1.8-11.4-0.3-16.3c0.5-1.7,1.5-3.1,2.7-4.6c1.7-2,13.8-3.8,15.5-5.7c0.2-0.3,0.5-0.5,0.7-0.8
					c-0.9,0.3-1.7,0.5-2.6,0.8c-1.3,0.4-2.5,0.8-3.6,1.2c-4.7,1.7-18.4,3.6-21.3,5.7c-8.3,6.1-9.9,14.4-6.4,26.7
					c-1.6,0.5-3.2,1-4.9,1.4c-3.7,1.1-7.4,2.2-11.4,3.3c-2.5,0.7-5,1.5-7.7,2.3c2.4,3.4,5,5.9,7.7,7.7c3.6,2.3,7.4,3.3,11.4,3.7v6.6
					c-2.8,2.2-6.6,3.8-9.2,5.7l-1.9,22.9l-0.3-0.2l-3.8-2.7l-7.6,23.9l-0.6,1.8l-13.7-11.1l-5.4,16.5l-0.5,1.6
					c0.3,0.2,2.8,2.2,3.1,2.4c1.2,0.9,2.5,2,4,3.1c0.6,0.5,1.1,0.9,1.7,1.3c0.8,0.6,1.5,1.2,2.3,1.8c0.9,0.7,1.7,1.4,2.6,2.2
					c1.5,1.3,3,2.6,4.7,4.1c0.6,0.5,1.1,1,1.7,1.5c1.4,1.3,2.9,2.6,4.4,4.1c1.6,1.5,3.2,3.1,4.8,4.8c0.7,0.7,1.3,1.4,2,2.1
					c1.5,1.5,2.9,3.1,4.5,4.8c1.6-3.1,3.3-6.1,5.2-9.1c0.6-0.9,1.1-1.7,1.7-2.6c1.1-1.5,2.1-3,3.2-4.6c1.8-2.4,3.7-4.8,5.8-7.1
					c0.2-0.3,0.4-0.5,0.6-0.7c0.6-0.7,1.1-1.3,1.7-1.9c0.9-1,1.8-1.9,2.7-2.8c1.6-1.6,3.2-3.2,4.8-4.8c0.7-0.7,1.4-1.3,2.1-2
					c0.6-0.5,1.1-1,1.7-1.5c0.7-0.6,1.4-1.2,2.1-1.9c2.4-2.1,5-4.1,7.5-6c0.6-0.4,1.1-0.9,1.7-1.3c0.5-0.4,1-0.8,1.5-1.2
					c2.6-1.9,5.3-3.7,8.1-5.4c0.6-0.4,1.1-0.7,1.7-1.1c0.3-0.2,0.6-0.4,1-0.6c2.8-1.7,5.7-3.3,8.7-4.9c0.6-0.3,1.1-0.6,1.7-0.9
					c0.1-0.1,0.3-0.2,0.4-0.2c3-1.6,6.1-3,9.2-4.4c0.5-0.2,1-0.5,1.5-0.7c0.1,0,0.1-0.1,0.2-0.1c3.1-1.4,6.4-2.7,9.6-3.9
					c0.3-0.1,0.7-0.3,1-0.4c0.3-0.1,0.5-0.2,0.7-0.3c1.7-0.6,3.4-1.3,5.2-1.8c1.4-0.5,2.6-1,3.9-1.5c0.2-0.1,0.4-0.2,0.6-0.3
					c0.6-0.3,1.2-0.6,1.7-0.9c4.6-2.7,7.9-6.2,10-10.8c0.2-0.3,0.3-0.6,0.5-1c0.3-0.8,0.6-1.6,0.9-2.4c0.4-1.3,0.7-2.6,1-4.1
					c0.2-0.8,0.2-1.7,0.3-2.5C255.9,70.9,255.8,68.7,255.3,66.9z M209.1,59.9c-4,0.1-8,1-11.3,2.1c-4.7,1.5-8,3.3-8,3.3
					c-1.8-6.6,4.6-8.5,4.6-8.5c1-0.4,2.1-0.6,3.4-0.6c4,0.1,8.8,1.9,11.3,2.9c1,0.5,1.7,0.7,1.7,0.7
					C210.2,59.9,209.7,59.9,209.1,59.9z"/>
				
					<linearGradient id="SVGID_13_" gradientUnits="userSpaceOnUse" x1="134.5358" y1="-566.2814" x2="4.7043" y2="-669.1566" gradientTransform="matrix(1 0 0 1 0 692)">
					<stop  offset="1.385225e-07" style="stop-color:#0C0E10"/>
					<stop  offset="2.845545e-03" style="stop-color:#0E0E10"/>
					<stop  offset="4.360000e-02" style="stop-color:#351313"/>
					<stop  offset="8.730000e-02" style="stop-color:#610D0E"/>
					<stop  offset="0.1364" style="stop-color:#88171A"/>
					<stop  offset="0.1898" style="stop-color:#A71E22"/>
					<stop  offset="0.2489" style="stop-color:#C32026"/>
					<stop  offset="0.3157" style="stop-color:#D91F26"/>
					<stop  offset="0.3936" style="stop-color:#E91E25"/>
					<stop  offset="0.4899" style="stop-color:#ED1C24"/>
					<stop  offset="0.625" style="stop-color:#ED1C24"/>
					<stop  offset="1" style="stop-color:#ED2224"/>
				</linearGradient>
				<path class="st14" d="M124.7,94.1l2-2.1L139,81c-4.5-6.1-8.1-12.2-12.2-16.7c0,0.3,0,0.5-0.1,0.8c-0.1,0.2-0.1,0.4-0.1,0.5
					c-0.9,5.8-5.4,8.7-11.4,9.5c-1.5,0.2-3.1,0.3-4.9,0.2l4.5-3.1c0.2-0.1,0.3-0.2,0.4-0.3c7.3-5.2,7.6-11.4,0.3-17.1
					c-0.1-0.1-0.2-0.2-0.3-0.2c-3.8-3-7.1-6.5-11.3-7c-1.5-0.2-3,0-4.7,0.7c-1.9,0.8-4.3,1-6.6,0.8c-1.3-0.1-2.5-0.3-3.8-0.5
					c-2.5-0.5-5.1-0.9-7.6-1.2c-3.8-0.5-7.6-0.6-11.3-0.3c-3.9,0.3-7.6,1-11.4,2.3c-2.5,0.9-5,2-7.4,3.4c-1.3,0.8-0.9,2.8,0.7,3.1
					c2.2,0.4,4.6,0.7,6.8,1.2c5,1.2,9.4,3.4,11.4,10c0.3,0.9,0.5,1.8,0.6,2.9c-0.2-0.2-0.4-0.3-0.6-0.5c-3.7-2.6-7.5-4.3-11.4-5.4
					c-3.7-1.1-7.5-1.6-11.3-1.8c-3.8-0.2-7.6-0.1-11.4,0.2c-3.8,0.2-7.6,0.5-11.3,0.6c-3.8,0.1-7.6,0.1-11.3-0.3
					c-0.5-0.1-0.9-0.1-1.3-0.2c-0.6,2-0.9,4-1.2,5.8c-0.5,3.6-0.6,6.8,0,9.6c0.4,1.9,1,3.6,1.8,5.2c0.2,0.4,0.5,0.8,0.7,1.1
					c0.4,0.7,0.9,1.3,1.4,1.9c2.1,2.5,5,4.6,8.7,6.6c0.4,0.2,0.8,0.4,1.2,0.7c0.1,0.1,0.2,0.1,0.3,0.2c0.4,0.2,0.8,0.4,1.2,0.5
					c2.7,1.2,5.4,2.4,8.1,3.6c0.6,0.3,1.2,0.5,1.8,0.8c0.5,0.2,1,0.4,1.4,0.6c2.5,1,5,2,7.5,3c0.8,0.3,1.6,0.6,2.4,0.9
					c0.5,0.2,1,0.4,1.4,0.6c2.1,0.8,4.3,1.6,6.4,2.4c0.2,0.1,0.4,0.2,0.6,0.2c1,0.4,2,0.8,2.9,1.1c0.5,0.2,1,0.4,1.4,0.6
					c2.2,0.9,4.3,1.7,6.4,2.6c1.2,0.5,2.3,1.1,3.5,1.6c0.5,0.2,1,0.5,1.4,0.7c2,0.9,3.9,1.9,5.8,2.9c1.4,0.7,2.7,1.5,4.1,2.2
					c0.5,0.3,1,0.6,1.4,0.8c1.8,1,3.6,2,5.2,3c1.6,1,3.1,2,4.7,3c0.5,0.3,1,0.7,1.4,1c1.6,1.1,3.1,2.2,4.7,3.3
					c0.2,0.2,2.7,1.8,3.8,2.5c0,0,2.1,1.4,2.2,1.5l6-24l4.6,2.8l8.7,5.3l2.6-11.1l2.1-9l-2.1-1.6L124.7,94.1z"/>
			</g>
			
				<linearGradient id="SVGID_14_" gradientUnits="userSpaceOnUse" x1="248.7432" y1="-665.0504" x2="215.3889" y2="-639.5136" gradientTransform="matrix(1 0 0 1 0 692)">
				<stop  offset="1.385225e-07" style="stop-color:#0C0E10"/>
				<stop  offset="4.430000e-02" style="stop-color:#0E1D13"/>
				<stop  offset="0.1283" style="stop-color:#163019"/>
				<stop  offset="0.2274" style="stop-color:#1A411E"/>
				<stop  offset="0.3501" style="stop-color:#1E4D25"/>
				<stop  offset="0.5222" style="stop-color:#1D5429"/>
				<stop  offset="1" style="stop-color:#1C562B"/>
			</linearGradient>
			<path class="st15" d="M227.7,52.4c-0.4,1,0.3,2,1.3,2.1c0.9,0.1,1.8,0.2,2.7,0.2c2.8,0.2,5.6,0.1,6-0.7c1.7-2.6,1.9-8.3,0.1-10.7
				c-1.8-2.3-3.9-4.4-6.1-6.4c-3-2.8-6.3-5.5-9.5-8.4c1.8,5.6,3.4,10.8,5.2,16.2C227.3,44.7,228.8,49.7,227.7,52.4z"/>
		</g>
	</g>
</g>
</svg>
