<svg id="Layer_1" data-name="Layer 1" xmlns="http://www.w3.org/2000/svg" viewBox="0 0 143.83 41.23"><defs><style>.cls-1{fill:#fff;}</style></defs><g id="Layer_2" data-name="Layer 2"><g id="Layer_1-2" data-name="Layer 1-2"><path class="cls-1" d="M13.71,113.7v-5l-1.37-.1H10.86a3.9,3.9,0,0,0-1.76.31,1.71,1.71,0,0,0-.92,1,4.9,4.9,0,0,0-.32,1.9,4.62,4.62,0,0,0,.3,1.87,1.92,1.92,0,0,0,1,1,4.48,4.48,0,0,0,1.78.3h4.14V113.7Zm-1.15,0H11.05a2.82,2.82,0,0,1-1.19-.2,1.2,1.2,0,0,1-.62-.69,3.37,3.37,0,0,1-.19-1.25,2.9,2.9,0,0,1,.19-1.21,1.17,1.17,0,0,1,.62-.62,2.64,2.64,0,0,1,1.15-.2,11.65,11.65,0,0,1,1.56.08Z" transform="translate(-7.85 -76.79)"/><rect class="cls-1" x="3.58" y="29.51" width="1.03" height="1.19"/><rect class="cls-1" x="1.94" y="29.51" width="1.05" height="1.19"/><polygon class="cls-1" points="10.21 36.95 10.21 31.85 9.05 31.85 9.05 36.95 7.21 36.95 7.21 38 12.05 38 12.05 36.95 10.21 36.95"/><polygon class="cls-1" points="13.56 36.95 12.05 36.95 12.05 38 14.73 38 14.73 29.24 13.56 29.24 13.56 36.95"/><polygon class="cls-1" points="18.04 36.95 18.04 29.24 16.88 29.24 16.88 38 19.2 38 19.2 36.95 18.04 36.95"/><path class="cls-1" d="M35.29,113.7a1,1,0,0,1-.88-.5v-1.5a3.52,3.52,0,0,0-.7-2.45,3,3,0,0,0-2.29-.75,5.28,5.28,0,0,0-1.26.12,4.6,4.6,0,0,0-.92.24,7.31,7.31,0,0,0-.24,1.32,9.16,9.16,0,0,0-.14,1.57,10.32,10.32,0,0,0,.17,2H27v1.06h7.34v-.51a1.22,1.22,0,0,0,.42.36,1.14,1.14,0,0,0,.46.15h.48v-1.1Zm-2,0h-3c0-.22-.07-.51-.11-.88a10.28,10.28,0,0,1-.06-1.1,11.29,11.29,0,0,1,.19-2.09,4.14,4.14,0,0,1,1-.11,2,2,0,0,1,1.51.5,2.36,2.36,0,0,1,.47,1.63Z" transform="translate(-7.85 -76.79)"/><polygon class="cls-1" points="29.43 36.95 27.91 36.95 27.91 38 30.59 38 30.59 29.24 29.43 29.24 29.43 36.95"/><rect class="cls-1" x="32.74" y="29.24" width="1.17" height="8.76"/><rect class="cls-1" x="45.81" y="29.51" width="1.03" height="1.19"/><path class="cls-1" d="M54.14,108.7h-1a3.89,3.89,0,0,0-1.75.32,1.74,1.74,0,0,0-.9,1,5.7,5.7,0,0,0-.26,1.93,5.19,5.19,0,0,0,.23,1.79,1.38,1.38,0,0,0,.72.85,3.45,3.45,0,0,0,1.39.24h1.69v.25a2.08,2.08,0,0,1-.4,1.36,1.83,1.83,0,0,1-1.4.5h-3.4a1.82,1.82,0,0,1-1.39-.5,2.08,2.08,0,0,1-.45-1.37,7,7,0,0,1,.1-1.12c.07-.5.15-1,.23-1.56l.09-.54-1.1-.17a22.76,22.76,0,0,0-.47,3.59,2.9,2.9,0,0,0,.34,1.4,2.41,2.41,0,0,0,1,1A3.61,3.61,0,0,0,49,118h3.53a3.68,3.68,0,0,0,1.63-.35,2.67,2.67,0,0,0,1-1,3,3,0,0,0,.34-1.39v-6.47h-.44a4.41,4.41,0,0,1-.89-.07m.11,5.07H53a2.27,2.27,0,0,1-.9-.15.91.91,0,0,1-.46-.54,3.39,3.39,0,0,1-.15-1.18,3.81,3.81,0,0,1,.16-1.3,1.16,1.16,0,0,1,.57-.68,2.09,2.09,0,0,1,1.1-.22,5.65,5.65,0,0,1,1,.06Z" transform="translate(-7.85 -76.79)"/><rect class="cls-1" x="44.16" y="29.51" width="1.05" height="1.19"/><rect class="cls-1" x="49.51" y="29.24" width="1.17" height="8.76"/><path class="cls-1" d="M61.91,115.11a2.33,2.33,0,0,1-.28,1.24,1,1,0,0,1-.83.44h-.67v1H61a1.73,1.73,0,0,0,1.53-.77,4.19,4.19,0,0,0,.5-2.22v-6.1H61.91Z" transform="translate(-7.85 -76.79)"/><path class="cls-1" d="M67.09,108.4a3,3,0,0,0-1.59.34,1.83,1.83,0,0,0-.84,1.07,6.06,6.06,0,0,0-.26,1.94,4.78,4.78,0,0,0,.46,2.16,1.9,1.9,0,0,0,1.87.88h1.69a5,5,0,0,1-.14,1.27,1.06,1.06,0,0,1-.39.58,1.35,1.35,0,0,1-.68.15,14.14,14.14,0,0,1-1.85-.2v1c.64.1,1.29.16,1.94.2a1.85,1.85,0,0,0,1.81-1,6.94,6.94,0,0,0,.49-2.88V108.7q-.46-.09-1.2-.18c-.49,0-.92-.08-1.3-.08m1.32,5.37H67.1a1.3,1.3,0,0,1-1.24-.6,3.21,3.21,0,0,1-.29-1.46A2.79,2.79,0,0,1,66,110a1.56,1.56,0,0,1,1.38-.52,6.53,6.53,0,0,1,1.07.09Z" transform="translate(-7.85 -76.79)"/><polygon class="cls-1" points="67.8 36.95 65.66 36.95 65.66 30.9 64.48 30.9 64.48 36.95 62.92 36.95 62.92 38 68.94 38 68.94 29.24 67.8 29.24 67.8 36.95"/><rect class="cls-1" x="70.97" y="29.24" width="1.17" height="8.76"/><path class="cls-1" d="M89.68,115a1.6,1.6,0,0,1-.6,1.28,2.4,2.4,0,0,1-1.48.47,2.74,2.74,0,0,1-1.1-.23,2,2,0,0,1-.78-.62,1.48,1.48,0,0,1-.28-.9,10.42,10.42,0,0,1,.13-1.37c.08-.68.19-1.41.31-2.19l-1.11-.06a28.89,28.89,0,0,0-.48,3.72,2.31,2.31,0,0,0,.44,1.38,3,3,0,0,0,1.2,1,4.33,4.33,0,0,0,1.71.36,4.38,4.38,0,0,0,1.63-.32,2.81,2.81,0,0,0,1.15-.93,2.45,2.45,0,0,0,.44-1.41v-9.15H89.68Z" transform="translate(-7.85 -76.79)"/><path class="cls-1" d="M95.1,108.4a3,3,0,0,0-1.59.34,1.83,1.83,0,0,0-.84,1.07,6.35,6.35,0,0,0-.26,1.94,4.64,4.64,0,0,0,.45,2.16,1.9,1.9,0,0,0,1.87.88h1.69a5,5,0,0,1-.14,1.27,1.06,1.06,0,0,1-.39.58,1.35,1.35,0,0,1-.68.15,14.14,14.14,0,0,1-1.85-.2v1c.64.1,1.29.16,1.94.2a1.85,1.85,0,0,0,1.81-1,6.94,6.94,0,0,0,.49-2.88V108.7q-.46-.09-1.2-.18c-.49,0-.92-.08-1.3-.08m1.33,5.37H95.11a1.29,1.29,0,0,1-1.25-.6,3.21,3.21,0,0,1-.29-1.46A2.79,2.79,0,0,1,94,110a1.56,1.56,0,0,1,1.38-.52,6.53,6.53,0,0,1,1.07.09Z" transform="translate(-7.85 -76.79)"/><rect class="cls-1" x="91.51" y="29.24" width="1.17" height="8.76"/><path class="cls-1" d="M107.28,113.7v-1.19a5.8,5.8,0,0,0-.42-2.4,2.92,2.92,0,0,0-1.14-1.36,3.05,3.05,0,0,0-1.61-.42,5.16,5.16,0,0,0-.79.06,2.9,2.9,0,0,0-.6.12l.09.87h1a2.06,2.06,0,0,1,1.58.72,3.63,3.63,0,0,1,.68,2.47v1.13h-4v1h6.39v-1Z" transform="translate(-7.85 -76.79)"/><rect class="cls-1" x="103.34" y="29.51" width="1.03" height="1.19"/><rect class="cls-1" x="101.7" y="29.51" width="1.05" height="1.19"/><polygon class="cls-1" points="103.63 36.95 103.63 31.85 102.45 31.85 102.45 36.95 100.63 36.95 100.63 38 105.45 38 105.45 36.95 103.63 36.95"/><polygon class="cls-1" points="106.97 36.95 105.45 36.95 105.45 38 108.14 38 108.14 29.24 106.97 29.24 106.97 36.95"/><rect class="cls-1" x="120.37" y="29.5" width="1.12" height="1.2"/><path class="cls-1" d="M128.86,108.7a4.39,4.39,0,0,0-1.8.28,1.71,1.71,0,0,0-.94,1,4.8,4.8,0,0,0-.28,1.88,5.08,5.08,0,0,0,.28,2h-2.63a3.42,3.42,0,0,1-1.7-.31,1.13,1.13,0,0,1-.47-1,11.26,11.26,0,0,1,.17-1.64l.1-.73h-.93c-.1.42-.2.89-.27,1.4a9.09,9.09,0,0,0-.12,1.28,1.75,1.75,0,0,0,1.43,1.94,8.13,8.13,0,0,0,1.85.19h7.52v-6h-.45a12.62,12.62,0,0,0-1.73-.09m1,5.09h-2.47a2.17,2.17,0,0,1-.3-.68,4.88,4.88,0,0,1-.11-1.2,4.19,4.19,0,0,1,.15-1.32,1,1,0,0,1,.53-.67,2.14,2.14,0,0,1,1.12-.21q.3,0,1.08.06Z" transform="translate(-7.85 -76.79)"/><rect class="cls-1" x="124.97" y="29.24" width="1.17" height="8.76"/><path class="cls-1" d="M144.13,113.7v-5l-1.38-.1h-1.49a3.9,3.9,0,0,0-1.76.31,1.77,1.77,0,0,0-.92,1,6.21,6.21,0,0,0,0,3.72,1.86,1.86,0,0,0,.95,1,4.48,4.48,0,0,0,1.78.3h4.2V113.7Zm-1.16,0h-1.46a2.77,2.77,0,0,1-1.18-.2,1.13,1.13,0,0,1-.62-.65,4.13,4.13,0,0,1,0-2.46,1.16,1.16,0,0,1,.61-.66,2.64,2.64,0,0,1,1.15-.2,11.65,11.65,0,0,1,1.56.08Z" transform="translate(-7.85 -76.79)"/><polygon class="cls-1" points="140.63 31.85 139.47 31.85 139.47 36.95 137.63 36.95 137.63 38 140.63 38 140.63 31.85"/><rect class="cls-1" x="142.66" y="29.24" width="1.17" height="8.76"/><rect class="cls-1" x="99.88" y="0.07" width="2.43" height="2.67"/><rect class="cls-1" x="115.01" y="0.07" width="2.43" height="2.67"/><path class="cls-1" d="M11.51,91.09h7.35L20,95.35h2.51L17.8,77.15H12.56l-4.7,18.2h2.51Zm3-11.8h1.35l2.48,9.52H12Z" transform="translate(-7.85 -76.79)"/><polygon class="cls-1" points="28.55 2.58 28.55 0.36 17.43 0.36 17.43 18.56 19.98 18.56 19.98 11.37 27.14 11.37 27.14 9.14 19.98 9.14 19.98 2.58 28.55 2.58"/><path class="cls-1" d="M54.05,86a11.91,11.91,0,0,0-3-1.06,21.29,21.29,0,0,1-2.73-.78A3.11,3.11,0,0,1,47,83.26a2.49,2.49,0,0,1-.41-1.54q0-2.64,3.63-2.64a51.14,51.14,0,0,1,5.24.42l.21-2.06c-1.38-.23-2.48-.39-3.32-.48A18.38,18.38,0,0,0,50,76.81a6.67,6.67,0,0,0-4.45,1.27,4.66,4.66,0,0,0-1.51,3.8,5.11,5.11,0,0,0,.56,2.57,4.17,4.17,0,0,0,1.75,1.6,15.54,15.54,0,0,0,3.33,1.12,14.11,14.11,0,0,1,2.26.64,2.2,2.2,0,0,1,1.55,2.32q0,3.25-3.57,3.25a49.46,49.46,0,0,1-5.45-.47l-.27,2,1,.16a32.43,32.43,0,0,0,4.92.5,6.27,6.27,0,0,0,4.43-1.43,5.61,5.61,0,0,0,1.52-4.23,5.07,5.07,0,0,0-.49-2.43A3.59,3.59,0,0,0,54.05,86" transform="translate(-7.85 -76.79)"/><path class="cls-1" d="M64.18,81.81a5,5,0,0,0-4.32,1.81c-.93,1.18-1.4,3-1.39,5.46a7.85,7.85,0,0,0,1.29,5c.86,1.06,2.31,1.57,4.34,1.57a33.66,33.66,0,0,0,5-.53l0-1.9-.74.08c-.55,0-1.17.09-1.85.11s-1.31,0-1.86,0a5.66,5.66,0,0,1-2.16-.34A2.12,2.12,0,0,1,61.32,92,5.77,5.77,0,0,1,61,89.74h8.44l.16-1.8c0-4.13-1.77-6.13-5.37-6.13m-3.22,6a4.75,4.75,0,0,1,.79-3,3,3,0,0,1,2.43-.94,2.63,2.63,0,0,1,2.27.9,5.28,5.28,0,0,1,.67,3Z" transform="translate(-7.85 -76.79)"/><path class="cls-1" d="M78.07,93.42A4.64,4.64,0,0,1,75.86,93a2.42,2.42,0,0,1-1.08-1.43,9.68,9.68,0,0,1-.3-2.78,10.16,10.16,0,0,1,.3-2.86,2.19,2.19,0,0,1,1.08-1.42A4.27,4.27,0,0,1,78,84.05c.61,0,1.67.07,3.17.21l.08-2c-1-.2-1.77-.33-2.36-.39a13.39,13.39,0,0,0-1.67-.06c-2,0-3.4.6-4.16,1.81a9.4,9.4,0,0,0-1.15,5.09,12.32,12.32,0,0,0,.51,4,4,4,0,0,0,1.7,2.23,6.18,6.18,0,0,0,3.13.71,26.91,26.91,0,0,0,4-.45l-.08-2Z" transform="translate(-7.85 -76.79)"/><path class="cls-1" d="M84,82.12V89a15.5,15.5,0,0,0,.37,3.9A3.47,3.47,0,0,0,85.67,95a4.68,4.68,0,0,0,2.64.65,7.18,7.18,0,0,0,2-.26,10.85,10.85,0,0,0,2-.9v.87h2.46V82.12H92.26V92.6a14.68,14.68,0,0,1-1.68.61,6.69,6.69,0,0,1-1.66.21,2.85,2.85,0,0,1-1.57-.37,2,2,0,0,1-.7-1.29A13.94,13.94,0,0,1,86.46,89V82.12Z" transform="translate(-7.85 -76.79)"/><path class="cls-1" d="M105.51,84.32V81.81a13.11,13.11,0,0,0-4.65,2V82.16H98.42V95.39h2.44V85.94l.63-.29a15.34,15.34,0,0,1,1.85-.71,15.86,15.86,0,0,1,2.15-.58" transform="translate(-7.85 -76.79)"/><rect class="cls-1" x="99.88" y="5.33" width="2.46" height="13.23"/><path class="cls-1" d="M120.51,93.31l-2.25.13a1.34,1.34,0,0,1-1.53-1.12h0a.43.43,0,0,1,0-.16,14.48,14.48,0,0,1-.09-1.86V84.24h3.89V82.12h-3.89V78.18h-2.48v3.94h-1.77v2.12h1.77v6.51a9.71,9.71,0,0,0,.34,2.93,2.49,2.49,0,0,0,1.13,1.51,4.52,4.52,0,0,0,2.18.45,21.21,21.21,0,0,0,2.86-.32Z" transform="translate(-7.85 -76.79)"/><rect class="cls-1" x="115.01" y="5.33" width="2.46" height="13.23"/><path class="cls-1" d="M138.77,93.21l-.74.08c-.55,0-1.17.09-1.86.11s-1.3,0-1.85,0a5.71,5.71,0,0,1-2.17-.34A2.13,2.13,0,0,1,131,91.94a5.77,5.77,0,0,1-.37-2.21h8.44l.16-1.8c0-4.12-1.8-6.12-5.41-6.12a5.08,5.08,0,0,0-4.3,1.78,8.86,8.86,0,0,0-1.39,5.47,7.86,7.86,0,0,0,1.3,5c.86,1,2.31,1.57,4.34,1.57a33.66,33.66,0,0,0,5-.53Zm-7.33-8.4a3,3,0,0,1,2.42-.92,2.6,2.6,0,0,1,2.26.9,5.32,5.32,0,0,1,.68,3h-6.17a4.76,4.76,0,0,1,.8-3" transform="translate(-7.85 -76.79)"/><path class="cls-1" d="M151.24,89.4a2.69,2.69,0,0,0-1.32-1.13,11.13,11.13,0,0,0-2.45-.67l-.74-.14c-.52-.09-1-.2-1.55-.34a2.13,2.13,0,0,1-.88-.49,1.25,1.25,0,0,1-.35-.94c0-1.09.9-1.64,2.7-1.64a31.69,31.69,0,0,1,4.55.43V82.41l-.76-.16a24.41,24.41,0,0,0-4-.39c-3.35,0-5,1.36-5,4.1a3.36,3.36,0,0,0,.48,2A2.92,2.92,0,0,0,143.28,89a11.49,11.49,0,0,0,2.39.61l.64.1a15,15,0,0,1,1.59.33,2.21,2.21,0,0,1,.91.53,1.38,1.38,0,0,1,.36,1.05,1.52,1.52,0,0,1-.72,1.37,4.31,4.31,0,0,1-2.11.43,38.81,38.81,0,0,1-4.58-.45l-.11,2.11.8.14a24.34,24.34,0,0,0,4,.42,6.31,6.31,0,0,0,3.92-1,4.72,4.72,0,0,0,.83-5.21" transform="translate(-7.85 -76.79)"/></g></g></svg>