<?xml version="1.0" encoding="utf-8"?>
<!-- Generator: Adobe Illustrator 24.1.1, SVG Export Plug-In . SVG Version: 6.00 Build 0)  -->
<svg version="1.0" id="_x3C_Layer_x3E_" xmlns="http://www.w3.org/2000/svg" xmlns:xlink="http://www.w3.org/1999/xlink" x="0px"
	 y="0px" viewBox="0 0 3116 1640" style="enable-background:new 0 0 3116 1640;" xml:space="preserve">
<style type="text/css">
	.st0{fill:#EBF3FA;}
	.st1{fill:#FFB93E;}
	.st2{fill:#FFA412;}
	.st3{fill:#82B378;}
	.st4{fill:#E2810E;}
	.st5{fill:#FFB27D;}
	.st6{fill:#ED975D;}
	.st7{fill:#A9453D;}
	.st8{fill:#2C3A64;}
	.st9{fill:#2B478B;}
	.st10{fill:#233862;}
	.st11{fill:#1E3D70;}
	.st12{fill:#2A4E96;}
	.st13{opacity:0.2;fill:#ED9F4A;}
	.st14{opacity:0.6;fill:#ED9F4A;}
	.st15{fill:#F9DDBF;}
	.st16{fill:#F1A34F;}
	.st17{fill:#E5C1A1;}
	.st18{opacity:0.5;fill:#E2810E;}
	.st19{fill:#ED985F;}
	.st20{fill:#ED7D2B;}
	.st21{fill:#F99746;}
	.st22{fill:#2E3552;}
</style>
<g>
	<path class="st0" d="M571.64,1499.97c0,0-301.29-323.49-50.95-673.72c222.12-310.74,481.08-289.5,671.08-163.4
		c80.92,53.71,314.23,6.62,512.81-309.57c270.8-431.2,1209.51-169.68,1038.36,493.74c-82.83,321.05,252.08,332.72,81.43,653.63
		L571.64,1499.97z"/>
	<g>
		<path class="st1" d="M1995.69,1154.94l23.11,3.8c1.84,0.3,3.47,1.08,4.75,2.15c1.35,1.13,2.32,2.6,2.73,4.21
			c0.13,0.49,0.21,0.99,0.22,1.5c0.02,0.46-0.01,0.93-0.08,1.4l-53.17,322.25c-0.69,4.15-5.01,6.96-9.73,6.4
			c-0.15-0.02-0.31-0.04-0.46-0.07l-23.11-3.8c-0.15-0.03-0.3-0.05-0.46-0.08c-4.65-0.98-7.85-5.02-7.16-9.18l53.17-322.25
			c0.08-0.47,0.2-0.92,0.37-1.35c0.18-0.47,0.41-0.93,0.69-1.35c0.91-1.39,2.29-2.47,3.94-3.11
			C1992.06,1154.85,1993.85,1154.64,1995.69,1154.94z"/>
		<path class="st2" d="M2001.6,1318.45l-28.49,172.64c-0.61,3.71-4.88,6.14-9.6,5.56c-0.15-0.02-0.31-0.04-0.46-0.07l-23.11-3.8
			c-0.15-0.03-0.3-0.05-0.46-0.08c-4.66-0.96-7.91-4.63-7.3-8.34l24.99-151.44C1969.62,1332.48,1987.21,1329.59,2001.6,1318.45z"/>
		<g>
			
				<rect x="1998.62" y="1177.15" transform="matrix(0.1631 -0.9866 0.9866 0.1631 492.4249 2976.259)" class="st2" width="3.71" height="41.47"/>
			
				<rect x="1996.57" y="1189.55" transform="matrix(0.1626 -0.9867 0.9867 0.1626 479.3298 2985.3438)" class="st2" width="3.71" height="41.47"/>
			
				<rect x="1994.12" y="1204.41" transform="matrix(0.1629 -0.9866 0.9866 0.1629 462.1056 2994.9392)" class="st2" width="3.71" height="41.47"/>
			
				<rect x="1990.36" y="1227.2" transform="matrix(0.1628 -0.9867 0.9867 0.1628 436.598 3010.4163)" class="st2" width="3.71" height="41.47"/>
			
				<rect x="1986.38" y="1251.3" transform="matrix(0.1628 -0.9867 0.9867 0.1628 409.4464 3026.6255)" class="st2" width="3.71" height="41.47"/>
			
				<rect x="1980.29" y="1288.24" transform="matrix(0.1626 -0.9867 0.9867 0.1626 368.2801 3051.8977)" class="st2" width="3.71" height="41.47"/>
			
				<rect x="1974.58" y="1322.83" transform="matrix(0.1631 -0.9866 0.9866 0.1631 328.5661 3074.4641)" class="st2" width="3.71" height="41.47"/>
			
				<rect x="1969.48" y="1353.72" transform="matrix(0.1628 -0.9867 0.9867 0.1628 294.2925 3095.7395)" class="st2" width="3.71" height="41.47"/>
			
				<rect x="2000.56" y="1165.35" transform="matrix(0.1626 -0.9867 0.9867 0.1626 506.5198 2968.9932)" class="st2" width="3.71" height="41.47"/>
			
				<rect x="2001.85" y="1157.55" transform="matrix(0.1628 -0.9867 0.9867 0.1628 514.8931 2963.4036)" class="st2" width="3.71" height="41.47"/>
			
				<rect x="2003.09" y="1150.02" transform="matrix(0.1626 -0.9867 0.9867 0.1626 523.7577 2958.655)" class="st2" width="3.71" height="41.47"/>
			<path class="st2" d="M1985.12,1163.56l40.92,6.73l0.38-2.29c0.08-0.47,0.1-0.94,0.08-1.4l-40.64-6.68
				c-0.17,0.43-0.29,0.88-0.37,1.35L1985.12,1163.56z"/>
			<path class="st2" d="M1986.56,1158.57l39.72,6.53c-0.41-1.6-1.38-3.07-2.73-4.21l-33.06-5.44
				C1988.85,1156.1,1987.46,1157.18,1986.56,1158.57z"/>
		</g>
	</g>
	<g>
		<path class="st1" d="M2037.61,1154.94l23.11,3.8c1.84,0.3,3.47,1.08,4.75,2.15c1.35,1.13,2.32,2.6,2.73,4.21
			c0.13,0.49,0.2,0.99,0.22,1.5c0.02,0.46-0.01,0.93-0.08,1.4l-53.17,322.25c-0.69,4.15-5.01,6.96-9.73,6.4
			c-0.15-0.02-0.31-0.04-0.46-0.07l-23.11-3.8c-0.15-0.03-0.3-0.05-0.46-0.08c-4.65-0.98-7.85-5.02-7.16-9.18l53.17-322.25
			c0.08-0.47,0.2-0.92,0.37-1.35c0.18-0.47,0.41-0.93,0.69-1.35c0.91-1.39,2.29-2.47,3.94-3.11
			C2033.98,1154.85,2035.77,1154.64,2037.61,1154.94z"/>
		<path class="st2" d="M2043.52,1318.45l-28.49,172.64c-0.61,3.71-4.88,6.14-9.6,5.56c-0.15-0.02-0.31-0.04-0.46-0.07l-23.11-3.8
			c-0.15-0.03-0.3-0.05-0.46-0.08c-4.66-0.96-7.91-4.63-7.3-8.34l24.99-151.44C2011.55,1332.48,2029.14,1329.59,2043.52,1318.45z"/>
		<g>
			
				<rect x="2040.54" y="1177.15" transform="matrix(0.1631 -0.9866 0.9866 0.1631 527.5142 3017.6235)" class="st2" width="3.71" height="41.47"/>
			
				<rect x="2038.5" y="1189.55" transform="matrix(0.1626 -0.9867 0.9867 0.1626 514.4873 3026.7522)" class="st2" width="3.71" height="41.47"/>
			
				<rect x="2036.04" y="1204.41" transform="matrix(0.1629 -0.9866 0.9866 0.1629 497.2029 3036.3049)" class="st2" width="3.71" height="41.47"/>
			
				<rect x="2032.28" y="1227.2" transform="matrix(0.1628 -0.9867 0.9867 0.1628 471.6505 3051.7412)" class="st2" width="3.71" height="41.47"/>
			
				<rect x="2028.31" y="1251.3" transform="matrix(0.1628 -0.9867 0.9867 0.1628 444.5458 3067.9917)" class="st2" width="3.71" height="41.47"/>
			
				<rect x="2022.21" y="1288.24" transform="matrix(0.1629 -0.9866 0.9866 0.1629 402.914 3092.834)" class="st2" width="3.71" height="41.47"/>
			
				<rect x="2016.5" y="1322.83" transform="matrix(0.1628 -0.9867 0.9867 0.1628 364.0789 3116.2239)" class="st2" width="3.71" height="41.47"/>
			
				<rect x="2011.41" y="1353.72" transform="matrix(0.1628 -0.9867 0.9867 0.1628 329.3463 3137.0615)" class="st2" width="3.71" height="41.47"/>
			
				<rect x="2042.49" y="1165.35" transform="matrix(0.1629 -0.9866 0.9866 0.1629 541.1432 3009.9612)" class="st2" width="3.71" height="41.47"/>
			
				<rect x="2043.77" y="1157.55" transform="matrix(0.1626 -0.9867 0.9867 0.1626 550.4777 3005.167)" class="st2" width="3.71" height="41.47"/>
			
				<rect x="2045.02" y="1150.02" transform="matrix(0.1626 -0.9867 0.9867 0.1626 558.866 3000.0225)" class="st2" width="3.71" height="41.47"/>
			<path class="st2" d="M2027.04,1163.56l40.92,6.73l0.38-2.29c0.08-0.47,0.1-0.94,0.08-1.4l-40.64-6.68
				c-0.17,0.43-0.29,0.88-0.37,1.35L2027.04,1163.56z"/>
			<path class="st2" d="M2028.48,1158.57l39.72,6.53c-0.41-1.6-1.38-3.07-2.73-4.21l-33.06-5.44
				C2030.78,1156.1,2029.39,1157.18,2028.48,1158.57z"/>
		</g>
	</g>
	<g>
		<g>
			<path class="st1" d="M1884.29,1464.31l-0.04,23.42c0,1.87-0.5,3.6-1.36,5.04c-0.9,1.51-2.2,2.7-3.71,3.37
				c-0.46,0.21-0.95,0.36-1.45,0.46c-0.45,0.09-0.92,0.14-1.39,0.14l-326.61-0.78c-4.21-0.01-7.67-3.83-7.88-8.58
				c0-0.16-0.01-0.31-0.01-0.46l0.04-23.42c0-0.15,0-0.31,0.01-0.46c0.22-4.75,3.7-8.55,7.91-8.54l326.61,0.78
				c0.47,0,0.94,0.05,1.39,0.15c0.5,0.1,0.98,0.26,1.45,0.47c1.51,0.67,2.81,1.87,3.7,3.39
				C1883.8,1460.71,1884.29,1462.44,1884.29,1464.31z"/>
			<path class="st2" d="M1723.85,1496.38l-174.98-0.42c-3.76-0.01-6.85-3.83-7.03-8.58c0-0.16-0.01-0.31-0.01-0.46l0.04-23.42
				c0-0.15,0-0.31,0.01-0.46c0.2-4.75,3.3-8.55,7.06-8.54l153.49,0.36C1704.86,1467.07,1710.55,1483.97,1723.85,1496.38z"/>
			<g>
				
					<rect x="1821.93" y="1474.07" transform="matrix(2.370747e-03 -1 1 2.370747e-03 362.3801 3315.0869)" class="st2" width="41.47" height="3.71"/>
				
					<rect x="1809.37" y="1474.04" transform="matrix(2.370747e-03 -1 1 2.370747e-03 349.8741 3302.4917)" class="st2" width="41.47" height="3.71"/>
				
					<rect x="1794.3" y="1474" transform="matrix(2.640148e-03 -1 1 2.640148e-03 334.3893 3286.989)" class="st2" width="41.47" height="3.71"/>
				
					<rect x="1771.2" y="1473.95" transform="matrix(2.343807e-03 -1 1 2.343807e-03 311.9392 3264.2771)" class="st2" width="41.47" height="3.71"/>
				
					<rect x="1746.78" y="1473.89" transform="matrix(2.370747e-03 -1 1 2.370747e-03 287.5833 3239.7561)" class="st2" width="41.47" height="3.71"/>
				
					<rect x="1709.34" y="1473.8" transform="matrix(2.370747e-03 -1 1 2.370747e-03 250.3185 3202.2251)" class="st2" width="41.47" height="3.71"/>
				
					<rect x="1674.28" y="1473.72" transform="matrix(2.370108e-03 -1 1 2.370108e-03 215.4285 3167.0862)" class="st2" width="41.47" height="3.71"/>
				
					<rect x="1642.97" y="1473.64" transform="matrix(2.613208e-03 -1 1 2.613208e-03 183.8697 3135.3484)" class="st2" width="41.47" height="3.71"/>
				
					<rect x="1833.89" y="1474.1" transform="matrix(2.370108e-03 -1 1 2.370108e-03 374.2846 3327.0771)" class="st2" width="41.47" height="3.71"/>
				
					<rect x="1841.79" y="1474.11" transform="matrix(2.101345e-03 -1 1 2.101345e-03 382.6486 3335.395)" class="st2" width="41.47" height="3.71"/>
				
					<rect x="1849.42" y="1474.13" transform="matrix(2.370747e-03 -1 1 2.370747e-03 389.7418 3342.6443)" class="st2" width="41.47" height="3.71"/>
				<path class="st2" d="M1874.08,1455.26l-0.08,41.47l2.32,0.01c0.48,0,0.94-0.05,1.39-0.14l0.08-41.18
					c-0.45-0.1-0.92-0.15-1.39-0.15L1874.08,1455.26z"/>
				<path class="st2" d="M1879.24,1455.88l-0.07,40.26c1.52-0.67,2.81-1.85,3.71-3.37l0.06-33.5
					C1882.05,1457.75,1880.75,1456.55,1879.24,1455.88z"/>
			</g>
		</g>
		<g>
			<path class="st1" d="M1849.44,1422.75l-0.04,23.42c0,1.87-0.5,3.6-1.36,5.04c-0.9,1.51-2.2,2.7-3.71,3.37
				c-0.46,0.21-0.95,0.36-1.45,0.46c-0.45,0.09-0.92,0.14-1.39,0.14l-326.61-0.78c-4.21-0.01-7.67-3.83-7.88-8.58
				c0-0.16-0.01-0.31-0.01-0.46l0.04-23.42c0-0.15,0-0.31,0.01-0.46c0.22-4.75,3.7-8.55,7.91-8.54l326.61,0.78
				c0.21,0,0.42,0.01,0.62,0.03c0.09,0,0.18,0.01,0.27,0.03c0.1,0.01,0.2,0.03,0.29,0.04c0.07,0.01,0.14,0.03,0.21,0.04
				c0.5,0.1,0.98,0.26,1.44,0.47c0.07,0.03,0.14,0.06,0.21,0.1c0.07,0.03,0.14,0.06,0.2,0.1c0.13,0.07,0.27,0.15,0.4,0.22
				c0.07,0.05,0.15,0.1,0.23,0.15c0.07,0.04,0.13,0.08,0.2,0.14c0.13,0.08,0.25,0.17,0.37,0.27c0.14,0.11,0.27,0.23,0.41,0.35
				c0.1,0.09,0.21,0.19,0.31,0.29c0,0,0.01,0.01,0.02,0.02c0.07,0.07,0.13,0.14,0.2,0.21c0.2,0.21,0.39,0.44,0.57,0.67
				c0.06,0.07,0.11,0.14,0.16,0.21c0.05,0.07,0.1,0.14,0.15,0.22c0.1,0.15,0.2,0.3,0.29,0.46
				C1848.95,1419.16,1849.45,1420.89,1849.44,1422.75z"/>
			<path class="st2" d="M1689,1454.82l-174.98-0.42c-3.76-0.01-6.85-3.83-7.03-8.58c0-0.16-0.01-0.31-0.01-0.46l0.04-23.42
				c0-0.15,0-0.31,0.01-0.46c0.2-4.75,3.3-8.55,7.06-8.55l153.48,0.37c0.07,0.34,0.14,0.68,0.21,1.02
				C1670.34,1426.44,1676.06,1442.75,1689,1454.82z"/>
			<g>
				
					<rect x="1787.09" y="1432.51" transform="matrix(2.343175e-03 -1 1 2.343175e-03 369.2245 3238.8223)" class="st2" width="41.47" height="3.71"/>
				
					<rect x="1774.52" y="1432.48" transform="matrix(2.343807e-03 -1 1 2.343807e-03 356.7175 3226.2263)" class="st2" width="41.47" height="3.71"/>
				
					<rect x="1759.45" y="1432.44" transform="matrix(2.370747e-03 -1 1 2.370747e-03 341.6727 3211.0837)" class="st2" width="41.47" height="3.71"/>
				
					<rect x="1736.36" y="1432.39" transform="matrix(2.370747e-03 -1 1 2.370747e-03 318.6854 3187.9331)" class="st2" width="41.47" height="3.71"/>
				
					<rect x="1711.93" y="1432.33" transform="matrix(2.100779e-03 -1 1 2.100779e-03 294.8448 3163.8403)" class="st2" width="41.47" height="3.71"/>
				
					<rect x="1674.49" y="1432.24" transform="matrix(2.613912e-03 -1 1 2.613912e-03 256.7025 3125.571)" class="st2" width="41.47" height="3.71"/>
				
					<rect x="1639.43" y="1432.16" transform="matrix(2.370747e-03 -1 1 2.370747e-03 222.2231 3090.7808)" class="st2" width="41.47" height="3.71"/>
				
					<rect x="1608.13" y="1432.08" transform="matrix(2.100779e-03 -1 1 2.100779e-03 191.5058 3059.7908)" class="st2" width="41.47" height="3.71"/>
				
					<rect x="1799.05" y="1432.54" transform="matrix(2.343807e-03 -1 1 2.343807e-03 381.1275 3250.8108)" class="st2" width="41.47" height="3.71"/>
				
					<rect x="1806.95" y="1432.56" transform="matrix(2.371386e-03 -1 1 2.371386e-03 388.9417 3258.6914)" class="st2" width="41.47" height="3.71"/>
				
					<rect x="1814.58" y="1432.58" transform="matrix(2.370747e-03 -1 1 2.370747e-03 396.5364 3266.3408)" class="st2" width="41.47" height="3.71"/>
				<path class="st2" d="M1839.24,1413.7l-0.08,41.47l2.32,0c0.48,0,0.94-0.05,1.39-0.14l0.08-41.18c-0.45-0.1-0.92-0.15-1.39-0.15
					L1839.24,1413.7z"/>
				<path class="st2" d="M1844.4,1414.32l-0.07,40.25c1.52-0.67,2.81-1.85,3.71-3.37l0.06-33.5
					C1847.2,1416.19,1845.91,1415,1844.4,1414.32z"/>
			</g>
		</g>
		<path class="st1" d="M1866.39,1382.34l-0.04,23.42c0,1.87-0.5,3.6-1.36,5.04c-0.9,1.51-2.2,2.71-3.71,3.37
			c-0.46,0.21-0.95,0.36-1.45,0.46c-0.46,0.09-0.92,0.14-1.39,0.14l-326.61-0.78c-1.31,0-2.55-0.38-3.64-1.03
			c-2.31-1.39-3.96-4.05-4.21-7.15c-0.01-0.13-0.02-0.27-0.03-0.4c0-0.15-0.01-0.31-0.01-0.46l0.04-23.42c0-0.15,0-0.31,0.01-0.46
			c0.22-4.75,3.7-8.55,7.91-8.54l326.61,0.77c0.48,0,0.94,0.05,1.39,0.15c0.5,0.1,0.98,0.26,1.45,0.47c1.51,0.67,2.8,1.87,3.7,3.39
			C1865.9,1378.75,1866.39,1380.48,1866.39,1382.34z"/>
		<path class="st2" d="M1705.95,1414.41l-174.98-0.42c-1.17,0-2.28-0.38-3.25-1.03c-2.06-1.39-3.53-4.04-3.76-7.14
			c-0.01-0.13-0.02-0.27-0.03-0.4c0-0.15-0.01-0.31-0.01-0.46l0.04-23.42c0-0.15,0-0.31,0.01-0.46c0.2-4.75,3.3-8.55,7.06-8.54
			l153.49,0.36c2.36,11.88,7.8,28.19,20.34,40.5C1705.23,1413.73,1705.59,1414.07,1705.95,1414.41z"/>
		<path class="st1" d="M1874.29,1340.89l-0.04,23.42c0,1.87-0.5,3.6-1.36,5.04c-0.9,1.51-2.2,2.71-3.71,3.37
			c-0.46,0.21-0.95,0.36-1.45,0.46c-0.46,0.09-0.92,0.14-1.39,0.14l-326.61-0.78c-4.21-0.01-7.67-3.83-7.88-8.58
			c0-0.16-0.01-0.31-0.01-0.46l0.04-23.42c0-0.15,0-0.31,0.01-0.46c0.2-4.4,3.19-7.98,6.97-8.48c0.31-0.04,0.62-0.06,0.94-0.06
			l326.61,0.78c0.48,0,0.94,0.05,1.39,0.15c0.5,0.1,0.98,0.26,1.45,0.47c1.51,0.67,2.81,1.87,3.7,3.39
			C1873.8,1337.29,1874.29,1339.02,1874.29,1340.89z"/>
		<path class="st2" d="M1713.85,1372.96l-174.98-0.42c-3.76-0.01-6.85-3.83-7.03-8.58c0-0.16-0.01-0.31-0.01-0.46l0.04-23.42
			c0-0.15,0-0.31,0.01-0.46c0.18-4.39,2.85-7.98,6.23-8.48c0.27-0.04,0.55-0.06,0.83-0.06l153.49,0.36c0,0.02,0.01,0.05,0.01,0.07
			C1694.89,1343.7,1700.57,1360.56,1713.85,1372.96z"/>
		<path class="st1" d="M1850.35,1299.42l-0.04,23.42c0,1.87-0.5,3.6-1.36,5.04c-0.9,1.51-2.2,2.7-3.71,3.37
			c-0.46,0.21-0.95,0.36-1.45,0.46c-0.15,0.03-0.31,0.06-0.46,0.08c-0.08,0.01-0.17,0.02-0.26,0.03c-0.08,0.01-0.17,0.02-0.26,0.02
			c-0.14,0.01-0.28,0.01-0.42,0.01l-326.61-0.78c-4.21-0.01-7.67-3.83-7.88-8.58c0-0.15-0.01-0.31-0.01-0.46l0.04-23.42
			c0-0.16,0-0.31,0.01-0.46c0-0.13,0.01-0.25,0.02-0.38c0.32-3.82,2.76-6.97,5.94-7.89c0.08-0.03,0.16-0.04,0.24-0.07
			c0.55-0.14,1.12-0.21,1.71-0.21l326.61,0.78c0.24,0,0.48,0.02,0.71,0.04c0.11,0.02,0.21,0.03,0.32,0.04h0
			c0.12,0.02,0.24,0.05,0.37,0.07c0.5,0.1,0.98,0.26,1.45,0.47c1.51,0.67,2.81,1.87,3.7,3.39
			C1849.86,1295.82,1850.36,1297.56,1850.35,1299.42z"/>
		<path class="st2" d="M1689.91,1331.49l-174.98-0.42c-3.76-0.01-6.85-3.83-7.03-8.58c0-0.15-0.01-0.31-0.01-0.46l0.04-23.42
			c0-0.16,0-0.31,0.01-0.46c0-0.13,0.01-0.25,0.02-0.38c0.29-3.91,2.56-7.1,5.49-7.95c0.1-0.04,0.2-0.06,0.3-0.08
			c0.41-0.09,0.82-0.14,1.25-0.14l153.49,0.36c0.02,0.1,0.04,0.19,0.06,0.29c2.46,12.17,8.14,28.86,21.28,41.17
			C1689.86,1331.44,1689.89,1331.47,1689.91,1331.49z"/>
		<path class="st1" d="M1849.74,1258.24l-0.04,23.42c0,1.87-0.5,3.6-1.36,5.04c-0.9,1.52-2.2,2.7-3.72,3.37
			c-0.36,0.16-0.74,0.29-1.13,0.39h-0.01c-0.11,0.03-0.21,0.05-0.31,0.07c-0.45,0.09-0.92,0.14-1.39,0.14l-326.61-0.77
			c-0.34,0-0.69-0.03-1.02-0.08c-0.13-0.01-0.26-0.04-0.39-0.07c-3.55-0.74-6.29-4.22-6.47-8.43c0-0.16-0.01-0.31-0.01-0.46
			l0.04-23.42c0-0.16,0-0.31,0.01-0.46c0.22-4.75,3.7-8.55,7.91-8.54l326.61,0.78c0.21,0,0.42,0.01,0.62,0.03
			c0.09,0.01,0.18,0.02,0.27,0.03c0.1,0.01,0.2,0.03,0.29,0.05c0.07,0.01,0.14,0.03,0.21,0.04c0.5,0.1,0.98,0.26,1.45,0.47
			c0.07,0.03,0.13,0.06,0.21,0.1c0.07,0.03,0.13,0.06,0.2,0.1c0.13,0.07,0.27,0.15,0.4,0.22c0.14,0.09,0.29,0.18,0.43,0.28
			c0.13,0.09,0.25,0.18,0.37,0.27c0.14,0.11,0.27,0.23,0.4,0.35c0.11,0.09,0.21,0.18,0.31,0.29c0,0,0.01,0.01,0.02,0.02
			c0.07,0.06,0.14,0.14,0.2,0.21c0.2,0.21,0.39,0.44,0.57,0.67c0.06,0.07,0.11,0.14,0.16,0.21c0.05,0.08,0.1,0.14,0.15,0.22
			c0.1,0.15,0.2,0.3,0.29,0.46C1849.25,1254.64,1849.75,1256.38,1849.74,1258.24z"/>
		<path class="st2" d="M1689.3,1290.31l-174.98-0.42c-0.14,0-0.28-0.01-0.42-0.02c-0.15-0.01-0.3-0.03-0.45-0.06
			c-3.36-0.54-6-4.13-6.17-8.51c0-0.16-0.01-0.31-0.01-0.46l0.04-23.42c0-0.16,0-0.31,0.01-0.46c0.2-4.75,3.3-8.55,7.06-8.55
			l153.48,0.36c0.07,0.34,0.14,0.68,0.21,1.02c2.52,12.02,8.17,28.17,20.89,40.21C1689.09,1290.11,1689.2,1290.21,1689.3,1290.31z"
			/>
		<path class="st1" d="M1866.69,1217.83l-0.04,23.42c0,1.87-0.5,3.6-1.36,5.04c-0.9,1.51-2.2,2.7-3.71,3.37
			c-0.46,0.21-0.95,0.36-1.45,0.46c-0.45,0.09-0.92,0.14-1.39,0.14l-326.61-0.78c-1.31,0-2.55-0.38-3.64-1.03
			c-2.31-1.39-3.95-4.05-4.21-7.15c-0.01-0.13-0.02-0.27-0.03-0.4c0-0.15-0.01-0.31-0.01-0.46l0.04-23.42
			c0-0.15,0.01-0.31,0.01-0.46c0.22-4.75,3.7-8.55,7.91-8.54l326.61,0.77c0.48,0,0.94,0.05,1.39,0.15c0.5,0.1,0.98,0.26,1.45,0.47
			c1.51,0.67,2.81,1.87,3.7,3.39C1866.2,1214.23,1866.69,1215.97,1866.69,1217.83z"/>
		<path class="st2" d="M1706.25,1249.9l-174.98-0.41c-1.17,0-2.27-0.38-3.25-1.03c-2.06-1.39-3.53-4.04-3.76-7.14
			c-0.01-0.13-0.02-0.27-0.03-0.4c0-0.15-0.01-0.31-0.01-0.46l0.04-23.42c0-0.15,0.01-0.31,0.01-0.46c0.2-4.75,3.31-8.55,7.06-8.55
			l153.49,0.36c2.36,11.88,7.8,28.2,20.34,40.5C1705.53,1249.22,1705.89,1249.56,1706.25,1249.9z"/>
		<path class="st1" d="M1893.46,1176.42l-0.04,23.42c0,1.87-0.5,3.6-1.36,5.04c-0.9,1.51-2.2,2.7-3.71,3.37
			c-0.46,0.21-0.95,0.36-1.45,0.46c-0.45,0.09-0.92,0.14-1.39,0.14l-326.61-0.78c-4.21-0.01-7.67-3.83-7.88-8.58
			c0-0.15-0.01-0.31-0.01-0.46l0.04-23.42c0-0.15,0-0.31,0.01-0.46c0.2-4.39,3.19-7.98,6.97-8.48c0.31-0.04,0.62-0.06,0.93-0.06
			l326.61,0.78c0.48,0,0.94,0.05,1.39,0.15c0.5,0.1,0.98,0.26,1.44,0.47c1.51,0.67,2.81,1.87,3.7,3.39
			C1892.96,1172.82,1893.46,1174.56,1893.46,1176.42z"/>
		<path class="st2" d="M1733.02,1208.49l-174.98-0.42c-3.76-0.01-6.85-3.83-7.03-8.58c0-0.15-0.01-0.31-0.01-0.46l0.04-23.42
			c0-0.15,0-0.31,0.01-0.46c0.18-4.39,2.85-7.98,6.23-8.48c0.27-0.04,0.55-0.06,0.83-0.06l153.49,0.36c0,0.02,0.01,0.04,0.01,0.07
			C1714.05,1179.24,1719.74,1196.1,1733.02,1208.49z"/>
		<path class="st1" d="M1850.65,1134.91l-0.04,23.42c0,1.87-0.5,3.6-1.36,5.04c-0.9,1.51-2.2,2.7-3.71,3.37
			c-0.46,0.21-0.95,0.36-1.45,0.46c-0.15,0.03-0.31,0.06-0.46,0.08c-0.12,0.02-0.25,0.03-0.37,0.04c-0.06,0-0.12,0.01-0.18,0.02
			c-0.13,0-0.25,0.01-0.38,0.01l-326.61-0.78c-4.21-0.01-7.67-3.83-7.88-8.58c0-0.15-0.01-0.31-0.01-0.46l0.04-23.42
			c0-0.15,0.01-0.31,0.01-0.46c0.22-4.75,3.7-8.55,7.91-8.54l326.61,0.78c0.14,0,0.28,0,0.42,0.02c0.33,0.02,0.66,0.07,0.97,0.13
			c0.5,0.1,0.98,0.26,1.45,0.47c0.24,0.11,0.47,0.22,0.68,0.35c0.14,0.08,0.28,0.16,0.41,0.25c0.01,0,0.03,0.01,0.04,0.03
			c0.13,0.09,0.27,0.19,0.4,0.29c0.03,0.01,0.05,0.03,0.07,0.05c0.12,0.09,0.24,0.19,0.35,0.29c0.28,0.24,0.54,0.5,0.79,0.79
			c0.08,0.08,0.15,0.17,0.22,0.26c0.01,0.01,0.03,0.03,0.04,0.05c0.05,0.05,0.09,0.11,0.14,0.17c0.01,0.01,0.02,0.02,0.03,0.04
			c0.08,0.1,0.16,0.21,0.23,0.33c0.11,0.16,0.21,0.32,0.31,0.49C1850.16,1131.31,1850.66,1133.04,1850.65,1134.91z"/>
		<path class="st2" d="M1690.21,1166.98l-174.98-0.42c-3.76-0.01-6.85-3.83-7.03-8.58c0-0.15-0.01-0.31-0.01-0.46l0.04-23.42
			c0-0.15,0.01-0.31,0.01-0.46c0.2-4.75,3.31-8.55,7.06-8.55l153.49,0.37c0.06,0.31,0.13,0.63,0.2,0.96
			c2.52,12.11,8.23,28.42,21.14,40.5C1690.16,1166.93,1690.19,1166.96,1690.21,1166.98z"/>
		<path class="st1" d="M1874.74,1094.45l-0.04,23.42c0,1.87-0.5,3.6-1.36,5.04c-0.9,1.51-2.2,2.7-3.71,3.37
			c-0.46,0.21-0.95,0.36-1.45,0.46c-0.46,0.09-0.92,0.14-1.39,0.14l-326.61-0.78c-1.27,0-2.47-0.35-3.53-0.97
			c-2.38-1.37-4.08-4.08-4.33-7.25c-0.01-0.12-0.02-0.24-0.02-0.37c0-0.15-0.01-0.31-0.01-0.46l0.04-23.42c0-0.16,0-0.31,0.01-0.46
			c0.2-4.4,3.19-7.98,6.97-8.48c0.31-0.04,0.62-0.06,0.94-0.06l326.61,0.78c0.48,0,0.94,0.05,1.39,0.15c0.5,0.1,0.98,0.26,1.45,0.47
			c1.51,0.67,2.8,1.87,3.7,3.39C1874.25,1090.85,1874.74,1092.59,1874.74,1094.45z"/>
		<path class="st2" d="M1714.3,1126.52l-174.98-0.42c-1.13,0-2.2-0.35-3.15-0.97c-2.12-1.37-3.64-4.08-3.86-7.24
			c-0.01-0.12-0.02-0.24-0.02-0.37c0-0.15-0.01-0.31-0.01-0.46l0.04-23.42c0-0.16,0-0.31,0.01-0.46c0.18-4.39,2.85-7.98,6.23-8.48
			c0.27-0.04,0.55-0.06,0.83-0.06l153.49,0.36c0,0.02,0.01,0.04,0.01,0.07c2.37,11.9,7.83,28.21,20.4,40.5
			C1713.62,1125.88,1713.96,1126.2,1714.3,1126.52z"/>
		<path class="st1" d="M1850.8,1052.99l-0.04,23.42c0,1.87-0.5,3.6-1.36,5.04c-0.9,1.52-2.2,2.71-3.71,3.37
			c-0.46,0.21-0.95,0.36-1.45,0.46c-0.15,0.03-0.31,0.06-0.46,0.08c-0.08,0.01-0.17,0.02-0.26,0.03c-0.08,0.01-0.17,0.01-0.26,0.02
			c-0.14,0.01-0.28,0.01-0.42,0.01l-326.61-0.78c-4.21-0.01-7.67-3.83-7.88-8.58c0-0.16-0.01-0.31-0.01-0.46l0.04-23.42
			c0-0.15,0-0.31,0.01-0.46c0.22-4.75,3.7-8.55,7.91-8.54l326.61,0.78c0.48,0,0.94,0.05,1.39,0.15c0.5,0.1,0.98,0.26,1.45,0.47
			c1.51,0.67,2.81,1.87,3.7,3.39C1850.31,1049.39,1850.8,1051.12,1850.8,1052.99z"/>
		<path class="st2" d="M1690.36,1085.05l-174.98-0.41c-3.76-0.01-6.85-3.83-7.03-8.58c0-0.16-0.01-0.31-0.01-0.46l0.04-23.42
			c0-0.15,0-0.31,0.01-0.46c0.2-4.75,3.3-8.55,7.06-8.54l153.49,0.36c2.42,12.2,8.09,29.05,21.34,41.46
			C1690.31,1085.01,1690.34,1085.03,1690.36,1085.05z"/>
		<g>
			
				<rect x="1804.03" y="1392.1" transform="matrix(2.371322e-03 -1 1 2.371322e-03 426.4926 3215.4172)" class="st2" width="41.47" height="3.71"/>
			
				<rect x="1791.47" y="1392.07" transform="matrix(2.101345e-03 -1 1 2.101345e-03 414.4761 3203.1992)" class="st2" width="41.47" height="3.71"/>
			
				<rect x="1776.4" y="1392.03" transform="matrix(2.128285e-03 -1 1 2.128285e-03 399.4265 3188.0583)" class="st2" width="41.47" height="3.71"/>
			
				<rect x="1753.31" y="1391.98" transform="matrix(2.370683e-03 -1 1 2.370683e-03 376.0051 3164.5676)" class="st2" width="41.47" height="3.71"/>
			
				<rect x="1728.88" y="1391.92" transform="matrix(2.370108e-03 -1 1 2.370108e-03 351.6983 3140.0876)" class="st2" width="41.47" height="3.71"/>
			
				<rect x="1691.44" y="1391.83" transform="matrix(2.371322e-03 -1 1 2.371322e-03 314.4315 3102.5549)" class="st2" width="41.47" height="3.71"/>
			
				<rect x="1656.38" y="1391.75" transform="matrix(2.101345e-03 -1 1 2.101345e-03 279.9927 3067.792)" class="st2" width="41.47" height="3.71"/>
			
				<rect x="1625.08" y="1391.68" transform="matrix(2.370747e-03 -1 1 2.370747e-03 248.3867 3036.0378)" class="st2" width="41.47" height="3.71"/>
			
				<rect x="1816" y="1392.13" transform="matrix(2.370747e-03 -1 1 2.370747e-03 438.3979 3227.4063)" class="st2" width="41.47" height="3.71"/>
			
				<rect x="1823.9" y="1392.15" transform="matrix(2.101345e-03 -1 1 2.101345e-03 446.7581 3235.7039)" class="st2" width="41.47" height="3.71"/>
			
				<rect x="1831.53" y="1392.16" transform="matrix(2.370747e-03 -1 1 2.370747e-03 453.8562 3242.9749)" class="st2" width="41.47" height="3.71"/>
			<path class="st2" d="M1856.19,1373.29l-0.07,41.47l2.32,0.01c0.48,0,0.94-0.05,1.39-0.14l0.08-41.18
				c-0.45-0.1-0.92-0.15-1.39-0.15L1856.19,1373.29z"/>
			<path class="st2" d="M1861.34,1373.91l-0.07,40.26c1.52-0.67,2.81-1.85,3.71-3.37l0.06-33.5
				C1864.15,1375.78,1862.86,1374.58,1861.34,1373.91z"/>
			
				<rect x="1699.34" y="1350.38" transform="matrix(2.370747e-03 -1 1 2.370747e-03 363.7688 3069.0962)" class="st2" width="41.47" height="3.71"/>
			
				<rect x="1664.28" y="1350.29" transform="matrix(2.343807e-03 -1 1 2.343807e-03 328.9236 3033.9927)" class="st2" width="41.47" height="3.71"/>
			
				<rect x="1632.98" y="1350.22" transform="matrix(2.370108e-03 -1 1 2.370108e-03 297.7231 3002.5801)" class="st2" width="41.47" height="3.71"/>
			<path class="st2" d="M1846.45,1373.27l0.08-41.47l-3.26-0.01c0.17-0.02,0.35-0.04,0.52-0.08l0.08-41.18
				c-0.23-0.05-0.46-0.08-0.69-0.11l0.07-40.19l1.45,0l-0.07,39.84c1.52-0.67,2.81-1.85,3.71-3.37l0.06-33.5
				c-0.74-1.25-1.76-2.27-2.94-2.97l1.3,0l0.08-41.47l-3.71-0.01l-0.07,40.56c-0.39-0.07-0.78-0.11-1.19-0.11l-2.32-0.01
				l-0.08,41.47l0.69,0l-0.08,41.18l2.32,0.01c0.14,0,0.28-0.01,0.42-0.02l-0.08,41.43L1846.45,1373.27z"/>
			
				<rect x="1831.8" y="1350.69" transform="matrix(2.370108e-03 -1 1 2.370108e-03 495.5988 3201.8687)" class="st2" width="41.47" height="3.71"/>
			
				<rect x="1839.43" y="1350.71" transform="matrix(2.613138e-03 -1 1 2.613138e-03 502.7413 3209.187)" class="st2" width="41.47" height="3.71"/>
			<path class="st2" d="M1864.08,1331.84l-0.08,41.47l2.32,0.01c0.48,0,0.94-0.05,1.39-0.14l0.07-41.18
				c-0.45-0.1-0.92-0.15-1.39-0.15L1864.08,1331.84z"/>
			<path class="st2" d="M1869.24,1332.46l-0.07,40.26c1.52-0.67,2.81-1.85,3.71-3.37l0.06-33.5
				C1872.05,1334.33,1870.76,1333.13,1869.24,1332.46z"/>
			<polygon class="st2" points="1810.55,1331.78 1810.63,1290.3 1809.94,1290.3 1810.02,1249.12 1806.3,1249.11 1806.23,1290.59 
				1806.91,1290.59 1806.84,1331.7 1803.22,1331.69 1803.14,1373.17 1806.86,1373.17 1806.93,1331.77 			"/>
			<polygon class="st2" points="1782.99,1290.24 1782.31,1290.23 1782.38,1249.06 1778.67,1249.05 1778.6,1290.52 1779.28,1290.52 
				1779.21,1331.7 1780.12,1331.7 1780.05,1373.11 1783.76,1373.12 1783.83,1331.65 1782.92,1331.64 			"/>
			<path class="st2" d="M1845.31,1290.99l-0.07,40.26c1.52-0.67,2.81-1.86,3.71-3.37l0.06-33.5
				C1848.11,1292.86,1846.82,1291.66,1845.31,1290.99z"/>
			<polygon class="st2" points="1759.29,1249 1755.57,1248.99 1755.5,1290.47 1756.19,1290.47 1756.11,1331.58 1755.7,1331.58 
				1755.62,1373.05 1759.34,1373.06 1759.41,1331.65 1759.82,1331.66 1759.9,1290.18 1759.21,1290.18 			"/>
			<polygon class="st2" points="1734.86,1248.95 1731.15,1248.94 1731.07,1290.41 1731.76,1290.41 1731.69,1331.59 1735.4,1331.6 
				1735.47,1290.12 1734.79,1290.12 			"/>
			<polygon class="st2" points="1697.42,1248.86 1693.71,1248.85 1693.63,1290.32 1694.32,1290.32 1694.24,1331.5 1697.96,1331.51 
				1698.03,1290.03 1697.35,1290.03 			"/>
			<polygon class="st2" points="1662.36,1248.77 1658.65,1248.76 1658.58,1290.24 1659.26,1290.24 1659.19,1331.42 1662.9,1331.42 
				1662.98,1289.95 1662.29,1289.95 			"/>
			<polygon class="st2" points="1631.06,1248.7 1627.35,1248.69 1627.27,1290.16 1627.96,1290.16 1627.88,1331.34 1631.6,1331.35 
				1631.67,1289.88 1630.98,1289.88 			"/>
			<polygon class="st2" points="1821.98,1249.15 1818.26,1249.14 1818.19,1290.62 1818.88,1290.62 1818.8,1331.73 1818.29,1331.73 
				1818.21,1373.2 1821.92,1373.21 1822,1331.8 1822.51,1331.8 1822.59,1290.33 1821.9,1290.33 			"/>
			<polygon class="st2" points="1829.88,1249.17 1826.89,1249.16 1826.96,1208.71 1823.25,1208.7 1823.18,1250.18 1826.16,1250.18 
				1826.09,1290.63 1826.78,1290.64 1826.7,1331.81 1830.41,1331.82 1830.49,1290.35 1829.8,1290.35 			"/>
			
				<rect x="1791.77" y="1227.56" transform="matrix(2.370747e-03 -1 1 2.370747e-03 578.7966 3039.0015)" class="st2" width="41.47" height="3.71"/>
			<polygon class="st2" points="1795.55,1249.09 1793.74,1249.08 1793.66,1290.56 1794.35,1290.56 1794.27,1331.74 1797.99,1331.75 
				1798.06,1290.27 1797.38,1290.27 1797.45,1250.12 1799.26,1250.12 1799.33,1208.65 1795.62,1208.64 			"/>
			
				<rect x="1753.6" y="1227.47" transform="matrix(2.640148e-03 -1 1 2.640148e-03 540.3362 3000.4146)" class="st2" width="41.47" height="3.71"/>
			
				<rect x="1729.18" y="1227.41" transform="matrix(2.370108e-03 -1 1 2.370108e-03 516.507 2976.2668)" class="st2" width="41.47" height="3.71"/>
			
				<rect x="1691.74" y="1227.32" transform="matrix(2.343744e-03 -1 1 2.343744e-03 479.2873 2938.7678)" class="st2" width="41.47" height="3.71"/>
			
				<rect x="1656.68" y="1227.24" transform="matrix(2.128285e-03 -1 1 2.128285e-03 444.7566 2903.8936)" class="st2" width="41.47" height="3.71"/>
			
				<rect x="1625.38" y="1227.16" transform="matrix(2.370108e-03 -1 1 2.370108e-03 413.1961 2872.2175)" class="st2" width="41.47" height="3.71"/>
			<polygon class="st2" points="1835.14,1249.18 1833.8,1249.18 1833.72,1290.65 1834.41,1290.65 1834.33,1331.77 1830.85,1331.76 
				1830.78,1373.23 1834.49,1373.24 1834.56,1331.83 1838.04,1331.84 1838.12,1290.37 1837.43,1290.37 1837.51,1250.21 
				1838.85,1250.21 1838.93,1208.74 1835.21,1208.73 			"/>
			
				<rect x="1831.83" y="1227.65" transform="matrix(2.370747e-03 -1 1 2.370747e-03 618.6643 3079.1543)" class="st2" width="41.47" height="3.71"/>
			<path class="st2" d="M1860.12,1250.12l0.08-41.18c-0.46-0.1-0.92-0.15-1.39-0.15l-2.32-0.01l-0.08,41.47l2.32,0.01
				C1859.21,1250.26,1859.67,1250.21,1860.12,1250.12z"/>
			<path class="st2" d="M1865.28,1246.29l0.06-33.5c-0.9-1.52-2.19-2.71-3.7-3.39l-0.07,40.26
				C1863.09,1248.99,1864.38,1247.8,1865.28,1246.29z"/>
			
				<rect x="1831.1" y="1186.18" transform="matrix(2.370683e-03 -1 1 2.370683e-03 659.4168 3037.0503)" class="st2" width="41.47" height="3.71"/>
			
				<rect x="1780.37" y="1186.06" transform="matrix(2.370747e-03 -1 1 2.370747e-03 608.9283 2986.2004)" class="st2" width="41.47" height="3.71"/>
			
				<rect x="1755.95" y="1186" transform="matrix(2.370108e-03 -1 1 2.370108e-03 584.6218 2961.72)" class="st2" width="41.47" height="3.71"/>
			
				<rect x="1718.51" y="1185.91" transform="matrix(2.371322e-03 -1 1 2.371322e-03 547.355 2924.1877)" class="st2" width="41.47" height="3.71"/>
			
				<rect x="1683.45" y="1185.83" transform="matrix(2.370747e-03 -1 1 2.370747e-03 512.465 2889.0486)" class="st2" width="41.47" height="3.71"/>
			
				<rect x="1652.14" y="1185.75" transform="matrix(2.101345e-03 -1 1 2.101345e-03 481.7596 2857.9915)" class="st2" width="41.47" height="3.71"/>
			
				<rect x="1843.06" y="1186.21" transform="matrix(2.370108e-03 -1 1 2.370108e-03 671.3221 3049.04)" class="st2" width="41.47" height="3.71"/>
			
				<rect x="1850.96" y="1186.23" transform="matrix(2.370747e-03 -1 1 2.370747e-03 679.1852 3056.96)" class="st2" width="41.47" height="3.71"/>
			
				<rect x="1858.59" y="1186.24" transform="matrix(2.344438e-03 -1 1 2.344438e-03 686.8286 3064.6389)" class="st2" width="41.47" height="3.71"/>
			<path class="st2" d="M1883.25,1167.37l-0.07,41.47l2.32,0.01c0.48,0,0.94-0.05,1.39-0.14l0.08-41.18
				c-0.45-0.09-0.92-0.15-1.39-0.15L1883.25,1167.37z"/>
			<path class="st2" d="M1888.41,1167.99l-0.07,40.26c1.52-0.67,2.81-1.86,3.71-3.37l0.06-33.5
				C1891.22,1169.86,1889.92,1168.66,1888.41,1167.99z"/>
			<polygon class="st2" points="1807.14,1167.26 1810.85,1167.27 1810.93,1125.79 1807.31,1125.78 1807.38,1085.33 1811,1085.34 
				1811.08,1043.87 1807.36,1043.86 1807.29,1085.27 1803.67,1085.26 1803.59,1126.73 1807.21,1126.74 			"/>
			
				<rect x="1775.73" y="1144.64" transform="matrix(2.640148e-03 -1 1 2.640148e-03 645.2346 2939.928)" class="st2" width="41.47" height="3.71"/>
			
				<rect x="1713.14" y="1144.49" transform="matrix(2.370683e-03 -1 1 2.370683e-03 583.4268 2877.5029)" class="st2" width="41.47" height="3.71"/>
			
				<rect x="1675.7" y="1144.4" transform="matrix(2.343807e-03 -1 1 2.343807e-03 546.2076 2840.0029)" class="st2" width="41.47" height="3.71"/>
			
				<rect x="1640.64" y="1144.32" transform="matrix(2.370747e-03 -1 1 2.370747e-03 511.2716 2804.8318)" class="st2" width="41.47" height="3.71"/>
			
				<rect x="1609.34" y="1144.24" transform="matrix(2.343175e-03 -1 1 2.343175e-03 480.161 2773.4851)" class="st2" width="41.47" height="3.71"/>
			<polygon class="st2" points="1819.1,1167.28 1822.39,1167.29 1822.31,1208.7 1826.02,1208.71 1826.1,1167.24 1822.81,1167.23 
				1822.89,1125.82 1822.37,1125.82 1822.45,1085.37 1822.96,1085.37 1823.04,1043.9 1819.32,1043.89 1819.25,1085.29 
				1818.74,1085.29 1818.66,1126.77 1819.17,1126.77 			"/>
			
				<rect x="1808.16" y="1144.72" transform="matrix(1.834899e-03 -1 1 1.834899e-03 678.9705 2973.3596)" class="st2" width="41.47" height="3.71"/>
			<path class="st2" d="M1846.24,1126.83l0.65,0l0.08-41.47l-3.26-0.01c0.17-0.02,0.35-0.04,0.52-0.08l0.08-41.18
				c-0.45-0.1-0.92-0.15-1.39-0.15l-2.32-0.01l-0.08,41.47l2.32,0c0.14,0,0.28-0.01,0.42-0.02l-0.07,40.5
				c-0.14-0.01-0.28-0.02-0.42-0.02l-2.32,0l-0.08,41.41l-2.03,0l0.08-41.41l-3.48-0.01l0.07-40.45l3.48,0.01l0.08-41.47l-3.71-0.01
				l-0.08,41.41l-3.48-0.01l-0.08,41.47l3.48,0.01l-0.07,40.52l2.82,0.01l-0.08,41.41l3.71,0.01l0.08-41.41l1.52,0
				c0.48,0,0.94-0.05,1.39-0.14l0.07-40.37l1.45,0l-0.07,39.91c1.52-0.66,2.81-1.85,3.71-3.37l0.06-33.5
				C1848.54,1128.57,1847.48,1127.53,1846.24,1126.83z"/>
			
				<rect x="1699.79" y="1103.94" transform="matrix(2.101911e-03 -1 1 2.101911e-03 611.1125 2823.9922)" class="st2" width="41.47" height="3.71"/>
			
				<rect x="1664.73" y="1103.86" transform="matrix(2.370747e-03 -1 1 2.370747e-03 575.7599 2788.5542)" class="st2" width="41.47" height="3.71"/>
			
				<rect x="1633.43" y="1103.78" transform="matrix(2.370108e-03 -1 1 2.370108e-03 544.6052 2757.1768)" class="st2" width="41.47" height="3.71"/>
			
				<rect x="1832.24" y="1104.26" transform="matrix(2.343807e-03 -1 1 2.343807e-03 742.53 2956.4951)" class="st2" width="41.47" height="3.71"/>
			
				<rect x="1839.87" y="1104.27" transform="matrix(2.370747e-03 -1 1 2.370747e-03 750.0737 2964.1133)" class="st2" width="41.47" height="3.71"/>
			<path class="st2" d="M1864.53,1085.4l-0.08,41.47l2.32,0c0.48,0,0.94-0.05,1.39-0.14l0.07-41.18c-0.45-0.1-0.92-0.15-1.39-0.15
				L1864.53,1085.4z"/>
			<path class="st2" d="M1873.33,1122.91l0.06-33.5c-0.9-1.52-2.19-2.71-3.7-3.39l-0.07,40.26
				C1871.13,1125.61,1872.43,1124.42,1873.33,1122.91z"/>
			
				<rect x="1775.88" y="1062.71" transform="matrix(2.370683e-03 -1 1 2.370683e-03 727.7913 2858.657)" class="st2" width="41.47" height="3.71"/>
			<polygon class="st2" points="1783.44,1043.8 1779.73,1043.79 1779.65,1085.27 1780.57,1085.27 1780.5,1125.72 1779.58,1125.72 
				1779.51,1167.19 1783.22,1167.2 1783.29,1126.68 1784.21,1126.68 1784.28,1085.21 1783.37,1085.21 			"/>
			<polygon class="st2" points="1756.56,1085.15 1756.15,1085.14 1756.07,1126.62 1756.48,1126.62 1756.41,1167.14 1760.12,1167.14 
				1760.2,1125.67 1759.79,1125.67 1759.86,1085.22 1760.27,1085.22 1760.35,1043.75 1756.63,1043.74 			"/>
			
				<rect x="1713.29" y="1062.56" transform="matrix(2.370747e-03 -1 1 2.370747e-03 665.5004 2795.9211)" class="st2" width="41.47" height="3.71"/>
			
				<rect x="1675.85" y="1062.48" transform="matrix(2.370747e-03 -1 1 2.370747e-03 628.2361 2758.3904)" class="st2" width="41.47" height="3.71"/>
			
				<rect x="1640.79" y="1062.39" transform="matrix(2.612574e-03 -1 1 2.612574e-03 592.9437 2722.9919)" class="st2" width="41.47" height="3.71"/>
			
				<rect x="1609.49" y="1062.32" transform="matrix(2.100779e-03 -1 1 2.100779e-03 562.6297 2692.1602)" class="st2" width="41.47" height="3.71"/>
			
				<rect x="1808.31" y="1062.79" transform="matrix(2.640148e-03 -1 1 2.640148e-03 759.5736 2890.873)" class="st2" width="41.47" height="3.71"/>
			<path class="st2" d="M1845.75,1044.56l-0.07,40.26c1.52-0.67,2.81-1.85,3.71-3.37l0.06-33.5
				C1848.56,1046.42,1847.27,1045.23,1845.75,1044.56z"/>
		</g>
	</g>
	<g>
		<path class="st1" d="M1954.58,1155.13l23.06,4.09c1.84,0.33,3.46,1.12,4.72,2.21c1.34,1.15,2.28,2.63,2.68,4.24
			c0.13,0.49,0.19,1,0.2,1.5c0.01,0.46-0.02,0.93-0.1,1.4l-57.29,321.54c-0.74,4.15-5.1,6.89-9.81,6.27
			c-0.15-0.02-0.31-0.04-0.46-0.07l-23.06-4.1c-0.15-0.03-0.3-0.06-0.46-0.09c-4.64-1.04-7.78-5.12-7.05-9.27l57.29-321.54
			c0.04-0.21,0.08-0.41,0.14-0.61c0.02-0.09,0.05-0.17,0.08-0.26c0.03-0.09,0.06-0.19,0.1-0.28c0.02-0.07,0.05-0.13,0.08-0.2
			c0.19-0.47,0.42-0.92,0.71-1.34c0.04-0.06,0.08-0.12,0.13-0.19c0.04-0.06,0.09-0.12,0.13-0.18c0.09-0.12,0.19-0.24,0.29-0.35
			c0.06-0.07,0.12-0.13,0.18-0.2c0.06-0.06,0.11-0.12,0.17-0.17c0.11-0.11,0.22-0.21,0.33-0.32c0.13-0.12,0.27-0.23,0.41-0.34
			c0.11-0.09,0.22-0.17,0.33-0.25c0.01,0,0.01-0.01,0.02-0.01c0.08-0.05,0.16-0.11,0.24-0.16c0.24-0.16,0.5-0.31,0.76-0.45
			c0.08-0.04,0.16-0.08,0.23-0.12c0.08-0.04,0.16-0.07,0.24-0.11c0.17-0.07,0.33-0.14,0.5-0.21
			C1950.95,1154.99,1952.74,1154.8,1954.58,1155.13z"/>
		<path class="st2" d="M1958.39,1318.7l-30.69,172.26c-0.66,3.7-4.96,6.08-9.67,5.44c-0.15-0.02-0.31-0.04-0.46-0.07l-23.06-4.1
			c-0.15-0.03-0.3-0.06-0.46-0.09c-4.64-1.02-7.85-4.73-7.19-8.44l26.92-151.1c0.35-0.01,0.69-0.02,1.04-0.03
			C1927.21,1332.17,1944.27,1329.35,1958.39,1318.7z"/>
		<g>
			
				<rect x="1956.95" y="1177.39" transform="matrix(0.1757 -0.9844 0.9844 0.1757 435.1128 2915.9172)" class="st2" width="3.71" height="41.47"/>
			
				<rect x="1954.75" y="1189.76" transform="matrix(0.1752 -0.9845 0.9845 0.1752 421.9815 2924.7183)" class="st2" width="3.71" height="41.47"/>
			
				<rect x="1952.11" y="1204.6" transform="matrix(0.1754 -0.9845 0.9845 0.1754 404.8244 2934.0134)" class="st2" width="3.71" height="41.47"/>
			
				<rect x="1948.05" y="1227.34" transform="matrix(0.1754 -0.9845 0.9845 0.1754 379.0983 2948.7739)" class="st2" width="3.71" height="41.47"/>
			
				<rect x="1943.77" y="1251.38" transform="matrix(0.1752 -0.9845 0.9845 0.1752 352.2629 2964.7297)" class="st2" width="3.71" height="41.47"/>
			
				<rect x="1937.2" y="1288.24" transform="matrix(0.1755 -0.9845 0.9845 0.1755 310.1532 2988.2778)" class="st2" width="3.71" height="41.47"/>
			
				<rect x="1931.05" y="1322.76" transform="matrix(0.1752 -0.9845 0.9845 0.1752 271.5027 3011.0784)" class="st2" width="3.71" height="41.47"/>
			
				<rect x="1925.56" y="1353.58" transform="matrix(0.1757 -0.9844 0.9844 0.1757 235.8677 3030.3103)" class="st2" width="3.71" height="41.47"/>
			
				<rect x="1959.05" y="1165.62" transform="matrix(0.1754 -0.9845 0.9845 0.1754 448.9271 2908.7092)" class="st2" width="3.71" height="41.47"/>
			
				<rect x="1960.44" y="1157.84" transform="matrix(0.1755 -0.9845 0.9845 0.1755 457.6921 2903.6282)" class="st2" width="3.71" height="41.47"/>
			
				<rect x="1961.78" y="1150.33" transform="matrix(0.1754 -0.9845 0.9845 0.1754 466.2271 2898.7832)" class="st2" width="3.71" height="41.47"/>
			<path class="st2" d="M1943.89,1163.61l40.83,7.25l0.41-2.28c0.08-0.47,0.12-0.93,0.1-1.4l-40.55-7.2
				c-0.17,0.43-0.3,0.88-0.39,1.35L1943.89,1163.61z"/>
			<path class="st2" d="M1945.4,1158.64l39.64,7.04c-0.39-1.61-1.34-3.09-2.68-4.24l-32.98-5.86
				C1947.72,1156.2,1946.32,1157.26,1945.4,1158.64z"/>
		</g>
	</g>
	<path class="st3" d="M2732.99,1496.36h-140.35c-7.52-6.38,5.21-20.87,18.5-21.84c5.78-0.44,13.08,0.77,21.42,2.54
		c1.93-25.65,12.96-140.97,54.53-136.34c46.74,5.19,0,50.79-13.21,77.78c-9.79,20-20.11,48.67-24.83,62.2
		c3.79,0.82,7.72,1.63,11.73,2.37c6.2-19.02,29.25-83,58.56-79.28c34.42,4.37,20.58,30.02-3.81,45.25
		c-17.9,11.2-39.87,27.11-50.32,34.8c8.85,1.44,18.08,2.42,27.45,2.2C2716.7,1485.46,2728.44,1492.54,2732.99,1496.36z"/>
	<path class="st3" d="M902.95,1491.7c-5.57-8.76-22.35-31.48-44.69-28.48c-24.35,3.28,26.89,19.33,42.57,28.54
		c-3.48,0.05-6.48-0.23-8.68-1.01c-10.49-3.74-28.44,3.43-34.19,5.95h99.83c-0.69-2.39-2.49-6.29-7.14-9.13
		c-1.64-1-4.93-1.14-9.19-0.82c5.94-7,10.06-29.35-6.47-23.6c-12.07,4.2-12.04,17.86-10.85,25.94c-2.57,0.4-5.17,0.81-7.75,1.18
		c-4.97-25.33-22.55-99.57-58.18-101.55c-36.12-2.01,30.63,76.99,52.86,102.26C908.23,1491.32,905.49,1491.58,902.95,1491.7z"/>
	<g>
		
			<ellipse transform="matrix(0.7071 -0.7071 0.7071 0.7071 -12.427 1489.0162)" class="st4" cx="1791.19" cy="759.51" rx="143.76" ry="143.76"/>
		
			<ellipse transform="matrix(0.254 -0.9672 0.9672 0.254 587.5396 2292.9031)" class="st1" cx="1780.2" cy="765.56" rx="143.76" ry="143.76"/>
		<g>
			<path class="st2" d="M1781.25,898.01c-46.22,0-91.08-24.47-114.93-67.73c-16.89-30.64-20.84-66.02-11.11-99.63
				c9.72-33.61,31.95-61.42,62.59-78.31c30.64-16.89,66.02-20.84,99.63-11.12c33.61,9.72,61.42,31.95,78.31,62.59
				c34.87,63.25,11.78,143.07-51.47,177.94C1824.26,892.78,1802.61,898.01,1781.25,898.01z M1780.85,643.83
				c-20.52,0-40.82,5.18-59.28,15.36c-28.81,15.88-49.71,42.03-58.86,73.64c-9.14,31.6-5.43,64.88,10.45,93.69
				c22.42,40.67,64.62,63.69,108.07,63.69c20.09,0,40.45-4.92,59.25-15.28c59.48-32.79,81.19-107.85,48.4-167.32
				c-15.88-28.81-42.03-49.71-73.64-58.86C1803.91,645.45,1792.34,643.83,1780.85,643.83z"/>
		</g>
		<g>
			<path class="st2" d="M1815.17,791.64c-1.07-2.64-2.38-4.8-3.94-6.51c-1.56-1.71-3.51-3.03-5.86-3.98
				c-2.35-0.94-5.14-1.57-8.37-1.86c-3.23-0.3-7.03-0.32-11.42-0.08c-7.56,0.37-14.56,0.37-21,0.03c-6.44-0.35-12.25-1.4-17.46-3.17
				s-9.77-4.44-13.71-8.03c-3.94-3.59-7.15-8.46-9.65-14.61c-2.17-5.33-3.2-10.58-3.09-15.74c0.11-5.16,1.26-10.08,3.44-14.77
				c2.19-4.69,5.32-9.05,9.39-13.08c4.07-4.03,9.03-7.56,14.88-10.59l-8.18-20.14l16.21-6.58l8.29,20.42
				c6.11-1.6,12.01-2.21,17.68-1.81c5.67,0.4,10.91,1.78,15.73,4.14c4.81,2.36,9.14,5.7,12.98,10.03c3.84,4.33,7.04,9.63,9.58,15.9
				l-29.28,11.89c-3.06-7.53-7.02-12.48-11.88-14.86c-4.86-2.37-10.09-2.43-15.7-0.15c-3.04,1.23-5.49,2.72-7.34,4.46
				c-1.85,1.74-3.19,3.63-4.01,5.68c-0.82,2.05-1.16,4.22-1.02,6.5c0.14,2.28,0.68,4.58,1.62,6.91c0.94,2.32,2.13,4.29,3.57,5.89
				c1.44,1.61,3.31,2.88,5.62,3.81c2.3,0.93,5.11,1.54,8.42,1.84c3.31,0.3,7.3,0.38,11.96,0.24c7.54-0.21,14.53-0.12,20.94,0.27
				c6.41,0.39,12.23,1.49,17.44,3.28c5.21,1.79,9.79,4.49,13.73,8.08c3.94,3.59,7.14,8.43,9.61,14.52
				c2.24,5.52,3.29,10.87,3.15,16.04c-0.14,5.18-1.32,10.08-3.53,14.7c-2.21,4.63-5.41,8.92-9.58,12.88
				c-4.17,3.96-9.19,7.46-15.04,10.49l7.61,18.73l-16.11,6.54l-7.57-18.64c-5.84,1.71-11.75,2.69-17.75,2.93
				c-6,0.24-11.75-0.58-17.24-2.48c-5.49-1.9-10.55-5.05-15.17-9.46c-4.62-4.41-8.46-10.38-11.52-17.91l29.29-11.89
				c1.81,4.45,3.94,7.92,6.4,10.39c2.46,2.47,5.1,4.18,7.92,5.12c2.82,0.94,5.71,1.23,8.67,0.86c2.96-0.36,5.83-1.11,8.6-2.23
				c3.17-1.29,5.79-2.83,7.86-4.62c2.07-1.79,3.62-3.74,4.65-5.84c1.04-2.1,1.56-4.3,1.56-6.61
				C1816.58,796.27,1816.11,793.96,1815.17,791.64z"/>
		</g>
	</g>
	<g>
		<path class="st5" d="M1923.26,682.14c-6.01-4.25-19.65-13.59-20.36-11.51c-0.51,1.5,0.22,4.04,1.85,6.69
			c-8.25-3.08-16.63-5.1-36.43-1.3c-3.97,0.76-7.56,3.02-9.74,6.41c-2.02,3.14-2.77,7.08,2.28,10.22
			c10.11,6.29,7.18,2.52,21.23,11.67c14.05,9.15,31.25,11.49,41.52,5.07l13.79-2.3l1.71-22.68
			C1939.11,684.41,1931.25,683.47,1923.26,682.14z"/>
		<path class="st5" d="M2284.64,491.89c0,0-32.51,38.57-73.91,22.44c0,0-8.91-21.54-9.03-37.42c-0.01-1.96-0.04-3.85-0.07-5.65
			c-0.22-17.88-0.82-27.92-0.82-27.92s0.01,0,0.04-0.01c1.88-0.79,63.29-26,63.24-23.9
			C2263.03,467.79,2284.64,491.89,2284.64,491.89z"/>
		<path class="st6" d="M2257.91,430.96c-5.92,10.98-26.24,32.45-56.29,40.29c-0.22-17.88-0.82-27.92-0.82-27.92s0.01,0,0.04-0.01
			C2202.54,442.87,2259.68,427.72,2257.91,430.96z"/>
		<path class="st5" d="M2187.94,441.48c0,0,69.06,16.24,78.51-26.93c9.45-43.16,24.72-70.13-18.97-82.32
			c-43.69-12.19-55.89,2.4-62.55,16.04C2178.27,361.9,2170.22,436.14,2187.94,441.48z"/>
		<path class="st7" d="M2264.08,426.31c0.94,0.6,15.8,5.17,43.94-50.89c4.42-8.8,7.43-27.84-2.87-44.66
			c-10.3-16.82-46.81-30.05-77.15-35.8c-30.34-5.76-37.62,11.31-44.76,28.47c-7.5,18.01-29.16,32.83-29.16,32.83
			c26.16,14.61,57.67-6.29,68.58-2.85c10.92,3.44,14.77,20.64,15.59,26.15c0.82,5.51,2.08,10.1,15.8,5.17
			c13.73-4.92,6.21,19.45,4.01,24.11C2258.07,408.85,2256.21,421.27,2264.08,426.31z"/>
		<g>
			<path class="st8" d="M2441.98,1502.67h41.82c8.77,0,18.51-8.78,20.94-24.85c2.44-16.08,20.46-24.85,24.36-38
				c3.9-13.16-16.08-31.67-16.08-31.67l-3.34-4.29l-3.47-4.47l-33.12,7.79c0,0-0.82,7.89-1.33,17.93
				c-0.35,7.25-0.55,15.64-0.13,22.99c0.97,17.54-4.91,36.43-20.49,39.84C2435.53,1491.36,2441.98,1502.67,2441.98,1502.67z"/>
			<path class="st8" d="M2150.87,1502.67h110.84c1.06-0.21,1.87-0.44,2.35-0.68c7.4-3.71,5.08-32.04,4.19-40.79
				c-0.17-1.62-0.29-2.57-0.29-2.57s-38.98-31.17-44.34-7.3c-0.17,0.74-0.36,1.48-0.57,2.2v0.01
				c-6.77,22.33-37.01,32.48-54.48,35.31C2155.23,1491.01,2151.76,1498.79,2150.87,1502.67z"/>
			<path class="st9" d="M2173.22,863.48c0,0,5.92,73.85,12.88,162.63c9.46,120.59,20.83,268.72,21.95,296.79
				c1.95,48.73,9.75,126.67,9.75,126.67s18.5,18.52,55.54,10.71c0,0,33-111.27,42.43-229c0.15-1.93,0.29-3.87,0.44-5.82
				c8.77-119.85,22.41-372.22,22.41-372.22L2173.22,863.48z"/>
			<path class="st10" d="M2173.22,863.48c0,0,5.92,73.85,12.88,162.63l129.67,205.18c0.15-1.93,0.29-3.87,0.44-5.82
				c8.77-119.85,22.41-372.22,22.41-372.22L2173.22,863.48z"/>
			<path class="st9" d="M2200.25,872.25c0,0,106.69,267.47,176.85,393.16c70.16,125.69,92.08,160.77,92.08,160.77
				s40.19-16.08,43.85-27.04c0,0-26.83-242.66-73.81-301.81c-26.55-33.43-57.73-133.73-59.19-168.81
				c-1.46-35.08-9.5-104.5-9.5-104.5L2200.25,872.25z"/>
		</g>
		<g>
			<path class="st5" d="M2443.57,823.65l1.13,17.2c0,0-11.34,30.56,20.44,46.23c0,0,13.61,5.49,14.16-5.1
				c0.55-10.59-1.19-6.61-0.08-21.52c1.11-14.92-4.76-29.01-14.63-33.76l-8.1-9.34L2443.57,823.65z"/>
			<path class="st11" d="M2455.98,836.18c-11.81,3.79-13.7,2.93-13.7,2.93s-57.48-104.65-63.3-114.23
				c-5.82-9.58-122.04-117.35-122.04-117.35l29.87-111.37c0,0,132.18,171.17,146.46,195.73c23.59,40.59,37.41,134.85,37.41,134.85
				S2465.26,833.2,2455.98,836.18z"/>
		</g>
		<path class="st12" d="M2150.69,651.26c0.41,22.87,1.74,48.58,3.53,74.7c0.11,1.55,0.22,3.1,0.33,4.65
			c1.15,16.18,2.39,32.39,3.82,48.2c0.57,6.34,1.18,12.61,1.82,18.76l0.1,0.83c0.05,2.3,0.33,4.8,0.59,7.08
			c5.83,59.23,11.93,106.02,13.07,106.74c1.35,0.9,2.88,1.35,4.55,1.16c15.53-1.95,61.87,1.57,99.81-6.68
			c32.01-6.75,59.58-19.56,88.79-36.82c3.88-2.29,12.72-8.36,12-12.9c-0.71-4.99-2.01-12.19-3.67-21.25
			c-5.75-31.5-15.69-85.69-19.08-149.11c-0.66-11.81-1.62-23.48-2.87-34.95c-3.26-29.88-8.47-58.26-15.47-83.47
			c-13.01-46.84-32.12-82.71-56.1-96.74c-3.13-1.76-19.99,8.97-35.48,18.91c-14.3,9.17-29.36,11.7-44,10.42l-12.89,14.25
			c-15.6,18.14-32.22,42.29-36.76,76.62c-0.34,2.54-0.63,5.23-0.88,8.09C2150.64,613.73,2150.34,631.43,2150.69,651.26z"/>
		<path class="st11" d="M2150.69,651.26c0.41,22.87,1.74,48.58,3.53,74.7c0.11,1.55,0.22,3.1,0.33,4.65
			c88.72-55.53,102.38-157.15,102.38-157.15c-43.65,1.91-78.32,11.95-105.04,26.3C2150.64,613.73,2150.34,631.43,2150.69,651.26z"/>
		<path class="st12" d="M1926.54,695c-0.91-13.16,5.9-15.35,5.9-15.35s133.76-24.24,145.13-27.82
			c11.37-3.58,108.6-104.72,108.6-104.72s37.27-42.03,67.79-32.75c26.52,8.07,36.88,28.75,40.41,48.46
			c4.21,23.48-6.62,47.11-26.96,59.59c-45.65,28-137.03,83.16-158.56,89.47c-47.9,14.04-176.61,1.13-176.61,1.13
			S1927.25,705.33,1926.54,695z"/>
	</g>
	<path class="st13" d="M2083.93,951.92v497.2c0,29-23.73,52.74-52.73,52.74h-511.08c-4.43,0-8.75-0.55-12.88-1.57
		c-8.85-2.19-16.86-6.58-23.41-12.56c-4.68-4.27-8.6-9.35-11.55-15c-0.16-0.3-0.31-0.6-0.46-0.92c-3.06-6.15-4.98-12.96-5.47-20.14
		c-0.09-1.23-0.13-2.46-0.13-3.71V955.11c0-27.89,14.41-53.68,37.92-68.69c0,0,0.02-0.01,0.06-0.03
		c19.58-12.53,32.56-34.49,32.56-59.46c0-7.41-1.14-14.54-3.26-21.25h483.14c-2.12,6.71-3.26,13.84-3.26,21.25
		c0,23.95,11.93,45.11,30.17,57.86c0.01,0,0.01,0.01,0.02,0.01c1.22,0.85,2.46,1.66,3.73,2.43c0.01,0.01,0.01,0.01,0.01,0.01
		C2069.94,901,2083.93,925.42,2083.93,951.92z"/>
	<path class="st13" d="M2083.93,951.92v497.2c0,27.75-21.73,50.68-49.01,52.6c-1.23,0.09-2.47,0.13-3.72,0.13h-225.04
		c-29.65,0-53.9-24.26-53.9-53.9V955.11c0-27.89,14.41-53.68,37.92-68.69c19.62-12.52,32.63-34.49,32.63-59.5
		c0-7.41-1.14-14.54-3.26-21.25h197.09c-2.12,6.71-3.26,13.84-3.26,21.25c0,19.63,8.01,37.38,20.95,50.16
		c3.91,3.87,8.26,7.28,12.98,10.14C2069.94,901,2083.93,925.42,2083.93,951.92z"/>
	<path class="st14" d="M2043.55,884.78c-15.78-9.45-84.15-42.94-258-41.52c-199.14,1.63-278.91,41.88-281.35,43.13
		c19.58-12.53,32.56-34.49,32.56-59.46c0-7.41-1.14-14.54-3.26-21.25h483.14c-2.12,6.71-3.26,13.84-3.26,21.25
		C2013.38,850.86,2025.31,872.03,2043.55,884.78z"/>
	<path class="st9" d="M2027.59,802.19v22.55c0,2.23-1.81,4.04-4.03,4.04H1526.6c-2.23,0-4.04-1.81-4.04-4.04v-22.55
		c0-2.22,1.81-4.04,4.04-4.04h496.96C2025.77,798.15,2027.59,799.97,2027.59,802.19z"/>
	<path class="st10" d="M2027.59,802.19v22.55c0,2.23-1.81,4.04-4.03,4.04h-188.11c-2.22,0-4.04-1.81-4.04-4.04v-22.55
		c0-2.22,1.82-4.04,4.04-4.04h188.11C2025.77,798.15,2027.59,799.97,2027.59,802.19z"/>
	<g>
		<path class="st15" d="M1696.03,913.85c0,0-12.81,18.03-24.55,18.28c-11.74,0.25-29.61-8.36-29.61-8.36s-10.78-24.03-3.47-33.43
			c0,0,7.33-3.22,15,2.47c1.32,0.98,2.65,2.21,3.97,3.8c1.86,2.24,3.95,3.51,6.16,4.18c8.38,2.55,18.33-3.45,22.04,2.34
			c2.17,3.36,4.53,5.89,6.48,7.67C1694.35,912.85,1696.03,913.85,1696.03,913.85z"/>
		<path class="st15" d="M1529.04,1043.92c0,0,45.27-109.7,126.76-111.79c0,0,75.22,8.36,79.4,111.79H1529.04z"/>
		<path class="st16" d="M1633.48,935.48c0,0,32.66,7.26,42.74,2.99c0,0,1.52-13.66-12.23-11.74c-9.42,1.31-15.55-3.21-19.16-5.05
			C1639.73,919.09,1632.12,929.77,1633.48,935.48z"/>
		<path class="st17" d="M1661.9,914.9c-2.09,1.57-8.5-22.09-8.5-22.09c1.32,0.98,2.65,2.21,3.97,3.8c1.86,2.24,3.95,3.51,6.16,4.18
			C1663.55,901.48,1663.93,913.37,1661.9,914.9z"/>
		<path class="st17" d="M1692.05,910.8c-0.46,0.27-15.57,9.32-17.61,9.32c-2.09,0,11.14-16.99,11.14-16.99
			C1687.75,906.5,1690.11,909.02,1692.05,910.8z"/>
		<path class="st17" d="M1573.27,1013.28c-0.84-0.71,32.04-48.41,41.09-48.75c9.05-0.35,29.4,10.45,44.13,11.84
			c14.73,1.39,29.01-2.79,31.79,5.92c2.79,8.71,10.45,39.57,5.75,44.51C1691.32,1031.73,1591.34,1028.72,1573.27,1013.28z"/>
	</g>
	<g>
		<path class="st18" d="M1536.66,1464.29c-2.62,1.38-5.26,2.68-7.91,3.94c-2.53,1.46-5.1,2.9-7.72,4.27
			c-12.08,6.35-24.53,11.41-37.2,15.23c-4.68-4.27-8.6-9.35-11.55-15c-2.02,1.08-4.03,2.11-6.06,3.12V1100.7
			c9.31,1.24,18.53,3.1,27.56,5.54c50.68,13.7,95.81,45.94,123.26,93.37C1671.56,1293.84,1635.57,1412.34,1536.66,1464.29z"/>
		<g>
			<path class="st4" d="M1570.93,1184.84c-54.53-98.92-178.92-134.9-277.84-80.37c-98.92,54.53-134.9,178.92-80.38,277.84
				c54.53,98.92,178.92,134.9,277.84,80.38C1589.47,1408.15,1625.46,1283.76,1570.93,1184.84z"/>
			<path class="st1" d="M1482.61,1466.83c-2.52,1.54-5.08,3.02-7.69,4.46c-0.88,0.49-1.76,0.97-2.65,1.43
				c-2.02,1.08-4.03,2.11-6.06,3.12c-97.39,47.83-216.19,11.12-269.13-84.92c-50.5-91.61-23.36-205.07,59.51-264.65
				c6.61-4.75,13.56-9.16,20.87-13.19c2.62-1.45,5.27-2.83,7.92-4.14c2.58-1.29,5.18-2.51,7.79-3.67c8-3.57,16.14-6.58,24.36-9.04
				c12.21-3.68,24.61-6.16,37.03-7.47c38.53-4.08,77.29,2.96,111.65,19.77c36.47,17.83,68,46.67,89.09,84.92
				C1608.39,1289.77,1575.68,1410.22,1482.61,1466.83z"/>
			<g>
				<path class="st2" d="M1377.63,1480.72c-17.39,0-34.88-2.46-52.05-7.42c-47.81-13.83-87.38-45.45-111.4-89.04
					c-24.03-43.59-29.64-93.93-15.81-141.74c13.83-47.81,45.45-87.38,89.04-111.4c43.59-24.03,93.92-29.64,141.74-15.81
					c47.81,13.83,87.38,45.45,111.41,89.04s29.64,93.92,15.81,141.74c-13.83,47.81-45.45,87.38-89.04,111.4
					C1439.38,1472.89,1408.67,1480.72,1377.63,1480.72z M1223.91,1378.89c22.59,40.99,59.8,70.72,104.76,83.73
					c44.96,13.01,92.29,7.73,133.28-14.87c40.99-22.59,70.72-59.8,83.73-104.76c13.01-44.96,7.73-92.29-14.87-133.28
					s-59.8-70.72-104.76-83.73c-44.96-13-92.29-7.73-133.28,14.87c-40.99,22.59-70.72,59.8-83.73,104.76
					S1201.32,1337.9,1223.91,1378.89z"/>
			</g>
			<g>
				<path class="st2" d="M1467.49,1312.1c-0.4-1.01-0.83-1.98-1.27-2.94c-3.32-7.29-7.45-13.2-12.41-17.72
					c-5.6-5.11-12.11-8.94-19.53-11.49c-7.42-2.55-15.69-4.11-24.81-4.66c-9.13-0.56-19.06-0.69-29.8-0.39
					c-6.64,0.2-12.31,0.08-17.02-0.34c-4.7-0.43-8.7-1.3-11.98-2.62c-3.28-1.32-5.95-3.12-8-5.42c-2.05-2.28-3.74-5.08-5.08-8.38
					s-2.11-6.58-2.31-9.83c-0.2-3.24,0.29-6.32,1.45-9.25c1.17-2.91,3.07-5.61,5.7-8.08c2.63-2.48,6.11-4.59,10.43-6.35
					c7.98-3.24,15.43-3.17,22.34,0.21c6.91,3.38,12.54,10.43,16.89,21.14l41.67-16.92c-3.63-8.92-8.17-16.46-13.64-22.62
					c-5.46-6.15-11.62-10.9-18.47-14.26c-6.84-3.35-14.3-5.32-22.38-5.89c-8.06-0.57-16.45,0.29-25.15,2.57l-11.8-29.06l-23.06,9.36
					l11.63,28.66c-8.32,4.32-15.38,9.34-21.17,15.07c-5.79,5.74-10.24,11.94-13.35,18.6c-3.12,6.68-4.74,13.68-4.9,21.02
					c-0.15,7.34,1.31,14.81,4.39,22.39c3.55,8.75,8.13,15.68,13.73,20.79c5.6,5.11,12.1,8.92,19.5,11.42
					c7.4,2.51,15.67,4.01,24.83,4.5c9.16,0.5,19.12,0.49,29.88-0.03c6.24-0.35,11.66-0.32,16.25,0.11c4.59,0.42,8.56,1.3,11.91,2.65
					c3.34,1.35,6.12,3.23,8.34,5.66c2.22,2.43,4.09,5.52,5.61,9.26c1.34,3.31,2.01,6.59,1.99,9.88c-0.01,3.28-0.75,6.42-2.23,9.41
					c-1.47,2.99-3.68,5.76-6.62,8.31c-2.94,2.54-6.67,4.73-11.19,6.57c-3.94,1.6-8.01,2.65-12.23,3.17
					c-4.21,0.51-8.32,0.1-12.34-1.23c-4.01-1.34-7.77-3.76-11.26-7.28c-3.5-3.51-6.54-8.44-9.11-14.78l-41.66,16.92
					c4.34,10.71,9.81,19.21,16.39,25.47c6.58,6.27,13.77,10.77,21.58,13.46c7.82,2.7,15.99,3.89,24.53,3.54
					c8.53-0.34,16.96-1.73,25.26-4.17l10.76,26.52l22.92-9.31l-10.82-26.64c8.32-4.32,15.45-9.3,21.39-14.93
					c5.5-5.22,9.8-10.83,12.91-16.86c0.25-0.49,0.49-0.97,0.73-1.47c3.14-6.58,4.82-13.55,5.02-20.91
					C1472.17,1327.56,1470.68,1319.95,1467.49,1312.1z"/>
			</g>
		</g>
		<g>
			<path class="st8" d="M1224.24,572.17c0.62-2.51-54.47,24.9-57.27,28c-25.84,28.66-18.47,66.07-3.69,66.43
				c9.48,0.23,7.65,16,7.65,16l105.64-44.69C1276.57,637.91,1263.85,563.73,1224.24,572.17z"/>
			<path class="st8" d="M1237.24,577.96c0,0,3.78-41.15-42.21-41.15c0,0,13.93,3.78,21.14,11.34c0,0-29.33-17.22-61.24,9.24
				c-31.92,26.46-12.08,92.81-21.79,105.41c-9.7,12.6-47.5,15.12-42.88,55.85c4.62,40.73,119.95,91.75,112.54,125.46
				c0,0,45.2-66.44,12.88-96.76c0,0,15.75,14.84,17.36,32.48c0,0,4.28-34.44-17.64-45.45c-19.39-9.75-35.28-45.39-33.59-51.76
				C1183.49,676.23,1237.24,577.96,1237.24,577.96z"/>
			<path class="st19" d="M1195.49,771.57c-7.09-34.14-51.36-44.73-72.31-16.85c-3.77,5.01-6.42,10.94-7.28,17.94
				c-4.78,38.76,57.19,196.62,66.06,210.91c16.16,26.02,111.29,115.23,111.29,115.23l17.53-10.63c0,0-67.48-114.24-77.93-124.93
				C1220.78,950.88,1208.95,836.4,1195.49,771.57z"/>
			<path class="st19" d="M1286.59,1088.22c0,0,25.59-16.8,35.28-15.72c9.69,1.08,37.73,9.15,38.07,13.27
				c0.34,4.12-31.24,6.69-33.36,8.95c-2.12,2.25-23.57,16.57-31.34,12.08C1287.46,1102.31,1286.59,1088.22,1286.59,1088.22z"/>
			<path class="st9" d="M1108.09,1467.82l-22.86-3.36c0,0-76.87-61.08-88.31-175.07c-1.17-11.6-1.41-23.37-0.55-35.24
				c0.1-1.37-0.05-2.74-0.8-3.89c0-0.01-0.01-0.02-0.03-0.03c-2.46-3.77-8.58-13.22-16.87-26.66
				c-8.17-13.24-22.16-38.27-37.54-66.35c-27.72-50.58-59.98-111.07-71.05-130.33c-35.27-61.4-18.27-102.69-18.27-102.69
				s98.38-9.73,125.34-33.31l9.71,14.97c0,0,21.32,94.37,20.31,94.81c1.05,3.21,2.12,6.48,3.2,9.8
				c16.82,51.92,36.17,116.82,46.72,169.67c5.93,29.74,9.07,55.65,7.38,73.3c-0.58,6.06,0.13,15.36,1.74,26.85
				C1075.73,1348.01,1108.09,1467.82,1108.09,1467.82z"/>
			<path class="st10" d="M1156.04,1496.74h-95.38c0,0-2.29-14.54,2.7-25.56c4.77-10.58,11.58-10.92,0.87-27.51
				c6.06,6.24,25.54,8.82,39.33,6.97c1.69,2.74,10.89,21.12,16.54,25.17C1126.33,1480.28,1154.12,1478.69,1156.04,1496.74z"/>
			<path class="st10" d="M1010.37,1010.46c-8.33,45.95-28.01,122.42-69.24,146.76c-27.72-50.58-59.98-111.07-71.05-130.33
				c-35.27-61.4-18.27-102.69-18.27-102.69s98.38-9.73,125.34-33.31l9.71,14.97c0,0,21.32,94.37,20.31,94.81
				C1008.22,1003.86,1009.28,1007.13,1010.37,1010.46z"/>
			<path class="st20" d="M1185.29,750.39c0,0,13.49,14.02,19.64,30.82c0,0-21.51,61.78-71.79,69.52
				C1133.15,850.73,1172.92,750.37,1185.29,750.39z"/>
			<path class="st9" d="M943.47,931.29l0.32-17.84c-35.54,4.48-122.55-42.47-122.55-42.47s-37.18,24.73-42.27,95.36
				c-2.48,34.47-18.2,180.26-19.94,223.79c-0.63,15.78-0.84,27.04-0.92,31.54c0.01,0.02,0.01,0.03,0,0.04
				c-0.02,1.37-0.67,2.58-1.51,3.67c-7.35,9.35-13.73,19.25-19.26,29.52c-54.23,100.9-25.87,238.01-25.87,238.01l12.59-3.2
				c0,0,45.86-142.13,75.83-203.61c5.09-10.43,9.71-18.54,13.57-23.23c11.27-13.69,23.15-36.93,34.86-64.9
				c22.14-52.89,43.63-122.67,58.96-176.71C908.39,1021.45,943.47,931.29,943.47,931.29z"/>
			<path class="st5" d="M1151.46,812.23c-58.1-13.33-20.98-94.98-17.62-93.54c8.05-1.64,25.73-15.78,41.55-43.38l2.14,1.85
				l35.68,31.29c0,0-8.25,12.17-15.19,24.09c-5.42,9.33-10.03,18.53-9.3,21.68C1191.6,756.48,1166.96,815.79,1151.46,812.23z"/>
			<path class="st19" d="M1213.21,708.46c0,0-8.25,12.15-15.19,24.09c-22.19-13.68-22.21-41.14-20.5-55.37L1213.21,708.46z"/>
			<path class="st5" d="M1214.2,724.13c0,0-53.87-29.98-34.69-63.24c19.18-33.26,25.15-59.53,60.36-41.8
				c35.21,17.73,34.51,34.25,30.81,46.9C1266.98,678.66,1228.71,731.07,1214.2,724.13z"/>
			<path class="st8" d="M1279.78,646.6c-2.47-14.77-9.97-16.18-15.2-15.19c-19.9-32.9-52.4-20.06-52.4-20.06
				c-17.36,21.79-42.46,25.5-42.46,25.5s6.25,11.63,32.01,18.83c7.87,2.2,16.8,0.87,25.41-2.03c-17.87,9.96-36.56,13.78-36.56,13.78
				c33.94,3.11,66.24-27.92,69.59-31.24c1.57,4.81,4.31,14.88,2.67,22.24c-2.23,10-11.11,28.12-5.69,30.46
				C1257.15,688.89,1283.48,668.75,1279.78,646.6z"/>
			<path class="st10" d="M787.33,1496.74h-95.38c0,0-2.29-14.54,2.7-25.56c4.77-10.58,12.25-15.39,10.46-28.2
				c6.06,6.24,15.94,13.23,29.73,11.37c1.69,2.74,10.91,17.4,16.55,21.45C757.62,1480.28,785.41,1478.69,787.33,1496.74z"/>
			<path class="st21" d="M1158.3,876.96c-12.27,4.28-29.5,6.63-47.12,8.54c-25.08,2.74-50.97,4.61-64.54,10.02
				c-4.95,1.97-8.26,4.41-9.29,7.52c-5.88,17.68-31.79,44.96-31.79,44.96c-166.08-7.56-184.31-77.03-184.31-77.03
				c111.74-129.93,300.93-167.54,300.93-167.54s13.51-5.73,47.54,21.32c22.71,18.06,19.72,24.99,19.72,24.99
				S1194.41,864.36,1158.3,876.96z"/>
			<path class="st20" d="M1111.18,885.5c-25.08,2.74-50.97,4.61-64.54,10.02c-5.54-82.83,33.54-145.13,33.54-145.13
				S1105.69,854.16,1111.18,885.5z"/>
			<path class="st5" d="M1136.99,734.36c0,0-62.86,6.21-67.89,47.05c-5.04,40.84,60.26,207.19,69.61,222.26
				c17.03,27.42,117.28,121.42,117.28,121.42l18.48-11.2c0,0-71.11-120.38-82.12-131.65
				C1175.06,964.56,1158.27,748.51,1136.99,734.36z"/>
			<path class="st21" d="M1070.91,805.99c0.16,0.93,58.01,18.9,95.23,0c0,0,7.97-85.89-36.48-81.23
				c-44.44,4.66-70.76,18.66-71.88,39.94C1056.67,785.97,1070.91,805.99,1070.91,805.99z"/>
			<path class="st5" d="M1250.27,1113.15c0,0,22.55-20.71,32.28-21.2c9.74-0.49,38.71,2.95,39.71,6.96
				c1,4.01-29.75,11.64-31.48,14.21c-1.73,2.57-20.59,20.15-28.98,16.97C1253.4,1126.92,1250.27,1113.15,1250.27,1113.15z"/>
		</g>
	</g>
	<path class="st22" d="M2997.65,1503.22H414.25c-1.61,0-2.93-1.32-2.93-2.93v-1c0-1.61,1.32-2.93,2.93-2.93h2583.41
		c1.61,0,2.93,1.32,2.93,2.93v1C3000.59,1501.9,2999.27,1503.22,2997.65,1503.22z"/>
</g>
</svg>
