<?xml version="1.0" encoding="utf-8"?>
<!-- Generator: Adobe Illustrator 24.1.1, SVG Export Plug-In . SVG Version: 6.00 Build 0)  -->
<svg version="1.0" id="Layer_1" xmlns="http://www.w3.org/2000/svg" xmlns:xlink="http://www.w3.org/1999/xlink" x="0px" y="0px"
	 viewBox="0 0 3000 2000" style="enable-background:new 0 0 3000 2000;" xml:space="preserve">
<style type="text/css">
	.st0{fill:#A8D29F;}
	.st1{fill:#AFCDFB;}
	.st2{fill:#82B378;}
	.st3{fill:#599DAD;}
	.st4{fill:#6BB7BF;}
	.st5{fill:#9ABCEF;}
	.st6{fill:#E9F3FE;}
	.st7{fill:#D8E8FD;}
	.st8{fill:#A8C3F7;}
	.st9{fill:#FFB27D;}
	.st10{fill:#E2915A;}
	.st11{fill:#233862;}
	.st12{fill:#2B478B;}
	.st13{fill:#22407A;}
	.st14{fill:#FFFFFF;}
	.st15{fill:#D9E9F9;}
	.st16{fill:#C65447;}
	.st17{fill:#BA4C43;}
	.st18{fill:#1C468A;}
	.st19{fill:#ED7D2B;}
	.st20{fill:#ED975D;}
	.st21{fill:#F99746;}
</style>
<path class="st0" d="M509.3,1807.15c0,0,8.58-56.2,118.01-71.32c109.44-15.12,211.2-136.34,391.67-118.75
	c180.48,17.59,330.23,127.99,535.67,94.16c205.43-33.83,334.07,9.29,380.15,43.29c46.08,34,236.78-7.98,250.87,54.33L509.3,1807.15z
	"/>
<path class="st1" d="M959.16,468.03c0,0-123.52-6.04-57.99,370.4c0,0,44.08,127.78-11.57,210.14h819.13V468.03H959.16z"/>
<g>
	<path class="st2" d="M1834.56,662.64c0,0-41.18-77.69,20.52-107.28c0,0,43.48-14.56,74.26-5.66c0,0-60.89,64.19-48.25,74.78
		c12.64,10.59,62.69-76.42,62.69-76.42s88.98,11.15,113.96,30.92c0,0-88.15,44.17-73.29,51.33c14.86,7.15,108.72-34.55,108.72-34.55
		s77.95,32.03,62.5,80.5c-15.44,48.47-45,46.3-56.98,42.22c-11.98-4.08-69.57-59.78-83.24-26.77c-3.99,9.64,32,52.3,61.92,60.64
		c0,0-71.32,50.16-105.2,23.43c-33.88-26.73-30.64-56.29-51.88-72.43c-21.24-16.14-41.45-20.66-34.16-7.43
		c7.29,13.23,47.72,33.58,55.88,60.57c8.15,26.99,16.66,45.88-21.3,31.12c-37.96-14.75-95.36-57.87-90.75-91.42
		C1834.56,662.64,1834.56,662.64,1834.56,662.64z"/>
	<g>
		<path class="st2" d="M2115.56,668.63c0,0-218.22-58.01-281-5.99c0,0-18,29.78-57.67,51.66l-8.32,12.9c0,0,47.19-31.64,61.39-31
			C1829.96,696.2,1826.16,613.4,2115.56,668.63z"/>
		<path class="st3" d="M1776.88,714.3c0,0-55.11,24.32-72.44,86.01l8.4,2.7c0,0,29.61-61.16,62.57-80.27
			C1808.37,703.63,1776.88,714.3,1776.88,714.3z"/>
	</g>
</g>
<g>
	<path class="st0" d="M1563.43,522.5c0,0-121.94-63.6-68.68-156.42c0,0,43.11-57.31,90.66-73.13c0,0-21.54,136.7,4.14,139.14
		c25.68,2.44,13.02-154.05,13.02-154.05s124.53-64.53,174.25-61.21c0,0-74.41,135.07-48.92,131.11
		c25.49-3.96,109.45-140.92,109.45-140.92s128.83-27.85,151.9,48.3c23.08,76.15-9.36,115.53-28.41,120.9
		c-19.05,5.37-142.24,7.44-138.56,23.33c3.67,15.9,87.6,39.01,133.55,23.23c0,0-47.41,127.87-114.77,123.47
		c-67.36-4.4-89.39-45.36-131.06-47.32c-41.68-1.96-71.73,10.14-50.6,20.71c21.12,10.58,91.27,0.95,125.7,28.5
		c34.43,27.55,62.15,44.33,0.16,58.98c-61.99,14.65-174.18,9.99-197.99-37.32C1563.43,522.5,1563.43,522.5,1563.43,522.5z"/>
	<g>
		<path class="st2" d="M1930.8,281.07c0,0-332.61,118.75-367.37,241.44c0,0,3.22,54.33-28.51,117.7l0.71,23.99
			c0,0,32.75-82.61,51.61-94.38C1587.25,569.82,1508.95,466.5,1930.8,281.07z"/>
		<path class="st4" d="M1534.93,640.2c0,0-49.45,80.19-17.07,175.05l13.22-3.98c0,0-16.08-105.07,9.44-158.91
			C1566.03,598.53,1534.93,640.2,1534.93,640.2z"/>
	</g>
</g>
<rect x="1011.1" y="690.84" class="st5" width="855.2" height="1115.3"/>
<rect x="1039.06" y="690.84" class="st6" width="840.82" height="1115.3"/>
<path class="st6" d="M1879.89,690.83c-0.01,0.01-0.01,0.01-0.01,0.01h-840.82c4.65-63.58-2.36-109.75-13.58-142.96
	c-21.56-63.84-58.73-79.86-58.73-79.86h792.98c67.68,0,120.16,40.77,134.44,94.89c0.53,2.04,1.03,4.06,1.46,6.09
	C1909.19,630.92,1880.45,689.7,1879.89,690.83z"/>
<path class="st7" d="M1879.89,690.83c-0.01,0.01-0.01,0.01-0.01,0.01h-840.82c4.65-63.58-2.36-109.75-13.58-142.96
	c85.93,15.73,298.75,49.26,526.55,43.62c147.37-3.66,263.83-13.52,343.61-22.49C1909.19,630.92,1880.45,689.7,1879.89,690.83z"/>
<path class="st0" d="M1892.06,1761.82c0,0,25.96-90.28,56.42-79.63C1978.95,1692.85,1892.06,1761.82,1892.06,1761.82z"/>
<path class="st0" d="M1915.76,1756.9c0,0,66.28-43.51,80.85-30.06C2011.17,1740.29,1915.76,1756.9,1915.76,1756.9z"/>
<g>
	<rect x="1091.82" y="796.56" class="st8" width="741.09" height="42.38"/>
	<rect x="1091.82" y="1055.25" class="st8" width="741.09" height="19.44"/>
	<rect x="1091.82" y="1100.99" class="st8" width="741.09" height="19.44"/>
	<rect x="1091.82" y="1146.74" class="st8" width="741.09" height="19.44"/>
	<rect x="1091.82" y="1192.49" class="st8" width="741.09" height="19.44"/>
	<rect x="1091.82" y="1238.23" class="st8" width="741.09" height="19.44"/>
	<rect x="1091.82" y="1283.98" class="st8" width="741.09" height="19.44"/>
	<g>
		<path class="st8" d="M1308.83,1549.66c0,31.58-25.6,57.18-57.18,57.18c-31.58,0-57.18-25.6-57.18-57.18
			c0-31.58,25.6-57.18,57.18-57.18C1283.23,1492.48,1308.83,1518.08,1308.83,1549.66z"/>
		<path class="st8" d="M1548.24,1604.63c-0.16,0-0.32-0.01-0.48-0.04c-1.56-0.26-2.6-1.74-2.34-3.3
			c0.53-3.14,13.54-77.12,54.58-102.3c2.92-1.79,4.75-0.86,5.59-0.14c3.6,3.08,0.86,10.93-11.49,40.56
			c-4.92,11.81-10.76,25.8-13.16,34.31c4.37-5.73,10.91-15.54,16.1-23.34c16.23-24.36,19.39-28.33,22.55-28.33
			c1.17,0,2.23,0.54,2.89,1.5c1.72,2.47,0.42,6.61-4.06,18.75c-1.72,4.65-4.35,11.78-5.11,15.61c2.33-2.1,5.75-6.56,7.82-9.25
			c5.62-7.32,8.47-10.81,11.83-10.29c0.7,0.11,2.42,0.61,3.23,2.88c0.34,0.94,0.5,2,0.67,3.13c0.44,2.93,0.94,6.25,4.47,8.24
			c7.12,4.02,27.65,3.79,84.99-20.12c1.46-0.61,3.13,0.08,3.74,1.54c0.61,1.46-0.08,3.13-1.54,3.74
			c-48.42,20.18-77.86,26.67-90,19.83c-5.91-3.33-6.79-8.91-7.3-12.29c-1.63,1.72-3.89,4.67-5.55,6.83
			c-6.21,8.08-10.29,12.94-14.45,12.6c-1.27-0.11-2.35-0.76-3.03-1.84c-1.99-3.13-0.04-9.29,4.87-22.59
			c0.79-2.13,1.69-4.57,2.47-6.84c-3.97,5.43-9.36,13.52-13.73,20.08c-18.18,27.29-21.47,31.25-25.13,30.25
			c-0.56-0.15-2.41-0.86-2.56-3.51c-0.36-6.38,5.59-21.2,14.71-43.08c4.64-11.12,10.71-25.68,12.2-32.08
			c-37.32,25.07-49.84,96.39-49.97,97.12C1550.82,1603.65,1549.61,1604.63,1548.24,1604.63z M1611.56,1559.05L1611.56,1559.05
			L1611.56,1559.05z"/>
	</g>
</g>
<g>
	<path class="st9" d="M910.85,682.72l-0.05,8.55c0,0,2.33,26.73-30.59,30.63c-32.91,3.91-59.91,3.4-59.02-17.23
		c2.97-15.97,8.28-40.76,8.5-53.98c0.08-4.91-0.25-10.12-1.17-16.01l63.78-1.27l18.79,3.07L910.85,682.72z"/>
	<path class="st10" d="M911.09,636.49l-0.24,46.23c-6.78,3.15-14.42,5.07-22.99,5.07c-29.31,0-48.26-21.5-58.16-37.1
		c0.08-4.91-0.25-10.12-1.17-16.01l63.78-1.27L911.09,636.49z"/>
	<path class="st9" d="M823.63,624.43c7.4,39.83,58.79,38.52,81,36.02c6.25-0.7,10.18-1.49,10.18-1.49
		c7.05-1.88,10.98-12.98,12.81-27.52c3.63-28.77-0.95-71.01-5.82-81.82c-7.32-16.26-21.09-33.84-72.85-21.15
		C797.2,541.16,814.14,573.4,823.63,624.43z"/>
	<path class="st11" d="M781.58,1803.6h72.82c-0.54-3.82-2.4-15.44-5.81-26.14c-1.18-3.73-2.56-7.35-4.12-10.49
		c-7.08-14.14-52.07-5.14-52.07-5.14s-4.18,3.58-7.44,17.25C783.52,1785.1,782.25,1793.1,781.58,1803.6z"/>
	<path class="st11" d="M1001.64,1780.62c0.2,9.91,1.45,19.28,5.04,22.98h144.04c-1.83-5.21-7.01-13.05-21.8-15.45
		c-16.8-2.72-43-10.81-58.29-26.98c-5.45-5.74-9.51-12.52-11.29-20.44c-6.78-30.17-56.03,9.24-56.03,9.24
		S1001.32,1765.87,1001.64,1780.62z"/>
	<path class="st12" d="M905.84,1454.47c2,11.05,3.28,20.11,3.62,26.61c4.58,89.32,75.18,293.54,87.81,298.3
		c19.54,7.38,50.31-8.3,66.41-13.43c6.67-2.13,11.17-8.86,9.69-15.68c-34.97-160.74-47.82-392.21-52.49-529.24
		c-2.36-69.02-14.21-116.71-14.21-116.71s-172.21-45.95-173.23,12.18C832.53,1167.93,890.48,1369.63,905.84,1454.47z"/>
	<path class="st11" d="M905.84,1454.47l115.04-233.45c-2.36-69.02-14.21-116.71-14.21-116.71s-172.21-45.95-173.23,12.18
		C832.53,1167.93,890.48,1369.63,905.84,1454.47z"/>
	<path class="st12" d="M944.15,1116.7l-91.03,659.79c0,0-39.98,9.64-71.07,1.93c0,0-26.65-350.91-24.43-435.74
		c2.22-84.84-19.13-227,4.87-242.68C786.49,1084.31,944.15,1116.7,944.15,1116.7z"/>
	<path class="st11" d="M937.69,511.71c0,0-22.78-1.75-49.65-13.43c-21.81-9.48-49.32,0.96-58.25,5.67c0.24-1.44,0.81-3.4,2.18-5.37
		c0,0-4.01,2.84-4.6,6.82c-0.41,0.3-0.6,0.51-0.49,0.58c0,0-4.55-0.83-7.47,0.48c0,0,2.04-0.29,2.77,1.02
		c0.08,0.14,0.19,0.26,0.33,0.36c-34.02,16.44-37.16,70.2-26.21,82.64c13.17,14.97,28.96,48.67,28.96,48.67s5.76-7.96,3.36-21.13
		c-2.39-13.17,8.98-13.17,23.35-19.16c14.37-5.99,2.39-22.75,14.97-32.93c12.57-10.18,58.67-4.19,58.07-11.97
		C942.12,547.72,937.69,513.46,937.69,511.71z"/>
	<path class="st6" d="M813.43,716.14l20.96,449.71c0,0,174.93,2.86,169.94-36.73c-4.99-39.59-63.05-399.21-63.05-399.21
		L813.43,716.14L813.43,716.14z"/>
	<path class="st13" d="M750.98,971.05c10.41,31.22-9.21,135.99-16.21,171.48c-1.54,7.51-2.56,11.94-2.56,11.94
		c24.23,39.41,112.95,38.9,112.95,38.9c17.06-75.42,25.93-195.53,25.93-195.53l-68.08-298.42l-85.65,79.17
		c0,0,6.48,48.29,14.5,97.42C738.18,914.91,745.35,954.5,750.98,971.05z"/>
	<path class="st14" d="M896.56,630.98c0,0,1.66,5.14,14.63,3.26c0,0,10.89-1.57,10.08-7.3
		C921.26,626.94,910.32,623.71,896.56,630.98z"/>
	<path class="st13" d="M994.88,722.55c0,0,0.02,0.08,0.04,0.19c4.14,4.01,120.92,117.39,143.54,161.8
		c23.03,45.05-105.27,134.79-105.27,134.79s-8.26,3.26-13.99,1.99c6.05,49.81,12.84,95.77,8.82,115.38
		c-7.27,35.46-40.07,47.36-40.07,44.63c0-0.87-8.45-129.28-18.51-195.62c-22.33-147.23-48.95-285.4-48.95-285.4
		C958.67,704.29,994.88,722.55,994.88,722.55z M1064.41,903.99c0.17-0.17,0.17-0.52,0.17-0.68c0-6.49-24.74-20.82-51.53-37.71
		c-0.34-0.34-0.51-0.52-0.51-0.52c-0.02-0.01-0.04-0.02-0.05-0.03c0.48,13.8,0.42,27.34-0.4,39.94
		c-1.52,23.38,0.18,51.32,3.01,79.76C1027.85,964.85,1061.92,911.33,1064.41,903.99z"/>
	<g>
		<path class="st15" d="M808.47,698.88c-0.21-4.29,20.12-10.22,20.12-10.22s23.27,32.26,61.6,32.82c0,0-10.92,21.26-23.8,26.77
			C866.39,748.24,809.74,724.37,808.47,698.88z"/>
		<g>
			<path class="st16" d="M944.03,1025.42c-0.94,10.5-5.76,20.29-13.52,27.44l-12.2,11.24c-3.06,2.82-7.88,2.43-10.45-0.84
				l-15.11-19.19c-4.05-5.15-5.96-11.66-5.34-18.18c1.41-14.52,4.05-42.5,6.15-69.5c1.71-21.88,3.09-43.13,3.19-56.06
				c0.33-41.28-7.86-172.93-7.86-172.93l9.9,0.52c0,0,24.58,51.1,37.45,120.63c3.18,17.12,5.63,35.34,6.84,54.2
				C943.09,902.75,948.25,977.94,944.03,1025.42z"/>
			<path class="st17" d="M944.03,1025.42c-0.94,10.5-5.76,20.29-13.52,27.44l-12.2,11.24c-3.06,2.82-7.88,2.43-10.45-0.84
				l-15.11-19.19c-4.05-5.15-5.96-11.66-5.34-18.18c1.41-14.52,4.05-42.5,6.15-69.5c27.35-30.73,38.43-73.19,42.68-107.84
				c3.18,17.12,5.63,35.34,6.84,54.2C943.09,902.75,948.25,977.94,944.03,1025.42z"/>
		</g>
		<path class="st15" d="M890.19,720.72c0,0,20.31-12.04,20.38-25.09c0,0,13.12-1.64,18.84,4.72c0,0,4.82,22.37-1.57,35.36
			C927.84,735.71,898.6,731.25,890.19,720.72z"/>
		<path class="st17" d="M876.4,718.78l27.54-6.6c0,0,3.6,0.31,3.5,4.8c-0.1,4.49-7.75,17.59-11.15,18.64
			C892.9,736.67,869.89,727.86,876.4,718.78z"/>
		<path class="st6" d="M811.68,696.66c-0.21-4.29,13.55-13.13,13.55-13.13s26.63,31.13,64.96,31.68c0,0-10.92,21.26-23.8,26.77
			C866.39,741.98,812.95,722.15,811.68,696.66z"/>
		<path class="st6" d="M890.19,715.21c0,0,20.54-10.89,20.61-23.94c0,0,12.4,5.46,18.13,11.81c0,0,5.3,14.12-1.08,27.11
			C927.84,730.2,898.6,725.74,890.19,715.21z"/>
	</g>
	<path class="st9" d="M1041.36,1026.63c0-11.46-10.08-20.66-21.41-18.94c-3.15,0.48-5.99,1.78-7.95,4.39
		c-7.8,10.38-15.22,40.59-1.4,42c5.63,0.58,12.85-3.37,18.42-7.6c5.65-4.3,12.35-11.02,12.35-18.13V1026.63z"/>
	<path class="st11" d="M734.77,1142.52c25.08-26.11,68.42-77.46,66.88-119.61c-2.05-59.03-69.78-146.9-69.78-146.9
		c6.31,38.9,13.48,78.49,19.11,95.04C761.38,1002.27,741.76,1107.03,734.77,1142.52z"/>
	<path class="st9" d="M735.55,1039.84c0,0,18.03,9.02,28.98,4.51s23.83-7.89,36.06,6.03c12.24,13.93,14.81,23.59,12.24,28.74
		c-2.58,5.15-31.1,3.22-35.83,0c-4.73-3.22-12.22-11.15-16.97-9.76c-13.1,3.81-24.14-6.19-30.31-14.15
		C725.98,1050.4,736.04,1048.08,735.55,1039.84z"/>
	<path class="st13" d="M803.02,699.41c0,0-71.82,7.95-88.75,39.23c-16.94,31.27-105,158.02-102.12,210.69
		c2.88,52.67,120.13,111.74,120.13,111.74s25.97-10.97,26.36-22.78c0.39-11.81-81.06-82.37-76.12-95.54
		c4.94-13.17,94.62-117.32,103.28-151.66C794.44,756.75,803.02,699.41,803.02,699.41z"/>
	<path class="st11" d="M1012.54,865.09c0,0,0.17,0.18,0.51,0.52c26.79,16.89,51.53,31.22,51.53,37.71
		c3.58-11.43-31.22-59.21-42.49-68.93C1010.66,824.48,1012.54,865.09,1012.54,865.09z"/>
	<path class="st11" d="M825.23,683.53c0,0,54.52,228.35,45.84,314.37c0,0-20.05-91.92-68.28-167.22c0,0,17.6-15.48,16.65-21.19
		c0,0-13.07-3.88-25.75-1.27c0,0,1.4-98.43,9.31-108.83C810.9,689,825.23,683.53,825.23,683.53z"/>
	<path class="st11" d="M910.8,691.27c-0.74,0.35,54.03,223.14,58.64,294.45c0,0-5.46-127.25-4.93-163.93
		c0,0-22.64-11.99-22.64-16.19c0-4.21,24.16-15.58,24.16-15.58s-15.3-78.37-23.64-87C934.03,694.38,910.8,691.27,910.8,691.27z"/>
</g>
<g>
	<path class="st11" d="M432.3,1804.49l158.03-0.18c20.57-0.02,37.37-16.87,37.35-37.44l-0.08-68.48
		c-0.02-20.57-16.87-37.38-37.44-37.35l-158.03,0.18c-20.57,0.02-37.37,16.87-37.35,37.44l0.08,68.48
		C394.88,1787.71,411.73,1804.52,432.3,1804.49z"/>
	<path class="st12" d="M601.78,1678.88L601.78,1678.88c-5.92-10.27-16.55-17.52-28.88-18.73l-0.01,0c-0.01,0-0.02,0-0.03,0
		c-1.21-0.11-2.43-0.18-3.67-0.18l-31.47,0.04l-0.02-14.78c0-3.29-1.29-6.4-3.64-8.75c-2.35-2.33-5.46-3.63-8.76-3.62l-8.21,0.01
		l-33.04,0.04l-5.96,0.01c-6.82,0.01-12.38,5.57-12.37,12.4l0.02,14.78l-54.32,0.06c-20.64,0.02-37.51,16.93-37.49,37.58l0.09,69.28
		c0.02,20.64,16.93,37.51,37.58,37.49l157.75-0.18c2.78,0,5.49-0.32,8.1-0.9h0.01c0.01,0,0.01,0,0.02,0
		c4.19-0.93,8.1-2.57,11.63-4.78c10.64-6.65,17.75-18.49,17.74-31.9l-0.08-69.27C606.76,1690.7,604.94,1684.36,601.78,1678.88z
		 M473.49,1645.3c0-2.07,1.37-3.83,3.25-4.41c0.44-0.14,0.89-0.21,1.37-0.22l7.02-0.01l26.01-0.02l14.17-0.02
		c2.55,0,4.63,2.07,4.63,4.61l0.02,14.78l-56.45,0.06L473.49,1645.3z"/>
</g>
<path class="st18" d="M2782,1808.87H218c-1.38,0-2.5-1.12-2.5-2.5v-0.46c0-1.38,1.13-2.5,2.5-2.5H2782c1.38,0,2.5,1.13,2.5,2.5v0.46
	C2784.5,1807.75,2783.37,1808.87,2782,1808.87z"/>
<g>
	<path class="st9" d="M1871.31,778.67c7.05,14.23,18.39,30.41,28.85,33.63c11.86,3.66,17.31,10,17.31,10l8.61-6.28l10.28-7.51
		c0,0-0.38-1.19-1.13-3.11c-0.73-1.92-1.84-4.58-3.27-7.5c0,0-3.81-3.97-2.32-9.61c1.49-5.63,0.21-13.96-3.84-18.71
		c-4.05-4.73-8.75-16.96-10.82-16.36c-5.03,1.41,4.42,17.9,2.56,21.34c-1.68,3.11-4.26,2.37-4.74,2.2
		c-0.03-0.02-0.06-0.02-0.09-0.04c-15.03-4.81-36.01-37.04-43.24-31.64C1866.76,747.1,1868.3,772.61,1871.31,778.67z"/>
	<path class="st19" d="M2163.94,743.19c0,0-70.07,107.35-101.6,138.89l-127.83-83.63c0,0-17.4,6.53-24.08,24.81
		c0,0,83.51,146.68,156.99,148.6c73.48,1.93,164.54-192.05,164.54-192.05L2163.94,743.19z"/>
	<g>
		<path class="st11" d="M2414.56,1807.12h53.19c6.7-3.64,12.66-11.96,14.55-24.37c2.6-17.14,21.8-26.48,25.96-40.5
			c4.15-14.01-17.14-33.74-17.14-33.74l-3.56-4.59l-3.71-4.76l-35.31,8.31c0,0-0.88,8.41-1.4,19.12
			c-0.38,7.73-0.59,16.66-0.15,24.49c1.04,18.69-5.23,38.82-21.83,42.46C2412.89,1796.21,2413.44,1803.5,2414.56,1807.12z"/>
		<path class="st11" d="M2105.85,1807.12h121.65c5.85-7.14,3.69-33.49,2.81-42.09c-0.18-1.73-0.31-2.74-0.31-2.74
			s-41.54-33.23-47.25-7.79c-0.17,0.8-0.39,1.58-0.62,2.35c-7.19,23.8-39.43,34.61-58.05,37.63
			C2111.98,1796.43,2107.5,1802.73,2105.85,1807.12z"/>
		<path class="st13" d="M2129.03,1128.08c0,0,6.31,78.7,13.72,173.3c10.08,128.51,22.19,286.36,23.39,316.26
			c2.07,51.93,10.39,134.99,10.39,134.99s19.72,19.73,59.18,11.42c0,0,35.17-118.57,45.21-244.02c0.16-2.06,0.31-4.13,0.47-6.2
			c9.34-127.71,23.88-396.64,23.88-396.64L2129.03,1128.08z"/>
		<path class="st11" d="M2129.03,1128.08c0,0,6.31,78.7,13.72,173.3l138.18,218.64c0.16-2.06,0.31-4.13,0.47-6.2
			c9.34-127.71,23.88-396.64,23.88-396.64L2129.03,1128.08z"/>
		<path class="st13" d="M2157.83,1137.42c0,0,113.69,285.02,188.45,418.96c74.76,133.94,98.12,171.32,98.12,171.32
			s42.83-17.13,46.72-28.81c0,0-28.59-258.58-78.65-321.62c-28.29-35.62-61.52-142.51-63.08-179.89
			c-1.56-37.38-10.12-111.36-10.12-111.36L2157.83,1137.42z"/>
	</g>
	<path class="st9" d="M2186.13,721.93c44.43,14.02,121.3-23.82,121.3-23.82s-40.96-30.74-38.82-94.67l-34.35,27.69l-23.34,18.8
		c0,0,0.1,11.08,2.65,30.51c0.67,5.11,1.51,10.81,2.57,17.03C2197.08,707.94,2186.13,721.93,2186.13,721.93z"/>
	<path class="st20" d="M2210.93,649.93c0,0,0.1,11.08,2.65,30.51c25.85-4.44,55.18-46.23,55.18-46.23
		c-13.16-3.8-24.69-4.48-34.5-3.09L2210.93,649.93z"/>
	<path class="st9" d="M2197.34,648.88c0,0,73.39,12.19,80.28-33.63c6.89-45.82,21-75.1-25.57-84.82
		c-46.56-9.72-58.32,6.39-64.34,21.12C2181.7,566.28,2178.43,644.52,2197.34,648.88z"/>
	<path class="st21" d="M2124.12,1134.63c1.34,1.11,2.89,1.78,4.67,1.78c16.68-0.23,65.34,9.04,106.5,4.81
		c34.71-3.33,65.42-13.61,98.41-28.4c4.38-1.96,14.46-7.34,14.24-12.24c-0.15-5.36-0.68-13.14-1.35-22.93
		c-2.33-34.05-6.4-92.61-2.44-160.18c0.71-12.58,1.09-25.06,1.13-37.35c0.34-91.57-17.82-172.11-54.3-199.37
		c-3.12-2.23-22.25,7.12-39.83,15.79c-16.24,8.01-32.48,8.9-47.83,5.79l-15.35,13.57c-18.69,17.35-39.16,40.94-48.06,76.75
		c-7.57,30.48-12.01,85.44-14.46,142.39c-1.11,25.81-2.01,51.84-2.23,76.54v0.88c-0.21,2.45-0.21,5.12-0.21,7.57
		C2122.12,1083.46,2123.01,1133.74,2124.12,1134.63z"/>
	<path class="st19" d="M2346.59,1077.66c-2.33-34.05-6.4-92.61-2.44-160.18c0.71-12.58,1.09-25.06,1.13-37.35
		c-15.2-36.87-27.62-63.61-27.62-63.61h-38.31C2279.36,816.53,2251.27,1008.37,2346.59,1077.66z"/>
	<path class="st11" d="M2277.68,610.84c0,0-7.53-1.26-6.32-11.63c1.21-10.37,1.2-23.93-7.23-21.4c-8.43,2.53-8.85,9.28-12.32,5.34
		c-3.46-3.94-3.53-20.56-28.62-21.71c-25.09-1.16-35.29,7.58-46.96,2.45c-11.67-5.13-12.29-22.79-12.29-22.79s3.32,6.31,8.33,8.31
		c0,0-19.47-26.63,3.07-44.89c22.54-18.26,45.52-6.31,58.57-5.52c28.74,1.74,47.3,3.46,56.69,22.35
		C2300,540.23,2296.12,592.66,2277.68,610.84z"/>
	<g>
		<path class="st11" d="M1558.59,523.65l68.96,42.63l7.72-12.49l-68.96-42.63c-3.45-2.13-7.98-1.06-10.11,2.39l0,0
			C1554.07,516.99,1555.14,521.52,1558.59,523.65z"/>
		<path class="st4" d="M2296.99,913.89l-18.5,44.59l0.37,0.23l-0.88,1.02l-0.51,1.24l-0.37-0.23l-31.62,36.48
			c0,0-473.81-292.71-651.8-442.98c-5.7-4.81-7-13.09-3.08-19.43l0,0c3.92-6.35,11.9-8.88,18.76-5.93
			C1823.35,620.91,2296.99,913.89,2296.99,913.89z"/>
		<path class="st3" d="M1600.89,527.88c0.82,2.7,2.38,5.2,4.67,7.14C1783.55,685.28,2257.36,978,2257.36,978l25-28.84l-3.87,9.33
			l0.37,0.23l-0.88,1.02l-0.51,1.24l-0.37-0.23l-31.62,36.48c0,0-473.81-292.71-651.8-442.98c-5.7-4.81-7-13.09-3.08-19.43
			C1592.95,531.01,1596.75,528.59,1600.89,527.88z"/>
		<path class="st11" d="M2739.79,1270.89l-82.02-50.7l22.97-37.16l82.02,50.7c10.26,6.34,13.44,19.81,7.09,30.07l0,0
			C2763.52,1274.06,2750.06,1277.23,2739.79,1270.89z"/>
		<path class="st4" d="M2232.32,1001.32l372.44,230.23c27.9,17.25,64.49,8.61,81.74-19.29l0,0c17.25-27.9,8.61-64.49-19.29-81.74
			l-372.44-230.23c-4.8-2.97-11.1-1.48-14.07,3.32l-51.7,83.63C2226.03,992.05,2227.52,998.35,2232.32,1001.32z"/>
		<path class="st3" d="M2691.52,1202.08c-1.32,3.48-2.98,6.89-5.02,10.18l0,0c-17.25,27.9-53.84,36.53-81.74,19.29l-372.44-230.23
			c-4.8-2.97-6.29-9.27-3.32-14.07l6.51-10.53l381.14,235.61C2641.25,1227.54,2672.62,1222.6,2691.52,1202.08z"/>
		<path class="st12" d="M2346.68,918.4l36.81,23.41c3.68,12.77,14.08,26.14,29.26,35.8c15.18,9.65,31.7,13.4,44.83,11.32
			l219.95,139.89c30.67,19.5,39.75,60.32,20.24,90.99l-21.05,33.1c-3.35,5.27-1.79,12.25,3.47,15.6c5.27,3.35,12.25,1.79,15.6-3.47
			l21.05-33.1c26.19-41.18,14-96-27.18-122.19l-330.84-210.42c-5.27-3.35-12.25-1.8-15.6,3.47
			C2339.86,908.06,2341.41,915.05,2346.68,918.4z"/>
		<polygon class="st3" points="2234.72,992.78 2235.51,976.72 2280.61,903.76 2217.18,974.87 		"/>
	</g>
	<path class="st9" d="M2420.89,1102.93c-0.04-0.87-0.09-1.77-0.16-2.69c-0.34-4.57-8.92-16-8.92-16l21.51-11.17l8.52,14.08
		c12.86,10.24,13.1,10.42,10.76,30.02c-2.03,16.99,9.08,17.19,8.82,29.33c-0.26,12.13-15.9,6.17-15.9,6.17
		c-24.23-11.38-26.24-17.1-25.49-28.64c-2.3,3.26-4.87,5.16-7.06,3.74c-1.92-1.25,1.92-6.22,3.59-17.72
		C2416.81,1108.34,2418.84,1105.46,2420.89,1102.93z"/>
	<path class="st21" d="M2433.63,1093.01c-13.8,2.69-28.75,1.6-28.75,1.6s-40.96-126.52-46.23-138.08
		C2353.38,944.98,2237,808.18,2237,808.18l48.48-121.33c0,0,125.88,210.26,138.66,239.81c21.12,48.82,28.45,158.28,28.45,158.28
		S2444.46,1090.9,2433.63,1093.01z"/>
	<path class="st9" d="M1868.25,760.48c0,0-1.15-18.67,6.2-18.67c7.34,0,44.79,48.35,44.79,48.35l-2.98,10.41L1868.25,760.48z"/>
</g>
</svg>
