<?xml version="1.0" encoding="utf-8"?>
<!-- Generator: Adobe Illustrator 24.1.1, SVG Export Plug-In . SVG Version: 6.00 Build 0)  -->
<svg version="1.0" xmlns="http://www.w3.org/2000/svg" xmlns:xlink="http://www.w3.org/1999/xlink" x="0px" y="0px"
	 viewBox="0 0 750 500" style="enable-background:new 0 0 750 500;" xml:space="preserve">
<style type="text/css">
	.st0{fill:#162E4C;}
	.st1{fill:#2F4A7F;}
	.st2{fill:#EFAB8B;}
	.st3{fill:#7DB6F9;}
	.st4{fill:#FFFFFF;}
	.st5{fill:#3E7EDB;}
	.st6{fill:#E8615B;}
	.st7{fill:#EFAC37;}
	.st8{fill:#D88260;}
	.st9{fill:#05060B;}
	.st10{fill:#476B9E;}
	.st11{fill:#DAE9F7;}
	.st12{fill:#E5931C;}
	.st13{fill:#D16D00;}
	.st14{fill:#D9EBFF;}
</style>
<g id="BACKGROUND">
</g>
<g id="OBJECTS">
	<g>
		<g>
			<path class="st0" d="M622.61,428.74c0,0-9.31,7.36-15.47,8.96c-6.16,1.6-15.07,3.3-14.97,12.81h56.59
				c-0.38-8.9-2.04-16.65-5.23-20.42c-3.56,0.4-6.17,0.84-8.71,0.46C632.23,429.56,625.96,426.12,622.61,428.74z"/>
			<path class="st0" d="M687.66,429.76c0,0,2.21,7.16,7.38,8.35c6.16,1.55,12.65,3.19,12.56,12.41h-46.93
				c0.38-8.62,1.68-16.46,4.87-20.11c3.56,0.39,6.53,1.16,9.07,0.79C677.18,430.23,684.3,427.22,687.66,429.76z"/>
			<path class="st1" d="M637.2,153.85c10.6-13.42,0.99-25.88-9.68-26.06c-12.83,0.13-64.38,27.56-67.71,29.96
				c-22.78,13-10.03,31.82,4.13,29.61C573.45,187,624.2,170.3,637.2,153.85z"/>
			<path class="st2" d="M663.83,133.98c-8.17,5.27-15.79,6.64-22.28,0V97.66h22.28V133.98z"/>
			<path class="st3" d="M687.06,230.45l-65.12-1.51c-19,79.52-3.15,201.28-2.99,201.32c5.66,1.42,13.3,3.3,26.8,1.88
				c1.78-34.09,9.19-159.68,9.19-159.68l8.55,159.07c5.27,1.89,19.72,2.13,25.3,0.24C703.81,247.7,687.06,230.45,687.06,230.45z"/>
			<path class="st4" d="M618.86,239.16l-0.35,1.71c10.38,4.2,21.77,6.42,34.33,6.35l1.19-5.05l1.38,5.05
				c13.3-0.28,25.51-1.76,36.02-5.15l-0.56-2.91H618.86z"/>
			<polygon class="st5" points="654.43,272.48 653.89,261.91 644.01,259.37 644.26,258.4 654.85,261.13 655.43,272.43 			"/>
			<path class="st1" d="M613.46,133.4c6.93-6.19,26.09-7.39,26.09-7.39s1.67,4.55,11.28,4.55c9.61,0,14.97-4.56,14.97-4.56
				s21.84,0.81,30.88,8.31c9.04,7.49,1.3,102-4.62,105c-7.81,4.19-68.56,3.22-73.52-0.34C613.9,236.23,605.15,141.01,613.46,133.4z"
				/>
			<path class="st0" d="M609.52,171.96c-0.07-7.43,0.32-14.69,1.14-21.57l0.99,0.12c-0.82,6.83-1.2,14.05-1.13,21.44L609.52,171.96z
				"/>
			<path class="st4" d="M637.49,126.19l4.06-5.66c2.16,4.55,3.64,7.3,8.16,10.03l-5.01,6.81
				C641.37,134.69,638.99,130.93,637.49,126.19z"/>
			<path class="st4" d="M668.2,126.19l-4.37-7.03c-1.84,5.69-5.01,8.52-10.9,11.4l4.44,6.81
				C662.12,134.44,665.89,130.83,668.2,126.19z"/>
		</g>
		<g>
			<path class="st1" d="M696.69,134.31c-12.65-5.65-18.27,0.37-20.51,10c-2.35,11.62,14.11,61.06,15.78,64.32
				c8.65,17.21,31.74,6.18,31.46-8.54C724.92,191.45,712.89,145.57,696.69,134.31z"/>
			<path class="st0" d="M692.17,194.59c-8.07-10.25-14.5-27.43-14.57-27.6l0.94-0.35c0.06,0.17,6.44,17.21,14.42,27.33
				L692.17,194.59z"/>
		</g>
		<g>
			<path class="st0" d="M676.02,259.61l-29.33,29.7c-1.47,1.49-3.88,1.51-5.37,0.03l-40.42-39.92c-1.49-1.47-1.51-3.88-0.03-5.37
				l29.33-29.7c1.47-1.49,3.88-1.51,5.37-0.03l40.42,39.92C677.48,255.71,677.5,258.12,676.02,259.61z"/>
			
				<rect x="617.14" y="224.02" transform="matrix(0.7027 -0.7115 0.7115 0.7027 10.6451 529.1316)" class="st4" width="42.61" height="55.62"/>
			<path class="st3" d="M622.03,220.85l-1.26,1.28c-1.53-1.25-3.79-1.15-5.21,0.29l-6.81,6.9c-1.42,1.43-1.49,3.69-0.22,5.21
				l-1.26,1.28c-0.7,0.71-0.69,1.85,0.02,2.55l2.96,2.92c0.71,0.7,1.85,0.69,2.55-0.02l14.76-14.95c0.7-0.71,0.69-1.85-0.02-2.55
				l-2.96-2.92C623.87,220.13,622.73,220.14,622.03,220.85z"/>
			<g>
				
					<rect x="636.72" y="267.8" transform="matrix(0.7027 -0.7115 0.7115 0.7027 -5.9048 536.5433)" class="st6" width="4.67" height="15.07"/>
				
					<rect x="643.98" y="269.58" transform="matrix(0.7027 -0.7115 0.7115 0.7027 -2.3243 541.129)" class="st6" width="4.67" height="7.54"/>
				
					<rect x="644.8" y="255.93" transform="matrix(0.7027 -0.7115 0.7115 0.7027 3.8653 539.2256)" class="st6" width="4.67" height="18.12"/>
				
					<rect x="652.73" y="259.29" transform="matrix(0.7027 -0.7115 0.7115 0.7027 7.1732 544.4678)" class="st6" width="4.67" height="8.72"/>
				
					<rect x="650.23" y="237.7" transform="matrix(0.7027 -0.7115 0.7115 0.7027 14.7075 539.2303)" class="st6" width="4.67" height="28.63"/>
				
					<rect x="659.63" y="244.6" transform="matrix(0.7027 -0.7115 0.7115 0.7027 17.4156 545.9544)" class="st6" width="4.67" height="15.07"/>
			</g>
			
				<rect x="605.94" y="227.82" transform="matrix(0.7032 -0.711 0.711 0.7032 20.0934 504.7782)" class="st0" width="17.42" height="1"/>
			<path class="st7" d="M623.99,241.09l0.78,9.47l6.68-6.77C629.4,241.77,626.66,240.87,623.99,241.09z"/>
			<path class="st3" d="M623.99,241.09c-2.19,0.18-4.33,1.11-5.99,2.79c-3.69,3.74-3.65,9.76,0.08,13.45l6.68-6.77L623.99,241.09z"
				/>
			<path class="st6" d="M631.54,257.25c3.69-3.74,3.65-9.76-0.08-13.45l-6.68,6.77l-6.68,6.77
				C621.83,261.02,627.85,260.98,631.54,257.25z"/>
			
				<rect x="627.22" y="233.86" transform="matrix(0.7027 -0.7115 0.7115 0.7027 19.6105 517.0033)" class="st6" width="2.36" height="2.36"/>
			
				<rect x="630.58" y="237.18" transform="matrix(0.7027 -0.7115 0.7115 0.7027 18.2481 520.3817)" class="st3" width="2.36" height="2.36"/>
			
				<rect x="633.94" y="240.5" transform="matrix(0.7027 -0.7115 0.7115 0.7027 16.8772 523.7413)" class="st7" width="2.36" height="2.36"/>
			
				<rect x="629.13" y="228.36" transform="matrix(0.7032 -0.711 0.711 0.7032 25.6013 519.0527)" class="st0" width="10.73" height="1"/>
			
				<rect x="632.49" y="231.68" transform="matrix(0.7031 -0.711 0.711 0.7031 24.2594 522.4709)" class="st0" width="10.73" height="1"/>
			
				<rect x="635.85" y="235" transform="matrix(0.7032 -0.7109 0.7109 0.7032 22.8557 525.7582)" class="st0" width="10.73" height="1"/>
		</g>
		<g>
			<g>
				<path class="st2" d="M673.32,231.97c3.35,6.48-0.17,9.11-4.83,12.7c-4.66,3.59-17.24,8.5-17.24,8.5
					c-3.31,1.35-4.51-1.3-3.61-1.87c0.46-0.24-1.8,0.77-2.26,0.96c-4.2,1.55-4.68-1.97-3.21-3c-3.03,1.74-5.15-1.45-3.29-2.72
					c-2.3,1-4.12-2-1.04-4.07c1.61-1.29,16.5-9.65,16.5-9.65l-3.75-3.61c6.54-2.06,11.03-1.77,12.81-1.8
					C666.73,227.36,671.3,228.07,673.32,231.97z"/>
				
					<rect x="646.63" y="247.97" transform="matrix(0.8534 -0.5213 0.5213 0.8534 -33.8737 376.5209)" class="st8" width="11.46" height="1"/>
				
					<rect x="641.28" y="245.21" transform="matrix(0.8693 -0.4942 0.4942 0.8693 -36.6891 352.6417)" class="st8" width="14.54" height="1"/>
				
					<rect x="637.9" y="241.91" transform="matrix(0.8706 -0.4919 0.4919 0.8706 -35.6769 349.1497)" class="st8" width="16.19" height="1"/>
			</g>
			<path class="st4" d="M665.1,222.56l-4.85,3.62c5.21,4.83,9.86,10.08,12.99,16.75l5.8-3.59
				C678.84,228.52,675.06,221.73,665.1,222.56z"/>
			<g>
				<g>
					<path class="st1" d="M676.6,241.97c-5.49-13.45-14.1-18.61-14.1-18.61l35.7-33.57c19.74-12.18,34.2,9.69,17.54,24.77
						c-9.46,8.97-23.33,19-37.24,26.5C676.06,242.36,676.6,241.97,676.6,241.97z"/>
				</g>
				<path class="st0" d="M670.6,216.21l-0.7-0.72l22.42-21.66c3.95-2.14,8.42-2.88,13.3-2.19l-0.14,0.99
					c-4.7-0.67-8.83,0-12.62,2.04L670.6,216.21z"/>
				<path class="st0" d="M676.82,242.42l-0.45-0.89c11.28-5.64,18.14-10.95,18.21-11.01l0.62,0.79
					C695.13,231.36,688.19,236.73,676.82,242.42z"/>
			</g>
		</g>
		<g>
			
				<rect x="627.55" y="93.75" transform="matrix(0.9998 -0.0175 0.0175 0.9998 -1.5524 11.0695)" class="st0" width="8.53" height="1"/>
			<path class="st2" d="M635.89,79.48c0,0-6.5,22.89-5.79,29.11c0.71,6.22,2.83,10.46,14.7,9.47c11.87-0.99,17.81-8.19,21.76-19.22
				C670.51,87.82,646.35,61.67,635.89,79.48z"/>
			<path class="st9" d="M641.56,118.7l-0.02-1c0.09,0,9.4-0.25,13.25-3.69l0.67,0.75C651.33,118.44,641.95,118.69,641.56,118.7z"/>
			<path class="st0" d="M637.75,68.72c0.79-0.9,1.7-1.73,2.77-2.23c1.14-0.53,2.4-0.67,3.64-0.76c3.99-1.46,8.52-2.37,12.7-1.16
				c4.28,1.24,7.29,5.12,10.46,8.05c2.61,2.42,4.33,5.2,5.57,8.55c0.73,1.96,1.16,4.08,1,6.18c-0.27,3.58-1,6.49-0.53,10.15
				c-0.92,10.8-9.63,14.19-9.63,14.19s-3.16-1.37-4.43-2.97c-0.61-0.76-1.18-1.6-1.46-2.55c-0.75-2.49,0.5-5.1,1.58-7.46
				c1.08-2.35,1.99-5.25,0.67-7.47c-1.17-1.96-4.04-2.47-5.75-1.02c-1.49,1.26-1.9,3.44-2.07,5.44c-1.2-0.57-2.05-1.87-2.13-3.25
				c-0.1-1.53,0.67-2.96,1.29-4.35c0.62-1.39,1.11-3.04,0.49-4.43c-0.25-0.56-0.67-1.03-1.11-1.45
				c-14.79-5.72-15.86,0.88-15.86,0.88s-0.21,0.75-0.53,1.95c-1.79-0.72-0.8-6.87-0.49-8.38C634.5,73.71,635.81,70.93,637.75,68.72z
				"/>
			<g>
				<g>
					<path class="st0" d="M629.46,102.11c-0.09,0-0.18-0.01-0.27-0.02c-0.54-0.08-1.02-0.41-1.39-0.94
						c-1.02-1.47-1.23-4.53-0.55-7.82c0.97-4.65,3.24-7.92,5.31-7.62c0.54,0.08,1.02,0.41,1.39,0.94c1.02,1.47,1.23,4.53,0.55,7.82
						C633.56,98.92,631.43,102.11,629.46,102.11z M632.28,86.7c-1.27,0-3.19,2.72-4.06,6.84c-0.62,2.98-0.47,5.81,0.39,7.04
						c0.21,0.31,0.46,0.48,0.72,0.52c1.23,0.19,3.29-2.57,4.18-6.83l0,0c0.62-2.98,0.47-5.81-0.39-7.04
						c-0.21-0.31-0.46-0.48-0.72-0.52C632.37,86.7,632.33,86.7,632.28,86.7z"/>
					<path class="st0" d="M639.17,103.56c-0.09,0-0.18-0.01-0.27-0.02c-0.54-0.08-1.02-0.41-1.39-0.94
						c-1.02-1.47-1.23-4.53-0.55-7.82c0.97-4.65,3.24-7.92,5.31-7.62c0.54,0.08,1.02,0.41,1.39,0.94c1.02,1.46,1.23,4.53,0.55,7.82
						l0,0C643.28,100.37,641.15,103.56,639.17,103.56z M642,88.15c-1.27,0-3.19,2.72-4.06,6.84c-0.62,2.98-0.47,5.81,0.39,7.04
						c0.21,0.31,0.46,0.48,0.72,0.52c1.25,0.19,3.29-2.57,4.18-6.83l0,0c0.62-2.98,0.47-5.81-0.39-7.04
						c-0.21-0.31-0.45-0.48-0.72-0.52C642.08,88.15,642.04,88.15,642,88.15z"/>
					<path class="st0" d="M638.34,91.71c-1.59-0.97-2.79-1.14-3.66-0.54l-0.57-0.82c1.21-0.84,2.81-0.68,4.75,0.51L638.34,91.71z"/>
				</g>
				
					<rect x="643.72" y="95.25" transform="matrix(0.9998 -0.0176 0.0176 0.9998 -1.5846 11.4176)" class="st0" width="8.53" height="1"/>
			</g>
		</g>
	</g>
	<g>
		<polygon class="st1" points="424.17,450.51 305.01,450.51 316.34,259.67 413.72,259.67 		"/>
		<polygon class="st1" points="424.17,450.51 305.01,450.51 316.34,259.67 413.72,259.67 		"/>
		<path class="st10" d="M584.44,393.85H144.75c-5.46,0-9.88-4.42-9.88-9.88V122.89c0-5.46,4.42-9.88,9.88-9.88h439.69
			c5.46,0,9.88,4.42,9.88,9.88v261.07C594.32,389.42,589.9,393.85,584.44,393.85z"/>
		<rect x="156.49" y="134.79" class="st4" width="416.21" height="237.28"/>
		<path class="st10" d="M492.99,450.51H236.2l0,0c0-6.83,5.53-12.36,12.36-12.36h232.07C487.46,438.15,492.99,443.68,492.99,450.51
			L492.99,450.51z"/>
		<g>
			<path class="st0" d="M370.82,125.58h-17.44c-1.12,0-2.03-0.91-2.03-2.03c0-1.12,0.91-2.03,2.03-2.03h17.44
				c1.12,0,2.03,0.91,2.03,2.03C372.85,124.67,371.94,125.58,370.82,125.58z M353.38,122.52c-0.57,0-1.03,0.46-1.03,1.03
				s0.46,1.03,1.03,1.03h17.44c0.57,0,1.03-0.46,1.03-1.03s-0.46-1.03-1.03-1.03H353.38z"/>
			<path class="st0" d="M375.73,125.58c-1.16,0-2.1-0.91-2.1-2.03c0-1.12,0.94-2.03,2.1-2.03c1.16,0,2.1,0.91,2.1,2.03
				C377.83,124.67,376.89,125.58,375.73,125.58z M375.73,122.52c-0.61,0-1.1,0.46-1.1,1.03s0.49,1.03,1.1,1.03
				c0.61,0,1.1-0.46,1.1-1.03S376.34,122.52,375.73,122.52z"/>
		</g>
		<rect x="308.38" y="393.35" class="st0" width="112.69" height="1"/>
		<rect x="305.95" y="437.65" class="st0" width="117.55" height="1"/>
	</g>
	<g>
		<rect x="191.45" y="134.79" class="st11" width="1" height="237.28"/>
		<rect x="173.28" y="134.79" class="st11" width="1" height="237.28"/>
		<rect x="209.63" y="134.79" class="st11" width="1" height="237.28"/>
		<rect x="227.8" y="134.79" class="st11" width="1" height="237.28"/>
		<rect x="245.97" y="134.79" class="st11" width="1" height="237.28"/>
		<rect x="282.32" y="134.79" class="st11" width="1" height="237.28"/>
		<rect x="264.14" y="134.79" class="st11" width="1" height="237.28"/>
		<rect x="300.49" y="134.79" class="st11" width="1" height="237.28"/>
		<rect x="318.66" y="134.79" class="st11" width="1" height="237.28"/>
		<rect x="336.84" y="134.79" class="st11" width="1" height="237.28"/>
		<rect x="373.18" y="134.79" class="st11" width="1" height="237.28"/>
		<rect x="355.01" y="134.79" class="st11" width="1" height="237.28"/>
		<rect x="391.35" y="134.79" class="st11" width="1" height="237.28"/>
		<rect x="409.53" y="134.79" class="st11" width="1" height="237.28"/>
		<rect x="427.7" y="134.79" class="st11" width="1" height="237.28"/>
		<rect x="464.04" y="134.79" class="st11" width="1" height="237.28"/>
		<rect x="445.87" y="134.79" class="st11" width="1" height="237.28"/>
		<rect x="482.22" y="134.79" class="st11" width="1" height="237.28"/>
		<rect x="500.39" y="134.79" class="st11" width="1" height="237.28"/>
		<rect x="518.56" y="134.79" class="st11" width="1" height="237.28"/>
		<rect x="536.73" y="134.79" class="st11" width="1" height="237.28"/>
		<rect x="554.91" y="134.79" class="st11" width="1" height="237.28"/>
	</g>
	<g>
		<g>
			<rect x="300.49" y="180.49" class="st0" width="1" height="44.05"/>
			<path class="st3" d="M308.03,216.46c-0.91,1.1-13.38,1.22-14.24,0c-0.85-1.22-0.55-26.88,0-27.93c0.55-1.05,13.32-1.14,14.24,0
				C308.94,189.67,308.94,215.36,308.03,216.46z"/>
		</g>
		<g>
			<rect x="373.18" y="157.25" class="st0" width="1" height="79.55"/>
			<path class="st3" d="M380.72,213.89c-0.91,1.1-13.38,1.22-14.24,0c-0.85-1.22-0.55-26.88,0-27.93s13.32-1.14,14.24,0
				C381.63,187.1,381.63,212.79,380.72,213.89z"/>
		</g>
		<g>
			<rect x="246.11" y="152.6" class="st0" width="1" height="79.55"/>
			<path class="st3" d="M253.65,209.24c-0.91,1.1-13.38,1.22-14.24,0c-0.85-1.22-0.55-26.88,0-27.93c0.55-1.05,13.32-1.14,14.24,0
				C254.56,182.46,254.56,208.15,253.65,209.24z"/>
		</g>
		<g>
			<rect x="409.53" y="133.07" class="st0" width="1" height="79.55"/>
			<path class="st3" d="M417.07,189.71c-0.91,1.1-13.38,1.22-14.24,0c-0.85-1.22-0.55-26.88,0-27.93s13.32-1.14,14.24,0
				C417.98,162.92,417.98,188.61,417.07,189.71z"/>
		</g>
		<g>
			<rect x="500.35" y="86.57" class="st0" width="1" height="51"/>
			<path class="st3" d="M507.89,122.88c-0.91,1.1-13.39,1.22-14.24,0c-0.85-1.22-0.55-19.97,0-21.02c0.55-1.05,13.32-1.14,14.24,0
				C508.8,103,508.8,121.79,507.89,122.88z"/>
		</g>
		<g>
			<rect x="482.22" y="97.65" class="st0" width="1" height="51"/>
			<path class="st3" d="M489.76,133.96c-0.91,1.1-13.39,1.22-14.24,0c-0.85-1.22-0.55-19.97,0-21.02c0.55-1.05,13.32-1.14,14.24,0
				C490.67,114.08,490.67,132.87,489.76,133.96z"/>
		</g>
		<g>
			<rect x="536.73" y="64.03" class="st0" width="1" height="51"/>
			<path class="st3" d="M544.28,100.34c-0.91,1.1-13.39,1.22-14.24,0c-0.85-1.22-0.55-19.97,0-21.02c0.55-1.05,13.32-1.14,14.24,0
				S545.19,99.25,544.28,100.34z"/>
		</g>
		<g>
			<rect x="227.8" y="143.21" class="st0" width="1" height="59.27"/>
			<path class="st3" d="M235.34,192.35c-0.91,1.1-13.39,1.22-14.24,0c-0.85-1.22-0.55-26.88,0-27.93c0.55-1.05,13.32-1.14,14.24,0
				C236.25,165.57,236.25,191.26,235.34,192.35z"/>
		</g>
		<g>
			<rect x="264.14" y="169.48" class="st0" width="1" height="41.53"/>
			<path class="st3" d="M271.69,188.37c-0.91,1.1-13.39,1.22-14.24,0c-0.85-1.22-0.55-10.91,0-11.96c0.55-1.05,13.32-1.14,14.24,0
				C272.6,177.55,272.6,187.28,271.69,188.37z"/>
		</g>
		<g>
			<rect x="318.66" y="169.48" class="st0" width="1" height="41.53"/>
			<path class="st3" d="M326.2,188.37c-0.91,1.1-13.38,1.22-14.24,0c-0.85-1.22-0.55-10.91,0-11.96c0.55-1.05,13.32-1.14,14.24,0
				C327.12,177.55,327.12,187.28,326.2,188.37z"/>
		</g>
		<g>
			<rect x="209.63" y="150.85" class="st0" width="1" height="41.53"/>
			<path class="st3" d="M217.17,169.74c-0.91,1.1-13.39,1.22-14.24,0c-0.85-1.22-0.55-10.91,0-11.96c0.55-1.05,13.32-1.14,14.24,0
				C218.08,158.92,218.08,168.64,217.17,169.74z"/>
		</g>
		<g>
			<rect x="391.35" y="171.61" class="st0" width="1" height="41.53"/>
			<path class="st3" d="M398.89,190.5c-0.91,1.1-13.38,1.22-14.24,0c-0.85-1.22-0.55-10.91,0-11.96s13.32-1.14,14.24,0
				C399.81,179.68,399.81,189.41,398.89,190.5z"/>
		</g>
		<g>
			<rect x="464.04" y="99.47" class="st0" width="1" height="41.53"/>
			<path class="st3" d="M471.59,118.36c-0.91,1.1-13.39,1.22-14.24,0c-0.85-1.22-0.55-10.91,0-11.96c0.55-1.05,13.32-1.14,14.24,0
				C472.5,107.54,472.5,117.26,471.59,118.36z"/>
		</g>
		<g>
			<rect x="554.91" y="64.89" class="st0" width="1" height="41.53"/>
			<path class="st3" d="M562.45,83.78c-0.91,1.1-13.39,1.22-14.24,0c-0.85-1.22-0.55-10.91,0-11.96c0.55-1.05,13.32-1.14,14.24,0
				C563.36,72.96,563.36,82.69,562.45,83.78z"/>
		</g>
		<g>
			<rect x="173.28" y="122.15" class="st0" width="1" height="71.62"/>
			<path class="st3" d="M180.82,181.86c-0.91,1.1-13.39,1.22-14.24,0c-0.85-1.22-0.55-35.66,0-36.71c0.55-1.05,13.32-1.14,14.24,0
				C181.74,146.29,181.74,180.76,180.82,181.86z"/>
		</g>
		<g>
			<rect x="427.7" y="115.04" class="st0" width="1" height="71.62"/>
			<path class="st3" d="M435.24,174.74c-0.91,1.1-13.39,1.22-14.24,0c-0.85-1.22-0.55-35.66,0-36.71s13.32-1.14,14.24,0
				C436.15,139.18,436.15,173.65,435.24,174.74z"/>
		</g>
		<g>
			<rect x="191.45" y="87.25" class="st0" width="1" height="89.06"/>
			<path class="st3" d="M199,156.95c-0.91,1.1-13.39,1.22-14.24,0c-0.85-1.22-0.55-59.16,0-60.21c0.55-1.05,13.32-1.14,14.24,0
				S199.91,155.85,199,156.95z"/>
		</g>
		<g>
			<rect x="518.56" y="79.4" class="st0" width="1" height="80.51"/>
			<path class="st3" d="M526.1,140.55c-0.91,1.1-13.39,1.22-14.24,0c-0.85-1.22-0.55-50.61,0-51.66c0.55-1.05,13.32-1.14,14.24,0
				C527.02,90.03,527.02,139.45,526.1,140.55z"/>
		</g>
		<g>
			<rect x="355.01" y="190.79" class="st0" width="1" height="76.6"/>
			<path class="st3" d="M362.55,248.02c-0.91,1.1-13.38,1.22-14.24,0c-0.85-1.22-0.55-46.7,0-47.75c0.55-1.05,13.32-1.14,14.24,0
				C363.46,201.41,363.46,246.93,362.55,248.02z"/>
		</g>
		<g>
			<rect x="445.87" y="107.92" class="st0" width="1" height="50.3"/>
			<path class="st3" d="M453.41,151.05c-0.91,1.1-13.39,1.22-14.24,0c-0.85-1.22-0.55-35.66,0-36.71c0.55-1.05,13.32-1.14,14.24,0
				C454.33,115.48,454.33,149.95,453.41,151.05z"/>
		</g>
		<g>
			<rect x="282.32" y="194.76" class="st0" width="1" height="50.3"/>
			<path class="st3" d="M289.86,237.89c-0.91,1.1-13.39,1.22-14.24,0c-0.85-1.22-0.55-35.66,0-36.71c0.55-1.05,13.32-1.14,14.24,0
				C290.77,202.32,290.77,236.8,289.86,237.89z"/>
		</g>
		<g>
			<rect x="336.84" y="176.78" class="st0" width="1" height="50.31"/>
			<path class="st3" d="M344.38,219.91c-0.91,1.1-13.38,1.22-14.24,0c-0.85-1.22-0.55-35.66,0-36.71c0.55-1.05,13.32-1.14,14.24,0
				C345.29,184.34,345.29,218.82,344.38,219.91z"/>
		</g>
	</g>
	<g>
		<g>
			<rect x="156.5" y="254.3" class="st7" width="53.62" height="117.77"/>
		</g>
		<g>
			<rect x="228.3" y="285.24" class="st7" width="54.52" height="86.83"/>
		</g>
		<g>
			<rect x="300.82" y="340.28" class="st7" width="54.52" height="31.78"/>
		</g>
		<g>
			<rect x="446.37" y="302.33" class="st7" width="54.52" height="69.73"/>
		</g>
		<g>
			<rect x="518.17" y="218.19" class="st7" width="54.52" height="153.88"/>
		</g>
		<g>
			<rect x="373.68" y="258.25" class="st7" width="54.52" height="113.82"/>
		</g>
	</g>
	<g>
		<g>
			<path class="st7" d="M298.39,93.21c-1.54-4.29-4.38-8.09-8.46-10.55c-13.07-7.87-33.68-4.45-38.52,11.58
				c-4.23,13.99,6,28.84,20.59,29.54c8.02,0.38,16.88-2.11,22.39-8.25C299.81,109.49,301.04,100.61,298.39,93.21z"/>
			<path class="st12" d="M292.84,95.12c-1.17-3.27-3.33-6.16-6.44-8.04c-9.95-5.99-25.65-3.39-29.34,8.82
				c-3.22,10.66,4.57,21.97,15.68,22.5c6.11,0.29,12.86-1.61,17.05-6.28C293.91,107.51,294.85,100.75,292.84,95.12z"/>
			<path class="st13" d="M285.3,87.03c-1.74-0.93-3.65-1.63-5.68-2.05l0.21-0.98c2.12,0.45,4.12,1.17,5.95,2.15L285.3,87.03z"/>
			<path class="st13" d="M293.28,107.23l-0.94-0.34c1.34-3.66,1.35-7.88,0.03-11.59c-0.73-2.05-1.82-3.85-3.24-5.36l0.73-0.68
				c1.51,1.61,2.68,3.53,3.45,5.71C294.71,98.88,294.7,103.35,293.28,107.23z"/>
			<path class="st13" d="M274,118.93c-0.43,0-0.86-0.01-1.29-0.03c-5.39-0.26-10.31-3.01-13.52-7.54
				c-3.26-4.62-4.22-10.31-2.62-15.6c2.12-7.02,8.31-11.59,16.55-12.2l0.07,1c-7.81,0.58-13.67,4.88-15.66,11.49
				c-1.51,4.99-0.6,10.36,2.48,14.73c3.03,4.28,7.67,6.88,12.75,7.12c6.72,0.32,12.93-1.97,16.65-6.12
				c0.71-0.79,1.34-1.67,1.87-2.61l0.87,0.49c-0.56,1-1.23,1.94-1.99,2.78C286.48,116.55,280.51,118.93,274,118.93z"/>
			<g>
				<path class="st4" d="M281.21,104.41c0,1.6-0.46,2.88-1.39,3.85c-0.92,0.97-2.04,1.6-3.36,1.91v1.97c0,0.72-0.07,1.22-0.2,1.51
					c-0.13,0.29-0.33,0.48-0.59,0.58c-0.26,0.1-0.6,0.15-1.03,0.15c-0.43,0-0.77-0.05-1.03-0.15c-0.26-0.1-0.44-0.29-0.54-0.55
					c-0.14-0.35-0.22-0.87-0.22-1.57v-1.91c-0.84-0.18-1.6-0.49-2.28-0.92c-0.68-0.43-1.15-0.81-1.42-1.14l-0.4-0.52
					c-0.43-0.55-0.65-1.04-0.65-1.45c0-0.41,0.35-0.95,1.05-1.63c0.41-0.39,0.85-0.59,1.31-0.59c0.46,0,1.1,0.41,1.92,1.23
					c0.64,0.78,1.36,1.17,2.16,1.17c1.52,0,2.28-0.63,2.28-1.88c0-0.45-0.29-0.8-0.86-1.05c-0.58-0.25-1.27-0.47-2.09-0.66
					c-0.82-0.19-1.64-0.46-2.46-0.79c-0.82-0.33-1.52-0.89-2.09-1.69c-0.58-0.8-0.86-1.82-0.86-3.05s0.39-2.34,1.17-3.33
					c0.78-0.99,1.86-1.62,3.23-1.91v-1.73c0-0.7,0.06-1.2,0.18-1.51c0.2-0.49,0.75-0.74,1.63-0.74c0.55,0,0.97,0.12,1.25,0.35
					c0.28,0.24,0.44,0.49,0.48,0.75c0.04,0.27,0.06,0.66,0.06,1.17v1.72c0.58,0.12,1.1,0.3,1.57,0.52c0.47,0.23,0.8,0.41,0.99,0.55
					l0.28,0.25l0.12,0.09c0.51,0.47,0.77,0.86,0.77,1.17c0,0.31-0.24,0.82-0.72,1.54c-0.48,0.72-1.01,1.08-1.59,1.08
					c-0.37,0-0.68-0.09-0.94-0.28c-0.26-0.18-0.46-0.34-0.6-0.46c-0.14-0.12-0.28-0.23-0.4-0.31c-0.35-0.23-0.79-0.34-1.32-0.34
					c-0.53,0-0.98,0.13-1.32,0.39s-0.52,0.61-0.52,1.06c0,0.45,0.21,0.82,0.63,1.09c0.42,0.28,0.94,0.46,1.56,0.55
					c0.62,0.09,1.29,0.25,2.03,0.46c0.74,0.22,1.42,0.47,2.03,0.75c0.62,0.29,1.13,0.8,1.56,1.52
					C281,102.42,281.21,103.33,281.21,104.41z"/>
			</g>
			<rect x="274.59" y="64.74" class="st13" width="1" height="8.1"/>
			<rect x="269.1" y="68.79" class="st13" width="1" height="8.1"/>
			<rect x="279.99" y="69.97" class="st13" width="1" height="5.74"/>
		</g>
		<g>
			<path class="st7" d="M351.38,261.87c-1.54-4.29-4.38-8.09-8.46-10.55c-13.07-7.87-33.68-4.45-38.52,11.58
				c-4.23,13.99,6,28.84,20.59,29.54c8.02,0.38,16.88-2.11,22.38-8.25C352.8,278.14,354.03,269.27,351.38,261.87z"/>
			<path class="st12" d="M345.83,263.78c-1.17-3.27-3.33-6.16-6.44-8.04c-9.95-5.99-25.65-3.39-29.34,8.82
				c-3.22,10.66,4.57,21.97,15.68,22.5c6.11,0.29,12.86-1.61,17.05-6.28C346.91,276.17,347.84,269.41,345.83,263.78z"/>
			<path class="st13" d="M338.29,255.69c-1.74-0.93-3.65-1.63-5.68-2.05l0.21-0.98c2.12,0.45,4.12,1.17,5.95,2.15L338.29,255.69z"/>
			<path class="st13" d="M346.27,275.89l-0.94-0.34c1.34-3.66,1.35-7.88,0.03-11.59c-0.73-2.05-1.82-3.85-3.24-5.36l0.73-0.68
				c1.51,1.61,2.67,3.53,3.45,5.71C347.7,267.54,347.69,272.01,346.27,275.89z"/>
			<path class="st13" d="M326.99,287.59c-0.43,0-0.86-0.01-1.29-0.03c-5.39-0.26-10.31-3.01-13.52-7.55
				c-3.26-4.62-4.22-10.31-2.62-15.6c2.12-7.02,8.31-11.59,16.55-12.2l0.07,1c-7.81,0.58-13.67,4.88-15.66,11.49
				c-1.51,4.99-0.6,10.36,2.48,14.73c3.03,4.28,7.67,6.88,12.75,7.12c6.71,0.32,12.93-1.97,16.65-6.12
				c0.71-0.79,1.34-1.67,1.87-2.61l0.87,0.49c-0.56,1-1.24,1.94-1.99,2.78C339.47,285.21,333.5,287.59,326.99,287.59z"/>
			<g>
				<path class="st4" d="M334.21,273.07c0,1.6-0.46,2.89-1.39,3.85c-0.92,0.97-2.04,1.6-3.36,1.91v1.97c0,0.72-0.07,1.22-0.2,1.51
					c-0.13,0.29-0.33,0.48-0.59,0.58c-0.26,0.1-0.6,0.15-1.03,0.15c-0.43,0-0.77-0.05-1.03-0.15c-0.26-0.1-0.44-0.29-0.54-0.55
					c-0.14-0.35-0.22-0.87-0.22-1.57v-1.91c-0.84-0.18-1.6-0.49-2.28-0.92c-0.68-0.43-1.15-0.81-1.42-1.14l-0.4-0.52
					c-0.43-0.55-0.65-1.04-0.65-1.45c0-0.41,0.35-0.95,1.05-1.63c0.41-0.39,0.85-0.59,1.31-0.59c0.46,0,1.1,0.41,1.92,1.23
					c0.64,0.78,1.36,1.17,2.16,1.17c1.52,0,2.28-0.63,2.28-1.88c0-0.45-0.29-0.8-0.86-1.05c-0.58-0.25-1.27-0.47-2.09-0.66
					c-0.82-0.19-1.64-0.46-2.46-0.79c-0.82-0.33-1.52-0.89-2.09-1.69c-0.58-0.8-0.86-1.82-0.86-3.05c0-1.23,0.39-2.34,1.17-3.33
					c0.78-0.99,1.86-1.62,3.23-1.91v-1.73c0-0.7,0.06-1.2,0.18-1.51c0.2-0.49,0.75-0.74,1.63-0.74c0.55,0,0.97,0.12,1.25,0.35
					c0.28,0.24,0.44,0.49,0.48,0.75c0.04,0.27,0.06,0.66,0.06,1.17v1.72c0.58,0.12,1.1,0.3,1.57,0.52c0.47,0.23,0.8,0.41,0.99,0.55
					l0.28,0.25l0.12,0.09c0.51,0.47,0.77,0.86,0.77,1.17c0,0.31-0.24,0.82-0.72,1.54c-0.48,0.72-1.01,1.08-1.59,1.08
					c-0.37,0-0.68-0.09-0.94-0.28c-0.26-0.18-0.46-0.34-0.6-0.46c-0.14-0.12-0.28-0.23-0.4-0.31c-0.35-0.23-0.79-0.34-1.32-0.34
					c-0.53,0-0.98,0.13-1.32,0.39c-0.35,0.26-0.52,0.61-0.52,1.06c0,0.45,0.21,0.82,0.63,1.09c0.42,0.28,0.94,0.46,1.56,0.55
					c0.62,0.09,1.29,0.25,2.03,0.46c0.74,0.22,1.42,0.47,2.03,0.75c0.62,0.29,1.13,0.8,1.56,1.52
					C333.99,271.08,334.21,271.98,334.21,273.07z"/>
			</g>
			<rect x="327.58" y="233.4" class="st13" width="1" height="8.1"/>
			<rect x="322.09" y="237.45" class="st13" width="1" height="8.1"/>
			<rect x="332.98" y="238.63" class="st13" width="1" height="5.74"/>
		</g>
		<g>
			<path class="st7" d="M496.71,197.69c-1.54-4.29-4.38-8.09-8.46-10.55c-13.07-7.87-33.68-4.45-38.52,11.58
				c-4.23,13.99,6,28.84,20.59,29.54c8.02,0.38,16.88-2.11,22.38-8.25C498.13,213.96,499.36,205.09,496.71,197.69z"/>
			<path class="st12" d="M491.16,199.59c-1.17-3.27-3.33-6.16-6.44-8.04c-9.95-5.99-25.65-3.39-29.34,8.82
				c-3.22,10.66,4.57,21.97,15.68,22.5c6.11,0.29,12.86-1.61,17.05-6.28C492.23,211.99,493.17,205.23,491.16,199.59z"/>
			<path class="st13" d="M483.62,191.51c-1.74-0.93-3.66-1.63-5.68-2.05l0.21-0.98c2.12,0.45,4.12,1.17,5.95,2.15L483.62,191.51z"/>
			<path class="st13" d="M491.6,211.7l-0.94-0.34c1.34-3.66,1.35-7.88,0.03-11.59c-0.73-2.05-1.82-3.85-3.24-5.36l0.73-0.68
				c1.51,1.61,2.67,3.53,3.45,5.71C493.03,203.35,493.02,207.83,491.6,211.7z"/>
			<path class="st13" d="M472.32,223.41c-0.43,0-0.86-0.01-1.29-0.03c-5.39-0.26-10.31-3.01-13.52-7.54
				c-3.26-4.62-4.22-10.31-2.62-15.6c2.12-7.02,8.31-11.59,16.55-12.2l0.07,1c-7.81,0.58-13.67,4.88-15.66,11.49
				c-1.51,4.99-0.6,10.36,2.48,14.73c3.03,4.28,7.67,6.88,12.75,7.12c6.71,0.32,12.93-1.97,16.65-6.12
				c0.71-0.79,1.34-1.67,1.87-2.61l0.87,0.49c-0.57,1-1.24,1.94-1.99,2.78C484.8,221.03,478.83,223.41,472.32,223.41z"/>
			<g>
				<path class="st4" d="M479.53,208.89c0,1.6-0.46,2.88-1.39,3.85c-0.92,0.97-2.04,1.6-3.36,1.91v1.97c0,0.72-0.07,1.22-0.2,1.51
					c-0.13,0.29-0.33,0.48-0.59,0.59c-0.26,0.1-0.6,0.15-1.03,0.15c-0.43,0-0.77-0.05-1.03-0.15c-0.26-0.1-0.44-0.29-0.54-0.55
					c-0.14-0.35-0.22-0.87-0.22-1.57v-1.91c-0.84-0.18-1.6-0.49-2.28-0.92c-0.68-0.43-1.15-0.81-1.42-1.14l-0.4-0.52
					c-0.43-0.55-0.65-1.04-0.65-1.45c0-0.41,0.35-0.95,1.05-1.63c0.41-0.39,0.85-0.59,1.31-0.59c0.46,0,1.1,0.41,1.92,1.23
					c0.64,0.78,1.36,1.17,2.16,1.17c1.52,0,2.28-0.63,2.28-1.88c0-0.45-0.29-0.8-0.86-1.05c-0.58-0.25-1.27-0.47-2.09-0.66
					c-0.82-0.19-1.64-0.46-2.46-0.79c-0.82-0.33-1.52-0.89-2.09-1.69c-0.58-0.8-0.86-1.82-0.86-3.05s0.39-2.34,1.17-3.33
					c0.78-0.99,1.86-1.62,3.23-1.91v-1.73c0-0.7,0.06-1.2,0.18-1.51c0.2-0.49,0.75-0.74,1.63-0.74c0.55,0,0.97,0.12,1.25,0.35
					c0.28,0.24,0.44,0.49,0.48,0.75c0.04,0.27,0.06,0.66,0.06,1.17v1.72c0.58,0.12,1.1,0.3,1.57,0.52c0.47,0.23,0.8,0.41,0.99,0.55
					l0.28,0.25l0.12,0.09c0.51,0.47,0.77,0.86,0.77,1.17c0,0.31-0.24,0.82-0.72,1.54c-0.48,0.72-1.01,1.08-1.59,1.08
					c-0.37,0-0.68-0.09-0.94-0.28c-0.26-0.18-0.46-0.34-0.6-0.46c-0.14-0.12-0.28-0.23-0.4-0.31c-0.35-0.23-0.79-0.34-1.32-0.34
					c-0.53,0-0.98,0.13-1.32,0.39c-0.35,0.26-0.52,0.61-0.52,1.06c0,0.45,0.21,0.82,0.63,1.09c0.42,0.28,0.94,0.46,1.56,0.55
					c0.62,0.09,1.29,0.25,2.03,0.46c0.74,0.22,1.42,0.47,2.03,0.75c0.62,0.29,1.13,0.8,1.56,1.52
					C479.32,206.89,479.53,207.8,479.53,208.89z"/>
			</g>
			<rect x="472.91" y="169.21" class="st13" width="1" height="8.1"/>
			<rect x="467.42" y="173.26" class="st13" width="1" height="8.1"/>
			<rect x="478.31" y="174.45" class="st13" width="1" height="5.74"/>
		</g>
	</g>
	<g>
		<g>
			<polygon class="st0" points="32.45,404.15 29.62,401.32 83.21,347.73 154.54,347.73 198.13,304.14 272.49,304.14 290.6,322.26 
				326.02,322.26 370.11,278.16 437.54,278.16 467.24,248.46 519.45,248.46 576.87,191.03 621.51,191.03 663.49,149.05 
				666.32,151.88 623.17,195.03 578.53,195.03 521.1,252.46 468.9,252.46 439.2,282.16 371.77,282.16 327.67,326.26 288.94,326.26 
				270.83,308.14 199.78,308.14 156.19,351.73 84.87,351.73 			"/>
			<polygon class="st0" points="666.91,170.17 662.91,170.17 662.91,152.46 645.36,152.46 645.36,148.46 666.91,148.46 			"/>
		</g>
		<g>
			<g>
				<path class="st6" d="M95.47,346.54c-0.66-1.84-1.87-3.47-3.63-4.52c-5.6-3.37-14.43-1.91-16.5,4.96
					c-1.81,5.99,2.57,12.36,8.82,12.65c3.44,0.16,7.23-0.91,9.59-3.54C96.07,353.52,96.6,349.71,95.47,346.54z"/>
				<path class="st4" d="M89.88,348.46c-0.29-0.81-0.83-1.53-1.6-1.99c-2.46-1.48-6.35-0.84-7.26,2.18
					c-0.8,2.64,1.13,5.44,3.88,5.57c1.51,0.07,3.18-0.4,4.22-1.56C90.14,351.53,90.38,349.86,89.88,348.46z"/>
			</g>
			<g>
				<path class="st6" d="M167.05,346.54c-0.66-1.84-1.87-3.47-3.63-4.52c-5.6-3.37-14.43-1.91-16.5,4.96
					c-1.81,5.99,2.57,12.36,8.82,12.65c3.44,0.16,7.23-0.91,9.59-3.54C167.66,353.52,168.19,349.71,167.05,346.54z"/>
				<path class="st4" d="M161.47,348.46c-0.29-0.81-0.83-1.53-1.6-1.99c-2.46-1.48-6.35-0.84-7.26,2.18
					c-0.8,2.64,1.13,5.44,3.88,5.57c1.51,0.07,3.18-0.4,4.22-1.56C161.73,351.53,161.97,349.86,161.47,348.46z"/>
			</g>
			<g>
				<path class="st6" d="M208.62,303.17c-0.66-1.84-1.87-3.47-3.63-4.52c-5.6-3.37-14.43-1.91-16.5,4.96
					c-1.81,5.99,2.57,12.36,8.82,12.65c3.44,0.16,7.23-0.91,9.59-3.54C209.23,310.14,209.75,306.34,208.62,303.17z"/>
				<path class="st4" d="M203.03,305.09c-0.29-0.81-0.83-1.53-1.6-1.99c-2.46-1.48-6.35-0.84-7.26,2.18
					c-0.8,2.64,1.13,5.44,3.88,5.57c1.51,0.07,3.18-0.4,4.22-1.56C203.3,308.16,203.53,306.49,203.03,305.09z"/>
			</g>
			<g>
				<path class="st6" d="M282.52,303.17c-0.66-1.84-1.87-3.47-3.63-4.52c-5.6-3.37-14.43-1.91-16.5,4.96
					c-1.81,5.99,2.57,12.36,8.82,12.65c3.44,0.16,7.23-0.91,9.59-3.54C283.13,310.14,283.65,306.34,282.52,303.17z"/>
				<path class="st4" d="M276.93,305.09c-0.29-0.81-0.83-1.53-1.6-1.99c-2.46-1.48-6.35-0.84-7.26,2.18
					c-0.8,2.64,1.13,5.44,3.88,5.57c1.51,0.07,3.18-0.4,4.22-1.56C277.2,308.16,277.43,306.49,276.93,305.09z"/>
			</g>
			<g>
				<path class="st6" d="M299.97,320.62c-0.66-1.84-1.87-3.47-3.63-4.52c-5.6-3.37-14.43-1.9-16.5,4.96
					c-1.81,5.99,2.57,12.36,8.82,12.65c3.44,0.16,7.23-0.91,9.59-3.54C300.58,327.6,301.11,323.79,299.97,320.62z"/>
				<path class="st4" d="M294.38,322.54c-0.29-0.81-0.83-1.53-1.6-1.99c-2.46-1.48-6.35-0.84-7.26,2.18
					c-0.8,2.64,1.13,5.44,3.88,5.57c1.51,0.07,3.18-0.4,4.22-1.56C294.65,325.61,294.88,323.94,294.38,322.54z"/>
			</g>
			<g>
				<path class="st6" d="M336.84,320.62c-0.66-1.84-1.87-3.47-3.63-4.52c-5.6-3.37-14.43-1.9-16.5,4.96
					c-1.81,5.99,2.57,12.36,8.82,12.65c3.44,0.16,7.23-0.91,9.59-3.54C337.45,327.6,337.98,323.79,336.84,320.62z"/>
				<path class="st4" d="M331.26,322.54c-0.29-0.81-0.83-1.53-1.6-1.99c-2.46-1.48-6.35-0.84-7.26,2.18
					c-0.8,2.64,1.13,5.44,3.88,5.57c1.51,0.07,3.18-0.4,4.22-1.56C331.52,325.61,331.75,323.94,331.26,322.54z"/>
			</g>
			<g>
				<path class="st6" d="M380.69,277.55c-0.66-1.84-1.87-3.47-3.63-4.52c-5.6-3.37-14.43-1.91-16.5,4.96
					c-1.81,5.99,2.57,12.36,8.82,12.65c3.44,0.16,7.23-0.91,9.59-3.54C381.3,284.52,381.83,280.72,380.69,277.55z"/>
				<path class="st4" d="M375.1,279.46c-0.29-0.81-0.83-1.53-1.6-1.99c-2.46-1.48-6.35-0.84-7.26,2.18
					c-0.8,2.64,1.13,5.44,3.88,5.57c1.51,0.07,3.18-0.4,4.22-1.56C375.37,282.53,375.6,280.86,375.1,279.46z"/>
			</g>
			<g>
				<path class="st6" d="M450.2,277.55c-0.66-1.84-1.87-3.47-3.63-4.52c-5.6-3.37-14.43-1.91-16.5,4.96
					c-1.81,5.99,2.57,12.36,8.82,12.65c3.44,0.16,7.23-0.91,9.59-3.54C450.8,284.52,451.33,280.72,450.2,277.55z"/>
				<path class="st4" d="M444.61,279.46c-0.29-0.81-0.83-1.53-1.6-1.99c-2.46-1.48-6.35-0.84-7.26,2.18
					c-0.8,2.64,1.13,5.44,3.88,5.57c1.51,0.07,3.18-0.4,4.22-1.56C444.88,282.53,445.11,280.86,444.61,279.46z"/>
			</g>
			<g>
				<path class="st6" d="M479.16,246.83c-0.66-1.84-1.87-3.47-3.63-4.52c-5.6-3.37-14.43-1.9-16.5,4.96
					c-1.81,5.99,2.57,12.36,8.82,12.65c3.44,0.16,7.23-0.91,9.59-3.54C479.77,253.8,480.3,250,479.16,246.83z"/>
				<path class="st4" d="M473.57,248.75c-0.29-0.81-0.83-1.53-1.6-1.99c-2.46-1.48-6.35-0.84-7.26,2.18
					c-0.8,2.64,1.13,5.44,3.88,5.57c1.51,0.07,3.18-0.4,4.22-1.56C473.84,251.82,474.07,250.14,473.57,248.75z"/>
			</g>
			<g>
				<path class="st6" d="M530.21,246.83c-0.66-1.84-1.87-3.47-3.63-4.52c-5.6-3.37-14.43-1.9-16.5,4.96
					c-1.81,5.99,2.57,12.36,8.82,12.65c3.44,0.16,7.23-0.91,9.59-3.54C530.82,253.8,531.35,250,530.21,246.83z"/>
				<path class="st4" d="M524.62,248.75c-0.29-0.81-0.83-1.53-1.6-1.99c-2.46-1.48-6.35-0.84-7.26,2.18
					c-0.8,2.64,1.13,5.44,3.88,5.57c1.51,0.07,3.18-0.4,4.22-1.56C524.89,251.82,525.12,250.14,524.62,248.75z"/>
			</g>
			<g>
				<path class="st6" d="M588.02,189.96c-0.66-1.84-1.87-3.47-3.63-4.52c-5.6-3.37-14.43-1.9-16.5,4.96
					c-1.81,5.99,2.57,12.36,8.82,12.65c3.44,0.16,7.23-0.91,9.59-3.54C588.63,196.94,589.16,193.13,588.02,189.96z"/>
				<path class="st4" d="M582.43,191.88c-0.29-0.81-0.83-1.53-1.6-1.99c-2.46-1.48-6.35-0.84-7.26,2.18
					c-0.8,2.64,1.13,5.44,3.88,5.57c1.51,0.07,3.18-0.4,4.22-1.56C582.7,194.95,582.93,193.28,582.43,191.88z"/>
			</g>
			<g>
				<path class="st6" d="M631.74,189.96c-0.66-1.84-1.87-3.47-3.63-4.52c-5.6-3.37-14.43-1.9-16.5,4.96
					c-1.81,5.99,2.57,12.36,8.82,12.65c3.44,0.16,7.23-0.91,9.59-3.54C632.34,196.94,632.87,193.13,631.74,189.96z"/>
				<path class="st4" d="M626.15,191.88c-0.29-0.81-0.83-1.53-1.6-1.99c-2.46-1.48-6.35-0.84-7.26,2.18
					c-0.8,2.64,1.13,5.44,3.88,5.57c1.51,0.07,3.18-0.4,4.22-1.56C626.42,194.95,626.65,193.28,626.15,191.88z"/>
			</g>
		</g>
	</g>
	<g>
		<path class="st0" d="M136.02,434.59c-1.09,5.43-1.55,10.75-1.16,15.92h48.99c0.96-4.18,0.54-6.53-10.26-9.61
			c-6.25-1.63-14.24-6.72-14.24-6.72L136.02,434.59z"/>
		<path class="st0" d="M68.95,434.59c-1.09,5.43-1.55,10.75-1.16,15.92l42.96,0c0,0,0-6.94-8.12-9.61
			c-7.18-2.5-10.35-6.72-10.35-6.72L68.95,434.59z"/>
		<path class="st3" d="M67.06,235c-13.52,38.1-2.78,190.11-0.4,199.64c4.22,2.55,14.11,2.42,28.88,0
			c2.45-69.14,3.3-172.73,3.3-172.73l0.94-0.02l33.76,172.75c3.39,2.77,13.87,2.21,27.83,0c-6.85-83.18-14.6-161.39-29.29-201.25
			L67.06,235z"/>
		<path class="st2" d="M88.27,118.48l1.01-22.28l9.69-14.68l12.92-10.06l5.76,0.92c0,0,4.85,9.96,5.35,14.89
			c0.5,4.93,3.13,6.98,3.13,8.42c0,1.44-3.64,3.08-3.64,3.08s2.72,13.98-2.93,15.62c-3.78,0.54-7.23,0.7-10.4,0.5l-0.2,11.91
			L88.27,118.48z"/>
		<path class="st0" d="M89.28,105.24c-13.5-12.87-14.42-26.14-7.47-28.75c-1.6-7.6,5.07-12.46,15.5-16.08
			c6.26-2.17,13.46-2.76,17.47-1.31c4.02,1.45,8.01,12.89-2.17,17.08c2.25,4.98,2.98,7.88,3.13,14.63c0,0-0.08,2.82-1.87,2.31
			c-0.87-7.52-7.27-9.86-8.58-5.9c-0.68,3.3,0.1,6.52-1.19,10.01C101.07,104.48,95.46,106.52,89.28,105.24z"/>
		<path class="st2" d="M187.57,132.56c2.73-4.51,11.42-2.72,8.97,4.48c0,0-13.38,45.5-21.5,53.87c-7.84,9.2-22.75,5.19-18.28-11.32
			C157.68,173.46,187.57,132.56,187.57,132.56z"/>
		<path class="st4" d="M65.21,238.64l-1.07,5.01c12.45,6.94,45.53,9.59,70.96-1.66l-0.85-4.11L65.21,238.64z"/>
		<g>
			<path class="st2" d="M92.23,209.24c3.66,3.28-1.21,15.37-7.42,11.94c0,0-39.71-19.65-45.92-28.61
				c-7.03-8.82-0.42-22.3,14.06-15.53C58.47,178.85,92.23,209.24,92.23,209.24z"/>
			<path class="st14" d="M67.12,128.54c10.79-14.68,27.37-11.89,26.41,8.81c-0.91,9.22-29.13,52.03-36.53,58.31
				c-7.77,9.25-26.3,2.04-21.52-13.61C36.36,175.91,67.12,128.54,67.12,128.54z"/>
		</g>
		<path class="st1" d="M65.12,239.09c4.64,5.83,62.46,5.87,69.56-0.75c6.6-5.4-0.85-14.72,0.16-30.42
			c0.61-9.57,1.63-19.38,3.31-26.2c4.44-18.01,4.56-47.05-0.09-51.8c-2.65-3.49-14.13-9.44-28.94-11.6
			c-6.98,1.59-14.38,1.33-20.84-0.16c-3.04,0.42-5.95,0.56-9.02,1.45c-30.5,7.52-13.61,71.4-12.2,85.84
			C68.47,219.91,60.48,233.26,65.12,239.09z"/>
		<path class="st2" d="M196.82,136.02c6.28-3.95,9.48-24.62,2.71-27.75l0.06,2.86c-2.31,3.6-6.2,9.35-6.9,8.42
			c-1.01-1.33-1.08-8.66-1.08-8.66c-0.1-1.85-3.05-2.28-3.33,0c0,0-1.82,9.24-1.72,11.4s1.01,10.37,1.01,10.37
			C187.89,136.4,189.56,140.09,196.82,136.02z"/>
		<path class="st4" d="M115.27,153.28c-10.36-15-0.2-33.95,18.85-26.58c12.24,5.86,36.67,45.31,40.23,54.42
			c6.23,10.39-3.9,25.11-17.04,15.62C151.85,193.98,115.27,153.28,115.27,153.28z"/>
		<path class="st4" d="M88.55,113.04c1.07,2.9,10.37,2.83,20.63,1.85l0.7,3.55c-9.26,4.9-21.49,3.68-22.78-0.12L88.55,113.04z"/>
		<path class="st0" d="M115.52,86.58c0,0,2.52,14.84,4.13,15.25c1.61,0.41,1.34-2.96,2.86-3.07c0,0,3.79,14.5-1.88,15.72
			c-11.22,1.9-4.58-11.87-6.76-21.37c-0.58-5.3-0.87-7.98-0.87-7.98L115.52,86.58z"/>
		<rect x="108.67" y="109.87" class="st8" width="1" height="5.02"/>
		<path class="st5" d="M111.55,266.59c-5.03-0.06-9.31-1.46-12.4-4.04c-5.81,4.79-18.83,4.68-23.63-0.31l0.72-0.69
			c4.5,4.68,17.37,4.67,22.57-0.02l0.33-0.3l0.33,0.3c2.93,2.6,7.11,4.01,12.08,4.07L111.55,266.59z"/>
		<path class="st11" d="M165.69,200.28c-5.31,0-9.72-3.97-9.93-4.16l0.67-0.74c0.06,0.05,5.55,5,11.35,3.66
			c6.76-1.05,8.16-9.47,8.17-9.56l0.99,0.15c-0.01,0.09-1.53,9.22-8.97,10.38C167.2,200.2,166.44,200.28,165.69,200.28z"/>
		
			<rect x="160.09" y="149.07" transform="matrix(0.8346 -0.5509 0.5509 0.8346 -60.2036 114.5125)" class="st11" width="1" height="16.88"/>
		<path class="st8" d="M190.95,120.78c-0.49,0-0.83-0.08-0.87-0.08l0.22-0.98c0.01,0,1.38,0.3,2.36-0.47l0.62,0.79
			C192.51,120.64,191.6,120.78,190.95,120.78z"/>
		<path class="st8" d="M188.15,135.56c-0.84-1.15-1.05-2.77-1.06-2.84l0.99-0.12c0,0.01,0.19,1.43,0.88,2.37L188.15,135.56z"/>
	</g>
	<g>
		<path class="st2" d="M572.28,113.01c0,0-4.48-6.18-9.78-7.82c-1.2-0.57-13.18-2.15-17.12,2.68c-1.74,2.56-0.68,6.52-0.41,8.36
			c0.47,2.55,1.5,5.53,4.6,4.26c0.18,2.39,5.19,2.45,5.05,0.55c0.16,2.16,4.83,1.93,4.66-0.22c0.7,2.29,4.79,1.89,4.5-1.08
			l-0.06-6.72L572.28,113.01z"/>
		<path class="st8" d="M549.09,120.61c-0.82-3.52-1.14-6.62-0.99-9.47l1,0.05c-0.15,2.76,0.17,5.76,0.97,9.19L549.09,120.61z"/>
		<path class="st8" d="M554.14,121.15c-0.89-4.02-1.24-7.42-1.08-10.39l1,0.06c-0.16,2.88,0.19,6.18,1.06,10.12L554.14,121.15z"/>
		<path class="st8" d="M558.79,120.89c-0.55-3.95-0.73-7.39-0.55-10.5l1,0.06c-0.18,3.04,0,6.42,0.54,10.3L558.79,120.89z"/>
	</g>
	<rect x="25.1" y="450.01" class="st0" width="711.1" height="1"/>
</g>
</svg>
