<?xml version="1.0" encoding="utf-8"?>
<!-- Generator: Adobe Illustrator 24.1.1, SVG Export Plug-In . SVG Version: 6.00 Build 0)  -->
<svg version="1.0" id="_x3C_Layer_x3E_" xmlns="http://www.w3.org/2000/svg" xmlns:xlink="http://www.w3.org/1999/xlink" x="0px"
	 y="0px" viewBox="0 0 2760 1840" style="enable-background:new 0 0 2760 1840;" xml:space="preserve">
<style type="text/css">
	.st0{fill:#BED5DC;}
	.st1{opacity:0.6;}
	.st2{fill:#B2C9C6;}
	.st3{fill:#CFD3A3;}
	.st4{fill:#C4C695;}
	.st5{opacity:0.5;}
	.st6{fill:#74A1BD;}
	.st7{fill:#436E8E;}
	.st8{fill:#9BBCB6;}
	.st9{fill:#6F4975;}
	.st10{fill:#56335B;}
	.st11{fill:#2F1A31;}
	.st12{fill:#E28569;}
	.st13{fill:#F7B686;}
	.st14{fill:#CE745F;}
	.st15{fill:#060633;}
	.st16{fill:#FFFFFF;}
	.st17{fill:#E08B65;}
	.st18{fill:#96A7E2;}
	.st19{fill:#A5B9EF;}
	.st20{fill:#D89364;}
</style>
<g>
	<ellipse class="st0" cx="1491.12" cy="1438.33" rx="966.29" ry="125.06"/>
</g>
<g class="st1">
	<path class="st2" d="M1986.99,1206.33c0,0,213.26-752.99,415.41-687.44c202.15,65.54-254.7,472.9-309.84,694.07L1986.99,1206.33z"
		/>
</g>
<g>
	<g>
		<path class="st3" d="M2066.78,1130.9c0,0,260.95-451.45,405.22-374.54c144.27,76.92-255.25,262.95-326.22,396.83L2066.78,1130.9z"
			/>
	</g>
	<g>
		<g>
			<path class="st4" d="M2110.86,1143.76c47.33-93.35,130.45-177.71,191.85-232.05c66.56-58.9,122.6-96.16,123.16-96.53l-2.31-3.49
				c-0.56,0.37-56.85,37.79-123.62,96.88c-61.67,54.57-145.18,139.35-192.81,233.29L2110.86,1143.76z"/>
		</g>
	</g>
</g>
<g>
	<g>
		<g>
			<path class="st2" d="M2453.57,1209.71c-62.64,17.93-45.76,113.43-119.34,100.35c-62.24-11.1-67.77-16.41-87.81,2.63
				c-6.87,6.53-12.66,14.08-17.44,22.27c-5.72,9.81-17.06,24.45-35.44,28.94c-112.32,27.41-278.75-130.42-166.29-230.82
				c8.12-7.25,20.41-10.64,34.07-13.71c74.07-16.6,99.65,16.22,152.8-75.85c53.17-92.09,141.51,29.12,191.4,21.37
				s93.13-25.71,135.74,24.9C2583.87,1140.42,2516.22,1191.82,2453.57,1209.71z"/>
		</g>
	</g>
	<g class="st5">
		<g>
			<g>
				<path class="st6" d="M2071.49,1252.95l-2.62-3.39c1.49-1.16,153.34-115.93,482.38-145.28l0.38,4.27
					C2223.83,1137.79,2072.98,1251.8,2071.49,1252.95z"/>
			</g>
		</g>
		<g>
			<g>
				<path class="st6" d="M2268.17,1112.22c-46.04-36.27-55.73-66.82-56.12-68.1l4.1-1.25c0.09,0.3,9.81,30.64,54.67,65.99
					L2268.17,1112.22z"/>
			</g>
		</g>
		<g>
			<g>
				<path class="st6" d="M2278.73,1157.86c-13.62-20.72-14.5-51.81-2.55-89.92c8.95-28.53,22.09-51.31,22.22-51.54l3.71,2.15
					c-0.51,0.89-51.12,89.3-19.79,136.95L2278.73,1157.86z"/>
			</g>
		</g>
		<g>
			<g>
				<path class="st6" d="M2364.98,1144.73c-5.46-3.99-8.44-6.62-8.57-6.74l2.86-3.19c0.62,0.56,63.46,55.88,150.29,47.55l0.41,4.26
					C2440,1193.33,2385.31,1159.6,2364.98,1144.73z"/>
			</g>
		</g>
		<g>
			<g>
				<path class="st6" d="M2414.21,1240.81c-21.31-20.85-28.43-42.61-30.65-57.2c-2.42-15.88,0.22-26.71,0.34-27.17l4.16,1.04
					c-0.1,0.42-9.87,42.09,29.15,80.26L2414.21,1240.81z"/>
			</g>
		</g>
	</g>
</g>
<g>
	<path class="st2" d="M2491.93,668.74c16.29-11.26,25.39-8.46,30.64-0.87c5.25,7.59,4.65,17.09-11.64,28.36
		c-29.68,20.52-53.52,16.69-53.52,16.69S2461.82,689.56,2491.93,668.74z"/>
</g>
<g>
	<path class="st2" d="M2448.16,998.28c20.75-3.56,28.06,1.97,29.45,10.11c1.39,8.13-3.65,15.79-24.4,19.35
		c-37.81,6.49-58.61-5.11-58.61-5.11S2409.8,1004.86,2448.16,998.28z"/>
</g>
<g>
	<path class="st2" d="M2386.1,965.8c11.18-16.35,19.7-17.66,26.11-13.28c6.41,4.38,8.28,12.8-2.91,29.15
		c-20.37,29.78-41.82,36.24-41.82,36.24S2365.43,996.02,2386.1,965.8z"/>
</g>
<g>
	<g>
		<path class="st7" d="M1872.99,656.14c-5.13,0-9.52-3.84-10.2-8.94l-1.92-14.32c-0.45-3.33-2.77-6.11-5.91-7.09
			c-0.86-0.26-1.7-0.55-2.55-0.84c-0.91-0.32-1.85-0.48-2.81-0.48c-2.39,0-4.69,1.01-6.31,2.78l-10.44,11.33
			c-1.94,2.11-4.71,3.32-7.58,3.32c-2.59,0-5.07-0.97-6.98-2.73l-12.21-11.25c-2.02-1.87-3.2-4.41-3.31-7.16
			c-0.11-2.75,0.86-5.38,2.72-7.4l8.97-9.72c2.5-2.71,2.99-6.72,1.21-9.96l-0.05-0.1c-1.51-2.78-4.39-4.49-7.54-4.49
			c-0.38,0-0.77,0.03-1.16,0.08l-12.3,1.66c-0.46,0.06-0.93,0.09-1.39,0.09c-5.13,0-9.51-3.84-10.2-8.93l-2.21-16.45
			c-0.37-2.73,0.35-5.44,2.02-7.62c1.67-2.19,4.09-3.6,6.82-3.96l12.31-1.65c3.51-0.47,6.4-3.09,7.21-6.51l0.03-0.13
			c0.85-3.6-0.67-7.33-3.8-9.29l-11.22-7.01c-4.82-3.01-6.29-9.38-3.27-14.2l8.8-14.08c1.9-3.03,5.16-4.84,8.74-4.84
			c1.93,0,3.81,0.54,5.46,1.57l13.05,8.17c2.86,1.79,6.67,1.71,9.41-0.2c0.73-0.51,1.48-1.01,2.24-1.49
			c2.78-1.77,4.29-5.07,3.84-8.4l-1.92-14.32c-0.37-2.73,0.35-5.43,2.02-7.62c1.67-2.19,4.09-3.59,6.82-3.96l16.44-2.21
			c0.46-0.06,0.93-0.09,1.39-0.09c5.13,0,9.52,3.84,10.2,8.93l1.43,10.65c0.5,3.77,3.4,6.72,7.2,7.35c3.1,0.51,6.19,1.25,9.19,2.2
			c3.16,1,6.73,0.05,8.95-2.35l9.26-10.03c1.94-2.11,4.7-3.31,7.57-3.31c2.59,0,5.08,0.97,6.98,2.73l12.2,11.25
			c2.02,1.87,3.2,4.41,3.31,7.16c0.11,2.75-0.86,5.38-2.72,7.4l-6.54,7.09c-2.59,2.81-3.03,6.9-1.08,10.19
			c0.41,0.69,0.8,1.39,1.19,2.09c1.47,2.71,4.34,4.4,7.48,4.4c0.38,0,0.77-0.03,1.15-0.08l8.69-1.16c0.46-0.06,0.92-0.09,1.38-0.09
			c5.13,0,9.51,3.84,10.2,8.93l2.21,16.44c0.37,2.73-0.35,5.44-2.02,7.62c-1.67,2.19-4.09,3.59-6.82,3.96l-8.68,1.16
			c-3.51,0.47-6.41,3.07-7.2,6.46c-0.18,0.79-0.38,1.57-0.59,2.34c-1,3.68,0.5,7.51,3.74,9.53l8.18,5.11
			c2.33,1.46,3.96,3.74,4.58,6.42c0.62,2.68,0.16,5.44-1.3,7.78l-8.79,14.07c-1.9,3.03-5.17,4.84-8.75,4.84
			c-1.92,0-3.81-0.54-5.45-1.56l-11.57-7.23c-2.78-1.73-6.48-1.69-9.26,0.1c-2.65,1.71-5.43,3.24-8.28,4.55
			c-3.5,1.61-5.51,5.22-5,8.98l1.43,10.65c0.76,5.63-3.21,10.83-8.84,11.58l-16.45,2.21
			C1873.91,656.11,1873.45,656.14,1872.99,656.14z M1849.6,622.76c1.16,0,2.3,0.2,3.38,0.58c0.82,0.29,1.65,0.57,2.48,0.82
			c3.78,1.17,6.57,4.51,7.11,8.49l1.92,14.32c0.57,4.25,4.23,7.45,8.5,7.45c0.38,0,0.77-0.03,1.16-0.08l16.45-2.21
			c4.7-0.63,8-4.96,7.37-9.66l-1.43-10.65c-0.61-4.51,1.8-8.84,5.98-10.77c2.77-1.28,5.48-2.77,8.06-4.43
			c3.33-2.15,7.77-2.2,11.09-0.12l11.57,7.23c1.37,0.85,2.94,1.31,4.54,1.31c2.99,0,5.71-1.51,7.3-4.04l8.79-14.07
			c1.22-1.95,1.6-4.25,1.09-6.49c-0.52-2.24-1.87-4.14-3.82-5.36l-8.18-5.11c-3.88-2.43-5.68-7.02-4.48-11.43
			c0.21-0.76,0.4-1.52,0.58-2.28c0.95-4.08,4.42-7.19,8.64-7.76l8.68-1.17c2.28-0.31,4.29-1.48,5.69-3.3
			c1.39-1.83,1.99-4.08,1.69-6.36l-2.21-16.44c-0.57-4.25-4.23-7.45-8.5-7.45c-0.38,0-0.77,0.03-1.15,0.08l-8.69,1.16
			c-0.46,0.06-0.92,0.09-1.38,0.09c-3.77,0-7.21-2.03-8.99-5.29c-0.37-0.69-0.76-1.37-1.16-2.04c-2.33-3.94-1.81-8.85,1.3-12.22
			l6.54-7.09c1.56-1.69,2.36-3.88,2.27-6.17c-0.09-2.29-1.07-4.41-2.76-5.97l-12.2-11.25c-1.59-1.47-3.66-2.28-5.82-2.28
			c-2.39,0-4.69,1.01-6.32,2.76l-9.26,10.03c-1.94,2.1-4.7,3.3-7.57,3.3c-1.07,0-2.13-0.16-3.15-0.48
			c-2.93-0.92-5.94-1.64-8.96-2.14c-4.55-0.75-8.01-4.29-8.62-8.81l-1.43-10.65c-0.57-4.25-4.23-7.45-8.5-7.45
			c-0.38,0-0.77,0.03-1.16,0.08l-16.44,2.21c-2.27,0.31-4.29,1.48-5.69,3.3c-1.39,1.82-1.99,4.08-1.68,6.36l1.92,14.32
			c0.53,3.99-1.28,7.94-4.61,10.07c-0.74,0.47-1.46,0.95-2.18,1.45c-1.71,1.19-3.72,1.82-5.81,1.82c-1.94,0-3.83-0.54-5.48-1.57
			l-13.05-8.17c-1.37-0.86-2.94-1.31-4.55-1.31c-2.99,0-5.71,1.51-7.29,4.04l-8.8,14.08c-1.22,1.95-1.6,4.25-1.09,6.49
			c0.52,2.24,1.87,4.14,3.82,5.36l11.22,7.01c3.75,2.34,5.58,6.82,4.55,11.13l-0.86-0.07l0.83,0.2c-0.97,4.11-4.44,7.25-8.65,7.82
			l-12.31,1.65c-2.28,0.31-4.3,1.48-5.69,3.3c-1.39,1.83-1.99,4.08-1.68,6.36l2.21,16.45c0.57,4.25,4.23,7.45,8.5,7.45
			c0.38,0,0.78-0.03,1.16-0.08l12.3-1.66c0.46-0.06,0.92-0.09,1.38-0.09c3.77,0,7.23,2.05,9.02,5.35l0.07,0.13
			c2.13,3.89,1.54,8.69-1.46,11.94l-8.97,9.72c-1.56,1.69-2.36,3.88-2.27,6.18c0.09,2.3,1.07,4.42,2.76,5.97l12.21,11.25
			c1.59,1.47,3.66,2.27,5.82,2.27c2.4,0,4.7-1.01,6.32-2.77l10.44-11.33C1843.97,623.97,1846.73,622.76,1849.6,622.76z"/>
	</g>
	<g>
		<path class="st7" d="M1875.93,599.9c-18.56,0-39.23-18.27-41.74-36.89c-1.24-9.23,2.04-18.65,9.24-26.52
			c6.79-7.43,16.19-12.42,25.78-13.7c1.18-0.16,2.37-0.24,3.56-0.24c18.52,0,33.52,19.05,35.91,36.83
			c1.29,9.56-0.92,18.96-6.23,26.46c-5.41,7.65-13.55,12.55-22.92,13.81C1878.36,599.82,1877.15,599.9,1875.93,599.9z
			 M1872.78,524.27c-1.11,0-2.23,0.08-3.33,0.22c-9.2,1.23-18.22,6.03-24.75,13.16c-6.85,7.49-9.98,16.41-8.81,25.13
			c2.4,17.87,22.23,35.4,40.04,35.4c1.14,0,2.28-0.08,3.38-0.22c8.89-1.19,16.62-5.85,21.75-13.11c5.06-7.15,7.17-16.11,5.93-25.24
			C1904.7,542.55,1890.4,524.27,1872.78,524.27z"/>
	</g>
</g>
<path class="st0" d="M1420,714.99l46.19-22.62c17.66-8.65,24.97-29.97,16.33-47.63l-27.47-56.17
	c-8.64-17.67-29.98-24.99-47.65-16.34l-32.68,15.99c-14.1,6.9-31.05,3.76-41.72-7.74c-2.04-2.19-4.12-4.36-6.24-6.48
	c-10.33-10.37-12.98-26.15-6.96-39.5l13.58-30.1c8.09-17.93,0.1-39.03-17.84-47.11l-57.02-25.69c-17.92-8.08-39-0.1-47.09,17.81
	l-13.6,30.12c-6.02,13.32-19.57,21.78-34.16,20.91c-2.98-0.18-5.96-0.3-8.94-0.37c-15.71-0.37-29.3-10.99-33.47-26.14l-9.65-35.06
	c-5.22-18.96-24.83-30.11-43.79-24.89l-60.32,16.6c-18.96,5.22-30.1,24.82-24.89,43.78l13.64,49.62
	c3.68,13.37-0.81,27.58-11.34,36.61c-8.85,7.59-17.22,15.85-25.03,24.72c-10.41,11.85-27.23,15.7-41.61,9.21l-36.91-16.64
	c-17.93-8.09-39.03-0.1-47.11,17.84l-25.68,57c-8.08,17.93-0.1,39.02,17.83,47.1l49.65,22.38c12.6,5.68,20.97,18.1,21.12,31.92
	c0.04,3.34,0.14,6.67,0.31,10c0.72,14.15-7.2,27.33-19.93,33.55l-52.15,25.49c-17.67,8.64-25,29.97-16.35,47.64l27.5,56.21
	c8.64,17.67,29.97,24.99,47.64,16.34l44.8-21.92c13.75-6.72,30.22-3.89,40.99,6.99c0.12,0.12,0.23,0.24,0.35,0.35
	c10.38,10.44,13.17,26.23,7.12,39.65l-19.26,42.68c-8.09,17.94-0.11,39.04,17.84,47.12l57.06,25.71
	c17.94,8.08,39.03,0.09,47.1-17.85l19.21-42.67c6.04-13.43,19.73-21.8,34.43-20.93c0.18,0.01,0.37,0.02,0.55,0.03
	c15.29,0.87,28.33,11.34,32.39,26.1l13.22,48.05c5.22,18.98,24.84,30.12,43.81,24.89l60.33-16.64c18.96-5.23,30.09-24.84,24.86-43.8
	l-15.43-55.97c-3.77-13.66,0.86-28.32,11.94-37.15c2.6-2.07,5.16-4.2,7.68-6.38c10.45-9.04,25.29-10.99,37.89-5.31l49.65,22.4
	c17.93,8.09,39.03,0.11,47.11-17.82l25.72-57.03c8.09-17.93,0.1-39.02-17.83-47.11l-36.93-16.65
	c-14.37-6.48-22.62-21.62-20.65-37.25c1.47-11.71,2.1-23.44,1.92-35.09C1399.85,733.9,1407.53,721.1,1420,714.99z M1277.72,812.03
	c-29.85,66.22-137.14,100.26-203.36,70.41c-66.14-29.82-87.14-121.79-57.26-187.95c29.8-66.19,125.27-81.59,191.49-51.74
	C1274.79,672.54,1307.58,745.8,1277.72,812.03z"/>
<g>
	<path class="st7" d="M1235.28,1136.35c-16.45,0-30.98-11.09-35.35-26.96l-13.22-48.05c-3.93-14.3-16.56-24.47-31.42-25.32
		l-0.56-0.03c-14.29-0.84-27.54,7.32-33.39,20.3l-19.21,42.67c-5.92,13.14-19.06,21.63-33.47,21.63c-5.2,0-10.27-1.09-15.05-3.25
		l-57.06-25.71c-8.94-4.03-15.77-11.29-19.24-20.46c-3.47-9.17-3.16-19.14,0.87-28.07l19.26-42.68c5.85-12.96,3.07-28.42-6.9-38.45
		l-0.35-0.35c-6.57-6.63-15.31-10.29-24.63-10.29c-5.29,0-10.38,1.18-15.13,3.51l-44.8,21.91c-5.07,2.48-10.49,3.74-16.09,3.74
		c-14.14,0-26.77-7.88-32.98-20.57l-27.5-56.22c-4.31-8.8-4.92-18.76-1.74-28.03c3.18-9.27,9.78-16.75,18.59-21.05l52.15-25.49
		c12.44-6.08,20.02-18.85,19.33-32.53c-0.17-3.33-0.27-6.71-0.31-10.04c-0.14-13.26-8.19-25.41-20.49-30.96l-49.65-22.38
		c-18.44-8.31-26.68-30.07-18.37-48.51l25.68-57c5.92-13.14,19.06-21.62,33.47-21.62c5.21,0,10.27,1.09,15.06,3.25l36.91,16.64
		c4.46,2.01,9.2,3.03,14.08,3.03c10.01,0,19.59-4.37,26.29-11.98c7.75-8.82,16.21-17.17,25.13-24.83c10.21-8.76,14.53-22.7,11-35.52
		l-13.64-49.62c-5.36-19.5,6.14-39.73,25.64-45.09l60.32-16.6c3.19-0.88,6.48-1.32,9.76-1.32c16.44,0,30.98,11.09,35.35,26.96
		l9.65,35.06c4.07,14.8,17.12,24.99,32.47,25.35c2.99,0.07,6.01,0.19,8.98,0.37c14.09,0.83,27.27-7.32,33.12-20.29l13.6-30.12
		c5.92-13.12,19.06-21.59,33.45-21.59c5.2,0,10.27,1.09,15.05,3.25l57.02,25.69c8.94,4.03,15.77,11.29,19.24,20.46
		c3.47,9.17,3.16,19.14-0.87,28.07l-13.57,30.1c-5.86,12.99-3.15,28.38,6.74,38.3c2.12,2.13,4.23,4.32,6.26,6.51
		c6.51,7.01,15.72,11.03,25.29,11.03c5.22,0,10.47-1.22,15.17-3.52l32.68-16c5.07-2.48,10.49-3.74,16.1-3.74
		c14.14,0,26.77,7.88,32.98,20.57l27.48,56.17c8.88,18.16,1.34,40.17-16.82,49.06l-46.19,22.62c-11.96,5.85-19.54,18.34-19.33,31.81
		c0.19,11.75-0.46,23.61-1.93,35.24c-1.93,15.35,6.12,29.87,20.03,36.15l36.93,16.65c8.93,4.03,15.76,11.29,19.23,20.46
		c3.47,9.16,3.16,19.13-0.87,28.06l-25.72,57.03c-5.92,13.13-19.05,21.61-33.46,21.61c0,0,0,0,0,0c-5.21,0-10.28-1.09-15.07-3.25
		l-49.65-22.4c-4.57-2.06-9.43-3.11-14.43-3.11c-8.25,0-16.18,2.93-22.33,8.25c-2.51,2.17-5.11,4.33-7.71,6.41
		c-10.71,8.54-15.26,22.68-11.58,36.03l15.43,55.97c5.38,19.5-6.11,39.74-25.61,45.11l-60.33,16.64
		C1241.85,1135.9,1238.57,1136.35,1235.28,1136.35z M1152.72,1033.78c0.71,0,1.43,0.02,2.15,0.06l0.55,0.03
		c15.78,0.89,29.18,11.7,33.36,26.88l13.22,48.05c4.11,14.95,17.8,25.39,33.29,25.39c3.1,0,6.19-0.42,9.21-1.25l60.33-16.64
		c18.36-5.06,29.18-24.12,24.12-42.48l-15.43-55.97c-3.91-14.18,0.92-29.2,12.31-38.27c2.58-2.06,5.16-4.2,7.65-6.35
		c6.54-5.66,14.96-8.77,23.73-8.77c5.31,0,10.46,1.11,15.31,3.3l49.65,22.4c4.51,2.03,9.28,3.07,14.19,3.07
		c13.57,0,25.94-7.99,31.51-20.35l25.72-57.03c3.79-8.41,4.08-17.8,0.82-26.43c-3.27-8.63-9.7-15.47-18.11-19.26l-36.93-16.65
		c-14.77-6.66-23.32-22.08-21.27-38.36c1.45-11.53,2.09-23.28,1.91-34.93c-0.23-14.29,7.83-27.55,20.53-33.76l46.19-22.62
		c17.1-8.37,24.2-29.1,15.84-46.2l-27.48-56.17c-5.84-11.95-17.75-19.37-31.06-19.37c-5.28,0-10.38,1.19-15.16,3.52l-32.68,16
		c-4.99,2.44-10.57,3.74-16.11,3.74c-10.16,0-19.96-4.27-26.86-11.71c-2.02-2.18-4.11-4.35-6.21-6.46
		c-10.51-10.55-13.4-26.9-7.18-40.69l13.57-30.1c3.79-8.41,4.09-17.8,0.82-26.43c-3.27-8.63-9.7-15.47-18.12-19.26l-57.02-25.69
		c-4.5-2.03-9.27-3.06-14.17-3.06c-13.56,0-25.92,7.98-31.5,20.33l-13.6,30.12c-6.22,13.77-20.21,22.43-35.2,21.54
		c-2.95-0.18-5.94-0.3-8.9-0.37c-16.3-0.38-30.15-11.2-34.48-26.92l-9.65-35.06c-4.11-14.95-17.8-25.39-33.29-25.39
		c-3.09,0-6.18,0.42-9.19,1.25l-60.32,16.6c-18.36,5.05-29.19,24.1-24.14,42.46l13.64,49.62c3.74,13.61-0.84,28.42-11.67,37.71
		c-8.85,7.59-17.23,15.87-24.92,24.62c-7.1,8.07-17.26,12.71-27.89,12.71c-5.19,0-10.22-1.08-14.96-3.22l-36.91-16.64
		c-4.51-2.03-9.28-3.06-14.18-3.06c-13.57,0-25.94,7.99-31.52,20.36l-25.68,57c-7.82,17.36-0.06,37.86,17.3,45.68l49.65,22.38
		c13.06,5.89,21.6,18.8,21.75,32.89c0.04,3.3,0.14,6.65,0.31,9.96c0.74,14.54-7.32,28.11-20.53,34.56l-52.15,25.49
		c-8.29,4.05-14.51,11.09-17.5,19.82c-3,8.73-2.41,18.1,1.64,26.39l27.5,56.21c5.85,11.95,17.75,19.37,31.06,19.37
		c5.28,0,10.38-1.18,15.15-3.52l44.8-21.91c4.98-2.44,10.54-3.72,16.07-3.72c9.89,0,19.17,3.88,26.15,10.92l0.35,0.35
		c10.6,10.66,13.55,27.08,7.34,40.85l-19.26,42.68c-3.8,8.41-4.09,17.8-0.82,26.43c3.27,8.63,9.7,15.47,18.12,19.27l57.06,25.71
		c4.5,2.03,9.27,3.06,14.17,3.06c13.58,0,25.95-8,31.52-20.37l19.21-42.67C1125.31,1042.27,1138.39,1033.78,1152.72,1033.78z"/>
</g>
<g>
	<g>
		<g>
			<path class="st2" d="M760.14,524.42c-12,11.81-19.32,11.51-23.94,6.81c-4.63-4.7-4.81-12.03,7.18-23.84
				c21.85-21.51,40.79-23.39,40.79-23.39S782.31,502.59,760.14,524.42z"/>
		</g>
		<g>
			<path class="st2" d="M786.07,630.37c-7.53,15.05-14.55,17.14-20.45,14.19c-5.9-2.95-8.44-9.82-0.91-24.88
				c13.72-27.42,31.03-35.33,31.03-35.33S799.98,602.55,786.07,630.37z"/>
		</g>
		<g>
			<g>
				<g>
					<path class="st2" d="M848.87,907.29l-3.15,0.51c-0.08-0.48-8.23-49.25-41.91-115.21c-31.08-60.86-90.88-149.22-199.28-224.56
						l1.82-2.62c109,75.76,169.12,164.64,200.36,225.86C840.59,857.64,848.79,906.8,848.87,907.29z"/>
				</g>
			</g>
			<g>
				<g>
					<path class="st2" d="M719.84,666.42l-3.02-1.01c36.72-109.72-28.63-215.25-29.29-216.31l2.7-1.7
						C690.89,448.47,757.05,555.25,719.84,666.42z"/>
				</g>
			</g>
			<g>
				<g>
					<path class="st2" d="M660.69,628.01c-31.38,7.9-59.05-1.84-59.37-1.95l1.08-3c0.35,0.13,35.8,12.56,71.37-2.84l1.27,2.92
						C670.24,625.23,665.42,626.82,660.69,628.01z"/>
				</g>
			</g>
			<g>
				<g>
					<path class="st2" d="M598.13,551.32c20.06,10.63,23.52,18.52,20.43,24.35c-3.09,5.83-11.56,7.39-31.62-3.23
						c-36.54-19.36-48.61-39.28-48.61-39.28S561.06,531.67,598.13,551.32z"/>
				</g>
			</g>
			<g>
				<g>
					<path class="st2" d="M607.1,613.98c22.33,4.09,28.01,10.56,26.82,17.05c-1.19,6.49-8.79,10.54-31.12,6.45
						c-40.68-7.44-58.18-22.79-58.18-22.79S565.83,606.43,607.1,613.98z"/>
				</g>
			</g>
			<g>
				<g>
					<path class="st2" d="M679.9,570.84c7.72,14.96,5.27,21.86-0.59,24.89c-5.86,3.03-12.91,1.03-20.64-13.92
						c-14.07-27.24-10.26-45.89-10.26-45.89S665.62,543.2,679.9,570.84z"/>
				</g>
			</g>
			<g>
				<g>
					<path class="st2" d="M693.58,433.25c10.52,20.12,8.91,28.58,3.06,31.63c-5.85,3.06-13.71-0.45-24.24-20.56
						c-19.16-36.64-17.84-59.89-17.84-59.89S674.14,396.07,693.58,433.25z"/>
				</g>
			</g>
		</g>
	</g>
</g>
<g>
	<path class="st2" d="M956.37,1115.9c0,0-324.32-534.49-466.04-441.04C348.59,768.31,787,984.86,876.48,1143.45L956.37,1115.9z"/>
</g>
<g>
	<g>
		<path class="st8" d="M764.2,1059.85c0,0-373.28-395.94-501.36-283.23c-128.08,112.71,322.29,205.85,426.47,324.81L764.2,1059.85z"
			/>
	</g>
	<g>
		<g>
			<path class="st6" d="M722.52,1083.47c-70.45-83.46-175.1-149.21-250.49-189.68c-81.73-43.87-147.58-68.26-148.23-68.51l1.51-4.09
				c0.66,0.24,66.8,24.75,148.79,68.76c75.72,40.64,180.86,106.72,251.76,190.71L722.52,1083.47z"/>
		</g>
	</g>
</g>
<g>
	<g>
		<g>
			<path class="st3" d="M373.02,1174.28c84.01,16.33,72.79,143.21,167.6,117.72c94.81-25.55,86.77-31.49,133.49,8.94
				c0,0,18.69,39.63,56.74,45.48c150.1,23.08,349.9-202.4,191.3-320.98c-11.45-8.56-27.92-11.6-46.14-14.06
				c-98.81-13.29-128.54,32.57-208.58-81.85c-80.06-114.45-181.85,54.21-248.02,49.75c-66.17-4.46-124.8-23.04-174.78,48.04
				C194.63,1098.45,289,1158,373.02,1174.28z"/>
		</g>
	</g>
	<g>
		<g>
			<g>
				<path class="st4" d="M877.9,1187.35l3.04-4.74c-2.09-1.34-213.86-134.24-647.76-135.17l-0.01,5.63
					C665.45,1054,875.82,1186.01,877.9,1187.35z"/>
			</g>
		</g>
		<g>
			<g>
				<path class="st4" d="M604.51,1025.6c56.11-52.7,65.31-93.78,65.67-95.5l-5.51-1.17c-0.09,0.41-9.34,41.22-64.02,92.57
					L604.51,1025.6z"/>
			</g>
		</g>
		<g>
			<g>
				<path class="st4" d="M595.89,1086.52c15.47-28.67,13.08-69.45-6.91-117.95c-14.96-36.32-34.75-64.63-34.94-64.91l-4.6,3.24
					c0.77,1.1,77.06,111.03,41.5,176.95L595.89,1086.52z"/>
			</g>
		</g>
		<g>
			<g>
				<path class="st4" d="M481.55,1079.16c6.69-5.84,10.29-9.62,10.45-9.8l-4.11-3.85c-0.75,0.8-76.68,80.35-191.25,79.33l-0.05,5.63
					C388.91,1151.3,456.63,1100.93,481.55,1079.16z"/>
			</g>
		</g>
		<g>
			<g>
				<path class="st4" d="M428.07,1210.49c25.51-29.71,32.35-59,33.59-78.34c1.35-21.05-3.33-34.93-3.53-35.51l-5.32,1.83
					c0.18,0.53,17.7,53.95-29,108.34L428.07,1210.49z"/>
			</g>
		</g>
	</g>
</g>
<g>
	<path class="st9" d="M576.32,827.06l665.58,26.12c24.08,0.95,44.73,17.48,50.9,40.77l125.97,474.82l-769.1,11.21L521.12,896.05
		C511.6,860.34,539.38,825.61,576.32,827.06z"/>
</g>
<g>
	<path class="st9" d="M1678.46,1401.76H671.53c-7.35,0-16.22-2.01-17.83-6.76c-1.24-3.67-2.88-11.33-4.08-15.01
		c-2.27-6.94,5.63-13.29,16.31-13.25l466.52-1.3l550.76,5.14c10.82,0.04,18.54,6.83,15.43,13.58l-4.66,10.1
		C1691.93,1398.7,1685.62,1401.76,1678.46,1401.76z"/>
</g>
<g>
	<path class="st10" d="M1687.95,1401.76h-549.17c-4.01,0-8.85-2.01-9.72-6.76c-0.68-3.67-1.57-11.33-2.23-15.01
		c-1.24-6.94-0.21-14.6,5.62-14.56l558.09,5.14c5.9,0.04,10.11,6.83,8.41,13.58l-2.54,10.1
		C1695.3,1398.7,1691.86,1401.76,1687.95,1401.76z"/>
</g>
<g>
	<path class="st0" d="M1397.77,1364.62l-167.49,0.5l-188.27,0.58l-16.48,0.05l-187.45,0.57l-57.66,0.17l-95.79,0.29l-8.91-36.24
		L567.79,891.38c-3.21-13.06,6.96-25.57,20.39-25.12l230.31,7.77l46,1.55h0.01l12.89,0.44l61.03,2.06l7.58,0.26l32.06,1.08
		l191.91,6.48l52.89,1.78c8.79,0.29,17.11,2.79,24.36,7.03c0.99,0.57,1.96,1.17,2.91,1.82c9.83,6.64,17.34,16.62,20.79,28.58
		l32.36,112.14L1397.77,1364.62z"/>
</g>
<g>
	<path class="st11" d="M935.06,858.93c1.7,5.14-3.44,7.31-5.9,7.31c-2.46,0-7.34-3.27-7.34-7.31c0-6,4.88-7.31,7.34-7.31
		C931.62,851.62,933.79,855.1,935.06,858.93z"/>
</g>
<g>
	<path class="st10" d="M2275.49,1417.09l-49.44,0.07l-331.75-24.24c-18.57-1.18-33.13-16.77-33.43-35.8l-9.9-621.92
		c-0.31-19.64,14.64-36.01,33.82-37.01l332.98-20.03l50.69,0.05c20.21-1.05,37.22,15.3,37.45,36l7.41,666.07
		C2313.57,1401.47,2296.17,1418.4,2275.49,1417.09z"/>
</g>
<g>
	<path class="st9" d="M2220.65,1417.09l-381.2-24.17c-18.57-1.18-33.13-16.77-33.43-35.8l-9.9-621.92
		c-0.31-19.64,14.64-36.01,33.82-37.01l383.68-19.98c20.21-1.05,37.22,15.3,37.45,36l7.42,666.07
		C2258.73,1401.47,2241.32,1418.4,2220.65,1417.09z"/>
</g>
<g>
	<path class="st0" d="M2227.75,1334.86c0.06,5.14-391.64-18.22-391.71-22.85l-0.15-9.13v-0.01l-0.17-10.28l-1.56-95.43l-0.01-0.81
		l-0.04-2.69l-2.7-164.79v-0.16l-0.04-2.79v-0.01l-1.65-100.56l-2.93-179.19c-0.08-4.77,3.65-8.75,8.43-8.99l216.26-10.97h0.01
		l21.31-1.08l1.73-0.09l39.35-1.99l7.11-0.36l25.82-1.31l64.65-3.28c5.05-0.25,9.28,3.72,9.35,8.75l0.38,32.64l0.18,15.87l0.18,15.7
		l0.83,72.68l1.25,108.91l2.11,184.53v0.01l1.01,88.27v0.01l0.1,9.48l0.18,15.86l0.21,18.44l0.38,32.83L2227.75,1334.86z"/>
</g>
<g>
	<path class="st10" d="M2035.6,1361.88c2.78,21.45-11.61,32.73-30.3,30.76c-13.4-1.42-29.37-11.29-26.28-28.22
		c2.22-12.14,13.81-19.16,27.21-20.6C2027.25,1341.56,2034.01,1349.65,2035.6,1361.88z"/>
</g>
<g>
	<g>
		<path class="st12" d="M1471.32,489.89c0-65.22,31.02-134.71,131.17-134.71c65.22,0,121.06,55.64,127.62,120.53
			c7.98,78.88-39.88,126.74-134.16,136.48C1531.08,618.9,1471.32,571.42,1471.32,489.89z"/>
	</g>
	<g>
		<path class="st13" d="M1586.24,597.1c-24.3,0-47.01-8.57-64.87-24.68c-22.04-19.88-34.18-49.5-34.18-83.42
			c0-22.49,4.27-54.68,24.6-80.28c19.93-25.1,50.38-37.82,90.49-37.82c55.9,0,106.16,47.41,112.06,105.69
			c6.96,68.81-34.68,111.41-117.25,119.95C1593.45,596.92,1589.83,597.1,1586.24,597.1z M1602.29,377.99
			c-32.47,0-108,10.82-108,111.02c0,31.88,11.31,59.64,31.83,78.15c18.98,17.12,43.93,25.05,70.24,22.33
			c39.16-4.05,68.59-15.81,87.5-34.95c18.8-19.05,26.69-45.03,23.43-77.23C1701.76,422.54,1654.65,377.99,1602.29,377.99z"/>
	</g>
	<g>
		<g>
			<path class="st13" d="M1601.76,557.31l-1.24-8.11c-0.45-2.95-3.07-5.04-6.05-4.91c-7.02,0.3-14.05-0.65-19.67-2.53
				c-2.73-0.92-4.35-3.72-3.83-6.55l0.36-1.96c0.63-3.42,4.11-5.5,7.43-4.47c6.42,1.99,14.02,2.87,21.72,1.69
				c13.13-2.01,17.76-11.75,16.1-22.59c-1.6-10.46-6.76-15.24-21.32-18.85c-20.03-4.72-40.03-10.61-42.57-27.16
				c-2.21-14.42,4.43-30.35,26.11-34.38c2.59-0.48,3.82-3.59,3.42-6.19l-1.36-8.88c-0.49-3.17,1.69-6.13,4.85-6.61l0,0
				c3.17-0.49,6.13,1.69,6.61,4.85l1.14,7.4c0.44,2.89,2.97,5.02,5.9,4.92c5.88-0.21,10.77,0.5,14.86,1.62
				c2.93,0.8,4.71,3.76,4.1,6.74l-0.38,1.88c-0.67,3.28-3.96,5.26-7.2,4.4c-4.54-1.21-10.7-2.08-18.4-0.9
				c-14.24,2.18-18.26,11.76-17.09,19.37c1.52,9.89,11.63,9.31,28.77,13.69c20.27,5.07,34.03,14.48,38.18,31.09
				c4.43,17.72-4.21,31.91-26.82,39.01c-2.51,0.79-3.83,3.59-3.43,6.2l1.45,9.45c0.49,3.17-1.69,6.13-4.85,6.61l-0.19,0.03
				C1605.2,562.65,1602.24,560.48,1601.76,557.31z"/>
		</g>
	</g>
</g>
<g>
	<g>
		<path class="st12" d="M1601.6,719.02c14.9-38.07,48.88-71.56,107.34-48.68c38.07,14.9,57.96,60.14,46.97,99.51
			c-13.36,47.87-52.23,64.88-109.5,49.04C1607.02,807.98,1582.98,766.62,1601.6,719.02z"/>
	</g>
	<g>
		<path class="st13" d="M1683.92,814.99c-10.1,0-21.21-1.65-33.25-4.98c-17.21-4.76-30.95-15.9-38.7-31.37
			c-8.33-16.64-8.65-36.71-0.9-56.5v0c5.14-13.13,14.98-30.95,32.7-41.25c17.37-10.1,38.05-10.57,61.46-1.41
			c32.63,12.77,51.15,51.93,41.28,87.3C1737.66,798.5,1715.88,814.99,1683.92,814.99z M1615.21,723.75
			c-7.28,18.61-7.02,37.4,0.74,52.9c7.17,14.33,19.92,24.66,35.91,29.08c23.78,6.58,43.66,6.44,59.06-0.42
			c15.33-6.82,25.87-20.19,31.32-39.74c9.28-33.23-8.05-70-38.62-81.96C1684.66,676.19,1638.1,665.25,1615.21,723.75L1615.21,723.75
			z"/>
	</g>
	<g>
		<g>
			<path class="st13" d="M1662.35,788.17l1.13-5.02c0.41-1.83-0.64-3.64-2.41-4.25c-4.17-1.43-8.06-3.59-10.91-5.97
				c-1.38-1.16-1.69-3.16-0.74-4.7l0.66-1.06c1.15-1.85,3.66-2.28,5.36-0.92c3.29,2.63,7.53,4.88,12.29,5.95
				c8.13,1.82,13.05-2.81,14.56-9.51c1.45-6.47-0.46-10.44-8.14-15.87c-10.62-7.33-20.95-15.34-18.65-25.58
				c2-8.93,9.52-16.71,23.1-14.11c1.62,0.31,3.05-1.22,3.41-2.83l1.23-5.5c0.44-1.96,2.38-3.19,4.34-2.75l0,0
				c1.96,0.44,3.19,2.38,2.75,4.34l-1.03,4.58c-0.4,1.79,0.59,3.61,2.32,4.22c3.48,1.22,6.18,2.75,8.3,4.34
				c1.53,1.14,1.89,3.27,0.86,4.87l-0.65,1.01c-1.14,1.76-3.52,2.17-5.21,0.92c-2.37-1.74-5.77-3.66-10.54-4.73
				c-8.81-1.98-13.34,2.69-14.4,7.4c-1.37,6.12,4.66,8.09,13.67,14.56c10.68,7.59,16.56,16.22,15.19,26.87
				c-1.46,11.36-9.75,17.67-24.57,16.65c-1.65-0.11-3.05,1.22-3.42,2.83l-1.31,5.85c-0.44,1.96-2.38,3.19-4.34,2.75l-0.11-0.03
				C1663.14,792.08,1661.91,790.13,1662.35,788.17z"/>
		</g>
	</g>
</g>
<g>
	<g>
		<polygon class="st14" points="1551.59,1482.5 1551.59,1465.61 1798.59,1464.08 1798.24,1482.5 		"/>
	</g>
	<g>
		<path class="st14" d="M1561.28,1465.14c22.47-18.7,73.74-35.15,161.96-23.91c57.45,7.32,87.46,29.54,70.88,48.88
			c-20.16,23.51-78.8,31.87-165.2,24.08C1569.45,1508.84,1533.18,1488.52,1561.28,1465.14z"/>
	</g>
	<g>
		<path class="st12" d="M1561.28,1448.88c22.47-18.7,73.74-35.15,161.96-23.91c57.45,7.32,87.46,29.54,70.88,48.88
			c-20.16,23.51-78.8,31.87-165.2,24.08C1569.45,1492.58,1533.18,1472.26,1561.28,1448.88z"/>
	</g>
	<g>
		<path class="st13" d="M1685.45,1496.84c-15.01,0-31.52-0.81-49.43-2.42c-37.25-3.35-62.89-13.45-66.91-26.34
			c-1.33-4.28-0.97-11,8.34-18.75l0,0c12.06-10.04,49.77-32.15,139.2-20.76c34.79,4.43,59.63,15.54,64.81,29
			c2.06,5.34,0.91,10.77-3.33,15.71c-8.82,10.29-25.74,17.31-50.3,20.87C1715.46,1495.95,1701.29,1496.84,1685.45,1496.84z
			 M1670.15,1429.25c-15.67,0-30.12,1.24-43.21,3.72c-25.5,4.83-39.65,13.16-47.03,19.31l0,0c-6.17,5.13-8.57,10.07-7.14,14.67
			c3.49,11.22,28.46,20.51,63.6,23.67c72.96,6.57,122.28-0.47,138.87-19.82c3.31-3.86,4.2-7.84,2.66-11.85
			c-4.61-11.96-28.83-22.39-61.72-26.58C1699.86,1430.29,1684.49,1429.25,1670.15,1429.25z"/>
	</g>
	<g>
		<g>
			<path class="st13" d="M1652.93,1482.85l1.7-2.46c0.62-0.9-0.97-1.79-3.64-2.09c-6.29-0.7-12.16-1.76-16.46-2.93
				c-2.09-0.57-2.55-1.55-1.11-2.31l0.99-0.52c1.74-0.91,5.52-1.12,8.09-0.45c4.97,1.29,11.36,2.4,18.55,2.92
				c12.26,0.9,19.69-1.38,21.96-4.67c2.19-3.18-0.7-5.13-12.28-7.8c-16.02-3.6-31.6-7.53-28.13-12.56
				c3.02-4.38,14.36-8.21,34.84-6.93c2.45,0.15,4.6-0.6,5.15-1.39l1.86-2.7c0.66-0.96,3.6-1.57,6.55-1.35l0,0
				c2.96,0.22,4.81,1.17,4.15,2.13l-1.55,2.25c-0.61,0.88,0.89,1.77,3.5,2.07c5.25,0.6,9.32,1.35,12.53,2.13
				c2.3,0.56,2.85,1.61,1.29,2.39l-0.98,0.5c-1.72,0.87-5.3,1.06-7.85,0.45c-3.58-0.86-8.71-1.8-15.9-2.32
				c-13.29-0.97-20.13,1.32-21.73,3.64c-2.07,3.01,7.04,3.97,20.62,7.15c16.11,3.73,24.98,7.97,22.92,13.2
				c-2.21,5.58-14.7,8.68-37.07,8.18c-2.49-0.06-4.61,0.6-5.15,1.39l-1.98,2.87c-0.66,0.96-3.6,1.57-6.55,1.35l-0.17-0.01
				C1654.12,1484.76,1652.26,1483.81,1652.93,1482.85z"/>
		</g>
	</g>
</g>
<g>
	<g>
		<polygon class="st14" points="1071.48,1470.05 1071.48,1458.97 1233.5,1457.97 1233.27,1470.05 		"/>
	</g>
	<g>
		<path class="st14" d="M1077.83,1458.66c14.74-12.27,48.37-23.05,106.23-15.69c37.68,4.8,57.37,19.37,46.49,32.06
			c-13.22,15.42-51.69,20.9-108.36,15.8C1083.19,1487.32,1059.4,1474,1077.83,1458.66z"/>
	</g>
	<g>
		<path class="st12" d="M1077.83,1448c14.74-12.27,48.37-23.05,106.23-15.69c37.68,4.8,57.37,19.37,46.49,32.06
			c-13.22,15.42-51.69,20.9-108.36,15.8C1083.19,1476.66,1059.4,1463.33,1077.83,1448z"/>
	</g>
	<g>
		<path class="st13" d="M1158.93,1479.43c-9.75,0-20.46-0.52-32.06-1.56c-24.43-2.2-41.25-8.82-43.89-17.28
			c-0.87-2.8-0.63-7.22,5.47-12.3c7.91-6.58,32.65-21.09,91.3-13.62c22.82,2.91,39.11,10.19,42.51,19.02
			c1.35,3.5,0.59,7.07-2.18,10.31C1211.38,1474.15,1190.09,1479.43,1158.93,1479.43z M1089.25,1449.26l0.8,0.96
			c-4.05,3.37-5.62,6.6-4.68,9.62c2.29,7.36,18.67,13.45,41.71,15.53c47.86,4.31,80.21-0.31,91.09-13c2.17-2.53,2.76-5.15,1.75-7.77
			c-3.02-7.84-18.91-14.69-40.49-17.43c-22.39-2.85-42.08-2.72-58.53,0.39c-16.72,3.17-26.01,8.63-30.85,12.66L1089.25,1449.26z"/>
	</g>
	<g>
		<g>
			<path class="st13" d="M1137.95,1470.28l1.11-1.62c0.41-0.59-0.63-1.17-2.38-1.37c-4.13-0.46-7.97-1.16-10.8-1.92
				c-1.37-0.37-1.67-1.02-0.73-1.51l0.65-0.34c1.14-0.6,3.62-0.73,5.31-0.29c3.26,0.85,7.45,1.57,12.17,1.92
				c8.04,0.59,12.92-0.9,14.41-3.07c1.44-2.08-0.46-3.36-8.05-5.11c-10.51-2.36-20.73-4.94-18.46-8.24
				c1.98-2.88,9.42-5.38,22.86-4.54c1.6,0.1,3.02-0.39,3.37-0.91l1.22-1.77c0.43-0.63,2.36-1.03,4.3-0.89l0,0
				c1.94,0.14,3.16,0.77,2.72,1.4l-1.02,1.48c-0.4,0.58,0.58,1.16,2.3,1.36c3.45,0.39,6.11,0.89,8.22,1.4
				c1.51,0.37,1.87,1.05,0.85,1.57l-0.65,0.33c-1.13,0.57-3.48,0.7-5.15,0.3c-2.35-0.56-5.71-1.18-10.43-1.52
				c-8.72-0.64-13.21,0.87-14.25,2.39c-1.36,1.97,4.61,2.61,13.52,4.69c10.57,2.44,16.39,5.23,15.03,8.66
				c-1.45,3.66-9.64,5.69-24.31,5.36c-1.63-0.04-3.02,0.39-3.38,0.91l-1.3,1.88c-0.44,0.63-2.36,1.03-4.3,0.89l-0.11-0.01
				C1138.74,1471.53,1137.52,1470.91,1137.95,1470.28z"/>
		</g>
	</g>
</g>
<g>
	<g>
		<path class="st12" d="M1525,896.99c-2.05-22.83,6.63-48.14,41.69-51.28c22.83-2.05,44.13,15.68,48.47,38.19
			c5.27,27.36-9.98,45.62-42.68,52C1549.97,940.28,1527.56,925.54,1525,896.99z"/>
	</g>
	<g>
		<path class="st13" d="M1565.41,931.07c-7.36,0-14.39-2.31-20.3-6.75c-8.34-6.27-13.52-16.26-14.58-28.13l0,0
			c-0.71-7.87-0.22-19.28,6.09-28.88c6.19-9.41,16.45-14.82,30.49-16.08c19.57-1.75,38.66,13.26,42.55,33.48
			c4.6,23.87-8.64,40.09-37.28,45.68C1570.04,930.84,1567.71,931.07,1565.41,931.07z M1533.01,895.96c1,11.16,5.83,20.52,13.6,26.36
			c7.18,5.4,16.17,7.39,25.29,5.61c27.46-5.35,39.67-20.14,35.31-42.76c-3.66-19-21.55-33.13-39.88-31.47
			C1555.97,854.72,1529.87,860.88,1533.01,895.96L1533.01,895.96z"/>
	</g>
	<g>
		<g>
			<path class="st13" d="M1572.78,916.5l-0.69-2.8c-0.25-1.02-1.23-1.67-2.27-1.53c-2.45,0.33-4.94,0.22-6.97-0.27
				c-0.98-0.23-1.64-1.17-1.55-2.17l0.07-0.7c0.11-1.22,1.27-2.06,2.46-1.8c2.31,0.5,5,0.57,7.66-0.09
				c4.53-1.12,5.85-4.67,4.92-8.42c-0.89-3.61-2.84-5.13-8.05-5.93c-7.16-1.02-14.35-2.46-15.76-8.17
				c-1.23-4.98,0.6-10.77,8.06-12.86c0.89-0.25,1.22-1.38,1-2.27l-0.76-3.07c-0.27-1.09,0.4-2.2,1.49-2.47l0,0
				c1.09-0.27,2.2,0.4,2.47,1.49l0.63,2.56c0.25,1,1.2,1.67,2.22,1.54c2.05-0.26,3.79-0.16,5.25,0.1c1.05,0.19,1.77,1.17,1.65,2.23
				l-0.07,0.67c-0.13,1.17-1.22,1.97-2.38,1.76c-1.63-0.28-3.81-0.39-6.47,0.26c-4.92,1.21-6.02,4.69-5.38,7.32
				c0.84,3.41,4.36,2.89,10.5,3.89c7.26,1.14,12.37,4,14.34,9.69c2.11,6.07-0.47,11.3-8.16,14.5c-0.86,0.36-1.23,1.38-1.01,2.28
				l0.8,3.26c0.27,1.09-0.4,2.2-1.49,2.47l-0.06,0.02C1574.16,918.26,1573.05,917.6,1572.78,916.5z"/>
		</g>
	</g>
</g>
<g>
	<g>
		<g>
			<path class="st13" d="M1597.86,1090.45c-91.5-46.89-218.78-123.3-305.52-221.11c-20.1-22.66-27.44-31.71-37.25-47.18
				c-7.89-12.45-37.71-6.73-58.08,12.34c-19.12,17.89-30.24,52.78-26.92,60.22c5.65,12.65,19.43,29.06,41.43,54.81
				c76.42,89.47,199.29,173.33,355.05,246.76L1597.86,1090.45z"/>
		</g>
	</g>
	<g>
		<path class="st7" d="M1258.51,1156.94c0,0-0.39,10.1-2.2,30.05c-1.68,19.95-4.92,49.74-10.49,89.12
			c-0.39,2.72-0.78,5.57-1.16,8.55c-0.78,4.79-1.43,9.84-2.2,15.03c0,0-0.13,0.13-0.13,0.26l-0.13,0.91
			c-2.85,19.43-6.35,40.93-10.62,64.38l-392.47,1.42l4.91-47.61l4.67-33.09l2.07-16.97l0.65-5.05l11.27-94.17l210.22-26.42
			c0,0-0.52,12.56-2.85,37.17L1258.51,1156.94z"/>
	</g>
	<g>
		<path class="st11" d="M834.91,1270.71c-0.7,15.81,94.26,28.77,212.52,33.38c118.26,4.61,213.7-5.09,214.4-20.89
			c0.7-15.81-93.59-31.74-211.85-36.35C931.73,1242.24,835.62,1254.9,834.91,1270.71z"/>
	</g>
	<g>
		<path class="st12" d="M895.17,826.05c0,0,26.67-81.23,180.68-71.26c222.1,14.39,187.21,216.94,185.98,528.4
			c0,0-216.51-46.29-426.76-16.38C835.08,1266.82,838.09,949.03,895.17,826.05z"/>
	</g>
	<g>
		<path class="st12" d="M839.18,810.2l96.64,62.7c0,0,218.76,35.46,277.88,29.94c59.12-5.52,78.17-47.31,78.17-47.31
			s-57.72-68.78-162.32-93.41c-9.83-2.33-20.05-4.25-30.69-5.69c-17.86-2.42-35.85-3.44-53.56-2.69
			C910.15,759.42,839.18,810.2,839.18,810.2z"/>
	</g>
	<g>
		<path class="st13" d="M1056.02,734.38l14.26-36.69l4.15-10.68l24.4-62.8l-1.87,64.05l-1.13,38.44l-0.36,12.17
			c-0.24,8.26,4.66,10.34,10.27,17.93c2.27,3.07,16.88,21.77-1.66,28.45c-23.09,8.32-63.91-9.6-78.45-30.35
			C1025.76,754.88,1051.42,746.24,1056.02,734.38z"/>
	</g>
	<g>
		<path class="st7" d="M1242.36,1294.65c0,0-125.21-46.6-393.63-13.56l-4.72,37.95l387.2,40.99L1242.36,1294.65z"/>
	</g>
	<g>
		<path class="st11" d="M1156.27,1276.72c0,0-56.5-5.37-81.62,39.49c0,0,15.47-45.45-8.38-46.41c-9.87-0.39,10.29-5.66,10.29-5.66
			L1156.27,1276.72z"/>
	</g>
	<g>
		<path class="st11" d="M836.85,812.46c-10.82,13.29,4.77,44.4,34.82,69.49c30.06,25.09,63.19,34.66,74.01,21.38
			c10.82-13.29-4.77-44.4-34.83-69.49C880.81,808.75,847.67,799.17,836.85,812.46z"/>
	</g>
	<g>
		<g>
			<path class="st13" d="M937.8,904.29c-1.13,1.62-2.21,3.19-3.26,4.73c-10.21,14.99-17.07,27.59-31.8,56.7
				c-23.69,46.75-43.81,98.05-60.85,150.31c-28.12,86.21-47.9,175.03-61.47,250.46l-95.79,0.29l-8.91-36.24
				c28.66-179.25,70.86-320.3,128.91-430.45c5.09-9.64,9.67-18.32,13.87-26.06c7.57-13.99,13.88-24.94,19.53-33.14
				c2.75-3.96,5.34-7.28,7.85-9.98c2.46-2.65,9.67-4.23,18.86-4.15c8.39,0.06,18.44,1.5,28.02,4.73c6.33,2.13,12.45,5.05,17.77,8.86
				c11.66,8.37,20.84,20.66,25.97,32.64c0.72,1.7,1.37,3.4,1.93,5.08C941.91,888.52,942.06,898.22,937.8,904.29z"/>
		</g>
	</g>
	<g>
		<g>
			<path class="st10" d="M1151.7,603.69c0,0,2.96,15.83-2.46,35.02c-5.42,19.2-21.88-30.09-21.88-30.09L1151.7,603.69z"/>
		</g>
		<g>
			<path class="st13" d="M1151.2,644.5c-2.3-38.02-29.72-67.3-61.26-65.39c-31.53,1.91-55.23,34.27-52.93,72.29
				c2.3,38.02,29.72,67.29,61.26,65.39C1129.81,714.89,1153.5,682.52,1151.2,644.5z"/>
		</g>
		<g>
			<path class="st11" d="M1036.98,631.62l27.82-0.93c6.12-0.2,11.9-3.08,15.55-7.99c6.28-8.46,13.41-12.53,39.1-9.75
				c32.54,3.52,55.44-14.42,60.17-31.24c4.82-17.17-11.04-30.15-28.01-23c-16.97,7.16-8.5-12.72-24.11-15.99
				c-29.16-6.11-36.27,16.2-60.32,13.77c-31.54-3.19-89.84,16.85-66.9,74.38L1036.98,631.62z"/>
		</g>
		<g>
			<g>
				<path class="st15" d="M1097.31,645.29c0.31-0.17,0.54-0.47,0.6-0.85c0.1-0.63-0.33-1.22-0.97-1.32
					c-0.37-0.06-8.88-2.2-13.86,6.65c-0.31,0.56-0.14,1.26,0.41,1.59c0.55,0.33,1.15,0.06,1.59-0.41c4.38-4.69,11.2-5.58,11.51-5.54
					C1096.85,645.45,1097.1,645.4,1097.31,645.29z"/>
			</g>
		</g>
		<g>
			<path class="st15" d="M1091.26,659.77c0.54,2.71,2.57,4.6,4.54,4.2c1.97-0.39,3.13-2.91,2.59-5.62c-0.54-2.71-2.57-4.6-4.54-4.21
				C1091.88,654.54,1090.72,657.06,1091.26,659.77z"/>
		</g>
		<g>
			<g>
				<path class="st15" d="M1140.34,644.86c0.27-0.03,0.52-0.21,0.66-0.53c0.24-0.54,0.09-1.25-0.34-1.6
					c-0.25-0.2-5.84-5.58-11.89,0.51c-0.38,0.38-0.45,1.1-0.14,1.62c0.31,0.52,0.82,0.51,1.27,0.26c4.46-2.53,9.66-0.6,9.87-0.44
					C1139.96,644.82,1140.16,644.88,1140.34,644.86z"/>
			</g>
		</g>
		<g>
			<path class="st15" d="M1128.96,655.97c-0.54,2.71,0.63,5.23,2.6,5.62c1.97,0.39,4-1.5,4.54-4.21c0.53-2.71-0.63-5.23-2.6-5.62
				C1131.53,651.37,1129.5,653.26,1128.96,655.97z"/>
		</g>
		<g>
			<path class="st10" d="M1000.27,630.87c0,0,16.18,42.5,43.01,47.42c0,0-19.67-32.9,27.77-48.78
				C1071.05,629.51,1029.2,619.88,1000.27,630.87z"/>
		</g>
		<g>
			<path class="st13" d="M1036.8,656.26c5.53,4.09,12.97,3.4,16.62-1.54c3.65-4.94,2.13-12.25-3.39-16.34
				c-5.53-4.09-12.97-3.4-16.62,1.54C1029.76,644.86,1031.28,652.18,1036.8,656.26z"/>
		</g>
		<g>
			<path class="st10" d="M1071.05,629.51c0,0-6.12,34.28,0.45,41.3c6.57,7.02,52.79,13.09,75.04,6.24l0,0
				c-1.2,22.21-18.21,40.69-40.34,42.83c-7.32,0.71-14.81,0.19-22.16-1.63l0,0c-14.98-3.72-29.28-11.02-34.54-25.53
				c-1.6-4.41,5.78-30.36,5.78-30.36s3.17-15.31-5.26-23.98C1050.03,638.38,1061.06,629.78,1071.05,629.51z"/>
		</g>
		<g>
			<path class="st16" d="M1134.24,688.71c0,0-18.12,3.56-37.42,0.32c0,0,1.59,18.2,21.5,15.99
				C1129.9,703.74,1134.24,688.71,1134.24,688.71z"/>
		</g>
		<g>
			<path class="st11" d="M1148.76,555.78c-9.02-0.35-9.28-8.06-9.29-8.14l1.56-0.03l-0.78,0.02l0.78-0.02
				c0.01,0.26,0.26,6.32,7.79,6.62L1148.76,555.78z"/>
		</g>
		<g>
			<path class="st16" d="M1129.33,604.45l-0.17-0.76c0.36-0.08,35.79-7.93,38.48-25.7c0.76-5.02,0.15-8.44-1.86-10.44
				c-3.23-3.2-9.6-2.18-15.21-1.28c-0.86,0.14-1.71,0.27-2.52,0.39l-0.11-0.77c0.81-0.12,1.65-0.25,2.5-0.39
				c5.8-0.93,12.38-1.99,15.89,1.5c2.21,2.19,2.89,5.82,2.09,11.11c-1.15,7.6-8.29,14.56-20.65,20.15
				C1138.49,602.45,1129.42,604.43,1129.33,604.45z"/>
		</g>
		<g>
			<path class="st16" d="M1068.43,563.59c-4.66,0-9.75-0.48-15.27-1.62l0.16-0.76c17.54,3.64,30.57,0.42,38.42-2.91
				c8.51-3.62,12.93-8.16,12.97-8.2l0.56,0.54C1105.13,550.78,1092.5,563.59,1068.43,563.59z"/>
		</g>
	</g>
	<g>
		<path class="st17" d="M759.6,1129.18c-1,0-2-0.11-2.99-0.35c-9.6-2.28-14.79-15.13-11.58-28.64l0,0
			c3.21-13.5,13.63-22.63,23.23-20.35c9.6,2.28,14.79,15.13,11.58,28.63C776.96,1120.59,768.29,1129.18,759.6,1129.18z
			 M749.63,1101.29c-2.56,10.78,1.13,21.29,8.08,22.94c6.94,1.65,14.97-6.06,17.54-16.85c2.57-10.78-1.13-21.29-8.08-22.94
			C760.23,1082.8,752.2,1090.51,749.63,1101.29L749.63,1101.29z"/>
	</g>
</g>
<g>
	<g>
		<g>
			<path class="st13" d="M1717.9,1125.38c-2.03-2.06-4.75-4.04-7.96-5.92c23.58-7.32,22.84-18.61-16.05-25.25
				c-19.07-3.25-52.46-15.32-77.12-13.68c-17.06,1.14-29.85,4.26-29.85,4.26c-9.35-1.11-68.43,87.43-66.94,88.74
				c54.73,39.59,145.72,63.29,160.91,57.73c15.28-5.59,6.47-18.66,18.38-24.68c12.67-6.41,2.98-20.5,11.93-26.47
				c8.95-5.96,6.9-15.43,4.66-25.91C1713.61,1143.72,1729.44,1137.08,1717.9,1125.38z"/>
		</g>
	</g>
	<g>
		<g>
			<g>
				<path class="st18" d="M1973.15,864.81c-1.8,3.91-3.37,7.5-4.85,11.14c-4.45,10.94-8.04,22.22-14.32,43.4
					c-3.86,13.03-6.34,26.9-7.8,41.36c-0.07,0.66-0.14,1.32-0.2,1.98c-0.04,0.46-0.08,0.92-0.13,1.38c-5,55.39,4.31,119,8.34,176.44
					c0.35,4.82,0.64,9.61,0.89,14.34c0.05,0.83,0.09,1.67,0.13,2.5c0.01,0.09,0.01,0.18,0.02,0.27c1.4,28.09,0.96,54.29-3.76,76.74
					c-0.9,4.28-1.95,8.41-3.19,12.41c-1.15,3.79-2.46,7.44-3.95,10.94c-2.99,7.09-22.19,31.58-29.35,36.29
					c-0.09,0.06-0.51,15.92-4.72,16.98c-0.06,0.02-14.29,12.81-16.4,12.78c-41.47-0.55-55.98,0-57.82-11.75
					c0,0-17.54-78.92-20.03-111.2c-0.01-0.11-0.01-0.21-0.02-0.32c-0.07-0.88-0.14-1.76-0.2-2.63c-0.08-1.03-0.16-2.05-0.22-3.06
					c-1.93-26.42-3.06-52.18-3.37-77.12c-0.37-27.7,0.27-54.4,1.92-79.91c0-0.05,0-0.09,0.01-0.14c0.06-0.94,0.12-1.89,0.19-2.83
					c2.67-39.61,7.79-76.32,15.4-109.42c9.41-40.94,22.61-76.35,39.68-104.84c0,0,0.01-0.02,0.04-0.05
					c0.22-0.36,0.59-0.72,1.09-1.08c0.01,0,0.01,0,0.01-0.01c6.96-4.95,38.71-9.27,60.04-5.36c4.24,0.78,8.07,1.89,11.21,3.37
					C1963.31,827.58,1978.96,852.18,1973.15,864.81z"/>
			</g>
		</g>
	</g>
	<g>
		<g>
			<path class="st7" d="M2101.03,1336.56l-15.23-0.94l-87.56-5.4h-0.08l-58.17-3.6l-27.19-1.68l-18.95-1.17h-0.11
				c-0.5-4.65-0.99-9.21-1.45-13.69c-0.21-2.04-0.42-4.05-0.62-6.05c-0.49-4.95-0.96-9.8-1.42-14.54
				c-0.42-4.44-0.83-8.79-1.21-13.05c-0.26-2.96-0.52-5.87-0.77-8.74l-0.02-0.21l-0.01-0.14l-0.02-0.23
				c-0.01-0.1-0.01-0.18-0.02-0.27v-0.01c-0.44-5.07-0.85-10.01-1.22-14.8c-0.23-2.86-0.45-5.7-0.66-8.47
				c-1.74-23.19-2.86-42.99-3.58-59.34c-0.01-0.4-0.02-0.79-0.04-1.17c-0.04-0.91-0.07-1.81-0.11-2.71
				c-1.46-35.7-0.91-53.82-0.91-53.82l72.5,13.99l24.15,4.66l1.49,0.29l1.26,0.24l1.79,0.35l76.33,14.74l12.81,2.47l19.93,3.85
				l3.52,65.76l0.61,11.45l0.63,11.72l1.86,34.82l1.92,35.75L2101.03,1336.56z"/>
		</g>
	</g>
	<g>
		<g>
			<path class="st7" d="M2227.6,1322.1l-0.38-32.83l-0.21-18.44l-0.18-15.86l-0.1-9.48v-0.01l-1.01-88.27v-0.01l-142.76-15.57
				l-25.55-2.79c0,0,0.39,7.38,1.8,21.96c0.48,5,1.09,10.87,1.86,17.56c1.6,14.16,3.86,32.09,7.04,53.71
				c0.55,3.77,1.13,7.65,1.74,11.64c0.54,3.57,1.11,7.23,1.71,10.97c1.75,11.08,3.71,22.93,5.91,35.55
				c2.04,11.66,4.27,23.98,6.72,36.95c0.52,2.78,1.06,5.6,1.6,8.44l15.23,0.94l117.28,7.24c5.16,0.33,9.5-3.8,9.44-8.94
				L2227.6,1322.1z"/>
		</g>
	</g>
	<g>
		<g>
			<path class="st11" d="M2226.84,1254.97l0.18,15.86l0.21,18.44c-34.79,2.27-79.46,2.8-128.65,1.57c-4.73-0.12-9.51-0.25-14.33-0.4
				c-2.27-0.07-4.53-0.15-6.78-0.22c-8.06-0.29-15.99-0.63-23.78-1.03c-1.57-0.08-3.15-0.17-4.71-0.25h-0.01
				c-44.92-2.42-84.98-6.63-115.81-11.8c-18.44-3.1-33.58-6.54-44.47-10.15h-0.01c-0.16-0.04-0.3-0.09-0.46-0.15v-0.01
				c-10.96-3.67-17.51-7.52-18.64-11.36c-0.13-0.44-0.19-0.87-0.18-1.3c0.01-0.11,0.01-0.21,0.02-0.31
				c0.08-0.85,0.45-1.68,1.07-2.49c2.19-2.86,7.64-5.48,15.85-7.8c14.25-4.02,36.8-7.16,65.13-9.2
				c32.54-2.34,72.69-3.22,116.64-2.31c5.8,0.13,11.68,0.27,17.61,0.46c3.27,0.11,6.52,0.22,9.76,0.35
				C2145.7,1234.8,2226.84,1254.97,2226.84,1254.97z"/>
		</g>
	</g>
	<g>
		<g>
			<path class="st18" d="M2226.73,1245.49L2226.73,1245.49l-1.01-88.28v-0.01l-2.11-184.53l-1.25-108.91l-0.83-72.68l-0.18-15.7
				c-17.14-12.26-36.88-22.95-59.42-30.36h-0.01c-5.96-1.96-12.12-3.69-18.47-5.16c-15.18-3.51-31.49-5.54-48.97-5.63
				c-6.39-0.03-12.57,0.09-18.56,0.39c-4.46,0.22-8.8,0.53-13.04,0.94h-0.01c-9.68,0.91-18.82,2.3-27.46,4.14h-0.01
				c-49.39,10.53-82.35,36.01-104.83,74.34c-8.39,14.28-15.31,30.35-21.08,48.09c-9.78,29.97-16.27,64.71-20.97,103.72
				c-0.01,0.01-0.01,0.02,0,0.03c-0.15,1.15-0.28,2.31-0.42,3.47v0.01c-1.04,8.83-1.98,17.87-2.85,27.13v0.01
				c-0.08,0.87-0.17,1.74-0.25,2.62c-0.02,0.2-0.03,0.4-0.05,0.61c-5.02,54.38-7.68,115.88-11.33,183.32
				c-0.05,0.92-0.11,1.85-0.15,2.77c-0.03,0.41-0.05,0.82-0.07,1.24c-1.02,18.68-2.12,37.83-3.38,57.4c0,0.01,0,0.02,0,0.03
				c-0.2,3.12-0.4,6.23-0.61,9.37c-0.01,0.1-0.01,0.21-0.02,0.31c0,0,0.44-0.06,1.3-0.18c2.37-0.32,7.95-1.04,16.3-1.96
				c13.65-1.5,34.71-3.55,61.28-5.25c33.18-2.13,74.94-3.72,121.57-3.07c8.59,0.13,17.34,0.31,26.23,0.61
				c41.3,1.31,85.66,4.51,130.75,10.66L2226.73,1245.49z"/>
		</g>
	</g>
	<g>
		<g>
			<path class="st18" d="M2222.37,863.76c-17.94,1.56-80.99,6.91-143.91,10.15c-0.21,0-0.42,0.01-0.63,0.03
				c-1.72,0.08-3.44,0.17-5.16,0.25c-1.39,0.07-2.79,0.14-4.19,0.21c-14.3,0.68-28.45,1.24-41.94,1.6h-0.01
				c-21.93,0.61-42.11,0.68-58.23-0.05c-9.28-0.42-17.22-1.11-23.38-2.13c-14.13-2.33-25.82-6.57-35.41-11.7
				c-30.67-16.34-40.1-41.58-40.1-41.58s0.01-0.02,0.04-0.05c0.13-0.12,0.49-0.49,1.09-1.08c0.01,0,0.01,0,0.01-0.01
				c8.9-8.68,69.08-64.35,166.14-81.08c1.03-0.18,2.07-0.36,3.11-0.52c7.71-1.26,15.63-2.27,23.78-2.99
				c2.51-0.22,5.05-0.41,7.59-0.58c1.53-0.1,3.06-0.19,4.61-0.24c6.55-0.3,13.08-0.34,19.59-0.18c0.01,0,0.01,0,0.01,0
				c10.07,0.2,20.09,0.83,30.02,1.5c6.12,0.42,12.03,0.99,17.75,1.7c0.01,0,0.01,0,0.02,0c7.31,0.89,14.31,2.03,21,3.36
				c22.11,4.41,40.96,11.06,57.01,19.13l0.18,15.87l0.18,15.7L2222.37,863.76z"/>
		</g>
	</g>
	<g>
		<g>
			<path class="st7" d="M2227.6,1322.1l-127.11,4.49l-16.3,0.58l-85.95,3.04h-0.08l-58.17-3.6l-25.56-1.58l-0.57-0.03l-1.06-0.06
				l-16.41-1.02c0.92-2.79,3.15-5.13,6.16-6.03c0.25-0.07-10.66-13.92-10.66-13.92l-1.44-14.5l-1.28-12.95l-0.88-8.82l-0.02-0.21
				l-0.01-0.14l-0.02-0.23c0,0,0.15-0.04,0.44-0.13h0.01c3.04-0.84,21.46-5.69,55.64-9.27c9.47-1.01,20.14-1.91,32.04-2.6
				c0,0,0.02,0,0.05,0c24.89-1.46,55.09-2,90.71-0.61c0.18,0,0.36,0,0.55,0.01c1.29,0.05,2.58,0.11,3.89,0.16
				c8.11,0.35,16.49,0.8,25.15,1.35c38.1,2.44,81.51,7.05,130.29,14.8l0.21,18.44L2227.6,1322.1z"/>
		</g>
	</g>
	<g>
		<g>
			<path class="st11" d="M1976.37,1255.12c0,0,57.38-1.42,79.55,45.63c0,0-12.39-46.96,11.75-46.23c9.98,0.3-9.98-6.44-9.98-6.44
				L1976.37,1255.12z"/>
		</g>
	</g>
	<g>
		<g>
			<path class="st10" d="M2028.68,576.4c0,0-4.11,15.76,0,35.51c4.11,19.75,24.2-28.8,24.2-28.8L2028.68,576.4z"/>
		</g>
	</g>
	<g>
		<g>
			<path class="st13" d="M2145.18,737.89c-16.15,19.89-45.16,17.09-67.85,7.07c-18.25-8.06-15.63-7.91-13.12-10.84
				c6.18-7.25,11.28-9,11.62-17.35l0.45-10.94l0.05-1.36l0.58-14.27l1.02-24.61l2.64-64.74l20.18,65.08l3.43,11.07l11.78,38.04
				C2119.76,727.31,2145.05,737.86,2145.18,737.89z"/>
		</g>
	</g>
	<g>
		<g>
			<path class="st11" d="M2107.32,687.21c0,0-10.42,15.6-31.05,18.61l0.05-1.36l0.58-14.27
				C2088.06,689.12,2107.32,687.21,2107.32,687.21z"/>
		</g>
	</g>
	<g>
		<g>
			<path class="st13" d="M2026.29,617.61c5.01-38.2,34.76-65.79,66.44-61.63c31.68,4.16,53.29,38.5,48.28,76.69
				c-5.01,38.2-34.76,65.79-66.44,61.63C2042.89,690.14,2021.28,655.8,2026.29,617.61z"/>
		</g>
	</g>
	<g>
		<g>
			<g>
				<path class="st15" d="M2072.09,622.68c-0.34-0.09-0.64-0.33-0.79-0.69c-0.25-0.6,0.03-1.28,0.63-1.53
					c0.35-0.15,8.19-4.31,15.23,3.18c0.44,0.47,0.44,1.21-0.02,1.66c-0.46,0.45-1.12,0.33-1.66-0.02
					c-5.43-3.55-12.35-2.78-12.64-2.66C2072.58,622.73,2072.32,622.74,2072.09,622.68z"/>
			</g>
		</g>
	</g>
	<g>
		<g>
			<g>
				<path class="st15" d="M2040.96,622.39c-0.27-0.01-0.54-0.18-0.71-0.49c-0.28-0.53-0.18-1.26,0.23-1.63
					c0.24-0.22,5.51-6.04,12.03-0.32c0.41,0.36,0.53,1.08,0.25,1.62c-0.28,0.55-0.79,0.58-1.26,0.35c-4.68-2.24-9.79,0.07-9.99,0.25
					C2041.34,622.33,2041.15,622.39,2040.96,622.39z"/>
			</g>
		</g>
	</g>
	<g>
		<g>
			<path class="st16" d="M2046.5,654.38c0,0,18.03,4.88,37.74,2.97c0,0-2.89,18.25-22.83,14.61
				C2049.81,669.85,2046.5,654.38,2046.5,654.38z"/>
		</g>
	</g>
	<g>
		<g>
			<path class="st12" d="M2094.12,748.15c0,0-27.42-8.48-34.71-1.9c-7.29,6.58-1.93,36.7,10.7,39.38
				C2082.73,788.31,2106.6,755.42,2094.12,748.15z"/>
		</g>
	</g>
	<g>
		<g>
			<path class="st19" d="M2078.01,741.05c0,0,35.79-12.65,42.78-25.31c6.98-12.65,44.04,16.58,43.4,25.31
				c-0.64,8.73-67.4,57.15-71.76,51.05C2088.07,785.99,2069.27,749.34,2078.01,741.05z"/>
		</g>
	</g>
	<g>
		<g>
			<path class="st19" d="M2078.01,741.05c0,0-5.35-13.28-2.77-20.5c0,0,1.7-6.34-3.75-5.9c-5.45,0.44-35.12,21.16-37.74,27.49
				c-2.62,6.33-3.05,35.99,6.54,38.18c9.6,2.18,32.74-29.69,35.45-32.84C2078.47,744.32,2078.01,741.05,2078.01,741.05z"/>
		</g>
	</g>
	<g>
		<g>
			<path class="st12" d="M2062.43,773.99c0,0-94.35,244.54-88.06,347.03c0,0,6.65,59.81,49.05,92.1c0,0,57.23-37.52,64.91-92.1
				c6.32-44.85-21.65-304.72-5.51-340.6L2062.43,773.99z"/>
		</g>
	</g>
	<g>
		<g>
			<path class="st11" d="M2070.32,786.29c-0.07,0-0.15,0-0.22,0c-8.32-0.14-12.85-16.41-13.04-17.11l1.26-0.34
				c0.04,0.16,4.45,16.02,11.79,16.14c0.07,0,0.13,0,0.2,0c7.47,0,14.16-6.93,14.23-7l0.95,0.9
				C2085.2,779.19,2078.34,786.29,2070.32,786.29z"/>
		</g>
	</g>
	<g>
		<g>
			<path class="st11" d="M2108.22,582.27c0,0-13.94,21.95-44.48,23.37c0,0-3.62-1.34,1.63-4.67c5.25-3.33,12.7-12.45,10.72-15.29
				c-1.98-2.84-24.54,27.91-48.06,26.32c0,0-32.68-1.12-13.7-20.59c11.78-12.09,0-59.77,78.05-64.13
				c11.41-0.64,36.04,0.84,45.2,18.48c0,0,30.99-0.97,37.3,36.53c9.49,56.4-42.1,77.07-42.1,77.07s12.79-47.87-1.31-41.66
				c-18.11,7.97-27.7-2.3-19.85-12.7C2119.48,594.59,2121.4,574,2108.22,582.27z"/>
		</g>
	</g>
	<g>
		<g>
			<path class="st13" d="M2140.89,637.58c-5.87,3.73-13.32,2.51-16.66-2.73c-3.33-5.24-1.28-12.51,4.58-16.25
				c5.86-3.73,13.32-2.51,16.66,2.73C2148.8,626.57,2146.75,633.85,2140.89,637.58z"/>
		</g>
	</g>
	<g>
		<g>
			<path class="st11" d="M2162.13,548.21c-0.34,0-0.67-0.13-0.93-0.38c-8.53-8.53-21.52-5.26-21.65-5.22
				c-0.71,0.18-1.42-0.24-1.6-0.93c-0.18-0.7,0.24-1.41,0.93-1.6c0.59-0.15,14.58-3.68,24.16,5.9c0.51,0.51,0.51,1.34,0,1.85
				C2162.8,548.08,2162.46,548.21,2162.13,548.21z"/>
		</g>
	</g>
	<g>
		<g>
			<path class="st11" d="M2134.85,535.45c-0.06,0-0.12,0-0.19-0.01c-0.71-0.1-1.21-0.76-1.11-1.47c0.04-0.3,0.7-6.88-9.48-10.37
				c-0.68-0.23-1.05-0.98-0.81-1.66c0.23-0.68,0.98-1.05,1.66-0.81c12.33,4.23,11.27,12.84,11.22,13.2
				C2136.05,534.97,2135.49,535.45,2134.85,535.45z"/>
		</g>
	</g>
	<g>
		<g>
			<path class="st11" d="M1889.2,969.91c-0.1,0-0.21-0.01-0.32-0.04c-0.7-0.17-1.13-0.89-0.95-1.59
				c7.14-28.61,16.03-54.37,26.42-76.55c0.31-0.66,1.08-0.94,1.74-0.63c0.65,0.31,0.94,1.09,0.63,1.74
				c-10.31,22.03-19.14,47.62-26.25,76.07C1890.32,969.51,1889.78,969.91,1889.2,969.91z"/>
		</g>
	</g>
	<g>
		<g>
			<path class="st11" d="M1869.4,1255.48c-0.67,0-1.24-0.51-1.3-1.2c-0.01-0.14-1.2-14.18-1.95-36.95
				c-0.03-0.72,0.54-1.33,1.26-1.35c0.01,0,0.03,0,0.04,0c0.7,0,1.28,0.56,1.31,1.27c0.75,22.7,1.93,36.67,1.94,36.81
				c0.06,0.72-0.47,1.35-1.19,1.42C1869.48,1255.48,1869.44,1255.48,1869.4,1255.48z"/>
		</g>
	</g>
	<g>
		<g>
			<path class="st15" d="M2043.24,635.74c0.32,2.48,2.03,4.31,3.83,4.08c1.8-0.23,3.01-2.43,2.69-4.91
				c-0.32-2.48-2.03-4.31-3.83-4.08C2044.13,631.06,2042.92,633.25,2043.24,635.74z"/>
		</g>
	</g>
	<g>
		<g>
			<path class="st15" d="M2073.02,636.6c0.32,2.48,2.03,4.31,3.83,4.08c1.8-0.23,3.01-2.43,2.69-4.91
				c-0.32-2.48-2.03-4.31-3.83-4.08C2073.91,631.92,2072.7,634.12,2073.02,636.6z"/>
		</g>
	</g>
	<g>
		<g>
			<g>
				<path class="st18" d="M2223.62,972.67c-1.22,1.37-2.46,2.74-3.7,4.11c-9.82,10.77-20.51,21.48-31.92,32.06
					c-0.01,0.02-0.02,0.03-0.03,0.03c-28.94,26.8-62.56,52.72-98.89,76.49c-17.96,11.76-36.58,22.98-55.61,33.54
					c-0.05,0.03-0.12,0.06-0.17,0.09c-17.12,9.49-34.59,18.43-52.21,26.72c-0.35,0.17-0.69,0.33-1.04,0.48
					c-8.25,3.87-16.53,7.6-24.84,11.16c-3.15,1.35-6.3,2.69-9.46,3.99c-0.07,0.03-0.15,0.05-0.21,0.08
					c-20.96,8.7-41.99,16.35-62.77,22.8c-3.13,0.98-6.24,1.92-9.36,2.83c-13.23,3.89-26.34,7.28-39.25,10.11
					c-6.09,1.34-12.15,2.56-18.15,3.64c-3.36,0.61-6.7,1.18-10.03,1.71l-0.01-0.02l-1.05-2.47l-6.01-14.26l-0.46-1.07l-0.22-0.51
					l-7.35-17.43c-0.01-0.01-0.02-0.03-0.02-0.05l-12.97-30.66c-0.01-0.02-0.02-0.04-0.03-0.06l-2.48-5.9v-0.01l-19.45-46.03
					l-0.1-0.24l-0.43-1.03l-0.55-1.28l-5.42-12.84c2.21-0.96,4.48-1.93,6.79-2.97c0.01-0.01,0.02-0.01,0.03-0.01
					c17.1-7.55,36.69-17,57.87-27.9c0.11-0.05,0.21-0.1,0.32-0.16c0.01,0,0.02,0,0.02,0c5.55-2.86,11.19-5.82,16.95-8.87
					c17.19-9.12,35.2-19.05,53.6-29.61c20.05-11.49,40.56-23.72,60.97-36.43c9.5-5.91,19-11.93,28.4-18.02
					c13.07-8.48,25.98-17.04,38.59-25.55h0.01c9.92-6.69,19.64-13.36,29.1-19.94c12.43-8.62,24.41-17.1,35.75-25.23
					c0.21-0.16,0.42-0.3,0.62-0.44c55.29-39.71,95.53-71.67,100.96-77.93c6.14-7.08,23.39-7.97,42.14-4.5l0.83,72.68L2223.62,972.67
					z"/>
			</g>
		</g>
	</g>
	<g>
		<g>
			<path class="st11" d="M1805.98,1202.51c-18.81,7.03-45.79-17.73-60.26-55.31c-14.47-37.58-10.95-73.74,7.86-80.77
				c18.81-7.03,45.79,17.73,60.26,55.31C1828.31,1159.32,1824.79,1195.48,1805.98,1202.51z"/>
		</g>
	</g>
	<g>
		<g>
			<path class="st13" d="M1791.93,1189.5c-14.49,5.41-35.27-13.66-46.42-42.6c-11.15-28.94-8.43-56.8,6.05-62.21
				c14.49-5.42,35.27,13.66,46.42,42.6C1809.13,1156.23,1806.42,1184.09,1791.93,1189.5z"/>
		</g>
	</g>
	<g>
		<g>
			<path class="st13" d="M1796.87,1184.07c0.16-0.15,0.25-0.23,0.25-0.23l-3.78-7.59c-2.69-11.76-8.26-30.14-18.91-45.65
				c3.05-1.54,5.63-4.05,7.21-7.35l2.04-4.26c3.81-7.97-10.38-29.38-18.34-33.19c0,0-39.55-11.27-66.82-25.38
				c-55.05-28.47-79.85-3.11-45.61,16.29c2.25,1.28,20.92,11.82,32.71,18.36c3.43,1.9,2.86,6.99-0.91,8.08
				c-41.2,11.93-174.21,54.76-162.23,86.32c7.19,18.93,94.5-25.12,94.06-22.55c-0.44,2.57-77.19,28.23-56.65,47.73
				c13.81,13.11,85.32-15.87,84.27-13.25c-1.05,2.62-61.36,22.44-56.12,34.33c8.8,19.97,65.21-6.71,65.56-6.23
				c0.35,0.48-38.66,22.75-27.47,31.84c11.19,9.09,149.1-32.07,171.88-76.14L1796.87,1184.07z"/>
		</g>
	</g>
	<g>
		<g>
			<path class="st20" d="M1673.66,1089.44c-0.17,0-0.35-0.04-0.51-0.13c-8.29-4.65-19.38-10.91-20.76-11.69
				c-12.95-7.33-18.87-16.57-15.1-23.54c5.44-10.04,28.91-11.55,61.71,5.41c26.86,13.89,66.23,25.19,66.63,25.3
				c0.56,0.16,0.88,0.74,0.72,1.3c-0.16,0.56-0.74,0.88-1.3,0.72c-0.4-0.11-39.97-11.46-67.02-25.45
				c-33.57-17.36-54.65-14.12-58.9-6.28c-3.18,5.87,2.43,14,14.29,20.72c1.37,0.78,12.46,7.03,20.75,11.68
				c0.51,0.28,0.69,0.92,0.4,1.43C1674.38,1089.24,1674.03,1089.44,1673.66,1089.44z"/>
		</g>
	</g>
	<g>
		<g>
			<path class="st20" d="M1798.69,1184.4c-0.05-0.05-0.12-0.09-0.19-0.14c-0.08-0.04-0.18-0.07-0.27-0.08
				c-0.35-0.08-0.71,0.03-0.96,0.28c-0.06,0.07-0.13,0.16-0.18,0.25c-0.49,0.96-1.04,1.91-1.64,2.85
				c-2.6,4.13-6.15,8.16-10.33,12.03c-0.97,0.9-1.96,1.78-3,2.67c-0.28,0.24-0.58,0.48-0.86,0.73c-0.29,0.24-0.59,0.48-0.88,0.71
				c-7.2,5.88-15.7,11.35-24.37,16.22c-0.18,0.11-0.36,0.2-0.54,0.3c-0.1,0.05-0.21,0.12-0.31,0.17c-0.3,0.18-0.62,0.35-0.93,0.52
				c-6.67,3.68-13.39,7.01-19.64,9.9c-3.06,1.42-6.21,2.82-9.43,4.21c-0.23,0.09-0.46,0.19-0.69,0.29l-0.98,0.41
				c-0.31,0.14-0.64,0.27-0.96,0.42c-8.72,3.66-17.86,7.16-26.98,10.34c-0.19,0.06-0.37,0.13-0.55,0.19
				c-0.16,0.05-0.31,0.11-0.47,0.16c-0.33,0.13-0.67,0.24-1.01,0.35c-8.16,2.8-16.27,5.32-23.99,7.45c-0.36,0.11-0.71,0.2-1.06,0.29
				c-0.36,0.09-0.7,0.19-1.05,0.28c-5.43,1.47-10.65,2.74-15.54,3.75c-19.94,4.16-24.24,2.25-25.08,1.55
				c-1.16-0.94-1.7-2.04-1.63-3.39c0.39-7.79,19.77-20.56,26.14-24.76c3.16-2.08,3.22-2.11,3.33-2.68c0.04-0.28-0.02-0.59-0.19-0.82
				c-0.45-0.62-0.52-0.71-2.84,0.21c-0.43,0.18-0.94,0.38-1.55,0.63c-24.59,9.96-55.13,19.01-61.05,5.58
				c-0.34-0.75-0.32-1.54,0.04-2.45c1.83-4.57,11.11-10.06,21.51-15.09c7.45-3.62,15.48-7,21.76-9.63
				c10.17-4.28,12.4-5.3,12.82-6.35c0.17-0.43,0.08-0.89-0.22-1.22c-0.76-0.81-1.6-0.62-13.16,3.04c-8.65,2.75-21.38,6.78-33.8,9.7
				c-16.19,3.83-31.85,5.77-37.33,0.57c-2.54-2.4-3.53-4.91-3.05-7.66c0.45-2.61,2.19-5.29,4.81-7.96
				c9.97-10.15,32.58-20.15,44.77-25.53c9.27-4.09,10.24-4.62,10.42-5.64c0.06-0.38-0.1-0.84-0.41-1.08
				c-0.81-0.64-1.34-0.52-14.31,4.94c-13.61,5.74-36.91,15.57-54.88,19.97h-0.01c-5.7,1.39-10.85,2.25-14.99,2.25
				c-2.55,0-4.72-0.33-6.38-1.04c-1.59-0.68-2.61-1.67-3.13-3.03c-1.2-3.16-1-7.05,1.97-11.76c7.02-11.18,29.53-26.98,85.58-48.42
				c0.55-0.21,0.81-0.82,0.61-1.35c-0.21-0.54-0.82-0.82-1.35-0.61c-48.61,18.6-77.58,35.08-86.57,49.2
				c-3.08,4.85-3.83,9.41-2.2,13.68c0.72,1.91,2.16,3.33,4.27,4.23c5.18,2.21,14.34,1.09,24.95-1.67
				c11.34-2.96,24.34-7.78,35.89-12.43c-10.12,5.1-20.31,11.11-26.17,17.36c-2.65,2.82-4.43,5.7-4.92,8.55
				c-0.6,3.44,0.63,6.65,3.67,9.54c6.51,6.18,24.44,3.68,42.37-0.78c11.21-2.79,22.43-6.34,30.85-9.01
				c0.66-0.21,1.32-0.42,1.97-0.63c-0.94,0.4-1.9,0.81-2.86,1.21c-7.15,3.01-15.91,6.69-23.78,10.6
				c-10.07,5.01-18.68,10.42-20.61,15.27c-0.58,1.45-0.59,2.81-0.03,4.08c5.04,11.41,24.66,10.62,58.37-2.36
				c-11.05,7.57-22.02,16.38-22.37,23.23c-0.1,2.03,0.7,3.76,2.4,5.13c1.32,1.07,3.89,1.49,7.12,1.49c5.61,0,13.21-1.27,19.71-2.63
				c4.82-1.01,10.3-2.34,16.24-3.96c0.35-0.1,0.7-0.2,1.05-0.29c0.36-0.09,0.7-0.2,1.06-0.29c7.43-2.08,15.52-4.59,23.92-7.48
				c0.3-0.11,0.62-0.21,0.93-0.33c0.02-0.01,0.05-0.02,0.08-0.02c0.33-0.13,0.67-0.24,1.02-0.37c8.78-3.05,17.85-6.51,26.83-10.3
				c0.33-0.14,0.65-0.28,0.98-0.42l0.98-0.41c0.16-0.07,0.31-0.14,0.46-0.2c10.54-4.52,20.9-9.49,30.41-14.8
				c0.21-0.12,0.42-0.24,0.63-0.36c8.97-5.04,17.18-10.37,24.08-15.9c0.3-0.24,0.61-0.48,0.9-0.72c0.3-0.25,0.6-0.49,0.89-0.73
				c1.51-1.27,2.95-2.54,4.31-3.82c5.15-4.85,9.21-9.82,11.83-14.85c0.01-0.03,0.03-0.05,0.04-0.08
				C1799.19,1185.24,1799.06,1184.71,1798.69,1184.4z"/>
		</g>
	</g>
	<g>
		<g>
			<path class="st11" d="M1804.66,1202.71c-0.63,0-1.18-0.45-1.29-1.09c-0.12-0.71,0.36-1.39,1.07-1.51
				c0.65-0.11,65.92-11.54,149.16-44.66c48.87-19.44,94.28-42.45,134.96-68.38c50.83-32.4,94.39-69.47,129.47-110.2
				c0.47-0.55,1.3-0.61,1.85-0.14c0.55,0.47,0.61,1.3,0.14,1.84c-35.25,40.93-79.02,78.18-130.08,110.72
				c-40.83,26.02-86.4,49.1-135.43,68.61c-83.48,33.21-148.97,44.67-149.63,44.78C1804.81,1202.71,1804.74,1202.71,1804.66,1202.71z
				"/>
		</g>
	</g>
	<g>
		<g>
			<path class="st11" d="M1814.22,1037.63c-0.48,0-0.94-0.26-1.17-0.72c-0.33-0.65-0.07-1.43,0.58-1.76
				c2.31-1.16,231.8-117.45,292.44-199.8c0.43-0.58,1.25-0.71,1.83-0.28s0.71,1.25,0.28,1.83
				c-31.91,43.34-110.01,95.58-169.91,131.78c-64.83,39.18-122.89,68.52-123.47,68.81
				C1814.62,1037.59,1814.42,1037.63,1814.22,1037.63z"/>
		</g>
	</g>
	<g>
		<g>
			<path class="st13" d="M1698.9,1253.33c-9.2-10.93-24.35-49.41-9.74-56.3c14.61-6.89,38.67,37.36,37.81,45.52
				C1726.11,1250.71,1704.71,1260.23,1698.9,1253.33z"/>
		</g>
	</g>
	<g>
		<g>
			<path class="st13" d="M1671.84,1259.85c-7.82-9.29-20.69-41.99-8.28-47.85c12.42-5.86,32.86,31.75,32.13,38.69
				C1694.97,1257.63,1676.79,1265.72,1671.84,1259.85z"/>
		</g>
	</g>
	<g>
		<g>
			<path class="st13" d="M1729.46,1245.72c-9.76-12.42-25.82-56.18-10.33-64.01c15.49-7.84,41.01,42.48,40.1,51.76
				C1758.32,1242.74,1735.63,1253.57,1729.46,1245.72z"/>
		</g>
	</g>
	<g>
		<g>
			<path class="st13" d="M1755.01,1220.24c-8.97-11.42-23.73-51.63-9.49-58.83c14.24-7.2,37.69,39.04,36.85,47.57
				C1781.53,1217.51,1760.68,1227.46,1755.01,1220.24z"/>
		</g>
	</g>
	<g>
		<g>
			<path class="st20" d="M1698.9,1254.37c-0.3,0-0.6-0.13-0.8-0.37c-5.07-6.02-11.09-18.94-14.01-30.07
				c-3.87-14.73-2.23-24.62,4.63-27.85c8.75-4.13,19.31,8.12,24.83,15.79c0.34,0.47,0.23,1.13-0.24,1.46
				c-0.47,0.34-1.13,0.23-1.46-0.24c-8.74-12.15-16.84-17.66-22.23-15.11c-7.87,3.71-5.57,17.52-3.49,25.42
				c3.25,12.38,9.43,24.31,13.59,29.25c0.37,0.44,0.32,1.11-0.13,1.48C1699.38,1254.29,1699.13,1254.37,1698.9,1254.37z"/>
		</g>
	</g>
	<g>
		<g>
			<path class="st20" d="M1671.84,1260.9c-0.3,0-0.6-0.13-0.8-0.37c-6.25-7.43-15.92-29.79-13.23-42.1c0.79-3.6,2.57-6.09,5.31-7.38
				c4.59-2.17,10.49,0.63,17.05,8.09c0.38,0.44,0.34,1.1-0.1,1.48c-0.44,0.38-1.1,0.34-1.48-0.1c-4.1-4.66-9.95-9.77-14.58-7.58
				c-2.11,1-3.51,2.99-4.15,5.93c-2.52,11.52,6.92,33.33,12.79,40.3c0.37,0.44,0.32,1.1-0.13,1.48
				C1672.32,1260.82,1672.08,1260.9,1671.84,1260.9z"/>
		</g>
	</g>
	<g>
		<g>
			<path class="st20" d="M1729.46,1246.76c-0.31,0-0.62-0.14-0.83-0.4c-4.15-5.28-9.04-15.46-12.47-25.92
				c-2.37-7.23-6.02-20.79-3.88-30.43c1-4.5,3.14-7.6,6.38-9.24c5.54-2.8,12.67,0.74,20.6,10.25c0.37,0.44,0.31,1.11-0.13,1.48
				c-0.45,0.37-1.11,0.31-1.48-0.13c-5.05-6.05-12.27-12.65-18.05-9.72c-2.64,1.34-4.42,3.97-5.27,7.82
				c-3.43,15.45,8.46,45.07,15.95,54.61c0.36,0.46,0.28,1.12-0.18,1.47C1729.92,1246.69,1729.69,1246.76,1729.46,1246.76z"/>
		</g>
	</g>
	<g>
		<g>
			<path class="st20" d="M1755.01,1221.29c-0.31,0-0.62-0.14-0.83-0.4c-1.77-2.25-3.73-5.55-5.69-9.54
				c-4.56-9.3-8.06-20.14-9.37-28.99c-1.7-11.5,0.35-19.07,5.92-21.89c2.2-1.11,4.68-1.16,7.37-0.14
				c10.72,4.07,23.02,24.78,28.34,38.19c1.35,3.41,2.91,8.01,2.66,10.55c-0.06,0.58-0.56,0.99-1.15,0.94
				c-0.58-0.06-1-0.57-0.94-1.15c0.16-1.64-0.76-5.13-2.52-9.58c-5.02-12.68-17.12-33.2-27.13-37c-2.15-0.82-4-0.8-5.68,0.05
				c-10.49,5.31-3.58,31.83,4.39,48.08c1.89,3.86,3.78,7.03,5.46,9.17c0.36,0.46,0.28,1.12-0.18,1.47
				C1755.47,1221.22,1755.24,1221.29,1755.01,1221.29z"/>
		</g>
	</g>
	<g>
		<g>
			<path class="st20" d="M1700.11,1131.19c-39.59,0-92.68-8.84-95.97-9.4c-0.57-0.1-0.96-0.64-0.86-1.21
				c0.1-0.57,0.64-0.95,1.21-0.86c1.19,0.2,119.24,19.87,135.07,1.7c1.62-1.85,2-4.03,1.18-6.64
				c-3.5-11.14-58.98-23.16-106.93-32.38c-14.76-2.84-38.42,2.61-38.66,2.66c-0.56,0.13-1.13-0.22-1.26-0.78
				c-0.13-0.57,0.22-1.13,0.78-1.26c0.99-0.23,24.33-5.61,39.53-2.68c74.01,14.24,105.46,24.04,108.53,33.81
				c1.05,3.32,0.51,6.23-1.6,8.65C1735.67,1129.07,1719.51,1131.19,1700.11,1131.19z"/>
		</g>
	</g>
</g>
<g>
	<g>
		<g>
			<polygon class="st14" points="1263.34,1452.28 1263.34,1434.38 1525.2,1432.76 1524.83,1452.28 			"/>
		</g>
		<g>
			<path class="st14" d="M1273.6,1433.88c23.83-19.83,78.19-37.26,171.71-25.35c60.91,7.76,92.72,31.31,75.14,51.82
				c-21.37,24.93-83.55,33.78-175.15,25.53C1282.26,1480.21,1243.81,1458.67,1273.6,1433.88z"/>
		</g>
		<g>
			<path class="st12" d="M1273.6,1416.64c23.83-19.83,78.19-37.26,171.71-25.35c60.91,7.76,92.72,31.32,75.14,51.82
				c-21.37,24.93-83.55,33.79-175.15,25.54C1282.26,1462.97,1243.81,1441.43,1273.6,1416.64z"/>
		</g>
		<g>
			<path class="st13" d="M1405.25,1467.49c-15.92,0-33.41-0.85-52.4-2.56c-39.49-3.56-66.67-14.26-70.93-27.93
				c-2.56-8.21,3.4-15.34,8.84-19.88l0,0c12.79-10.64,52.77-34.09,147.58-22.01c36.89,4.7,63.22,16.48,68.71,30.74
				c2.18,5.66,0.96,11.42-3.53,16.66c-9.35,10.91-27.29,18.35-53.33,22.13C1437.06,1466.54,1422.04,1467.49,1405.25,1467.49z
				 M1293.35,1420.24c-6.54,5.44-9.09,10.67-7.57,15.55c3.71,11.89,30.17,21.74,67.42,25.1c77.35,6.96,129.64-0.5,147.23-21.02
				c3.51-4.09,4.46-8.32,2.82-12.56c-4.88-12.68-30.57-23.74-65.44-28.18c-36.19-4.61-68.02-4.39-94.61,0.64
				C1316.18,1404.89,1301.18,1413.73,1293.35,1420.24L1293.35,1420.24z"/>
		</g>
	</g>
	<g>
		<g>
			<polygon class="st14" points="1263.34,1432.56 1263.34,1414.66 1525.2,1413.04 1524.83,1432.56 			"/>
		</g>
		<g>
			<path class="st14" d="M1273.6,1414.16c23.83-19.83,78.19-37.26,171.71-25.35c60.91,7.76,92.72,31.32,75.14,51.82
				c-21.37,24.93-83.55,33.78-175.15,25.54C1282.26,1460.48,1243.81,1438.94,1273.6,1414.16z"/>
		</g>
		<g>
			<path class="st12" d="M1273.6,1396.92c23.83-19.83,78.19-37.26,171.71-25.35c60.91,7.76,92.72,31.31,75.14,51.82
				c-21.37,24.93-83.55,33.78-175.15,25.54C1282.26,1443.25,1243.81,1421.71,1273.6,1396.92z"/>
		</g>
		<g>
			<path class="st13" d="M1405.24,1447.77c-15.91,0-33.41-0.85-52.4-2.56c-39.49-3.56-66.67-14.26-70.93-27.93
				c-2.56-8.21,3.4-15.34,8.84-19.87c12.79-10.64,52.77-34.09,147.58-22.01c36.89,4.7,63.22,16.48,68.71,30.74
				c2.18,5.66,0.96,11.42-3.53,16.66c-9.35,10.91-27.29,18.35-53.33,22.13C1437.06,1446.82,1422.04,1447.77,1405.24,1447.77z
				 M1389.03,1376.11c-16.62,0-31.93,1.31-45.81,3.94c-27.03,5.12-42.04,13.96-49.87,20.47l0,0c-6.54,5.44-9.09,10.67-7.57,15.55
				c3.71,11.89,30.17,21.74,67.42,25.1c77.36,6.96,129.64-0.5,147.23-21.02c3.51-4.09,4.46-8.32,2.82-12.56
				c-4.88-12.67-30.57-23.74-65.44-28.18C1420.53,1377.21,1404.24,1376.11,1389.03,1376.11z"/>
		</g>
	</g>
	<g>
		<g>
			<polygon class="st14" points="1263.34,1405.24 1263.34,1387.34 1525.2,1385.72 1524.83,1405.24 			"/>
		</g>
		<g>
			<path class="st14" d="M1273.6,1386.84c23.83-19.83,78.19-37.26,171.71-25.35c60.91,7.76,92.72,31.31,75.14,51.82
				c-21.37,24.93-83.55,33.79-175.15,25.54C1282.26,1433.17,1243.81,1411.63,1273.6,1386.84z"/>
		</g>
		<g>
			<path class="st12" d="M1273.6,1369.6c23.83-19.83,78.19-37.26,171.71-25.35c60.91,7.76,92.72,31.31,75.14,51.82
				c-21.37,24.93-83.55,33.78-175.15,25.53C1282.26,1415.93,1243.81,1394.39,1273.6,1369.6z"/>
		</g>
		<g>
			<path class="st13" d="M1405.25,1420.45c-15.92,0-33.41-0.85-52.4-2.57c-39.49-3.56-66.67-14.26-70.93-27.93
				c-2.56-8.21,3.4-15.34,8.84-19.87c12.79-10.64,52.77-34.09,147.58-22.01c36.89,4.7,63.22,16.48,68.71,30.74
				c2.18,5.66,0.96,11.42-3.53,16.66c-9.35,10.91-27.29,18.35-53.33,22.13C1437.06,1419.5,1422.04,1420.45,1405.25,1420.45z
				 M1389.03,1348.79c-16.62,0-31.93,1.31-45.81,3.94c-27.03,5.12-42.04,13.96-49.87,20.47l0,0c-6.54,5.44-9.09,10.67-7.57,15.55
				c3.71,11.89,30.17,21.74,67.42,25.1c77.35,6.97,129.64-0.5,147.23-21.02c3.51-4.09,4.46-8.32,2.82-12.56
				c-4.88-12.68-30.57-23.74-65.44-28.18C1420.53,1349.89,1404.24,1348.79,1389.03,1348.79z"/>
		</g>
	</g>
	<g>
		<g>
			<polygon class="st14" points="1266.43,1371.74 1266.43,1353.84 1528.3,1352.22 1527.93,1371.74 			"/>
		</g>
		<g>
			<path class="st14" d="M1276.7,1353.33c23.83-19.83,78.19-37.26,171.71-25.35c60.91,7.76,92.72,31.31,75.14,51.82
				c-21.37,24.93-83.55,33.79-175.15,25.54C1285.36,1399.66,1246.91,1378.12,1276.7,1353.33z"/>
		</g>
		<g>
			<path class="st12" d="M1276.7,1336.1c23.83-19.83,78.19-37.26,171.71-25.35c60.91,7.76,92.72,31.31,75.14,51.82
				c-21.37,24.93-83.55,33.79-175.15,25.54C1285.36,1382.42,1246.91,1360.88,1276.7,1336.1z"/>
		</g>
		<g>
			<path class="st13" d="M1408.35,1386.95c-15.92,0-33.41-0.85-52.4-2.56c-39.49-3.56-66.67-14.26-70.93-27.93
				c-2.56-8.21,3.4-15.34,8.84-19.88l0,0c12.79-10.64,52.77-34.09,147.58-22.01c36.89,4.7,63.22,16.48,68.71,30.74
				c2.18,5.66,0.96,11.42-3.53,16.66c-9.35,10.91-27.29,18.35-53.33,22.13C1440.16,1386,1425.14,1386.95,1408.35,1386.95z
				 M1296.45,1339.7c-6.54,5.44-9.09,10.67-7.57,15.55c3.71,11.89,30.17,21.74,67.43,25.1c77.35,6.97,129.64-0.5,147.23-21.01
				c3.51-4.09,4.46-8.32,2.82-12.56c-4.88-12.68-30.57-23.74-65.44-28.18c-36.19-4.61-68.02-4.39-94.6,0.64
				C1319.28,1324.35,1304.28,1333.18,1296.45,1339.7L1296.45,1339.7z"/>
		</g>
		<g>
			<g>
				<path class="st13" d="M1373.87,1372.11l1.8-2.61c0.65-0.95-1.03-1.9-3.86-2.21c-6.67-0.74-12.89-1.87-17.45-3.11
					c-2.21-0.6-2.71-1.65-1.18-2.45l1.05-0.55c1.84-0.96,5.85-1.18,8.58-0.48c5.27,1.37,12.04,2.54,19.67,3.1
					c13,0.95,20.88-1.46,23.29-4.96c2.32-3.37-0.74-5.44-13.02-8.27c-16.98-3.82-33.5-7.99-29.83-13.32
					c3.2-4.65,15.23-8.7,36.94-7.34c2.59,0.16,4.88-0.64,5.46-1.48l1.97-2.86c0.7-1.02,3.81-1.66,6.95-1.43l0,0
					c3.13,0.23,5.11,1.24,4.4,2.26l-1.64,2.39c-0.64,0.93,0.94,1.88,3.71,2.2c5.57,0.63,9.88,1.43,13.28,2.26
					c2.44,0.59,3.02,1.71,1.37,2.54l-1.04,0.53c-1.82,0.92-5.63,1.13-8.33,0.48c-3.79-0.91-9.24-1.91-16.85-2.46
					c-14.09-1.03-21.35,1.4-23.04,3.85c-2.2,3.19,7.46,4.21,21.86,7.58c17.08,3.95,26.49,8.45,24.3,13.99
					c-2.34,5.92-15.59,9.2-39.3,8.67c-2.64-0.06-4.88,0.64-5.46,1.48l-2.1,3.05c-0.7,1.02-3.81,1.66-6.95,1.43l-0.18-0.01
					C1375.13,1374.14,1373.16,1373.13,1373.87,1372.11z"/>
			</g>
		</g>
	</g>
	<g>
		<g>
			<polygon class="st14" points="1269.29,1340.72 1269.29,1322.82 1531.16,1321.2 1530.78,1340.72 			"/>
		</g>
		<g>
			<path class="st14" d="M1279.55,1322.32c23.83-19.83,78.19-37.26,171.71-25.35c60.91,7.76,92.72,31.31,75.14,51.82
				c-21.37,24.93-83.55,33.79-175.15,25.54C1288.22,1368.64,1249.76,1347.1,1279.55,1322.32z"/>
		</g>
		<g>
			<path class="st12" d="M1279.55,1305.08c23.83-19.83,78.19-37.26,171.71-25.35c60.91,7.76,92.72,31.31,75.14,51.82
				c-21.37,24.93-83.55,33.78-175.15,25.54C1288.22,1351.41,1249.76,1329.86,1279.55,1305.08z"/>
		</g>
		<g>
			<path class="st13" d="M1411.2,1355.93c-15.91,0-33.41-0.86-52.4-2.56c-39.49-3.56-66.67-14.26-70.93-27.93
				c-2.56-8.21,3.4-15.34,8.84-19.88c12.79-10.64,52.77-34.09,147.58-22.01c36.89,4.7,63.22,16.48,68.71,30.74
				c2.18,5.66,0.96,11.42-3.53,16.66c-9.35,10.91-27.29,18.35-53.33,22.13C1443.02,1354.98,1427.99,1355.93,1411.2,1355.93z
				 M1394.98,1284.27c-16.62,0-31.93,1.31-45.81,3.94c-27.03,5.12-42.04,13.96-49.87,20.47l0,0c-6.54,5.44-9.08,10.67-7.57,15.55
				c3.71,11.89,30.17,21.74,67.42,25.1c77.35,6.96,129.64-0.5,147.23-21.02c3.51-4.09,4.46-8.32,2.82-12.56
				c-4.88-12.67-30.57-23.74-65.44-28.18C1426.49,1285.37,1410.19,1284.27,1394.98,1284.27z"/>
		</g>
		<g>
			<g>
				<path class="st13" d="M1376.72,1341.09l1.8-2.61c0.66-0.95-1.02-1.9-3.85-2.21c-6.67-0.75-12.89-1.87-17.45-3.11
					c-2.21-0.6-2.71-1.65-1.18-2.45l1.05-0.55c1.84-0.96,5.85-1.18,8.58-0.48c5.26,1.37,12.04,2.54,19.67,3.1
					c13,0.95,20.88-1.46,23.29-4.96c2.32-3.37-0.74-5.44-13.02-8.27c-16.98-3.82-33.5-7.99-29.83-13.32
					c3.2-4.65,15.23-8.7,36.94-7.35c2.59,0.16,4.88-0.64,5.46-1.47l1.97-2.86c0.7-1.02,3.81-1.66,6.95-1.43l0,0
					c3.13,0.23,5.11,1.24,4.4,2.26l-1.64,2.38c-0.64,0.93,0.94,1.88,3.71,2.2c5.57,0.63,9.88,1.43,13.28,2.26
					c2.44,0.59,3.02,1.71,1.37,2.54l-1.04,0.53c-1.82,0.92-5.62,1.13-8.33,0.48c-3.8-0.91-9.24-1.9-16.85-2.46
					c-14.09-1.03-21.35,1.4-23.04,3.85c-2.2,3.19,7.46,4.21,21.86,7.58c17.08,3.95,26.49,8.45,24.3,13.99
					c-2.34,5.92-15.59,9.2-39.3,8.67c-2.64-0.06-4.88,0.64-5.46,1.48l-2.1,3.05c-0.7,1.02-3.81,1.66-6.95,1.43l-0.18-0.01
					C1377.99,1343.12,1376.02,1342.11,1376.72,1341.09z"/>
			</g>
		</g>
	</g>
	<g>
		<g>
			<polygon class="st14" points="1329.99,1301.75 1329.99,1283.86 1591.86,1282.24 1591.48,1301.75 			"/>
		</g>
		<g>
			<path class="st14" d="M1340.25,1283.36c23.83-19.83,78.19-37.26,171.71-25.35c60.9,7.76,92.72,31.31,75.14,51.82
				c-21.37,24.93-83.55,33.78-175.15,25.54C1348.92,1329.68,1310.46,1308.14,1340.25,1283.36z"/>
		</g>
		<g>
			<path class="st12" d="M1340.25,1266.12c23.83-19.83,78.19-37.26,171.71-25.35c60.9,7.76,92.72,31.31,75.14,51.82
				c-21.37,24.93-83.55,33.78-175.15,25.53C1348.92,1312.44,1310.46,1290.9,1340.25,1266.12z"/>
		</g>
		<g>
			<path class="st13" d="M1471.9,1316.97c-15.91,0-33.41-0.86-52.4-2.57c-39.49-3.56-66.67-14.26-70.93-27.93
				c-2.56-8.21,3.4-15.34,8.84-19.87l0,0c12.79-10.64,52.77-34.09,147.58-22.01c36.89,4.7,63.22,16.48,68.71,30.74
				c2.18,5.66,0.96,11.42-3.53,16.66c-9.35,10.91-27.29,18.35-53.33,22.13C1503.72,1316.02,1488.69,1316.97,1471.9,1316.97z
				 M1455.68,1245.31c-16.62,0-31.93,1.31-45.81,3.94c-27.03,5.12-42.04,13.96-49.87,20.47l0,0c-6.54,5.44-9.09,10.67-7.57,15.55
				c3.7,11.89,30.17,21.74,67.42,25.1c77.35,6.96,129.64-0.5,147.23-21.02c3.51-4.09,4.46-8.32,2.82-12.56
				c-4.88-12.68-30.57-23.74-65.44-28.18C1487.19,1246.41,1470.89,1245.31,1455.68,1245.31z"/>
		</g>
	</g>
	<g>
		<g>
			<polygon class="st14" points="1289.28,1276.06 1289.28,1258.16 1551.15,1256.54 1550.77,1276.06 			"/>
		</g>
		<g>
			<path class="st14" d="M1299.54,1257.65c23.83-19.83,78.19-37.26,171.71-25.35c60.9,7.76,92.72,31.31,75.14,51.82
				c-21.37,24.93-83.55,33.79-175.15,25.54C1308.21,1303.98,1269.75,1282.44,1299.54,1257.65z"/>
		</g>
		<g>
			<path class="st12" d="M1299.54,1240.42c23.83-19.83,78.19-37.26,171.71-25.35c60.9,7.76,92.72,31.31,75.14,51.82
				c-21.37,24.93-83.55,33.79-175.15,25.54C1308.21,1286.74,1269.75,1265.2,1299.54,1240.42z"/>
		</g>
		<g>
			<path class="st13" d="M1431.19,1291.27c-15.92,0-33.42-0.85-52.4-2.56c-39.49-3.56-66.67-14.26-70.93-27.93
				c-2.56-8.21,3.4-15.34,8.84-19.88l0,0c12.79-10.64,52.77-34.09,147.58-22.01c36.89,4.7,63.22,16.48,68.71,30.74
				c2.18,5.66,0.96,11.42-3.53,16.66c-9.35,10.91-27.29,18.35-53.33,22.13C1463.01,1290.32,1447.98,1291.27,1431.19,1291.27z
				 M1319.3,1244.02c-6.54,5.44-9.09,10.67-7.57,15.55c3.71,11.89,30.17,21.74,67.42,25.1c77.35,6.96,129.64-0.5,147.23-21.02
				c3.51-4.09,4.46-8.32,2.82-12.56c-4.88-12.67-30.57-23.74-65.44-28.18c-36.19-4.61-68.02-4.39-94.61,0.64
				C1342.13,1228.67,1327.12,1237.5,1319.3,1244.02L1319.3,1244.02z"/>
		</g>
		<g>
			<g>
				<path class="st13" d="M1396.71,1276.43l1.8-2.61c0.66-0.95-1.02-1.9-3.85-2.21c-6.67-0.74-12.89-1.87-17.45-3.11
					c-2.21-0.6-2.7-1.65-1.18-2.45l1.05-0.55c1.84-0.96,5.85-1.18,8.58-0.48c5.27,1.37,12.04,2.54,19.67,3.1
					c13,0.95,20.88-1.46,23.29-4.96c2.32-3.37-0.74-5.44-13.02-8.27c-16.98-3.82-33.5-7.99-29.83-13.32
					c3.2-4.65,15.23-8.7,36.94-7.35c2.59,0.16,4.88-0.64,5.45-1.48l1.97-2.86c0.7-1.02,3.81-1.66,6.95-1.43l0,0
					c3.13,0.23,5.11,1.24,4.4,2.26l-1.64,2.39c-0.64,0.93,0.94,1.88,3.71,2.2c5.57,0.63,9.88,1.43,13.28,2.26
					c2.44,0.59,3.02,1.71,1.37,2.54l-1.04,0.53c-1.82,0.92-5.62,1.13-8.33,0.48c-3.8-0.91-9.24-1.91-16.85-2.46
					c-14.09-1.03-21.35,1.4-23.04,3.85c-2.2,3.19,7.46,4.21,21.86,7.58c17.08,3.95,26.49,8.45,24.3,13.99
					c-2.34,5.92-15.59,9.2-39.3,8.67c-2.63-0.06-4.88,0.64-5.46,1.48l-2.1,3.05c-0.7,1.02-3.81,1.66-6.95,1.43l-0.18-0.01
					C1397.98,1278.46,1396.01,1277.45,1396.71,1276.43z"/>
			</g>
		</g>
	</g>
</g>
</svg>
