<?xml version="1.0" encoding="utf-8"?>
<!-- Generator: Adobe Illustrator 24.1.1, SVG Export Plug-In . SVG Version: 6.00 Build 0)  -->
<svg version="1.1" id="Layer_1" xmlns="http://www.w3.org/2000/svg" xmlns:xlink="http://www.w3.org/1999/xlink" x="0px" y="0px"
	 viewBox="0 0 8192 8192" style="enable-background:new 0 0 8192 8192;" xml:space="preserve">
<style type="text/css">
	.st0{fill:#FFA800;}
</style>
<path class="st0" d="M183.7,1334.8c104.4-289.9,316-388.5,617.5-388.5c2194.7,5.8,4389.4,2.9,6587.1,2.9
	c446.5,0,617.5,171.1,617.5,617.5c0,1382.9,0,2768.7,0,4151.7c0,423.3-174,594.3-603.1,597.3c-150.8,0-298.6,0-446.5,0
	c0-243.5,0-472.5,0-710.4c110.1-8.6,205.8-14.4,307.3-23.2c0-1298.9,0-2589,0-3890.8c-2110.6,0-4218.4,0-6340.7,0
	c0,1290.1,0,2586.1,0,3902.4c63.8,0,127.5,0,188.4,0c603.1,0,1203.2,2.8,1809.1-2.8c113-2.8,176.9,31.9,229.1,136.3
	c92.8,191.4,200,374,316,588.5c-89.9,0-150.8,0-211.6,0c-811.8,0-1620.7-8.6-2432.4,5.8c-301.5,5.8-513.2-86.9-637.8-365.2
	C183.7,4416.7,183.7,2874.3,183.7,1334.8z M7643.5,3387.5c-124.7-2.9-246.5,110.1-255.1,234.9c-5.8,133.4,110.1,255.1,249.3,255.1
	c136.3,0,237.7-104.4,240.7-237.8C7878.2,3500.5,7776.9,3390.4,7643.5,3387.5z"/>
<path class="st0" d="M4057.1,5109.6c0-104.3,0-165.2,0-226.1c0-742.2-2.9-1481.5,0-2223.7c0-214.5,78.3-327.6,232-353.7
	c229-40.6,373.9,87,376.9,333.4c2.8,423.3,2.8,846.6,2.8,1313.4c95.7-208.7,231.9-304.4,417.5-243.6
	c246.5,78.3,208.8,301.5,226.1,501.6c17.4-240.7-8.6-521.9,339.2-510.3c330.6,11.6,275.5,292.8,318.9,510.3
	c5.8-31.9,11.6-66.7,14.4-101.5c2.8-40.6,0-81.2,2.8-121.7c8.6-185.5,115.9-292.8,292.8-292.8c171,0,295.7,113,301.5,292.8
	c5.8,197.2,2.8,394.3,2.8,591.5c0,487.1,0,974.1,0,1458.3c0,704.6-458.1,1179.9-1159.7,1206.1c-403,14.4-788.7-37.7-1101.7-321.8
	c-69.6-66.7-136.3-145-185.5-229.1c-301.5-527.6-597.3-1058.2-893-1588.8c-40.6-69.6-78.3-142.1-101.5-220.3
	c-43.5-130.5-37.7-258.1,92.8-339.2c127.5-78.3,263.8-66.7,368.2,40.6C3746.9,4738.6,3880.2,4906.6,4057.1,5109.6z"/>
</svg>
