<?xml version="1.0" encoding="utf-8"?>
<!-- Generator: Adobe Illustrator 24.1.1, SVG Export Plug-In . SVG Version: 6.00 Build 0)  -->
<svg version="1.1" id="Layer_1" xmlns="http://www.w3.org/2000/svg" xmlns:xlink="http://www.w3.org/1999/xlink" x="0px" y="0px"
	 viewBox="0 0 8192 8192" style="enable-background:new 0 0 8192 8192;" xml:space="preserve">
<style type="text/css">
	.st0{fill:#FFA800;}
</style>
<path class="st0" d="M5879.1,3284.8c-108.8,345.7-375.2,523.6-691.4,637.1c-736,271.5-1476.8,271.5-2207.8-19.7
	c-158-64.1-306.3-163.1-429.8-276.6c-281.6-256.9-271.7-587.7,0-854.4c232.1-227.3,528.6-335.9,834.7-410
	c617.4-143.3,1225-113.5,1822.6,118.6c301.2,118.6,553.3,296.3,671.6,612.4C5879.1,3151.6,5879.1,3220.5,5879.1,3284.8z
	 M4106,2450.1C4101.2,2464.8,4111,2440.3,4106,2450.1c-197.6,19.7-395.1,14.9-582.8,59.3c-242,64.1-488.9,143.3-706.2,266.7
	c-232.1,133.4-217.3,355.6,0,508.7c93.8,64.1,192.5,118.6,301.3,158c607.5,202.4,1225,212.4,1842.4,39.6
	c177.8-49.4,350.7-143.3,498.8-251.8c148-108.7,143.3-281.6,0-405c-93.8-79-202.6-158-316.1-187.7
	C4807.4,2548.9,4446.8,2524.1,4106,2450.1z"/>
<path class="st0" d="M5879.1,4163.9c-108.8,345.9-375.2,528.4-686.6,641.9c-745.8,276.6-1501.6,271.5-2237.4-34.5
	c-168-69.2-326-197.6-459.3-326c-172.9-172.9-187.7-385.2-83.8-587.7c716.1,888.9,2854.7,770.6,3388.2-14.9
	c24.7,44.5,54.2,88.9,79.2,133.4C5879.1,4030.5,5879.1,4099.8,5879.1,4163.9z"/>
<path class="st0" d="M5879.1,5074.5c-108.8,345.9-375.2,528.4-686.6,641.9c-745.8,276.6-1501.6,271.5-2237.4-34.5
	c-168-69.2-326-197.6-459.3-326c-172.9-172.9-187.7-385.2-83.8-587.7c716.1,888.9,2854.7,770.6,3388.2-14.9
	c24.7,44.5,54.2,88.9,79.2,133.4C5879.1,4941.1,5879.1,5010.3,5879.1,5074.5z"/>
<path class="st0" d="M612.3,4774.1c0-92-2.6-176.3,0-263.2c2.6-166.1-5.1-337.4,10.2-500.9c46-536.7,485.5-1004.4,1017.1-1091.2
	c66.4-12.8,135.4-12.8,204.4-20.5c38.3-5.1,71.6,10.2,86.9,48.5c17.9,38.3,2.6,69-25.5,97.1c-184,191.7-299,419.1-342.5,682.4
	c-10.2,56.3-12.8,112.5-12.8,168.7c-2.6,281.1-2.6,562.3-2.6,843.4c0,10.2,2.6,20.5,2.6,35.7c71.6,0,140.6,2.6,209.6,0
	c43.4-2.6,79.3,7.7,94.6,51.1c17.9,46-5.1,74.1-38.3,102.3c-222.4,199.4-444.7,396.1-667,595.5c-56.2,48.5-84.4,48.5-140.6,0
	c-222.4-199.4-444.7-396.1-667-595.5c-30.7-28.2-56.2-56.2-38.3-102.3c17.9-43.4,53.7-53.7,94.6-51.1
	C469.1,4774.1,535.6,4774.1,612.3,4774.1z M1082.5,5374.6c166.1-148.2,327.2-288.8,498.3-442.1c-35.7,0-56.2,0-74.1,0
	c-86.9,0-109.9-23-109.9-107.3c0-306.7-2.6-613.3,2.6-920.1c2.6-275.9,81.8-529,230-759c12.8-20.5,28.2-43.4,46-69
	c-17.9,2.5-28.2,2.5-38.3,5.1c-500.9,107.3-858.8,549.4-863.8,1060.6c-2.6,227.4,0,457.5,0,684.9c0,81.8-25.5,107.3-107.3,107.3
	c-20.5,0-43.4,0-76.7,0C755.4,5083.4,916.4,5226.5,1082.5,5374.6z"/>
<path class="st0" d="M6735.4,3618.8c-70.1,0-132.8-2.4-195.5,0c-40.2,2.4-72.7-10-87.8-50.2s5-65.1,35.1-90.2
	c208.1-182.9,413.6-368.6,621.7-551.5c50.2-42.6,77.8-42.6,125.3,0c208.1,182.9,413.6,368.6,621.7,551.5
	c27.5,25.1,47.6,50.2,35.1,90.2c-15,40.2-47.6,50.2-87.8,50.2c-62.6-2.4-130.4,0-198.1,0c0,30.1,0,57.6,0,82.8
	c0,167.9,2.4,340.8-2.4,508.8c-7.5,584-453.7,1072.8-1032.8,1133c-35.1,2.5-70.1,5-102.8,7.6c-37.6,2.5-70.1-10-82.8-45.1
	c-17.5-37.6,2.4-62.6,25.1-90.2c125.3-130.4,223.1-275.8,268.2-448.7c30.1-110.3,55.2-228.1,57.6-340.9
	C6743,4162.7,6735.4,3894.5,6735.4,3618.8z M6637.7,5190.4c2.4,0,10-2.5,20.1-2.5c468.8-102.7,797.2-508.8,799.6-990.1
	c2.4-213,0-423.7,0-636.7c0-57.6,27.5-85.2,85.2-85.2c25.1,0,50.2,0,85.2,0c-160.4-142.8-308.3-275.8-461.1-408.6
	c-150.4,135.4-300.9,268.2-461.1,408.6c35.1,0,55.2,0,75.1,0c70.1,0,95.3,22.5,95.3,95.3c0,285.8,0,574,0,859.8
	c0,142.9-22.5,288.2-75.1,418.6C6758,4964.8,6692.8,5077.7,6637.7,5190.4z"/>
</svg>
