<?xml version="1.0" encoding="utf-8"?>
<!-- Generator: Adobe Illustrator 24.1.1, SVG Export Plug-In . SVG Version: 6.00 Build 0)  -->
<svg version="1.1" id="Layer_1" xmlns="http://www.w3.org/2000/svg" xmlns:xlink="http://www.w3.org/1999/xlink" x="0px" y="0px"
	 viewBox="0 0 8192 8192" style="enable-background:new 0 0 8192 8192;" xml:space="preserve">
<style type="text/css">
	.st0{fill:#FFA800;}
</style>
<path class="st0" d="M5547.5,6910.5c110-63.9,186.7-150.9,209.7-276.3c23-120.3,0-235.3-89.6-327.4c133-92,209.7-207.2,207.2-368.3
	c-2.5-158.6-81.8-276.3-212.3-360.7c7.6-12.7,15.4-23,23-33.2c92-140.6,102.3-286.5,28.1-437.4c-76.7-158.6-266-255.8-419.5-227.7
	c-138.1,25.6-276.3,51.2-416.9,58.8c-214.8,12.7-429.8,7.6-644.6-20.5c-143.3-20.5-286.5-35.8-424.6-74.2
	c-214.9-58.8-365.8-197-427.1-419.5c-7.7-30.7-25.6-30.7-48.6-30.7c-135.6,0-276.3,2.5-411.8,0c-107.4-2.5-204.6,23-299.3,69.1
	c-117.7,61.4-225.1,135.5-314.6,237.9c-61.4,66.4-127.9,130.4-186.7,197c-25.6,28.1-48.6,58.8-48.6,104.9
	c2.6,647.1,0,1291.7,2.6,1938.9c0,17.9,12.8,43.5,28.2,53.7c171.4,138.1,353,260.9,547.4,363.2c156.1,79.3,314.6,133,493.7,133
	c693.2-2.5,1386.3-2.5,2082.1,0c58.8,0,112.5-7.6,166.2-35.8c89.6-46.1,156-110,191.8-204.6
	C5624.2,7130.5,5611.5,7020.5,5547.5,6910.5z"/>
<path class="st0" d="M5547.5,6910.5c63.9,112.5,76.7,222.6,35.8,337.6c-35.8,94.7-102.3,158.6-191.8,204.6
	c-53.7,28.1-107.4,35.8-166.2,35.8c-693.2-2.5-1386.3-2.5-2082.1,0c-179,2.5-340.2-53.7-493.7-133c-197-99.8-376-225.1-547.4-363.2
	c-15.4-12.7-28.2-35.8-28.2-53.7c-2.6-647.1-2.6-1291.7-2.6-1938.9c0-43.5,23-76.7,48.6-104.9c61.4-66.4,127.9-130.4,186.7-197
	c89.6-99.8,197-176.5,314.6-237.9c92.1-48.6,191.8-71.6,299.3-69.1c135.6,2.5,276.3,2.5,411.8,0c23,0,38.3,0,48.6,30.7
	c58.8,222.6,209.8,360.7,427.1,419.5c138.1,38.3,281.4,53.7,424.6,74.2c214.9,30.7,429.7,33.2,644.5,20.5
	c140.6-7.6,278.8-33.2,416.9-58.8c153.5-28.1,340.2,69.1,419.5,227.7c74.2,150.9,63.9,296.8-28.1,437.4c-5.1,10.2-12.7,17.9-23,33.2
	c130.4,86.9,209.7,202.1,212.3,360.7c2.5,161.1-74.2,276.3-207.2,368.3c89.6,92,112.5,207.2,89.6,327.4
	C5734.3,6757,5657.4,6846.5,5547.5,6910.5z"/>
<path class="st0" d="M1882.1,6020.3c0,347.8,0,695.8,0,1043.6c0,135.5-66.5,199.5-199.5,199.5c-312.1,0-626.7,0-938.7,0
	c-143.3,0-204.6-61.4-207.2-204.6c0-150.9,0-304.4,0-455.2c0-547.4,0-1092.2,0-1639.6c0-130.4,66.5-194.3,197-194.3
	c312.1,0,626.7,0,938.7,0c7.7,0,15.4,0,23,0c117.7,2.5,186.7,66.4,186.7,186.7c2.6,110,0,219.9,0,332.5
	C1882.1,5534.4,1882.1,5777.4,1882.1,6020.3z M1209.3,6468c-135.6,0-240.4,104.9-243,240.4c-2.6,130.4,110,240.4,243,240.4
	c130.5,0,240.4-110,240.4-237.9C1452.3,6575.4,1344.9,6468,1209.3,6468z"/>
<path class="st0" d="M5110.2,4810.5c61.4-112.5,133-133,245.5-71.6c232.8,127.9,465.5,255.8,698.3,383.7
	c97.2,53.7,166.2,33.2,219.9-63.9c94.7-171.4,186.7-340.2,281.4-511.6c194.3-353,386.2-706,583.1-1058.9
	c48.6-89.6,122.8-112.5,212.3-69.1c28.1,12.8,53.7,28.2,79.3,43.5c56.3,33.2,115.2,43.5,171.4-2.6c56.3-43.5,58.8-102.3,46.1-166.2
	c-53.7-276.3-104.9-549.9-156-826.2c-17.9-104.9-97.2-156.1-197-117.7c-268.5,102.3-534.6,209.8-803.2,314.6
	c-58.8,23-102.3,61.4-104.9,130.5c-2.5,66.5,33.2,110,89.6,140.7c71.6,35.8,143.3,76.7,217.4,112.5c-12.7,25.6-17.9,38.3-25.6,53.7
	c-207.2,376-414.4,752-619,1128.1c-61.4,110-130.4,130.4-243,66.4c-232.8-127.9-465.5-255.8-698.3-383.7
	c-97.2-51.1-166.2-33.2-219.9,61.4l-396.4,818.5C4485.9,4800.2,4721.4,4956.4,5110.2,4810.5z"/>
<path class="st0" d="M4524.4,2337c51.2-97.2,122.8-117.7,219.9-61.4c232.8,127.9,465.5,255.8,698.3,383.7
	c112.5,61.4,181.6,43.5,243-66.5c207.2-376,414.4-752,619-1128c7.6-15.4,12.7-28.2,25.6-53.7c-74.2-38.3-145.8-76.7-217.4-112.5
	c-58.8-28.2-92-74.2-89.6-140.7c2.5-69.1,46.1-107.4,104.9-130.5c268.5-107.4,534.6-212.3,803.2-314.6
	c99.8-38.3,176.5,12.8,197,117.7c51.2,276.3,102.3,549.9,156,826.2c12.7,66.5,7.6,122.8-46.1,166.2c-56.3,46-112.5,35.8-171.4,2.6
	c-25.6-15.4-53.7-30.7-79.3-43.5c-86.9-43.5-161.1-20.5-212.3,69.1c-194.3,353-388.8,706-583.1,1058.9
	c-92,171.4-186.7,340.2-281.4,511.6c-53.7,97.2-122.8,115.1-219.9,63.9c-232.8-127.9-465.5-255.8-698.3-383.7
	c-112.5-61.4-184.2-43.5-245.5,71.6L3931,4769.6c0,0-488.5-140.6-434.8-452.7C3554.9,3999.7,4524.4,2337,4524.4,2337z"/>
</svg>
