<?xml version="1.0" encoding="utf-8"?>
<!-- Generator: Adobe Illustrator 24.1.1, SVG Export Plug-In . SVG Version: 6.00 Build 0)  -->
<svg version="1.1" id="Layer_1" xmlns="http://www.w3.org/2000/svg" xmlns:xlink="http://www.w3.org/1999/xlink" x="0px" y="0px"
	 viewBox="0 0 8192 8192" style="enable-background:new 0 0 8192 8192;" xml:space="preserve">
<style type="text/css">
	.st0{fill:#FFFFFF;}
</style>
<path class="st0" d="M328,1438.4c101.7-278,303.4-374.8,595.6-374.8c2114.1,6.4,4228.1,3.2,6342.2,3.2
	c430.4,0,595.6,165.2,595.6,595.6c0,1332.6,0,2666.8,0,3999.4c0,408.2-168.4,573.4-579.7,575c-144.6,0-287.5,0-430.4,0
	c0-235.1,0-455.9,0-684.6c106.4-7.9,198.5-14.3,297-22.3c0-1250,0-2492.1,0-3746.8c-2031.5,0-4062.9,0-6105.5,0
	c0,1243.7,0,2490.5,0,3758c62,0,122.3,0,181.1,0c579.7,0,1159.4,3.2,1740.8-3.2c109.6-1.6,171.6,30.2,220.8,131.8
	c89,184.3,192.2,360.6,304.9,565.5c-87.3,0-146.1,0-204.9,0c-781.4,0-1561.3-9.5-2342.8,4.7c-290.7,4.7-493.9-84.1-614.7-351
	C328,4407,328,2921.9,328,1438.4z M7512,3415.9c-120.7-3.2-238.2,104.9-244.6,225.5c-6.4,128.7,106.4,244.6,239.8,244.6
	c130.2,0,230.3-100,231.9-230.3C7739.1,3525.4,7639,3419,7512,3415.9z"/>
<path class="st0" d="M4058.9,5075.7c0-101.7,0-160.4,0-219.2c0-714.7-1.6-1427.9,0-2142.7c0-206.5,76.2-314.5,224-341.5
	c219.2-38.2,358.9,82.6,362.1,320.8c3.2,406.6,1.6,814.8,1.6,1264.3c92.1-201.7,222.3-292.2,401.8-235.1
	c236.7,76.2,201.7,290.7,219.2,484.4c15.9-231.9-7.9-503.5,325.6-492.4c317.7,11.1,265.2,281.1,306.6,492.4
	c4.7-31.8,11.1-65.1,12.7-96.9c1.6-39.7,0-77.9,1.6-117.6c7.9-177.9,112.8-282.7,282.7-282.7c165.2,0,284.3,109.6,289,281.1
	c6.4,189,1.6,379.6,1.6,568.6c0,468.6,0,937.1,0,1405.7c0,679.8-440,1137.3-1118.2,1161.1c-387.5,14.3-759.2-35-1061-309.8
	c-68.3-63.5-131.8-138.2-177.9-219.2c-289-508.3-575-1018.1-859.3-1529.5c-38.2-68.3-74.7-138.2-98.5-211.3
	c-41.3-125.5-36.5-247.8,90.5-325.6c123.9-76.2,254.1-65.1,354.2,38.2C3758.8,4718.3,3889,4880.3,4058.9,5075.7z"/>
</svg>
