<?xml version="1.0" encoding="utf-8"?>
<!-- Generator: Adobe Illustrator 24.1.1, SVG Export Plug-In . SVG Version: 6.00 Build 0)  -->
<svg version="1.1" id="Layer_1" xmlns="http://www.w3.org/2000/svg" xmlns:xlink="http://www.w3.org/1999/xlink" x="0px" y="0px"
	 viewBox="0 0 8192 8192" style="enable-background:new 0 0 8192 8192;" xml:space="preserve">
<style type="text/css">
	.st0{fill:#B5B5C3;}
</style>
<path class="st0" d="M7175.6,6887.6c-1707,0-3373,0-5067.9,0c68.3-292.9,100.2-581.2,397.6-739c34.9-18.2,59.2-72.8,71.3-115.3
	c57.6-212.4,88-433.9,165.4-637.3c362.7-942.3,1198.7-1253.3,2086.3-1192.6c559.9,37.9,1051.5,230.6,1408.1,691.9
	C6480.6,5211,6618.7,5569,6665.7,5962c12.2,95.6,24.3,168.4,130.5,217c75.9,34.9,145.7,118.3,183.6,197.2
	C7055.7,6531,7105.8,6696.5,7175.6,6887.6z M3024.1,5725.4c19.7,25.8,47,62.2,75.9,100.2c45.5-45.5,115.3-83.4,130.5-138.1
	c101.6-352,311-623.6,611.5-819.3c148.7-97.1,324.7-151.7,482.5-235.2c45.5-24.3,72.8-85,107.7-129c-56.2-12.2-115.3-47-165.4-34.9
	c-341.4,81.9-637.3,250.3-875.5,508.3C3203.1,5182.2,3086.3,5426.4,3024.1,5725.4z M2526.4,6315.6c-3,19.7-6.1,39.4-9.1,59.2
	c42.5,18.2,86.5,50.1,129,50.1c289.8,6.1,581.2,7.6,871,1.5c37.9,0,74.4-47,112.3-72.8c-41-22.7-80.4-62.2-121.4-63.7
	c-261-6.1-523.5-3-784.5,0C2658.4,6292.8,2591.7,6306.4,2526.4,6315.6z"/>
<path class="st0" d="M6233.3,2540.4c-477.9,344.4-834.5-63.7-1236.6-214c195.7-18.2,391.5-25.8,584.2-57.6
	c218.5-34.9,418.7-113.8,488.6-358.1c53.1-188.2,4.5-327.8-174.5-403.6c-141.1-59.2-298.9-104.7-450.7-109.3
	c-487.1-15.2-975.7-18.2-1464.2-4.5c-291.3,7.6-511.4,192.7-761.7,391.5c259.5-44,476.5-104.7,696.4-113.8
	c493.1-19.7,987.8-21.3,1480.9-12.2c147.2,3,379.3-6.1,379.3,186.6c0,201.8-239.8,151.7-379.3,173
	c-182.1,27.3-371.8,16.7-556.9,18.2c-320.1,3-616,81.9-893.7,250.3c-242.8,147.2-499.2,271.6-751.1,403.6
	c-273.1,144.2-562.9,195.7-860.3,107.7c-471.9-138.1-939.2-291.3-1435.4-447.6c267-459.7,517.4-893.7,773.9-1335.2
	c168.4,77.3,326.2,147.2,481,221.5c151.7,72.8,298.9,71.3,455.2,10.6c474.9-185.1,952.9-364.1,1427.8-552.3
	C4401.9,551,4753.9,551,5110.5,734.6c825.4,423.3,1655.4,837.6,2482.3,1259.4c92.5,47,183.6,103.2,261,171.4
	c130.5,112.3,119.9,285.2-41,333.8c-151.7,45.5-326.2,25.8-490.1,19.7c-78.9-3-154.8-42.5-232.1-66.8
	C6979.8,2696.7,6732.5,2783.2,6233.3,2540.4z"/>
<path class="st0" d="M1421.8,7603.8c192.7-207.9,344.4-362.7,622.1-361.1c1744.9,9.1,3488.4,6.1,5233.3,4.5
	c251.9,0,386.9,159.3,549.3,356.6C5682.5,7603.8,3576.5,7603.8,1421.8,7603.8z"/>
<path class="st0" d="M1045.5,587.6c138.1,92.5,258,171.4,385.4,256.4c-250.3,458.2-491.7,904.3-743.5,1345.9
	c-22.7,41-107.7,71.3-160.8,66.8c-88-9.1-173-51.6-280.7-86.5C519,1631.5,780,1112.6,1045.5,587.6z"/>
<path class="st0" d="M5156,2850c0,92.5,0,160.8,0,244.3c-129,6.1-253.4,10.6-385.4,16.7c-12.2,83.4-21.3,156.3-33.4,236.7
	c-75.9,0-148.7,0-232.1,0c-6.1-75.9-10.6-148.7-18.2-241.2c-119.9,0-238.2,0-368.7,0c0-97.1,0-174.5,0-258
	C4461,2850,4799.4,2850,5156,2850z"/>
<path class="st0" d="M4626.5,4021.3c-47,0-95.6,9.1-139.6-1.5c-78.9-21.3-206.3-37.9-221.5-86.5c-25.8-80.4-6.1-198.8,39.4-276.1
	c80.4-138.1,227.6-170,382.4-148.7c148.7,19.7,264.1,85,317.1,235.2c62.2,177.5,1.5,267-185.1,277.7
	C4753.9,4022.9,4690.2,4019.8,4626.5,4021.3C4626.5,4019.8,4626.5,4019.8,4626.5,4021.3z"/>
</svg>
