<?xml version="1.0" encoding="utf-8"?>
<!-- Generator: Adobe Illustrator 24.1.1, SVG Export Plug-In . SVG Version: 6.00 Build 0)  -->
<svg version="1.1" id="Layer_1" xmlns="http://www.w3.org/2000/svg" xmlns:xlink="http://www.w3.org/1999/xlink" x="0px" y="0px"
	 viewBox="0 0 8192 8192" style="enable-background:new 0 0 8192 8192;" xml:space="preserve">
<style type="text/css">
	.st0{fill:#B5B5C3;}
</style>
<path class="st0" d="M4113.5,843.4c1030.8,0,2060.8,0,3093.7,0c355.2,0,612.7,167.8,723.3,480.3c31.8,91.1,44.9,193.1,44.9,289.3
	c3.6,1350.5,1.4,2702.4,1.4,4052.9c0,473.1-305.3,780.5-779,780.5c-1409.1,0-2816.7,0-4225.8,0c-646.7,0-1294.8,0-1941.5,0
	c-262.6,0-492.6-68-664.8-284.3c-110.7-139.6-151.9-298-151.9-469.5c0-1373.6,0-2747.3,1.4-4120.2c0-398.6,273.4-732,805.8-730.6
	C2050.5,845.6,3082.7,843.4,4113.5,843.4z M4073.7,5556.7c1030.8,0,2063,0,3093.8,0c301.6,0,429-126.6,429-426.8
	c0-1112.5,0-2227.2,0-3339.7c0-82.5,1.4-164.2-1.4-248.1c-7.2-209-115.7-335.6-327-346.5c-269.8-14.5-539.6-10.8-809.4-10.8
	c-1823.6,0-3649.3,0-5474.3,0c-301.6,0-423.2,121.5-423.2,421.7c0,1180.5,0,2359.6,0,3540.1c0,284.3,132.4,410.9,414.5,410.9
	C2012.9,5556.7,3043.7,5556.7,4073.7,5556.7z M4091.8,5832.3c-89,1.4-173.6,86.1-171.4,171.4c3.6,92.6,82.5,166.4,175,166.4
	c92.6,0,167.8-76.7,170-170C4265.4,5906.9,4184.4,5830.2,4091.8,5832.3z"/>
<path class="st0" d="M6336.4,7342.7c-1503.8,0-3004.1,0-4502.8,0c-57.1-198.2,15.9-296.6,219.9-296.6c1344.7,0,2688,0,4032.7,0
	C6316.8,7046.1,6363.1,7099.6,6336.4,7342.7z"/>
<path class="st0" d="M3359.8,7045.4c64.4-193.1,123-378.3,189.5-562.7c7.2-18.1,42.7-35.5,65.8-35.5c294.4-1.4,589.5-1.4,883.9,0
	c21.7,0,55.7,14.5,60.8,28.9c64.4,187.3,126.6,375.4,189.5,570C4279.1,7045.4,3825.6,7045.4,3359.8,7045.4z"/>
<rect x="1057.4" y="1616.7" class="st0" width="730.6" height="3491.6"/>
<rect x="2270.4" y="2635.1" class="st0" width="730.6" height="2473.8"/>
<rect x="3554.4" y="3644.2" class="st0" width="730.6" height="1464.8"/>
<rect x="4865" y="2635.1" class="st0" width="730.6" height="2473.8"/>
<rect x="6101.3" y="1616.7" class="st0" width="730.6" height="3491.6"/>
</svg>
