<?xml version="1.0" encoding="utf-8"?>
<!-- Generator: Adobe Illustrator 24.1.1, SVG Export Plug-In . SVG Version: 6.00 Build 0)  -->
<svg version="1.1" id="Layer_1" xmlns="http://www.w3.org/2000/svg" xmlns:xlink="http://www.w3.org/1999/xlink" x="0px" y="0px"
	 viewBox="0 0 8192 8192" style="enable-background:new 0 0 8192 8192;" xml:space="preserve">
<style type="text/css">
	.st0{fill:#FFFFFF;}
</style>
<path class="st0" d="M5472,6764c104.3-60.6,177-143,198.8-261.9c21.8-114,0-223.1-84.9-310.3c126.1-87.3,198.8-196.4,196.4-349.2
	c-2.4-150.4-77.6-261.9-201.3-341.9c7.2-12.1,14.6-21.8,21.8-31.5c87.3-133.3,97-271.6,26.6-414.6
	c-72.7-150.4-252.2-242.5-397.7-215.8c-130.9,24.3-261.9,48.5-395.2,55.8c-203.6,12.1-407.4,7.2-611.1-19.4
	c-135.8-19.4-271.6-34-402.5-70.3c-203.7-55.8-346.7-186.7-404.9-397.7c-7.3-29.1-24.3-29.1-46.1-29.1c-128.5,0-261.9,2.4-390.4,0
	c-101.8-2.4-194,21.8-283.7,65.5c-111.5,58.3-213.4,128.5-298.2,225.5c-58.2,63-121.2,123.6-177,186.7
	c-24.3,26.6-46.1,55.8-46.1,99.5c2.4,613.4,0,1224.5,2.4,1838c0,16.9,12.1,41.2,26.7,50.9c162.4,130.9,334.6,247.3,518.9,344.3
	c147.9,75.2,298.2,126.1,468,126.1c657.1-2.4,1314.2-2.4,1973.8,0c55.8,0,106.7-7.2,157.6-34c84.9-43.7,147.9-104.3,181.9-193.9
	C5544.7,6972.7,5532.6,6868.4,5472,6764z"/>
<path class="st0" d="M5472,6764c60.6,106.7,72.7,211,34,320c-34,89.7-97,150.4-181.9,193.9c-50.9,26.6-101.8,34-157.6,34
	c-657.1-2.4-1314.2-2.4-1973.8,0c-169.7,2.4-322.5-50.9-468-126.1c-186.7-94.6-356.4-213.4-518.9-344.3
	c-14.6-12.1-26.7-34-26.7-50.9c-2.4-613.4-2.4-1224.5-2.4-1838c0-41.2,21.8-72.7,46.1-99.5c58.2-63,121.2-123.6,177-186.7
	c84.9-94.6,186.7-167.3,298.2-225.5c87.3-46.1,181.9-67.8,283.7-65.5c128.5,2.4,261.9,2.4,390.4,0c21.8,0,36.3,0,46.1,29.1
	c55.8,211,198.9,341.9,404.9,397.7c130.9,36.3,266.8,50.9,402.5,70.3c203.7,29.1,407.4,31.5,611,19.4
	c133.3-7.2,264.3-31.5,395.2-55.8c145.5-26.6,322.5,65.5,397.7,215.8c70.3,143,60.6,281.3-26.6,414.6c-4.9,9.7-12.1,16.9-21.8,31.5
	c123.6,82.4,198.8,191.6,201.3,341.9c2.4,152.7-70.3,261.9-196.4,349.2c84.9,87.3,106.7,196.4,84.9,310.3
	C5649,6618.5,5576.2,6703.4,5472,6764z"/>
<path class="st0" d="M1997.2,5920.2c0,329.7,0,659.6,0,989.3c0,128.5-63,189.1-189.1,189.1c-295.8,0-594.1,0-889.9,0
	c-135.8,0-194-58.3-196.4-193.9c0-143,0-288.5,0-431.6c0-518.9,0-1035.4,0-1554.3c0-123.6,63-184.2,186.7-184.2
	c295.8,0,594.1,0,889.9,0c7.3,0,14.6,0,21.8,0c111.5,2.4,177,63,177,177c2.4,104.3,0,208.5,0,315.2
	C1997.2,5459.5,1997.2,5689.9,1997.2,5920.2z M1359.5,6344.6c-128.5,0-227.9,99.5-230.3,227.9c-2.4,123.6,104.3,227.9,230.3,227.9
	c123.7,0,227.9-104.3,227.9-225.5C1589.8,6446.4,1488,6344.6,1359.5,6344.6z"/>
<path class="st0" d="M5057.4,4773.3c58.3-106.7,126.1-126.1,232.8-67.8c220.7,121.2,441.3,242.5,662,363.7
	c92.1,50.9,157.6,31.5,208.5-60.6c89.7-162.4,177-322.5,266.8-485c184.2-334.6,366.1-669.2,552.8-1003.8
	c46.1-84.9,116.4-106.7,201.3-65.5c26.6,12.1,50.9,26.7,75.2,41.2c53.4,31.5,109.2,41.2,162.4-2.4c53.4-41.2,55.8-97,43.7-157.6
	c-50.9-261.9-99.5-521.3-147.9-783.2c-16.9-99.4-92.1-147.9-186.7-111.5c-254.6,97-506.7,198.9-761.4,298.2
	c-55.8,21.8-97,58.2-99.5,123.7c-2.4,63,31.5,104.3,84.9,133.4c67.8,33.9,135.8,72.8,206.1,106.7c-12.1,24.3-16.9,36.3-24.3,50.9
	c-196.4,356.4-392.8,712.9-586.8,1069.4c-58.3,104.3-123.6,123.6-230.4,63c-220.7-121.2-441.3-242.5-662-363.7
	c-92.1-48.5-157.6-31.5-208.5,58.2l-375.8,775.9C4465.6,4763.6,4688.8,4911.6,5057.4,4773.3z"/>
<path class="st0" d="M4502.1,2428.5c48.5-92.1,116.4-111.5,208.5-58.2c220.7,121.2,441.3,242.5,662,363.7
	c106.7,58.2,172.2,41.2,230.4-63c196.4-356.4,392.8-712.9,586.8-1069.3c7.2-14.6,12.1-26.7,24.3-50.9
	c-70.3-36.3-138.2-72.8-206.1-106.7c-55.8-26.7-87.3-70.3-84.9-133.4c2.4-65.5,43.7-101.8,99.5-123.7
	c254.6-101.8,506.7-201.3,761.4-298.2c94.6-36.3,167.3,12.1,186.7,111.5c48.5,261.9,97,521.3,147.9,783.2
	c12.1,63,7.2,116.4-43.7,157.6c-53.4,43.6-106.7,33.9-162.4,2.4c-24.3-14.6-50.9-29.1-75.2-41.2c-82.4-41.2-152.7-19.4-201.3,65.5
	c-184.2,334.6-368.6,669.2-552.8,1003.8c-87.3,162.4-177,322.5-266.8,485c-50.9,92.1-116.4,109.1-208.5,60.6
	c-220.7-121.2-441.3-242.5-662-363.7c-106.7-58.2-174.6-41.2-232.8,67.9l-773.5,1513.1c0,0-463.1-133.3-412.2-429.2
	C3583,4004.6,4502.1,2428.5,4502.1,2428.5z"/>
</svg>
