<?xml version="1.0" encoding="utf-8"?>
<!-- Generator: Adobe Illustrator 24.1.1, SVG Export Plug-In . SVG Version: 6.00 Build 0)  -->
<svg version="1.1" id="Layer_1" xmlns="http://www.w3.org/2000/svg" xmlns:xlink="http://www.w3.org/1999/xlink" x="0px" y="0px"
	 viewBox="0 0 8192 8192" style="enable-background:new 0 0 8192 8192;" xml:space="preserve">
<style type="text/css">
	.st0{fill:#B5B5C3;}
	.st1{fill:none;stroke:#B5B5C3;stroke-width:500;stroke-miterlimit:5.6889;}
</style>
<path class="st0" d="M4309.2,6229.9c-411.1,0-820.6-1.5-1231.7,0c-143.8,0-282.9-23.4-281.3-198.5
	c1.5-178.2,145.4-190.7,287.6-190.7c814.4,1.5,1627.2,1.5,2441.5,0c140.7,0,289.2,12.5,292.3,186c3.1,189.1-148.5,203.2-298.6,203.2
	C5115.7,6228.3,4712.4,6229.9,4309.2,6229.9z"/>
<path class="st0" d="M4288.9,2766.1c-411.1,0-820.6-1.5-1231.7,1.5c-139.1,1.5-262.6-26.6-261-190.7
	c1.5-165.7,128.1-190.7,264.1-190.7c828.4,1.5,1656.9,1.5,2485.3,0c134.4,0,268.9,18.8,272,182.9c4.7,176.6-129.7,200-276.7,198.5
	C5125.1,2763,4707.8,2766.1,4288.9,2766.1z"/>
<path class="st0" d="M4312.3,5074.7c-411.1,0-820.6,0-1231.7,0c-140.7,0-284.5-14-282.9-195.4c1.5-181.3,145.4-189.1,286.1-189.1
	c820.6,1.5,1642.8,1.5,2463.4,0c137.5,0,265.8,20.3,272,181.3c6.3,178.2-131.3,203.2-275.1,203.2
	C5132.9,5073.2,4721.8,5074.7,4312.3,5074.7z"/>
<path class="st0" d="M4310.8,3541.4c417.3,0,836.3,1.5,1253.6,0c140.7,0,261,31.3,256.4,195.4c-4.7,150-117.2,181.3-250.1,181.3
	c-836.3-1.5-1670.9-1.5-2507.2,0c-136,0-264.1-18.8-267.3-186c-1.5-167.2,121.9-192.3,261-192.3
	C3474.5,3543,3891.8,3541.4,4310.8,3541.4z"/>
<path class="st0" d="M2356.9,2808.3c-192.3-34.4-301.7-87.5-295.4-243.8c4.7-146.9,120.4-181.3,250.1-179.7
	c136,0,275.1,32.8,253.2,190.7C2550.7,2661.4,2428.8,2731.7,2356.9,2808.3z"/>
<path class="st0" d="M2306.9,4599.6c120.4,125,242.2,193.9,256.4,279.8c23.4,156.3-112.6,193.9-250.1,195.4
	c-139.1,0-268.9-43.7-245.4-198.5C2078.7,4793.4,2192.8,4724.7,2306.9,4599.6z"/>
<path class="st0" d="M2321,6326.8c-120.4-134.4-240.7-206.3-253.2-295.4c-20.3-132.9,98.5-190.7,234.5-190.7s275.1,29.7,261,184.5
	C2553.8,6114.2,2436.6,6190.8,2321,6326.8z"/>
<path class="st0" d="M2306.9,4015c-114.1-134.4-232.9-211-239.1-295.4c-12.5-157.8,129.7-178.2,262.6-178.2s254.8,46.9,232.9,186
	C2549.2,3813.4,2430.3,3883.7,2306.9,4015z"/>
<path class="st1" d="M5778.4,7614.7H2414.7c-523.6,0-947.2-423.6-947.2-947.2V1525c0-523.6,423.6-947.2,947.2-947.2h3363.7
	c523.6,0,947.2,423.6,947.2,947.2v5144.1C6725.7,7191.1,6300.6,7614.7,5778.4,7614.7z"/>
</svg>
